<svg xmlns="http://www.w3.org/2000/svg" width="592" height="376"><style>.st0{fill:#d8eff4}.st2{fill:#ffb95c}.st3{fill:#50b848}.st4{fill:#ff653b}.st5{fill:#5fa2be}.st7{fill:#ffb392}.st9{fill:#ffd273}.st15{fill:#c3e8ef}.st17{fill:#f5f8f8}</style><g id="Квартирный_переезд_баннер"><path class="st0" d="M440.51 25.99c0-8.19 6.99-14.85 15.59-14.85 8.59 0 15.59 6.66 15.59 14.85s-6.99 14.85-15.59 14.85c-8.59 0-15.59-6.66-15.59-14.85zm5.86 0c0 5.11 4.36 9.27 9.73 9.27s9.73-4.16 9.73-9.27-4.36-9.27-9.73-9.27-9.73 4.16-9.73 9.27z"/><g id="Слой_12_2_"><path class="st0" d="M18.59 34.52c0-7.54 6.44-13.67 14.35-13.67 7.91 0 14.35 6.13 14.35 13.67s-6.44 13.67-14.35 13.67c-7.91 0-14.35-6.13-14.35-13.67zm5.39 0c0 4.7 4.02 8.53 8.96 8.53s8.95-3.83 8.95-8.53-4.02-8.53-8.95-8.53-8.96 3.83-8.96 8.53zm530.37 59.2c1.14 0 2.06-.92 2.06-2.06V73.35c0-1.14-.92-2.06-2.06-2.06-1.14 0-2.06.92-2.06 2.06v18.31c0 1.14.92 2.06 2.06 2.06z"/><path class="st0" d="M542.57 82.51c0 1.08.88 1.96 1.96 1.96h19.63c1.08 0 1.96-.88 1.96-1.96s-.88-1.96-1.96-1.96h-19.63a1.95 1.95 0 00-1.96 1.96zM18.7 214.44c1.2 0 2.18-.98 2.18-2.18V192.9c0-1.2-.98-2.18-2.18-2.18-1.2 0-2.18.98-2.18 2.18v19.37c0 1.2.97 2.17 2.18 2.17z"/><path class="st0" d="M6.24 202.58c0 1.15.93 2.08 2.08 2.08h20.75c1.15 0 2.08-.93 2.08-2.08s-.93-2.08-2.08-2.08H8.32c-1.15.01-2.08.94-2.08 2.08z"/></g></g><g id="all_shit"><linearGradient id="SVGID_1_" gradientUnits="userSpaceOnUse" x1="291.214" y1="330.078" x2="340.284" y2="-3.601" gradientTransform="matrix(-1 0 0 1 588.282 0)"><stop offset="0" stop-color="#ecf6fb" stop-opacity=".1"/><stop offset=".298" stop-color="#dbeff5" stop-opacity=".368"/><stop offset=".619" stop-color="#d0ebf2" stop-opacity=".657"/><stop offset="1" stop-color="#cdeaf1"/></linearGradient><path d="M14.05 376c-24.65-80.74-2.32-124.18 35.38-172.19-10.97-19.47-17.19-41.72-17.19-65.36C32.23 61.99 97.31 0 177.58 0c61.97 0 108.01 25.86 128.92 77.89 50.11-19.71 116.78-15.11 150.56 57.35 8.85-2.91 18.35-4.49 28.24-4.49 47.8 0 86.55 36.91 86.55 82.45 0 13.06-3.19 25.41-8.87 36.38 19.63 38.16 32.35 115.05 9.1 126.43H14.05z" fill="url(#SVGID_1_)"/><path class="st2" d="M540.96 131.24c0-6.33 5.41-11.48 12.05-11.48 6.65 0 12.05 5.15 12.05 11.48s-5.41 11.48-12.05 11.48c-6.64 0-12.05-5.15-12.05-11.48zm5.4 0c0 3.49 2.98 6.34 6.65 6.34 3.67 0 6.65-2.84 6.65-6.34 0-3.49-2.98-6.34-6.65-6.34-3.66.01-6.65 2.85-6.65 6.34z"/><ellipse class="st2" cx="79.57" cy="115.52" rx="8.16" ry="7.77"/><path class="st3" d="M92.27 297.26c0-5.95 5.08-10.79 11.32-10.79s11.32 4.84 11.32 10.79c0 5.95-5.08 10.79-11.32 10.79-6.24-.01-11.32-4.84-11.32-10.79zm5.03 0c0 3.3 2.82 5.99 6.29 5.99s6.29-2.69 6.29-5.99c0-3.3-2.82-5.99-6.29-5.99s-6.29 2.68-6.29 5.99z"/><ellipse class="st3" cx="364.2" cy="48.1" rx="4.73" ry="4.5"/><ellipse class="st4" cx="415.53" cy="110.89" rx="3.87" ry="3.69"/><ellipse class="st5" cx="50.34" cy="252.1" rx="4.69" ry="4.47"/><path class="st4" d="M189.66 34.38v.28c0 1.84 1.49 3.33 3.33 3.33h23.64c1.84 0 3.33-1.49 3.33-3.33v-.28c0-1.84-1.49-3.33-3.33-3.33h-23.64c-1.84 0-3.33 1.49-3.33 3.33z"/><path class="st3" d="M492.34 247.49v.28c0 1.84 1.49 3.33 3.33 3.33h23.64c1.84 0 3.33-1.49 3.33-3.33v-.28c0-1.84-1.49-3.33-3.33-3.33h-23.64c-1.84 0-3.33 1.5-3.33 3.33z"/><path class="st4" d="M204.95 19.37h-.28c-1.84 0-3.33 1.49-3.33 3.33v23.64c0 1.84 1.49 3.33 3.33 3.33h.28c1.84 0 3.33-1.49 3.33-3.33V22.7c0-1.84-1.49-3.33-3.33-3.33z"/><path class="st3" d="M507.63 232.48h-.28c-1.84 0-3.33 1.49-3.33 3.33v23.64c0 1.84 1.49 3.33 3.33 3.33h.28c1.84 0 3.33-1.49 3.33-3.33v-23.64c0-1.84-1.49-3.33-3.33-3.33z"/></g><g id="_x34_._Оценка_груза"><linearGradient id="SVGID_2_" gradientUnits="userSpaceOnUse" x1="401.794" y1="256.555" x2="401.794" y2="625.831"><stop offset="0" stop-color="#ffe9bf"/><stop offset="1" stop-color="#ff6e48"/></linearGradient><path fill="url(#SVGID_2_)" d="M347.49 370.55H456.1v-74.3H347.49z"/><path class="st7" d="M357.11 354.62h44.94c1.03 0 1.86-.83 1.86-1.86 0-1.03-.83-1.86-1.86-1.86h-44.94c-1.03 0-1.86.83-1.86 1.86a1.85 1.85 0 001.86 1.86zm9.17 7.92h35.77c1.03 0 1.86-.83 1.86-1.86 0-1.03-.83-1.86-1.86-1.86h-35.77c-1.03 0-1.86.83-1.86 1.86a1.85 1.85 0 001.86 1.86z"/><path class="st3" d="M401.28 360.13c-.9 0-1.77.14-2.59.38v-27.75c.67.16 1.37.25 2.09.25 4.99 0 9.03-4.04 9.03-9.03 0-.6-.06-1.19-.17-1.76h53.46c-.16.66-.25 1.35-.25 2.06 0 4.99 4.04 9.03 9.03 9.03.71 0 1.4-.09 2.06-.25v27.14c-.72-.19-1.48-.3-2.26-.3-4.99 0-9.03 4.04-9.03 9.03 0 .55.06 1.08.15 1.6h-52.61c.07-.45.12-.91.12-1.38 0-4.98-4.04-9.02-9.03-9.02z"/><path class="st2" d="M462.85 324.28c0-.71.09-1.4.25-2.06h4.2c3.67 0 6.65 2.98 6.65 6.65v4.2c-.66.16-1.35.25-2.06.25-4.99 0-9.04-4.05-9.04-9.04zm-62.07 8.73c-.72 0-1.42-.09-2.09-.25v-3.89c0-3.67 2.98-6.65 6.65-6.65h4.3c.11.57.17 1.16.17 1.76 0 4.99-4.04 9.03-9.03 9.03zm70.91 26.9c.78 0 1.54.11 2.26.3v3.68c0 3.67-2.98 6.65-6.65 6.65h-4.5c-.09-.52-.15-1.05-.15-1.6 0-4.98 4.05-9.03 9.04-9.03zm-73.01 3.99v-3.38a9.026 9.026 0 0111.62 8.65c0 .47-.05.93-.12 1.38h-4.86c-3.66 0-6.64-2.98-6.64-6.65zm55.86-27.02h.29c1.48 0 2.67-1.2 2.67-2.67v-11.99h-5.64v11.99c.01 1.47 1.2 2.67 2.68 2.67z"/><circle class="st3" cx="454.69" cy="333.12" r="1.4"/><path transform="rotate(180 454.686 367.956)" class="st2" d="M451.87 365.38h5.64v5.15h-5.64z"/><path transform="rotate(180 418.7 368.102)" class="st2" d="M416.02 365.66h5.35v4.89h-5.35z"/><path class="st2" d="M443.22 322.22h5.34v-6.07c0-2.71-2.2-4.91-4.91-4.91h-.43v10.98zm-18.43 0h5.06v-10.97h-.41c-2.57 0-4.65 2.08-4.65 4.65v6.32z"/><path transform="rotate(-90 436.539 313.71)" class="st3" d="M434.07 307.02H439v13.37h-4.93z"/><path transform="rotate(-180 375.12 209.554)" class="st2" d="M356.4 188.27h37.45v42.58H356.4z"/><path transform="rotate(-180 390.752 218.111)" fill="#3e95b6" d="M376.04 205.31h29.43v25.6h-29.43z"/><path transform="rotate(180 390.741 209.971)" class="st5" d="M374.1 204.07h33.28v11.8H374.1z"/><path transform="rotate(-180 375.044 188.77)" class="st9" d="M354.66 182.65h40.77v12.23h-40.77z"/><linearGradient id="SVGID_3_" gradientUnits="userSpaceOnUse" x1="479.382" y1="266.14" x2="465.329" y2="280.193" gradientTransform="matrix(-1 0 0 1 664.105 0)"><stop offset="0" stop-color="#55ce7e"/><stop offset="1" stop-color="#008f7f"/></linearGradient><circle cx="191.48" cy="272.89" r="10.5" fill="url(#SVGID_3_)"/><linearGradient id="SVGID_4_" gradientUnits="userSpaceOnUse" x1="456.844" y1="262.391" x2="456.844" y2="323.669" gradientTransform="matrix(-1 0 0 1 664.105 0)"><stop offset="0" stop-color="#55ce7e"/><stop offset="1" stop-color="#008f7f"/></linearGradient><circle cx="207.26" cy="297.98" r="23.88" fill="url(#SVGID_4_)"/><linearGradient id="SVGID_5_" gradientUnits="userSpaceOnUse" x1="514.072" y1="317.295" x2="497.043" y2="334.324" gradientTransform="matrix(-1 0 0 1 664.105 0)"><stop offset="0" stop-color="#55ce7e"/><stop offset="1" stop-color="#008f7f"/></linearGradient><path d="M155.81 315.86s19.98 11.94 10.9 21.02-10.9-21.02-10.9-21.02z" fill="url(#SVGID_5_)"/><linearGradient id="SVGID_6_" gradientUnits="userSpaceOnUse" x1="494.281" y1="325.373" x2="494.281" y2="302.869" gradientTransform="matrix(-1 0 0 1 664.105 0)"><stop offset="0" stop-color="#55ce7e"/><stop offset="1" stop-color="#008f7f"/></linearGradient><path d="M169.91 304.89s15.78 25.73-.12 30.7c-15.89 4.97.12-30.7.12-30.7z" fill="url(#SVGID_6_)"/><linearGradient id="SVGID_7_" gradientUnits="userSpaceOnUse" x1="481.584" y1="322.441" x2="494.579" y2="335.436" gradientTransform="matrix(-1 0 0 1 664.105 0)"><stop offset="0" stop-color="#55ce7e"/><stop offset="1" stop-color="#008f7f"/></linearGradient><path d="M189.32 315.76s-7.04 29.35-21.8 21.63c-14.75-7.72 21.8-21.63 21.8-21.63z" fill="url(#SVGID_7_)"/><path class="st15" d="M166.66 370.84h10.23c7.74 0 14.02-6.28 14.02-14.02v-19.39c0-1.46-1.18-2.64-2.64-2.64h-32.98c-1.46 0-2.64 1.18-2.64 2.64v19.39c-.01 7.74 6.26 14.02 14.01 14.02z"/><path class="st0" d="M198.01 370.84h18.51c11.66 0 21.12-9.45 21.12-21.12v-36.57a3.05 3.05 0 00-3.05-3.05h-54.64a3.05 3.05 0 00-3.05 3.05v36.57c-.01 11.67 9.44 21.12 21.11 21.12z"/><linearGradient id="SVGID_8_" gradientUnits="userSpaceOnUse" x1="358.922" y1="164.111" x2="358.922" y2="650.59"><stop offset="0" stop-color="#ffe9bf"/><stop offset="1" stop-color="#ff6e48"/></linearGradient><path fill="url(#SVGID_8_)" d="M290.52 296.23h136.8v-65.32h-136.8z"/><path class="st7" d="M339.35 281.11h50.13c.79 0 1.44-.64 1.44-1.44v-1.18c0-.79-.64-1.44-1.44-1.44h-50.13c-.79 0-1.44.64-1.44 1.44v1.18c0 .8.64 1.44 1.44 1.44zm9.98 8.63h40.15c.79 0 1.44-.64 1.44-1.44v-1.18c0-.79-.64-1.44-1.44-1.44h-40.15c-.79 0-1.44.64-1.44 1.44v1.18c0 .8.65 1.44 1.44 1.44z"/><path transform="rotate(-180 413.08 244.93)" class="st7" d="M405.67 237.52h14.83v14.83h-14.83z"/><path class="st2" d="M418.55 336.88h.29c1.48 0 2.67-1.2 2.67-2.67v-11.99h-5.64v11.99a2.691 2.691 0 002.68 2.67z"/><circle class="st3" cx="418.7" cy="333.12" r="1.4"/></g><g id="_x33_._Планируйте_заранее"><path class="st17" d="M343.53 370.55H227.67c-11.54 0-20.9-9.36-20.9-20.9V109.46c0-11.54 9.36-20.9 20.9-20.9h115.87c11.54 0 20.9 9.36 20.9 20.9v240.19c0 11.54-9.36 20.9-20.91 20.9z"/><linearGradient id="SVGID_9_" gradientUnits="userSpaceOnUse" x1="302.64" y1="408.852" x2="302.64" y2="117.93" gradientTransform="matrix(-1 0 0 1 588.282 0)"><stop offset="0" stop-color="#ecf6fb" stop-opacity=".1"/><stop offset=".298" stop-color="#dbeff5" stop-opacity=".368"/><stop offset=".619" stop-color="#d0ebf2" stop-opacity=".657"/><stop offset="1" stop-color="#cdeaf1"/></linearGradient><path d="M347.96 335.51H223.32a8.32 8.32 0 01-8.32-8.32V128.08c0-4.6 3.73-8.32 8.32-8.32h124.64c4.6 0 8.32 3.73 8.32 8.32v199.11a8.32 8.32 0 01-8.32 8.32z" fill="url(#SVGID_9_)"/><path class="st15" d="M303.13 107.74h-24.58c-1.62 0-2.93-1.31-2.93-2.93s1.31-2.93 2.93-2.93h24.58c1.62 0 2.93 1.31 2.93 2.93s-1.31 2.93-2.93 2.93zm-4.68 255.56h-25.61c-5.52 0-10-4.48-10-10s4.48-10 10-10h25.61c5.52 0 10 4.48 10 10s-4.48 10-10 10z"/><path class="st17" d="M297.85 360.4h-24.5c-3.92 0-7.11-3.18-7.11-7.11 0-3.92 3.18-7.11 7.11-7.11h24.5c3.92 0 7.11 3.18 7.11 7.11-.01 3.93-3.19 7.11-7.11 7.11zm-6.94-69.65h-10.9c-4.89 0-8.85 3.96-8.85 8.85v10.58c0 4.89 3.96 8.85 8.85 8.85h10.9c4.89 0 8.85-3.96 8.85-8.85V299.6c0-4.89-3.96-8.85-8.85-8.85zm-41.16 0h-10.9c-4.89 0-8.85 3.96-8.85 8.85v10.58c0 4.89 3.96 8.85 8.85 8.85h10.9c4.89 0 8.85-3.96 8.85-8.85V299.6c0-4.89-3.96-8.85-8.85-8.85z"/><linearGradient id="SVGID_10_" gradientUnits="userSpaceOnUse" x1="326.037" y1="209.404" x2="1705.438" y2="209.404" gradientTransform="matrix(-1 0 0 1 588.282 0)"><stop offset="0" stop-color="#ffd273"/><stop offset="1" stop-color="#ffb951"/></linearGradient><path d="M109.47 209.17c0-9.27-7.51-16.78-16.78-16.78h-2.42a3.72 3.72 0 01-3.72-3.72v-23.64c0-3.3 2.67-5.97 5.97-5.97h193.81c9.27 0 16.78 7.51 16.78 16.78 0 9.27-7.51 16.78-16.78 16.78h-28.04c-9.27 0-16.78 7.51-16.78 16.78 0 9.27 7.51 16.78 16.78 16.78h12.28c9.27 0 16.78 7.51 16.78 16.78 0 9.27-7.51 16.78-16.78 16.78H92.52c-3.3 0-5.97-2.67-5.97-5.97v-24.1a3.72 3.72 0 013.72-3.72h2.42c9.27 0 16.78-7.51 16.78-16.78z" fill="url(#SVGID_10_)"/><path d="M226.08 257.74v-17.03c0-.83.67-1.5 1.5-1.5s1.5.67 1.5 1.5v17.03c0 .83-.67 1.5-1.5 1.5s-1.5-.67-1.5-1.5zm0-37.03v-20c0-.83.67-1.5 1.5-1.5s1.5.67 1.5 1.5v20c0 .83-.67 1.5-1.5 1.5s-1.5-.67-1.5-1.5zm0-40v-20c0-.83.67-1.5 1.5-1.5s1.5.67 1.5 1.5v20c0 .83-.67 1.5-1.5 1.5s-1.5-.67-1.5-1.5zm-107.54 76.96v-16.22c0-.83.67-1.5 1.5-1.5s1.5.67 1.5 1.5v16.22c0 .83-.67 1.5-1.5 1.5s-1.5-.67-1.5-1.5zm0-36.23v-20c0-.83.67-1.5 1.5-1.5s1.5.67 1.5 1.5v20c0 .83-.67 1.5-1.5 1.5s-1.5-.67-1.5-1.5zm0-40v-20c0-.83.67-1.5 1.5-1.5s1.5.67 1.5 1.5v20c0 .83-.67 1.5-1.5 1.5s-1.5-.67-1.5-1.5z" fill="#ffb951"/><path d="M134.17 219.44v-2.43c0-.4.13-.73.43-1.03l7.34-7.41c1.3-1.33 2.44-2.97 2.44-4.44 0-1.57-.8-2.47-2.3-2.47-1.4 0-2.23.57-2.5 1.8-.1.53-.37.8-.87.8H135c-.53 0-.83-.3-.8-.87.4-4.84 4.04-6.94 7.74-6.94 3.9 0 7.77 2.34 7.77 7.67 0 2.57-1.57 5.24-3.47 7.11l-4.04 3.9h7c.53 0 .83.3.83.83v3.47c0 .53-.3.83-.83.83H135c-.53.01-.83-.29-.83-.82zm17.54-10.84c0-7.2 3.47-12.14 9.51-12.14 6.04 0 9.51 4.94 9.51 12.14 0 7.21-3.47 12.14-9.51 12.14-6.04 0-9.51-4.94-9.51-12.14zm13.68 0c0-4.5-1.37-6.94-4.17-6.94s-4.17 2.43-4.17 6.94 1.37 6.94 4.17 6.94 4.17-2.44 4.17-6.94zm7.34 0c0-7.2 3.47-12.14 9.51-12.14 6.04 0 9.51 4.94 9.51 12.14 0 7.21-3.47 12.14-9.51 12.14-6.05 0-9.51-4.94-9.51-12.14zm13.67 0c0-4.5-1.37-6.94-4.17-6.94s-4.17 2.43-4.17 6.94 1.37 6.94 4.17 6.94 4.17-2.44 4.17-6.94zm7.34 0c0-7.2 3.47-12.14 9.51-12.14 6.04 0 9.51 4.94 9.51 12.14 0 7.21-3.47 12.14-9.51 12.14-6.04 0-9.51-4.94-9.51-12.14zm13.68 0c0-4.5-1.37-6.94-4.17-6.94s-4.17 2.43-4.17 6.94 1.37 6.94 4.17 6.94 4.17-2.44 4.17-6.94z" fill="#f8f9f2"/><circle class="st9" cx="324.13" cy="242.96" r="16.78"/><circle class="st15" cx="268.07" cy="104.81" r="2.93"/><path class="st17" d="M332.44 290.75h-10.9c-4.89 0-8.85 3.96-8.85 8.85v10.58c0 4.89 3.96 8.85 8.85 8.85h10.9c4.89 0 8.85-3.96 8.85-8.85V299.6c-.01-4.89-3.97-8.85-8.85-8.85z"/></g></svg>