<svg width="138" height="61" fill="none" xmlns="http://www.w3.org/2000/svg"><path d="M137.5 12.544a.182.182 0 00.01-.055 7.581 7.581 0 00.485-2.651c0-3.31-2.126-6.117-5.089-7.172-.046-.02-.086-.04-.131-.055a1.207 1.207 0 01-.091-.025 7.83 7.83 0 00-1.187-.271C122.157.437 66.269-7.247 4.801 21.94a7.28 7.28 0 00-.848.402l-.03.015v.005C1.58 23.662 0 26.143 0 29.001c0 1.06.217 2.069.61 2.988L12.562 56.72s.01.005.015.005a7.656 7.656 0 009.027 3.958h.02c.01-.005.04-.01.081-.026.02-.005.04-.015.06-.02 2.803-.914 48.064-15.929 92.982-5.182h.025a7.665 7.665 0 008.654-4.309c.015-.03.03-.055.04-.085l.045-.096c0-.005.005-.01.01-.02l.041-.11c.076-.196.151-.392.212-.593 1.934-5.378 13.293-36.478 13.727-37.699z" fill="#50B848"/><path d="M55.612 25.988c.262-.542.303-.98.297-1.33-.035-1.437-.913-1.698-2.004-1.477-1.439.291-2.605 1.255-3.498 2.898-.884 1.622-1.146 3.299-.793 5.026.182.91.55 1.567 1.1 1.979.55.412 1.197.547 1.94.392.908-.181 1.822-.769 2.74-1.753.808-.919 1.167-1.587 1.081-2.004-.03-.15-.136-.21-.318-.17-.288.23-.576.462-.873.693-.586.462-1.066.733-1.444.808-1.136.231-1.863-.437-2.187-2.003-.15-.739-.1-1.613.152-2.617.348-1.23.909-1.928 1.681-2.084.349-.07.556.045.616.347.04.195.005.552-.116 1.06-.111.446-.161.722-.141.828.065.301.368.462.868.291.374-.12.697-.462.899-.884zm61.714 2.837l-.5 1.3c-.237.669-.631 1.025-1.186.89-.576-.14-.435-.769-.319-1.06.117-.291.409-1.04.409-1.04s-.873.046-1.545-.12c-2.367-.587-3.741-2.13-3.584-4.464.227-3.335 1.888-5.715 6.275-7.282 1.535-.552 3.449-.823 3.449-.823s.419-.608.969-.658c.399-.04.601.15.53.713.419.05.767.07 1.096.11.818.096 1.474.266 2.529.975.843.572 2.413 2.515.318 6.347-2.272 4.158-7.442 5.142-8.441 5.112zm-.677-2.29c.217-.562 2.782-7.869 2.782-7.869s-1.525.136-2.989.618c-2.12.703-4.074 2.325-4.215 4.59-.187 3.003 3.948 2.702 4.422 2.661zm1.586-.055s1.534-.176 2.882-.733c1.429-.588 3.524-1.733 3.989-4.178.343-1.813-.818-2.848-2.732-3.053-.706-.076-1.337-.01-1.337-.01l-2.802 7.974zm-54.111 2.024c-.752 1.602-1.808 2.511-3.16 2.732-1.06.176-1.732-.136-2.318-.567-.53-.417-1.055-1.291-1.252-2.476-.252-1.386-.035-2.612.46-3.777.802-1.893 2.165-2.4 2.478-2.52.51-.196.707-.212.707-.212s.197-.226.49-.431c.176-.126.399-.221.691-.271.586-.116 1.142.296 1.682 1.175.449.758.707 1.31.833 2.234.197 1.447.06 2.712-.611 4.113zm-1.949-5.58c-.055.242-.651.79-1.156.754-.313-.025-.555-.592-.555-.592s-.187.09-.359.236c-.283.236-.56.678-.707 1.195a6.08 6.08 0 00-.156 2.536c.106.628.262 1.125.707 1.587.419.437 1.014.552 1.53.437.65-.141 1.307-.769 1.706-1.984a5.824 5.824 0 00.222-2.561c-.146-1.08-.818-1.652-1.232-1.607zm46.094 3.531c-1.156 1.346-2.413 1.943-3.776 1.803-1.066-.11-1.636-.588-2.08-1.16-.404-.543-.672-1.522-.551-2.722.127-1.406.662-2.526 1.449-3.52 1.278-1.612 2.727-1.758 3.06-1.778.111-.005.51.025.737-.015.232-.04.384-.14.601-.256.192-.096.429-.14.722-.106.595.04 1.04.538 1.277 1.376.242.844.338 1.693.237 2.571-.166 1.452-.656 2.637-1.676 3.807zm-.394-5.89c-.116.215-.838.587-1.317.421-.298-.105-.374-.718-.374-.718s-.202.04-.409.13c-.333.156-.722.508-1 .965a6.047 6.047 0 00-.828 2.405c-.065.633-.045 1.155.258 1.718.288.532.833.798 1.358.828.666.035 1.464-.391 2.176-1.466.55-.859.803-1.692.899-2.415.146-1.075-.354-1.803-.763-1.869zM69.57 29.88c-1.7.21-2.549-.849-2.837-3.179-.086-.673-.086-1.979-.015-2.702-.202.07-.323.176-.641.216-.268.03-.41-.135-.434-.336-.076-.633.585-.849 1.136-1.24.247-1.517.691-4.154 1.696-5.941 1.05-1.868 1.949-2.466 3.403-2.642 1.085-.135 1.893.246 2.055 1.487.277 2.21-1.722 4.288-3.272 5.72.934-.252 3.261-.427 3.55 1.873.317 2.536-1.783 6.392-4.64 6.744zm.132-12.755c-.5 1.516-.697 4.394-.697 4.394s1.389-1.055 2.227-2.627c.873-1.637 1.095-3.445.409-3.67-.687-.227-1.535.677-1.94 1.903zm.853 5.167c-.863.105-1.242.382-1.585.587-.162.915-.081 2.486-.02 2.958.11.9.464 2.074 1.58 1.934 1.09-.13 2.08-1.587 1.782-3.977-.116-.93-.621-1.643-1.757-1.502zm12.188-.889c-.167 1.522-.207 2.34-.147 3.476.081 1.511.374 1.707.4 2.21.01.225-.112.526-.526.843-.363.281-.762.472-1.191.532-.692.1-.717-1.421-.753-2.355-.015-.457-.1-.673-.191-.668-.137.01-.43.311-.889.899a26.169 26.169 0 01-1.373 1.667c-.591.598-1.116.914-1.616.96-.318.024-.555-.066-.712-.282-.131-.216-.237-.623-.288-1.23-.161-1.652.142-4.008.844-7.076.075-.372.277-.638.646-.819.252-.125.55-.23.98-.25.115-.006.292.01.252.25-.04.247-.137.834-.43 2.501-.272 1.622-.383 2.772-.343 3.5.036.407.187.623.51.598.369-.01.773-.336 1.247-.974a8.104 8.104 0 001-1.728c.247-.617.484-1.34.707-2.204.202-.839.313-1.462.348-1.878-.015-.161.101-.437.818-.618.717-.18 1.01-.07.97.351-.016.151-.076.754-.263 2.295zm9.057-2.727c.071-.442-.252-.552-.918-.401-.667.155-.778.28-.879.597-.121.397-.56 1.713-1.56 2.852-.52.613-1.232 1.015-1.6 1.01-.318.015-.445-.206-.44-.618.01-.728.505-2.907.56-3.168.056-.262-.166-.267-.287-.257-1.05.056-1.398.382-1.666 1.01-.328.813-.727 2.58-.717 4.243.005.613.05 1.025.177 1.24.121.221.358.327.676.312.5-.025 1.035-.367 1.697-.899.681-.557 1.534-1.461 2.267-2.45-.465 2.274-.485 3.354-.515 4.675 0 .457.055 1.2.65 1.165.37-.02.783-.206 1.238-.492.429-.272.575-.503.6-.824.03-.316-.272-1.587-.075-3.731.197-2.145.717-3.822.793-4.264zm7.639 1.964c-1.293.703-1.944 1.19-1.949 1.461-.005.136.354.688.793 1.401.575.9 1 1.336 1.338 1.662.631.603 1.221.593 1.216 1.025-.005.366-.252.748-.54 1.105-.429.537-.732.688-1.05.683-.46.015-1.126-.774-1.964-2.38-.308-.573-.57-1.196-.878-1.788-.288-.553-.535-.829-.763-.834-.252-.005-.419.311-.474.944-.05.532-.096 1.225-.268 2.195-.166.969-.343 1.416-.676 1.561-.334.146-.803.256-1.101.251-.298-.005-.43-.236-.444-.738.005-.427.096-1.36.328-2.812l.732-4.56c.207-1.265.747-1.893 1.732-1.898.454.01.737.196.6.648-.136.452-.333 1.044-.47 1.833-.135.788-.065 1.09.117 1.12.298.005.717-.282 1.297-.86.89-.938 1.424-1.476 1.611-1.606.697-.578 1.363-.859 2.004-.849.5.01.748.246.758.743 0 .412-.652.97-1.95 1.693zM37.997 33.119c.49 2.988 1.211 3.385 1.231 3.686.02.301-.156.467-.595.853-.48.387-.823.558-1 .598-.358.086-.681-.12-1.126-1.04-.232-.471-.348-.903-.348-.903s-.434 1.074-1.257 2.033c-.399.468-.904.834-1.399.955-.676.16-1.272.04-1.797-.377-.52-.412-.883-1.03-1.08-1.848-.46-1.878-.127-3.782.994-5.695.803-1.396 1.747-2.224 2.827-2.48.303-.076.92-.156 1.323-.08.404.074.545.185.545.185s.152-.206.4-.422c.247-.22.494-.306.63-.336.238-.056.44.015.445.27 0 .262-.283 1.613.207 4.6zm-3.146-3.134c-.828.201-1.444 1.045-1.863 2.536-.373 1.336-.525 3.987.485 4.314.651.21 1.212-.216 1.63-.909.233-.382.556-1.336.556-1.336s.263-2.26.42-3.801c.06-.698-.632-.944-1.228-.804zm-7.088-7.778c-.303.095-3.953 1.094-8.74 3.068-4.785 1.974-7.88 3.817-8.33 4.515-.126.23-.232.703-.333 1.43-.065.78-.09 1.477.05 1.849a.422.422 0 00.637.175c.192-.14.586-.451 1.54-1.28 1.085-.934 3.796-3.028 7.593-4.715 3.797-1.688 7.366-2.667 7.507-2.717.616-.211.803-.613.833-1.296.026-.608 0-.984-.11-1.075-.102-.09-.213-.095-.647.046zm-10.97 8.677c-.829-.206-1.197.076-1.182.352.025.427.58 5.273.58 5.273.4 3.41.49 5.795.415 6.317-.091.643-.647.678-1.358.472-.41-.12-.702-.03-.854.286-.181.392.243 1.281 1.015 1.944.747.618 1.545 1.044 2.418 1.125.773.07 1.121-.362 1.252-.849.359-1.326-.247-7-.918-12.067-.268-2.07-.712-2.687-1.369-2.853zm9.349-.632c-.348-1.944-.843-2.541-1.474-2.797-.772-.312-1.201.12-1.166.391.09.799.424 2.772.99 6.67.565 3.896.671 4.91.913 6.282.293 1.647.717 2.274 1.5 1.983.52-.19 1.07-.683 1.65-1.476.571-.814.768-1.457.637-1.793-.142-.367-.359-.467-.823-.723-.465-.287-.722-.568-.985-1.21-.262-.648-.878-5.304-1.242-7.327zm-2.918 13.272c.04-.196.066-.427.066-.698.075-2.079-.485-6.684-1.212-10.912-.333-1.944-.843-2.541-1.474-2.797-.773-.312-1.202.12-1.166.391.09.799.398 2.195.99 6.67.62 4.73.872 7.552.883 7.673.06.678.035.853.141.894.106.04.298.06.777-.096.334-.11.783-.387.95-.919.02-.055.03-.13.045-.206zM45.777 27.73c-1 1.075-1.459 1.748-1.373 2.01.04.13.555.537 1.206 1.074.834.668 1.379.949 1.803 1.15.793.372 1.348.17 1.48.582.11.347.004.789-.152 1.22-.238.644-.47.885-.778.98-.429.16-1.318-.372-2.625-1.627-.48-.447-.93-.95-1.409-1.416-.449-.432-.772-.618-.99-.548-.242.076-.292.427-.146 1.05.127.517.303 1.19.455 2.164.151.975.131 1.452-.137 1.693-.267.24-.676.502-.959.592-.283.09-.485-.085-.656-.557-.131-.407-.349-1.32-.596-2.767l-.777-4.55c-.212-1.265.096-2.034 1.025-2.35.434-.136.762-.05.777.422.015.472.02 1.094.146 1.888.127.793.288 1.055.47 1.024.283-.09.586-.497.95-1.23.54-1.175.873-1.853 1.009-2.034.474-.768 1.015-1.25 1.626-1.446.48-.15.787-.01.959.462.12.382-.318 1.115-1.308 2.215z" fill="#fff"/><path d="M35.588 44.569c-.686.241-.984.97-.656 1.617l.166.337c.324.647 1.162 1.019 1.863.823l1.116-.301a196.352 196.352 0 019.108-2.21 1.266 1.266 0 00.974-1.552l-.287-1.155a1.28 1.28 0 00-1.596-.919s-.01 0-.636.186a195.343 195.343 0 00-9.138 2.873 55.54 55.54 0 00-.914.301zm-17.22 7.03c-.288.151-.248.563.095.925.338.356.838.562 1.1.451l.945-.356c1.807-.678 5.311-1.933 10.385-3.5l.575-.176c.667-.2.945-.899.622-1.547l-.076-.145c-.323-.653-1.09-.99-1.707-.759l-.535.206c-4.937 1.898-8.517 3.526-10.41 4.425l-.995.477zM51.81 39.718a1.327 1.327 0 00-.96 1.602l.339 1.34a1.419 1.419 0 001.62 1.03s.202-.04.965-.176a196.18 196.18 0 019.057-1.43 117.85 117.85 0 011.393-.182 1.446 1.446 0 001.247-1.476l-.121-2.265c-.035-.723-.656-1.21-1.373-1.08 0 0-.525.096-1.424.267-3.261.617-6.402 1.31-9.395 2.038-.894.216-1.349.332-1.349.332zm54-4.841c-.722-.06-1.459.467-1.631 1.17l-.984 4.053c-.172.703.277 1.345 1.004 1.42l1.414.166c3.362.392 6.992.894 10.4 1.527.899.166 1.348.261 1.348.261.712.15 1.49-.291 1.722-.979l1.494-4.289c.243-.683-.146-1.35-.863-1.491 0 0-.51-.1-1.454-.256a159.178 159.178 0 00-10.91-1.437c-.985-.095-1.54-.145-1.54-.145zm-37.27 5.218a1.25 1.25 0 001.384 1.185s.444-.046 1.338-.12a177.69 177.69 0 018.896-.548c.903-.03 1.418-.045 1.418-.045.727-.02 1.384-.623 1.465-1.341l.353-3.264c.08-.719-.45-1.266-1.176-1.216 0 0-.591.04-1.54.12-3.352.277-6.63.649-9.815 1.1-.848.121-1.217.176-1.217.176-.716.11-1.277.794-1.237 1.517l.132 2.436zm17.61-.9a1.172 1.172 0 001.182 1.316s.631 0 1.61.02a154.504 154.504 0 019.512.447c.722.06 1.46-.467 1.631-1.17l.964-3.962c.172-.703-.283-1.31-1.01-1.346 0 0-.706-.035-1.711-.07-3.024-.105-6.008-.11-8.956-.035-.91.025-1.394.045-1.394.045-.727.03-1.388.643-1.464 1.36l-.364 3.396z" fill="#FFF343"/></svg>