<svg width="134" height="73" fill="none" xmlns="http://www.w3.org/2000/svg"><path d="M133.515 12.14c.242-.729.485-1.76.485-2.487 0-2.91-1.819-5.457-4.244-6.852-.243-.12-.97-.363-.97-.363-.243 0-.728-.243-1.274-.243C118.599.437 64.392-7.02 4.729 21.355c-.242.243-.727.243-.97.485C1.516 23.114 0 25.6 0 28.328c0 .97.243 2.001.485 2.971l12.551 22.677c1.274 2.486 3.76 4.002 6.73 4.002.728 0 1.516 0 2.001-.243h.243c2.728-.97 46.748-15.4 90.223-4.971h1.758c2.971 0 5.457-1.759 6.73-4.245v-.242c.243-.243.243-.486.243-.728 1.94-5.275 12.066-34.137 12.551-35.41z" fill="#4DB848"/><path d="M83.553 37.726c0 .728.485 1.274 1.273 1.274h1.516c2.729 0 5.215.242 7.7.242.97.243 1.516.243 1.516.243.728 0 1.516-.485 1.759-1.273l.97-3.76c0-.727-.485-1.273-.97-1.516H85.554c-.728 0-1.516.728-1.516 1.516l-.485 3.274zm-16.917.728c0 .728.485 1.273 1.274 1.273h1.273c2.97-.242 5.7-.485 8.731-.727h1.516c.485 0 1.273-.485 1.273-1.274l.485-3.213c0-.728-.485-1.273-1.273-1.273 0 0-.485.242-1.516.242-3.213.243-6.488.485-9.459.97-.97.243-1.273.243-1.273.243-.728 0-1.273.727-1.273 1.516l.242 2.243zm36.017-4.972c-.728 0-1.516.485-1.516.97l-.97 4.002c-.243.728.242 1.516.97 1.516 0 0 .485 0 1.273.242 3.214.243 6.973.728 10.186 1.516a3.45 3.45 0 011.274.243c.727 0 1.516-.485 1.758-.97l1.516-4.245c.243-.727-.243-1.273-.97-1.516 0 0-.485 0-1.273-.242-3.457-.485-7.216-.97-10.672-1.516h-1.576zm-52.448 4.73c-.485.242-.97.727-.728 1.515l.243 1.274c.242.727.727 1.273 1.515.97h.97c2.729-.485 5.7-.97 8.732-1.516.97 0 1.516-.243 1.516-.243.727 0 1.273-.485 1.273-1.273l-.243-2.243c0-.728-.485-1.274-1.273-.97 0 0-.485 0-1.516.242-3.213.485-6.245 1.273-8.974 2.001-1.03 0-1.515.242-1.515.242zM17.887 49.913c-.243 0-.243.485 0 .727.242.485.728.485.97.485l.97-.242c1.759-.728 5.215-2.001 10.187-3.456l.485-.243c.485-.242.97-.727.485-1.516v-.242c-.243-.485-.97-.728-1.759-.728l-.485.243c-4.729 2-8.185 3.456-9.943 4.487l-.91.485zm16.674-6.973c-.727.242-.97.97-.727 1.516l.242.485c.243.485 1.273.97 1.758.727 0 0 .243 0 1.274-.242 2.486-.728 4.972-1.516 7.943-2.001l.727-.242c.728-.243 1.274-.728.97-1.516l-.242-1.274c-.243-.485-.97-.97-1.516-.727h-.727c-3.214.97-6.246 2-8.974 2.97-.485.304-.728.304-.728.304z" fill="#FFED00"/><path d="M33.045 16.808c-.485 0-9.459 2.728-9.944 2.97 0 0-.97-.242-1.515 0-.728.304-.97 1.032-1.213 1.032-.243.242-1.516.727-2.486 1.273-1.516.97-2.729 2-2.729 2.486-.242.242-.485.97-.485 2v2.244c0 .485.243.485.486.485.242 0 .484 0 1.273-1.515.242-.728 1.273-1.759 2.243-2.486.97-.486 2.729-1.274 2.729-1.274s1.516 11.945 1.273 13.4c0 1.759-.485 2.729-1.516 2.971-.727.243-1.516.243-2.243-.242-.97-.485-1.516-1.274-2.001-2.244l-.728-1.94c-.242-.728-.727-.728-.727-.728-.728.243-1.274.728-1.759 1.759-.485.97-.727 1.758-.485 2.486.485 1.516 1.274 2.728 2.729 3.456 1.273.727 2.728.97 4.487.242 1.758-.485 2.97-1.515 3.759-4.244 0-.727.242-2.486.242-3.456-.485-5.7-.97-12.187-.97-12.187s4.002-1.516 5.7-2.001c1.758-.485 3.76-1.274 3.76-1.274.484-.242.727-.727.727-1.515v-1.759c-.061-.182-.061-.182-.607.06zm81.795 8.003s1.515-.242 2.728-.727c1.516-.485 3.759-1.758 4.244-4.244.243-2.001-.97-2.971-2.971-3.214h-1.273l-2.728 8.185zm-1.698 0c.242-.485 2.728-7.942 2.728-7.942s-1.516.242-2.971.727c-2.001.728-4.002 2.244-4.244 4.73-.243 2.97 3.941 2.728 4.487 2.485zm.727 2.486l-.485 1.274c-.242.727-.727.97-1.273.97-.485-.243-.485-.728-.242-1.273 0-.243.485-.97.485-.97h-1.759c-2.243-.728-3.759-2.244-3.759-4.487.242-3.456 2.001-5.942 6.488-7.458 1.516-.728 3.456-.97 3.456-.97s.485-.485.97-.728c.242 0 .485.243.485.728.485 0 .728.242.97.242.97 0 1.759.243 2.729.97.727.485 2.486 2.486.242 6.488-2.122 4.184-7.336 5.215-8.307 5.215z" fill="#fff"/><path d="M33.833 33.482c-.485 1.758-1.273 2.971-2.243 3.214-.242 0-.728 0-.97-.243-.485-.242-.97-.728-.97-1.758 0-.243.242-.486.242-.486.243-.242.485-.242.728 0h.485c.242-.242.97-.727.97-2 .243-1.274.243-2.244 0-3.214-.243-.97-.485-1.273-1.273-.97-.485.242-1.273.97-1.759 2.243-.242 1.274-.485 2.971 0 5.7 0 .727.243 2.243.728 4.244.242.485 0 .728-.485.728-.728.242-1.273 0-1.273-.728-.485-1.516-.97-3.213-1.274-5.7-.242-.97-.242-2-.485-3.213 0-1.273-.242-1.758-.242-1.758 0-.728 0-1.274.485-1.516.727-.243.97 0 1.273.728.243.485.243.485.485.485 0 0 .243-.485.97-1.274.485-.97.97-1.515 1.759-1.758.485 0 .97 0 1.515.242.243.243.728.728.97 1.759.607 1.819.607 3.517.364 5.275zm8.914-4.972c0 2.971 0 4.972-.485 5.942-.485 2.001-1.516 2.971-2.728 3.456-1.516.243-2.244 0-2.486-.727-.243-.728.242-1.274.727-1.274s.728 0 .97.243c.243.242.486.485.728.485.485 0 .97-.97 1.273-2.729.243-1.515 0-2.486 0-3.456l-.242-.242s-.485.727-.97 1.758c-.728 1.273-1.274 2.001-1.759 2.001-.727.242-1.515-.485-2-2.486-.243-.485-.243-1.273-.486-2.486-.242-1.273-.242-2-.242-2.728 0-.97.242-1.516 1.273-1.759.243 0 .485-.242.485.243.243.485.243 1.273.485 2.728.243 1.516.243 2.729.485 3.456.243.243.485.243.485.243.243-.243.728-.485.97-1.273.243-.789.486-1.516.728-2.244.243-.485.243-1.516 0-3.213 0-.486.485-.97 1.273-1.274.486 0 .728 0 .728.243.303 1.152.546 2.85.788 5.093zm7.943-3.941c.242-.728.485-1.516.485-2-.243-1.274-1.274-1.517-3.214-1.274-.727.242-1.516.485-2.243.97-.728.485-2.001 1.516-2.001 2.729 0 .727.485.727.97.727.242 0 .485-.242.727-.727 0-.486.486-1.274.97-1.759.243-.485.728-.485.97-.727.728 0 1.274.242 1.274.727.243 1.273-.242 2.486-1.516 3.456-.727.728-.97 1.274-.97 1.516 0 .485.485.97.97.97 2.001.243 2.729.97 2.971 2.001.243.728 0 1.516-.485 2.244-.485.727-1.091 1.334-1.88 1.334-.97.242-1.515-.486-1.758-.728 0-.485.243-.97 0-1.516-.242-.546-.727-.485-.97-.242-.485 0-.727.242-.97.727-.243.243-.243.728 0 1.273 0 .728.485 1.274.97 1.516.728.485 1.758.485 2.729.243 1.273-.243 2.486-1.274 3.456-2.486.97-1.516 1.273-2.729.97-4.002-.243-.97-.728-1.516-1.516-2-1.273-.486-2-.243-2.243-.486.12-.303.848-.546 2.304-2.486zm7.215-3.032c0 .243-.485.728-1.274.728-.242 0-.485-.485-.485-.485s-.242 0-.242.242c-.243.243-.728.485-.728 1.274-.242.727-.242 1.515-.242 2.486.242.727.242 1.273.727 1.515.485.485.97.728 1.516.485.728 0 1.516-.727 1.758-2 .485-.97.485-2.001.243-2.486 0-1.213-.728-1.759-1.273-1.759zm2 5.76c-.727 1.516-1.758 2.486-3.213 2.729-.97.242-1.758 0-2.243-.485-.485-.485-.97-1.274-1.274-2.486-.242-1.516 0-2.729.485-4.002.728-2 2.001-2.486 2.486-2.486l.485-.242c.243 0 .485-.243.728-.485 0 0 .242-.243.485-.243.728 0 1.273.242 1.758 1.273.485.728.728 1.273.97 2.244.061 1.455.061 2.668-.666 4.183zm44.263-8.488c0 .242-.727.727-1.273.485-.242-.243-.485-.728-.485-.728l-.242.243c-.486 0-.728.485-.971.727-.485.97-.727 1.759-.97 2.486 0 .728 0 1.274.243 1.759.485.727.97.97 1.516.97.727 0 1.515-.485 2.243-1.516.485-.97.728-1.758.728-2.486.182-1.152-.304-1.94-.789-1.94zm.485 6.002c-1.273 1.516-2.485 2.001-3.759 2.001-1.273-.242-1.758-.727-2.243-1.273-.243-.485-.728-1.516-.485-2.729 0-1.515.727-2.485 1.516-3.759 1.273-1.516 2.728-1.758 2.971-1.758h.727c.243 0 .485-.243.728-.243 0 0 .242-.242.727-.242.485.242.971.727 1.274 1.516.242.97.242 1.758.242 2.728-.182 1.516-.667 2.486-1.698 3.76zM66.394 20.81c-.728.242-1.273.485-1.516.727-.243.728 0 2.486 0 2.971 0 .728.485 2.001 1.516 2.001 1.273-.242 2.243-1.758 1.758-4.244-.06-.97-.546-1.455-1.758-1.455zm-.788-5.215c-.485 1.516-.728 4.487-.728 4.487s1.516-.97 2.243-2.728c.728-1.516.97-3.456.486-3.76-.728-.242-1.698.728-2.001 2.001zm-.243 12.915c-1.516.243-2.486-.728-2.728-3.213-.243-.486-.243-2.001 0-2.729-.243.243-.485.243-.728.243s-.485 0-.485-.243c0-.728.728-.97 1.273-1.273.243-1.759.728-4.245 1.759-6.246.97-1.758 2-2.486 3.213-2.728 1.273 0 2.001.242 2.244 1.516.242 2.486-1.759 4.487-3.214 5.942.728-.243 3.214-.485 3.456 2 .424 2.487-1.758 6.489-4.79 6.731zm13.46-8.67c-.242 1.515-.242 2.486-.242 3.456.242 1.758.485 1.758.485 2.243 0 .243 0 .728-.485.97-.485.243-.728.485-1.274.485-.727.243-.727-1.515-.727-2.243 0-.485 0-.728-.243-.728 0 0-.485.243-.727.97l-1.516 1.516c-.485.728-.97.97-1.516.97s-.728 0-.728-.242c-.242-.243-.242-.485-.485-1.273 0-1.759.243-4.002.97-7.216 0-.242.243-.485.485-.727.243-.243.486-.243.97-.243.243 0 .243 0 .243.243 0 .242 0 .727-.242 2.485-.243 1.759-.486 2.73-.486 3.457 0 .485.243.727.486.727.485 0 .97-.485 1.273-.97.485-.485.728-1.273.97-1.758.242-.728.485-1.516.728-2.244.242-.97.485-1.515.485-2 0-.243 0-.486.727-.728.728 0 .97 0 .97.485.122.121.122.849-.12 2.365zm9.157-2.729c0-.485-.243-.485-.97-.485-.728.242-.728.242-.97.728 0 .242-.486 1.758-1.516 2.728-.485.728-1.274 1.273-1.516 1.273-.485 0-.485-.242-.485-.727 0-.728.485-2.971.485-3.214 0-.242-.243-.242-.243-.242-.97 0-1.516.485-1.758.97-.243.97-.728 2.728-.728 4.487 0 .485 0 .97.243 1.273.242.242.242.242.727.242.486 0 .97-.484 1.759-.97.485-.485 1.516-1.515 2.243-2.486-.485 2.244-.485 3.457-.485 4.73 0 .485 0 1.273.728 1.273.242 0 .727-.242 1.273-.485.243-.242.485-.485.485-.727 0-.486-.242-1.759 0-4.002 0-2.183.485-3.88.728-4.366zm7.76 1.94c-1.273.728-2 1.274-2 1.516 0 0 .242.728.727 1.273.727.97.97 1.516 1.516 1.759.485.727 1.273.727 1.273.97 0 .485-.243.728-.485 1.273-.485.485-.728.728-1.273.728-.546 0-.97-.728-2.001-2.486-.243-.485-.486-1.273-.728-1.758-.485-.728-.728-.97-.728-.97-.485 0-.485.484-.485.97-.242.485-.242 1.273-.242 2.243-.243.97-.485 1.516-.728 1.758-.242 0-.727.243-1.273.243-.243 0-.243-.243-.243-.728s0-1.516.243-2.97l.727-4.73c0-1.273.728-1.759 1.759-1.759.485 0 .727 0 .485.486 0 .485-.243 1.273-.485 2 0 .728 0 .97.242.97.243 0 .728-.242 1.274-.727l1.758-1.758c.485-.485 1.273-.728 2-.728.486 0 .729.242.729.728-.122.242-.85.97-2.062 1.697z" fill="#fff"/><path d="M73.245 64.041c1.515 0 2.243-.91 2.607-1.697l-1.334-.546c-.182.546-.728.91-1.334.91-.91 0-1.516-.728-1.516-1.698s.546-1.698 1.516-1.698c.546 0 1.091.364 1.334.728l1.334-.546c-.364-.728-1.092-1.516-2.608-1.516-1.697 0-2.97 1.091-2.97 2.971 0 1.758 1.273 3.092 2.97 3.092zm3.213-6.002v5.76h2.971c1.334 0 2.062-.728 2.062-1.88 0-.91-.728-1.88-2.062-1.88h-1.516v-.727h2.971v-1.334h-4.426v.06zm2.79 3.395c.363 0 .545.182.545.546 0 .364-.182.546-.546.546h-1.334v-1.092h1.334zm5.578 2.607c1.697 0 3.152-1.334 3.152-2.97 0-1.88-1.515-2.972-3.152-2.972-1.638 0-3.153 1.092-3.153 2.971 0 1.637 1.455 2.971 3.153 2.971zm0-1.334c-.91 0-1.516-.727-1.516-1.697 0-.97.545-1.698 1.516-1.698.97 0 1.515.728 1.515 1.698s-.545 1.697-1.515 1.697zm5.457 1.152v-1.88h1.333c1.334 0 2.062-.909 2.062-1.879 0-1.091-.728-2.061-2.062-2.061h-2.789v5.76h1.456v.06zm1.09-3.213h-1.09v-1.334h1.09c.365 0 .728.182.728.728 0 .424-.363.606-.727.606zm8.247 3.213V58.1h-1.516v2.244H95.68V58.1h-1.516v5.76h1.516v-2.243h2.425v2.243h1.516zm1.091-5.82v5.76h2.79c1.334 0 2.061-.728 2.061-1.88s-.727-1.88-2.061-1.88h-1.334v-2.061h-1.456v.06zm2.608 3.395c.363 0 .727.182.727.546 0 .364-.364.546-.727.546h-1.092v-1.092h1.092zm4.123 2.425V58.1h-1.516v5.76h1.516zm5.214 0v-1.334h-2.607v-.909h2.607v-1.334h-2.607v-.91h2.607V58.04h-4.123v5.76h4.123v.06zm-26.86 8.61v-4.486h2.789v-1.334H84.28v5.76h1.516v.06zm5.032 0v-2.061h1.334c1.334 0 2.062-.728 2.062-1.88 0-.91-.728-1.88-2.062-1.88h-2.789v5.76h1.455v.061zm1.092-3.334h-1.092v-1.092h1.092c.363 0 .727.182.727.546 0 .364-.364.546-.727.546zm3.759 3.334c1.091 0 1.698-.545 2.061-1.091l2.426-4.669h-1.698l-1.334 2.608-1.334-2.608h-1.698l2.244 4.123c-.182.364-.364.364-.728.364s-.545 0-.727-.182l-.546 1.092c.364.181.788.363 1.334.363zm6.912 0c1.516 0 2.607-.545 2.607-1.697 0-.728-.727-1.334-1.516-1.334.728-.182 1.334-.728 1.334-1.334 0-.91-.909-1.698-2.425-1.698-.909 0-1.88.364-2.425.91l.727.91c.364-.365 1.092-.547 1.516-.547.728 0 1.092.182 1.092.546 0 .364-.364.546-.91.546h-1.334v1.334h1.334c.728 0 1.091.182 1.091.364 0 .363-.363.545-1.091.545-.546 0-1.334-.182-1.698-.545l-.727.909c.364.728 1.273 1.091 2.425 1.091zm3.335-5.76v5.76h2.789c1.334 0 2.062-.91 2.062-2.061 0-.91-.728-1.88-2.062-1.88h-1.334v-1.88h-1.455v.061zm2.607 3.153c.364 0 .728.182.728.546 0 .546-.364.727-.728.727h-1.091v-1.333h1.091v.06zm4.123 2.607v-5.76h-1.516v5.76h1.516z" fill="#4DB848"/></svg>