<svg width="136" height="74" fill="none" xmlns="http://www.w3.org/2000/svg"><path d="M20.957 66.49c-1.155 0-1.98 1.046-1.98 2.795 0 1.749.825 2.783 1.98 2.783.583 0 1.1-.33 1.43-.858v2.75h1.155v-2.761c.363.572.869.869 1.43.869 1.155 0 1.98-1.045 1.98-2.794 0-1.75-.825-2.783-1.98-2.783-.583 0-1.1.33-1.43.858v-2.75h-1.155v2.76c-.363-.571-.87-.868-1.43-.868zm.363 1.024c.418 0 .869.33 1.067.715v2.1c-.198.397-.65.716-1.067.716-.715 0-1.177-.737-1.177-1.76 0-1.034.462-1.771 1.177-1.771zm3.289 3.53c-.418 0-.87-.33-1.067-.714v-2.101c.198-.396.649-.715 1.067-.715.715 0 1.177.737 1.177 1.76 0 1.034-.462 1.77-1.177 1.77zm12.045 1.024c1.375 0 2.354-1.045 2.354-2.794 0-1.75-.98-2.783-2.354-2.783a2.12 2.12 0 00-1.705.858v-.726h-1.155v7.337h1.155v-2.761c.429.572 1.034.869 1.705.869zm-.341-1.023c-.54 0-1.111-.33-1.364-.715v-2.101c.253-.396.825-.715 1.364-.715.913 0 1.496.737 1.496 1.76 0 1.034-.583 1.77-1.496 1.77zm13.74.891v-3.52c0-1.43-1.034-1.925-2.211-1.925-.847 0-1.617.275-2.233.858l.473.803c.462-.451.979-.671 1.573-.671.737 0 1.243.374 1.243.99v.792c-.385-.451-1.001-.682-1.716-.682-.869 0-1.848.506-1.848 1.727 0 1.177.979 1.76 1.848 1.76.704 0 1.32-.253 1.716-.704v.572h1.155zm-2.42-.66c-.649 0-1.133-.374-1.133-.946 0-.583.484-.957 1.133-.957.506 0 1.001.187 1.265.55v.803c-.264.363-.759.55-1.265.55zm10.573.66v-2.211h2.441v2.21h1.156v-5.312h-1.155v2.09h-2.443v-2.09h-1.154v5.313h1.154zm16.646-5.313v4.3h-1.87v-4.3h-1.155v4.3h-1.87v-4.3h-1.155v5.313h7.205v-5.313h-1.155zm9.263 5.313l2.486-3.674v3.674h1.155v-5.313H86.6l-2.442 3.575v-3.575h-1.155v5.313h1.11zm12.555.132c1.562 0 2.508-.66 2.508-1.573 0-.836-.88-1.232-1.518-1.276.67-.1 1.408-.55 1.408-1.276 0-.902-.968-1.452-2.53-1.441-.968 0-1.716.352-2.222.869l.572.704c.429-.43.99-.638 1.705-.638.737 0 1.276.275 1.276.66 0 .462-.506.693-1.298.693h-1.133v.924h1.133c.814 0 1.397.187 1.397.693 0 .429-.484.715-1.298.715-.704 0-1.408-.21-1.903-.65l-.54.738c.529.517 1.354.858 2.443.858zm13.572-.132v-3.52c0-1.43-1.035-1.925-2.212-1.925-.847 0-1.617.275-2.232.858l.473.803c.461-.451.978-.671 1.572-.671.737 0 1.244.374 1.244.99v.792c-.386-.451-1.002-.682-1.717-.682-.869 0-1.848.506-1.848 1.727 0 1.177.979 1.76 1.848 1.76.705 0 1.321-.253 1.717-.704v.572h1.155zm-2.421-.66c-.649 0-1.133-.374-1.133-.946 0-.583.484-.957 1.133-.957.506 0 1.002.187 1.266.55v.803c-.264.363-.76.55-1.266.55zm26.71-58.938a.535.535 0 00.012-.056 7.464 7.464 0 00-4.506-9.66c-.042-.018-.086-.039-.129-.053l-.088-.026a7.589 7.589 0 00-1.161-.264C119.518.43 64.838-7.129 4.699 21.578a7.362 7.362 0 00-.83.39l-.029.013a7.488 7.488 0 00-3.237 9.484l11.692 24.33.013.006a7.467 7.467 0 008.83 3.892h.021l.077-.024.059-.018c2.742-.898 47.022-15.669 90.971-5.1a.113.113 0 00.026 0 7.468 7.468 0 008.467-4.237l.041-.086c.013-.028.029-.062.042-.097a.126.126 0 00.008-.019l.039-.11a8.13 8.13 0 00.209-.584c1.894-5.29 13.007-35.88 13.433-37.08z" fill="#50B848"/><path d="M34.822 43.833a1.119 1.119 0 00-.643 1.591l.163.33a1.629 1.629 0 001.824.81l1.092-.298c2.49-.671 5.183-1.343 8.056-1.987l.853-.195a1.246 1.246 0 00.952-1.516l-.285-1.135a1.254 1.254 0 00-1.557-.906s-.007 0-.623.181a191.777 191.777 0 00-8.94 2.823l-.892.302zM17.976 50.75c-.282.147-.241.553.097.907.34.353.818.553 1.071.446l.924-.35c1.769-.666 5.195-1.904 10.159-3.443l.564-.174c.651-.195.925-.882.608-1.52l-.072-.144c-.318-.639-1.07-.973-1.668-.746l-.522.202c-4.835 1.869-8.339 3.47-10.188 4.354l-.973.468zm32.716-11.685a1.307 1.307 0 00-.94 1.575l.33 1.319a1.387 1.387 0 001.584 1.01l.945-.173a188.53 188.53 0 018.861-1.407c.876-.117 1.363-.176 1.363-.176a1.417 1.417 0 001.218-1.452l-.118-2.23a1.113 1.113 0 00-1.341-1.063s-.513.097-1.395.26a182.212 182.212 0 00-10.508 2.337h.001zm52.833-4.77a1.57 1.57 0 00-1.595 1.152l-.965 3.99a1.109 1.109 0 00.981 1.4s.472.052 1.385.161c3.288.39 6.843.882 10.174 1.5.876.164 1.319.256 1.319.256a1.507 1.507 0 001.686-.964l1.46-4.215a1.079 1.079 0 00-.073-.932 1.087 1.087 0 00-.77-.528s-.499-.098-1.424-.254a153.383 153.383 0 00-10.672-1.414 83.846 83.846 0 00-1.51-.142l.004-.01zm-36.463 5.138a1.227 1.227 0 001.354 1.168s.437-.043 1.31-.12a172.016 172.016 0 0110.091-.58 1.526 1.526 0 001.433-1.323l.348-3.212c.077-.705-.442-1.244-1.151-1.197 0 0-.579.04-1.505.117a162.9 162.9 0 00-9.604 1.08c-.83.117-1.192.173-1.192.173a1.465 1.465 0 00-1.21 1.49l.126 2.404zm17.225-.881a1.144 1.144 0 001.16 1.291s.615 0 1.576.018c2.57.042 5.175.152 7.812.329.927.062 1.498.108 1.498.108a1.57 1.57 0 001.596-1.153l.944-3.893c.167-.692-.279-1.288-.988-1.323 0 0-.69-.035-1.673-.068a140.459 140.459 0 00-8.759-.034c-.89.025-1.362.044-1.362.044a1.55 1.55 0 00-1.433 1.339l-.37 3.342z" fill="#FFF200"/><path d="M33.256 17.423c-.371.102-9.351 2.913-10.035 3.135 0 0-.82-.185-1.491.06-.67.245-.983.926-1.212.999-.86.335-1.692.74-2.487 1.211-1.566.942-2.646 2.034-2.841 2.455-.138.32-.333.986-.408 1.93-.08 1.123-.053 1.564.022 2.28.048.46.3.585.454.575.262-.016.506-.066 1.225-1.44.39-.748 1.392-1.88 2.308-2.457.915-.576 2.767-1.315 2.767-1.315s1.382 11.964 1.295 13.563c-.082 1.666-.63 2.712-1.59 3.024-.733.236-1.519.105-2.331-.396a4.341 4.341 0 01-1.792-2.126l-.796-2.102c-.415-.812-.72-.822-.917-.759-.535.201-1.052.779-1.57 1.752-.518 1.014-.701 1.854-.55 2.561.362 1.567 1.228 2.709 2.649 3.485 1.42.777 2.92.876 4.544.35 1.775-.576 2.96-1.654 3.698-4.395.233-.845.366-2.407.31-3.592-.328-5.762-.982-12.19-.982-12.19s3.965-1.523 5.73-2.065l3.91-1.198c.39-.128.6-.6.662-1.566.056-.723.04-1.298-.05-1.718-.016-.076-.045-.215-.527-.058m81.527 10.575l-.5 1.335c-.237.688-.641 1.056-1.208.923-.584-.138-.447-.785-.332-1.084l.41-1.07s-.895.054-1.578-.112c-2.422-.584-3.834-2.162-3.686-4.56.211-3.42 1.893-5.875 6.36-7.515 1.564-.575 3.513-.87 3.513-.87s.424-.626.988-.681c.404-.041.614.153.547.728.427.048.786.07 1.121.106.836.093 1.507.262 2.59.986.864.584 2.482 2.568.365 6.511-2.299 4.282-7.57 5.322-8.59 5.303zm-.708-2.346c.22-.577 2.785-8.094 2.785-8.094a15.332 15.332 0 00-3.047.654c-2.159.733-4.146 2.412-4.275 4.741-.167 3.076 4.055 2.74 4.537 2.699zm1.62-.07s1.564-.188 2.939-.77c1.46-.614 3.588-1.803 4.043-4.315.341-1.863-.854-2.92-2.808-3.115a7.118 7.118 0 00-1.363 0l-2.811 8.2z" fill="#fff"/><path d="M33.968 34.322c-.374 1.862-1.052 2.94-2.075 3.269a1.362 1.362 0 01-1.175-.189c-.368-.257-.866-.894-.876-1.824 0-.343.134-.512.352-.601a.942.942 0 01.544.033c.178.051.364.063.546.034.402-.122.933-.734 1.16-2.01.206-1.16.194-2.301-.052-3.285-.205-.815-.626-1.13-1.208-.955-.557.164-1.3 1.026-1.764 2.322-.45 1.252-.654 3.056-.202 5.66.152.875.464 2.297.889 4.313.097.41-.04.692-.44.812-.733.241-1.227-.027-1.45-.787-.454-1.448-.855-3.374-1.225-5.771-.148-.907-.28-2.01-.42-3.31-.098-1.087-.195-1.645-.195-1.718-.112-.867.03-1.371.434-1.492.664-.223 1.11.036 1.317.753.12.401.249.584.407.537.064-.02.397-.459.982-1.363.569-.876 1.168-1.391 1.811-1.605.584-.175 1.03-.136 1.399.12.398.272.745.875 1.031 1.837.52 1.67.572 3.406.209 5.22m9.023-4.934c.235 2.83.049 4.91-.286 5.954-.646 2.019-1.508 3.046-2.91 3.402-1.398.377-2.202.146-2.427-.64-.17-.681.176-1.188.735-1.285.558-.098.833.058 1.12.334.208.195.367.451.674.433.462-.028 1.043-1.082 1.205-2.81.15-1.41.086-2.525-.115-3.413-.047-.18-.097-.265-.138-.253-.09.023-.444.616-1.053 1.83-.593 1.184-1.121 1.85-1.595 1.97-.922.257-1.622-.603-2.141-2.544a24.934 24.934 0 01-.436-2.488c-.178-1.279-.283-2.167-.304-2.716-.023-1.053.37-1.683 1.21-1.895.27-.068.566-.103.67.275.138.502.138 1.243.344 2.888.186 1.476.312 2.575.66 3.273.125.253.32.307.461.291.292-.075.608-.441.963-1.134a10.07 10.07 0 00.778-2.364c.083-.43.09-1.442.067-3.072-.024-.668.323-1.096 1.071-1.282.453-.117.714-.036.794.281.24.95.464 2.602.651 4.963m8.034-4.114c.419-.63.584-1.4.521-1.932-.163-1.291-1.252-1.614-3.188-1.178-.728.155-1.474.478-2.238.928-.657.4-2.051 1.579-1.952 2.822.043.537.425.744.865.676.364-.08.591-.339.795-.836.139-.363.438-1.293.918-1.746a2.39 2.39 0 011.186-.61c.73-.155 1.167.088 1.252.737.16 1.184-.32 2.312-1.582 3.557-.687.696-.95 1.064-.924 1.483.031.508.336.807.83.876 2.184.3 2.84.9 3.086 2.066.167.798-.073 1.564-.527 2.233-.455.669-1.07 1.145-1.857 1.254-1.2.166-1.709-.407-1.816-.84-.115-.462.154-.997.013-1.353-.221-.558-.797-.47-1.107-.39-.362.098-.623.325-.85.73-.22.397-.288.86-.194 1.305.136.759.536 1.295 1.227 1.625.736.321 1.625.348 2.7.119 1.294-.3 2.433-1.114 3.372-2.53.964-1.424 1.32-2.686 1.07-3.966a2.54 2.54 0 00-1.54-1.923c-1.127-.486-2.016-.237-2.101-.509-.11-.326.66-.517 2.041-2.598zm9.433 2.741c-.76 1.648-1.83 2.588-3.211 2.822-1.08.187-1.77-.127-2.367-.57-.546-.427-1.085-1.317-1.297-2.535-.266-1.423-.052-2.678.446-3.88.805-1.947 2.188-2.493 2.514-2.603.105-.035.508-.114.722-.218.215-.104.337-.247.52-.42a1.31 1.31 0 01.681-.307c.595-.125 1.168.292 1.722 1.195.464.773.729 1.34.863 2.286.21 1.487.08 2.786-.593 4.227v.003zm-2.027-5.716c-.053.246-.659.815-1.175.779-.322-.022-.57-.607-.57-.607-.13.069-.251.152-.363.247-.285.245-.569.7-.713 1.23a6.243 6.243 0 00-.142 2.605c.112.644.277 1.153.73 1.626a1.656 1.656 0 001.567.44c.663-.149 1.33-.795 1.73-2.049.264-.85.335-1.75.21-2.632-.16-1.104-.851-1.685-1.273-1.636v-.003zm47.086 3.327c-1.167 1.387-2.449 2.011-3.843 1.872-1.091-.105-1.673-.59-2.132-1.176-.414-.556-.697-1.558-.578-2.789.12-1.443.66-2.596 1.46-3.624 1.293-1.662 2.771-1.823 3.114-1.842.111-.006.521.025.755-.02.235-.044.389-.149.612-.267.23-.109.486-.149.738-.115.606.038 1.063.545 1.313 1.403a6.68 6.68 0 01.257 2.64c-.169 1.49-.661 2.707-1.694 3.918h-.002zm-.437-6.046c-.116.223-.85.61-1.34.44-.303-.106-.389-.736-.389-.736-.143.03-.281.077-.414.139-.339.16-.733.522-1.013.995a6.271 6.271 0 00-.828 2.475c-.063.651-.039 1.186.275 1.762a1.65 1.65 0 001.392.84c.681.031 1.493-.414 2.212-1.517.479-.752.786-1.6.9-2.483.136-1.107-.378-1.852-.797-1.915h.002zM66.028 29.39c-1.737.228-2.607-.856-2.92-3.241a16.028 16.028 0 01-.033-2.773c-.204.073-.328.183-.654.227a.37.37 0 01-.445-.343c-.084-.647.592-.876 1.152-1.28.241-1.558.681-4.266 1.694-6.107 1.06-1.923 1.974-2.542 3.455-2.736 1.11-.144 1.937.241 2.106 1.513.292 2.27-1.728 4.416-3.3 5.894.953-.266 3.328-.458 3.636 1.9.34 2.593-1.776 6.565-4.69 6.946zm.05-13.097c-.501 1.562-.681 4.515-.681 4.515s1.409-1.088 2.257-2.708c.883-1.684 1.095-3.541.39-3.77-.706-.229-1.561.705-1.966 1.963zm.906 5.295c-.876.115-1.265.402-1.615.612-.157.94-.066 2.551 0 3.038.12.924.487 2.123 1.625 1.975 1.111-.143 2.114-1.641 1.793-4.095-.123-.949-.643-1.68-1.801-1.53m12.43-.984c-.16 1.557-.194 2.404-.124 3.568.097 1.557.389 1.752.424 2.264.014.233-.111.54-.532.87-.35.287-.768.478-1.213.554-.705.107-.74-1.454-.785-2.412-.018-.467-.109-.693-.202-.681-.14.013-.44.321-.9.925a26.608 26.608 0 01-1.39 1.722c-.597.616-1.132.946-1.642.992-.325.03-.57-.064-.729-.284-.137-.224-.248-.635-.304-1.265-.176-1.695.117-4.114.813-7.269a1.145 1.145 0 01.656-.848 2.457 2.457 0 011-.264c.12-.007.298.006.258.257-.04.25-.132.856-.42 2.569-.27 1.667-.375 2.847-.328 3.593.036.419.195.637.523.608.374-.011.788-.352 1.265-1.006a8.29 8.29 0 001.011-1.78c.283-.74.52-1.498.708-2.268.16-.634.274-1.279.34-1.93-.014-.164.103-.449.834-.637s1.03-.078.99.353c-.014.162-.069.779-.253 2.367m9.234-2.855c.07-.453-.262-.568-.944-.405-.682.162-.794.292-.891.617-.121.407-.562 1.761-1.574 2.938-.528.634-1.254 1.047-1.627 1.044-.327.018-.457-.21-.455-.63.008-.75.498-2.99.551-3.255.054-.265-.171-.271-.292-.264-1.07.064-1.425.402-1.693 1.048-.33.835-.724 2.655-.705 4.361.01.632.057 1.05.187 1.275.13.226.367.332.693.315.512-.028 1.055-.385 1.726-.934.694-.576 1.558-1.51 2.298-2.53-.461 2.336-.474 3.448-.493 4.803 0 .468.064 1.23.67 1.194.378-.023.8-.214 1.259-.514.434-.282.584-.52.609-.848.025-.327-.292-1.627-.097-3.83.194-2.204.706-3.933.777-4.386zm7.806 1.963c-1.315.729-1.977 1.233-1.98 1.514 0 .14.365.705.82 1.436a8.693 8.693 0 001.379 1.699c.646.614 1.252.6 1.246 1.041 0 .375-.25.769-.543 1.14-.436.553-.741.711-1.07.706-.466.018-1.156-.784-2.02-2.433-.32-.584-.591-1.22-.909-1.831-.291-.564-.55-.848-.783-.852-.257 0-.423.322-.48.973-.048.547-.098 1.26-.259 2.257-.16.998-.341 1.46-.68 1.605a3.162 3.162 0 01-1.123.267c-.303 0-.44-.24-.456-.755 0-.44.088-1.398.317-2.889l.716-4.683c.203-1.302.75-1.946 1.752-1.96.463.008.756.196.62.66a14.475 14.475 0 00-.47 1.885c-.133.813-.06 1.121.126 1.147.303 0 .73-.292 1.319-.891.901-.973 1.443-1.525 1.634-1.66.709-.598 1.387-.892 2.044-.885.512.008.765.246.778.759 0 .421-.664.995-1.982 1.752" fill="#fff"/></svg>