<?xml version="1.0" encoding="utf-8"?>
<!-- Generator: Adobe Illustrator 23.1.0, SVG Export Plug-In . SVG Version: 6.00 Build 0)  -->
<svg version="1.1" id="Layer_1" xmlns="http://www.w3.org/2000/svg" xmlns:xlink="http://www.w3.org/1999/xlink" x="0px" y="0px"
	 viewBox="0 0 910 567" style="enable-background:new 0 0 910 567;" xml:space="preserve">
<style type="text/css">
	.st0{fill:url(#SVGID_1_);}
	.st1{fill:url(#SVGID_2_);}
	.st2{fill:url(#SVGID_3_);}
	.st3{fill:url(#SVGID_4_);}
	.st4{fill:url(#SVGID_5_);}
	.st5{fill:url(#SVGID_6_);}
	.st6{fill:url(#SVGID_7_);}
	.st7{fill:#D9EEF3;}
	.st8{fill:#F6FBFD;}
	.st9{fill:url(#SVGID_8_);}
	.st10{fill:url(#SVGID_9_);}
	.st11{fill:#C4E5ED;}
	.st12{fill:#D5ECF3;}
	.st13{fill:#EFF7FB;}
	.st14{fill:#CFEAF3;}
	.st15{fill:#00A76D;}
	.st16{fill:url(#SVGID_10_);}
	.st17{fill:url(#SVGID_11_);}
	.st18{fill:url(#SVGID_12_);}
	.st19{fill:url(#SVGID_13_);}
	.st20{fill:url(#SVGID_14_);}
	.st21{fill:url(#SVGID_15_);}
	.st22{fill:#FAB85E;}
	.st23{fill:#FED275;}
	.st24{fill:#37A538;}
	.st25{fill:#FBCDAC;}
	.st26{fill:#60A3BF;}
	.st27{fill:url(#SVGID_16_);}
	.st28{fill:#F7B293;}
	.st29{fill:url(#SVGID_17_);}
	.st30{fill:url(#SVGID_18_);}
	.st31{fill:url(#SVGID_19_);}
	.st32{fill:url(#SVGID_20_);}
	.st33{fill:url(#SVGID_21_);}
	.st34{fill:url(#SVGID_22_);}
	.st35{fill:url(#SVGID_23_);}
	.st36{fill:url(#SVGID_24_);}
	.st37{fill:url(#SVGID_25_);}
	.st38{fill:url(#SVGID_26_);}
	.st39{fill:url(#SVGID_27_);}
	.st40{fill:url(#SVGID_28_);}
	.st41{fill:url(#SVGID_29_);}
	.st42{fill:url(#SVGID_30_);}
	.st43{fill:url(#SVGID_31_);}
	.st44{fill:url(#SVGID_32_);}
	.st45{fill:url(#SVGID_33_);}
	.st46{fill:url(#SVGID_34_);}
	.st47{fill:url(#SVGID_35_);}
	.st48{fill:url(#SVGID_36_);}
	.st49{fill:#EC6643;}
	.st50{fill:url(#SVGID_37_);}
	.st51{fill:url(#SVGID_38_);}
	.st52{fill:#58B14B;}
	.st53{fill:url(#SVGID_39_);}
	.st54{fill:url(#SVGID_40_);}
	.st55{fill:url(#SVGID_41_);}
	.st56{fill:#3F95B7;}
	.st57{fill:url(#SVGID_42_);}
	.st58{fill:url(#SVGID_43_);}
	.st59{fill:url(#SVGID_44_);}
	.st60{fill:url(#SVGID_45_);}
	.st61{fill:url(#SVGID_46_);}
	.st62{fill:url(#SVGID_47_);}
	.st63{fill:url(#SVGID_48_);}
	.st64{fill:#FBD2B4;}
	.st65{fill:#E74A33;}
	.st66{fill:url(#SVGID_49_);}
	.st67{fill:url(#SVGID_50_);}
	.st68{fill:url(#SVGID_51_);}
	.st69{fill:url(#SVGID_52_);}
	.st70{fill:url(#SVGID_53_);}
	.st71{fill:url(#SVGID_54_);}
	.st72{fill:url(#SVGID_55_);}
	.st73{fill:#055778;}
	.st74{fill:#F18674;}
	.st75{fill:#3985A9;}
	.st76{fill:#C7E6EE;}
	.st77{fill:url(#SVGID_56_);}
	.st78{fill:#1C617D;}
	.st79{fill:url(#SVGID_57_);}
	.st80{fill:url(#SVGID_58_);}
	.st81{fill:url(#SVGID_59_);}
	.st82{fill:url(#SVGID_60_);}
	.st83{fill:#EA5438;}
	.st84{fill:#FBCBA2;}
	.st85{fill:url(#SVGID_61_);}
	.st86{fill:url(#SVGID_62_);}
	.st87{fill:url(#SVGID_63_);}
	.st88{fill:url(#SVGID_64_);}
	.st89{fill:url(#SVGID_65_);}
	.st90{fill:url(#SVGID_66_);}
	.st91{fill:url(#SVGID_67_);}
	.st92{fill:url(#SVGID_68_);}
	.st93{fill:url(#SVGID_69_);}
	.st94{fill:#016A89;}
	.st95{fill:#FFFFFF;}
	.st96{fill:url(#SVGID_70_);}
	.st97{fill:url(#SVGID_71_);}
	.st98{fill:url(#SVGID_72_);}
	.st99{fill:none;stroke:#F18775;stroke-width:2;stroke-linecap:round;stroke-miterlimit:10;}
	.st100{fill:#035D78;}
	.st101{fill:#FAB853;}
	.st102{fill:none;stroke:#F18674;stroke-width:2;stroke-linecap:round;stroke-miterlimit:10;}
	.st103{fill:#3F93B5;}
	.st104{fill:#FCF4F2;}
	.st105{fill:url(#SVGID_73_);}
	.st106{fill:#FCD4B7;}
	.st107{fill:url(#SVGID_74_);}
	.st108{fill:url(#SVGID_75_);}
	.st109{fill:#41AE5C;}
	.st110{fill:url(#SVGID_76_);}
	.st111{fill:#CEE9F0;}
	.st112{fill:url(#SVGID_77_);}
	.st113{fill:url(#SVGID_78_);}
	.st114{fill:url(#SVGID_79_);}
	.st115{fill:url(#SVGID_80_);}
	.st116{fill:url(#SVGID_81_);}
	.st117{fill:#D8EDF3;}
	.st118{fill:#FBFDFF;}
	.st119{fill:#FCD5B7;}
	.st120{fill:url(#SVGID_82_);}
	.st121{fill:url(#SVGID_83_);}
	.st122{fill:url(#SVGID_84_);}
	.st123{fill:none;stroke:#41AE5C;stroke-width:2;stroke-linecap:round;stroke-miterlimit:10;}
	.st124{fill:url(#SVGID_85_);}
	.st125{fill:url(#SVGID_86_);}
	.st126{fill:url(#SVGID_87_);}
	.st127{fill:url(#SVGID_88_);}
	.st128{fill:url(#SVGID_89_);}
	.st129{fill:url(#SVGID_90_);}
	.st130{fill:url(#SVGID_91_);}
	.st131{fill:url(#SVGID_92_);}
	.st132{fill:url(#SVGID_93_);}
	.st133{fill:#008F7F;}
	.st134{fill:#A8DAE4;}
	.st135{fill:url(#SVGID_94_);}
	.st136{fill:url(#SVGID_95_);}
	.st137{fill:url(#SVGID_96_);}
	.st138{fill:url(#SVGID_97_);}
	.st139{fill:#F18775;}
	.st140{fill:url(#SVGID_98_);}
	.st141{fill:url(#SVGID_99_);}
	.st142{fill:url(#SVGID_100_);}
	.st143{fill:url(#SVGID_101_);}
	.st144{fill:url(#SVGID_102_);}
	.st145{fill:url(#SVGID_103_);}
	.st146{fill:url(#SVGID_104_);}
	.st147{fill:url(#SVGID_105_);}
	.st148{fill:url(#SVGID_106_);}
	.st149{fill:#F8BB9E;}
	.st150{fill:url(#SVGID_107_);}
	.st151{fill:url(#SVGID_108_);}
	.st152{fill:url(#SVGID_109_);}
	.st153{fill:url(#SVGID_110_);}
	.st154{fill:url(#SVGID_111_);}
	.st155{fill:url(#SVGID_112_);}
	.st156{fill:url(#SVGID_113_);}
	.st157{fill:url(#SVGID_114_);}
	.st158{fill:#F7B194;}
	.st159{fill:url(#SVGID_115_);}
	.st160{fill:url(#SVGID_116_);}
	.st161{fill:#FAB753;}
	.st162{fill:url(#SVGID_117_);}
	.st163{fill:url(#SVGID_118_);}
	.st164{fill:url(#SVGID_119_);}
	.st165{fill:url(#SVGID_120_);}
	.st166{fill:url(#SVGID_121_);}
	.st167{fill:url(#SVGID_122_);}
	.st168{fill:url(#SVGID_123_);}
	.st169{fill:url(#SVGID_124_);}
	.st170{fill:url(#SVGID_125_);}
	.st171{fill:url(#SVGID_126_);}
	.st172{fill:url(#SVGID_127_);}
	.st173{fill:url(#SVGID_128_);}
	.st174{fill:url(#SVGID_129_);}
	.st175{fill:url(#SVGID_130_);}
	.st176{fill:url(#SVGID_131_);}
	.st177{fill:url(#SVGID_132_);}
	.st178{opacity:0.4;}
	.st179{fill:#FDCD6A;}
	.st180{fill:#FFF5E9;}
	.st181{fill:#CDE9F0;}
	.st182{opacity:0.31;fill:#FAB85E;}
	.st183{opacity:0.43;fill:#FAB85E;}
	.st184{fill:url(#SVGID_133_);}
	.st185{fill:url(#SVGID_134_);}
	.st186{fill:url(#SVGID_135_);}
	.st187{fill:#F7A93B;}
	.st188{fill:url(#SVGID_136_);}
	.st189{fill:url(#SVGID_137_);}
	.st190{fill:url(#SVGID_138_);}
	.st191{fill:url(#SVGID_139_);}
	.st192{fill:url(#SVGID_140_);}
	.st193{fill:url(#SVGID_141_);}
	.st194{fill:url(#SVGID_142_);}
	.st195{fill:url(#SVGID_143_);}
	.st196{fill:url(#SVGID_144_);}
	.st197{fill:url(#SVGID_145_);}
	.st198{fill:#FCDAC1;}
	.st199{fill:#EF795A;}
	.st200{fill:#76AFC6;}
	.st201{fill:#F1876E;}
	.st202{fill:#88B8CD;}
	.st203{fill:#FFD884;}
	.st204{fill:url(#SVGID_146_);}
	.st205{fill:url(#SVGID_147_);}
	.st206{fill:url(#SVGID_148_);}
	.st207{fill:url(#SVGID_149_);}
	.st208{fill:url(#SVGID_150_);}
	.st209{fill:url(#SVGID_151_);}
	.st210{fill:url(#SVGID_152_);}
	.st211{fill:url(#SVGID_153_);}
	.st212{fill:url(#SVGID_154_);}
	.st213{fill:url(#SVGID_155_);}
	.st214{fill:url(#SVGID_156_);}
	.st215{fill:url(#SVGID_157_);}
	.st216{fill:url(#SVGID_158_);}
	.st217{fill:url(#SVGID_159_);}
	.st218{fill:url(#SVGID_160_);}
	.st219{fill:url(#SVGID_161_);}
	.st220{fill:url(#SVGID_162_);}
	.st221{fill:url(#SVGID_163_);}
	.st222{fill:url(#SVGID_164_);}
	.st223{fill:url(#SVGID_165_);}
	.st224{fill:url(#SVGID_166_);}
	.st225{fill:url(#SVGID_167_);}
	.st226{fill:url(#SVGID_168_);}
	.st227{fill:url(#SVGID_169_);}
	.st228{fill:url(#SVGID_170_);}
	.st229{fill:url(#SVGID_171_);}
	.st230{fill:url(#SVGID_172_);}
	.st231{fill:#18596E;}
	.st232{fill:url(#SVGID_173_);}
	.st233{fill:url(#SVGID_174_);}
	.st234{fill:url(#SVGID_175_);}
	.st235{fill:url(#SVGID_176_);}
	.st236{fill:url(#SVGID_177_);}
	.st237{opacity:0.11;fill:#FFFFFF;}
	.st238{opacity:0.42;fill:#EFF7FB;}
	.st239{fill:url(#SVGID_178_);}
	.st240{fill:url(#SVGID_179_);}
	.st241{fill:url(#SVGID_180_);}
	.st242{fill:url(#SVGID_181_);}
	.st243{fill:url(#SVGID_182_);}
	.st244{fill:url(#SVGID_183_);}
	.st245{fill:#F6AD98;}
	.st246{fill:#7EBBD0;}
	.st247{fill:#F39785;}
	.st248{fill:url(#SVGID_184_);}
	.st249{fill:url(#SVGID_185_);}
	.st250{fill:#F6F8F8;}
	.st251{fill:#04949D;}
	.st252{fill:url(#SVGID_186_);}
	.st253{fill:#04777E;}
	.st254{opacity:0.19;fill:#FFFFFF;}
	.st255{fill:none;stroke:#3AAC4F;stroke-miterlimit:10;}
	.st256{fill:url(#SVGID_187_);}
	.st257{fill:url(#SVGID_188_);}
	.st258{fill:url(#SVGID_189_);}
	.st259{fill:url(#SVGID_190_);}
	.st260{fill:url(#SVGID_191_);}
	.st261{fill:url(#SVGID_192_);}
	.st262{fill:url(#SVGID_193_);}
	.st263{fill:url(#SVGID_194_);}
	.st264{fill:url(#SVGID_195_);}
	.st265{fill:url(#SVGID_196_);}
	.st266{fill:url(#SVGID_197_);}
	.st267{fill:url(#SVGID_198_);}
	.st268{fill:url(#SVGID_199_);}
	.st269{fill:url(#SVGID_200_);}
	.st270{fill:url(#SVGID_201_);}
	.st271{fill:url(#SVGID_202_);}
	.st272{fill:url(#SVGID_203_);}
	.st273{fill:url(#SVGID_204_);}
	.st274{fill:url(#SVGID_205_);}
	.st275{fill:url(#SVGID_206_);}
	.st276{fill:url(#SVGID_207_);}
	.st277{fill:url(#SVGID_208_);}
	.st278{fill:url(#SVGID_209_);}
	.st279{fill:url(#SVGID_210_);}
	.st280{fill:url(#SVGID_211_);}
	.st281{fill:#F49C7D;}
	.st282{fill:url(#SVGID_212_);}
	.st283{fill:url(#SVGID_213_);}
	.st284{fill:url(#SVGID_214_);}
	.st285{fill:url(#SVGID_215_);}
	.st286{fill:#114657;}
	.st287{fill:url(#SVGID_216_);}
	.st288{fill:url(#SVGID_217_);}
	.st289{fill:url(#SVGID_218_);}
	.st290{fill:url(#SVGID_219_);}
	.st291{fill:url(#SVGID_220_);}
	.st292{fill:#2C878E;}
	.st293{fill:#3A859B;}
	.st294{fill:#247088;}
	.st295{fill:url(#SVGID_221_);}
	.st296{fill:#F8C671;}
	.st297{fill:#EC6443;}
	.st298{fill:url(#SVGID_222_);}
	.st299{fill:url(#SVGID_223_);}
	.st300{fill:url(#SVGID_224_);}
	.st301{fill:#F9FCFF;}
	.st302{fill:url(#SVGID_225_);}
	.st303{fill:url(#SVGID_226_);}
	.st304{fill:url(#SVGID_227_);}
	.st305{opacity:0.68;fill:url(#SVGID_228_);}
	.st306{fill:url(#SVGID_229_);}
	.st307{opacity:0.68;fill:url(#SVGID_230_);}
	.st308{fill:url(#SVGID_231_);}
	.st309{opacity:0.68;fill:url(#SVGID_232_);}
	.st310{fill:url(#SVGID_233_);}
	.st311{fill:url(#SVGID_234_);}
	.st312{fill:url(#SVGID_235_);}
	.st313{fill:url(#SVGID_236_);}
	.st314{fill:url(#SVGID_237_);}
	.st315{fill:url(#SVGID_238_);}
	.st316{fill:url(#SVGID_239_);}
	.st317{fill:url(#SVGID_240_);}
	.st318{fill:url(#SVGID_241_);}
	.st319{fill:url(#SVGID_242_);}
	.st320{fill:url(#SVGID_243_);}
	.st321{fill:url(#SVGID_244_);}
	.st322{fill:url(#SVGID_245_);}
	.st323{fill:url(#SVGID_246_);}
	.st324{fill:url(#SVGID_247_);}
	.st325{fill:#F4A081;}
	.st326{fill:url(#SVGID_248_);}
	.st327{fill:url(#SVGID_249_);}
	.st328{fill:url(#SVGID_250_);}
	.st329{fill:url(#SVGID_251_);}
	.st330{fill:url(#SVGID_252_);}
	.st331{fill:url(#SVGID_253_);}
	.st332{fill:url(#SVGID_254_);}
	.st333{fill:url(#SVGID_255_);}
	.st334{fill:url(#SVGID_256_);}
	.st335{fill:url(#SVGID_257_);}
	.st336{fill:url(#SVGID_258_);}
	.st337{fill:url(#SVGID_259_);}
	.st338{fill:url(#SVGID_260_);}
	.st339{fill:url(#SVGID_261_);}
	.st340{fill:url(#SVGID_262_);}
	.st341{fill:url(#SVGID_263_);}
	.st342{fill:url(#SVGID_264_);}
	.st343{fill:#4FB26C;}
	.st344{fill:url(#SVGID_265_);}
	.st345{fill:url(#SVGID_266_);}
	.st346{fill:url(#SVGID_267_);}
	.st347{fill:url(#SVGID_268_);}
	.st348{fill:url(#SVGID_269_);}
	.st349{fill:url(#SVGID_270_);}
	.st350{fill:url(#SVGID_271_);}
	.st351{fill:url(#SVGID_272_);}
	.st352{fill:url(#SVGID_273_);}
	.st353{fill:url(#SVGID_274_);}
	.st354{fill:url(#SVGID_275_);}
	.st355{fill:url(#SVGID_276_);}
	.st356{fill:url(#SVGID_277_);}
	.st357{fill:#82B0C7;}
	.st358{fill:url(#SVGID_278_);}
	.st359{fill:url(#SVGID_279_);}
	.st360{opacity:0.68;fill:url(#SVGID_280_);}
	.st361{fill:url(#SVGID_281_);}
	.st362{opacity:0.68;fill:url(#SVGID_282_);}
	.st363{fill:url(#SVGID_283_);}
	.st364{opacity:0.68;fill:url(#SVGID_284_);}
	.st365{fill:url(#SVGID_285_);}
	.st366{fill:url(#SVGID_286_);}
	.st367{fill:url(#SVGID_287_);}
	.st368{fill:url(#SVGID_288_);}
	.st369{fill:#0EA039;}
	.st370{fill:url(#SVGID_289_);}
	.st371{fill:url(#SVGID_290_);}
	.st372{fill:url(#SVGID_291_);}
	.st373{fill:none;stroke:#58B14B;stroke-width:5;stroke-linecap:round;stroke-miterlimit:10;}
	.st374{fill:none;stroke:#D5ECF3;stroke-width:5;stroke-miterlimit:10;}
	.st375{fill:none;stroke:#F9FCFF;stroke-width:4;stroke-linecap:round;stroke-linejoin:round;stroke-miterlimit:10;}
</style>
<linearGradient id="SVGID_1_" gradientUnits="userSpaceOnUse" x1="296.5005" y1="450.8031" x2="1748.2788" y2="-675.3926">
	<stop  offset="0" style="stop-color:#F9FCFF;stop-opacity:0"/>
	<stop  offset="0.091" style="stop-color:#F3FAFC;stop-opacity:0.091"/>
	<stop  offset="0.3626" style="stop-color:#E4F3F6;stop-opacity:0.3626"/>
	<stop  offset="0.6545" style="stop-color:#DCEFF2;stop-opacity:0.6545"/>
	<stop  offset="1" style="stop-color:#D9EEF1"/>
</linearGradient>
<path class="st0" d="M897.13,567c8.81-35.47,13.49-72.58,13.49-110.79c0-56.73-10.32-111.05-29.16-161.16
	c5.95-18.06,9.17-37.36,9.17-57.42c0-101.06-81.67-182.98-182.42-182.98c-10.58,0-20.95,0.91-31.03,2.65
	C611.53,20.48,535.86-0.5,455.31-0.5c-61.87,0-120.85,12.38-174.62,34.8c-28.36-18.22-62.08-28.79-98.26-28.79
	C81.67,5.52,0,87.44,0,188.5c0,37.74,11.4,72.82,30.92,101.95C10.96,341.84,0,397.74,0,456.21C0,494.41,4.68,531.53,13.49,567
	L897.13,567z"/>
<path class="st12" d="M655.87,217.4h51.71c4.68,0,8.48,3.8,8.48,8.48v29.02c0,4.68-3.8,8.48-8.48,8.48h-51.71
	c-4.68,0-8.48-3.8-8.48-8.48v-29.02C647.38,221.19,651.18,217.4,655.87,217.4z"/>
<path class="st12" d="M796.64,218.42h-0.27c-3.39,0-6.13,2.74-6.13,6.13v33.08c0,3.39,2.74,6.13,6.13,6.13h0.27
	c3.39,0,6.13-2.74,6.13-6.13v-33.08C802.77,221.16,800.02,218.42,796.64,218.42z"/>
<path class="st12" d="M822.6,218.42h-0.27c-3.39,0-6.13,2.74-6.13,6.13v33.08c0,3.39,2.74,6.13,6.13,6.13h0.27
	c3.39,0,6.13-2.74,6.13-6.13v-33.08C828.73,221.16,825.98,218.42,822.6,218.42z"/>
<rect x="631.16" y="236.39" class="st12" width="193.74" height="14.23"/>
<path class="st12" d="M629.21,217.72h-0.27c-3.39,0-6.13,2.74-6.13,6.13v33.08c0,3.39,2.74,6.13,6.13,6.13h0.27
	c3.39,0,6.13-2.74,6.13-6.13v-33.08C635.34,220.46,632.59,217.72,629.21,217.72z"/>
<g>
	<path class="st11" d="M341.98,115.43c-1.05,0-2.05-0.42-2.79-1.16l-20.44-20.44c-1.54-1.54-1.54-4.05,0-5.59
		c1.54-1.54,4.05-1.54,5.59,0l17.64,17.64l17.64-17.64c1.54-1.54,4.05-1.54,5.59,0c1.54,1.54,1.54,4.05,0,5.59l-20.44,20.44
		C344.03,115.02,343.03,115.43,341.98,115.43z"/>
</g>
<g>
	<path class="st11" d="M301.79,165.82c-0.61,0-1.21-0.23-1.68-0.69l-13.06-13.06c-0.93-0.93-0.93-2.43,0-3.35
		c0.93-0.93,2.43-0.93,3.35,0l11.38,11.38l11.38-11.38c0.93-0.93,2.43-0.93,3.35,0c0.93,0.93,0.93,2.43,0,3.35l-13.06,13.06
		C303,165.59,302.4,165.82,301.79,165.82z"/>
</g>
<g>
	<path class="st11" d="M379.33,184.97c-0.61,0-1.21-0.23-1.68-0.69l-16.91-16.91c-0.93-0.93-0.93-2.43,0-3.35
		c0.93-0.93,2.43-0.93,3.35,0l15.23,15.23l15.24-15.23c0.93-0.93,2.43-0.93,3.35,0c0.93,0.93,0.93,2.43,0,3.35l-16.91,16.91
		C380.54,184.74,379.94,184.97,379.33,184.97z"/>
</g>
<path class="st11" d="M704.05,135.43h3.85c2.75,0,4.99,2.23,4.99,4.99v16.78c0,2.75-2.23,4.99-4.99,4.99h-3.85
	c-2.75,0-4.99-2.23-4.99-4.99v-16.78C699.06,137.66,701.29,135.43,704.05,135.43z"/>
<circle class="st12" cx="710.34" cy="110.49" r="12.41"/>
<circle class="st12" cx="695.85" cy="87.31" r="26.37"/>
<circle class="st12" cx="706.49" cy="124.85" r="5"/>
<g>
	<path class="st12" d="M859.93,71.5c-8.82,0-15.99-7.17-15.99-15.99s7.17-15.99,15.99-15.99c8.82,0,15.99,7.17,15.99,15.99
		S868.75,71.5,859.93,71.5z M859.93,45.52c-5.5,0-9.98,4.48-9.98,9.98s4.48,9.98,9.98,9.98c5.5,0,9.98-4.48,9.98-9.98
		S865.43,45.52,859.93,45.52z"/>
</g>
<g>
	<path class="st12" d="M27.8,48.65L27.8,48.65c-1.76,0-3.18-1.43-3.18-3.18V15.44c0-1.76,1.43-3.18,3.18-3.18h0
		c1.76,0,3.18,1.43,3.18,3.18v30.03C30.99,47.23,29.56,48.65,27.8,48.65z"/>
</g>
<g>
	<path class="st12" d="M46,30.45L46,30.45c0,1.76-1.43,3.18-3.18,3.18H12.79c-1.76,0-3.18-1.43-3.18-3.18v0
		c0-1.76,1.43-3.18,3.18-3.18h30.03C44.57,27.27,46,28.7,46,30.45z"/>
</g>
<linearGradient id="SVGID_2_" gradientUnits="userSpaceOnUse" x1="1175.4773" y1="-82.4948" x2="1124.2953" y2="-83.2703" gradientTransform="matrix(0.9765 0.2154 -0.2154 0.9765 -348.5954 88.2862)">
	<stop  offset="0" style="stop-color:#66B97B"/>
	<stop  offset="1" style="stop-color:#0EA039"/>
</linearGradient>
<path class="st1" d="M803.86,252.13c3.74-4.58,0.91-7-4.41-7.97c-3.28-0.6-8.77-1.61-14.57-1.85c-0.66-0.03-1.27,0.28-1.51,0.74
	c-0.66,1.29-1.78,2.69-3.5,2.37c-1.25-0.23-1.67-1.11-1.73-2.07c-0.03-0.49-0.62-0.85-1.26-0.77c-2,0.26-3.94,0.67-5.72,1.31
	c-0.39,0.14-0.65,0.43-0.67,0.76c-0.15,2.15-0.65,4.8-2.24,4.51c-0.94-0.17-1.51-0.96-1.86-1.9c-0.1-0.27-0.55-0.34-0.79-0.13
	c-1.52,1.42-2.71,3.21-3.43,5.46c0,0-3.14,9.04,16.27,11.67c0.85,0.12,1.48-0.58,1.04-1.14c-2.66-3.31-5.76-6.64-4.83-6.83
	c2.77-0.58,7.99,7.27,10.73,6.92c1.1-0.16,3.86-2.15,4.08-2.44c0.58-0.76,1.48-1.62,0.83-2.49c-2.23-2.97-4.28-4.13-2.65-4.87
	c1.91-0.88,4.27,0.22,7.1,2.71c0.6,0.52,1.64,0.58,2.34,0.13c0.2-0.13,0.4-0.26,0.59-0.39c1.49-0.99,2.58-1.65,1.41-2.86
	c-0.7-0.72-0.8-1.03-0.7-1.5C798.62,250.46,801.26,251.04,803.86,252.13z"/>
<linearGradient id="SVGID_3_" gradientUnits="userSpaceOnUse" x1="803.9485" y1="218.1191" x2="755.0514" y2="232.3956">
	<stop  offset="0" style="stop-color:#66B97B"/>
	<stop  offset="1" style="stop-color:#0EA039"/>
</linearGradient>
<path class="st2" d="M761.21,248c0,0,27.37-56.86,36.41-47.12C806.66,210.63,798.69,252.99,761.21,248z"/>
<path class="st343" d="M759.19,259.91c0.04-0.23,21.63-16.44,44.73-12.59c-3.18-0.44-17.52-5.95-44.43,13.19L759.19,259.91z"/>
<g>
	
		<linearGradient id="SVGID_4_" gradientUnits="userSpaceOnUse" x1="785.0064" y1="-80.4764" x2="818.0246" y2="-71.1016" gradientTransform="matrix(0.9871 0.1599 -0.1599 0.9871 -131.3522 199.1473)">
		<stop  offset="0" style="stop-color:#66B97B"/>
		<stop  offset="1" style="stop-color:#0EA039"/>
	</linearGradient>
	<path class="st3" d="M686.61,260.33C686.6,260.33,686.6,260.33,686.61,260.33c-7.37-0.05-18.27-2.84-28.37-15.77
		c-0.23-0.09-0.43-0.27-0.54-0.51c-0.14-0.29-0.55-1.16,0.25-1.65c0.81-0.5,1.33,0.17,1.83,0.82c9.62,12.37,19.9,15.02,26.83,15.07
		c0.56,0,1.02,0.46,1.01,1.03C687.62,259.87,687.17,260.33,686.61,260.33z"/>
</g>
<linearGradient id="SVGID_5_" gradientUnits="userSpaceOnUse" x1="661.7284" y1="244.9752" x2="682.6415" y2="244.2895">
	<stop  offset="0" style="stop-color:#66B97B"/>
	<stop  offset="1" style="stop-color:#0EA039"/>
</linearGradient>
<path class="st4" d="M659.73,234.06c-0.82-1.2,35.38,48.62,47.72,20.39C718.2,229.87,647.7,215.24,659.73,234.06z"/>
<linearGradient id="SVGID_6_" gradientUnits="userSpaceOnUse" x1="663.2216" y1="220.109" x2="697.2936" y2="220.109">
	<stop  offset="0" style="stop-color:#66B97B"/>
	<stop  offset="1" style="stop-color:#0EA039"/>
</linearGradient>
<path class="st5" d="M663.52,206.56c0,0,16.12,48.08,31.57,27.55C708.1,216.84,658.94,189.11,663.52,206.56z"/>
<linearGradient id="SVGID_7_" gradientUnits="userSpaceOnUse" x1="1677.5302" y1="1014.9595" x2="1684.6805" y2="1014.9595" gradientTransform="matrix(0.6761 -0.0665 -0.0269 0.6799 -450.9263 -332.748)">
	<stop  offset="0" style="stop-color:#66B97B"/>
	<stop  offset="1" style="stop-color:#0EA039"/>
</linearGradient>
<path class="st6" d="M656.32,245.51c0,0,2.72,2.25,4.22,0.63C662.05,244.51,654.2,243.52,656.32,245.51z"/>
<linearGradient id="SVGID_8_" gradientUnits="userSpaceOnUse" x1="701.8745" y1="-1864.1476" x2="707.6699" y2="-1864.1476" gradientTransform="matrix(0.53 0.7968 -0.8426 0.456 -1279.5416 536.1597)">
	<stop  offset="0" style="stop-color:#66B97B"/>
	<stop  offset="1" style="stop-color:#0EA039"/>
</linearGradient>
<path class="st9" d="M663.56,245.71c0,0-0.73,4.06,1.65,4.65S664.36,242.4,663.56,245.71z"/>
<linearGradient id="SVGID_9_" gradientUnits="userSpaceOnUse" x1="956.0767" y1="-1113.4438" x2="963.5515" y2="-1113.4438" gradientTransform="matrix(0.9419 0.3358 0.3358 -0.9419 137.1637 -1116.254)">
	<stop  offset="0" style="stop-color:#66B97B"/>
	<stop  offset="1" style="stop-color:#0EA039"/>
</linearGradient>
<path class="st10" d="M664.26,254.14c0,0,5.41-2.19,6.75,0.7C672.36,257.73,659.91,256.18,664.26,254.14z"/>
<g>
	<path class="st11" d="M723.9,384.08h-2.31c-2.82,0-5.11,2.58-5.11,5.76c0,3.18,2.29,5.76,5.11,5.76h2.31
		c2.82,0,5.11-2.58,5.11-5.76C729.01,386.66,726.73,384.08,723.9,384.08L723.9,384.08z M698.5,384.08h-71.52
		c-0.4,0-0.78,0.05-1.15,0.15c-0.37-0.1-0.76-0.15-1.15-0.15h-23.09c-2.82,0-5.11,2.58-5.11,5.76c0,3.18,2.29,5.76,5.11,5.76h23.09
		c0.4,0,0.78-0.05,1.15-0.15c0.37,0.1,0.76,0.15,1.15,0.15h71.52c2.82,0,5.11-2.58,5.11-5.76
		C703.61,386.66,701.33,384.08,698.5,384.08L698.5,384.08z M530.06,384.08h-2.31c-2.82,0-5.11,2.58-5.11,5.76
		c0,3.18,2.29,5.76,5.11,5.76h2.31c2.82,0,5.11-2.58,5.11-5.76C535.17,386.66,532.88,384.08,530.06,384.08L530.06,384.08z
		 M504.66,384.08h-71.52c-0.4,0-0.78,0.05-1.15,0.15c-0.37-0.1-0.76-0.15-1.15-0.15h-23.09c-2.82,0-5.11,2.58-5.11,5.76
		c0,3.18,2.29,5.76,5.11,5.76h23.09c0.4,0,0.78-0.05,1.15-0.15c0.37,0.1,0.76,0.15,1.15,0.15h71.52c2.82,0,5.11-2.58,5.11-5.76
		C509.77,386.66,507.48,384.08,504.66,384.08L504.66,384.08z M336.21,384.08h-2.31c-2.82,0-5.11,2.58-5.11,5.76
		c0,3.18,2.29,5.76,5.11,5.76h2.31c2.82,0,5.11-2.58,5.11-5.76C341.32,386.66,339.03,384.08,336.21,384.08L336.21,384.08z
		 M256.77,513.6c-1.1,0-2.22,0.4-3.15,1.23c-2.22,1.97-2.6,5.59-0.86,8.09c0.46,0.66,0.93,1.31,1.4,1.95
		c0.01,0.01,0.01,0.01,0.01,0.02c0.01,0.01,0.01,0.02,0.02,0.03c0.01,0.01,0.01,0.02,0.02,0.03c1.01,1.36,2.46,2.06,3.92,2.06
		c1.16,0,2.32-0.44,3.27-1.34c2.16-2.04,2.45-5.67,0.64-8.11c-0.43-0.57-0.85-1.16-1.26-1.75
		C259.78,514.35,258.28,513.6,256.77,513.6L256.77,513.6z M274.22,531.51c-1.68,0-3.32,0.93-4.3,2.64
		c-1.53,2.67-0.85,6.23,1.52,7.95c4.17,3.03,8.61,5.61,13.28,7.69c0,0,0,0,0.01,0c0.18,0.08,0.36,0.16,0.54,0.24l0,0
		c0.11,0.05,0.22,0.09,0.33,0.14l0,0c0.13,0.05,0.25,0.11,0.38,0.16c0,0,0,0,0,0c0.05,0.02,0.1,0.04,0.16,0.07c0,0,0,0,0.01,0
		c0.05,0.02,0.11,0.04,0.16,0.07c0,0,0,0,0,0c0.05,0.02,0.1,0.04,0.16,0.06c0,0,0.01,0,0.01,0c0.02,0.01,0.03,0.01,0.05,0.02
		c0,0,0.01,0,0.01,0c0.05,0.02,0.1,0.04,0.15,0.06c0,0,0.01,0,0.01,0c0.05,0.02,0.1,0.04,0.15,0.06c0,0,0,0,0.01,0
		c0.05,0.02,0.11,0.04,0.16,0.06c0,0,0,0,0.01,0c0.05,0.02,0.1,0.04,0.16,0.06c0,0,0,0,0,0c0.02,0.01,0.03,0.01,0.05,0.02
		c0,0,0.01,0,0.01,0c0.05,0.02,0.1,0.04,0.15,0.06c0,0,0.01,0,0.01,0.01c0.05,0.02,0.1,0.04,0.15,0.06c0,0,0.01,0,0.01,0.01
		c0.05,0.02,0.1,0.04,0.15,0.06c0,0,0.01,0,0.01,0c0.02,0.01,0.03,0.01,0.05,0.02c0,0,0.01,0,0.01,0c0.03,0.01,0.07,0.03,0.1,0.04
		c0,0,0,0,0.01,0c0.02,0.01,0.03,0.01,0.05,0.02c0,0,0,0,0.01,0c0.05,0.02,0.1,0.04,0.16,0.06c0,0,0.01,0,0.01,0.01
		c0.05,0.02,0.1,0.04,0.15,0.06c0,0,0.01,0,0.01,0.01c0.05,0.02,0.1,0.04,0.15,0.06c0.01,0,0.01,0,0.01,0.01
		c0.02,0.01,0.03,0.01,0.05,0.02c0,0,0,0,0.01,0c0.03,0.01,0.07,0.03,0.1,0.04c0,0,0,0,0.01,0c0.02,0.01,0.03,0.01,0.05,0.02
		c0.01,0,0.01,0,0.02,0.01c0.05,0.02,0.1,0.04,0.15,0.06c0,0,0.01,0,0.02,0.01c0.05,0.02,0.1,0.04,0.15,0.06c0,0,0.01,0,0.02,0.01
		c0.02,0.01,0.03,0.01,0.05,0.02c0,0,0.01,0,0.01,0c0.03,0.01,0.06,0.02,0.09,0.03c0.01,0,0.01,0,0.02,0.01
		c0.01,0.01,0.03,0.01,0.05,0.02c0,0,0.01,0,0.02,0.01c0.03,0.01,0.06,0.02,0.09,0.03c0.01,0,0.01,0,0.02,0.01
		c0.01,0.01,0.03,0.01,0.05,0.02c0.01,0,0.01,0,0.02,0.01c0.05,0.02,0.1,0.03,0.15,0.05c0.01,0,0.01,0.01,0.02,0.01
		c0.05,0.02,0.09,0.03,0.14,0.05c0.01,0,0.02,0.01,0.02,0.01c0.01,0.01,0.03,0.01,0.04,0.01c0.01,0,0.02,0.01,0.02,0.01
		c0.02,0.01,0.05,0.02,0.07,0.03c0.01,0,0.02,0.01,0.03,0.01c0.01,0,0.03,0.01,0.04,0.01c0.01,0,0.02,0.01,0.03,0.01
		c0.02,0.01,0.05,0.02,0.07,0.02c0.01,0,0.02,0.01,0.03,0.01c0.01,0,0.03,0.01,0.04,0.01c0.01,0,0.02,0.01,0.03,0.01
		c0.03,0.01,0.05,0.02,0.08,0.03c0.01,0,0.01,0,0.02,0.01c0.01,0,0.03,0.01,0.04,0.01c0.01,0,0.02,0.01,0.03,0.01
		c0.01,0,0.03,0.01,0.04,0.01c0.01,0,0.01,0,0.02,0.01c0.03,0.01,0.05,0.02,0.08,0.03c0.01,0,0.02,0.01,0.03,0.01
		c0.02,0.01,0.03,0.01,0.04,0.01c0.01,0,0.01,0,0.02,0.01c0.03,0.01,0.05,0.02,0.08,0.03c0.01,0,0.02,0.01,0.02,0.01
		c0.01,0,0.03,0.01,0.04,0.01c0.01,0,0.01,0,0.02,0.01c0.03,0.01,0.05,0.02,0.08,0.03c0.01,0,0.01,0,0.02,0.01
		c0.01,0,0.03,0.01,0.04,0.01c0.01,0,0.02,0.01,0.02,0.01c0.03,0.01,0.05,0.02,0.08,0.03c0.01,0,0.01,0,0.02,0.01
		c0.01,0,0.03,0.01,0.04,0.01c0.01,0,0.02,0.01,0.03,0.01c0.01,0,0.03,0.01,0.04,0.01c0.01,0,0.02,0.01,0.03,0.01
		c0.02,0.01,0.05,0.02,0.07,0.02c0.01,0,0.02,0.01,0.03,0.01c0.01,0,0.03,0.01,0.04,0.01c0.01,0,0.02,0.01,0.03,0.01
		c0.02,0.01,0.04,0.01,0.06,0.02c0.01,0,0.02,0.01,0.03,0.01c0.01,0,0.02,0.01,0.04,0.01c0.01,0,0.02,0.01,0.03,0.01
		c0.02,0.01,0.04,0.01,0.07,0.02c0.01,0,0.02,0.01,0.03,0.01c0.01,0,0.03,0.01,0.04,0.01c0.01,0,0.02,0.01,0.03,0.01
		c0.02,0.01,0.04,0.01,0.05,0.02c0.01,0,0.03,0.01,0.04,0.01c0.01,0,0.02,0.01,0.04,0.01c0.01,0,0.02,0.01,0.04,0.01
		c0.01,0,0.02,0.01,0.04,0.01c0.02,0.01,0.04,0.01,0.06,0.02c0.01,0,0.02,0.01,0.04,0.01c0.01,0,0.02,0.01,0.03,0.01
		c0.01,0,0.03,0.01,0.04,0.01c0.01,0,0.02,0.01,0.04,0.01c0.02,0.01,0.04,0.01,0.06,0.02c0.01,0,0.02,0.01,0.03,0.01
		c0.01,0,0.03,0.01,0.04,0.01c0.01,0,0.02,0.01,0.03,0.01c0.02,0.01,0.04,0.01,0.06,0.02c0.01,0,0.03,0.01,0.04,0.01
		c0.01,0,0.02,0.01,0.04,0.01c0.01,0,0.02,0.01,0.04,0.01c0.01,0,0.03,0.01,0.04,0.01c0.02,0.01,0.04,0.01,0.06,0.02
		c0.01,0,0.02,0.01,0.04,0.01c0.01,0,0.02,0.01,0.03,0.01c0.01,0,0.02,0.01,0.04,0.01c0.02,0.01,0.04,0.01,0.06,0.02
		c0.01,0,0.03,0.01,0.04,0.01c0.01,0,0.02,0.01,0.03,0.01c0.01,0,0.02,0.01,0.04,0.01c0.01,0,0.03,0.01,0.04,0.01
		c0.02,0.01,0.04,0.01,0.06,0.02c0.01,0,0.02,0.01,0.03,0.01c0.01,0,0.02,0.01,0.04,0.01c0.01,0,0.02,0.01,0.04,0.01
		c0.02,0.01,0.04,0.01,0.05,0.02c0.01,0,0.03,0.01,0.04,0.01c0.01,0,0.03,0.01,0.04,0.01c0.01,0,0.02,0.01,0.03,0.01
		c0.01,0,0.03,0.01,0.04,0.01c0.02,0.01,0.04,0.01,0.06,0.02c0.01,0,0.02,0.01,0.03,0.01c0.01,0,0.03,0.01,0.04,0.01
		c0.01,0,0.02,0.01,0.03,0.01c0.02,0.01,0.04,0.01,0.06,0.02c0.01,0,0.02,0.01,0.03,0.01c0.01,0,0.02,0.01,0.04,0.01
		c0.01,0,0.02,0.01,0.04,0.01c0.01,0,0.03,0.01,0.04,0.01c0.02,0,0.03,0.01,0.05,0.01c0.01,0,0.03,0.01,0.04,0.01
		c0.01,0,0.02,0.01,0.03,0.01c0.02,0,0.03,0.01,0.05,0.01c0.01,0,0.03,0.01,0.04,0.01c0.02,0.01,0.03,0.01,0.05,0.02
		c0.01,0,0.02,0.01,0.03,0.01c0.01,0,0.03,0.01,0.04,0.01c0.01,0,0.02,0.01,0.03,0.01c0.02,0.01,0.04,0.01,0.06,0.02
		c0.01,0,0.02,0.01,0.03,0.01c0.01,0,0.03,0.01,0.04,0.01c0.01,0,0.02,0.01,0.03,0.01c0.02,0.01,0.04,0.01,0.06,0.02
		c0.01,0,0.02,0.01,0.03,0.01c0.01,0,0.03,0.01,0.04,0.01c0.01,0,0.02,0.01,0.03,0.01c0.02,0,0.03,0.01,0.05,0.01
		c0.01,0,0.03,0.01,0.04,0.01c0.02,0,0.03,0.01,0.05,0.01c0.01,0,0.02,0.01,0.03,0.01c0.01,0,0.03,0.01,0.04,0.01
		c0.01,0,0.03,0.01,0.04,0.01c0.02,0,0.03,0.01,0.05,0.01c0.01,0,0.02,0.01,0.03,0.01c0.01,0,0.03,0.01,0.04,0.01
		c0.01,0,0.02,0.01,0.03,0.01c0.02,0.01,0.04,0.01,0.06,0.02c0.01,0,0.02,0.01,0.03,0.01c0.01,0,0.03,0.01,0.04,0.01
		c0.01,0,0.02,0.01,0.03,0.01c0.02,0.01,0.04,0.01,0.06,0.02c0.01,0,0.02,0.01,0.03,0.01c0.01,0,0.03,0.01,0.04,0.01
		c0.01,0,0.02,0.01,0.03,0.01c0.02,0.01,0.04,0.01,0.05,0.01c0.01,0,0.02,0.01,0.03,0.01c0.02,0,0.03,0.01,0.05,0.01
		c0.01,0,0.02,0.01,0.03,0.01c0.02,0,0.03,0.01,0.05,0.01c0.01,0,0.02,0.01,0.03,0.01c0.02,0.01,0.04,0.01,0.06,0.02
		c0.01,0,0.02,0.01,0.03,0.01c0.01,0,0.03,0.01,0.04,0.01c0.01,0,0.02,0,0.03,0.01c0.02,0.01,0.04,0.01,0.06,0.02
		c0.01,0,0.02,0.01,0.03,0.01c0.02,0,0.03,0.01,0.05,0.01c0.01,0,0.02,0,0.03,0.01c0.02,0.01,0.04,0.01,0.07,0.02
		c0.01,0,0.02,0,0.03,0.01c0.02,0,0.03,0.01,0.05,0.01c0.01,0,0.02,0,0.03,0.01c0.02,0,0.04,0.01,0.05,0.01
		c0.01,0,0.03,0.01,0.04,0.01c0.02,0,0.03,0.01,0.05,0.01c0.01,0,0.02,0.01,0.03,0.01c0.02,0,0.03,0.01,0.05,0.01
		c0.01,0,0.02,0.01,0.03,0.01c0.02,0,0.04,0.01,0.06,0.01c0.01,0,0.02,0.01,0.03,0.01c0.01,0,0.03,0.01,0.04,0.01
		c0.01,0,0.02,0.01,0.03,0.01c0.02,0.01,0.04,0.01,0.06,0.02c0.01,0,0.02,0,0.03,0.01c0.01,0,0.03,0.01,0.04,0.01
		c0.01,0,0.02,0,0.03,0.01c0.02,0.01,0.04,0.01,0.07,0.02c0.01,0,0.01,0,0.02,0.01c0.02,0,0.03,0.01,0.05,0.01
		c0.01,0,0.02,0,0.03,0.01c0.02,0.01,0.04,0.01,0.06,0.02c0.01,0,0.01,0,0.02,0c0.02,0,0.04,0.01,0.06,0.01c0.01,0,0.02,0,0.03,0.01
		c0.02,0,0.04,0.01,0.05,0.01c0.01,0,0.02,0,0.02,0.01c0.02,0,0.04,0.01,0.06,0.02c0.01,0,0.02,0,0.03,0.01
		c0.02,0,0.03,0.01,0.05,0.01c0.01,0,0.02,0,0.02,0.01c0.02,0.01,0.05,0.01,0.07,0.02c0.01,0,0.02,0,0.03,0.01
		c0.02,0,0.03,0.01,0.05,0.01c0.01,0,0.02,0,0.03,0.01c0.02,0.01,0.05,0.01,0.07,0.02c0.01,0,0.01,0,0.02,0
		c0.02,0,0.04,0.01,0.05,0.01c0.01,0,0.02,0,0.03,0.01c0.02,0.01,0.04,0.01,0.06,0.01c0.01,0,0.01,0,0.02,0
		c0.02,0,0.04,0.01,0.06,0.01c0.01,0,0.02,0,0.02,0.01c0.02,0,0.04,0.01,0.06,0.01c0.01,0,0.01,0,0.02,0
		c0.02,0.01,0.05,0.01,0.07,0.02c0.01,0,0.01,0,0.02,0.01c0.02,0,0.04,0.01,0.05,0.01c0.01,0,0.01,0,0.02,0
		c0.02,0.01,0.05,0.01,0.07,0.02c0.01,0,0.01,0,0.02,0c0.02,0,0.04,0.01,0.06,0.01c0.01,0,0.01,0,0.02,0.01
		c0.02,0.01,0.05,0.01,0.07,0.02c0.01,0,0.01,0,0.02,0c0.02,0,0.04,0.01,0.06,0.01c0.01,0,0.02,0,0.03,0.01
		c0.02,0,0.04,0.01,0.06,0.01c0.01,0,0.01,0,0.02,0c0.02,0,0.04,0.01,0.06,0.01c0.01,0,0.02,0,0.03,0.01c0.02,0,0.04,0.01,0.05,0.01
		c0.01,0,0.01,0,0.02,0c0.02,0.01,0.05,0.01,0.07,0.02c0.01,0,0.01,0,0.02,0.01c0.02,0,0.04,0.01,0.05,0.01c0.01,0,0.02,0,0.02,0
		c0.02,0,0.05,0.01,0.07,0.01c0.01,0,0.02,0,0.03,0.01c0.02,0,0.03,0.01,0.05,0.01c0.01,0,0.02,0,0.03,0.01
		c0.02,0,0.05,0.01,0.07,0.01c0.01,0,0.02,0,0.02,0c0.02,0,0.03,0.01,0.05,0.01c0.01,0,0.02,0,0.03,0.01c0.02,0,0.04,0.01,0.06,0.01
		c0.01,0,0.02,0,0.03,0.01c0.02,0,0.04,0.01,0.06,0.01c0.01,0,0.02,0,0.03,0.01c0.02,0,0.04,0.01,0.06,0.01c0.01,0,0.01,0,0.02,0
		c0.02,0,0.05,0.01,0.07,0.01c0.01,0,0.01,0,0.02,0c0.02,0,0.04,0.01,0.05,0.01c0.01,0,0.01,0,0.02,0c0.02,0,0.05,0.01,0.07,0.01
		c0.01,0,0.01,0,0.02,0c0.02,0,0.04,0.01,0.06,0.01c0.01,0,0.01,0,0.02,0c0.02,0,0.05,0.01,0.07,0.01c0.01,0,0.01,0,0.02,0
		c0.02,0,0.04,0.01,0.06,0.01c0.01,0,0.02,0,0.03,0.01c0.02,0,0.04,0.01,0.06,0.01c0.01,0,0.01,0,0.02,0c0.02,0,0.04,0.01,0.06,0.01
		c0.01,0,0.02,0,0.03,0.01c0.02,0,0.04,0.01,0.06,0.01c0.01,0,0.01,0,0.02,0c0.02,0,0.05,0.01,0.07,0.01c0.01,0,0.02,0,0.03,0.01
		c0.02,0,0.04,0.01,0.05,0.01c0.01,0,0.02,0,0.02,0c0.02,0,0.05,0.01,0.07,0.01c0.01,0,0.02,0,0.02,0c0.02,0,0.04,0.01,0.05,0.01
		c0.01,0,0.01,0,0.02,0c0.02,0,0.05,0.01,0.07,0.01c0.01,0,0.01,0,0.02,0c0.02,0,0.04,0.01,0.06,0.01c0.01,0,0.02,0,0.02,0
		c0.02,0,0.04,0.01,0.06,0.01c0.01,0,0.01,0,0.02,0c0.02,0,0.04,0.01,0.07,0.01c0.01,0,0.02,0,0.02,0c0.02,0,0.04,0.01,0.06,0.01
		c0.01,0,0.01,0,0.02,0c0.02,0,0.05,0.01,0.07,0.01c0.01,0,0.01,0,0.02,0c0.02,0,0.04,0.01,0.06,0.01c0.01,0,0.01,0,0.02,0
		c0.02,0,0.05,0.01,0.07,0.01c0.01,0,0.01,0,0.02,0c0.02,0,0.04,0.01,0.06,0.01c0.01,0,0.02,0,0.03,0c0.02,0,0.05,0.01,0.07,0.01
		c0.01,0,0.01,0,0.02,0c0.02,0,0.04,0.01,0.06,0.01c0.01,0,0.02,0,0.02,0c0.02,0,0.05,0.01,0.07,0.01l0,0
		c0.02,0,0.05,0.01,0.07,0.01c0.01,0,0.02,0,0.02,0c0.02,0,0.04,0.01,0.06,0.01c0.01,0,0.01,0,0.02,0c0.02,0,0.05,0.01,0.07,0.01
		c0.01,0,0.02,0,0.02,0c0.02,0,0.04,0.01,0.06,0.01c0.01,0,0.01,0,0.02,0c0.02,0,0.05,0.01,0.07,0.01c0.01,0,0.02,0,0.02,0
		c0.02,0,0.04,0.01,0.06,0.01c0.01,0,0.01,0,0.02,0c0.02,0,0.05,0.01,0.07,0.01c0.01,0,0.01,0,0.02,0c0.02,0,0.04,0.01,0.06,0.01
		c0.01,0,0.02,0,0.02,0c0.02,0,0.04,0.01,0.06,0.01c0.01,0,0.01,0,0.02,0c0.02,0,0.05,0.01,0.07,0.01c0.01,0,0.02,0,0.02,0
		c0.02,0,0.04,0.01,0.06,0.01c0,0,0.01,0,0.02,0c0.03,0,0.05,0.01,0.07,0.01c0.01,0,0.01,0,0.02,0c0.02,0,0.04,0.01,0.05,0.01
		c0.01,0,0.02,0,0.02,0c0.02,0,0.05,0.01,0.07,0.01c0.01,0,0.01,0,0.02,0c0.02,0,0.04,0.01,0.06,0.01c0.01,0,0.02,0,0.02,0
		c0.03,0,0.05,0.01,0.07,0.01c0,0,0.01,0,0.01,0c0.02,0,0.04,0.01,0.06,0.01c0.01,0,0.02,0,0.02,0c0.02,0,0.04,0.01,0.07,0.01
		c0,0,0.01,0,0.01,0c0.02,0,0.05,0.01,0.07,0.01c0.01,0,0.02,0,0.02,0c0.02,0,0.04,0.01,0.06,0.01c0.01,0,0.01,0,0.02,0
		c0.02,0,0.05,0.01,0.07,0.01c0.01,0,0.02,0,0.02,0c0.02,0,0.04,0.01,0.06,0.01c0.01,0,0.01,0,0.02,0c0.03,0,0.05,0.01,0.07,0.01
		c0.01,0,0.01,0,0.02,0c0.02,0,0.04,0.01,0.06,0.01c0.01,0,0.01,0,0.02,0c0.03,0,0.05,0.01,0.07,0.01c0,0,0.01,0,0.01,0
		c0.02,0,0.04,0.01,0.07,0.01c0.01,0,0.01,0,0.02,0c0.02,0,0.04,0.01,0.07,0.01c0,0,0.01,0,0.01,0c0.03,0,0.05,0.01,0.07,0.01
		c0.01,0,0.01,0,0.02,0c0.02,0,0.04,0.01,0.06,0.01c0.01,0,0.01,0,0.02,0c0.02,0,0.05,0.01,0.07,0.01c0.01,0,0.01,0,0.02,0
		c0.02,0,0.04,0.01,0.06,0.01c0.01,0,0.01,0,0.02,0c0.03,0,0.05,0.01,0.07,0.01c0.01,0,0.01,0,0.02,0c0.02,0,0.04,0.01,0.06,0.01
		c0.01,0,0.01,0,0.02,0c0.03,0,0.05,0.01,0.08,0.01c0,0,0,0,0.01,0c0.02,0,0.04,0.01,0.07,0.01c0.01,0,0.02,0,0.02,0
		c0.02,0,0.04,0.01,0.07,0.01c0,0,0.01,0,0.01,0c0.02,0,0.05,0.01,0.07,0.01c0.01,0,0.02,0,0.03,0c0.02,0,0.04,0,0.06,0.01
		c0.01,0,0.01,0,0.02,0c0.02,0,0.05,0.01,0.07,0.01c0.01,0,0.01,0,0.02,0c0.02,0,0.04,0.01,0.06,0.01c0.01,0,0.01,0,0.02,0
		c0.03,0,0.05,0.01,0.08,0.01c0,0,0.01,0,0.02,0c0.02,0,0.04,0.01,0.06,0.01c0.01,0,0.01,0,0.02,0c0.03,0,0.05,0.01,0.08,0.01
		c0,0,0,0,0.01,0c0.02,0,0.05,0.01,0.07,0.01c0.01,0,0.01,0,0.02,0c0.02,0,0.05,0.01,0.07,0.01c0,0,0.01,0,0.01,0
		c0.03,0,0.05,0.01,0.08,0.01c0.01,0,0.01,0,0.02,0c0.02,0,0.04,0,0.07,0.01c0.01,0,0.01,0,0.01,0c0.03,0,0.05,0.01,0.08,0.01
		c0.01,0,0.01,0,0.02,0c0.02,0,0.04,0,0.06,0.01c0.01,0,0.01,0,0.02,0c0.03,0,0.05,0.01,0.08,0.01c0.01,0,0.01,0,0.01,0
		c0.02,0,0.04,0,0.06,0.01c0.01,0,0.02,0,0.02,0c0.02,0,0.05,0.01,0.08,0.01c0,0,0,0,0.01,0c0.02,0,0.05,0,0.07,0.01
		c0.01,0,0.02,0,0.02,0c0.02,0,0.05,0,0.07,0.01c0,0,0,0,0.01,0c0.03,0,0.05,0.01,0.08,0.01c0.01,0,0.01,0,0.02,0
		c0.02,0,0.04,0,0.07,0.01c0.01,0,0.01,0,0.01,0c0.03,0,0.05,0.01,0.08,0.01c0.01,0,0.01,0,0.02,0c0.02,0,0.04,0,0.06,0.01
		c0.01,0,0.01,0,0.02,0c0.03,0,0.05,0,0.08,0.01c0.01,0,0.01,0,0.02,0c0.02,0,0.04,0,0.06,0.01c0.01,0,0.02,0,0.02,0
		c0.02,0,0.05,0,0.08,0.01c0,0,0.01,0,0.01,0c0.02,0,0.04,0,0.07,0.01c0.01,0,0.01,0,0.02,0c0.02,0,0.04,0,0.06,0.01
		c0,0,0.01,0,0.01,0c0.03,0,0.05,0,0.08,0.01c0.01,0,0.01,0,0.02,0c0.02,0,0.04,0,0.06,0.01c0,0,0.01,0,0.02,0
		c0.02,0,0.05,0,0.08,0.01c0.01,0,0.01,0,0.02,0c0.02,0,0.04,0,0.06,0.01c0.01,0,0.01,0,0.02,0c0.02,0,0.05,0,0.08,0.01
		c0.01,0,0.01,0,0.02,0c0.02,0,0.04,0,0.06,0.01c0.01,0,0.02,0,0.02,0c0.02,0,0.05,0,0.08,0.01c0,0,0.01,0,0.01,0
		c0.02,0,0.05,0,0.07,0.01c0.01,0,0.02,0,0.02,0c0.02,0,0.05,0,0.07,0.01c0,0,0,0,0.01,0c0.03,0,0.05,0,0.08,0.01
		c0.01,0,0.02,0,0.02,0c0.02,0,0.04,0,0.06,0c0,0,0.01,0,0.02,0c0.03,0,0.05,0,0.08,0.01c0.01,0,0.01,0,0.02,0c0.02,0,0.04,0,0.06,0
		c0.01,0,0.01,0,0.02,0c0.02,0,0.05,0,0.08,0.01c0.01,0,0.01,0,0.02,0c0.02,0,0.04,0,0.06,0c0.01,0,0.01,0,0.02,0
		c0.03,0,0.05,0,0.08,0.01c0,0,0.01,0,0.01,0c0.02,0,0.05,0,0.07,0c0.01,0,0.01,0,0.02,0c0.02,0,0.05,0,0.07,0c0.01,0,0,0,0.01,0
		c0.03,0,0.05,0,0.08,0.01c0.01,0,0.01,0,0.02,0c0.02,0,0.04,0,0.07,0c0.01,0,0.01,0,0.01,0c0.03,0,0.05,0,0.08,0.01
		c0.01,0,0.01,0,0.02,0c0.02,0,0.04,0,0.06,0c0.01,0,0.01,0,0.02,0c0.03,0,0.05,0,0.08,0c0,0,0.01,0,0.01,0c0.02,0,0.04,0,0.07,0
		c0.01,0,0.01,0,0.02,0c0.05,0,0.1,0.01,0.16,0.01c0.01,0,0.01,0,0.02,0c0.02,0,0.05,0,0.07,0l0,0c0.03,0,0.05,0,0.08,0
		c0.01,0,0.01,0,0.02,0c0.02,0,0.05,0,0.07,0c0.01,0,0.01,0,0.01,0c0.03,0,0.05,0,0.08,0c0.01,0,0.01,0,0.02,0c0.02,0,0.04,0,0.06,0
		c0,0,0.01,0,0.02,0c0.03,0,0.05,0,0.08,0c0.01,0,0.01,0,0.01,0c0.02,0,0.04,0,0.07,0c0.01,0,0.01,0,0.02,0c0.03,0,0.05,0,0.08,0
		c0,0,0,0,0.01,0c0.02,0,0.05,0,0.07,0c0.01,0,0.02,0,0.02,0c0.02,0,0.04,0,0.06,0c0.01,0,0.01,0,0.01,0c0.03,0,0.05,0,0.08,0
		c0.01,0,0.01,0,0.02,0c0.02,0,0.04,0,0.06,0c0.01,0,0.02,0,0.02,0c0.03,0,0.05,0,0.08,0c0.01,0,0.01,0,0.02,0c0.02,0,0.04,0,0.06,0
		c0.01,0,0.01,0,0.02,0c0.03,0,0.05,0,0.08,0c0.01,0,0.01,0,0.02,0c0.02,0,0.04,0,0.06,0c0.01,0,0.01,0,0.02,0c0.02,0,0.05,0,0.08,0
		c0,0,0.01,0,0.01,0c0.02,0,0.05,0,0.07,0c0.01,0,0.02,0,0.02,0c0.02,0,0.04,0,0.07,0c0.01,0,0.01,0,0.01,0c0.03,0,0.05,0,0.08,0
		c0.01,0,0.02,0,0.02,0c0.02,0,0.04,0,0.06,0c0.01,0,0.01,0,0.02,0c0.03,0,0.05,0,0.08,0c0.01,0,0.01,0,0.02,0c0.02,0,0.04,0,0.06,0
		c0.01,0,0.02,0,0.02,0c0.03,0,0.05,0,0.08,0c0,0,0.01,0,0.01,0c0.02,0,0.04,0,0.07,0c0.01,0,0.01,0,0.02,0c0.03,0,0.05,0,0.08,0
		l0,0c0.03,0,0.05,0,0.08,0c0.01,0,0.01,0,0.02,0c0.02,0,0.04,0,0.07,0c0.01,0,0.01,0,0.02,0c0.03,0,0.05,0,0.08,0
		c0.01,0,0.01,0,0.02,0c0.02,0,0.04,0,0.06,0c0.01,0,0.01,0,0.02,0c0.03,0,0.05,0,0.08,0c0.01,0,0.01,0,0.02,0c0.02,0,0.04,0,0.06,0
		c0.01,0,0.02,0,0.02,0c0.03,0,0.05,0,0.08,0c0,0,0.01,0,0.01,0c0.02,0,0.05,0,0.07,0c0.01,0,0.01,0,0.02,0c0.03,0,0.05,0,0.08,0
		c0,0,0,0,0.01,0c0.02,0,0.05,0,0.07,0c0.01,0,0.01,0,0.02,0c0.02,0,0.05,0,0.07,0c0,0,0.01,0,0.01,0c0.03,0,0.05,0,0.08,0
		c0.01,0,0.01,0,0.02,0c0.02,0,0.04,0,0.07,0c0.01,0,0.01,0,0.01,0c0.03,0,0.05,0,0.08,0c0.01,0,0.01,0,0.02,0c0.02,0,0.04,0,0.06,0
		c0.01,0,0.01,0,0.02,0c0.03,0,0.05,0,0.08,0c0,0,0.01,0,0.01,0c0.02,0,0.05,0,0.07,0c0.01,0,0.01,0,0.02,0c0.03,0,0.05,0,0.08,0
		h28.01c0.4,0,0.78-0.05,1.15-0.15c0.37,0.1,0.76,0.15,1.15,0.15h23.09c2.82,0,5.11-2.58,5.11-5.76c0-3.18-2.29-5.76-5.11-5.76
		h-23.09c-0.4,0-0.78,0.05-1.15,0.15c-0.37-0.1-0.76-0.15-1.15-0.15h-28.01c-12.7,0-25.03-4.08-35.65-11.8
		C276.13,531.81,275.17,531.51,274.22,531.51L274.22,531.51z M439.87,544.22h-2.31c-2.82,0-5.11,2.58-5.11,5.76
		c0,3.18,2.29,5.76,5.11,5.76h2.31c2.82,0,5.11-2.58,5.11-5.76C444.98,546.8,442.7,544.22,439.87,544.22L439.87,544.22z
		 M559.89,544.22H536.8c-0.4,0-0.78,0.05-1.15,0.15c-0.37-0.1-0.76-0.15-1.15-0.15h-71.52c-2.82,0-5.11,2.58-5.11,5.76
		c0,3.18,2.29,5.76,5.11,5.76h71.52c0.4,0,0.78-0.05,1.15-0.15c0.37,0.1,0.76,0.15,1.15,0.15h23.09c2.82,0,5.11-2.58,5.11-5.76
		C565,546.8,562.71,544.22,559.89,544.22L559.89,544.22z M633.72,544.22h-2.31c-2.82,0-5.11,2.58-5.11,5.76
		c0,3.18,2.29,5.76,5.11,5.76h2.31c2.82,0,5.11-2.58,5.11-5.76C638.83,546.8,636.54,544.22,633.72,544.22L633.72,544.22z
		 M753.73,544.22h-23.09c-0.4,0-0.78,0.05-1.15,0.15c-0.37-0.1-0.76-0.15-1.15-0.15h-71.52c-2.82,0-5.11,2.58-5.11,5.76
		c0,3.18,2.29,5.76,5.11,5.76h71.52c0.4,0,0.78-0.05,1.15-0.15c0.37,0.1,0.76,0.15,1.15,0.15h23.09c2.82,0,5.11-2.58,5.11-5.76
		C758.84,546.8,756.55,544.22,753.73,544.22L753.73,544.22z M826.95,543.66c-0.2,0-0.4,0.01-0.61,0.04
		c-0.66,0.09-1.33,0.17-1.99,0.23c-2.81,0.28-4.89,3.07-4.64,6.24c0.23,3,2.46,5.26,5.08,5.26c0.15,0,0.3-0.01,0.45-0.02
		c0,0,0.01,0,0.01,0c0.02,0,0.03,0,0.05-0.01c0.01,0,0.01,0,0.02,0c0.01,0,0.02,0,0.04,0c0.74-0.07,1.47-0.16,2.21-0.26
		c2.79-0.39,4.78-3.24,4.45-6.39C831.71,545.82,829.51,543.66,826.95,543.66L826.95,543.66z M889,454.21
		c-0.21,0-0.42,0.01-0.63,0.04c-2.8,0.39-4.79,3.27-4.44,6.42c0.33,3.04,0.5,6.15,0.5,9.24c0,4.45-0.35,8.9-1.04,13.24
		c-0.06,0.38-0.09,0.76-0.08,1.13c-0.13,0.34-0.23,0.7-0.3,1.08c-4.32,23.08-18.34,42.65-37.48,52.36c-2.57,1.3-3.72,4.71-2.56,7.62
		c0.85,2.13,2.71,3.4,4.66,3.4c0.7,0,1.41-0.16,2.09-0.51c16.72-8.48,30.24-23.57,37.93-42.32l0,0c0.04-0.1,0.08-0.19,0.12-0.29l0,0
		c0.04-0.1,0.08-0.19,0.12-0.29l0,0c0.37-0.91,0.72-1.83,1.06-2.76l0,0c0.01-0.02,0.02-0.05,0.03-0.07l0,0
		c0.28-0.78,0.56-1.57,0.82-2.36l0,0c0.16-0.47,0.31-0.94,0.46-1.42l0,0c0.11-0.35,0.22-0.7,0.33-1.05l0,0
		c0.11-0.35,0.21-0.7,0.31-1.06v0c0.84-2.89,1.54-5.84,2.11-8.85c0.08-0.44,0.12-0.87,0.11-1.3c0.15-0.39,0.26-0.81,0.33-1.25
		c0.05-0.31,0.1-0.62,0.14-0.93c0,0,0,0,0,0c0-0.02,0.01-0.04,0.01-0.05c0,0,0,0,0-0.01c0-0.02,0-0.03,0.01-0.05
		c0-0.01,0-0.01,0-0.02c0-0.02,0-0.03,0.01-0.05c0,0,0-0.01,0-0.01c0-0.02,0-0.03,0.01-0.05c0-0.01,0-0.01,0-0.02
		c0-0.01,0-0.03,0.01-0.04c0-0.01,0-0.01,0-0.02c0-0.01,0-0.03,0.01-0.04c0-0.02,0.01-0.04,0.01-0.06c0-0.01,0-0.01,0-0.02
		c0-0.01,0-0.03,0.01-0.04c0-0.01,0-0.02,0-0.02c0-0.01,0-0.03,0.01-0.04c0-0.01,0-0.02,0-0.02c0-0.01,0-0.03,0.01-0.04
		c0-0.01,0-0.02,0-0.02c0-0.01,0-0.03,0.01-0.04c0-0.01,0-0.01,0-0.02c0-0.01,0-0.03,0.01-0.04c0-0.01,0-0.01,0-0.02
		c0-0.02,0.01-0.04,0.01-0.05c0,0,0,0,0-0.01c0.01-0.07,0.02-0.13,0.03-0.2c0,0,0,0,0,0c0-0.02,0.01-0.04,0.01-0.06c0,0,0,0,0,0
		c0-0.02,0.01-0.04,0.01-0.06c0,0,0,0,0,0c0.44-3.24,0.73-6.54,0.84-9.88c0,0,0,0,0,0c0.01-0.16,0.01-0.32,0.02-0.48c0,0,0,0,0,0
		c0-0.02,0-0.04,0-0.06c0,0,0-0.01,0-0.01c0-0.11,0.01-0.23,0.01-0.34c0,0,0,0,0,0c0-0.02,0-0.04,0-0.06c0,0,0-0.01,0-0.01
		c0-0.02,0-0.04,0-0.06c0,0,0-0.01,0-0.01c0-0.02,0-0.03,0-0.05c0-0.01,0-0.01,0-0.02c0-0.02,0-0.04,0-0.06c0,0,0-0.01,0-0.01
		c0-0.07,0-0.13,0-0.2c0,0,0,0,0,0c0-0.02,0-0.04,0-0.06c0,0,0-0.01,0-0.01c0-0.02,0-0.04,0-0.06c0-0.01,0-0.01,0-0.02
		c0-0.02,0-0.03,0-0.05c0-0.01,0-0.01,0-0.02c0-0.02,0-0.03,0-0.05c0-0.01,0-0.01,0-0.02c0-0.02,0-0.04,0-0.05c0,0,0-0.01,0-0.01
		c0-0.05,0-0.09,0-0.14c0,0,0,0,0,0c0-0.02,0-0.04,0-0.06c0-0.01,0-0.01,0-0.02c0-0.01,0-0.03,0-0.05c0-0.01,0-0.01,0-0.02
		c0-0.02,0-0.03,0-0.05c0-0.01,0-0.01,0-0.02c0-0.01,0-0.03,0-0.05c0-0.01,0-0.01,0-0.02c0-0.01,0-0.03,0-0.04c0-0.01,0-0.01,0-0.02
		c0-0.02,0-0.04,0-0.06c0,0,0,0,0-0.01c0-0.02,0-0.04,0-0.07c0,0,0,0,0,0c0-0.02,0-0.04,0-0.06c0-0.01,0-0.01,0-0.02
		c0-0.01,0-0.03,0-0.05c0-0.01,0-0.02,0-0.02c0-0.01,0-0.03,0-0.04c0-0.01,0-0.02,0-0.02c0-0.01,0-0.03,0-0.04c0-0.01,0-0.02,0-0.03
		c0-0.01,0-0.03,0-0.04c0-0.01,0-0.01,0-0.02c0-0.01,0-0.03,0-0.05c0-0.01,0-0.01,0-0.02c0-0.02,0-0.04,0-0.07c0,0,0,0,0,0
		c0-0.02,0-0.04,0-0.06c0-0.01,0-0.01,0-0.02c0-0.01,0-0.03,0-0.04c0-0.01,0-0.02,0-0.02c0-0.01,0-0.03,0-0.04c0-0.01,0-0.02,0-0.03
		c0-0.01,0-0.03,0-0.04c0-0.01,0-0.02,0-0.02c0-0.01,0-0.03,0-0.04c0-0.01,0-0.02,0-0.02c0-0.01,0-0.03,0-0.04c0-0.01,0-0.01,0-0.02
		c0-0.02,0-0.04,0-0.07l0,0l0,0c0-0.03,0-0.05,0-0.08c0-0.01,0-0.01,0-0.02c0-0.02,0-0.04,0-0.06c0-0.01,0-0.02,0-0.03
		c0-0.02,0-0.04,0-0.06c0-0.01,0-0.02,0-0.02c0-0.02,0-0.04,0-0.06c0-0.01,0-0.01,0-0.02c0-0.03,0-0.05,0-0.08v-0.01
		c0-0.02,0-0.05,0-0.07c0-0.01,0-0.01,0-0.02c0-0.02,0-0.04,0-0.06c0-0.01,0-0.01,0-0.02c0-0.02,0-0.04,0-0.06c0-0.01,0-0.01,0-0.02
		c0-0.05,0-0.11,0-0.16c0,0,0,0,0-0.01c0-0.02,0-0.05,0-0.07c0-0.01,0-0.01,0-0.02c0-0.02,0-0.04,0-0.07c0-0.01,0-0.01,0-0.02
		c0-0.03,0-0.05,0-0.08c0,0,0,0,0,0c0-0.06,0-0.11,0-0.17c0,0,0,0,0-0.01c0-0.02,0-0.05,0-0.07c0-0.01,0-0.01,0-0.01
		c0-0.02,0-0.05,0-0.07c0,0,0,0,0-0.01c0-0.08,0-0.17,0-0.25l0,0c0-0.03,0-0.05,0-0.08c0,0,0,0,0,0c-0.03-1.93-0.13-3.85-0.27-5.75
		c0,0,0,0,0,0c-0.01-0.08-0.01-0.16-0.02-0.25l0,0c0-0.02,0-0.05-0.01-0.07c0-0.01,0-0.01,0-0.02c0-0.02,0-0.04,0-0.06
		c0-0.01,0-0.01,0-0.02c0-0.02,0-0.04,0-0.06c0-0.01,0-0.01,0-0.02c0-0.03,0-0.05-0.01-0.08c0-0.01,0-0.01,0-0.02
		c0-0.02,0-0.04,0-0.05c0-0.01,0-0.02,0-0.03c0-0.01,0-0.03,0-0.04c0-0.01,0-0.02,0-0.03c0-0.01,0-0.03,0-0.04c0-0.01,0-0.03,0-0.04
		c0-0.01,0-0.02,0-0.03c0-0.03-0.01-0.06-0.01-0.1c0,0,0-0.01,0-0.01c0-0.02,0-0.04,0-0.05c0-0.01,0-0.01,0-0.02
		c0-0.02,0-0.04,0-0.05c0-0.01,0-0.01,0-0.02c0-0.02,0-0.04-0.01-0.06c0,0,0,0,0-0.01c-0.06-0.66-0.12-1.31-0.2-1.96
		C893.73,456.33,891.53,454.21,889,454.21L889,454.21z M851.11,392.99c-1.85,0-3.63,1.14-4.54,3.11c-1.3,2.83-0.32,6.3,2.19,7.76
		c0.59,0.34,1.18,0.7,1.76,1.07c0.79,0.49,1.64,0.73,2.48,0.73c1.79,0,3.53-1.07,4.47-2.96c1.37-2.77,0.49-6.27-1.96-7.82
		c-0.23-0.14-0.45-0.28-0.68-0.42c-0.01,0-0.01-0.01-0.02-0.01c-0.01-0.01-0.02-0.01-0.03-0.02c-0.01-0.01-0.02-0.01-0.03-0.02
		c-0.01-0.01-0.02-0.01-0.03-0.02c-0.01-0.01-0.02-0.01-0.03-0.02c-0.01,0-0.02-0.01-0.02-0.01c-0.02-0.01-0.04-0.02-0.06-0.03
		c0,0-0.01,0-0.01,0c-0.02-0.01-0.03-0.02-0.05-0.03c-0.01,0-0.01-0.01-0.02-0.01c-0.01-0.01-0.03-0.02-0.04-0.03
		c-0.01,0-0.01-0.01-0.02-0.01c-0.02-0.01-0.03-0.02-0.05-0.03c0,0-0.01,0-0.01-0.01c-0.04-0.02-0.08-0.05-0.12-0.07
		c0,0-0.01,0-0.01-0.01c-0.02-0.01-0.03-0.02-0.05-0.03c0,0-0.01,0-0.01-0.01c-0.02-0.01-0.04-0.02-0.06-0.03c0,0,0,0,0,0
		c-0.04-0.03-0.08-0.05-0.13-0.08c0,0,0,0,0,0c-0.02-0.01-0.04-0.02-0.06-0.03c0,0,0,0-0.01,0c-0.17-0.1-0.34-0.2-0.51-0.3
		C852.7,393.2,851.9,392.99,851.11,392.99L851.11,392.99z M818.52,384.08h-23.09c-2.82,0-5.11,2.58-5.11,5.76
		c0,3.18,2.29,5.76,5.11,5.76h23.09l0,0c3.82,0,7.65,0.37,11.38,1.1c0.3,0.06,0.59,0.09,0.88,0.09c2.44,0,4.6-1.97,5.03-4.77
		c0.48-3.13-1.38-6.12-4.16-6.66c-0.03-0.01-0.07-0.01-0.1-0.02l0,0c-0.03-0.01-0.07-0.01-0.1-0.02l0,0
		c-0.05-0.01-0.09-0.02-0.14-0.03c0,0-0.01,0-0.01,0c-0.01,0-0.02,0-0.03-0.01c-0.01,0-0.02,0-0.02,0c-0.01,0-0.02,0-0.03-0.01
		c-0.01,0-0.01,0-0.02,0c-0.01,0-0.02,0-0.03-0.01c-0.01,0-0.02,0-0.03-0.01c-0.01,0-0.02,0-0.02,0c-0.01,0-0.03,0-0.04-0.01
		c0,0-0.01,0-0.01,0c-0.02,0-0.04-0.01-0.05-0.01c0,0-0.01,0-0.01,0c-0.01,0-0.03-0.01-0.04-0.01c-0.01,0-0.01,0-0.02,0
		c-0.01,0-0.03-0.01-0.04-0.01c0,0-0.01,0-0.01,0c-0.01,0-0.03-0.01-0.05-0.01c0,0-0.01,0-0.01,0c-0.08-0.01-0.15-0.03-0.23-0.04
		c0,0,0,0,0,0c-0.02,0-0.04-0.01-0.06-0.01c0,0,0,0,0,0c-3.07-0.55-6.19-0.89-9.37-1.01c0,0,0,0,0,0c-0.1,0-0.2-0.01-0.3-0.01
		c0,0,0,0,0,0c-0.02,0-0.04,0-0.06,0c0,0,0,0,0,0c-0.02,0-0.04,0-0.06,0c0,0,0,0,0,0c-0.06,0-0.12,0-0.18-0.01c0,0-0.01,0-0.01,0
		c-0.02,0-0.03,0-0.05,0c-0.01,0-0.01,0-0.02,0c-0.02,0-0.03,0-0.05,0c0,0-0.01,0-0.01,0c-0.02,0-0.04,0-0.05,0c0,0,0,0-0.01,0
		c-0.04,0-0.08,0-0.12,0c0,0,0,0,0,0c-0.02,0-0.04,0-0.06,0c0,0,0,0-0.01,0c-0.02,0-0.03,0-0.05,0c0,0-0.01,0-0.01,0
		c-0.02,0-0.03,0-0.04,0c-0.01,0-0.01,0-0.02,0c-0.02,0-0.03,0-0.05,0c0,0-0.01,0-0.01,0c-0.04,0-0.08,0-0.12,0c0,0-0.01,0-0.01,0
		c-0.02,0-0.03,0-0.05,0c0,0-0.01,0-0.01,0c-0.02,0-0.03,0-0.04,0c-0.01,0-0.01,0-0.02,0c-0.02,0-0.03,0-0.04,0
		c-0.01,0-0.01,0-0.01,0c-0.02,0-0.03,0-0.05,0c0,0-0.01,0-0.01,0c-0.04,0-0.08,0-0.11,0c-0.01,0-0.01,0-0.02,0
		c-0.01,0-0.03,0-0.04,0c-0.01,0-0.01,0-0.02,0c-0.02,0-0.02,0-0.04,0c-0.01,0-0.01,0-0.02,0c-0.02,0-0.03,0-0.04,0
		c0,0-0.01,0-0.01,0c-0.02,0-0.03,0-0.05,0c0,0-0.01,0-0.01,0c-0.02,0-0.04,0-0.06,0c0,0-0.01,0-0.01,0c-0.02,0-0.03,0-0.05,0
		c-0.01,0-0.01,0-0.02,0c-0.01,0-0.03,0-0.04,0c-0.01,0-0.01,0-0.02,0c-0.01,0-0.02,0-0.03,0c-0.01,0-0.02,0-0.03,0
		c-0.01,0-0.02,0-0.04,0c-0.01,0-0.01,0-0.02,0c-0.02,0-0.03,0-0.05,0c0,0-0.01,0-0.01,0c-0.02,0-0.04,0-0.06,0
		c-0.01,0-0.01,0-0.02,0c-0.01,0-0.03,0-0.04,0c-0.01,0-0.01,0-0.02,0c-0.01,0-0.02,0-0.04,0c-0.01,0-0.01,0-0.02,0
		c-0.01,0-0.02,0-0.04,0c-0.01,0-0.01,0-0.02,0c-0.01,0-0.03,0-0.04,0c-0.01,0-0.01,0-0.02,0
		C818.56,384.08,818.54,384.08,818.52,384.08L818.52,384.08z"/>
</g>
<g>
	<path class="st12" d="M304.35,391.6c-8.22,0-16.3-1.27-24.01-3.78c-2.66-0.86-4.12-3.74-3.26-6.43s3.7-4.16,6.35-3.3
		c6.7,2.18,13.74,3.29,20.91,3.29c2.79,0,5.05,2.29,5.05,5.11C309.4,389.31,307.14,391.6,304.35,391.6z M236.81,337.6
		c-2.42,0-4.56-1.77-4.97-4.26c-0.14-0.82-0.26-1.65-0.36-2.48c-0.36-2.8,1.6-5.36,4.36-5.72c2.77-0.36,5.3,1.61,5.66,4.41
		c0.09,0.7,0.19,1.39,0.31,2.09c0.46,2.78-1.39,5.42-4.14,5.89C237.38,337.58,237.09,337.6,236.81,337.6z M237.96,312.43
		c-0.43,0-0.86-0.05-1.3-0.17c-2.7-0.72-4.3-3.52-3.59-6.25c6.45-24.65,26.69-43.91,52.83-50.27c0.41-0.1,0.81-0.15,1.22-0.14
		c0.36-0.18,0.75-0.31,1.16-0.4c5.24-1.1,10.64-1.66,16.06-1.66c0,0,0,0,0.01,0h7.68c2.79,0,5.05,2.29,5.05,5.11
		s-2.26,5.11-5.05,5.11h-7.68c0,0,0,0-0.01,0c-4.73,0-9.44,0.49-14,1.45c-0.36,0.07-0.74,0.1-1.06,0.11
		c-0.32,0.15-0.65,0.28-1.01,0.36c-22.52,5.48-39.92,21.94-45.42,42.95C242.24,310.91,240.2,312.43,237.96,312.43z M768.28,263.75
		H766c-2.79,0-5.05-2.29-5.05-5.11s2.26-5.11,5.05-5.11h2.28c2.79,0,5.05,2.29,5.05,5.11S771.07,263.75,768.28,263.75z
		 M579.33,263.75h-98.49c-0.39,0-0.77-0.05-1.14-0.13c-0.37,0.09-0.75,0.13-1.14,0.13h-70.71c-2.79,0-5.05-2.29-5.05-5.11
		s2.26-5.11,5.05-5.11h70.71c0.39,0,0.77,0.05,1.14,0.13c0.37-0.09,0.75-0.13,1.14-0.13h98.49c2.79,0,5.05,2.29,5.05,5.11
		S582.12,263.75,579.33,263.75z M385.02,263.75h-2.28c-2.79,0-5.05-2.29-5.05-5.11s2.26-5.11,5.05-5.11h2.28
		c2.79,0,5.05,2.29,5.05,5.11S387.81,263.75,385.02,263.75z"/>
</g>
<linearGradient id="SVGID_10_" gradientUnits="userSpaceOnUse" x1="368.8259" y1="371.6507" x2="368.8259" y2="435.5107">
	<stop  offset="0" style="stop-color:#FFE9BF"/>
	<stop  offset="1" style="stop-color:#ED6D4D"/>
</linearGradient>
<polygon class="st16" points="350.88,415.28 386.78,415.28 386.78,387.39 350.88,387.39 "/>
<g>
	<path class="st281" d="M359.4,410.31h11.04c0.24,0,0.43-0.19,0.43-0.43s-0.19-0.43-0.43-0.43H359.4c-0.24,0-0.43,0.19-0.43,0.43
		S359.17,410.31,359.4,410.31z"/>
</g>
<g>
	<path class="st281" d="M364.12,412.82h6.33c0.24,0,0.43-0.19,0.43-0.43s-0.19-0.43-0.43-0.43h-6.33c-0.24,0-0.43,0.19-0.43,0.43
		S363.88,412.82,364.12,412.82z"/>
</g>
<linearGradient id="SVGID_11_" gradientUnits="userSpaceOnUse" x1="401.4553" y1="342.9282" x2="401.4553" y2="564.3318">
	<stop  offset="0" style="stop-color:#FFE9BF"/>
	<stop  offset="1" style="stop-color:#ED6D4D"/>
</linearGradient>
<polygon class="st17" points="371.07,415.19 431.84,415.19 431.84,368.87 371.07,368.87 "/>
<g>
	<path class="st281" d="M385.51,407.67h18.69c0.4,0,0.73-0.32,0.73-0.73s-0.32-0.73-0.73-0.73h-18.69c-0.4,0-0.73,0.32-0.73,0.73
		S385.11,407.67,385.51,407.67z"/>
</g>
<g>
	<path class="st281" d="M393.49,411.92h10.71c0.4,0,0.73-0.32,0.73-0.73c0-0.4-0.32-0.73-0.73-0.73h-10.71
		c-0.4,0-0.73,0.32-0.73,0.73C392.76,411.59,393.09,411.92,393.49,411.92z"/>
</g>
<rect x="419.22" y="372.83" transform="matrix(-1 -4.484025e-11 4.484025e-11 -1 846.9599 754.1857)" class="st28" width="8.52" height="8.52"/>
<linearGradient id="SVGID_12_" gradientUnits="userSpaceOnUse" x1="443.6409" y1="368.7494" x2="443.6409" y2="494.0574">
	<stop  offset="0" style="stop-color:#FFE9BF"/>
	<stop  offset="1" style="stop-color:#ED6D4D"/>
</linearGradient>
<polygon class="st18" points="425.12,415.19 462.16,415.19 462.16,386.95 425.12,386.95 "/>
<g>
	<path class="st281" d="M433.92,410.59h11.39c0.24,0,0.44-0.2,0.44-0.44s-0.2-0.44-0.44-0.44h-11.39c-0.24,0-0.44,0.2-0.44,0.44
		S433.68,410.59,433.92,410.59z"/>
</g>
<g>
	<path class="st281" d="M438.78,413.18h6.53c0.24,0,0.44-0.2,0.44-0.44c0-0.24-0.2-0.44-0.44-0.44h-6.53c-0.24,0-0.44,0.2-0.44,0.44
		C438.34,412.98,438.54,413.18,438.78,413.18z"/>
</g>
<rect x="454.47" y="389.36" transform="matrix(-1 -4.449520e-11 4.449520e-11 -1 914.1278 783.9153)" class="st28" width="5.19" height="5.19"/>
<g>
	<path class="st23" d="M588.97,483.47l7.22,6.17c4.49,4.02,7.66,9.47,8.84,15.62C602.33,505.44,589.6,505.11,588.97,483.47z"/>
	
		<linearGradient id="SVGID_13_" gradientUnits="userSpaceOnUse" x1="926.7425" y1="439.8743" x2="1438.1527" y2="439.8743" gradientTransform="matrix(-1 0 0 1 1456.647 0)">
		<stop  offset="0" style="stop-color:#6AB75A"/>
		<stop  offset="1" style="stop-color:#01717D"/>
		<stop  offset="1" style="stop-color:#009D90"/>
	</linearGradient>
	<path class="st19" d="M335.93,403.79h145.12c4.11,0,7.44,3.33,7.44,7.44l10.33,64.74c-39.71-12.18-92.74-21.98-164.07-23.13
		l-6.26-41.61C328.5,407.12,331.83,403.79,335.93,403.79z"/>
</g>
<g>
	<path class="st94" d="M523.31,525.44h-17.06c-3.19,0-5.91-2.01-6.96-4.84h24.65C523.58,522.16,523.37,523.78,523.31,525.44z"/>
	<path class="st23" d="M498.82,475.96c33.23,10.19,56.61,22.06,72.2,31.92c-2.39,0-4.74,0-6.98,0c-2.67,0-5.17,0-7.37,0
		c-3.43-1.93-7.25-3.95-11.44-6.03c-11.87-5.85-26.86-12.11-45.38-17.89c-0.34-0.11-0.68-0.21-1.02-0.32
		c-36.65-11.33-88.33-21.82-162.55-21.82l-1.52-9C406.08,453.98,459.11,463.78,498.82,475.96z"/>
</g>
<linearGradient id="SVGID_14_" gradientUnits="userSpaceOnUse" x1="846.0471" y1="473.0295" x2="1207.847" y2="473.0295" gradientTransform="matrix(-1 0 0 1 1456.647 0)">
	<stop  offset="0" style="stop-color:#6AB75A"/>
	<stop  offset="1" style="stop-color:#01717D"/>
	<stop  offset="1" style="stop-color:#009D90"/>
</linearGradient>
<path class="st20" d="M492.76,438.18h6.54h31.71c1.84,0,5.36,0.1,7.18,1.92l50.78,43.37c0.63,21.64,13.36,21.97,16.07,21.79
	c0.04,0.21,0.07,0.42,0.11,0.63c-0.85,1.07-2.08,1.99-3.82,1.99c-2.21,0-16.88,0-30.3,0c-15.52-9.82-31.17-17.56-65.38-29.75
	l-6.82-2.17L492.76,438.18z"/>
<path class="st94" d="M537.17,445.8c0.68,0,1.97,0.04,2.64,0.71l21.31,18.2c2.11,1.89,3.44,4.63,3.44,7.69v1.43
	c0,2.23-1.81,4.04-4.04,4.04h-40.05c-1.51,0-2.73-1.22-2.73-2.73l-5.45-26.6c0-1.51,1.22-2.73,2.73-2.73H537.17z"/>
<path class="st286" d="M573.39,482.44h1.17c0.6,0,1.09-0.49,1.09-1.09v-15.28c0-0.6-0.49-1.09-1.09-1.09h-1.17
	c-0.6,0-1.09,0.49-1.09,1.09v15.28C572.3,481.95,572.78,482.44,573.39,482.44z"/>
<path class="st286" d="M575.64,478.49c2.29,0,4.15-1.86,4.15-4.15s-1.86-4.15-4.15-4.15V478.49z"/>
<polygon class="st254" points="529.67,477.86 516.32,468.09 515.25,462.86 535.75,477.86 "/>
<polygon class="st254" points="542.81,477.86 513.98,456.64 512.66,450.2 550.87,477.86 "/>
<path class="st94" d="M350.95,507.88h146.18c4.03,0,47.67,0,47.32,0c0,0,55.56,0,56.87,0c1.74,0,2.97-0.92,3.82-1.99
	c0.26,1.52,0.4,3.08,0.4,4.67v12.58c0,4.11-3.33,7.44-7.44,7.44H357.07c-4.11,0-6.57-0.97-8.12-7.73l-2.8-14.75
	C346.15,504,346.84,507.88,350.95,507.88z"/>
<path class="st250" d="M498.82,483.65c0.34,0.11,0.68,0.21,1.02,0.32c18.52,5.78,33.52,12.04,45.38,17.89
	c4.2,2.07,8.01,4.09,11.44,6.03H544.8c-2.38,0-10.11,4.54-15.09,12.15c-0.23,0.35-0.62,0.57-1.04,0.57l-27-0.06
	c-0.69,0-1.25-0.56-1.25-1.25c0-0.67-1.59-10.16-1.59-10.16c0-0.69-0.56-1.25-1.25-1.25H350.24c-4.8,0-7.74-3.89-7.74-8.69
	l-6.24-37.37C407.96,461.94,460.37,471.76,498.82,483.65z"/>
<path class="st286" d="M384.69,530.58h39.89c0-11.02-8.93-19.95-19.95-19.95C393.62,510.63,384.69,519.56,384.69,530.58z"/>
<path class="st286" d="M536.7,530.56h39.89c0-11.02-8.93-19.95-19.95-19.95C545.63,510.61,536.7,519.54,536.7,530.56z"/>
<circle class="st94" cx="556.65" cy="530.56" r="14.94"/>
<circle class="st286" cx="556.65" cy="530.56" r="10.31"/>
<circle class="st94" cx="556.65" cy="530.56" r="4.85"/>
<circle class="st94" cx="404.64" cy="530.93" r="14.4"/>
<circle class="st286" cx="404.64" cy="530.93" r="9.94"/>
<circle class="st94" cx="404.64" cy="530.93" r="4.68"/>
<path class="st11" d="M36.65,555.74h276.58c5.97,0,10.82-4.84,10.82-10.82V429.26c0-5.97-4.84-10.82-10.82-10.82H241.6
	c-5.97,0-10.82-4.84-10.82-10.82v-95.8c0-5.97-4.84-10.82-10.82-10.82H103.44c-5.97,0-10.82,4.84-10.82,10.82v69.9
	c0,5.97-4.84,10.82-10.82,10.82H38.68c-5.97,0-10.82,4.84-10.82,10.82v65.58c0,4.76,0.09,57.14,0.12,78.16
	C27.99,551.88,31.87,555.74,36.65,555.74z"/>
<path class="st12" d="M202.27,354.77h-8.52c-5.93,0-10.73-4.81-10.73-10.73v-8.52c0-5.93,4.81-10.73,10.73-10.73h8.52
	c5.93,0,10.73,4.81,10.73,10.73v8.52C213,349.97,208.2,354.77,202.27,354.77z"/>
<path class="st12" d="M132.79,403.79h-8.52c-5.93,0-10.73-4.81-10.73-10.73v-8.52c0-5.93,4.81-10.73,10.73-10.73h8.52
	c5.93,0,10.73,4.81,10.73,10.73v8.52C143.53,398.98,138.72,403.79,132.79,403.79z"/>
<path class="st12" d="M67.92,474.24H59.4c-5.93,0-10.73-4.81-10.73-10.73v-8.52c0-5.93,4.81-10.73,10.73-10.73h8.52
	c5.93,0,10.73,4.81,10.73,10.73v8.52C78.66,469.43,73.85,474.24,67.92,474.24z"/>
<path class="st12" d="M294.25,473.71h-8.52c-5.93,0-10.73-4.81-10.73-10.73v-8.52c0-5.93,4.81-10.73,10.73-10.73h8.52
	c5.93,0,10.73,4.81,10.73,10.73v8.52C304.98,468.9,300.17,473.71,294.25,473.71z"/>
<path class="st12" d="M177.25,453.1h-23.35c-9.59,0-17.36,7.77-17.36,17.36v85.29h58.07v-85.29
	C194.61,460.87,186.83,453.1,177.25,453.1z"/>
<linearGradient id="SVGID_15_" gradientUnits="userSpaceOnUse" x1="121.9702" y1="348.6829" x2="236.6369" y2="-171.3171">
	<stop  offset="0" style="stop-color:#F9FCFF"/>
	<stop  offset="0.2042" style="stop-color:#E7F4F8"/>
	<stop  offset="0.4419" style="stop-color:#D9EEF2"/>
	<stop  offset="0.6975" style="stop-color:#D0EAEE"/>
	<stop  offset="1" style="stop-color:#CDE8ED"/>
</linearGradient>
<path class="st21" d="M172.64,224.03h-10.97c0-14.38-11.54-26.03-25.77-26.03s-25.77,11.65-25.77,26.03c0,0.12,0.01,0.23,0.01,0.35
	c-12.67,2.07-22.35,13.16-22.35,26.54v0c0,14.85,11.92,26.9,26.63,26.9h58.22c14.71,0,26.63-12.04,26.63-26.9v0
	C199.27,236.07,187.35,224.03,172.64,224.03z"/>
<linearGradient id="SVGID_16_" gradientUnits="userSpaceOnUse" x1="60.0029" y1="252.9097" x2="141.7807" y2="23.5764">
	<stop  offset="0" style="stop-color:#F9FCFF"/>
	<stop  offset="0.2042" style="stop-color:#E7F4F8"/>
	<stop  offset="0.4419" style="stop-color:#D9EEF2"/>
	<stop  offset="0.6975" style="stop-color:#D0EAEE"/>
	<stop  offset="1" style="stop-color:#CDE8ED"/>
</linearGradient>
<path class="st27" d="M87.49,197.93h-4.43c0-5.8-4.66-10.51-10.41-10.51s-10.41,4.71-10.41,10.51c0,0.05,0,0.09,0,0.14
	c-5.12,0.84-9.02,5.32-9.02,10.72v0c0,6,4.81,10.86,10.75,10.86h23.51c5.94,0,10.75-4.86,10.75-10.86v0
	C98.24,202.79,93.43,197.93,87.49,197.93z"/>
<path class="st161" d="M154.55,133.93c-6.08,0-11.02-4.94-11.02-11.02c0-6.08,4.94-11.02,11.02-11.02c6.08,0,11.02,4.94,11.02,11.02
	C165.57,128.98,160.63,133.93,154.55,133.93z M154.55,116.82c-3.35,0-6.08,2.73-6.08,6.08s2.73,6.08,6.08,6.08s6.08-2.73,6.08-6.08
	S157.9,116.82,154.55,116.82z"/>
<circle class="st357" cx="588.97" cy="66.17" r="6.74"/>
<path class="st52" d="M641.52,486.96c-6.67,0-12.11-5.43-12.11-12.11c0-6.68,5.43-12.11,12.11-12.11c6.68,0,12.11,5.43,12.11,12.11
	C653.62,481.53,648.19,486.96,641.52,486.96z M641.52,468.18c-3.68,0-6.68,3-6.68,6.68s3,6.68,6.68,6.68c3.68,0,6.68-3,6.68-6.68
	S645.2,468.18,641.52,468.18z"/>
<path class="st11" d="M696.14,171.42h74.59c4.8,0,8.69,3.89,8.69,8.69v74.59c0,4.8-3.89,8.69-8.69,8.69h-74.59
	c-4.8,0-8.69-3.89-8.69-8.69V180.1C687.45,175.3,691.34,171.42,696.14,171.42z"/>
<path class="st12" d="M672.28,185.86l56.56-56.56c2.54-2.54,6.65-2.54,9.19,0l56.56,56.56c4.09,4.09,1.19,11.09-4.6,11.09H676.87
	C671.08,196.96,668.18,189.96,672.28,185.86z"/>
<linearGradient id="SVGID_17_" gradientUnits="userSpaceOnUse" x1="766.7081" y1="78.5768" x2="926.1155" y2="-122.3121">
	<stop  offset="0" style="stop-color:#F9FCFF"/>
	<stop  offset="0.2042" style="stop-color:#E7F4F8"/>
	<stop  offset="0.4419" style="stop-color:#D9EEF2"/>
	<stop  offset="0.6975" style="stop-color:#D0EAEE"/>
	<stop  offset="1" style="stop-color:#CDE8ED"/>
</linearGradient>
<path class="st29" d="M800.52,44.05h-9.06c0-11.86-9.52-21.48-21.27-21.48s-21.27,9.62-21.27,21.48c0,0.1,0.01,0.19,0.01,0.29
	c-10.46,1.71-18.44,10.87-18.44,21.91v0c0,12.26,9.84,22.2,21.98,22.2h48.06c12.14,0,21.98-9.94,21.98-22.2v0
	C822.5,53.99,812.66,44.05,800.52,44.05z"/>
<path class="st26" d="M475.56,160.02c-19.59,0-35.47,15.88-35.47,35.47c0,27.68,35.5,48.32,35.5,48.32s35.45-22.49,35.45-48.32
	C511.03,175.9,495.15,160.02,475.56,160.02z M475.56,209.11c-9.01,0-16.31-7.3-16.31-16.31c0-9.01,7.3-16.31,16.31-16.31
	c9.01,0,16.31,7.3,16.31,16.31C491.87,201.81,484.57,209.11,475.56,209.11z"/>
<path class="st296" d="M601.64,298.7c-17.43,0-31.56,14.13-31.56,31.56c0,24.63,31.58,42.99,31.58,42.99s31.53-20,31.53-42.99
	C633.2,312.83,619.07,298.7,601.64,298.7z M601.64,342.37c-8.01,0-14.51-6.49-14.51-14.51c0-8.01,6.49-14.51,14.51-14.51
	c8.01,0,14.51,6.49,14.51,14.51C616.15,335.88,609.65,342.37,601.64,342.37z"/>
<path class="st297" d="M740.52,448.55c-19.63,0-35.54,15.91-35.54,35.54c0,27.74,35.56,48.41,35.56,48.41s35.52-22.53,35.52-48.41
	C776.06,464.46,760.15,448.55,740.52,448.55z M740.52,497.74c-9.02,0-16.34-7.32-16.34-16.34c0-9.02,7.32-16.34,16.34-16.34
	c9.02,0,16.34,7.32,16.34,16.34C756.86,490.42,749.55,497.74,740.52,497.74z"/>
<path class="st12" d="M740.11,232.15h-13.36c-3.35,0-6.07-2.72-6.07-6.07v-13.36c0-3.35,2.72-6.07,6.07-6.07h13.36
	c3.35,0,6.07,2.72,6.07,6.07v13.36C746.18,229.43,743.46,232.15,740.11,232.15z"/>
</svg>
