<?xml version="1.0" encoding="utf-8"?>
<!-- Generator: Adobe Illustrator 23.1.0, SVG Export Plug-In . SVG Version: 6.00 Build 0)  -->
<svg version="1.1" id="Layer_1" xmlns="http://www.w3.org/2000/svg" xmlns:xlink="http://www.w3.org/1999/xlink" x="0px" y="0px"
	 viewBox="0 0 910 567" style="enable-background:new 0 0 910 567;" xml:space="preserve">
<style type="text/css">
	.st0{fill:#C4E5ED;}
	.st1{fill:url(#SVGID_1_);}
	.st2{fill:#4195B7;}
	.st3{fill:#FCD3B5;}
	.st4{fill:#008F7F;}
	.st5{fill:#F7B394;}
	.st6{fill:#37A539;}
	.st7{fill:#43AE5D;}
	.st8{fill:url(#SVGID_2_);}
	.st9{fill:#62A4C0;}
	.st10{fill:url(#SVGID_3_);}
	.st11{fill:#FAB95F;}
	.st12{fill:#1D627E;}
	.st13{fill:#C7E6EE;}
	.st14{fill:url(#SVGID_4_);}
	.st15{fill:url(#SVGID_5_);}
	.st16{fill:url(#SVGID_6_);}
	.st17{fill:url(#SVGID_7_);}
	.st18{fill:url(#SVGID_8_);}
	.st19{fill:url(#SVGID_9_);}
	.st20{fill:#F8C671;}
	.st21{fill:url(#SVGID_10_);}
	.st22{fill:#AFD7DD;}
	.st23{fill:#EFF7FB;}
	.st24{fill:url(#SVGID_11_);}
	.st25{fill:url(#SVGID_12_);}
	.st26{fill:url(#SVGID_13_);}
	.st27{fill:url(#SVGID_14_);}
	.st28{fill:url(#SVGID_15_);}
	.st29{fill:url(#SVGID_16_);}
	.st30{fill:#EC6743;}
	.st31{fill:url(#SVGID_17_);}
	.st32{fill:url(#SVGID_18_);}
	.st33{fill:#5BB24C;}
	.st34{fill:url(#SVGID_19_);}
	.st35{fill:url(#SVGID_20_);}
	.st36{fill:url(#SVGID_21_);}
	.st37{fill:#F18675;}
	.st38{fill:#046B89;}
	.st39{fill:#EA5539;}
	.st40{fill:#E62555;}
	.st41{fill:#FFFFFF;}
	.st42{fill:none;}
	.st43{enable-background:new    ;}
	.st44{fill:#D0EAF3;}
	.st45{fill:url(#SVGID_22_);}
	.st46{fill:#D6EDF4;}
	.st47{fill:url(#SVGID_23_);}
	.st48{fill:url(#SVGID_24_);}
	.st49{fill:url(#SVGID_25_);}
	.st50{fill:#FAB755;}
	.st51{fill:#EC6544;}
	.st52{fill:#83B0C7;}
	.st53{fill:#FAB854;}
	.st54{fill:url(#SVGID_26_);}
	.st55{fill:#4093B6;}
	.st56{fill:url(#SVGID_27_);}
	.st57{fill:url(#SVGID_28_);}
	.st58{fill:url(#SVGID_29_);}
	.st59{fill:#A8DAE3;}
	.st60{fill:#04617B;}
	.st61{fill:url(#SVGID_30_);}
	.st62{fill:url(#SVGID_31_);}
	.st63{fill:#FCD4B7;}
	.st64{fill:url(#SVGID_32_);}
	.st65{fill:url(#SVGID_33_);}
	.st66{fill:url(#SVGID_34_);}
	.st67{fill:url(#SVGID_35_);}
	.st68{fill:url(#SVGID_36_);}
	.st69{fill:#FFF5E9;}
	.st70{fill:url(#SVGID_37_);}
	.st71{fill:url(#SVGID_38_);}
	.st72{fill:url(#SVGID_39_);}
	.st73{fill:url(#SVGID_40_);}
	.st74{fill:url(#SVGID_41_);}
	.st75{fill:url(#SVGID_42_);}
	.st76{fill:url(#SVGID_43_);}
	.st77{fill:#1B5A6F;}
	.st78{fill:url(#SVGID_44_);}
	.st79{fill:url(#SVGID_45_);}
	.st80{fill:url(#SVGID_46_);}
	.st81{fill:#065E79;}
	.st82{fill:url(#SVGID_47_);}
	.st83{fill:url(#SVGID_48_);}
	.st84{fill:#FDCE6A;}
	.st85{opacity:0.11;fill:#FFFFFF;enable-background:new    ;}
	.st86{opacity:0.42;fill:#EFF7FB;enable-background:new    ;}
	.st87{fill:none;stroke:#D0EAF3;stroke-width:2;stroke-linecap:round;stroke-miterlimit:10;}
	.st88{opacity:0.7;fill:#D0EAF3;enable-background:new    ;}
	.st89{opacity:0.7;fill:#C4E5ED;enable-background:new    ;}
	.st90{opacity:0.73;fill:#EFF7FB;enable-background:new    ;}
	.st91{fill:#D9EEF4;}
	.st92{fill:#CDE9F0;}
	.st93{fill:url(#SVGID_49_);}
	.st94{fill:url(#SVGID_50_);}
	.st95{fill:#3B85A9;}
	.st96{fill:url(#SVGID_51_);}
	.st97{fill:url(#SVGID_52_);}
	.st98{fill:url(#SVGID_53_);}
	.st99{fill:#F18775;}
	.st100{fill:url(#SVGID_54_);}
	.st101{fill:url(#SVGID_55_);}
	.st102{fill:url(#SVGID_56_);}
	.st103{fill:#4FB26D;}
	.st104{fill:url(#SVGID_57_);}
	.st105{fill:url(#SVGID_58_);}
	.st106{fill:url(#SVGID_59_);}
	.st107{fill:url(#SVGID_60_);}
	.st108{fill:url(#SVGID_61_);}
	.st109{fill:url(#SVGID_62_);}
	.st110{fill:url(#SVGID_63_);}
	.st111{fill:#F49C7E;}
	.st112{fill:url(#SVGID_64_);}
	.st113{fill:url(#SVGID_65_);}
	.st114{fill:#FED377;}
	.st115{fill:url(#SVGID_66_);}
	.st116{fill:url(#SVGID_67_);}
	.st117{fill:#124657;}
	.st118{opacity:0.19;fill:#FFFFFF;enable-background:new    ;}
	.st119{fill:#F7F9F9;}
	.st120{fill:url(#SVGID_68_);}
	.st121{fill:url(#SVGID_69_);}
	.st122{fill:url(#SVGID_70_);}
	.st123{fill:url(#SVGID_71_);}
	.st124{fill:#D9EEF3;}
	.st125{fill:url(#SVGID_72_);}
	.st126{fill:url(#SVGID_73_);}
	.st127{fill:#FAFDFF;}
	.st128{fill:url(#SVGID_74_);}
	.st129{fill:url(#SVGID_75_);}
	.st130{fill:url(#SVGID_76_);}
	.st131{opacity:0.68;fill:url(#SVGID_77_);enable-background:new    ;}
	.st132{fill:url(#SVGID_78_);}
	.st133{opacity:0.68;fill:url(#SVGID_79_);enable-background:new    ;}
	.st134{fill:url(#SVGID_80_);}
	.st135{opacity:0.68;fill:url(#SVGID_81_);enable-background:new    ;}
	.st136{fill:url(#SVGID_82_);}
	.st137{fill:url(#SVGID_83_);}
	.st138{fill:url(#SVGID_84_);}
	.st139{fill:url(#SVGID_85_);}
	.st140{fill:url(#SVGID_86_);}
	.st141{fill:#03949D;}
	.st142{fill:#E84B33;}
	.st143{fill:url(#SVGID_87_);}
	.st144{fill:url(#SVGID_88_);}
	.st145{fill:url(#SVGID_89_);}
	.st146{fill:url(#SVGID_90_);}
	.st147{fill:url(#SVGID_91_);}
	.st148{fill:#F4A182;}
	.st149{fill:#0C5879;}
	.st150{fill:#FBCEAD;}
	.st151{fill:#FBCCA3;}
	.st152{fill:url(#SVGID_92_);}
	.st153{fill:url(#SVGID_93_);}
	.st154{fill:url(#SVGID_94_);}
	.st155{fill:url(#SVGID_95_);}
	.st156{fill:#03A86F;}
	.st157{fill:url(#SVGID_96_);}
	.st158{fill:url(#SVGID_97_);}
	.st159{fill:url(#SVGID_98_);}
	.st160{fill:url(#SVGID_99_);}
	.st161{fill:url(#SVGID_100_);}
	.st162{fill:url(#SVGID_101_);}
	.st163{fill:url(#SVGID_102_);}
	.st164{fill:#A5D2D9;}
	.st165{fill:url(#SVGID_103_);}
	.st166{fill:url(#SVGID_104_);}
	.st167{fill:url(#SVGID_105_);}
	.st168{fill:url(#SVGID_106_);}
	.st169{fill:url(#SVGID_107_);}
	.st170{fill:url(#SVGID_108_);}
	.st171{fill:url(#SVGID_109_);}
	.st172{fill:url(#SVGID_110_);}
	.st173{fill:url(#SVGID_111_);}
	.st174{fill:url(#SVGID_112_);}
	.st175{fill:url(#SVGID_113_);}
	.st176{fill:url(#SVGID_114_);}
	.st177{fill:url(#SVGID_115_);}
	.st178{fill:url(#SVGID_116_);}
	.st179{fill:url(#SVGID_117_);}
	.st180{fill:url(#SVGID_118_);}
	.st181{fill:#F6AD98;}
	.st182{fill:#7FBCD1;}
	.st183{fill:#F39886;}
	.st184{fill:url(#SVGID_119_);}
	.st185{fill:url(#SVGID_120_);}
	.st186{fill:url(#SVGID_121_);}
	.st187{fill:#07787F;}
	.st188{fill:url(#SVGID_122_);}
	.st189{fill:url(#SVGID_123_);}
	.st190{fill:url(#SVGID_124_);}
	.st191{fill:url(#SVGID_125_);}
	.st192{fill:url(#SVGID_126_);}
	.st193{fill:#F8AA3C;}
	.st194{fill:url(#SVGID_127_);}
	.st195{fill:url(#SVGID_128_);}
	.st196{fill:none;stroke:#5BB24C;stroke-width:3;stroke-linecap:round;stroke-miterlimit:10;}
	.st197{fill:none;stroke:#5BB24C;stroke-width:3;stroke-linecap:round;stroke-miterlimit:10;stroke-dasharray:11.9912,11.9912;}
	.st198{fill:none;stroke:#5BB24C;stroke-width:3;stroke-linecap:round;stroke-linejoin:round;stroke-miterlimit:10;}
	.st199{fill:url(#SVGID_129_);}
	.st200{fill:url(#SVGID_130_);}
	.st201{fill:url(#SVGID_131_);}
	.st202{fill:url(#SVGID_132_);}
	.st203{fill:url(#SVGID_133_);}
	.st204{fill:url(#SVGID_134_);}
	.st205{fill:url(#SVGID_135_);}
	.st206{fill:url(#SVGID_136_);}
	.st207{fill:url(#SVGID_137_);}
	.st208{fill:url(#SVGID_138_);}
	.st209{fill:url(#SVGID_139_);}
	.st210{opacity:0.4;}
	.st211{opacity:0.31;fill:#FAB95F;enable-background:new    ;}
	.st212{opacity:0.43;fill:#FAB95F;enable-background:new    ;}
	.st213{fill:url(#SVGID_140_);}
	.st214{fill:url(#SVGID_141_);}
	.st215{fill:url(#SVGID_142_);}
	.st216{fill:url(#SVGID_143_);}
	.st217{fill:url(#SVGID_144_);}
	.st218{fill:url(#SVGID_145_);}
	.st219{fill:url(#SVGID_146_);}
	.st220{fill:url(#SVGID_147_);}
	.st221{fill:url(#SVGID_148_);}
	.st222{fill:#FCDAC2;}
	.st223{fill:#EF7A5B;}
	.st224{fill:#77AFC6;}
	.st225{fill:#F1876F;}
	.st226{fill:#89B9CE;}
	.st227{fill:#FFD884;}
	.st228{fill:url(#SVGID_149_);}
	.st229{fill:url(#SVGID_150_);}
	.st230{fill:url(#SVGID_151_);}
	.st231{fill:url(#SVGID_152_);}
	.st232{fill:url(#SVGID_153_);}
	.st233{fill:url(#SVGID_154_);}
	.st234{fill:#FCD5B7;}
	.st235{fill:url(#SVGID_155_);}
	.st236{fill:url(#SVGID_156_);}
	.st237{fill:url(#SVGID_157_);}
	.st238{fill:url(#SVGID_158_);}
	.st239{fill:#F8BC9F;}
	.st240{fill:url(#SVGID_159_);}
	.st241{fill:url(#SVGID_160_);}
	.st242{fill:url(#SVGID_161_);}
	.st243{fill:url(#SVGID_162_);}
	.st244{fill:url(#SVGID_163_);}
	.st245{fill:url(#SVGID_164_);}
	.st246{fill:#F7B395;}
	.st247{fill:url(#SVGID_165_);}
	.st248{fill:url(#SVGID_166_);}
	.st249{fill:url(#SVGID_167_);}
	.st250{fill:url(#SVGID_168_);}
	.st251{fill:url(#SVGID_169_);}
	.st252{fill:url(#SVGID_170_);}
	.st253{fill:url(#SVGID_171_);}
	.st254{fill:url(#SVGID_172_);}
	.st255{fill:url(#SVGID_173_);}
	.st256{fill:url(#SVGID_174_);}
	.st257{fill:url(#SVGID_175_);}
	.st258{fill:url(#SVGID_176_);}
	.st259{fill:url(#SVGID_177_);}
	.st260{fill:url(#SVGID_178_);}
	.st261{fill:url(#SVGID_179_);}
	.st262{fill:url(#SVGID_180_);}
	.st263{fill:url(#SVGID_181_);}
	.st264{fill:url(#SVGID_182_);}
	.st265{fill:url(#SVGID_183_);}
	.st266{fill:url(#SVGID_184_);}
	.st267{fill:url(#SVGID_185_);}
	.st268{fill:url(#SVGID_186_);}
	.st269{fill:url(#SVGID_187_);}
	.st270{fill:url(#SVGID_188_);}
	.st271{fill:url(#SVGID_189_);}
	.st272{fill:url(#SVGID_190_);}
	.st273{fill:url(#SVGID_191_);}
	.st274{fill:url(#SVGID_192_);}
	.st275{fill:url(#SVGID_193_);}
	.st276{fill:url(#SVGID_194_);}
	.st277{fill:url(#SVGID_195_);}
	.st278{fill:url(#SVGID_196_);}
	.st279{fill:url(#SVGID_197_);}
	.st280{fill:#FCFEFF;}
	.st281{fill:#FCF4F2;}
	.st282{fill:url(#SVGID_198_);}
	.st283{fill:url(#SVGID_199_);}
	.st284{fill:url(#SVGID_200_);}
	.st285{fill:none;stroke:#43AE5D;stroke-width:2;stroke-linecap:round;stroke-miterlimit:10;}
	.st286{fill:url(#SVGID_201_);}
	.st287{fill:url(#SVGID_202_);}
	.st288{fill:url(#SVGID_203_);}
	.st289{fill:url(#SVGID_204_);}
	.st290{fill:url(#SVGID_205_);}
	.st291{fill:url(#SVGID_206_);}
	.st292{fill:#CEE9EF;}
	.st293{fill:url(#SVGID_207_);}
	.st294{fill:url(#SVGID_208_);}
	.st295{fill:url(#SVGID_209_);}
	.st296{fill:url(#SVGID_210_);}
	.st297{fill:url(#SVGID_211_);}
	.st298{fill:none;stroke:#5BB24C;stroke-width:3;stroke-linecap:round;stroke-miterlimit:10;stroke-dasharray:11.9199,11.9199;}
	.st299{fill:url(#SVGID_212_);}
	.st300{fill:url(#SVGID_213_);}
	.st301{fill:#F7FCFD;}
	.st302{fill:url(#SVGID_214_);}
	.st303{fill:url(#SVGID_215_);}
	.st304{fill:url(#SVGID_216_);}
	.st305{fill:url(#SVGID_217_);}
	.st306{fill:url(#SVGID_218_);}
	.st307{fill:url(#SVGID_219_);}
	.st308{fill:url(#SVGID_220_);}
	.st309{fill:url(#SVGID_221_);}
	.st310{fill:url(#SVGID_222_);}
	.st311{fill:url(#SVGID_223_);}
	.st312{fill:url(#SVGID_224_);}
	.st313{fill:url(#SVGID_225_);}
	.st314{fill:url(#SVGID_226_);}
	.st315{fill:url(#SVGID_227_);}
	.st316{fill:url(#SVGID_228_);}
	.st317{fill:url(#SVGID_229_);}
	.st318{fill:url(#SVGID_230_);}
	.st319{fill:url(#SVGID_231_);}
	.st320{fill:url(#SVGID_232_);}
	.st321{fill:url(#SVGID_233_);}
	.st322{fill:url(#SVGID_234_);}
	.st323{fill:url(#SVGID_235_);}
	.st324{fill:url(#SVGID_236_);}
	.st325{fill:url(#SVGID_237_);}
	.st326{fill:url(#SVGID_238_);}
	.st327{fill:url(#SVGID_239_);}
	.st328{fill:url(#SVGID_240_);}
	.st329{fill:url(#SVGID_241_);}
	.st330{fill:url(#SVGID_242_);}
	.st331{fill:url(#SVGID_243_);}
	.st332{fill:url(#SVGID_244_);}
	.st333{fill:url(#SVGID_245_);}
	.st334{fill:url(#SVGID_246_);}
	.st335{fill:url(#SVGID_247_);}
	.st336{fill:url(#SVGID_248_);}
	.st337{fill:url(#SVGID_249_);}
	.st338{fill:url(#SVGID_250_);}
	.st339{fill:url(#SVGID_251_);}
	.st340{fill:url(#SVGID_252_);}
	.st341{fill:url(#SVGID_253_);}
	.st342{fill:url(#SVGID_254_);}
	.st343{fill:url(#SVGID_255_);}
	.st344{fill:url(#SVGID_256_);}
	.st345{fill:url(#SVGID_257_);}
	.st346{fill:url(#SVGID_258_);}
	.st347{fill:url(#SVGID_259_);}
	.st348{fill:url(#SVGID_260_);}
	.st349{fill:url(#SVGID_261_);}
	.st350{fill:url(#SVGID_262_);}
	.st351{fill:url(#SVGID_263_);}
</style>
<path class="st92" d="M80.02,70.67L80.02,70.67c-1.78,1.78-4.66,1.78-6.44,0L43.22,40.31c-1.78-1.78-1.78-4.66,0-6.44l0,0
	c1.78-1.78,4.66-1.78,6.44,0l30.36,30.36C81.8,66.01,81.8,68.9,80.02,70.67z"/>
<path class="st92" d="M80.02,33.87L80.02,33.87c1.78,1.78,1.78,4.66,0,6.44L49.66,70.67c-1.78,1.78-4.66,1.78-6.44,0l0,0
	c-1.78-1.78-1.78-4.66,0-6.44l30.36-30.36C75.36,32.1,78.24,32.1,80.02,33.87z"/>
<path class="st92" d="M875.37,517.57L875.37,517.57c-1.35,1.35-3.53,1.35-4.88,0l-23-23c-1.35-1.35-1.35-3.53,0-4.88l0,0
	c1.35-1.35,3.53-1.35,4.88,0l23,23C876.72,514.04,876.72,516.22,875.37,517.57z"/>
<path class="st92" d="M875.37,489.69L875.37,489.69c1.35,1.35,1.35,3.53,0,4.88l-23,23c-1.35,1.35-3.53,1.35-4.88,0l0,0
	c-1.35-1.35-1.35-3.53,0-4.88l23-23C871.84,488.34,874.02,488.34,875.37,489.69z"/>
<g>
	<path class="st92" d="M811.94,81.24c-13.58,0-24.63-11.05-24.63-24.63s11.05-24.63,24.63-24.63s24.63,11.05,24.63,24.63
		S825.52,81.24,811.94,81.24z M811.94,39.94c-9.19,0-16.67,7.48-16.67,16.67s7.48,16.67,16.67,16.67s16.67-7.48,16.67-16.67
		S821.13,39.94,811.94,39.94z"/>
</g>
<linearGradient id="SVGID_1_" gradientUnits="userSpaceOnUse" x1="338.3737" y1="-1505.4866" x2="1432.1781" y2="-411.6821" gradientTransform="matrix(1 0 0 -1 0 -991.408)">
	<stop  offset="0" style="stop-color:#ECF6FB;stop-opacity:0.1"/>
	<stop  offset="0.0589" style="stop-color:#E7F4FA;stop-opacity:0.153"/>
	<stop  offset="0.3401" style="stop-color:#D9EEF4;stop-opacity:0.4061"/>
	<stop  offset="0.6423" style="stop-color:#D1EAF1;stop-opacity:0.6781"/>
	<stop  offset="1" style="stop-color:#CDE9F0"/>
</linearGradient>
<path class="st1" d="M830.54,567.03c35.03-121.76,3.3-187.27-50.29-259.68c15.59-29.36,24.43-62.92,24.43-98.57
	c0-115.31-92.49-208.8-206.58-208.8c-88.08,0-163.26,55.72-192.98,134.17c-75.06,5.42-144.78,30.34-204.23,69.77
	c-12.58-4.39-26.08-6.77-40.13-6.77c-67.94,0-123.02,55.67-123.02,124.34c0,19.7,4.54,38.32,12.6,54.87
	C22.45,433.9,4.36,549.86,37.41,567.02L830.54,567.03L830.54,567.03z"/>
<rect x="167.35" y="200.97" class="st0" width="551.73" height="348.52"/>
<g>
	<path class="st11" d="M86.83,141.49c-7.06,0-12.8-5.74-12.8-12.8c0-7.06,5.74-12.8,12.8-12.8s12.8,5.74,12.8,12.8
		S93.89,141.49,86.83,141.49z M86.83,121.62c-3.9,0-7.07,3.17-7.07,7.07s3.17,7.07,7.07,7.07s7.07-3.17,7.07-7.07
		C93.89,124.79,90.72,121.62,86.83,121.62z"/>
</g>
<circle class="st11" cx="733.51" cy="158.25" r="8.21"/>
<g>
	<path class="st33" d="M787.48,339.22c-12.07,0-21.88-9.82-21.88-21.88c0-12.07,9.82-21.88,21.88-21.88
		c12.07,0,21.88,9.82,21.88,21.88S799.55,339.22,787.48,339.22z M787.48,303.5c-7.63,0-13.83,6.21-13.83,13.83
		c0,7.63,6.21,13.84,13.83,13.84c7.63,0,13.84-6.21,13.84-13.84C801.31,309.71,795.11,303.5,787.48,303.5z"/>
</g>
<circle class="st33" cx="334.83" cy="62.99" r="4.72"/>
<circle class="st30" cx="515.3" cy="134.55" r="5.86"/>
<circle class="st9" cx="746.31" cy="447.17" r="6.74"/>
<path class="st30" d="M40.59,257.4L40.59,257.4c0,1.99-1.62,3.61-3.61,3.61H14.17c-1.99,0-3.61-1.62-3.61-3.61l0,0
	c0-1.99,1.62-3.61,3.61-3.61h22.82C38.98,253.79,40.59,255.41,40.59,257.4z"/>
<path class="st33" d="M654.53,58.56L654.53,58.56c0,2.3-1.86,4.16-4.16,4.16h-26.33c-2.3,0-4.16-1.86-4.16-4.16l0,0
	c0-2.3,1.86-4.16,4.16-4.16h26.33C652.67,54.4,654.53,56.26,654.53,58.56z"/>
<rect x="181.02" y="215.97" class="st23" width="524" height="333.52"/>
<path class="st44" d="M248.77,532.9h-36.01c-8.51,0-15.4-6.9-15.4-15.4v-36.01c0-8.51,6.9-15.4,15.4-15.4h36.01
	c8.51,0,15.4,6.9,15.4,15.4v36.01C264.17,525.99,257.28,532.9,248.77,532.9z"/>
<path class="st44" d="M328.36,453.84h-36.01c-8.51,0-15.4-6.9-15.4-15.4v-36.01c0-8.51,6.9-15.4,15.4-15.4h36.01
	c8.51,0,15.4,6.9,15.4,15.4v36.01C343.76,446.94,336.87,453.84,328.36,453.84z"/>
<path class="st44" d="M328.36,532.9h-36.01c-8.51,0-15.4-6.9-15.4-15.4v-36.01c0-8.51,6.9-15.4,15.4-15.4h36.01
	c8.51,0,15.4,6.9,15.4,15.4v36.01C343.76,525.99,336.87,532.9,328.36,532.9z"/>
<path class="st44" d="M405.99,373.81h-36.01c-8.51,0-15.4-6.9-15.4-15.4V322.4c0-8.51,6.9-15.4,15.4-15.4h36.01
	c8.51,0,15.4,6.9,15.4,15.4v36.01C421.39,366.91,414.49,373.81,405.99,373.81z"/>
<path class="st44" d="M405.99,452.86h-36.01c-8.51,0-15.4-6.9-15.4-15.4v-36.01c0-8.51,6.9-15.4,15.4-15.4h36.01
	c8.51,0,15.4,6.9,15.4,15.4v36.01C421.39,445.96,414.49,452.86,405.99,452.86z"/>
<path class="st44" d="M405.99,531.91h-36.01c-8.51,0-15.4-6.9-15.4-15.4V480.5c0-8.51,6.9-15.4,15.4-15.4h36.01
	c8.51,0,15.4,6.9,15.4,15.4v36.01C421.39,525.02,414.49,531.91,405.99,531.91z"/>
<path class="st44" d="M483.61,294.76H447.6c-8.51,0-15.4-6.9-15.4-15.4v-36.01c0-8.51,6.9-15.4,15.4-15.4h36.01
	c8.51,0,15.4,6.9,15.4,15.4v36.01C499.01,287.86,492.12,294.76,483.61,294.76z"/>
<rect x="167.13" y="542.59" class="st0" width="551.95" height="13.84"/>
<path class="st44" d="M483.61,373.81H447.6c-8.51,0-15.4-6.9-15.4-15.4V322.4c0-8.51,6.9-15.4,15.4-15.4h36.01
	c8.51,0,15.4,6.9,15.4,15.4v36.01C499.01,366.91,492.12,373.81,483.61,373.81z"/>
<path class="st44" d="M483.61,452.86H447.6c-8.51,0-15.4-6.9-15.4-15.4v-36.01c0-8.51,6.9-15.4,15.4-15.4h36.01
	c8.51,0,15.4,6.9,15.4,15.4v36.01C499.01,445.96,492.12,452.86,483.61,452.86z"/>
<path class="st44" d="M483.61,532.9H447.6c-8.51,0-15.4-6.9-15.4-15.4v-36.01c0-8.51,6.9-15.4,15.4-15.4h36.01
	c8.51,0,15.4,6.9,15.4,15.4v36.01C499.01,525.99,492.12,532.9,483.61,532.9z"/>
<path class="st33" d="M605.13,264.3v13.09c0,8.51-6.9,15.4-15.4,15.4h-36.01c-8.51,0-15.4-6.9-15.4-15.4v-36.01
	c0-8.51,6.9-15.4,15.4-15.4h13.09"/>
<path class="st33" d="M589.73,371.84h-36.01c-8.51,0-15.4-6.9-15.4-15.4v-36.01c0-8.51,6.9-15.4,15.4-15.4h36.01
	c8.51,0,15.4,6.9,15.4,15.4v36.01C605.13,364.94,598.24,371.84,589.73,371.84z"/>
<path class="st33" d="M589.73,450.89h-36.01c-8.51,0-15.4-6.9-15.4-15.4v-36.01c0-8.51,6.9-15.4,15.4-15.4h36.01
	c8.51,0,15.4,6.9,15.4,15.4v36.01C605.13,443.99,598.24,450.89,589.73,450.89z"/>
<path class="st33" d="M589.73,531.91h-36.01c-8.51,0-15.4-6.9-15.4-15.4V480.5c0-8.51,6.9-15.4,15.4-15.4h36.01
	c8.51,0,15.4,6.9,15.4,15.4v36.01C605.13,525.02,598.24,531.91,589.73,531.91z"/>
<path class="st33" d="M671.29,292.79h-36.01c-8.51,0-15.4-6.9-15.4-15.4v-36.01c0-8.51,6.9-15.4,15.4-15.4h36.01
	c8.51,0,15.4,6.9,15.4,15.4v36.01C686.69,285.89,679.79,292.79,671.29,292.79z"/>
<path class="st33" d="M671.29,371.84h-36.01c-8.51,0-15.4-6.9-15.4-15.4v-36.01c0-8.51,6.9-15.4,15.4-15.4h36.01
	c8.51,0,15.4,6.9,15.4,15.4v36.01C686.69,364.94,679.79,371.84,671.29,371.84z"/>
<path class="st33" d="M671.29,450.89h-36.01c-8.51,0-15.4-6.9-15.4-15.4v-36.01c0-8.51,6.9-15.4,15.4-15.4h36.01
	c8.51,0,15.4,6.9,15.4,15.4v36.01C686.69,443.99,679.79,450.89,671.29,450.89z"/>
<path class="st33" d="M671.29,531.91h-36.01c-8.51,0-15.4-6.9-15.4-15.4V480.5c0-8.51,6.9-15.4,15.4-15.4h36.01
	c8.51,0,15.4,6.9,15.4,15.4v36.01C686.69,525.02,679.79,531.91,671.29,531.91z"/>
<path class="st6" d="M605.13,264.97h-30.19c-4.87,0-8.81-3.95-8.81-8.81v-30.19"/>
<polygon class="st3" points="243.82,329.67 225.68,315.35 213.61,331.63 231.24,346.19 "/>
<circle class="st5" cx="132.93" cy="391.91" r="12.6"/>
<polygon class="st6" points="220.2,337.13 191.7,313.62 205.39,297.54 233.52,321.48 "/>
<linearGradient id="SVGID_2_" gradientUnits="userSpaceOnUse" x1="154.6409" y1="-1445.3862" x2="154.6409" y2="-1652.6763" gradientTransform="matrix(1 3.395446e-05 -3.396194e-05 -1.0138 0.0263 -980.5481)">
	<stop  offset="0" style="stop-color:#FFE9BF"/>
	<stop  offset="1" style="stop-color:#ED6E4F"/>
</linearGradient>
<polygon class="st8" points="193.09,556.42 116.46,556.52 116.34,507.63 192.97,507.44 "/>
<g>
	<path class="st5" d="M145.92,544.2l-23.09,0.06c-0.49,0-0.9-0.4-0.9-0.89s0.4-0.9,0.89-0.9l23.09-0.06c0.49,0,0.9,0.4,0.9,0.89
		C146.82,543.79,146.42,544.2,145.92,544.2z"/>
</g>
<g>
	<path class="st5" d="M136.08,549.47l-13.23,0.03c-0.49,0-0.9-0.4-0.9-0.89s0.4-0.9,0.89-0.9l13.23-0.03c0.49,0,0.9,0.4,0.9,0.89
		C136.97,549.07,136.57,549.47,136.08,549.47z"/>
</g>
<rect x="184.05" y="323.21" transform="matrix(0.0628 -0.998 0.998 0.0628 -150.4003 496.7777)" class="st5" width="10.52" height="10.52"/>
<circle class="st5" cx="206.51" cy="367.86" r="12.61"/>
<rect x="208.15" y="341.79" transform="matrix(0.7838 -0.621 0.621 0.7838 -169.6919 216.6689)" class="st3" width="36.38" height="20.53"/>
<circle class="st6" cx="197.36" cy="304.98" r="13.06"/>
<path class="st33" d="M139.98,380.69l62.03-8.73l5.6-65.8c0.67-7.87-8.24-13.81-18.55-12.36l-61,8.67
	c-10.52,1.48-17.38,9.83-14.19,17.27L139.98,380.69z"/>
<path class="st9" d="M145.76,408.25l49.76-5.27c2.34-0.17,8.94-12.66,8.78-15l-1.71-13.26c-0.17-2.34-3.02-7.35-5.37-7.18
	l-54.09,3.85c-2.34,0.17-4.11,2.2-3.94,4.54l2.02,28.37C141.38,406.65,143.42,408.41,145.76,408.25z"/>
<path class="st2" d="M217.51,414.55l10.61-20.67c0.6-1.16,0.14-2.58-1.02-3.18l-23.72-12.18c-1.16-0.6-2.58-0.14-3.18,1.02
	l-10.61,20.67c-0.6,1.16-0.14,2.58,1.02,3.18l23.72,12.18C215.5,416.17,216.92,415.71,217.51,414.55z"/>
<rect x="136.95" y="336.97" transform="matrix(0.9902 -0.1393 0.1393 0.9902 -48.0564 26.9255)" class="st9" width="62.73" height="39.56"/>
<rect x="138.93" y="373.5" transform="matrix(0.9902 -0.1393 0.1393 0.9902 -50.8256 27.4616)" class="st12" width="63.66" height="6.59"/>
<rect x="148.17" y="375.3" transform="matrix(0.9902 -0.1393 0.1393 0.9902 -51.3976 24.5627)" class="st9" width="3.19" height="8.27"/>
<path class="st2" d="M143.79,507.42h20.45c1.81,0,3.28-1.47,3.28-3.28v-56.93c0-1.81-1.47-3.28-3.28-3.28h-20.45
	c-1.81,0-3.28,1.47-3.28,3.28v56.93C140.5,505.95,141.97,507.42,143.79,507.42z"/>
<path class="st9" d="M143.07,449.27h21.89c1.42,0,2.57-1.15,2.57-2.57v-61.09c0-1.42-1.15-2.57-2.57-2.57l-21.41,4.27
	c-1.42,0-3.04-3.12-3.04-1.71v61.09C140.5,448.12,141.65,449.27,143.07,449.27z"/>
<path class="st2" d="M153.63,387.69l-13.64,0.41c0.35,11.49,0.63,20.8,0.63,20.8C148.15,408.68,153.98,399.18,153.63,387.69z"/>
<path class="st9" d="M220.98,466.02l20.17-3.36c1.79-0.3,3-1.99,2.7-3.78l-9.44-56.76c-0.3-1.79-1.99-3-3.78-2.7l-20.17,3.36
	c-1.79,0.3-3,1.99-2.7,3.78l9.44,56.76C217.5,465.11,219.2,466.31,220.98,466.02z"/>
<path class="st12" d="M167.78,504.65c-0.02-7.12-6.17-12.89-13.74-12.88s-13.69,5.79-13.67,12.91L167.78,504.65"/>
<polyline class="st2" points="167.79,507.55 140.38,507.58 140.37,504.65 167.78,504.62 "/>
<path class="st12" d="M248.36,463.07c-0.02-7.26-6.23-13.14-13.88-13.13s-13.83,5.9-13.81,13.17L248.36,463.07"/>
<polyline class="st9" points="248.36,466.04 220.66,466.07 220.66,463.09 248.35,463.05 "/>
<rect x="184.47" y="293.99" transform="matrix(0.9902 -0.1393 0.1393 0.9902 -42.0472 29.4391)" class="st9" width="9.6" height="42.19"/>
<circle class="st11" cx="162.62" cy="322.74" r="1.72"/>
<path class="st6" d="M171.31,323.43l9.08-1.28c0.98-0.14,1.66-1.04,1.52-2.02l0,0c-0.14-0.98-1.04-1.66-2.02-1.52l-9.08,1.28
	c-0.98,0.14-1.66,1.04-1.52,2.02l0,0C169.43,322.88,170.33,323.56,171.31,323.43z"/>
<path class="st2" d="M148.63,344.73c1.31,9.32,9.93,15.81,19.25,14.5s15.81-9.93,14.5-19.25"/>
<polygon class="st3" points="104.9,365.94 118.25,345.72 100.18,334.55 86.83,354.77 "/>
<polygon class="st33" points="114.86,351.01 137.74,315.13 113.27,314.56 97,339.23 "/>
<polygon class="st3" points="138.29,380.43 97.07,356.13 88.49,374.49 120.4,393.3 "/>
<circle class="st9" cx="220.24" cy="402.68" r="13.85"/>
<circle class="st9" cx="153.93" cy="445.76" r="13.42"/>
<circle class="st33" cx="125.31" cy="314.91" r="13.27"/>
<circle class="st3" cx="95.2" cy="364.16" r="12.6"/>
<rect x="131.96" y="301.42" transform="matrix(0.9902 -0.1393 0.1393 0.9902 -43.6917 22.2524)" class="st9" width="10.3" height="43.62"/>
<circle class="st11" cx="163.77" cy="330.94" r="1.72"/>
<rect x="187.44" y="370.09" transform="matrix(0.9902 -0.1393 0.1393 0.9902 -50.2397 29.9794)" class="st9" width="3.19" height="7.56"/>
<rect x="170.62" y="515.23" transform="matrix(1 -2.464625e-03 2.464625e-03 1 -1.2848 0.4376)" class="st5" width="12.55" height="12.55"/>
<rect x="163.22" y="373.52" transform="matrix(0.9902 -0.1393 0.1393 0.9902 -50.836 27.3855)" class="st13" width="13.97" height="6.62"/>
<circle class="st3" cx="237.6" cy="340.22" r="12.6"/>
<path class="st5" d="M160.23,309.49L160.23,309.49c-5.03,0.85-9.79-2.53-10.64-7.56l-2.26-13.34c-0.85-5.03,2.53-9.79,7.56-10.64
	l0,0c5.03-0.85,9.79,2.53,10.64,7.56l2.26,13.34C168.65,303.88,165.26,308.64,160.23,309.49z"/>
<path class="st3" d="M169.8,266.59l-4.24-11.71c-3.61-11.88-8.47-14.04-15.41-12.69l-4.01,0.78c-6.94,1.34-15.74,8.24-13.84,18.35
	l4.34,23.12c1.42,7.52,8.19,12.53,15.13,11.18l11.9-2.3c0.1-0.02,0.19-0.05,0.28-0.07c6.76-0.76,12.24-6.23,12.76-13.26
	C177.12,274.39,174.28,269.32,169.8,266.59z"/>
<path class="st95" d="M148.69,262.35c1.18-0.35,1.09-2.08-0.12-2.29c-1.26-0.21-2.6,0.07-3.71,0.88c-1.11,0.82-1.78,2.01-1.95,3.27
	c-0.17,1.22,1.46,1.82,2.15,0.8C145.95,263.7,147.16,262.81,148.69,262.35z"/>
<path class="st95" d="M163.62,260.26c1.08,0.58,2.25-0.7,1.53-1.7c-0.74-1.04-1.89-1.79-3.25-2c-1.36-0.21-2.68,0.17-3.69,0.94
	c-0.98,0.74-0.25,2.32,0.95,2.08C160.73,259.28,162.21,259.51,163.62,260.26z"/>
<ellipse transform="matrix(0.0738 -0.9973 0.9973 0.0738 -147.6384 386.8304)" class="st3" cx="134.44" cy="272.9" rx="5.61" ry="5.56"/>
<ellipse transform="matrix(0.0738 -0.9973 0.9973 0.0738 -147.23 388.7719)" class="st5" cx="135.69" cy="273.65" rx="2.3" ry="2.27"/>
<path class="st38" d="M147.29,269.55c1.53,1.77,5.65,2.05,5.91-1.39c0.09-1.24-0.63-1.69-1.16-0.8c-0.86,1.46-1.74,1.96-4.27,0.88
	C147.04,267.92,146.81,268.99,147.29,269.55z"/>
<path class="st5" d="M156.55,273.16c-0.56-1.85,0.78-3.02,2.44-2.02c1.78,1.07,3.62,2.44,3.14,3.33c-0.87,1.63-3.35,2.37-4.07,1.95
	C157.73,276.22,157.03,274.74,156.55,273.16z"/>
<path class="st38" d="M159.57,267.02c1.53,1.77,5.65,2.05,5.91-1.39c0.09-1.24-0.63-1.69-1.16-0.8c-0.86,1.46-1.74,1.96-4.27,0.88
	C159.32,265.4,159.09,266.46,159.57,267.02z"/>
<linearGradient id="SVGID_3_" gradientUnits="userSpaceOnUse" x1="-5097.8032" y1="-1858.7964" x2="-5089.063" y2="-1858.7964" gradientTransform="matrix(-0.9845 0.1754 -0.1754 -0.9845 -5204.5225 -679.4087)">
	<stop  offset="0" style="stop-color:#0C5879"/>
	<stop  offset="1" style="stop-color:#3B85A9"/>
</linearGradient>
<path class="st10" d="M133.39,267.39L133.39,267.39c3.43-0.62,7.69-6.49,7.08-9.95l-1.84-10.47l-6.92,10.62L133.39,267.39z"/>
<linearGradient id="SVGID_4_" gradientUnits="userSpaceOnUse" x1="489.5545" y1="2044.7759" x2="487.4213" y2="2016.7405" gradientTransform="matrix(0.9353 0.3538 -0.3538 0.9353 423.9302 -1824.0446)">
	<stop  offset="0" style="stop-color:#1D627E"/>
	<stop  offset="1" style="stop-color:#6495B4"/>
</linearGradient>
<path class="st14" d="M168.28,252.9c0.9,3.94-5.6,5.69-9.35,4.25c-3.75-1.43-5.64-5.66-4.22-9.44
	C154.71,247.7,167.75,250.57,168.28,252.9z"/>
<path class="st33" d="M131.71,257.58c-1.53-8.14,5.16-16.27,13.31-17.84c9.1-1.75,16.97,2.28,18.93,10.54L131.71,257.58z"/>
<linearGradient id="SVGID_5_" gradientUnits="userSpaceOnUse" x1="-5363.1411" y1="-1571.7408" x2="-5364.4028" y2="-1588.3217" gradientTransform="matrix(-0.9974 0.0717 -0.0717 -0.9974 -5315.499 -939.8489)">
	<stop  offset="0" style="stop-color:#0C5879"/>
	<stop  offset="1" style="stop-color:#3B85A9"/>
</linearGradient>
<path class="st15" d="M142.93,251.29l9.26-1.9c0.91-0.19,1.5-1.07,1.32-1.99l-0.18-0.88c-0.18-0.92-1.08-1.51-2-1.32l-9.26,1.9
	c-0.91,0.19-1.5,1.07-1.32,1.99l0.18,0.88C141.11,250.88,142.01,251.48,142.93,251.29z"/>
<circle class="st33" cx="144.49" cy="241.12" r="2.68"/>
<path class="st6" d="M155.68,252.14c0,0-16.28,14.33-29.1,13.38c-9.03-0.67,5.13-7.94,5.13-7.94L155.68,252.14z"/>
<g>
	<path class="st99" d="M146.36,278.21c-0.57-0.35-1.18,0.36-0.74,0.87c1.72,1.99,4.07,3.46,6.83,4.08s5.51,0.28,7.92-0.78
		c0.61-0.27,0.36-1.18-0.3-1.1c-2.31,0.27-4.71,0.17-7.11-0.37C150.55,280.36,148.33,279.44,146.36,278.21z"/>
</g>
<path class="st5" d="M152.46,285.39c0.63-0.21,1.81,1.3,5.29,0.11c1.46-0.5,0.18,4.43-2.49,4.37S151.27,285.8,152.46,285.39z"/>
<path class="st6" d="M148.73,297l10.85,12.66l-2.57,5.87c-0.62,1.42-2.55,1.6-3.43,0.33l-10.98-15.48L148.73,297z"/>
<path class="st6" d="M167.19,294.85l-7.61,14.83l3.86,5.11c0.93,1.23,2.86,0.97,3.42-0.48l7.07-18.37L167.19,294.85z"/>
<path class="st30" d="M25.58,242.38L25.58,242.38c1.99,0,3.61,1.62,3.61,3.61v22.82c0,1.99-1.62,3.61-3.61,3.61l0,0
	c-1.99,0-3.61-1.62-3.61-3.61v-22.82C21.97,244,23.58,242.38,25.58,242.38z"/>
<path class="st33" d="M637.2,41.23L637.2,41.23c2.3,0,4.16,1.86,4.16,4.16v26.33c0,2.3-1.86,4.16-4.16,4.16l0,0
	c-2.3,0-4.16-1.86-4.16-4.16V45.4C633.04,43.1,634.9,41.23,637.2,41.23z"/>
<path class="st44" d="M328.36,371.84h-36.01c-8.51,0-15.4-6.9-15.4-15.4v-36.01c0-8.51,6.9-15.4,15.4-15.4h36.01
	c8.51,0,15.4,6.9,15.4,15.4v36.01C343.76,364.94,336.87,371.84,328.36,371.84z"/>
<path class="st44" d="M405.99,293.41h-36.01c-8.51,0-15.4-6.9-15.4-15.4v-36.01c0-8.51,6.9-15.4,15.4-15.4h36.01
	c8.51,0,15.4,6.9,15.4,15.4v36.01C421.39,286.51,414.49,293.41,405.99,293.41z"/>
<path class="st44" d="M328.36,293.41h-36.01c-8.51,0-15.4-6.9-15.4-15.4v-36.01c0-8.51,6.9-15.4,15.4-15.4h36.01
	c8.51,0,15.4,6.9,15.4,15.4v36.01C343.76,286.51,336.87,293.41,328.36,293.41z"/>
<path class="st33" d="M349.4,156.18H245.92c-24.11,0-43.66,19.55-43.66,43.66l0,0c0,1.2,0.06,2.39,0.16,3.56l-0.01-0.01v54.44
	c0,3.71,3.94,6.09,7.22,4.38l34.75-18.16c0.71-0.37,1.48-0.56,2.28-0.56c10.78,0,102.74,0.01,102.74,0.01
	c24.11,0,43.66-19.55,43.66-43.66l0,0C393.06,175.73,373.51,156.18,349.4,156.18z"/>
<g>
	<path class="st41" d="M268.13,209.74l2.98-3.82c1.85,1.94,4.79,3.07,7.4,3.07c3.26,0,5.07-1.4,5.08-3.41c0-2.13-1.65-3.1-5.39-3.11
		c-1.13,0-2.94,0.04-3.34,0.08l0.01-5.15c0.48,0.04,2.33,0.04,3.34,0.05c2.98,0,4.95-0.88,4.96-2.85c0-2.13-2.17-3.18-4.99-3.19
		c-2.58,0-4.91,0.96-6.81,2.77l-2.85-3.59c2.18-2.45,5.56-4.26,10.27-4.25c6.28,0.01,10.14,2.83,10.13,7.3
		c-0.01,3.38-2.91,5.59-5.89,6.11c2.74,0.29,6.28,2.42,6.27,6.45c-0.01,4.63-4.16,7.88-10.6,7.87
		C273.76,214.05,270.1,212.16,268.13,209.74z"/>
	<path class="st41" d="M292.34,200.19c0.01-6.92,3.44-13.84,11.13-13.83c7.65,0.01,11.1,6.94,11.09,13.86
		c-0.01,6.92-3.48,13.88-11.13,13.87C295.74,214.09,292.33,207.12,292.34,200.19z M308.73,200.22c0.01-4.95-1.44-8.78-5.26-8.78
		c-3.86-0.01-5.32,3.82-5.33,8.77c-0.01,4.95,1.44,8.82,5.3,8.82C307.26,209.03,308.72,205.17,308.73,200.22z"/>
</g>
<path class="st41" d="M259.85,205.2l-14.9-0.02c-0.51,0-0.91-0.41-0.91-0.92v-2.88c0-0.51,0.41-0.91,0.92-0.91l14.9,0.02
	c0.51,0,0.91,0.41,0.91,0.92v2.88C260.76,204.79,260.35,205.2,259.85,205.2z"/>
<circle class="st41" cx="325.11" cy="192.51" r="5.72"/>
<circle class="st41" cx="343.28" cy="208.29" r="5.72"/>
<path class="st41" d="M346.49,190.39l-23.44,23.37c-0.36,0.36-0.94,0.36-1.29,0l-1.7-1.7c-0.36-0.36-0.36-0.94,0-1.29l23.44-23.37
	c0.36-0.36,0.94-0.36,1.29,0l1.7,1.7C346.85,189.45,346.85,190.03,346.49,190.39z"/>
<path class="st44" d="M142.66,287.35c0.11-0.67,0.16-1.37,0.14-2.07c-0.07-2.8-1.3-4.99-2.74-7.31c-2.43-3.79-6.52-11.28-6.52-11.28
	l0.49-0.24c2.78,3.83,4.6,7,6.28,8.83c2.24,2.5,5.26,2.52,5.75,2.5c17.6-1.09,26.76-6.59,27.37-8.29c2.58,2.67,3.71,6.59,3.39,10.59
	c-0.58,7.13-6.17,12.64-13.04,13.36c-0.1,0.02-0.19,0.05-0.28,0.07l-12.08,2.25c-3.88,0.72-7.7-0.52-10.57-3.05l0,0
	c0,0-4.95-4.82-5.21-15.06c0,0,0.98,6.31,3.53,10.26C141.55,291.59,142.54,287.86,142.66,287.35z"/>
<path class="st23" d="M147.22,284.78c-0.03-1.19-0.28-2.32-0.72-3.35c-0.49-1.17,0.34-2.47,1.61-2.45
	c12.65,0.15,19.88-3.61,22.73-5.8c0.85-0.65,2.09-0.47,2.63,0.45c1.18,1.99,1.66,4.43,1.46,6.92c-0.47,5.81-5.03,10.3-10.62,10.89
	c-0.08,0.02-0.15,0.04-0.23,0.06l-9.85,1.83c-2.64,0.49-5.24-0.13-7.39-1.55c-0.83-0.54-1.1-1.64-0.65-2.52
	C146.89,287.92,147.26,286.39,147.22,284.78z"/>
<path class="st44" d="M153.98,281.1c6.02,0.07,10.25-1.74,12.84-3.3c0.55-0.33,1.12,0.4,0.67,0.85c-1.99,2-4.99,4.22-8.46,4.13
	c-2.09-0.06-3.81-0.3-5.18-0.6C153.2,282.04,153.32,281.09,153.98,281.1z"/>
<path class="st44" d="M153.98,286.15c7.49,0.45,12.37-1.86,15.14-3.88c0.52-0.38,1.17,0.26,0.8,0.78c-2.24,3.1-6.22,6.94-11.65,5.86
	c-1.98-0.39-3.48-0.79-4.61-1.17C152.75,287.45,153.02,286.09,153.98,286.15z"/>
</svg>
