<?xml version="1.0" encoding="utf-8"?>
<!-- Generator: Adobe Illustrator 23.1.0, SVG Export Plug-In . SVG Version: 6.00 Build 0)  -->
<svg version="1.1" id="Layer_1" xmlns="http://www.w3.org/2000/svg" xmlns:xlink="http://www.w3.org/1999/xlink" x="0px" y="0px"
	 viewBox="0 0 910 567" style="enable-background:new 0 0 910 567;" xml:space="preserve">
<style type="text/css">
	.st0{fill:#C4E5ED;}
	.st1{fill:url(#SVGID_1_);}
	.st2{fill:#4195B7;}
	.st3{fill:#FCD3B5;}
	.st4{fill:#008F7F;}
	.st5{fill:#F7B394;}
	.st6{fill:#37A539;}
	.st7{fill:#43AE5D;}
	.st8{fill:url(#SVGID_2_);}
	.st9{fill:#62A4C0;}
	.st10{fill:url(#SVGID_3_);}
	.st11{fill:#FAB95F;}
	.st12{fill:#1D627E;}
	.st13{fill:#C7E6EE;}
	.st14{fill:url(#SVGID_4_);}
	.st15{fill:url(#SVGID_5_);}
	.st16{fill:url(#SVGID_6_);}
	.st17{fill:url(#SVGID_7_);}
	.st18{fill:url(#SVGID_8_);}
	.st19{fill:url(#SVGID_9_);}
	.st20{fill:#F8C671;}
	.st21{fill:url(#SVGID_10_);}
	.st22{fill:#AFD7DD;}
	.st23{fill:#EFF7FB;}
	.st24{fill:url(#SVGID_11_);}
	.st25{fill:url(#SVGID_12_);}
	.st26{fill:url(#SVGID_13_);}
	.st27{fill:url(#SVGID_14_);}
	.st28{fill:url(#SVGID_15_);}
	.st29{fill:url(#SVGID_16_);}
	.st30{fill:#EC6743;}
	.st31{fill:url(#SVGID_17_);}
	.st32{fill:url(#SVGID_18_);}
	.st33{fill:#5BB24C;}
	.st34{fill:url(#SVGID_19_);}
	.st35{fill:url(#SVGID_20_);}
	.st36{fill:url(#SVGID_21_);}
	.st37{fill:#F18675;}
	.st38{fill:#046B89;}
	.st39{fill:#EA5539;}
	.st40{fill:#E62555;}
	.st41{fill:#FFFFFF;}
	.st42{fill:none;}
	.st43{fill:#D0EAF3;}
	.st44{fill:url(#SVGID_22_);}
	.st45{fill:#D6EDF4;}
	.st46{fill:url(#SVGID_23_);}
	.st47{fill:url(#SVGID_24_);}
	.st48{fill:url(#SVGID_25_);}
	.st49{fill:#FAB755;}
	.st50{fill:#EC6544;}
	.st51{fill:#83B0C7;}
	.st52{fill:#A8DAE3;}
	.st53{fill:#04617B;}
	.st54{fill:url(#SVGID_26_);}
	.st55{fill:url(#SVGID_27_);}
	.st56{fill:#FCD4B7;}
	.st57{fill:url(#SVGID_28_);}
	.st58{fill:url(#SVGID_29_);}
	.st59{fill:#4093B6;}
	.st60{fill:#FAB854;}
	.st61{fill:url(#SVGID_30_);}
	.st62{fill:url(#SVGID_31_);}
	.st63{fill:url(#SVGID_32_);}
	.st64{fill:#FFF5E9;}
	.st65{fill:url(#SVGID_33_);}
	.st66{fill:url(#SVGID_34_);}
	.st67{fill:url(#SVGID_35_);}
	.st68{fill:url(#SVGID_36_);}
	.st69{fill:url(#SVGID_37_);}
	.st70{fill:url(#SVGID_38_);}
	.st71{fill:url(#SVGID_39_);}
	.st72{fill:#1B5A6F;}
	.st73{fill:url(#SVGID_40_);}
	.st74{fill:url(#SVGID_41_);}
	.st75{fill:url(#SVGID_42_);}
	.st76{fill:#065E79;}
	.st77{fill:url(#SVGID_43_);}
	.st78{fill:url(#SVGID_44_);}
	.st79{fill:#FDCE6A;}
	.st80{opacity:0.11;fill:#FFFFFF;enable-background:new    ;}
	.st81{opacity:0.42;fill:#EFF7FB;enable-background:new    ;}
	.st82{fill:none;stroke:#D0EAF3;stroke-width:2;stroke-linecap:round;stroke-miterlimit:10;}
	.st83{opacity:0.7;fill:#D0EAF3;enable-background:new    ;}
	.st84{opacity:0.7;fill:#C4E5ED;enable-background:new    ;}
	.st85{opacity:0.73;fill:#EFF7FB;enable-background:new    ;}
	.st86{fill:#D9EEF4;}
	.st87{fill:#CDE9F0;}
	.st88{fill:url(#SVGID_45_);}
	.st89{fill:url(#SVGID_46_);}
	.st90{fill:#3B85A9;}
	.st91{fill:url(#SVGID_47_);}
	.st92{fill:url(#SVGID_48_);}
	.st93{fill:url(#SVGID_49_);}
	.st94{fill:#F18775;}
	.st95{fill:url(#SVGID_50_);}
	.st96{fill:url(#SVGID_51_);}
	.st97{fill:url(#SVGID_52_);}
	.st98{fill:#4FB26D;}
	.st99{fill:url(#SVGID_53_);}
	.st100{fill:url(#SVGID_54_);}
	.st101{fill:url(#SVGID_55_);}
	.st102{fill:url(#SVGID_56_);}
	.st103{fill:url(#SVGID_57_);}
	.st104{fill:url(#SVGID_58_);}
	.st105{fill:url(#SVGID_59_);}
	.st106{fill:#F49C7E;}
	.st107{fill:url(#SVGID_60_);}
	.st108{fill:url(#SVGID_61_);}
	.st109{fill:#FED377;}
	.st110{fill:url(#SVGID_62_);}
	.st111{fill:url(#SVGID_63_);}
	.st112{fill:#124657;}
	.st113{opacity:0.19;fill:#FFFFFF;enable-background:new    ;}
	.st114{fill:#F7F9F9;}
	.st115{fill:url(#SVGID_64_);}
	.st116{fill:url(#SVGID_65_);}
	.st117{fill:url(#SVGID_66_);}
	.st118{fill:url(#SVGID_67_);}
	.st119{fill:#D9EEF3;}
	.st120{fill:url(#SVGID_68_);}
	.st121{fill:url(#SVGID_69_);}
	.st122{fill:#FAFDFF;}
	.st123{fill:url(#SVGID_70_);}
	.st124{fill:url(#SVGID_71_);}
	.st125{fill:url(#SVGID_72_);}
	.st126{opacity:0.68;fill:url(#SVGID_73_);enable-background:new    ;}
	.st127{fill:url(#SVGID_74_);}
	.st128{opacity:0.68;fill:url(#SVGID_75_);enable-background:new    ;}
	.st129{fill:url(#SVGID_76_);}
	.st130{opacity:0.68;fill:url(#SVGID_77_);enable-background:new    ;}
	.st131{fill:url(#SVGID_78_);}
	.st132{fill:url(#SVGID_79_);}
	.st133{fill:url(#SVGID_80_);}
	.st134{fill:url(#SVGID_81_);}
	.st135{fill:url(#SVGID_82_);}
	.st136{fill:#03949D;}
	.st137{fill:#E84B33;}
	.st138{fill:url(#SVGID_83_);}
	.st139{fill:url(#SVGID_84_);}
	.st140{fill:url(#SVGID_85_);}
	.st141{fill:url(#SVGID_86_);}
	.st142{fill:url(#SVGID_87_);}
	.st143{fill:#F4A182;}
	.st144{fill:#0C5879;}
	.st145{fill:#FBCEAD;}
	.st146{fill:#FBCCA3;}
	.st147{fill:url(#SVGID_88_);}
	.st148{fill:url(#SVGID_89_);}
	.st149{fill:url(#SVGID_90_);}
	.st150{fill:url(#SVGID_91_);}
	.st151{fill:#03A86F;}
	.st152{fill:url(#SVGID_92_);}
	.st153{fill:url(#SVGID_93_);}
	.st154{fill:url(#SVGID_94_);}
	.st155{fill:url(#SVGID_95_);}
	.st156{fill:url(#SVGID_96_);}
	.st157{fill:url(#SVGID_97_);}
	.st158{fill:url(#SVGID_98_);}
	.st159{fill:#A5D2D9;}
	.st160{fill:url(#SVGID_99_);}
	.st161{fill:url(#SVGID_100_);}
	.st162{fill:url(#SVGID_101_);}
	.st163{fill:url(#SVGID_102_);}
	.st164{fill:url(#SVGID_103_);}
	.st165{fill:url(#SVGID_104_);}
	.st166{fill:#F6AD98;}
	.st167{fill:#7FBCD1;}
	.st168{fill:#F39886;}
	.st169{fill:url(#SVGID_105_);}
	.st170{fill:url(#SVGID_106_);}
	.st171{fill:url(#SVGID_107_);}
	.st172{fill:#07787F;}
	.st173{fill:url(#SVGID_108_);}
	.st174{fill:url(#SVGID_109_);}
	.st175{fill:url(#SVGID_110_);}
	.st176{fill:url(#SVGID_111_);}
	.st177{fill:url(#SVGID_112_);}
	.st178{fill:#F8AA3C;}
	.st179{fill:url(#SVGID_113_);}
	.st180{fill:url(#SVGID_114_);}
	.st181{fill:none;stroke:#5BB24C;stroke-width:3;stroke-linecap:round;stroke-miterlimit:10;}
	.st182{fill:none;stroke:#5BB24C;stroke-width:3;stroke-linecap:round;stroke-miterlimit:10;stroke-dasharray:11.9912,11.9912;}
	.st183{fill:none;stroke:#5BB24C;stroke-width:3;stroke-linecap:round;stroke-linejoin:round;stroke-miterlimit:10;}
	.st184{fill:url(#SVGID_115_);}
	.st185{fill:url(#SVGID_116_);}
	.st186{fill:url(#SVGID_117_);}
	.st187{fill:url(#SVGID_118_);}
	.st188{fill:url(#SVGID_119_);}
	.st189{fill:url(#SVGID_120_);}
	.st190{fill:url(#SVGID_121_);}
	.st191{fill:url(#SVGID_122_);}
	.st192{fill:url(#SVGID_123_);}
	.st193{fill:url(#SVGID_124_);}
	.st194{fill:url(#SVGID_125_);}
	.st195{opacity:0.4;}
	.st196{opacity:0.31;fill:#FAB95F;enable-background:new    ;}
	.st197{opacity:0.43;fill:#FAB95F;enable-background:new    ;}
	.st198{fill:url(#SVGID_126_);}
	.st199{fill:url(#SVGID_127_);}
	.st200{fill:url(#SVGID_128_);}
	.st201{fill:url(#SVGID_129_);}
	.st202{fill:url(#SVGID_130_);}
	.st203{fill:url(#SVGID_131_);}
	.st204{fill:url(#SVGID_132_);}
	.st205{fill:url(#SVGID_133_);}
	.st206{fill:url(#SVGID_134_);}
	.st207{fill:#FCDAC2;}
	.st208{fill:#EF7A5B;}
	.st209{fill:#77AFC6;}
	.st210{fill:#F1876F;}
	.st211{fill:#89B9CE;}
	.st212{fill:#FFD884;}
	.st213{fill:url(#SVGID_135_);}
	.st214{fill:url(#SVGID_136_);}
	.st215{fill:url(#SVGID_137_);}
	.st216{fill:url(#SVGID_138_);}
	.st217{fill:url(#SVGID_139_);}
	.st218{fill:url(#SVGID_140_);}
	.st219{fill:#FCD5B7;}
	.st220{fill:url(#SVGID_141_);}
	.st221{fill:url(#SVGID_142_);}
	.st222{fill:url(#SVGID_143_);}
	.st223{fill:url(#SVGID_144_);}
	.st224{fill:#F8BC9F;}
	.st225{fill:url(#SVGID_145_);}
	.st226{fill:url(#SVGID_146_);}
	.st227{fill:url(#SVGID_147_);}
	.st228{fill:url(#SVGID_148_);}
	.st229{fill:url(#SVGID_149_);}
	.st230{fill:url(#SVGID_150_);}
	.st231{fill:#F7B395;}
	.st232{fill:url(#SVGID_151_);}
	.st233{fill:url(#SVGID_152_);}
	.st234{fill:url(#SVGID_153_);}
	.st235{fill:url(#SVGID_154_);}
	.st236{fill:url(#SVGID_155_);}
	.st237{fill:url(#SVGID_156_);}
	.st238{fill:url(#SVGID_157_);}
	.st239{fill:url(#SVGID_158_);}
	.st240{fill:url(#SVGID_159_);}
	.st241{fill:url(#SVGID_160_);}
	.st242{fill:url(#SVGID_161_);}
	.st243{fill:url(#SVGID_162_);}
	.st244{fill:url(#SVGID_163_);}
	.st245{fill:url(#SVGID_164_);}
	.st246{fill:url(#SVGID_165_);}
	.st247{fill:url(#SVGID_166_);}
	.st248{fill:url(#SVGID_167_);}
	.st249{fill:url(#SVGID_168_);}
	.st250{fill:url(#SVGID_169_);}
	.st251{fill:url(#SVGID_170_);}
	.st252{fill:url(#SVGID_171_);}
	.st253{fill:url(#SVGID_172_);}
	.st254{fill:url(#SVGID_173_);}
	.st255{fill:url(#SVGID_174_);}
	.st256{fill:url(#SVGID_175_);}
	.st257{fill:url(#SVGID_176_);}
	.st258{fill:url(#SVGID_177_);}
	.st259{fill:url(#SVGID_178_);}
	.st260{fill:url(#SVGID_179_);}
	.st261{fill:url(#SVGID_180_);}
	.st262{fill:url(#SVGID_181_);}
	.st263{fill:url(#SVGID_182_);}
	.st264{fill:url(#SVGID_183_);}
	.st265{fill:#FCFEFF;}
	.st266{fill:#FCF4F2;}
	.st267{fill:url(#SVGID_184_);}
	.st268{fill:url(#SVGID_185_);}
	.st269{fill:url(#SVGID_186_);}
	.st270{fill:none;stroke:#43AE5D;stroke-width:2;stroke-linecap:round;stroke-miterlimit:10;}
	.st271{fill:url(#SVGID_187_);}
	.st272{fill:url(#SVGID_188_);}
	.st273{fill:url(#SVGID_189_);}
	.st274{fill:url(#SVGID_190_);}
	.st275{fill:url(#SVGID_191_);}
	.st276{fill:url(#SVGID_192_);}
	.st277{fill:#CEE9EF;}
	.st278{fill:url(#SVGID_193_);}
	.st279{fill:url(#SVGID_194_);}
	.st280{fill:url(#SVGID_195_);}
	.st281{fill:url(#SVGID_196_);}
	.st282{fill:url(#SVGID_197_);}
	.st283{fill:none;stroke:#5BB24C;stroke-width:3;stroke-linecap:round;stroke-miterlimit:10;stroke-dasharray:11.9199,11.9199;}
	.st284{fill:url(#SVGID_198_);}
	.st285{fill:url(#SVGID_199_);}
	.st286{fill:#F7FCFD;}
	.st287{fill:url(#SVGID_200_);}
	.st288{fill:url(#SVGID_201_);}
	.st289{fill:url(#SVGID_202_);}
	.st290{fill:url(#SVGID_203_);}
	.st291{fill:url(#SVGID_204_);}
	.st292{fill:url(#SVGID_205_);}
	.st293{fill:url(#SVGID_206_);}
	.st294{fill:url(#SVGID_207_);}
	.st295{fill:url(#SVGID_208_);}
	.st296{fill:url(#SVGID_209_);}
	.st297{fill:url(#SVGID_210_);}
	.st298{fill:url(#SVGID_211_);}
	.st299{fill:url(#SVGID_212_);}
	.st300{fill:url(#SVGID_213_);}
	.st301{fill:url(#SVGID_214_);}
	.st302{fill:url(#SVGID_215_);}
	.st303{fill:url(#SVGID_216_);}
	.st304{fill:url(#SVGID_217_);}
	.st305{fill:url(#SVGID_218_);}
	.st306{fill:url(#SVGID_219_);}
	.st307{fill:url(#SVGID_220_);}
	.st308{fill:url(#SVGID_221_);}
	.st309{fill:url(#SVGID_222_);}
	.st310{fill:url(#SVGID_223_);}
	.st311{fill:url(#SVGID_224_);}
	.st312{fill:url(#SVGID_225_);}
	.st313{fill:url(#SVGID_226_);}
	.st314{fill:url(#SVGID_227_);}
	.st315{fill:url(#SVGID_228_);}
	.st316{fill:url(#SVGID_229_);}
	.st317{fill:url(#SVGID_230_);}
	.st318{fill:url(#SVGID_231_);}
	.st319{fill:url(#SVGID_232_);}
	.st320{fill:url(#SVGID_233_);}
	.st321{fill:url(#SVGID_234_);}
	.st322{fill:url(#SVGID_235_);}
	.st323{fill:url(#SVGID_236_);}
	.st324{fill:url(#SVGID_237_);}
	.st325{fill:url(#SVGID_238_);}
	.st326{fill:url(#SVGID_239_);}
	.st327{fill:url(#SVGID_240_);}
	.st328{fill:url(#SVGID_241_);}
	.st329{fill:url(#SVGID_242_);}
	.st330{fill:url(#SVGID_243_);}
	.st331{fill:url(#SVGID_244_);}
	.st332{fill:url(#SVGID_245_);}
	.st333{fill:url(#SVGID_246_);}
	.st334{fill:url(#SVGID_247_);}
	.st335{fill:url(#SVGID_248_);}
	.st336{fill:url(#SVGID_249_);}
	.st337{fill:#58B14B;}
	.st338{fill:url(#SVGID_250_);}
	.st339{fill:url(#SVGID_251_);}
	.st340{fill:#FAB853;}
	.st341{fill:url(#SVGID_252_);}
	.st342{fill:url(#SVGID_253_);}
	.st343{fill:url(#SVGID_254_);}
	.st344{fill:url(#SVGID_255_);}
	.st345{fill:url(#SVGID_256_);}
	.st346{fill:url(#SVGID_257_);}
	.st347{fill:url(#SVGID_258_);}
	.st348{fill:url(#SVGID_259_);}
	.st349{fill:#FBD2B4;}
	.st350{fill:#3F95B7;}
	.st351{fill:#60A3BF;}
	.st352{fill:url(#SVGID_260_);}
	.st353{fill:#016A89;}
	.st354{fill:#1C617D;}
	.st355{fill:url(#SVGID_261_);}
	.st356{fill:#F7B293;}
	.st357{fill:url(#SVGID_262_);}
	.st358{fill:#EC6643;}
	.st359{fill:url(#SVGID_263_);}
	.st360{fill:url(#SVGID_264_);}
	.st361{fill:url(#SVGID_265_);}
	.st362{fill:url(#SVGID_266_);}
	.st363{fill:url(#SVGID_267_);}
</style>
<g>
	<path class="st0" d="M12.32,568.29c-2.18,0-3.94-1.77-3.94-3.94v-0.28c0-2.18,1.77-3.94,3.94-3.94"/>
</g>
<linearGradient id="SVGID_1_" gradientUnits="userSpaceOnUse" x1="347.4341" y1="-1448.0712" x2="1142.101" y2="-560.0712" gradientTransform="matrix(1 0 0 -1 0 -991.408)">
	<stop  offset="0" style="stop-color:#ECF6FB;stop-opacity:0.1"/>
	<stop  offset="0.0589" style="stop-color:#E7F4FA;stop-opacity:0.153"/>
	<stop  offset="0.3401" style="stop-color:#D9EEF4;stop-opacity:0.4061"/>
	<stop  offset="0.6423" style="stop-color:#D1EAF1;stop-opacity:0.6781"/>
	<stop  offset="1" style="stop-color:#CDE9F0"/>
</linearGradient>
<path class="st1" d="M897.13,567.29c8.81-35.38,13.49-72.39,13.49-110.5c0-56.58-10.32-110.75-29.16-160.74
	c5.95-18.01,9.17-37.26,9.17-57.26c0-100.79-81.67-182.5-182.42-182.5c-10.58,0-20.95,0.91-31.03,2.64
	C611.52,22.21,535.86,1.29,455.31,1.29c-61.87,0-120.85,12.35-174.62,34.71c-28.36-18.17-62.08-28.71-98.26-28.71
	C81.67,7.29,0,88.99,0,189.79c0,37.65,11.4,72.63,30.92,101.68C10.96,342.72,0,398.47,0,456.79c0,38.11,4.68,75.12,13.49,110.5
	L897.13,567.29z"/>
<g>
	<path class="st0" d="M19.81,568.29c-2.18,0-3.94-1.77-3.94-3.94v-0.28c0-2.18,1.77-3.94,3.94-3.94"/>
</g>
<g>
	<path class="st45" d="M38.31,57.94L38.31,57.94c-1.99,0-3.6-1.61-3.6-3.6V20.41c0-1.99,1.61-3.6,3.6-3.6l0,0
		c1.99,0,3.6,1.61,3.6,3.6v33.93C41.9,56.33,40.29,57.94,38.31,57.94z"/>
</g>
<g>
	<path class="st45" d="M58.87,37.37L58.87,37.37c0,1.99-1.61,3.6-3.6,3.6H21.34c-1.99,0-3.6-1.61-3.6-3.6l0,0
		c0-1.99,1.61-3.6,3.6-3.6h33.93C57.26,33.78,58.87,35.39,58.87,37.37z"/>
</g>
<g>
	<path class="st45" d="M858.52,75.29c-13.08,0-23.72-10.64-23.72-23.72s10.64-23.72,23.72-23.72c13.08,0,23.72,10.64,23.72,23.72
		S871.6,75.29,858.52,75.29z M858.52,36.76c-8.16,0-14.8,6.64-14.8,14.81s6.64,14.81,14.8,14.81s14.81-6.64,14.81-14.81
		S866.69,36.76,858.52,36.76z"/>
</g>
<g>
	<path class="st0" d="M193.18,409.97c-2.76,0-5,2.24-5,5s2.24,5,5,5h2.26c2.76,0,5-2.24,5-5s-2.24-5-5-5H193.18L193.18,409.97z
		 M218.04,409.97c-2.76,0-5,2.24-5,5s2.24,5,5,5h70c0.39,0,0.77-0.04,1.13-0.13c0.36,0.08,0.74,0.13,1.13,0.13h22.6
		c2.76,0,5-2.24,5-5s-2.24-5-5-5h-22.6c-0.39,0-0.77,0.04-1.13,0.13c-0.36-0.08-0.74-0.13-1.13-0.13H218.04L218.04,409.97z
		 M382.9,409.97c-2.76,0-5,2.24-5,5s2.24,5,5,5h2.26c2.76,0,5-2.24,5-5s-2.24-5-5-5H382.9L382.9,409.97z M407.76,409.97
		c-2.76,0-5,2.24-5,5s2.24,5,5,5h70c0.39,0,0.77-0.04,1.13-0.13c0.36,0.08,0.74,0.13,1.13,0.13h22.6c2.76,0,5-2.24,5-5s-2.24-5-5-5
		h-22.6c-0.39,0-0.77,0.04-1.13,0.13c-0.36-0.08-0.74-0.13-1.13-0.13H407.76L407.76,409.97z M572.62,409.97c-2.76,0-5,2.24-5,5
		s2.24,5,5,5h2.26c2.76,0,5-2.24,5-5s-2.24-5-5-5H572.62L572.62,409.97z M597.35,409.99c-2.71,0-4.93,2.16-5,4.88
		c-0.06,2.76,2.12,5.05,4.88,5.12c20.47,0.48,39.7,10.83,51.43,27.67c0.19,0.28,0.41,0.53,0.64,0.75c0.12,0.3,0.27,0.59,0.46,0.87
		c3.58,5.49,6.29,11.45,8.05,17.74c0.62,2.21,2.63,3.65,4.81,3.65c0.45,0,0.9-0.06,1.35-0.19c2.65-0.74,4.2-3.49,3.47-6.14
		c-2.06-7.37-5.23-14.28-9.32-20.54c-0.21-0.32-0.45-0.61-0.71-0.86c-0.14-0.34-0.32-0.68-0.54-0.99c-0.03-0.05-0.07-0.1-0.1-0.15
		c0,0,0-0.01-0.01-0.01c-0.01-0.01-0.02-0.03-0.03-0.04c0,0,0-0.01-0.01-0.01c-0.01-0.01-0.02-0.03-0.03-0.04c0,0,0,0,0-0.01
		c-0.03-0.04-0.06-0.09-0.09-0.13l0,0c-0.01-0.01-0.02-0.03-0.03-0.04l-0.01-0.01c-0.01-0.01-0.02-0.03-0.03-0.04l-0.01-0.01
		c-0.01-0.01-0.02-0.02-0.03-0.04l-0.01-0.01c-0.03-0.04-0.06-0.08-0.09-0.12c0,0,0,0-0.01-0.01s-0.02-0.02-0.03-0.04l-0.01-0.01
		c-0.01-0.01-0.02-0.02-0.02-0.03l-0.01-0.01c-0.01-0.01-0.02-0.02-0.03-0.04l-0.01-0.01c-0.03-0.04-0.06-0.08-0.09-0.12
		c0,0,0,0,0-0.01c-0.01-0.01-0.02-0.02-0.03-0.03c0,0-0.01-0.01-0.01-0.02c-0.01-0.01-0.02-0.02-0.02-0.03s-0.01-0.01-0.01-0.02
		c-0.01-0.01-0.02-0.02-0.02-0.03l-0.01-0.01c-0.03-0.04-0.05-0.08-0.08-0.11c0-0.01-0.01-0.01-0.01-0.02
		c-0.01-0.01-0.02-0.02-0.02-0.03s-0.01-0.01-0.01-0.02c-0.01-0.01-0.01-0.02-0.02-0.03c0-0.01-0.01-0.01-0.01-0.02
		c-0.01-0.01-0.02-0.02-0.02-0.03s-0.01-0.01-0.01-0.02c-0.03-0.04-0.05-0.07-0.08-0.11c0-0.01-0.01-0.01-0.01-0.02
		c-0.01-0.01-0.02-0.02-0.02-0.03s-0.01-0.01-0.01-0.02c-0.01-0.01-0.01-0.02-0.02-0.03c0-0.01-0.01-0.01-0.01-0.02
		c-0.01-0.01-0.02-0.02-0.02-0.03s-0.01-0.01-0.01-0.02c-0.02-0.02-0.04-0.05-0.05-0.07l0,0c-0.01-0.01-0.02-0.02-0.02-0.03
		s-0.01-0.01-0.01-0.01c-0.01-0.01-0.02-0.02-0.02-0.03s-0.01-0.01-0.01-0.02c-0.01-0.01-0.01-0.02-0.02-0.03s-0.01-0.01-0.02-0.02
		c-0.01-0.01-0.01-0.02-0.02-0.03s-0.01-0.02-0.02-0.02c-0.01-0.01-0.02-0.02-0.03-0.03s-0.02-0.02-0.03-0.04
		c-0.01-0.01-0.01-0.02-0.02-0.02c-0.01-0.01-0.01-0.02-0.02-0.03s-0.01-0.02-0.02-0.02c-0.01-0.01-0.01-0.02-0.02-0.03
		s-0.01-0.02-0.02-0.02c-0.01-0.01-0.01-0.02-0.02-0.02c-0.01-0.01-0.01-0.02-0.02-0.02c-0.01-0.01-0.01-0.02-0.02-0.02
		c-0.01-0.02-0.02-0.03-0.03-0.05c-0.01-0.01-0.01-0.02-0.02-0.03s-0.01-0.01-0.02-0.02c-0.01-0.01-0.01-0.02-0.02-0.02
		c-0.01-0.01-0.01-0.02-0.02-0.03s-0.01-0.02-0.02-0.02c-0.01-0.01-0.01-0.02-0.02-0.03s-0.01-0.02-0.02-0.02
		c-0.01-0.01-0.01-0.02-0.02-0.02c-0.01-0.01-0.01-0.02-0.02-0.03s-0.02-0.02-0.02-0.03c-0.01-0.01-0.02-0.02-0.03-0.03
		s-0.01-0.02-0.02-0.02c-0.01-0.01-0.01-0.02-0.02-0.02c-0.01-0.01-0.01-0.01-0.02-0.02c-0.01-0.01-0.01-0.02-0.02-0.02
		c-0.01-0.01-0.01-0.02-0.02-0.03s-0.01-0.02-0.02-0.02c-0.01-0.01-0.01-0.02-0.02-0.03s-0.01-0.02-0.02-0.03s-0.02-0.02-0.03-0.03
		s-0.02-0.02-0.03-0.04c-0.01-0.01-0.01-0.01-0.02-0.02c-0.01-0.01-0.01-0.02-0.02-0.02c-0.01-0.01-0.01-0.02-0.02-0.03
		s-0.01-0.02-0.02-0.02c-0.01-0.01-0.01-0.02-0.02-0.03s-0.01-0.02-0.02-0.02c-0.01-0.01-0.01-0.02-0.02-0.02
		c-0.01-0.01-0.02-0.02-0.02-0.03c-0.01-0.01-0.02-0.03-0.03-0.04s-0.01-0.02-0.02-0.02c-0.01-0.01-0.01-0.02-0.02-0.03
		s-0.01-0.01-0.02-0.02c-0.01-0.01-0.01-0.02-0.02-0.03s-0.01-0.02-0.02-0.03s-0.01-0.02-0.02-0.02c-0.01-0.01-0.01-0.02-0.02-0.02
		c-0.01-0.01-0.01-0.02-0.02-0.02c-0.01-0.01-0.01-0.02-0.02-0.02c-0.01-0.01-0.02-0.03-0.04-0.05c-0.01-0.01-0.01-0.02-0.02-0.02
		c-0.01-0.01-0.01-0.02-0.02-0.03s-0.01-0.01-0.02-0.02c-0.01-0.01-0.01-0.02-0.02-0.03s-0.01-0.01-0.02-0.02
		c-0.01-0.01-0.01-0.02-0.02-0.02c-0.01-0.01-0.01-0.02-0.02-0.02c-0.01-0.01-0.01-0.02-0.02-0.02c-0.01-0.01-0.02-0.02-0.03-0.03
		s-0.02-0.02-0.03-0.03s-0.02-0.02-0.02-0.03c-0.01-0.01-0.01-0.01-0.02-0.02c-0.01-0.01-0.01-0.02-0.02-0.03s-0.01-0.01-0.02-0.02
		c-0.01-0.01-0.01-0.02-0.02-0.03s-0.01-0.01-0.02-0.02c-0.01-0.01-0.01-0.02-0.02-0.03c0-0.01-0.01-0.01-0.02-0.02
		c-0.01-0.01-0.02-0.03-0.03-0.04s-0.01-0.01-0.02-0.02c-0.01-0.01-0.02-0.02-0.03-0.04c0-0.01-0.01-0.01-0.01-0.02
		c-0.01-0.01-0.02-0.02-0.02-0.03c-0.01-0.01-0.01-0.01-0.02-0.02c-0.01-0.01-0.02-0.02-0.02-0.03c-0.01-0.01-0.01-0.01-0.02-0.02
		c-0.01-0.01-0.02-0.02-0.03-0.03c0-0.01-0.01-0.01-0.01-0.02c-0.01-0.02-0.03-0.03-0.04-0.05c0,0,0,0-0.01-0.01
		s-0.02-0.03-0.03-0.04c0-0.01-0.01-0.01-0.02-0.02c-0.01-0.01-0.02-0.02-0.02-0.03s-0.01-0.01-0.01-0.02
		c-0.01-0.01-0.02-0.02-0.03-0.03c0-0.01-0.01-0.01-0.01-0.02c-0.01-0.01-0.02-0.02-0.03-0.03c0-0.01-0.01-0.01-0.01-0.02
		c-0.01-0.02-0.03-0.03-0.04-0.05c0-0.01-0.01-0.01-0.01-0.01c-0.01-0.01-0.02-0.02-0.03-0.04c0-0.01-0.01-0.01-0.01-0.02
		c-0.01-0.01-0.02-0.02-0.02-0.03c-0.01-0.01-0.01-0.01-0.02-0.02c-0.01-0.01-0.02-0.02-0.03-0.03c0-0.01-0.01-0.01-0.01-0.02
		c-0.01-0.01-0.02-0.03-0.03-0.04l-0.01-0.01c-0.01-0.02-0.03-0.03-0.04-0.05c0,0,0,0-0.01-0.01s-0.02-0.03-0.03-0.04
		c0-0.01-0.01-0.01-0.01-0.01c-0.01-0.01-0.02-0.02-0.03-0.04c0-0.01-0.01-0.01-0.01-0.01c-0.01-0.01-0.02-0.02-0.03-0.04
		c0,0-0.01-0.01-0.01-0.02c-0.01-0.01-0.02-0.03-0.03-0.04l0,0c-0.03-0.03-0.06-0.07-0.08-0.1c0,0,0-0.01-0.01-0.01
		c-0.01-0.01-0.02-0.03-0.03-0.04l-0.01-0.01c-0.01-0.01-0.02-0.02-0.03-0.04l-0.01-0.01c-0.01-0.02-0.02-0.03-0.04-0.04l0,0
		c-0.01-0.02-0.03-0.03-0.04-0.05l0,0c-0.01-0.02-0.02-0.03-0.04-0.04c0-0.01-0.01-0.01-0.01-0.01c-0.01-0.01-0.02-0.02-0.03-0.04
		l-0.01-0.01c-0.01-0.01-0.02-0.03-0.03-0.04l-0.01-0.01c-0.01-0.02-0.03-0.03-0.04-0.05l0,0c-0.01-0.02-0.03-0.03-0.04-0.05
		c0,0,0,0-0.01-0.01s-0.02-0.03-0.04-0.04l-0.01-0.01c-0.01-0.01-0.02-0.02-0.03-0.04l-0.01-0.01c-0.01-0.01-0.02-0.02-0.03-0.04
		l-0.01-0.01c-0.03-0.03-0.06-0.07-0.08-0.1l0,0c-0.01-0.01-0.03-0.03-0.04-0.05l-0.01-0.01c-0.01-0.01-0.02-0.03-0.03-0.04
		l-0.01-0.01c-0.01-0.01-0.02-0.03-0.03-0.04c0-0.01-0.01-0.01-0.01-0.01c-0.03-0.03-0.05-0.06-0.08-0.1c0,0,0,0,0-0.01
		c-0.01-0.01-0.02-0.03-0.04-0.04c0,0,0-0.01-0.01-0.01c-0.01-0.01-0.02-0.02-0.03-0.04c0-0.01-0.01-0.01-0.01-0.01
		c-0.01-0.01-0.02-0.02-0.03-0.04c0-0.01-0.01-0.01-0.01-0.01c-0.03-0.03-0.06-0.07-0.08-0.1l0,0c-0.01-0.02-0.03-0.03-0.04-0.05
		l-0.01-0.01c-0.01-0.01-0.02-0.03-0.03-0.04l-0.01-0.01c-0.01-0.01-0.02-0.03-0.04-0.04c0,0,0,0-0.01-0.01
		c-0.03-0.03-0.06-0.07-0.09-0.1c0,0,0,0-0.01-0.01s-0.02-0.03-0.04-0.04c0,0,0-0.01-0.01-0.01c-0.01-0.01-0.02-0.03-0.03-0.04
		c0-0.01-0.01-0.01-0.01-0.01c-0.01-0.01-0.02-0.03-0.03-0.04c0,0,0,0-0.01-0.01c-0.03-0.03-0.06-0.07-0.09-0.1c0,0,0,0,0-0.01
		c-0.01-0.01-0.02-0.03-0.04-0.04c0-0.01-0.01-0.01-0.01-0.01c-0.01-0.01-0.02-0.02-0.03-0.03c0-0.01-0.01-0.01-0.01-0.01
		c-0.01-0.01-0.02-0.02-0.03-0.03c0-0.01-0.01-0.01-0.01-0.01c-0.03-0.03-0.06-0.06-0.08-0.09c0,0,0-0.01-0.01-0.01
		c-0.01-0.01-0.03-0.03-0.04-0.04l-0.01-0.01c-0.01-0.01-0.02-0.03-0.03-0.04c0-0.01-0.01-0.01-0.01-0.01
		c-0.01-0.01-0.02-0.03-0.04-0.04c0,0,0,0-0.01-0.01c-0.03-0.03-0.06-0.06-0.09-0.1l0,0c-0.01-0.01-0.02-0.03-0.04-0.04l-0.01-0.01
		c-0.01-0.01-0.02-0.03-0.04-0.04c0,0,0,0-0.01-0.01s-0.03-0.03-0.04-0.04l0,0c-0.03-0.03-0.06-0.06-0.09-0.1c0,0,0,0-0.01-0.01
		s-0.02-0.03-0.04-0.04l-0.01-0.01c-0.01-0.01-0.02-0.03-0.04-0.04l-0.01-0.01c-0.01-0.02-0.03-0.03-0.04-0.05l0,0
		c-0.03-0.03-0.06-0.06-0.09-0.1l0,0c-0.01-0.01-0.03-0.03-0.04-0.04l-0.01-0.01c-0.01-0.01-0.02-0.03-0.04-0.04c0,0,0,0-0.01-0.01
		s-0.03-0.03-0.04-0.04l0,0c-0.03-0.03-0.06-0.06-0.09-0.1l0,0c-0.01-0.01-0.03-0.03-0.04-0.04l-0.01-0.01
		c-0.01-0.01-0.02-0.03-0.04-0.04c0,0,0,0-0.01-0.01c-0.01-0.02-0.03-0.03-0.04-0.05l0,0c-0.03-0.03-0.06-0.06-0.09-0.1
		c0,0,0,0,0-0.01c-0.01-0.01-0.03-0.03-0.04-0.04l-0.01-0.01c-0.01-0.01-0.03-0.03-0.04-0.04c0,0,0,0,0-0.01
		c-0.01-0.02-0.03-0.03-0.04-0.05l0,0c-0.03-0.03-0.06-0.06-0.09-0.09l-0.01-0.01c-0.01-0.01-0.02-0.03-0.04-0.04l-0.01-0.01
		c-0.01-0.01-0.02-0.03-0.04-0.04l-0.01-0.01c-0.04-0.05-0.09-0.09-0.13-0.14c0,0,0,0-0.01-0.01s-0.03-0.03-0.04-0.04l-0.01-0.01
		c-0.01-0.01-0.03-0.03-0.04-0.04c0,0,0,0-0.01-0.01c-0.05-0.05-0.09-0.1-0.14-0.14l0,0c-0.02-0.02-0.03-0.03-0.04-0.05l0,0
		c-0.01-0.01-0.03-0.03-0.04-0.05l0,0c-0.05-0.05-0.09-0.1-0.14-0.14l0,0c-0.01-0.01-0.03-0.03-0.04-0.04c0,0,0,0-0.01-0.01
		c-0.01-0.02-0.03-0.03-0.04-0.04l0,0c-0.05-0.05-0.09-0.1-0.14-0.14l0,0c-0.01-0.01-0.03-0.03-0.04-0.04l0,0
		c-0.01-0.02-0.03-0.03-0.04-0.05l0,0c-0.06-0.06-0.12-0.13-0.19-0.19l0,0c-0.06-0.06-0.12-0.13-0.19-0.19l0,0
		c-0.01-0.01-0.03-0.03-0.04-0.04l0,0c-0.01-0.01-0.03-0.03-0.04-0.04l0,0c-0.06-0.06-0.12-0.13-0.19-0.19l0,0
		c-0.06-0.06-0.12-0.12-0.19-0.19l0,0c-0.01-0.01-0.03-0.03-0.04-0.04l0,0c-0.06-0.06-0.13-0.12-0.19-0.19l0,0
		c-0.01-0.01-0.03-0.03-0.05-0.04l0,0c-0.06-0.06-0.13-0.12-0.19-0.19l0,0c-0.08-0.08-0.16-0.16-0.24-0.23l0,0
		c-0.02-0.01-0.03-0.03-0.04-0.04l0,0c-0.06-0.06-0.13-0.12-0.19-0.18l0,0c-0.02-0.01-0.03-0.03-0.04-0.04l0,0
		c-0.06-0.06-0.13-0.12-0.19-0.18l0,0c-0.01-0.01-0.03-0.03-0.04-0.04l0,0c-0.06-0.06-0.13-0.12-0.19-0.18l0,0
		c-0.01-0.01-0.03-0.03-0.05-0.04l0,0c-0.06-0.06-0.13-0.12-0.19-0.18l0,0c-0.01-0.01-0.03-0.03-0.05-0.04l0,0
		c-0.05-0.05-0.1-0.09-0.15-0.14l0,0c-0.02-0.01-0.03-0.03-0.04-0.04c0,0,0,0-0.01-0.01s-0.03-0.03-0.04-0.04l0,0
		c-0.05-0.05-0.1-0.09-0.15-0.13l0,0c-0.02-0.02-0.03-0.03-0.05-0.04l0,0c-0.02-0.02-0.03-0.03-0.05-0.04l0,0
		c-0.07-0.06-0.13-0.12-0.2-0.18l0,0c-0.07-0.06-0.13-0.12-0.2-0.18l0,0c-0.01-0.01-0.03-0.03-0.04-0.04c0,0,0,0-0.01-0.01
		s-0.03-0.03-0.04-0.04l-0.01-0.01c-0.05-0.04-0.1-0.09-0.15-0.13c0,0,0,0-0.01,0c-0.01-0.01-0.03-0.03-0.04-0.04c0,0,0,0-0.01-0.01
		s-0.03-0.03-0.04-0.04l0,0c-0.05-0.04-0.1-0.09-0.15-0.13l0,0c-0.01-0.01-0.03-0.03-0.05-0.04l0,0c-0.02-0.01-0.03-0.03-0.05-0.04
		l0,0c-0.05-0.04-0.1-0.09-0.15-0.13l0,0c-0.02-0.01-0.03-0.03-0.05-0.04c0,0,0,0-0.01,0c-0.07-0.06-0.13-0.12-0.2-0.17l0,0
		c-0.01-0.01-0.03-0.03-0.05-0.04l0,0c-0.02-0.01-0.03-0.03-0.05-0.04l0,0c-0.05-0.04-0.1-0.09-0.15-0.13l0,0
		c-0.02-0.01-0.03-0.03-0.05-0.04c0,0,0,0-0.01,0c-0.07-0.06-0.13-0.12-0.2-0.17c0,0,0,0-0.01,0c-0.01-0.01-0.03-0.03-0.05-0.04l0,0
		c-0.02-0.01-0.03-0.03-0.05-0.04l0,0c-0.03-0.03-0.07-0.06-0.1-0.09l0,0c-0.01-0.01-0.03-0.03-0.05-0.04l0,0
		c-0.02-0.01-0.03-0.03-0.05-0.04l0,0c-0.07-0.06-0.14-0.11-0.2-0.17l0,0c-0.02-0.01-0.03-0.03-0.05-0.04l0,0
		c-0.07-0.06-0.14-0.11-0.2-0.17l0,0c-0.02-0.01-0.03-0.03-0.05-0.04l0,0c-0.07-0.06-0.14-0.11-0.2-0.17l0,0
		c-0.02-0.01-0.03-0.03-0.05-0.04l0,0c-0.05-0.04-0.1-0.08-0.15-0.13l0,0c-0.02-0.01-0.03-0.03-0.05-0.04l0,0
		c-0.02-0.01-0.03-0.03-0.05-0.04l0,0c-0.05-0.04-0.1-0.08-0.15-0.13l0,0c-0.02-0.01-0.03-0.02-0.04-0.04c0,0-0.01,0-0.01-0.01
		c-0.01-0.01-0.03-0.02-0.04-0.03c0,0-0.01,0-0.01-0.01c-0.05-0.04-0.1-0.08-0.15-0.12l0,0c-0.02-0.01-0.03-0.02-0.05-0.04
		c0,0,0,0-0.01-0.01s-0.03-0.02-0.04-0.03c0,0-0.01,0-0.01-0.01c-0.05-0.04-0.1-0.08-0.15-0.12c0,0-0.01,0-0.01-0.01
		c-0.01-0.01-0.03-0.02-0.04-0.03l-0.01-0.01c-0.01-0.01-0.03-0.02-0.04-0.03c0,0,0,0-0.01-0.01c-0.05-0.04-0.1-0.08-0.15-0.12
		c0,0,0,0-0.01-0.01c-0.02-0.01-0.03-0.02-0.05-0.04c0,0,0,0-0.01,0c-0.02-0.01-0.03-0.03-0.05-0.04l0,0
		c-0.05-0.04-0.1-0.08-0.16-0.12l0,0c-0.02-0.01-0.03-0.02-0.05-0.04c0,0-0.01,0-0.01-0.01c-0.02-0.01-0.03-0.02-0.04-0.03
		c0,0,0,0-0.01,0c-0.05-0.04-0.1-0.08-0.15-0.12c0,0,0,0-0.01-0.01c-0.02-0.01-0.03-0.02-0.05-0.04c0,0,0,0-0.01,0
		c-0.02-0.01-0.03-0.02-0.05-0.04l0,0c-0.05-0.04-0.1-0.08-0.16-0.12l0,0c-0.02-0.01-0.03-0.02-0.05-0.04l-0.01-0.01
		c-0.02-0.01-0.03-0.02-0.05-0.04l0,0c-0.05-0.04-0.1-0.08-0.16-0.12c0,0-0.01,0-0.01-0.01c-0.01-0.01-0.03-0.02-0.04-0.03
		c0,0-0.01,0-0.01-0.01c-0.02-0.01-0.03-0.02-0.05-0.04l0,0c-0.04-0.03-0.07-0.05-0.1-0.08c0,0,0,0-0.01,0
		c-0.02-0.01-0.03-0.02-0.05-0.03c0,0,0,0-0.01-0.01c-0.02-0.01-0.03-0.02-0.04-0.03l-0.01-0.01c-0.02-0.01-0.03-0.02-0.05-0.04l0,0
		c-0.05-0.04-0.1-0.08-0.16-0.12c0,0-0.01,0-0.01-0.01c-0.01-0.01-0.03-0.02-0.04-0.03l-0.01-0.01c-0.01-0.01-0.03-0.02-0.04-0.03
		c0,0,0,0-0.01-0.01c-0.03-0.03-0.07-0.05-0.1-0.08c0,0,0,0-0.01,0c-0.02-0.01-0.03-0.02-0.05-0.03l-0.01-0.01
		c-0.01-0.01-0.03-0.02-0.04-0.03l-0.01-0.01c-0.02-0.01-0.03-0.02-0.05-0.03l0,0c-0.04-0.03-0.07-0.05-0.11-0.08c0,0,0,0-0.01-0.01
		s-0.03-0.02-0.04-0.03c-0.01,0-0.01-0.01-0.01-0.01c-0.01-0.01-0.03-0.02-0.04-0.03l-0.01-0.01c-0.02-0.01-0.03-0.02-0.04-0.03
		c0,0,0,0-0.01,0c-0.04-0.03-0.07-0.05-0.1-0.08l-0.01-0.01c-0.01-0.01-0.03-0.02-0.04-0.03c-0.01,0-0.01,0-0.01-0.01
		c-0.01-0.01-0.03-0.02-0.04-0.03l-0.01-0.01c-0.02-0.01-0.03-0.02-0.04-0.03c0,0,0,0-0.01,0c-0.04-0.03-0.07-0.05-0.11-0.08
		c0,0,0,0-0.01-0.01s-0.03-0.02-0.04-0.03c-0.01,0-0.01-0.01-0.02-0.01c-0.01-0.01-0.02-0.02-0.04-0.03l-0.01-0.01
		c-0.01-0.01-0.03-0.02-0.04-0.03c0,0-0.01,0-0.01-0.01c-0.04-0.03-0.07-0.05-0.1-0.07c-0.01,0-0.01-0.01-0.01-0.01
		c-0.01-0.01-0.03-0.02-0.04-0.03c-0.01,0-0.01-0.01-0.01-0.01c-0.01-0.01-0.02-0.02-0.04-0.03c-0.01,0-0.01-0.01-0.02-0.01
		c-0.01-0.01-0.03-0.02-0.04-0.03c0,0-0.01,0-0.01-0.01c-0.03-0.02-0.07-0.05-0.11-0.07l-0.01-0.01c-0.01-0.01-0.03-0.02-0.04-0.03
		c-0.01,0-0.01-0.01-0.02-0.01c-0.01-0.01-0.03-0.02-0.04-0.03l-0.01-0.01c-0.02-0.01-0.03-0.02-0.05-0.03c0,0,0,0-0.01,0
		c-0.02-0.01-0.04-0.02-0.05-0.04l0,0c-0.02-0.01-0.03-0.02-0.05-0.03c-0.01,0-0.01-0.01-0.02-0.01c-0.01-0.01-0.03-0.02-0.04-0.03
		l-0.01-0.01c-0.01-0.01-0.03-0.02-0.04-0.03l-0.01-0.01c-0.02-0.01-0.03-0.02-0.05-0.03l0,0c-0.02-0.01-0.04-0.03-0.06-0.04l0,0
		c-0.02-0.01-0.04-0.02-0.05-0.04c0,0-0.01,0-0.01-0.01c-0.01-0.01-0.03-0.02-0.04-0.03l-0.01-0.01c-0.01-0.01-0.03-0.02-0.04-0.03
		l-0.01-0.01c-0.02-0.01-0.03-0.02-0.04-0.03c0,0-0.01,0-0.01-0.01c-0.02-0.01-0.03-0.02-0.05-0.04c0,0,0,0-0.01,0
		c-0.02-0.01-0.03-0.02-0.05-0.03l-0.01-0.01c-0.01-0.01-0.03-0.02-0.04-0.03l-0.01-0.01c-0.01-0.01-0.03-0.02-0.04-0.03l-0.01-0.01
		c-0.02-0.01-0.03-0.02-0.05-0.03l0,0c-0.02-0.01-0.04-0.02-0.05-0.04c0,0,0,0-0.01,0c-0.02-0.01-0.03-0.02-0.05-0.03l-0.01-0.01
		c-0.01-0.01-0.03-0.02-0.04-0.03c0,0-0.01-0.01-0.02-0.01c-0.01-0.01-0.03-0.02-0.04-0.03l-0.01-0.01
		c-0.04-0.02-0.07-0.05-0.11-0.07h-0.01c-0.01-0.01-0.03-0.02-0.04-0.03c0,0-0.01-0.01-0.02-0.01c-0.01-0.01-0.03-0.02-0.04-0.03
		c0,0-0.01-0.01-0.02-0.01c-0.01-0.01-0.03-0.02-0.04-0.03c-0.01,0-0.01-0.01-0.01-0.01c-0.02-0.01-0.03-0.02-0.04-0.03
		c0,0-0.01,0-0.01-0.01c-0.02-0.01-0.03-0.02-0.05-0.03c-0.01,0-0.01-0.01-0.02-0.01c-0.01-0.01-0.03-0.02-0.04-0.03
		c0,0-0.01-0.01-0.02-0.01c-0.01-0.01-0.03-0.02-0.04-0.02c-0.01,0-0.01-0.01-0.02-0.01c-0.01-0.01-0.02-0.02-0.04-0.02
		c-0.01,0-0.01-0.01-0.02-0.01c-0.02-0.01-0.03-0.02-0.05-0.03l0,0c-0.02-0.01-0.04-0.02-0.05-0.04c0,0-0.01,0-0.01-0.01
		c-0.01-0.01-0.03-0.02-0.04-0.03c-0.01,0-0.01-0.01-0.02-0.01c-0.01-0.01-0.02-0.02-0.04-0.02c-0.01,0-0.01-0.01-0.02-0.01
		c-0.01-0.01-0.02-0.02-0.04-0.02c-0.01,0-0.01-0.01-0.02-0.01c-0.02-0.01-0.03-0.02-0.05-0.03l0,0c-0.02-0.01-0.04-0.02-0.05-0.03
		c0,0-0.01-0.01-0.02-0.01c-0.01-0.01-0.02-0.02-0.04-0.02c-0.01,0-0.01-0.01-0.02-0.01c-0.01-0.01-0.02-0.01-0.03-0.02
		c-0.01-0.01-0.01-0.01-0.02-0.01c-0.01-0.01-0.02-0.01-0.03-0.02c-0.01,0-0.01-0.01-0.02-0.01c-0.01-0.01-0.03-0.02-0.05-0.03
		c0,0,0,0-0.01,0c-0.02-0.01-0.03-0.02-0.05-0.03c-0.01,0-0.01-0.01-0.02-0.01c-0.01-0.01-0.02-0.01-0.03-0.02
		c-0.01-0.01-0.01-0.01-0.02-0.02c-0.01-0.01-0.02-0.01-0.03-0.02c-0.01,0-0.01-0.01-0.02-0.01c-0.01-0.01-0.02-0.01-0.03-0.02
		c-0.01,0-0.01-0.01-0.02-0.01c-0.01-0.01-0.03-0.02-0.04-0.03c0,0-0.01,0-0.01-0.01c-0.02-0.01-0.03-0.02-0.05-0.03
		c-0.01,0-0.01-0.01-0.02-0.01c-0.01-0.01-0.02-0.02-0.04-0.02c-0.01,0-0.01-0.01-0.02-0.01c-0.01-0.01-0.02-0.01-0.03-0.02
		c-0.01,0-0.02-0.01-0.02-0.01c-0.01-0.01-0.02-0.01-0.03-0.02c-0.01,0-0.02-0.01-0.02-0.01c-0.01-0.01-0.03-0.02-0.04-0.03
		c-0.01-0.01-0.02-0.01-0.03-0.02c-0.01-0.01-0.03-0.02-0.04-0.02c-0.01-0.01-0.02-0.01-0.02-0.01c-0.01-0.01-0.02-0.01-0.03-0.02
		c-0.01-0.01-0.01-0.01-0.02-0.02c-0.01-0.01-0.02-0.01-0.03-0.02c-0.01,0-0.02-0.01-0.02-0.01c-0.01-0.01-0.02-0.01-0.03-0.02
		c-0.01-0.01-0.01-0.01-0.02-0.01c-0.01-0.01-0.02-0.01-0.04-0.02c-0.01-0.01-0.03-0.02-0.04-0.02c-0.01-0.01-0.02-0.01-0.03-0.02
		c-0.01-0.01-0.02-0.01-0.03-0.02c-0.01-0.01-0.02-0.01-0.03-0.02c-0.01-0.01-0.02-0.01-0.03-0.02c-0.01-0.01-0.02-0.01-0.02-0.01
		c-0.01-0.01-0.02-0.01-0.03-0.02c-0.01-0.01-0.02-0.01-0.03-0.02c-0.01-0.01-0.02-0.01-0.02-0.02c-0.01-0.01-0.03-0.02-0.05-0.03
		c-0.01,0-0.01-0.01-0.02-0.01c-0.01-0.01-0.02-0.01-0.04-0.02c-0.01,0-0.02-0.01-0.02-0.01c-0.01-0.01-0.02-0.01-0.03-0.02
		c-0.01,0-0.02-0.01-0.03-0.02c-0.01-0.01-0.02-0.01-0.03-0.02c-0.01-0.01-0.02-0.01-0.03-0.02c-0.01-0.01-0.02-0.01-0.03-0.02
		c-0.01-0.01-0.02-0.01-0.03-0.02c-0.01-0.01-0.02-0.01-0.03-0.02c-0.01-0.01-0.03-0.02-0.04-0.03c-0.01-0.01-0.02-0.01-0.03-0.02
		c-0.01,0-0.02-0.01-0.03-0.02c-0.01-0.01-0.02-0.01-0.03-0.02c-0.01,0-0.02-0.01-0.03-0.02c-0.01-0.01-0.02-0.01-0.03-0.02
		c-0.01-0.01-0.02-0.01-0.03-0.02c-0.01-0.01-0.02-0.01-0.03-0.02c-0.01,0-0.02-0.01-0.02-0.01c-0.02-0.01-0.03-0.02-0.05-0.03
		c-0.01-0.01-0.02-0.01-0.03-0.02c-0.01-0.01-0.02-0.01-0.03-0.02c-0.01,0-0.01-0.01-0.02-0.01c-0.01-0.01-0.02-0.01-0.03-0.02
		c-0.01,0-0.02-0.01-0.02-0.01c-0.01-0.01-0.02-0.01-0.03-0.02c-0.01,0-0.01-0.01-0.02-0.01c-0.01-0.01-0.02-0.01-0.03-0.02
		c-0.01,0-0.02-0.01-0.02-0.01c-0.01-0.01-0.03-0.02-0.04-0.02c-0.01-0.01-0.03-0.02-0.04-0.02c-0.01-0.01-0.02-0.01-0.03-0.02
		c-0.01,0-0.02-0.01-0.03-0.02c-0.01-0.01-0.02-0.01-0.03-0.02c-0.01,0-0.02-0.01-0.03-0.02c-0.01-0.01-0.02-0.01-0.03-0.02
		c-0.01-0.01-0.02-0.01-0.03-0.02c-0.01-0.01-0.02-0.01-0.03-0.02c-0.01-0.01-0.02-0.01-0.03-0.02c-0.02-0.01-0.03-0.02-0.05-0.03
		c-0.01,0-0.02-0.01-0.03-0.01c-0.01-0.01-0.02-0.01-0.03-0.02c-0.01-0.01-0.02-0.01-0.03-0.02c-0.01,0-0.01-0.01-0.02-0.01
		c-0.01-0.01-0.02-0.01-0.03-0.02c-0.01,0-0.02-0.01-0.02-0.01c-0.01-0.01-0.02-0.01-0.03-0.02c-0.01,0-0.02-0.01-0.02-0.01
		c-0.04-0.02-0.07-0.04-0.11-0.06c-0.01,0-0.02-0.01-0.02-0.01c-0.01-0.01-0.02-0.01-0.03-0.02c-0.01,0-0.02-0.01-0.02-0.01
		c-0.01-0.01-0.02-0.01-0.03-0.02c-0.01,0-0.01-0.01-0.02-0.01c-0.01-0.01-0.02-0.01-0.03-0.02c-0.01,0-0.01-0.01-0.02-0.01
		c-0.04-0.02-0.08-0.05-0.12-0.07c0,0-0.01,0-0.01-0.01c-0.01-0.01-0.03-0.01-0.04-0.02c0,0-0.01-0.01-0.02-0.01
		c-0.01-0.01-0.02-0.01-0.04-0.02c0,0-0.01-0.01-0.02-0.01c-0.01-0.01-0.02-0.01-0.03-0.02c0,0-0.01-0.01-0.02-0.01
		c-0.04-0.02-0.08-0.05-0.12-0.07c-0.01,0-0.01-0.01-0.02-0.01c-0.01-0.01-0.02-0.01-0.03-0.02c-0.01,0-0.01-0.01-0.02-0.01
		c-0.01-0.01-0.02-0.01-0.03-0.02c0,0-0.01-0.01-0.02-0.01c-0.01-0.01-0.02-0.01-0.04-0.02c0,0-0.01,0-0.01-0.01
		c-0.02-0.01-0.05-0.03-0.08-0.04c0,0-0.01,0-0.01-0.01c-0.01-0.01-0.02-0.01-0.03-0.02c-0.01,0-0.01-0.01-0.02-0.01
		c-0.01-0.01-0.02-0.01-0.03-0.02c-0.01,0-0.01-0.01-0.02-0.01c-0.01-0.01-0.02-0.01-0.04-0.02l-0.01-0.01
		c-0.01-0.01-0.03-0.01-0.04-0.02l-0.01-0.01c-0.04-0.02-0.08-0.05-0.13-0.07c0,0-0.01,0-0.01-0.01c-0.01-0.01-0.02-0.01-0.04-0.02
		c-0.01,0-0.01-0.01-0.02-0.01c-0.01-0.01-0.02-0.01-0.04-0.02l-0.01-0.01c-0.01-0.01-0.03-0.01-0.04-0.02l0,0
		c-0.05-0.03-0.09-0.05-0.14-0.08c0,0-0.01,0-0.01-0.01c-0.01-0.01-0.03-0.01-0.04-0.02c0,0-0.01-0.01-0.02-0.01
		c-0.01-0.01-0.02-0.01-0.04-0.02c-0.01,0-0.01-0.01-0.02-0.01c-0.01-0.01-0.02-0.01-0.04-0.02c0,0-0.01,0-0.01-0.01
		c-0.05-0.03-0.09-0.05-0.13-0.07c0,0-0.01,0-0.01-0.01c-0.01-0.01-0.03-0.01-0.04-0.02c0,0-0.01-0.01-0.02-0.01
		c-0.01-0.01-0.03-0.01-0.04-0.02c0,0-0.01,0-0.01-0.01c-0.06-0.03-0.12-0.07-0.18-0.1h-0.01c-0.01-0.01-0.03-0.01-0.04-0.02
		c0,0-0.01,0-0.01-0.01c-0.01-0.01-0.03-0.02-0.04-0.02h-0.01c-0.05-0.03-0.09-0.05-0.14-0.08l0,0c-0.01-0.01-0.03-0.01-0.04-0.02
		c-0.01,0-0.01-0.01-0.01-0.01c-0.01-0.01-0.02-0.01-0.04-0.02c-0.01,0-0.01-0.01-0.02-0.01c-0.01-0.01-0.02-0.01-0.04-0.02
		c0,0-0.01,0-0.01-0.01c-0.06-0.03-0.12-0.07-0.18-0.1c0,0-0.01,0-0.01-0.01c-0.01-0.01-0.03-0.01-0.04-0.02
		c-0.01,0-0.01,0-0.01-0.01c-0.01-0.01-0.03-0.01-0.04-0.02h-0.01c-0.06-0.03-0.13-0.07-0.19-0.1c0,0,0,0-0.01,0
		c-0.01-0.01-0.03-0.01-0.04-0.02c0,0-0.01,0-0.01-0.01c-0.01-0.01-0.03-0.02-0.04-0.02l0,0c-0.06-0.03-0.13-0.07-0.19-0.1
		c0,0-0.01,0-0.01-0.01c-0.01-0.01-0.03-0.02-0.04-0.02c0,0-0.01,0-0.01-0.01c-0.01-0.01-0.03-0.02-0.04-0.02l0,0
		c-0.06-0.03-0.13-0.07-0.19-0.1l0,0c-0.01-0.01-0.03-0.02-0.05-0.02h-0.01c-0.08-0.04-0.16-0.08-0.24-0.13c0,0,0,0-0.01,0
		c-0.01-0.01-0.03-0.02-0.04-0.02h-0.01c-0.08-0.04-0.16-0.08-0.24-0.12l0,0c-0.02-0.01-0.03-0.01-0.05-0.02c0,0,0,0-0.01,0
		c-0.06-0.03-0.13-0.07-0.2-0.1l0,0c-0.02-0.01-0.03-0.02-0.05-0.02l0,0c-0.02-0.01-0.03-0.02-0.05-0.02l0,0
		c-0.08-0.04-0.16-0.08-0.25-0.12c0,0,0,0-0.01,0c-0.02-0.01-0.03-0.01-0.05-0.02c0,0,0,0-0.01,0c-0.1-0.05-0.2-0.1-0.3-0.15l0,0
		c-0.08-0.04-0.17-0.08-0.25-0.12l0,0c-0.02-0.01-0.03-0.02-0.05-0.02l0,0c-0.07-0.03-0.13-0.06-0.2-0.1l0,0
		c-0.02-0.01-0.03-0.02-0.05-0.02l0,0c-9.26-4.45-19.58-7.05-30.48-7.3C597.42,409.99,597.39,409.99,597.35,409.99L597.35,409.99z
		 M650.37,522.4c-1.48,0-2.95,0.66-3.93,1.91c-0.4,0.51-0.82,1.02-1.23,1.52c-1.77,2.12-1.49,5.27,0.63,7.04
		c0.94,0.78,2.07,1.16,3.2,1.16c1.43,0,2.85-0.61,3.84-1.79c0.01-0.01,0.01-0.02,0.02-0.02c0.01-0.01,0.01-0.02,0.02-0.02
		c0.01-0.01,0.01-0.01,0.01-0.02c0.47-0.56,0.92-1.12,1.37-1.69c1.71-2.17,1.33-5.31-0.84-7.02
		C652.54,522.75,651.45,522.4,650.37,522.4L650.37,522.4z M31.61,470.85c-2.48,0-4.63,1.84-4.95,4.36c-0.07,0.57-0.13,1.13-0.19,1.7
		c0,0,0,0,0,0.01c0,0.02,0,0.03-0.01,0.05c0,0.01,0,0.01,0,0.02c0,0.01,0,0.03,0,0.05c0,0.01,0,0.01,0,0.02c0,0.01,0,0.03,0,0.05
		v0.01c0,0.03-0.01,0.06-0.01,0.08c0,0.01,0,0.02,0,0.03s0,0.03,0,0.03c0,0.01,0,0.02,0,0.03s0,0.02,0,0.03s0,0.03,0,0.04
		s0,0.02,0,0.03c0,0.02,0,0.03,0,0.05c0,0.01,0,0.01,0,0.02c0,0.02,0,0.04-0.01,0.07c0,0,0,0.01,0,0.02c0,0.02,0,0.04,0,0.05
		c0,0,0,0.01,0,0.02c0,0.02,0,0.03,0,0.05v0.01c0,0.02,0,0.04-0.01,0.06l0,0c-0.01,0.07-0.01,0.14-0.02,0.21l0,0
		c-0.14,1.65-0.23,3.31-0.27,4.99l0,0c0,0.02,0,0.05,0,0.07l0,0c0,0.07,0,0.14,0,0.22c0,0,0,0,0,0.01c0,0.02,0,0.04,0,0.06
		c0,0.01,0,0.01,0,0.01c0,0.02,0,0.04,0,0.06l0,0c0,0.05,0,0.1,0,0.14l0,0c0,0.02,0,0.04,0,0.07c0,0.01,0,0.01,0,0.01
		c0,0.02,0,0.04,0,0.06c0,0.01,0,0.01,0,0.01c0,0.02,0,0.04,0,0.06c0,0,0,0,0,0.01c0,0.05,0,0.09,0,0.14c0,0.01,0,0.01,0,0.02
		c0,0.02,0,0.04,0,0.05c0,0.01,0,0.01,0,0.02c0,0.02,0,0.04,0,0.05c0,0.01,0,0.01,0,0.02c0,0.02,0,0.04,0,0.06l0,0
		c0,0.02,0,0.05,0,0.07c0,0.01,0,0.01,0,0.01c0,0.02,0,0.04,0,0.05c0,0.01,0,0.01,0,0.02c0,0.02,0,0.03,0,0.05c0,0.01,0,0.02,0,0.02
		c0,0.02,0,0.03,0,0.05c0,0.01,0,0.01,0,0.02c0,0.02,0,0.05,0,0.07l0,0l0,0c0,0.02,0,0.04,0,0.06c0,0.01,0,0.01,0,0.02
		c0,0.01,0,0.03,0,0.04s0,0.01,0,0.02c0,0.01,0,0.02,0,0.04c0,0.01,0,0.01,0,0.02c0,0.01,0,0.03,0,0.04s0,0.02,0,0.02
		c0,0.01,0,0.02,0,0.04c0,0.01,0,0.01,0,0.02c0,0.01,0,0.03,0,0.04s0,0.01,0,0.02c0,0.02,0,0.04,0,0.05l0,0c0,0.02,0,0.04,0,0.06
		c0,0.01,0,0.01,0,0.02c0,0.01,0,0.03,0,0.04s0,0.01,0,0.02c0,0.01,0,0.02,0,0.04c0,0.01,0,0.01,0,0.02c0,0.01,0,0.03,0,0.04
		s0,0.01,0,0.02c0,0.01,0,0.02,0,0.04c0,0.01,0,0.01,0,0.02c0,0.01,0,0.03,0,0.04s0,0.01,0,0.02c0,0.02,0,0.04,0,0.05l0,0
		c0,0.02,0,0.04,0,0.06c0,0,0,0,0,0.01c0,0.02,0,0.04,0,0.05c0,0.01,0,0.01,0,0.02c0,0.01,0,0.03,0,0.04s0,0.01,0,0.02
		c0,0.01,0,0.03,0,0.04s0,0.01,0,0.02c0,0.02,0,0.03,0,0.04s0,0.01,0,0.02c0,0.01,0,0.03,0,0.04s0,0.01,0,0.02c0,0.02,0,0.03,0,0.05
		l0,0c0,0.04,0,0.08,0,0.12v0.01c0,0.02,0,0.03,0,0.05c0,0.01,0,0.01,0,0.02c0,0.01,0,0.03,0,0.04v0.01c0,0.01,0,0.03,0,0.04v0.01
		c0,0.02,0,0.03,0,0.05v0.01c0,0.02,0,0.03,0,0.05l0,0c0,0.06,0,0.12,0,0.18v0.01c0,0.01,0,0.03,0,0.05v0.01c0,0.01,0,0.03,0,0.04
		v0.01c0,0.01,0,0.03,0,0.05v0.01c0,0.02,0,0.04,0,0.06l0,0c0,0.1,0.01,0.2,0.01,0.3v0.01c0,0.02,0,0.04,0,0.05l0,0
		c0,0.14,0.01,0.28,0.01,0.42l0,0c0.11,2.91,0.39,5.77,0.82,8.58l0,0c0,0.02,0.01,0.04,0.01,0.05l0,0c0,0.02,0.01,0.04,0.01,0.06
		l0,0c0.01,0.06,0.02,0.11,0.03,0.17c0,0,0,0,0,0.01s0.01,0.03,0.01,0.05c0,0.01,0,0.01,0,0.02c0,0.01,0,0.03,0.01,0.04
		c0,0.01,0,0.01,0,0.02c0,0.01,0,0.02,0.01,0.03c0,0.01,0,0.01,0,0.02c0,0.01,0,0.02,0.01,0.03c0,0.01,0,0.01,0,0.02
		c0,0.01,0,0.02,0.01,0.03c0,0.01,0,0.01,0,0.02c0,0.01,0,0.03,0.01,0.04c0,0.01,0,0.01,0,0.02c0,0.02,0.01,0.03,0.01,0.05
		c0,0.01,0,0.02,0.01,0.03c0,0.01,0,0.01,0,0.02c0,0.01,0,0.02,0.01,0.04c0,0,0,0.01,0,0.02c0,0.01,0,0.03,0.01,0.04v0.01
		c0,0.01,0,0.03,0.01,0.04v0.01c0,0.01,0,0.03,0.01,0.04c0,0,0,0,0,0.01c0,0.02,0.01,0.03,0.01,0.05l0,0
		c0.05,0.27,0.09,0.54,0.14,0.81c0.07,0.38,0.18,0.75,0.33,1.09c-0.01,0.37,0.03,0.75,0.11,1.13c0.55,2.61,1.24,5.18,2.06,7.68l0,0
		c0.1,0.31,0.2,0.61,0.31,0.92l0,0c0.1,0.31,0.21,0.61,0.32,0.91l0,0c0.15,0.41,0.3,0.82,0.45,1.23l0,0
		c0.26,0.69,0.53,1.37,0.81,2.05l0,0c0.01,0.02,0.02,0.04,0.03,0.06l0,0c0.33,0.81,0.68,1.6,1.04,2.4l0,0
		c0.04,0.08,0.08,0.17,0.11,0.25l0,0c0.04,0.08,0.08,0.17,0.11,0.25l0,0c7.48,16.3,20.71,29.4,37.08,36.76
		c0.67,0.3,1.36,0.44,2.05,0.44c1.91,0,3.73-1.1,4.56-2.95c1.13-2.52,0.01-5.48-2.51-6.61c-18.74-8.43-32.45-25.42-36.68-45.45
		c-0.07-0.33-0.17-0.64-0.3-0.94c0.01-0.32-0.02-0.65-0.08-0.98c-0.68-3.76-1.02-7.63-1.02-11.49c0-2.68,0.17-5.38,0.49-8.02
		c0.34-2.74-1.61-5.24-4.35-5.58C32.02,470.86,31.81,470.85,31.61,470.85L31.61,470.85z M68.69,417.7c-0.77,0-1.56,0.18-2.29,0.56
		c-0.17,0.09-0.33,0.17-0.5,0.26c0,0,0,0-0.01,0c-0.02,0.01-0.04,0.02-0.06,0.03l0,0c-0.04,0.02-0.08,0.04-0.12,0.07l0,0
		c-0.02,0.01-0.04,0.02-0.06,0.03c0,0-0.01,0-0.01,0.01c-0.02,0.01-0.03,0.02-0.05,0.03h-0.01c-0.04,0.02-0.08,0.04-0.12,0.06
		c0,0,0,0-0.01,0c-0.02,0.01-0.03,0.02-0.05,0.03c-0.01,0-0.01,0.01-0.02,0.01c-0.01,0.01-0.03,0.01-0.04,0.02
		c-0.01,0-0.01,0.01-0.02,0.01c-0.02,0.01-0.03,0.02-0.05,0.03h-0.01c-0.02,0.01-0.04,0.02-0.06,0.03c-0.01,0-0.02,0.01-0.02,0.01
		c-0.01,0.01-0.02,0.01-0.03,0.02c-0.01,0-0.02,0.01-0.03,0.01c-0.01,0.01-0.02,0.01-0.03,0.02c-0.01,0-0.02,0.01-0.03,0.02
		c-0.01,0-0.01,0.01-0.02,0.01c-0.22,0.12-0.45,0.24-0.67,0.37c-2.4,1.35-3.26,4.38-1.92,6.79c0.91,1.64,2.62,2.57,4.37,2.57
		c0.82,0,1.66-0.2,2.43-0.63c0.57-0.32,1.15-0.63,1.72-0.92c2.45-1.27,3.41-4.29,2.14-6.74C72.25,418.69,70.5,417.7,68.69,417.7
		L68.69,417.7z M100.59,409.97c-0.02,0-0.04,0-0.06,0c-0.01,0-0.01,0-0.02,0c-0.01,0-0.03,0-0.04,0s-0.01,0-0.02,0
		c-0.01,0-0.02,0-0.04,0c-0.01,0-0.01,0-0.02,0c-0.01,0-0.02,0-0.04,0c-0.01,0-0.01,0-0.02,0c-0.01,0-0.03,0-0.04,0s-0.01,0-0.02,0
		c-0.02,0-0.04,0-0.06,0h-0.01c-0.02,0-0.03,0-0.05,0c-0.01,0-0.01,0-0.02,0c-0.01,0-0.02,0-0.03,0s-0.02,0-0.03,0s-0.02,0-0.03,0
		s-0.01,0-0.02,0c-0.01,0-0.03,0-0.04,0s-0.01,0-0.02,0c-0.02,0-0.03,0-0.05,0H99.9c-0.02,0-0.04,0-0.06,0h-0.01
		c-0.02,0-0.03,0-0.05,0h-0.01c-0.02,0-0.03,0-0.04,0s-0.01,0-0.02,0c-0.02,0-0.02,0-0.04,0c-0.01,0-0.01,0-0.02,0
		c-0.01,0-0.03,0-0.04,0s-0.01,0-0.02,0c-0.04,0-0.07,0-0.11,0h-0.01c-0.02,0-0.03,0-0.05,0h-0.01c-0.02,0-0.03,0-0.04,0
		s-0.01,0-0.02,0c-0.02,0-0.03,0-0.04,0H99.3c-0.02,0-0.03,0-0.05,0h-0.01c-0.04,0-0.07,0-0.11,0h-0.01c-0.02,0-0.03,0-0.05,0
		c-0.01,0-0.01,0-0.01,0c-0.02,0-0.03,0-0.04,0h-0.01c-0.02,0-0.03,0-0.05,0c0,0,0,0-0.01,0c-0.02,0-0.04,0-0.06,0l0,0
		c-0.04,0-0.08,0-0.12,0c0,0,0,0-0.01,0s-0.04,0-0.05,0H98.7c-0.02,0-0.03,0-0.04,0s-0.01,0-0.02,0c-0.02,0-0.03,0-0.05,0h-0.01
		c-0.06,0-0.12,0-0.18,0l0,0c-0.02,0-0.04,0-0.06,0l0,0c-0.02,0-0.04,0-0.06,0l0,0c-0.1,0-0.2,0.01-0.3,0.01l0,0
		c-3.11,0.11-6.17,0.4-9.17,0.88l0,0c-0.02,0-0.04,0.01-0.06,0.01l0,0c-0.08,0.01-0.15,0.02-0.23,0.04h-0.01
		c-0.01,0-0.03,0.01-0.05,0.01h-0.01c-0.01,0-0.03,0-0.04,0.01c-0.01,0-0.01,0-0.02,0c-0.01,0-0.03,0-0.04,0.01h-0.01
		c-0.02,0-0.03,0.01-0.05,0.01h-0.01c-0.01,0-0.03,0-0.04,0.01c-0.01,0-0.02,0-0.02,0c-0.01,0-0.02,0-0.03,0s-0.02,0-0.03,0
		s-0.01,0-0.02,0c-0.01,0-0.02,0-0.03,0s-0.02,0-0.02,0c-0.01,0-0.02,0-0.03,0.01h-0.01c-0.05,0.01-0.09,0.02-0.14,0.02l0,0
		c-0.03,0.01-0.06,0.01-0.1,0.02l0,0c-0.03,0.01-0.06,0.01-0.1,0.02c-2.72,0.47-4.54,3.06-4.07,5.78c0.42,2.43,2.53,4.14,4.92,4.14
		c0.28,0,0.57-0.02,0.86-0.07c3.65-0.64,7.4-0.96,11.14-0.96l0,0h22.6c2.76,0,5-2.24,5-5s-2.24-5-5-5h-22.57V409.97z"/>
</g>
<g>
	<path class="st45" d="M600.2,411.11c0-2.76,2.24-5,5-5c7.1,0,14.07-1.08,20.71-3.22c2.63-0.85,5.44,0.6,6.29,3.23
		s-0.6,5.45-3.23,6.29c-7.63,2.45-15.62,3.7-23.77,3.7C602.43,416.11,600.2,413.88,600.2,411.11z M671.22,363.19
		c-2.72-0.46-4.56-3.04-4.1-5.76c0.11-0.68,0.22-1.36,0.3-2.04c0.35-2.74,2.86-4.67,5.6-4.32s4.67,2.86,4.32,5.6
		c-0.11,0.81-0.22,1.62-0.36,2.43c-0.41,2.44-2.53,4.17-4.92,4.17C671.78,363.27,671.5,363.24,671.22,363.19z M666.09,334.91
		c-5.45-20.57-22.68-36.67-44.97-42.04c-0.35-0.08-0.69-0.2-1-0.35c-0.32-0.01-0.7-0.03-1.05-0.11c-4.52-0.94-9.18-1.41-13.86-1.41
		c0,0,0,0-0.01,0h-7.6c-2.76,0-5-2.24-5-5s2.24-5,5-5h7.6c0,0,0,0,0.01,0c5.36,0,10.71,0.55,15.9,1.62
		c0.41,0.08,0.79,0.22,1.15,0.39c0.4,0,0.8,0.04,1.21,0.14c25.87,6.23,45.91,25.08,52.3,49.2c0.71,2.67-0.88,5.41-3.55,6.11
		c-0.43,0.11-0.86,0.17-1.28,0.17C668.71,338.63,666.68,337.15,666.09,334.91z M140.9,285.99c0-2.76,2.24-5,5-5h2.26
		c2.76,0,5,2.24,5,5s-2.24,5-5,5h-2.26C143.14,290.99,140.9,288.75,140.9,285.99z M213.16,285.99c0-2.76,2.24-5,5-5h22.6
		c0.39,0,0.77,0.04,1.13,0.13c0.36-0.08,0.74-0.13,1.13-0.13h70c2.76,0,5,2.24,5,5s-2.24,5-5,5h-70c-0.39,0-0.77-0.04-1.13-0.13
		c-0.36,0.08-0.74,0.13-1.13,0.13h-22.6C215.4,290.99,213.16,288.75,213.16,285.99z M330.62,285.99c0-2.76,2.24-5,5-5h2.26
		c2.76,0,5,2.24,5,5s-2.24,5-5,5h-2.26C332.86,290.99,330.62,288.75,330.62,285.99z M402.88,285.99c0-2.76,2.24-5,5-5h22.6
		c0.39,0,0.77,0.04,1.13,0.13c0.36-0.08,0.74-0.13,1.13-0.13h70c2.76,0,5,2.24,5,5s-2.24,5-5,5h-70c-0.39,0-0.77-0.04-1.13-0.13
		c-0.36,0.08-0.74,0.13-1.13,0.13h-22.6C405.12,290.99,402.88,288.75,402.88,285.99z M520.33,285.99c0-2.76,2.24-5,5-5h2.26
		c2.76,0,5,2.24,5,5s-2.24,5-5,5h-2.26C522.57,290.99,520.33,288.75,520.33,285.99z"/>
</g>
<path class="st45" d="M108.65,214.59v-66.66c0-4.05,3.41-7.33,7.62-7.33h31.96c4.21,0,7.62-3.28,7.62-7.33v-68
	c0-4.05,3.41-7.33,7.62-7.33h72.81c4.21,0,7.62,3.28,7.62,7.33v152.04c0,4.05,3.41,7.33,7.62,7.33h40.41c4.21,0,7.62-3.28,7.62-7.33
	v-52.43c0-4.05,3.41-7.33,7.62-7.33h31.25c4.21,0,7.62,3.28,7.62,7.33v118.84c0,4.05-3.41,7.33-7.62,7.33h-21.96h-16.9h-55.64
	h-28.88h-45.08h-14.09h-30.29h-16.9H59.21c-4.21,0-7.62-3.28-7.62-7.33v-54.46c0-4.05,3.41-7.33,7.62-7.33h41.82
	C105.24,221.92,108.65,218.64,108.65,214.59z"/>
<g>
	<path class="st45" d="M583.33,353.6h79.09c16.9,0,30.6-13.7,30.6-30.6V207.55c0-16.9,13.7-30.6,30.6-30.6h160.95
		c2.62,0,5.09,0.62,7.28,1.71c5.41,2.71,8.65,8.42,8.65,14.47v366.99h-71.09H718.99h-25.98H552.74V384.2
		C552.74,367.3,566.44,353.6,583.33,353.6z"/>
</g>
<path class="st23" d="M600.34,420.8h-15.86c-5.93,0-10.73-4.81-10.73-10.73V394.2c0-5.93,4.81-10.73,10.73-10.73h15.86
	c5.93,0,10.73,4.81,10.73,10.73v15.86C611.07,415.99,606.27,420.8,600.34,420.8z"/>
<path class="st23" d="M669.26,481.39H653.4c-5.93,0-10.73-4.81-10.73-10.73V454.8c0-5.93,4.81-10.73,10.73-10.73h15.86
	c5.93,0,10.73,4.81,10.73,10.73v15.86C680,476.58,675.19,481.39,669.26,481.39z"/>
<path class="st23" d="M866.45,280.69h-15.86c-5.93,0-10.73-4.81-10.73-10.73V254.1c0-5.93,4.81-10.73,10.73-10.73h15.86
	c5.93,0,10.73,4.81,10.73,10.73v15.86C877.19,275.88,872.38,280.69,866.45,280.69z"/>
<path class="st23" d="M747.23,330.47h-15.86c-5.93,0-10.73-4.81-10.73-10.73v-15.86c0-5.93,4.81-10.73,10.73-10.73h15.86
	c5.93,0,10.73,4.81,10.73,10.73v15.86C757.97,325.66,753.16,330.47,747.23,330.47z"/>
<path class="st23" d="M811.45,409.67h-15.86c-5.93,0-10.73-4.81-10.73-10.73v-15.86c0-5.93,4.81-10.73,10.73-10.73h15.86
	c5.93,0,10.73,4.81,10.73,10.73v15.86C822.18,404.87,817.38,409.67,811.45,409.67z"/>
<path class="st23" d="M815.2,457.47h-23.35c-9.59,0-17.36,7.77-17.36,17.36v85.29h58.07v-85.29
	C832.56,465.25,824.78,457.47,815.2,457.47z"/>
<linearGradient id="SVGID_2_" gradientUnits="userSpaceOnUse" x1="-1289.0393" y1="-1254.4049" x2="-1289.0393" y2="-1865.1844" gradientTransform="matrix(-1 0 0 -1 -562.4293 -991.408)">
	<stop  offset="0" style="stop-color:#FAFDFF"/>
	<stop  offset="0.2042" style="stop-color:#E7F4F8"/>
	<stop  offset="0.4419" style="stop-color:#DAEEF2"/>
	<stop  offset="0.6975" style="stop-color:#D0EAEE"/>
	<stop  offset="1" style="stop-color:#CDE8ED"/>
</linearGradient>
<path class="st8" d="M691.32,160.13h13.3c0-17.43,13.99-31.55,31.24-31.55s31.24,14.13,31.24,31.55c0,0.14-0.01,0.28-0.01,0.43
	c15.36,2.51,27.09,15.96,27.09,32.18l0,0c0,18.01-14.45,32.6-32.28,32.6h-70.58c-17.83,0-32.28-14.6-32.28-32.6l0,0
	C659.04,174.73,673.49,160.13,691.32,160.13z"/>
<linearGradient id="SVGID_3_" gradientUnits="userSpaceOnUse" x1="-1370.4993" y1="-1167.2655" x2="-1370.4993" y2="-1413.8685" gradientTransform="matrix(-1 0 0 -1 -562.4293 -991.408)">
	<stop  offset="0" style="stop-color:#FAFDFF"/>
	<stop  offset="0.2042" style="stop-color:#E7F4F8"/>
	<stop  offset="0.4419" style="stop-color:#DAEEF2"/>
	<stop  offset="0.6975" style="stop-color:#D0EAEE"/>
	<stop  offset="1" style="stop-color:#CDE8ED"/>
</linearGradient>
<path class="st10" d="M793.82,134.33h5.37c0-7.04,5.65-12.74,12.61-12.74s12.61,5.7,12.61,12.74c0,0.06,0,0.11,0,0.17
	c6.2,1.01,10.94,6.44,10.94,12.99l0,0c0,7.27-5.84,13.16-13.03,13.16h-28.5c-7.2,0-13.03-5.89-13.03-13.16l0,0
	C780.78,140.22,786.62,134.33,793.82,134.33z"/>
<linearGradient id="SVGID_4_" gradientUnits="userSpaceOnUse" x1="508.0397" y1="-1102.6708" x2="508.0397" y2="-1272.2869" gradientTransform="matrix(1 0 0 -1 -338.2297 -991.408)">
	<stop  offset="0" style="stop-color:#FAFDFF"/>
	<stop  offset="0.2042" style="stop-color:#E7F4F8"/>
	<stop  offset="0.4419" style="stop-color:#DAEEF2"/>
	<stop  offset="0.6975" style="stop-color:#D0EAEE"/>
	<stop  offset="1" style="stop-color:#CDE8ED"/>
</linearGradient>
<path class="st14" d="M179.61,82.7h-3.69c0-4.84-3.88-8.76-8.68-8.76s-8.68,3.92-8.68,8.76c0,0.04,0,0.08,0,0.12
	c-4.26,0.7-7.52,4.43-7.52,8.94l0,0c0,5,4.01,9.05,8.97,9.05h19.6c4.95,0,8.97-4.05,8.97-9.05l0,0
	C188.58,86.75,184.56,82.7,179.61,82.7z"/>
<g>
	<path class="st0" d="M382.47,60.72c-0.84,0-1.65-0.34-2.25-0.93l-16.46-16.46c-1.24-1.24-1.24-3.26,0-4.5s3.26-1.24,4.5,0
		l14.21,14.21l14.21-14.21c1.24-1.24,3.26-1.24,4.5,0s1.24,3.26,0,4.5l-16.46,16.46C384.12,60.39,383.31,60.72,382.47,60.72z"/>
</g>
<g>
	<path class="st0" d="M350.1,101.3c-0.49,0-0.98-0.19-1.35-0.56l-10.51-10.51c-0.75-0.75-0.75-1.95,0-2.7s1.95-0.75,2.7,0l9.16,9.16
		l9.16-9.16c0.75-0.75,1.95-0.75,2.7,0s0.75,1.96,0,2.7l-10.51,10.51C351.08,101.11,350.59,101.3,350.1,101.3z"/>
</g>
<g>
	<path class="st0" d="M412.55,116.72c-0.49,0-0.98-0.19-1.35-0.56l-13.62-13.62c-0.75-0.75-0.75-1.95,0-2.7s1.95-0.75,2.7,0
		l12.27,12.27l12.27-12.27c0.75-0.75,1.95-0.75,2.7,0s0.75,1.96,0,2.7l-13.62,13.62C413.52,116.54,413.04,116.72,412.55,116.72z"/>
</g>
<path class="st49" d="M592.59,238.77c-6.08,0-11.02-4.94-11.02-11.02s4.94-11.02,11.02-11.02s11.02,4.94,11.02,11.02
	S598.67,238.77,592.59,238.77z M592.59,221.67c-3.35,0-6.08,2.73-6.08,6.08s2.73,6.08,6.08,6.08c3.35,0,6.08-2.73,6.08-6.08
	S595.95,221.67,592.59,221.67z"/>
<path class="st50" d="M116.16,347.31l-7.01-0.03l0.04-7.89c0.01-1.3-1.44-2.37-3.23-2.38s-3.25,1.04-3.26,2.35l-0.04,7.89
	l-7.01-0.03c-1.79-0.01-3.25,1.44-3.26,3.23s1.44,3.25,3.23,3.26l7.01,0.03l-0.04,7.89c-0.01,1.3,1.44,2.37,3.23,2.38
	s3.25-1.04,3.26-2.35l0.04-7.89l7.01,0.03c1.79,0.01,3.25-1.44,3.26-3.23C119.39,348.78,117.95,347.32,116.16,347.31z"/>
<circle class="st20" cx="134.62" cy="544.14" r="6.43"/>
<circle class="st51" cx="297.01" cy="115.45" r="6.74"/>
<path class="st33" d="M527.09,59.19l-2.3,2.3l-2.59-2.59c-0.43-0.43-1.25-0.3-1.84,0.29s-0.72,1.41-0.29,1.84l2.59,2.59l-2.3,2.3
	c-0.59,0.59-0.59,1.54,0,2.13s1.54,0.59,2.13,0l2.3-2.3l2.59,2.59c0.43,0.43,1.25,0.3,1.84-0.29c0.59-0.59,0.72-1.41,0.29-1.84
	l-2.59-2.59l2.3-2.3c0.59-0.59,0.59-1.54,0-2.13C528.63,58.6,527.68,58.6,527.09,59.19z"/>
<path class="st7" d="M345.04,415.91v0.16c0,0.7-0.57,1.27-1.27,1.27h-8.69c-0.7,0-1.27-0.57-1.27-1.27v-0.16
	c0-0.7,0.57-1.27,1.27-1.27h8.69C344.47,414.64,345.04,415.21,345.04,415.91z"/>
<path class="st7" d="M339.43,410.38L339.43,410.38c0.74,0,1.35,0.44,1.35,0.98v9.26c0,0.54-0.6,0.98-1.35,0.98l0,0
	c-0.74,0-1.35-0.44-1.35-0.98v-9.26C338.08,410.82,338.69,410.38,339.43,410.38z"/>
<path class="st4" d="M209.35,323.91l9.15,2.51c1.18,0.33,2.41-0.37,2.73-1.56l0.08-0.27c0.33-1.18-0.37-2.41-1.56-2.73l-9.15-2.51
	c-1.18-0.33-2.41,0.37-2.73,1.56l-0.08,0.27C207.47,322.36,208.17,323.59,209.35,323.91z"/>
<path class="st52" d="M215.96,559.99h5.76c1.81,0,3.28-1.47,3.28-3.28v-53.89c0-1.81-1.47-3.28-3.28-3.28h-5.76
	c-1.81,0-3.28,1.47-3.28,3.28v53.89C212.68,558.52,214.15,559.99,215.96,559.99z"/>
<path class="st52" d="M250.26,559.99h5.76c1.81,0,3.28-1.47,3.28-3.28v-53.89c0-1.81-1.47-3.28-3.28-3.28h-5.76
	c-1.81,0-3.28,1.47-3.28,3.28v53.89C246.97,558.52,248.44,559.99,250.26,559.99z"/>
<path class="st38" d="M210.42,420.08h49.7c3.01,0,5.44-2.44,5.44-5.44v-25.8c0-3.01-2.44-5.44-5.44-5.44h-49.7
	c-3.01,0-5.44,2.44-5.44,5.44v25.8C204.97,417.64,207.41,420.08,210.42,420.08z"/>
<rect x="264.44" y="304.58" transform="matrix(0.9727 -0.2319 0.2319 0.9727 -69.6238 72.3279)" class="st53" width="16.76" height="55.42"/>
<circle class="st53" cx="279.23" cy="357.86" r="8.75"/>
<rect x="288.63" y="343.23" transform="matrix(0.2645 -0.9644 0.9644 0.2645 -131.4276 553.2906)" class="st53" width="16.79" height="39.16"/>
<path class="st38" d="M221.47,378.76h27.69c7.19,0,13.22-5.35,13.96-12.4l11.28-60.11c0.87-8.17-5.63-15.27-13.96-15.27h-50.38
	c-8.32,0-14.81,7.08-13.97,15.24l11.41,60.11C208.23,373.39,214.27,378.76,221.47,378.76z"/>
<rect x="204.98" y="350.11" class="st38" width="60.58" height="49.88"/>
<circle class="st38" cx="175.45" cy="355.69" r="9.11"/>
<rect x="159.63" y="322.63" transform="matrix(0.4925 -0.8703 0.8703 0.4925 -192.0314 332.5368)" class="st38" width="58.98" height="16.59"/>
<rect x="312.24" y="364.14" transform="matrix(0.2645 -0.9644 0.9644 0.2645 -120.3094 580.8224)" class="st52" width="16.79" height="10.3"/>
<path class="st38" d="M242.66,481.15h19.53c1.81,0,3.28-1.47,3.28-3.28v-78.65c0-1.81-1.47-3.28-3.28-3.28h-19.53
	c-1.81,0-3.28,1.47-3.28,3.28v78.65C239.37,479.68,240.84,481.15,242.66,481.15z"/>
<path class="st38" d="M208.35,559.77h19.53c1.81,0,3.28-1.47,3.28-3.28v-78.94c0-1.81-1.47-3.28-3.28-3.28h-19.53
	c-1.81,0-3.28,1.47-3.28,3.28v78.94C205.07,558.3,206.54,559.77,208.35,559.77z"/>
<path class="st38" d="M208.35,481.15h19.53c1.81,0,3.28-1.47,3.28-3.28v-78.65c0-1.81-1.47-3.28-3.28-3.28h-19.53
	c-1.81,0-3.28,1.47-3.28,3.28v78.65C205.07,479.68,206.54,481.15,208.35,481.15z"/>
<path class="st53" d="M242.66,559.96h19.53c1.81,0,3.28-1.47,3.28-3.28v-79.12c0-1.81-1.47-3.28-3.28-3.28h-19.53
	c-1.81,0-3.28,1.47-3.28,3.28v79.12C239.37,558.49,240.84,559.96,242.66,559.96z"/>
<circle class="st38" cx="252.42" cy="476.73" r="13.05"/>
<circle class="st38" cx="218.11" cy="476.39" r="13.05"/>
<path class="st53" d="M231.11,557.37c-0.01-6.39-5.84-11.56-13.02-11.54c-7.18,0.01-12.98,5.2-12.97,11.59L231.11,557.37"/>
<polyline class="st38" points="231.13,559.96 205.14,560.02 205.13,557.39 231.12,557.34 "/>
<path class="st38" d="M271.71,557.04c-0.01-6.81-6.61-12.31-14.73-12.3c-8.12,0.02-14.69,5.55-14.68,12.35L271.71,557.04"/>
<rect x="172.43" y="351.5" transform="matrix(0.9341 -0.357 0.357 0.9341 -119.6996 88.8129)" class="st38" width="16.59" height="34.3"/>
<polyline class="st53" points="271.72,559.9 242.31,559.96 242.3,556.9 271.71,556.84 "/>
<rect x="204.98" y="399.99" class="st53" width="60.58" height="7.32"/>
<rect x="181.38" y="383.79" transform="matrix(0.9341 -0.357 0.357 0.9341 -127.4771 93.5522)" class="st13" width="16.59" height="16.59"/>
<circle class="st53" cx="238.83" cy="370.93" r="2.1"/>
<circle class="st3" cx="191.41" cy="404.03" r="12.93"/>
<g>
	<polygon class="st52" points="236.55,309.22 233.79,329.52 223.69,290.69 254.18,290.69 243.86,329.52 241.69,309.22 	"/>
	<polygon class="st2" points="233.79,329.52 236.55,309.22 241.69,309.22 243.86,329.52 238.77,348.68 	"/>
</g>
<linearGradient id="SVGID_5_" gradientUnits="userSpaceOnUse" x1="-1170.6555" y1="-1116.8235" x2="-1173.7374" y2="-1129.9841" gradientTransform="matrix(-0.9874 -0.158 0.158 -0.9874 -732.4342 -1042.1135)">
	<stop  offset="0" style="stop-color:#1D627E"/>
	<stop  offset="1" style="stop-color:#6495B4"/>
</linearGradient>
<path class="st15" d="M232.49,248.7c-1.84,10.57,3.35,20.31,11.6,21.74c8.25,1.44,16.42-5.97,18.26-16.54
	c1.84-10.57-3.35-20.31-11.6-21.74S234.33,238.13,232.49,248.7z"/>
<linearGradient id="SVGID_6_" gradientUnits="userSpaceOnUse" x1="-864.4704" y1="-1268.478" x2="-856.4867" y2="-1294.871" gradientTransform="matrix(-0.9997 -0.0253 0.0253 -0.9997 -586.4067 -1057.5848)">
	<stop  offset="0" style="stop-color:#1D627E"/>
	<stop  offset="1" style="stop-color:#6495B4"/>
</linearGradient>
<path class="st16" d="M224.97,247.37c-1.83,10.48,3.38,20.14,11.63,21.58c8.25,1.44,16.41-5.9,18.24-16.38s-3.38-20.14-11.63-21.58
	C234.96,229.55,226.79,236.89,224.97,247.37z"/>
<path class="st5" d="M239.31,301.58h-1c-4.31,0-7.81-3.5-7.81-7.81v-17.21c0-4.31,3.5-7.81,7.81-7.81h1c4.31,0,7.81,3.5,7.81,7.81
	v17.21C247.11,298.08,243.62,301.58,239.31,301.58z"/>
<path class="st56" d="M234.17,282.38l9.28,1.39c6.95,1.21,13.56-3.46,14.78-10.43l2.48-21.67c1.21-6.97-3.43-13.6-10.38-14.81
	l-5.98-0.77c-6.95-1.21-13.56,3.46-14.78,10.43l-4.51,21.11C223.84,274.6,227.22,281.17,234.17,282.38z"/>
<circle class="st56" cx="225.74" cy="256.97" r="5.08"/>
<circle class="st5" cx="225.99" cy="257.62" r="2.02"/>
<linearGradient id="SVGID_7_" gradientUnits="userSpaceOnUse" x1="-195.0041" y1="-1572.623" x2="-175.5487" y2="-1592.0785" gradientTransform="matrix(-0.9107 0.2241 -0.2371 -0.9091 -298.9232 -1155.6262)">
	<stop  offset="0" style="stop-color:#1D627E"/>
	<stop  offset="1" style="stop-color:#6495B4"/>
</linearGradient>
<path class="st17" d="M263.24,240.32l-8.93-6.13c-9.02-6.19-21.28-3.99-27.39,4.9l0,0c-0.51,0.74-0.31,1.76,0.44,2.27l8.93,6.13
	c9.02,6.19,21.28,3.99,27.39-4.9l0,0C264.18,241.85,263.99,240.84,263.24,240.32z"/>
<linearGradient id="SVGID_8_" gradientUnits="userSpaceOnUse" x1="544.845" y1="-1473.3231" x2="560.7407" y2="-1489.2188" gradientTransform="matrix(-0.8639 0.5037 -0.5037 -0.8639 -26.5389 -1321.147)">
	<stop  offset="0" style="stop-color:#1D627E"/>
	<stop  offset="1" style="stop-color:#6495B4"/>
</linearGradient>
<path class="st18" d="M256.98,231.6l-8.88-2.96c-8.97-2.99-18.67,1.86-21.66,10.83l0,0c-0.25,0.75,0.15,1.55,0.9,1.8l8.88,2.96
	c8.97,2.99,18.67-1.86,21.66-10.83l0,0C258.13,232.65,257.72,231.84,256.98,231.6z"/>
<path class="st59" d="M242.1,256.13c0.94,0.24,1.21-0.85,0.46-1.47c-1.56-1.3-5.79-2.69-5.75,0.26
	C236.85,258.14,237.88,255.06,242.1,256.13z"/>
<path class="st59" d="M250.82,257.09c-1-0.11-0.86-1.25,0.08-1.59c1.97-0.7,6.57-0.53,5.47,2.31
	C255.17,260.91,255.28,257.57,250.82,257.09z"/>
<path class="st5" d="M247.64,263.07c0.55,1.94,2.9,7.46-3,8.39C238.75,272.38,244.79,253.01,247.64,263.07z"/>
<path class="st37" d="M247.95,276.49c-4.58,1.02-12.07,0.67-14.09-8.94c-0.08-0.4,0.49-0.74,0.63-0.36
	c1.22,3.31,5.76,8.47,13.48,8.57C248.41,275.77,248.37,276.39,247.95,276.49z"/>
<path class="st37" d="M235.51,266.01c0.2-0.23,0.55-0.05,0.39,0.21c-0.51,0.84-2.59,2.6-3.74,0.93
	C231.13,265.63,234.09,267.67,235.51,266.01z"/>
<path class="st5" d="M238.72,277.76c-0.78-0.12-1.4,0.62-1.15,1.37c0.38,1.16,1.38,2.07,2.67,2.28s2.52-0.35,3.24-1.33
	c0.46-0.63,0.11-1.54-0.67-1.66L238.72,277.76z"/>
<path class="st12" d="M252.72,262.52c0.36,0.3,0.87-0.08,0.8-0.59c-0.12-0.78-0.51-1.75-1.53-2.19c-1.71-0.73-3.03,0.3-3.08,0.72
	s1.68,0.07,3.07,1.39C252.3,262.15,252.54,262.37,252.72,262.52z"/>
<path class="st12" d="M238.09,259.8c-0.4,0.16-0.75-0.33-0.53-0.75c0.33-0.65,0.95-1.39,1.98-1.48c1.72-0.15,2.58,1.14,2.5,1.52
	c-0.08,0.38-1.5-0.42-3.1,0.33C238.57,259.6,238.29,259.72,238.09,259.8z"/>
<polygon class="st2" points="231.03,307.41 238.93,315.31 246.83,307.41 238.93,302.02 "/>
<polyline class="st53" points="247.16,317.28 263.93,307.53 254.19,290.76 "/>
<polyline class="st53" points="230.67,317.32 214.03,307.35 224,290.72 "/>
<polygon class="st13" points="236.36,305.39 248.51,312.03 254.18,290.69 247.18,286.65 "/>
<polygon class="st13" points="241.5,305.39 229.43,312.37 223.69,290.69 230.68,286.65 "/>
<circle class="st53" cx="238.83" cy="357.58" r="2.1"/>
<circle class="st53" cx="238.83" cy="384.48" r="2.1"/>
<polyline class="st53" points="241.2,339.79 247.15,317.34 257.95,320.2 "/>
<polyline class="st53" points="236.59,339.79 230.64,317.34 219.84,320.2 "/>
<g>
	<circle class="st30" cx="379.83" cy="350.83" r="3.05"/>
</g>
<g>
	<circle class="st60" cx="310.88" cy="384.73" r="2.71"/>
</g>
<g>
	<path class="st9" d="M323.55,335.55c-3.03,0-5.5-2.47-5.5-5.5s2.47-5.5,5.5-5.5s5.5,2.47,5.5,5.5S326.58,335.55,323.55,335.55z
		 M323.55,326.73c-1.82,0-3.31,1.48-3.31,3.31s1.48,3.31,3.31,3.31s3.31-1.48,3.31-3.31S325.37,326.73,323.55,326.73z"/>
</g>
<g>
	<path class="st7" d="M349.7,359.07c-2.07,0-3.75-1.68-3.75-3.75s1.68-3.75,3.75-3.75s3.75,1.68,3.75,3.75
		S351.76,359.07,349.7,359.07z M349.7,353.06c-1.24,0-2.26,1.01-2.26,2.26s1.01,2.26,2.26,2.26s2.26-1.01,2.26-2.26
		S350.94,353.06,349.7,353.06z"/>
</g>
<path class="st33" d="M539.75,133.9H378.33c-24.11,0-43.66,19.55-43.66,43.66l0,0c0,1.2,0.06,2.39,0.16,3.56l-0.01-0.01v54.44
	c0,3.71,3.94,6.09,7.22,4.38l34.75-18.16c0.71-0.37,1.48-0.56,2.28-0.56c10.78,0,160.68,0.01,160.68,0.01
	c24.11,0,43.66-19.55,43.66-43.66l0,0C583.4,153.44,563.86,133.9,539.75,133.9z"/>
<rect x="395.18" y="162.06" class="st42" width="69.45" height="66.89"/>
<path class="st43" d="M258.17,274.09l1.14-8.86c-5.49,3.93-16.16,2.63-28.56-3.68c0.32,3.04-0.25,6.2-1.85,9.07
	c-1.01,1.8-2.33,3.32-3.86,4.53c1.22,3.93,4.19,6.99,8.69,7.82l9.37,1.51C250.12,285.77,256.86,281.13,258.17,274.09z"/>
<path class="st23" d="M256.57,274.56l0.4-3.21c0.2-1.59-1.28-2.83-2.84-2.44c-4.37,1.08-10.55,0.04-18.57-3.84
	c-0.99-0.48-2.18,0.15-2.27,1.25c-0.14,1.8-0.67,3.6-1.61,5.28c-0.61,1.09-1.36,2.06-2.21,2.9c-0.68,0.67-0.84,1.73-0.41,2.58
	c1.28,2.53,3.56,4.42,6.73,5.01l7.97,1.29C249.72,284.49,255.46,280.54,256.57,274.56z"/>
<path class="st43" d="M228.15,252.69c-0.69-2.22,4.6,8.72,5.07,10.53s-2.38-1.33-2.38-1.33S231.03,262,228.15,252.69z"/>
<path class="st43" d="M226.05,262.01c0,0-1.88,10.71,0.69,11.57l-1.45,2.28c-2.93-3.69,0.63-13.62,0.63-13.62"/>
<path class="st43" d="M252.34,271.82c-4.23,1.14-8.98-0.36-12.47-2c-0.8-0.37-1.48,0.7-0.8,1.25c2.55,2.05,5.88,4,9.05,3.62
	c2.12-0.26,3.67-0.84,4.79-1.51C253.65,272.74,253.16,271.6,252.34,271.82z"/>
<path class="st43" d="M250.2,277.66c-4.81,1.44-10.16-0.72-13.54-2.57c-0.52-0.28-1.01,0.41-0.57,0.8c2.37,2.12,5.94,4.53,9.59,4.09
	c2.19-0.26,3.78-0.81,4.92-1.41C251.12,278.29,250.77,277.49,250.2,277.66z"/>
<g>
	<path class="st41" d="M392.32,184.91l2.66-3.42c1.66,1.73,4.28,2.74,6.62,2.74c2.92,0,4.54-1.26,4.54-3.06
		c0-1.91-1.48-2.77-4.82-2.77c-1.01,0-2.63,0.04-2.99,0.07v-4.61c0.43,0.04,2.09,0.04,2.99,0.04c2.66,0,4.43-0.79,4.43-2.56
		c0-1.91-1.94-2.84-4.46-2.84c-2.3,0-4.39,0.86-6.08,2.48l-2.56-3.2c1.94-2.2,4.97-3.82,9.18-3.82c5.62,0,9.07,2.52,9.07,6.52
		c0,3.02-2.59,5-5.25,5.47c2.45,0.25,5.62,2.16,5.62,5.76c0,4.14-3.71,7.06-9.47,7.06C397.35,188.77,394.08,187.07,392.32,184.91z"
		/>
	<path class="st41" d="M441.89,186.1v8.85h-4.57v-24.01h4.57v2.2c1.33-1.69,3.24-2.63,5.36-2.63c4.46,0,7.7,3.31,7.7,9.11
		c0,5.8-3.24,9.14-7.7,9.14C445.2,188.77,443.29,187.9,441.89,186.1z M450.2,179.62c0-2.99-1.76-5.04-4.39-5.04
		c-1.48,0-3.17,0.86-3.92,1.98v6.16c0.76,1.08,2.45,1.98,3.92,1.98C448.44,184.7,450.2,182.65,450.2,179.62z"/>
	<path class="st41" d="M497.22,188.33l-4.61-6.7l-2.09,2.23v4.46h-4.57v-17.39h4.57v7.74l6.59-7.74h5.62l-6.88,7.88l7.09,9.5H497.22
		z"/>
	<path class="st41" d="M521.19,188.33v-11.3l-4.64,11.3h-2.09l-4.68-11.3v11.3h-4.57v-17.39h6.01l4.28,10.37l4.21-10.37h6.05v17.39
		H521.19z"/>
</g>
<path class="st41" d="M475.96,170.66l-11.47,19.86c-0.25,0.44-0.81,0.59-1.25,0.33l-1.69-0.98c-0.44-0.25-0.59-0.81-0.33-1.25
	l11.47-19.86c0.25-0.44,0.81-0.59,1.25-0.33l1.69,0.98C476.06,169.66,476.21,170.22,475.96,170.66z"/>
<path class="st41" d="M414.15,176.04c0-6.19,3.06-12.38,9.93-12.38c6.84,0,9.93,6.19,9.93,12.38s-3.1,12.42-9.93,12.42
	C417.21,188.46,414.15,182.23,414.15,176.04z M428.8,176.04c0-4.43-1.3-7.85-4.72-7.85c-3.46,0-4.75,3.42-4.75,7.85
	s1.3,7.88,4.75,7.88C427.51,183.93,428.8,180.47,428.8,176.04z"/>
<g>
	<polygon class="st5" points="340.91,356.91 384.7,373.83 376.81,394.25 342.28,380.91 	"/>
</g>
<g>
	<circle class="st5" cx="335.49" cy="370.8" r="14.85"/>
</g>
<g>
	<rect x="453.9" y="298.43" class="st45" width="4.19" height="20.26"/>
</g>
<g>
	<path class="st45" d="M427.27,287.59l0.14-0.02c2.6-0.27,4.49-2.59,4.22-5.2l-3.85-37.24c-0.27-2.6-2.59-4.49-5.2-4.22l-0.14,0.02
		c-2.6,0.27-4.49,2.59-4.22,5.2l3.85,37.24C422.35,285.97,424.67,287.86,427.27,287.59z"/>
</g>
<g>
	
		<ellipse transform="matrix(0.9997 -0.0231 0.0231 0.9997 -8.7105 8.8585)" class="st5" cx="379.06" cy="381.45" rx="12.7" ry="13.07"/>
</g>
<g>
	<polygon class="st5" points="367.51,377.6 372.68,348.65 396.88,353.72 391.7,382.67 	"/>
</g>
<g>
	<path class="st6" d="M370.93,357.14l10.02-51.01c0,0,15.96-5.33,21.52,17.67c0.5,1.49-7.19,38.13-7.19,38.13L370.93,357.14z"/>
</g>
<g>
	<circle class="st6" cx="394.29" cy="313.15" r="17.17"/>
</g>
<g>
	<path class="st33" d="M400.31,395.9h58.67l19.1-80.35c1.65-9.61-5.75-18.39-15.5-18.39h-65.7c-9.95,0-17.4,9.12-15.42,18.87
		L400.31,395.9z"/>
</g>
<g>
	<circle class="st60" cx="430.19" cy="320.5" r="1.6"/>
</g>
<g>
	<circle class="st60" cx="430.06" cy="329.56" r="1.7"/>
</g>
<g>
	<path class="st9" d="M403.07,484.03h20.22c1.4,0,2.54-1.14,2.54-2.54v-77.56c0-1.4-1.14-2.54-2.54-2.54h-20.22
		c-1.4,0-2.54,1.14-2.54,2.54v77.56C400.53,482.89,401.67,484.03,403.07,484.03z"/>
</g>
<g>
	<path class="st9" d="M404.65,426.16h50.32c2.33,0,4.21-1.89,4.21-4.21v-28.51c0-2.33-1.89-4.21-4.21-4.21h-50.32
		c-2.33,0-4.21,1.89-4.21,4.21v28.51C400.44,424.27,402.33,426.16,404.65,426.16z"/>
</g>
<g>
	<rect x="400.44" y="339.62" class="st9" width="58.76" height="56.29"/>
</g>
<g>
	<rect x="400.44" y="395.9" class="st38" width="58.76" height="5.48"/>
</g>
<g>
	<rect x="423.59" y="395.9" class="st13" width="12.43" height="5.48"/>
</g>
<g>
	<rect x="411.55" y="395.9" class="st9" width="2.95" height="6.39"/>
</g>
<g>
	<rect x="445.96" y="395.9" class="st9" width="2.95" height="6.71"/>
</g>
<g>
	<path class="st9" d="M436.35,484.03h20.22c1.4,0,2.54-1.14,2.54-2.54v-77.56c0-1.4-1.14-2.54-2.54-2.54h-20.22
		c-1.4,0-2.54,1.14-2.54,2.54v77.56C433.8,482.89,434.94,484.03,436.35,484.03z"/>
</g>
<g>
	<path class="st2" d="M403.07,560.45h22.77v-80.56c0-1.4-1.14-2.54-2.54-2.54h-20.22c-1.4,0-2.54,1.14-2.54,2.54v78.01
		C400.53,559.31,401.67,560.45,403.07,560.45z"/>
</g>
<g>
	<path class="st6" d="M412.72,321.75h10.49c0.84,0,1.52-0.68,1.52-1.52l0,0c0-0.84-0.68-1.52-1.52-1.52h-10.49
		c-0.84,0-1.52,0.68-1.52,1.52l0,0C411.2,321.08,411.89,321.75,412.72,321.75z"/>
</g>
<g>
	<path class="st2" d="M413.19,404.21H400.4c0,9.67,0,17.49,0,17.49C407.46,421.71,413.19,413.88,413.19,404.21z"/>
</g>
<g>
	<rect x="433.81" y="477.35" class="st9" width="25.31" height="83.07"/>
</g>
<g>
	<circle class="st9" cx="446.46" cy="479.74" r="12.65"/>
</g>
<g>
	<circle class="st9" cx="413.03" cy="479.41" r="12.65"/>
</g>
<g>
	<path class="st38" d="M422.78,557.73c-0.02-6.65-6.09-12.03-13.56-12.02c-7.47,0.02-13.52,5.42-13.51,12.07L422.78,557.73"/>
</g>
<g>
	<polyline class="st2" points="422.8,560.43 395.72,560.49 395.72,557.75 422.79,557.7 	"/>
</g>
<g>
	<path class="st38" d="M455.84,557.46c-0.02-7.01-6.41-12.69-14.29-12.67c-7.88,0.02-14.25,5.72-14.23,12.72L455.84,557.46"/>
</g>
<g>
	<path class="st2" d="M446.33,404.21h12.79c0,9.67,0,17.49,0,17.49C452.05,421.71,446.33,413.88,446.33,404.21z"/>
</g>
<g>
	<polyline class="st2" points="455.84,560.4 427.31,560.46 427.31,557.58 455.84,557.52 	"/>
</g>
<g>
	<rect x="451.12" y="297.16" class="st9" width="8.09" height="42.46"/>
</g>
<g>
	<path class="st2" d="M413.49,354.57c0,9.33,7.57,16.89,16.89,16.89c9.33,0,16.89-7.57,16.89-16.89"/>
</g>
<g>
	<rect x="400.44" y="297.16" class="st9" width="8.09" height="42.46"/>
</g>
<g>
	
		<ellipse transform="matrix(0.6223 -0.7828 0.7828 0.6223 -113.5789 513.6376)" class="st219" cx="475.45" cy="374.51" rx="12.84" ry="13.22"/>
</g>
<g>
	<polygon class="st219" points="463.75,376.98 462.38,342.56 487.11,342.3 488.48,376.71 	"/>
</g>
<g>
	<path class="st33" d="M462.53,351.23l-1.39-55.26c0,0,14.41-9.19,24.87,13.4c0.82,1.43,1.32,41.24,1.32,41.24L462.53,351.23z"/>
</g>
<g>
	<polygon class="st219" points="439.26,416.29 464.93,368.49 487.21,380.46 466.97,418.15 	"/>
</g>
<g>
	<circle class="st219" cx="453.41" cy="425.89" r="17.17"/>
</g>
<g>
	<circle class="st33" cx="469.4" cy="310.56" r="16.65"/>
</g>
<path class="st5" d="M430.98,309.12L430.98,309.12c5.3-0.19,9.45-4.64,9.26-9.94l-0.65-18.22c-0.19-5.3-4.64-9.45-9.94-9.26l0,0
	c-5.3,0.19-9.45,4.64-9.26,9.94l0.65,18.21C421.23,305.16,425.69,309.3,430.98,309.12z"/>
<path class="st6" d="M440.19,294.5l-9.29,14.62l3.51,5.65c0.84,1.36,2.87,1.27,3.58-0.16l9.01-17.55L440.19,294.5z"/>
<path class="st6" d="M420.89,295.02l10.01,14.13l-3.21,5.82c-0.77,1.41-2.8,1.42-3.59,0.02l-9.98-17.85L420.89,295.02z"/>
<path class="st45" d="M427.68,284.2L427.68,284.2c2.6,0.07,4.76-1.98,4.84-4.58l0.99-36.55c0.07-2.6-1.98-4.76-4.58-4.84l0,0
	c-2.6-0.07-4.76,1.98-4.84,4.58l-0.99,36.55C423.04,281.97,425.09,284.13,427.68,284.2z"/>
<path class="st5" d="M430.67,300.24L430.67,300.24c-5.18,0.19-9.53-3.86-9.71-9.04l-0.35-9.79c-0.19-5.18,3.86-9.53,9.04-9.71l0,0
	c5.18-0.19,9.53,3.86,9.71,9.04l0.35,9.79C439.9,295.71,435.85,300.05,430.67,300.24z"/>
<path class="st219" d="M430.4,288.78L430.4,288.78c9.47,1.24,18.16-5.43,19.4-14.91l2.7-20.64c1.24-9.47-5.43-18.16-14.91-19.4l0,0
	c-9.47-1.24-18.16,5.43-19.4,14.91l-2.7,20.64C414.25,278.85,420.92,287.53,430.4,288.78z"/>
<path class="st59" d="M440.32,257.86c0.64,0.22,1.15-0.46,0.71-0.92c-2.14-2.18-5.57-5.02-6.61-2.04
	C433.05,258.79,434.66,255.95,440.32,257.86z"/>
<path class="st59" d="M420,254.06c-0.67-0.05-0.89-0.88-0.3-1.12c2.81-1.18,7.07-2.49,6.89,0.66
	C426.35,257.73,425.96,254.47,420,254.06z"/>
<path class="st219" d="M416.06,288.08l22.61,2.97c4.81,0.63,9.22-2.76,9.84-7.56l0.98-7.48c0.63-4.81-2.76-9.22-7.56-9.84
	l-22.61-2.97c-4.81-0.63-9.22,2.76-9.84,7.56l-0.98,7.48C407.87,283.05,411.25,287.46,416.06,288.08z"/>
<path class="st5" d="M428.45,259.81c-0.64,0.28-1.05,0.91-1.18,1.59c-0.27,1.4-1.68,3.76-3.3,5.88c-2.45,3.2,0.19,5.97,2.37,6.26
	C432.88,274.39,432.32,258.1,428.45,259.81z"/>
<path class="st266" d="M437.36,272.62c3.59,0.47,3.76,3.79,3.46,6.09c-0.63,4.79-6.18,7.85-11.55,7.14
	c-12.41-1.63-13.4-5.69-10.76-7.72c2.18-1.68,4.55,0.55,8.13,1.01C433.17,280.01,431.67,271.88,437.36,272.62z"/>
<linearGradient id="SVGID_9_" gradientUnits="userSpaceOnUse" x1="-1666.1583" y1="-1344.9546" x2="-1646.0177" y2="-1365.0953" gradientTransform="matrix(-0.9928 0.1198 -0.1198 -0.9928 -1370.2625 -868.0594)">
	<stop  offset="0.0848" style="stop-color:#FCD4B7"/>
	<stop  offset="1" style="stop-color:#F7B395"/>
	<stop  offset="1" style="stop-color:#020203"/>
</linearGradient>
<circle class="st19" cx="441.72" cy="271.82" r="4.47"/>
<linearGradient id="SVGID_10_" gradientUnits="userSpaceOnUse" x1="-1744.7263" y1="-1281.1888" x2="-1726.1501" y2="-1281.1888" gradientTransform="matrix(-0.9994 0.0356 -0.0356 -0.9994 -1336.5035 -966.1844)">
	<stop  offset="0" style="stop-color:#1D627E"/>
	<stop  offset="1" style="stop-color:#6495B4"/>
</linearGradient>
<path class="st21" d="M433.73,239.94c6.91,6.44,12.17,5.68,14.93,4.45c1.33-0.6,3.38,0.12,3.66,1.55
	c1.06,5.28-0.73,15.02-1.01,17.17c-0.36,2.71-5.19,2.7-5.54-0.01c-0.02-0.09-0.02-0.18-0.02-0.26c-0.25-6.9,0.96-9.02-4.76-11.55"/>
<circle class="st219" cx="451.67" cy="267.07" r="4.96"/>
<circle class="st5" cx="450.93" cy="267.65" r="1.64"/>
<circle class="st33" cx="439.18" cy="233.78" r="2.97"/>
<path class="st33" d="M418.49,246.1c0.24-1.86,0.6-2.51,1.36-4.11c3.14-6.58,10.25-10.7,17.87-9.7l0,0
	c9.47,1.24,16.15,9.93,14.91,19.4L418.49,246.1z"/>
<path class="st6" d="M452.62,251.69c0,0-45.89,0.6-47.98-4.01c-2.09-4.61,19.62-0.72,19.62-0.72L452.62,251.69z"/>
<linearGradient id="SVGID_11_" gradientUnits="userSpaceOnUse" x1="-1727.7417" y1="-1267.8353" x2="-1727.7417" y2="-1278.0012" gradientTransform="matrix(-0.9994 0.0356 -0.0356 -0.9994 -1336.5035 -966.1844)">
	<stop  offset="0" style="stop-color:#1D627E"/>
	<stop  offset="1" style="stop-color:#6495B4"/>
</linearGradient>
<path class="st24" d="M429.85,243.94l10.59,1.74c1.06,0.18,2.07-0.54,2.25-1.61l0,0c0.18-1.06-0.54-2.07-1.61-2.25l-10.59-1.74
	c-1.06-0.18-2.07,0.54-2.25,1.61l0,0C428.06,242.76,428.78,243.77,429.85,243.94z"/>
<path class="st38" d="M438.57,263.37c-1.11,1.71-4.65,2.45-5.28-0.5c-0.22-1.06,0.35-1.54,0.91-0.83c0.91,1.16,1.73,1.49,3.8,0.25
	C438.6,261.94,438.92,262.83,438.57,263.37z"/>
<path class="st38" d="M425.11,261.79c-1.11,1.71-4.65,2.45-5.28-0.5c-0.22-1.06,0.35-1.54,0.91-0.83c0.91,1.16,1.73,1.49,3.8,0.25
	C425.14,260.35,425.46,261.25,425.11,261.79z"/>
<path class="st43" d="M408.34,278.84l1.26-8.92c9.24,4.31,18.14,5.88,25.09,5.34c4.21-0.33,8.1-2.42,10.23-6.07l2.21-3.79
	l-2.24,11.73c-0.05,0.26-0.04,0.52,0.03,0.77c0.01,0.02,0.01,0.03,0.02,0.05c0.45,1.57,2.66,1.61,3.17,0.06
	c0.94-2.89,1.85-5.7,1.85-5.7l-1.69,12.03c-0.64,4.62-4.89,7.84-9.5,7.21l-23.23-3.19C410.93,287.7,407.7,283.45,408.34,278.84z"/>
<path class="st85" d="M415.94,274.29c7.19,3.13,15.12,3.29,19.85,3.01c2.99-0.18,5.43,2.53,4.76,5.45
	c-0.47,2.03-1.84,4.08-5.12,5.22c-4.01,1.39-21.85-1.8-24.92-6.71c-0.15-0.24-0.29-0.48-0.41-0.72
	C408.15,276.77,412.05,272.6,415.94,274.29z"/>
<path class="st86" d="M417.66,277.56c4.35,2.02,9.83,2.15,13.16,2c0.59-0.03,0.74,0.8,0.19,0.98c-2.26,0.75-5.62,1.36-9.13,0.19
	c-2.21-0.74-3.71-1.56-4.73-2.31C416.64,278.06,417.1,277.3,417.66,277.56z"/>
<path class="st86" d="M431.6,283.89c-3.86,0.14-10.78-0.17-15.91-3.49c-0.43-0.28-0.92,0.28-0.59,0.67
	c1.32,1.55,3.66,3.45,7.52,4.17c3.8,0.7,7.01,0.16,9.12-0.46C432.25,284.62,432.13,283.87,431.6,283.89z"/>
<circle class="st3" cx="330.98" cy="369.84" r="12.93"/>
</svg>
