<?xml version="1.0" encoding="utf-8"?>
<!-- Generator: Adobe Illustrator 23.1.0, SVG Export Plug-In . SVG Version: 6.00 Build 0)  -->
<svg version="1.1" id="Layer_1" xmlns="http://www.w3.org/2000/svg" xmlns:xlink="http://www.w3.org/1999/xlink" x="0px" y="0px"
	 viewBox="0 0 910 567" style="enable-background:new 0 0 910 567;" xml:space="preserve">
<style type="text/css">
	.st0{fill:#C4E5ED;}
	.st1{fill:url(#SVGID_1_);}
	.st2{fill:#4195B7;}
	.st3{fill:#FCD3B5;}
	.st4{fill:#008F7F;}
	.st5{fill:#F7B394;}
	.st6{fill:#37A539;}
	.st7{fill:#43AE5D;}
	.st8{fill:url(#SVGID_2_);}
	.st9{fill:#62A4C0;}
	.st10{fill:url(#SVGID_3_);}
	.st11{fill:#FAB95F;}
	.st12{fill:#1D627E;}
	.st13{fill:#C7E6EE;}
	.st14{fill:url(#SVGID_4_);}
	.st15{fill:url(#SVGID_5_);}
	.st16{fill:url(#SVGID_6_);}
	.st17{fill:url(#SVGID_7_);}
	.st18{fill:url(#SVGID_8_);}
	.st19{fill:url(#SVGID_9_);}
	.st20{fill:#F8C671;}
	.st21{fill:url(#SVGID_10_);}
	.st22{fill:#AFD7DD;}
	.st23{fill:#EFF7FB;}
	.st24{fill:url(#SVGID_11_);}
	.st25{fill:url(#SVGID_12_);}
	.st26{fill:url(#SVGID_13_);}
	.st27{fill:url(#SVGID_14_);}
	.st28{fill:url(#SVGID_15_);}
	.st29{fill:url(#SVGID_16_);}
	.st30{fill:#EC6743;}
	.st31{fill:url(#SVGID_17_);}
	.st32{fill:url(#SVGID_18_);}
	.st33{fill:#5BB24C;}
	.st34{fill:url(#SVGID_19_);}
	.st35{fill:url(#SVGID_20_);}
	.st36{fill:url(#SVGID_21_);}
	.st37{fill:#F18675;}
	.st38{fill:#046B89;}
	.st39{fill:#EA5539;}
	.st40{fill:#E62555;}
	.st41{fill:#FFFFFF;}
	.st42{fill:none;}
	.st43{enable-background:new    ;}
	.st44{fill:#D0EAF3;}
	.st45{fill:url(#SVGID_22_);}
	.st46{fill:#D6EDF4;}
	.st47{fill:url(#SVGID_23_);}
	.st48{fill:url(#SVGID_24_);}
	.st49{fill:url(#SVGID_25_);}
	.st50{fill:#FAB755;}
	.st51{fill:#EC6544;}
	.st52{fill:#83B0C7;}
	.st53{fill:#FAB854;}
	.st54{fill:url(#SVGID_26_);}
	.st55{fill:#4093B6;}
	.st56{fill:url(#SVGID_27_);}
	.st57{fill:url(#SVGID_28_);}
	.st58{fill:url(#SVGID_29_);}
	.st59{fill:#A8DAE3;}
	.st60{fill:#04617B;}
	.st61{fill:url(#SVGID_30_);}
	.st62{fill:url(#SVGID_31_);}
	.st63{fill:#FCD4B7;}
	.st64{fill:url(#SVGID_32_);}
	.st65{fill:url(#SVGID_33_);}
	.st66{fill:url(#SVGID_34_);}
	.st67{fill:url(#SVGID_35_);}
	.st68{fill:url(#SVGID_36_);}
	.st69{fill:#FFF5E9;}
	.st70{fill:url(#SVGID_37_);}
	.st71{fill:url(#SVGID_38_);}
	.st72{fill:url(#SVGID_39_);}
	.st73{fill:url(#SVGID_40_);}
	.st74{fill:url(#SVGID_41_);}
	.st75{fill:url(#SVGID_42_);}
	.st76{fill:url(#SVGID_43_);}
	.st77{fill:#1B5A6F;}
	.st78{fill:url(#SVGID_44_);}
	.st79{fill:url(#SVGID_45_);}
	.st80{fill:url(#SVGID_46_);}
	.st81{fill:#065E79;}
	.st82{fill:url(#SVGID_47_);}
	.st83{fill:url(#SVGID_48_);}
	.st84{fill:#FDCE6A;}
	.st85{opacity:0.11;fill:#FFFFFF;enable-background:new    ;}
	.st86{opacity:0.42;fill:#EFF7FB;enable-background:new    ;}
	.st87{fill:none;stroke:#D0EAF3;stroke-width:2;stroke-linecap:round;stroke-miterlimit:10;}
	.st88{opacity:0.7;fill:#D0EAF3;enable-background:new    ;}
	.st89{opacity:0.7;fill:#C4E5ED;enable-background:new    ;}
	.st90{opacity:0.73;fill:#EFF7FB;enable-background:new    ;}
	.st91{fill:#D9EEF4;}
	.st92{fill:#CDE9F0;}
	.st93{fill:url(#SVGID_49_);}
	.st94{fill:url(#SVGID_50_);}
	.st95{fill:#3B85A9;}
	.st96{fill:url(#SVGID_51_);}
	.st97{fill:url(#SVGID_52_);}
	.st98{fill:url(#SVGID_53_);}
	.st99{fill:#F18775;}
	.st100{fill:url(#SVGID_54_);}
	.st101{fill:url(#SVGID_55_);}
	.st102{fill:url(#SVGID_56_);}
	.st103{fill:#4FB26D;}
	.st104{fill:url(#SVGID_57_);}
	.st105{fill:url(#SVGID_58_);}
	.st106{fill:url(#SVGID_59_);}
	.st107{fill:url(#SVGID_60_);}
	.st108{fill:url(#SVGID_61_);}
	.st109{fill:url(#SVGID_62_);}
	.st110{fill:url(#SVGID_63_);}
	.st111{fill:#F49C7E;}
	.st112{fill:url(#SVGID_64_);}
	.st113{fill:url(#SVGID_65_);}
	.st114{fill:#FED377;}
	.st115{fill:url(#SVGID_66_);}
	.st116{fill:url(#SVGID_67_);}
	.st117{fill:#124657;}
	.st118{opacity:0.19;fill:#FFFFFF;enable-background:new    ;}
	.st119{fill:#F7F9F9;}
	.st120{fill:url(#SVGID_68_);}
	.st121{fill:url(#SVGID_69_);}
	.st122{fill:url(#SVGID_70_);}
	.st123{fill:url(#SVGID_71_);}
	.st124{fill:#D9EEF3;}
	.st125{fill:url(#SVGID_72_);}
	.st126{fill:url(#SVGID_73_);}
	.st127{fill:#FAFDFF;}
	.st128{fill:url(#SVGID_74_);}
	.st129{fill:url(#SVGID_75_);}
	.st130{fill:url(#SVGID_76_);}
	.st131{opacity:0.68;fill:url(#SVGID_77_);enable-background:new    ;}
	.st132{fill:url(#SVGID_78_);}
	.st133{opacity:0.68;fill:url(#SVGID_79_);enable-background:new    ;}
	.st134{fill:url(#SVGID_80_);}
	.st135{opacity:0.68;fill:url(#SVGID_81_);enable-background:new    ;}
	.st136{fill:url(#SVGID_82_);}
	.st137{fill:url(#SVGID_83_);}
	.st138{fill:url(#SVGID_84_);}
	.st139{fill:url(#SVGID_85_);}
	.st140{fill:url(#SVGID_86_);}
	.st141{fill:#03949D;}
	.st142{fill:#E84B33;}
	.st143{fill:url(#SVGID_87_);}
	.st144{fill:url(#SVGID_88_);}
	.st145{fill:url(#SVGID_89_);}
	.st146{fill:url(#SVGID_90_);}
	.st147{fill:url(#SVGID_91_);}
	.st148{fill:#F4A182;}
	.st149{fill:#0C5879;}
	.st150{fill:#FBCEAD;}
	.st151{fill:#FBCCA3;}
	.st152{fill:url(#SVGID_92_);}
	.st153{fill:url(#SVGID_93_);}
	.st154{fill:url(#SVGID_94_);}
	.st155{fill:url(#SVGID_95_);}
	.st156{fill:#03A86F;}
	.st157{fill:url(#SVGID_96_);}
	.st158{fill:url(#SVGID_97_);}
	.st159{fill:url(#SVGID_98_);}
	.st160{fill:url(#SVGID_99_);}
	.st161{fill:url(#SVGID_100_);}
	.st162{fill:url(#SVGID_101_);}
	.st163{fill:url(#SVGID_102_);}
	.st164{fill:#A5D2D9;}
	.st165{fill:url(#SVGID_103_);}
	.st166{fill:url(#SVGID_104_);}
	.st167{fill:url(#SVGID_105_);}
	.st168{fill:url(#SVGID_106_);}
	.st169{fill:url(#SVGID_107_);}
	.st170{fill:url(#SVGID_108_);}
	.st171{fill:url(#SVGID_109_);}
	.st172{fill:url(#SVGID_110_);}
	.st173{fill:url(#SVGID_111_);}
	.st174{fill:url(#SVGID_112_);}
	.st175{fill:url(#SVGID_113_);}
	.st176{fill:url(#SVGID_114_);}
	.st177{fill:url(#SVGID_115_);}
	.st178{fill:url(#SVGID_116_);}
	.st179{fill:url(#SVGID_117_);}
	.st180{fill:url(#SVGID_118_);}
	.st181{fill:#F6AD98;}
	.st182{fill:#7FBCD1;}
	.st183{fill:#F39886;}
	.st184{fill:url(#SVGID_119_);}
	.st185{fill:url(#SVGID_120_);}
	.st186{fill:url(#SVGID_121_);}
	.st187{fill:#07787F;}
	.st188{fill:url(#SVGID_122_);}
	.st189{fill:url(#SVGID_123_);}
	.st190{fill:url(#SVGID_124_);}
	.st191{fill:url(#SVGID_125_);}
	.st192{fill:url(#SVGID_126_);}
	.st193{fill:#F8AA3C;}
	.st194{fill:url(#SVGID_127_);}
	.st195{fill:url(#SVGID_128_);}
	.st196{fill:none;stroke:#5BB24C;stroke-width:3;stroke-linecap:round;stroke-miterlimit:10;}
	.st197{fill:none;stroke:#5BB24C;stroke-width:3;stroke-linecap:round;stroke-miterlimit:10;stroke-dasharray:11.9912,11.9912;}
	.st198{fill:none;stroke:#5BB24C;stroke-width:3;stroke-linecap:round;stroke-linejoin:round;stroke-miterlimit:10;}
	.st199{fill:url(#SVGID_129_);}
	.st200{fill:url(#SVGID_130_);}
	.st201{fill:url(#SVGID_131_);}
	.st202{fill:url(#SVGID_132_);}
	.st203{fill:url(#SVGID_133_);}
	.st204{fill:url(#SVGID_134_);}
	.st205{fill:url(#SVGID_135_);}
	.st206{fill:url(#SVGID_136_);}
	.st207{fill:url(#SVGID_137_);}
	.st208{fill:url(#SVGID_138_);}
	.st209{fill:url(#SVGID_139_);}
	.st210{opacity:0.4;}
	.st211{opacity:0.31;fill:#FAB95F;enable-background:new    ;}
	.st212{opacity:0.43;fill:#FAB95F;enable-background:new    ;}
	.st213{fill:url(#SVGID_140_);}
	.st214{fill:url(#SVGID_141_);}
	.st215{fill:url(#SVGID_142_);}
	.st216{fill:url(#SVGID_143_);}
	.st217{fill:url(#SVGID_144_);}
	.st218{fill:url(#SVGID_145_);}
	.st219{fill:url(#SVGID_146_);}
	.st220{fill:url(#SVGID_147_);}
	.st221{fill:url(#SVGID_148_);}
	.st222{fill:#FCDAC2;}
	.st223{fill:#EF7A5B;}
	.st224{fill:#77AFC6;}
	.st225{fill:#F1876F;}
	.st226{fill:#89B9CE;}
	.st227{fill:#FFD884;}
	.st228{fill:url(#SVGID_149_);}
	.st229{fill:url(#SVGID_150_);}
	.st230{fill:url(#SVGID_151_);}
	.st231{fill:url(#SVGID_152_);}
	.st232{fill:url(#SVGID_153_);}
	.st233{fill:url(#SVGID_154_);}
	.st234{fill:#FCD5B7;}
	.st235{fill:url(#SVGID_155_);}
	.st236{fill:url(#SVGID_156_);}
	.st237{fill:url(#SVGID_157_);}
	.st238{fill:url(#SVGID_158_);}
	.st239{fill:#F8BC9F;}
	.st240{fill:url(#SVGID_159_);}
	.st241{fill:url(#SVGID_160_);}
	.st242{fill:url(#SVGID_161_);}
	.st243{fill:url(#SVGID_162_);}
	.st244{fill:url(#SVGID_163_);}
	.st245{fill:url(#SVGID_164_);}
	.st246{fill:#F7B395;}
	.st247{fill:url(#SVGID_165_);}
	.st248{fill:url(#SVGID_166_);}
	.st249{fill:url(#SVGID_167_);}
	.st250{fill:url(#SVGID_168_);}
	.st251{fill:url(#SVGID_169_);}
	.st252{fill:url(#SVGID_170_);}
	.st253{fill:url(#SVGID_171_);}
	.st254{fill:url(#SVGID_172_);}
	.st255{fill:url(#SVGID_173_);}
	.st256{fill:url(#SVGID_174_);}
	.st257{fill:url(#SVGID_175_);}
	.st258{fill:url(#SVGID_176_);}
	.st259{fill:url(#SVGID_177_);}
	.st260{fill:url(#SVGID_178_);}
	.st261{fill:url(#SVGID_179_);}
	.st262{fill:url(#SVGID_180_);}
	.st263{fill:url(#SVGID_181_);}
	.st264{fill:url(#SVGID_182_);}
	.st265{fill:url(#SVGID_183_);}
	.st266{fill:url(#SVGID_184_);}
	.st267{fill:url(#SVGID_185_);}
	.st268{fill:url(#SVGID_186_);}
	.st269{fill:url(#SVGID_187_);}
	.st270{fill:url(#SVGID_188_);}
	.st271{fill:url(#SVGID_189_);}
	.st272{fill:url(#SVGID_190_);}
	.st273{fill:url(#SVGID_191_);}
	.st274{fill:url(#SVGID_192_);}
	.st275{fill:url(#SVGID_193_);}
	.st276{fill:url(#SVGID_194_);}
	.st277{fill:url(#SVGID_195_);}
	.st278{fill:url(#SVGID_196_);}
	.st279{fill:url(#SVGID_197_);}
	.st280{fill:#FCFEFF;}
	.st281{fill:#FCF4F2;}
	.st282{fill:url(#SVGID_198_);}
	.st283{fill:url(#SVGID_199_);}
	.st284{fill:url(#SVGID_200_);}
	.st285{fill:none;stroke:#43AE5D;stroke-width:2;stroke-linecap:round;stroke-miterlimit:10;}
	.st286{fill:url(#SVGID_201_);}
	.st287{fill:url(#SVGID_202_);}
	.st288{fill:url(#SVGID_203_);}
	.st289{fill:url(#SVGID_204_);}
	.st290{fill:url(#SVGID_205_);}
	.st291{fill:url(#SVGID_206_);}
	.st292{fill:#CEE9EF;}
	.st293{fill:url(#SVGID_207_);}
	.st294{fill:url(#SVGID_208_);}
	.st295{fill:url(#SVGID_209_);}
	.st296{fill:url(#SVGID_210_);}
	.st297{fill:url(#SVGID_211_);}
	.st298{fill:none;stroke:#5BB24C;stroke-width:3;stroke-linecap:round;stroke-miterlimit:10;stroke-dasharray:11.9199,11.9199;}
	.st299{fill:url(#SVGID_212_);}
	.st300{fill:url(#SVGID_213_);}
	.st301{fill:#F7FCFD;}
	.st302{fill:url(#SVGID_214_);}
	.st303{fill:url(#SVGID_215_);}
	.st304{fill:url(#SVGID_216_);}
	.st305{fill:url(#SVGID_217_);}
	.st306{fill:url(#SVGID_218_);}
	.st307{fill:url(#SVGID_219_);}
	.st308{fill:url(#SVGID_220_);}
	.st309{fill:url(#SVGID_221_);}
	.st310{fill:url(#SVGID_222_);}
	.st311{fill:url(#SVGID_223_);}
	.st312{fill:url(#SVGID_224_);}
	.st313{fill:url(#SVGID_225_);}
	.st314{fill:url(#SVGID_226_);}
	.st315{fill:url(#SVGID_227_);}
	.st316{fill:url(#SVGID_228_);}
	.st317{fill:url(#SVGID_229_);}
	.st318{fill:url(#SVGID_230_);}
	.st319{fill:url(#SVGID_231_);}
	.st320{fill:url(#SVGID_232_);}
	.st321{fill:url(#SVGID_233_);}
	.st322{fill:url(#SVGID_234_);}
	.st323{fill:url(#SVGID_235_);}
	.st324{fill:url(#SVGID_236_);}
	.st325{fill:url(#SVGID_237_);}
	.st326{fill:url(#SVGID_238_);}
	.st327{fill:url(#SVGID_239_);}
	.st328{fill:url(#SVGID_240_);}
	.st329{fill:url(#SVGID_241_);}
	.st330{fill:url(#SVGID_242_);}
	.st331{fill:url(#SVGID_243_);}
	.st332{fill:url(#SVGID_244_);}
	.st333{fill:url(#SVGID_245_);}
	.st334{fill:url(#SVGID_246_);}
	.st335{fill:url(#SVGID_247_);}
	.st336{fill:url(#SVGID_248_);}
	.st337{fill:url(#SVGID_249_);}
	.st338{fill:url(#SVGID_250_);}
	.st339{fill:url(#SVGID_251_);}
	.st340{fill:url(#SVGID_252_);}
	.st341{fill:url(#SVGID_253_);}
	.st342{fill:url(#SVGID_254_);}
	.st343{fill:url(#SVGID_255_);}
	.st344{fill:url(#SVGID_256_);}
	.st345{fill:url(#SVGID_257_);}
	.st346{fill:url(#SVGID_258_);}
	.st347{fill:url(#SVGID_259_);}
	.st348{fill:url(#SVGID_260_);}
	.st349{fill:url(#SVGID_261_);}
	.st350{fill:url(#SVGID_262_);}
	.st351{fill:url(#SVGID_263_);}
</style>
<linearGradient id="SVGID_1_" gradientUnits="userSpaceOnUse" x1="377.7478" y1="-77.6657" x2="1594.061" y2="1078.1874" gradientTransform="matrix(1 0 0 -1 0 378.6771)">
	<stop  offset="0" style="stop-color:#ECF6FB;stop-opacity:0.1"/>
	<stop  offset="0.0589" style="stop-color:#E7F4FA;stop-opacity:0.153"/>
	<stop  offset="0.3401" style="stop-color:#D9EEF4;stop-opacity:0.4061"/>
	<stop  offset="0.6423" style="stop-color:#D1EAF1;stop-opacity:0.6781"/>
	<stop  offset="1" style="stop-color:#CDE9F0"/>
</linearGradient>
<path class="st1" d="M818.65,566.7c35.34-121.62,3.33-187.06-50.74-259.39c15.72-29.33,24.65-62.85,24.65-98.46
	C792.57,93.67,699.26,0.3,584.15,0.3c-88.86,0-164.72,55.65-194.7,134.02c-75.73,5.42-146.07,30.3-206.05,69.69
	c-12.69-4.38-26.31-6.77-40.49-6.77c-68.55,0-124.11,55.6-124.11,124.19c0,19.67,4.58,38.27,12.72,54.8
	c-28.15,57.5-46.4,173.33-13.06,190.47H818.65z"/>
<circle class="st46" cx="626.59" cy="118.09" r="47.83"/>
<circle class="st124" cx="527.72" cy="347.21" r="14.55"/>
<circle class="st124" cx="531.08" cy="327.85" r="8.92"/>
<circle class="st124" cx="542.26" cy="321.48" r="5.4"/>
<path class="st0" d="M474.07,322.46c0,0-25.67,0.68-20.32-35.85S468.54,317.11,474.07,322.46z"/>
<path class="st0" d="M475.8,322.14c0,0,16.12,8.26,23.85-16.6C507.39,280.68,480.95,320.42,475.8,322.14z"/>
<path class="st0" d="M479.2,326.71c0,0-30-16.43-12.58-69.9C484.04,203.34,488.12,310.53,479.2,326.71z"/>
<path class="st0" d="M474.12,317.56c0,0,17.17-57.84,22.12-41.72s-10.45,40.07-16.76,45.03S474.12,317.56,474.12,317.56z"/>
<circle class="st124" cx="513.17" cy="347.68" r="10.32"/>
<circle class="st23" cx="627.22" cy="118.09" r="35.35"/>
<path class="st44" d="M643.08,107.67L643.08,107.67c1.17,1.17,1.17,3.06,0,4.22l-13.75,13.75c-1.17,1.17-3.06,1.17-4.22,0l0,0
	c-1.17-1.17-1.17-3.06,0-4.22l13.75-13.75C640.02,106.5,641.91,106.5,643.08,107.67z"/>
<path class="st124" d="M477.28,374.69h-0.49c-9.66,0-17.49-7.83-17.49-17.49v-41.27h35.47v41.27
	C494.78,366.86,486.95,374.69,477.28,374.69z"/>
<path class="st0" d="M522.68,374.32h-0.49c-9.66,0-17.49-7.83-17.49-17.49v-3.11h35.47v3.11
	C540.18,366.49,532.34,374.32,522.68,374.32z"/>
<path class="st46" d="M579.7,558.97H445.62c-5.52,0-10-4.48-10-10V380.24c0-5.52,4.48-10,10-10h134.07c5.52,0,10,4.48,10,10v168.73
	C589.7,554.49,585.22,558.97,579.7,558.97z"/>
<path class="st23" d="M562.48,428.9H461.92c-5.52,0-10-4.48-10-10v-17.73c0-5.52,4.48-10,10-10h100.56c5.52,0,10,4.48,10,10v17.73
	C572.48,424.42,568.01,428.9,562.48,428.9z"/>
<path class="st23" d="M563.81,486.39H463.25c-5.52,0-10-4.48-10-10v-17.73c0-5.52,4.48-10,10-10h100.56c5.52,0,10,4.48,10,10v17.73
	C573.81,481.91,569.33,486.39,563.81,486.39z"/>
<path class="st23" d="M562.94,543.92H462.38c-5.52,0-10-4.48-10-10v-17.73c0-5.52,4.48-10,10-10h100.56c5.52,0,10,4.48,10,10v17.73
	C572.94,539.44,568.46,543.92,562.94,543.92z"/>
<circle class="st46" cx="511.72" cy="411.52" r="6.9"/>
<circle class="st46" cx="512.2" cy="469.65" r="6.9"/>
<circle class="st46" cx="512.2" cy="526.41" r="6.9"/>
<rect x="690.53" y="234.46" transform="matrix(0.6493 -0.7605 0.7605 0.6493 47.1289 621.3228)" class="st234" width="13.52" height="50.19"/>
<path class="st4" d="M682.2,284.46l-10.35,2.84c-1.44,0.4-2.93-0.45-3.32-1.89l-0.02-0.07c-0.4-1.44,0.45-2.93,1.89-3.32l10.35-2.84
	c1.44-0.4,2.93,0.45,3.32,1.89l0.02,0.07C684.48,282.57,683.64,284.06,682.2,284.46z"/>
<rect x="807.41" y="273.76" transform="matrix(0.6116 -0.7912 0.7912 0.6116 81.6432 758.6138)" class="st234" width="12.07" height="44.8"/>
<rect x="799.21" y="277.78" transform="matrix(0.6116 -0.7912 0.7912 0.6116 83.47 749.6674)" class="st30" width="12.07" height="24.08"/>
<circle class="st234" cx="833.09" cy="311.31" r="6.65"/>
<rect x="734.11" y="253.24" transform="matrix(0.123 -0.9924 0.9924 0.123 373.5219 979.3378)" class="st5" width="13.52" height="50.19"/>
<rect x="746.9" y="267.03" transform="matrix(0.123 -0.9924 0.9924 0.123 383.171 993.4176)" class="st142" width="13.52" height="25.77"/>
<circle class="st234" cx="714.89" cy="274.88" r="6.78"/>
<polygon class="st151" points="809.51,453.95 785.65,453.95 785.65,366.11 808.77,365.99 "/>
<rect x="755.12" y="366.11" class="st151" width="23.86" height="88.27"/>
<circle class="st151" cx="797.58" cy="453.92" r="11.93"/>
<polygon class="st234" points="797.58,551.99 785.44,551.99 785.65,453.95 809.51,453.95 "/>
<polygon class="st5" points="778.77,551.99 767.05,551.99 755.12,454.38 778.98,454.38 "/>
<circle class="st234" cx="767.05" cy="454.38" r="11.93"/>
<path class="st33" d="M757.73,557.34c0.01-5.49,5.58-9.93,12.43-9.92s12.4,4.47,12.39,9.96L757.73,557.34"/>
<polyline class="st6" points="757.73,558.93 782.55,558.97 782.56,556.71 757.74,556.67 "/>
<path class="st33" d="M782.56,557.34c0.01-5.49,5.58-9.93,12.43-9.92s12.4,4.47,12.39,9.96L782.56,557.34"/>
<polyline class="st6" points="782.56,558.93 807.38,558.97 807.38,556.71 782.56,556.67 "/>
<circle class="st142" cx="766.53" cy="280.91" r="8.42"/>
<path class="st30" d="M826.12,435.83l-22.74-92.38c-1.24-3.52-3.73-6.33-6.85-8.01c2.92-1.21,5.04-3.6,5.41-6.47l3.18-27.52
	c0.66-2.21,1.02-4.54,1.02-6.96c0-0.5-0.02-0.99-0.05-1.49c0.12-1.2-0.04-2.35-0.44-3.4c-2.27-11.17-12.19-19.57-24.08-19.57
	c-12.53,0-22.86,9.33-24.37,21.39c-0.02,0.11-0.03,0.21-0.04,0.32c-0.1,0.9-0.16,1.82-0.16,2.75c0,2.67,0.44,5.25,1.23,7.66
	l3.21,26.93c0.43,2.94,2.68,5.34,5.74,6.49c-3.08,1.72-5.52,4.56-6.7,8.1l-21.54,92.38c-3.17,9.48,3.79,19.32,13.67,19.32h59.93
	C822.5,455.37,829.47,445.35,826.12,435.83z"/>
<polygon class="st53" points="801.4,339.68 762.16,339.68 762.16,331.33 801.33,331.53 "/>
<g>
	<path class="st151" d="M781.71,284.21c6.3,0,11.69-4.37,13.3-10.16c-3.85-2.51-8.58-4.05-13.6-4.03c-4.8,0.02-8.87,1.16-13.08,3.73
		C769.82,279.72,775.29,284.21,781.71,284.21z"/>
</g>
<g>
	<path class="st234" d="M781.71,284.16c6.3,0,11.69-4.37,13.3-10.16c-3.84-2.52-8.58-4.03-13.6-4.03c-4.79,0-8.98,1.19-13.08,3.73
		C769.82,279.66,775.29,284.16,781.71,284.16z"/>
</g>
<path class="st234" d="M665.1,243.28c0.03-6.4,5.29-11.57,11.74-11.54s11.66,5.25,11.63,11.65L665.1,243.28z"/>
<path class="st53" d="M781.01,284.19c-10.49-0.73-12.68-10.44-12.68-10.44s-5.77,5.98-0.25,11.5S781.01,284.19,781.01,284.19z"/>
<path class="st53" d="M782.33,284.21c10.49-0.77,12.68-10.16,12.68-10.16s5.77,5.96,0.25,11.48S782.33,284.21,782.33,284.21z"/>
<circle class="st53" cx="781.67" cy="289.83" r="1.82"/>
<circle class="st53" cx="781.67" cy="299.65" r="1.82"/>
<linearGradient id="SVGID_2_" gradientUnits="userSpaceOnUse" x1="254.4818" y1="-270.5862" x2="254.4818" y2="367.075" gradientTransform="matrix(1 0 0 -1 0 378.6771)">
	<stop  offset="0" style="stop-color:#FFE9BF"/>
	<stop  offset="1" style="stop-color:#ED6E4F"/>
</linearGradient>
<rect x="196.73" y="468.11" class="st8" width="115.5" height="90.75"/>
<g>
	<path class="st5" d="M241.79,541.85h-35.53c-0.76,0-1.38-0.62-1.38-1.38s0.62-1.38,1.38-1.38h35.53c0.76,0,1.38,0.62,1.38,1.38
		S242.55,541.85,241.79,541.85z"/>
</g>
<g>
	<path class="st5" d="M226.62,549.93h-20.36c-0.76,0-1.38-0.62-1.38-1.38s0.62-1.38,1.38-1.38h20.36c0.76,0,1.38,0.62,1.38,1.38
		S227.38,549.93,226.62,549.93z"/>
</g>
<rect x="203.8" y="436.03" transform="matrix(0.5408 -0.8411 0.8411 0.5408 -265.0507 396.8731)" class="st234" width="54.36" height="10.34"/>
<rect x="289.3" y="401.03" transform="matrix(0.3281 -0.9446 0.9446 0.3281 -206.6563 565.875)" class="st234" width="10.34" height="54.36"/>
<path class="st234" d="M238.14,425.45c0-9.99,8.1-18.09,18.09-18.09c9.99,0,18.09,8.1,18.09,18.09"/>
<path class="st234" d="M321.08,435.55c-0.02-5.31,4.31-9.63,9.66-9.65s9.7,4.28,9.72,9.59L321.08,435.55z"/>
<path class="st234" d="M201.13,468.1c0-5.37,4.39-9.71,9.8-9.71s9.79,4.36,9.78,9.72L201.13,468.1z"/>
<path class="st11" d="M249.1,429.74h-8.85l-0.08-12.61c0,0,2.84-5.95,8.94-8.31C249.1,409.08,249.1,429.74,249.1,429.74z"/>
<path class="st11" d="M271.97,429.74h-8.65c0,0,0-20.93,0-21.03c5.4,1.9,8.65,6.19,8.65,6.19
	C271.97,416.06,271.97,429.74,271.97,429.74z"/>
<path class="st11" d="M266.95,422.52H245.4c-2.54,0-4.71,1.3-5.14,3.08l-6.82,38.31c-0.54,2.26-0.44,4.32,2.79,4.32h40
	c3.23,0,3.3-2.07,2.76-4.33l-6.9-38.31C271.66,423.82,269.49,422.52,266.95,422.52z"/>
<polygon class="st234" points="253.13,467.93 238.4,467.89 240.99,505.26 253.13,505.26 "/>
<circle class="st234" cx="245.77" cy="468.11" r="7.37"/>
<polygon class="st234" points="275.34,468.23 260.52,468.23 260.57,506.66 272.09,506.66 "/>
<path class="st30" d="M280.2,505.12c-0.01-4.34-4.41-7.85-9.83-7.84c-5.42,0.01-9.8,3.54-9.79,7.88L280.2,505.12"/>
<polyline class="st142" points="280.2,506.91 260.58,506.94 260.57,505.16 280.2,505.12 "/>
<path class="st30" d="M253.13,505.13c-0.01-4.34-4.41-7.85-9.83-7.84s-9.8,3.54-9.79,7.88L253.13,505.13"/>
<polyline class="st142" points="253.13,506.91 233.51,506.95 233.5,505.16 253.13,505.13 "/>
<circle class="st234" cx="267.93" cy="468.23" r="7.41"/>
<linearGradient id="SVGID_3_" gradientUnits="userSpaceOnUse" x1="353.3418" y1="-226.1417" x2="353.3418" y2="104.1819" gradientTransform="matrix(1 0 0 -1 0 378.6771)">
	<stop  offset="0" style="stop-color:#FFE9BF"/>
	<stop  offset="1" style="stop-color:#ED6E4F"/>
</linearGradient>
<rect x="312.22" y="492.8" class="st10" width="82.24" height="66.17"/>
<rect x="318.31" y="499.92" class="st5" width="11.9" height="11.9"/>
<g>
	<path class="st5" d="M344.11,545.28h-26.49c-0.57,0-1.03-0.46-1.03-1.03s0.46-1.03,1.03-1.03h26.49c0.57,0,1.03,0.46,1.03,1.03
		S344.68,545.28,344.11,545.28z"/>
</g>
<g>
	<path class="st5" d="M332.81,550.93h-15.18c-0.57,0-1.03-0.46-1.03-1.03s0.46-1.03,1.03-1.03h15.18c0.57,0,1.03,0.46,1.03,1.03
		S333.37,550.93,332.81,550.93z"/>
</g>
<rect x="204.52" y="475.64" class="st5" width="16.19" height="16.19"/>
<linearGradient id="SVGID_4_" gradientUnits="userSpaceOnUse" x1="840.0733" y1="90.4156" x2="744.0882" y2="-37.1138" gradientTransform="matrix(1 0 0 -1 0 378.6771)">
	<stop  offset="0" style="stop-color:#FFE9BF"/>
	<stop  offset="1" style="stop-color:#ED6E4F"/>
</linearGradient>
<polygon class="st14" points="818.29,365.35 771.99,329.01 800.73,292.38 847.03,328.72 "/>
<g>
	<path class="st5" d="M815.68,312.67l-14.91-11.7c-0.32-0.25-0.38-0.71-0.12-1.03c0.25-0.32,0.71-0.38,1.03-0.12l14.91,11.7
		c0.32,0.25,0.38,0.71,0.12,1.03S816,312.92,815.68,312.67z"/>
</g>
<g>
	<path class="st5" d="M807.26,310.29l-8.55-6.71c-0.32-0.25-0.38-0.71-0.12-1.03s0.71-0.38,1.03-0.12l8.55,6.71
		c0.32,0.25,0.38,0.71,0.12,1.03S807.58,310.54,807.26,310.29z"/>
</g>
<rect x="796.85" y="323.43" transform="matrix(0.6177 -0.7864 0.7864 0.6177 54.2011 770.4246)" class="st234" width="45.32" height="12.07"/>
<path class="st9" d="M681.95,395.81h-59.28c-3.01,0-5.44-2.44-5.44-5.44v-31.6c0-3.01,2.44-5.44,5.44-5.44h59.28
	c3.01,0,5.44,2.44,5.44,5.44v31.6C687.39,393.37,684.95,395.81,681.95,395.81z"/>
<rect x="576.76" y="281.43" transform="matrix(0.2319 -0.9727 0.9727 0.2319 184.4532 815.8654)" class="st5" width="64.18" height="19.41"/>
<circle class="st5" cx="601.22" cy="322.4" r="9.97"/>
<rect x="554.68" y="333.05" transform="matrix(0.6865 -0.7272 0.7272 0.6865 -66.6382 530.9833)" class="st5" width="55.48" height="19.44"/>
<path class="st6" d="M614.75,303.72l-17.12-4.08c-0.61-0.15-0.99-0.76-0.85-1.38l10.44-43.82c0.4-1.68,2.08-2.71,3.76-2.31
	l15.19,3.62c1.68,0.4,2.71,2.08,2.31,3.76l-9.99,41.89C618.11,303.08,616.43,304.12,614.75,303.72z"/>
<path class="st234" d="M789.51,350.48c0.19-5.71,5-10.19,10.76-10s10.27,4.97,10.09,10.68L789.51,350.48z"/>
<path class="st7" d="M668.28,344.93h-32.07c-8.33,0-15.31-6.2-16.17-14.36l-13.07-69.62c-1-9.46,6.52-17.69,16.17-17.69h58.36
	c9.63,0,17.15,8.21,16.18,17.65l-13.22,69.62C683.61,338.7,676.62,344.93,668.28,344.93z"/>
<rect x="617.22" y="314.78" class="st7" width="70.17" height="46.53"/>
<rect x="617.22" y="361.31" class="st38" width="70.17" height="6.54"/>
<rect x="644.9" y="361.31" class="st13" width="14.84" height="6.54"/>
<rect x="670.6" y="361.31" class="st9" width="3.52" height="7.63"/>
<rect x="629.51" y="361.31" class="st9" width="3.52" height="8.02"/>
<circle class="st234" cx="719.25" cy="317.95" r="12.3"/>
<rect x="696.13" y="255.37" transform="matrix(0.8703 -0.4925 0.4925 0.8703 -51.0685 385.1324)" class="st234" width="19.22" height="68.32"/>
<path class="st7" d="M716.18,291.13l-14.34,8.36c-1.46,0.82-3.3,0.31-4.13-1.14l-21.3-37.64c-0.82-1.46-0.31-3.3,1.14-4.13
	l13.17-7.45c1.46-0.82,3.3-0.31,4.13,1.14l22.47,36.74C718.14,288.46,717.63,290.31,716.18,291.13z"/>
<path class="st5" d="M540.55,370.2c0.01-8.21,6.72-14.86,15-14.85s14.97,6.67,14.96,14.88L540.55,370.2z"/>
<path class="st9" d="M644.26,466.55H620.6c-1.81,0-3.28-1.47-3.28-3.28v-92.13c0-1.81,1.47-3.28,3.28-3.28h23.66
	c1.81,0,3.28,1.47,3.28,3.28v92.13C647.55,465.08,646.08,466.55,644.26,466.55z"/>
<path class="st9" d="M684,557.59h-23.66c-1.81,0-3.28-1.47-3.28-3.28v-92.45c0-1.81,1.47-3.28,3.28-3.28H684
	c1.81,0,3.28,1.47,3.28,3.28v92.45C687.28,556.12,685.81,557.59,684,557.59z"/>
<path class="st9" d="M684,466.55h-23.66c-1.81,0-3.28-1.47-3.28-3.28v-92.13c0-1.81,1.47-3.28,3.28-3.28H684
	c1.81,0,3.28,1.47,3.28,3.28v92.13C687.28,465.08,685.81,466.55,684,466.55z"/>
<path class="st6" d="M675.64,272.77h-10.73c-1.49,0-2.7-1.21-2.7-2.7v-0.08c0-1.49,1.21-2.7,2.7-2.7h10.73c1.49,0,2.7,1.21,2.7,2.7
	v0.08C678.34,271.56,677.13,272.77,675.64,272.77z"/>
<path class="st2" d="M672.17,374.95h15.27c0,11.54,0,20.89,0,20.89C679,395.84,672.17,386.49,672.17,374.95z"/>
<path class="st2" d="M644.26,556.59H620.6c-1.81,0-3.28-1.47-3.28-3.28v-91.45c0-1.81,1.47-3.28,3.28-3.28h23.66
	c1.81,0,3.28,1.47,3.28,3.28v91.45C647.55,555.12,646.08,556.59,644.26,556.59z"/>
<circle class="st9" cx="632.44" cy="461.43" r="15.11"/>
<circle class="st9" cx="672.17" cy="461.03" r="15.11"/>
<path class="st38" d="M654.95,555.68c0.02-7.95,7.27-14.37,16.2-14.36c8.93,0.02,16.15,6.47,16.14,14.42L654.95,555.68"/>
<polyline class="st2" points="654.93,558.91 687.26,558.97 687.27,555.7 654.94,555.64 "/>
<path class="st38" d="M613.48,555.5c0.02-8.37,7.66-15.15,17.07-15.13c9.41,0.02,17.02,6.82,17,15.19L613.48,555.5"/>
<path class="st2" d="M632.59,374.95h-15.27c0,11.54,0,20.89,0,20.89C625.75,395.84,632.59,386.49,632.59,374.95z"/>
<rect x="665.59" y="319.25" transform="matrix(0.9477 -0.3192 0.3192 0.9477 -68.6214 239.0065)" class="st234" width="58.58" height="19.22"/>
<polyline class="st2" points="613.47,558.9 647.54,558.97 647.55,555.53 613.48,555.46 "/>
<path class="st9" d="M349.17,450.44v-19.27c0-2.06-2.49-3.09-3.94-1.63l-7.43,7.43c-0.86,0.86-0.91,2.23-0.11,3.14l7.43,11.84
	C346.52,453.57,349.17,452.58,349.17,450.44z"/>
<path class="st9" d="M312.21,450.44v-19.27c0-2.06,2.49-3.09,3.94-1.63l7.43,7.43c0.86,0.86,0.91,2.23,0.11,3.14l-7.43,11.84
	C314.86,453.57,312.21,452.58,312.21,450.44z"/>
<g>
	<path class="st2" d="M326.08,492.79h30.76c7.66,0,13.87-6.21,13.87-13.87v-9.22c0-7.66-6.21-13.87-13.87-13.87h-30.76
		c-7.66,0-13.87,6.21-13.87,13.87v9.22C312.21,486.58,318.42,492.79,326.08,492.79z"/>
</g>
<path class="st13" d="M346.76,455.9v-19.27c0-2.06-2.49-3.09-3.94-1.63l-7.43,7.43c-0.86,0.86-0.91,2.23-0.11,3.14l7.43,11.84
	C344.11,459.02,346.76,458.03,346.76,455.9z"/>
<g>
	<path class="st2" d="M354.65,492.79c6.68,0,17.76-1.22,25.89-8.29c6.55-5.69,9.87-13.9,9.87-24.39c0-2.43-1.97-4.41-4.41-4.41
		s-4.41,1.97-4.41,4.41c0,7.82-2.29,13.78-6.81,17.72c-9.09,7.93-24.56,5.92-24.72,5.9c-2.41-0.33-4.63,1.35-4.96,3.76
		s1.34,4.63,3.74,4.97C349.12,492.49,351.35,492.79,354.65,492.79z"/>
</g>
<path class="st13" d="M314.58,456.06v-19.27c0-2.06,2.49-3.09,3.94-1.63l7.43,7.43c0.86,0.86,0.91,2.23,0.11,3.14l-7.43,11.84
	C317.23,459.18,314.58,458.19,314.58,456.06z"/>
<linearGradient id="SVGID_5_" gradientUnits="userSpaceOnUse" x1="330.6918" y1="-132.6256" x2="330.6918" y2="-83.5499" gradientTransform="matrix(1 0 0 -1 0 378.6771)">
	<stop  offset="0" style="stop-color:#4195B7"/>
	<stop  offset="1" style="stop-color:#62A4C0"/>
</linearGradient>
<path class="st15" d="M312.21,448.35v30.72c0,7.66,6.21,13.87,13.87,13.87h9.22c7.66,0,13.87-6.21,13.87-13.87v-30.72
	c0-7.66-6.21-13.87-13.87-13.87h-9.22C318.42,434.48,312.21,440.69,312.21,448.35z"/>
<path class="st9" d="M312.22,468.11c0-4.78-3.87-8.65-8.65-8.65s-8.65,3.87-8.65,8.65H312.22z"/>
<path class="st9" d="M347.98,492.79c0-4.78-3.87-8.65-8.65-8.65s-8.65,3.87-8.65,8.65H347.98z"/>
<g>
	<path class="st38" d="M327.38,458.78c-0.69,0-1.35-0.15-1.96-0.44c-1.57-0.75-2.58-2.36-2.58-4.1c0-0.55,0.45-1,1-1s1,0.45,1,1
		c0,0.97,0.57,1.88,1.45,2.3c0.34,0.16,0.71,0.25,1.1,0.25c1.4,0,2.54-1.14,2.54-2.54c0-0.55,0.45-1,1-1s1,0.45,1,1
		C331.92,456.74,329.88,458.78,327.38,458.78z"/>
</g>
<g>
	<path class="st38" d="M334.33,458.45c-2.51,0-4.54-2.04-4.54-4.54c0-0.55,0.45-1,1-1s1,0.45,1,1c0,1.4,1.14,2.54,2.54,2.54
		c0.38,0,0.75-0.08,1.1-0.25c0.88-0.42,1.45-1.32,1.45-2.3c0-0.55,0.45-1,1-1s1,0.45,1,1c0,1.74-1.01,3.35-2.58,4.1
		C335.68,458.3,335.01,458.45,334.33,458.45z"/>
</g>
<path class="st38" d="M333.87,452.21l-1.92,1.92c-0.61,0.61-1.59,0.61-2.19,0l-1.92-1.92c-0.98-0.98-0.28-2.65,1.1-2.65h3.85
	C334.16,449.56,334.85,451.23,333.87,452.21z"/>
<path class="st2" d="M327.71,441.48h-0.06c-1.13,0-2.04-0.91-2.04-2.04v-4.22c0-0.41,0.33-0.74,0.74-0.74h3.39v4.96
	C329.75,440.57,328.84,441.48,327.71,441.48z"/>
<path class="st2" d="M334.13,441.48h-0.06c-1.13,0-2.04-0.91-2.04-2.04v-4.96h3.4c0.4,0,0.73,0.33,0.73,0.73v4.23
	C336.17,440.57,335.26,441.48,334.13,441.48z"/>
<path class="st53" d="M267.41,439c0,5.95-4.83,10.78-10.78,10.78c-5.95,0-10.78-4.83-10.78-10.78"/>
<path class="st114" d="M268.48,438.47c0,6.54-5.3,11.85-11.85,11.85c-6.55,0-11.85-5.3-11.85-11.85"/>
<g>
	<path class="st38" d="M323.06,447.99c-0.08,0-0.17-0.01-0.25-0.03c-0.53-0.14-0.85-0.69-0.71-1.22c0.57-2.17,2.8-3.47,4.98-2.91
		c0.53,0.14,0.85,0.69,0.71,1.22s-0.69,0.85-1.22,0.71c-1.11-0.3-2.25,0.37-2.54,1.48C323.91,447.69,323.51,447.99,323.06,447.99z"
		/>
</g>
<g>
	<path class="st38" d="M338.43,448.02c-0.45,0-0.86-0.31-0.97-0.76c-0.13-0.54-0.46-0.99-0.94-1.28c-0.47-0.29-1.03-0.38-1.57-0.24
		c-0.54,0.13-1.08-0.2-1.21-0.73c-0.13-0.54,0.2-1.08,0.73-1.21c1.06-0.26,2.15-0.09,3.08,0.48s1.59,1.46,1.84,2.52
		c0.13,0.54-0.2,1.08-0.73,1.21C338.59,448.01,338.51,448.02,338.43,448.02z"/>
</g>
<circle class="st234" cx="664.4" cy="333.41" r="14.98"/>
<path class="st234" d="M666.9,337.63c7.15-1.98,11.34-9.37,9.37-16.52c-1.98-7.15-9.37-11.34-16.52-9.37"/>
<path class="st44" d="M604.84,101.33L604.84,101.33c1.12-1.12,2.93-1.12,4.05,0l20.35,20.35c1.12,1.12,1.12,2.93,0,4.05l0,0
	c-1.12,1.12-2.93,1.12-4.05,0l-20.35-20.35C603.73,104.26,603.73,102.45,604.84,101.33z"/>
<path class="st239" d="M256.21,415.89L256.21,415.89c-3.17,0-5.74-2.57-5.74-5.74V397.7c0-3.17,2.57-5.74,5.74-5.74l0,0
	c3.17,0,5.74,2.57,5.74,5.74v12.44C261.96,413.32,259.39,415.89,256.21,415.89z"/>
<linearGradient id="SVGID_6_" gradientUnits="userSpaceOnUse" x1="-868.7966" y1="-449.83" x2="-834.9991" y2="-449.83" gradientTransform="matrix(0.6011 -0.5375 -0.5557 -0.6215 549.4375 -380.2865)">
	<stop  offset="0" style="stop-color:#1D627E"/>
	<stop  offset="1" style="stop-color:#6495B4"/>
</linearGradient>
<path class="st16" d="M298.97,364.31L298.97,364.31c-9.2,8.22-23.32,7.44-31.55-1.76l-2.54-2.84l2.46-2.2
	c7.84-7.01,19.87-6.34,26.88,1.5L298.97,364.31z"/>
<g>
	<path class="st63" d="M260.6,371.29c-3.74,6.74-10.17,11.94-18.27,13.84c-2.18,0.51-4.35,0.72-6.49,0.72l2.77,7.48
		c3.39,9.16,13.07,14.37,22.59,12.14c9.4-2.2,15.75-10.98,14.89-20.6l-0.99-11.12c-0.14,0.04-0.28,0.09-0.42,0.12
		C269.63,375.06,264.59,373.97,260.6,371.29z"/>
	<path class="st63" d="M260.6,371.29c-3.64-2.44-6.41-6.2-7.49-10.81c-0.54-2.33-0.6-4.66-0.25-6.88c-0.57,0.08-1.15,0.19-1.72,0.32
		l-3.57,0.83c-11.36,2.65-17.81,14.66-13.76,25.6l2.03,5.49c2.14,0,4.31-0.21,6.49-0.72C250.43,383.24,256.86,378.03,260.6,371.29z"
		/>
	<path class="st63" d="M264.1,355.43c0.43,5.65-0.88,11.13-3.5,15.86c3.99,2.68,9.03,3.77,14.08,2.59c0.14-0.03,0.28-0.08,0.42-0.12
		l-0.24-2.69C274.22,364.02,269.92,358.3,264.1,355.43z"/>
	
		<linearGradient id="SVGID_7_" gradientUnits="userSpaceOnUse" x1="-33.9025" y1="-126.9408" x2="2.0026" y2="-126.9408" gradientTransform="matrix(0.9737 -0.2276 -0.2276 -0.9737 258.988 236.733)">
		<stop  offset="0" style="stop-color:#1D627E"/>
		<stop  offset="1" style="stop-color:#6495B4"/>
	</linearGradient>
	<path class="st17" d="M264.1,355.43c0.43,5.65-0.88,11.13-3.5,15.86c3.99,2.68,9.03,3.77,14.08,2.59c0.14-0.03,0.28-0.08,0.42-0.12
		l-0.24-2.69C274.22,364.02,269.92,358.3,264.1,355.43z"/>
	<path class="st63" d="M260.6,371.29c2.62-4.73,3.93-10.21,3.5-15.86c-3.38-1.67-7.26-2.39-11.24-1.83
		c-0.35,2.23-0.3,4.55,0.25,6.88C254.19,365.09,256.96,368.85,260.6,371.29z"/>
	
		<linearGradient id="SVGID_8_" gradientUnits="userSpaceOnUse" x1="-78.3417" y1="-121.9069" x2="-21.676" y2="-121.9069" gradientTransform="matrix(0.9737 -0.2276 -0.2276 -0.9737 258.988 236.733)">
		<stop  offset="0" style="stop-color:#1D627E"/>
		<stop  offset="1" style="stop-color:#6495B4"/>
	</linearGradient>
	<path class="st18" d="M260.6,371.29c2.62-4.73,3.93-10.21,3.5-15.86c-3.38-1.67-7.26-2.39-11.24-1.83
		c-0.35,2.23-0.3,4.55,0.25,6.88C254.19,365.09,256.96,368.85,260.6,371.29z"/>
	
		<linearGradient id="SVGID_9_" gradientUnits="userSpaceOnUse" x1="-52.6019" y1="-137.5216" x2="-31.0158" y2="-114.8935" gradientTransform="matrix(0.9737 -0.2276 -0.2276 -0.9737 258.988 236.733)">
		<stop  offset="0" style="stop-color:#1D627E"/>
		<stop  offset="1" style="stop-color:#6495B4"/>
	</linearGradient>
	<path class="st19" d="M252.86,353.6c-0.57,0.08-1.15,0.19-1.72,0.32l-3.57,0.83c-11.36,2.65-17.81,14.66-13.76,25.6l2.03,5.49
		c2.14,0,4.31-0.21,6.49-0.72c8.1-1.89,14.53-7.1,18.27-13.84c2.62-4.73,3.93-10.21,3.5-15.86
		C260.73,353.76,256.85,353.04,252.86,353.6z"/>
</g>
<linearGradient id="SVGID_10_" gradientUnits="userSpaceOnUse" x1="-1955.5508" y1="165.0172" x2="-1921.7534" y2="165.0172" gradientTransform="matrix(-0.7378 -0.3255 0.3365 -0.7628 -1269.0348 -132.8861)">
	<stop  offset="0" style="stop-color:#1D627E"/>
	<stop  offset="1" style="stop-color:#6495B4"/>
</linearGradient>
<path class="st21" d="M207.94,382.64L207.94,382.64c11.29,4.98,24.48-0.13,29.46-11.42l1.54-3.49l-3.02-1.33
	c-9.62-4.24-20.86,0.11-25.1,9.73L207.94,382.64z"/>
<circle class="st63" cx="236.92" cy="389.25" r="5.97"/>
<circle class="st239" cx="238.07" cy="389.62" r="2.62"/>
<path class="st33" d="M235.91,370.31l-2.2-3.8c-0.62-1.07-0.25-2.43,0.82-3.04l0,0c1.07-0.62,2.43-0.25,3.04,0.82l2.2,3.8
	c0.62,1.07,0.25,2.43-0.82,3.04l0,0C237.89,371.74,236.52,371.38,235.91,370.31z"/>
<linearGradient id="SVGID_11_" gradientUnits="userSpaceOnUse" x1="251.2729" y1="-16.5356" x2="241.4958" y2="-6.7585" gradientTransform="matrix(1 0 0 -1 0 378.6771)">
	<stop  offset="0.0848" style="stop-color:#FCD4B7"/>
	<stop  offset="1" style="stop-color:#F7B395"/>
	<stop  offset="1" style="stop-color:#020203"/>
</linearGradient>
<circle class="st24" cx="248.15" cy="392.09" r="5.1"/>
<g>
	<path class="st37" d="M259.78,399.29c-4.9,0.48-8.35-2.38-8.89-2.87c-0.48-0.42-0.57-0.84-0.29-1.24c0.24-0.33,0.7-0.43,1.06-0.23
		c0.09,0.05,0.16,0.12,0.22,0.19c0.45,0.43,7.07,6.35,15.43-1.32c0.33-0.3,0.84-0.28,1.14,0.05c0.3,0.33,0.28,0.84-0.05,1.14
		C265.28,397.89,262.33,399.05,259.78,399.29z"/>
</g>
<path class="st55" d="M263.77,378.78c-0.37,0.2-0.78-0.18-0.58-0.55c0.72-1.37,2.13-2.88,4.58-1.16
	C271.15,379.44,266.6,377.29,263.77,378.78z"/>
<path class="st55" d="M254.71,380.68c0.42,0.04,0.65-0.46,0.33-0.73c-1.18-1-3.05-1.87-4.68,0.64
	C248.12,384.05,251.54,380.35,254.71,380.68z"/>
<path class="st38" d="M265.33,383.22c-0.4,0.23-0.85-0.24-0.59-0.62c1.05-1.53,2.64-3.2,3.96-1.79
	C270.52,382.77,268.27,381.54,265.33,383.22z"/>
<path class="st38" d="M255.32,385.02c0.46-0.01,0.61-0.64,0.18-0.84c-1.69-0.78-3.91-1.39-4.31,0.5
	C250.63,387.3,251.92,385.09,255.32,385.02z"/>
<path class="st38" d="M269.67,381.92l-1.7,0.36c-0.31,0.06-0.61-0.13-0.67-0.44l0,0c-0.06-0.31,0.13-0.61,0.44-0.67l1.7-0.36
	c0.31-0.06,0.61,0.13,0.67,0.44l0,0C270.18,381.56,269.98,381.86,269.67,381.92z"/>
<path class="st38" d="M252.59,385.58l-1.64,0.57c-0.3,0.1-0.62-0.05-0.72-0.35l0,0c-0.1-0.3,0.05-0.62,0.35-0.72l1.64-0.57
	c0.3-0.1,0.62,0.05,0.72,0.35l0,0C253.04,385.15,252.88,385.47,252.59,385.58z"/>
<path class="st246" d="M262.49,388.71c1.15-0.24,1.5-1.7,0.53-2.3c-0.68-0.42-1.52-0.59-2.38-0.41c-0.82,0.17-1.51,0.63-1.96,1.24
	c-0.71,0.96,0.15,2.23,1.34,1.98L262.49,388.71z"/>
<linearGradient id="SVGID_12_" gradientUnits="userSpaceOnUse" x1="647.8244" y1="186.4362" x2="644.1618" y2="170.7962" gradientTransform="matrix(1 0 0 -1 0 378.6771)">
	<stop  offset="0" style="stop-color:#1D627E"/>
	<stop  offset="1" style="stop-color:#6495B4"/>
</linearGradient>
<path class="st25" d="M664.29,198.56c0.17,12.75-7.75,23.2-17.69,23.33c-9.95,0.14-18.15-10.09-18.32-22.84s7.75-23.2,17.69-23.33
	S664.11,185.81,664.29,198.56z"/>
<linearGradient id="SVGID_13_" gradientUnits="userSpaceOnUse" x1="766.8198" y1="267.5767" x2="776.3076" y2="236.2115" gradientTransform="matrix(0.9911 0.133 0.133 -0.9911 -141.7465 340.3037)">
	<stop  offset="0" style="stop-color:#1D627E"/>
	<stop  offset="1" style="stop-color:#6495B4"/>
</linearGradient>
<path class="st26" d="M675.36,198.61c0.17,12.64-7.75,23-17.69,23.14c-9.95,0.14-18.15-10-18.32-22.64s7.75-23,17.69-23.14
	S675.19,185.97,675.36,198.61z"/>
<ellipse class="st63" cx="651.64" cy="254.02" rx="10.58" ry="8.83"/>
<path class="st239" d="M651.03,255.2h0.61c5.28,0,9.56-4.28,9.56-9.56v-14.2c0-5.28-4.28-9.56-9.56-9.56h-0.61
	c-5.28,0-9.56,4.28-9.56,9.56v14.2C641.47,250.91,645.75,255.2,651.03,255.2z"/>
<path class="st6" d="M652.35,277.59H651c-1.44,0-2.6-0.65-2.6-1.44v-12.21c0-0.8-1.55-1.89-0.12-1.89h6.91
	c1.44,0-0.24,1.09-0.24,1.89v12.21C654.96,276.95,653.79,277.59,652.35,277.59z"/>
<path class="st63" d="M656.86,237.91l-11.16-0.11c-8.38,0.11-15.27-6.61-15.38-15.02l1.16-25.9c-0.12-8.41,6.58-15.32,14.96-15.43
	l7.16,0.22c8.38-0.11,15.27,6.61,15.38,15.02l1.33,25.62C670.43,230.72,665.24,237.8,656.86,237.91z"/>
<circle class="st63" cx="671.51" cy="209.68" r="6.03"/>
<circle class="st239" cx="671.1" cy="210.39" r="2.4"/>
<circle class="st50" cx="651.54" cy="271.19" r="1.91"/>
<path class="st6" d="M653.2,265.23c0,0,6.03-6.77,7.55-21.98C660.74,243.25,679.31,263.02,653.2,265.23z"/>
<path class="st6" d="M641.55,243.21c3.16,15.01,10.03,21.14,10.03,21.14C624.72,264.87,641.55,243.21,641.55,243.21"/>
<linearGradient id="SVGID_14_" gradientUnits="userSpaceOnUse" x1="961.601" y1="449.6266" x2="984.7216" y2="426.5061" gradientTransform="matrix(0.9183 0.3958 0.3958 -0.9183 -417.4136 204.4132)">
	<stop  offset="0" style="stop-color:#1D627E"/>
	<stop  offset="1" style="stop-color:#6495B4"/>
</linearGradient>
<path class="st27" d="M627.09,182.21l12.31-5.83c12.43-5.89,27.28-0.59,33.17,11.84l0,0c0.49,1.03,0.05,2.27-0.98,2.76l-12.31,5.83
	c-12.43,5.89-27.28,0.59-33.17-11.84l0,0C625.62,183.94,626.06,182.7,627.09,182.21z"/>
<linearGradient id="SVGID_15_" gradientUnits="userSpaceOnUse" x1="1123.766" y1="690.712" x2="1142.6564" y2="671.8217" gradientTransform="matrix(0.7734 0.6339 0.6339 -0.7734 -652.9596 -8.4408)">
	<stop  offset="0" style="stop-color:#1D627E"/>
	<stop  offset="1" style="stop-color:#6495B4"/>
</linearGradient>
<path class="st28" d="M638.77,173.9l10.98-1.81c11.09-1.82,21.56,5.69,23.38,16.78l0,0c0.15,0.92-0.47,1.79-1.39,1.94l-10.98,1.81
	c-11.09,1.82-21.56-5.69-23.38-16.78l0,0C637.22,174.92,637.85,174.05,638.77,173.9z"/>
<path class="st55" d="M652.48,205.62c-1.15,0.1-1.26-1.22-0.26-1.81c2.07-1.23,7.3-2.07,6.7,1.39
	C658.25,208.96,657.62,205.15,652.48,205.62z"/>
<path class="st55" d="M642.06,205.11c1.19,0.06,1.25-1.31,0.2-1.88c-2.18-1.19-7.61-1.86-6.85,1.68
	C636.24,208.77,636.75,204.83,642.06,205.11z"/>
<path class="st239" d="M644.67,212.72c-1.01,2.18-4.8,8.21,1.94,10.41C653.36,225.32,649.91,201.45,644.67,212.72z"/>
<circle class="st38" cx="654.3" cy="209.68" r="1.83"/>
<circle class="st38" cx="640.07" cy="209.68" r="1.83"/>
<path class="st37" d="M641.79,228.41c5.18,2.06,14.04,3.06,18.21-7.85c0.17-0.45-0.44-0.96-0.67-0.54
	c-2.06,3.66-8.35,8.86-17.43,7.53C641.38,227.47,641.31,228.22,641.79,228.41z"/>
<path class="st37" d="M658.35,218.45c-0.19-0.31-0.64-0.16-0.5,0.17c0.45,1.08,2.55,3.53,4.21,1.79
	C663.57,218.83,659.7,220.67,658.35,218.45z"/>
<path class="st239" d="M652.38,231.64c0.93,0,1.52,0.99,1.1,1.82c-0.66,1.29-2.01,2.17-3.56,2.17s-2.9-0.88-3.56-2.17
	c-0.43-0.83,0.16-1.82,1.1-1.82H652.38z"/>
<linearGradient id="SVGID_16_" gradientUnits="userSpaceOnUse" x1="776.2719" y1="130.3955" x2="813.8718" y2="130.3955" gradientTransform="matrix(1 0 0 -1 0 378.6771)">
	<stop  offset="0" style="stop-color:#1D627E"/>
	<stop  offset="1" style="stop-color:#6495B4"/>
</linearGradient>
<circle class="st29" cx="795.07" cy="248.28" r="18.8"/>
<linearGradient id="SVGID_17_" gradientUnits="userSpaceOnUse" x1="794.6691" y1="120.905" x2="751.0808" y2="137.1739" gradientTransform="matrix(1 0 0 -1 0 378.6771)">
	<stop  offset="0" style="stop-color:#1D627E"/>
	<stop  offset="1" style="stop-color:#6495B4"/>
</linearGradient>
<circle class="st31" cx="769.24" cy="248.28" r="18.8"/>
<path class="st5" d="M781.82,278.15h-0.42c-2.32,0-4.3-1.66-5.1-4.01c-0.24-0.71-0.37-1.48-0.37-2.29v-13.3
	c0-3.48,2.45-6.31,5.47-6.31h0.42c3.02,0,5.47,2.82,5.47,6.31v13.3C787.29,275.33,784.84,278.15,781.82,278.15z"/>
<linearGradient id="SVGID_18_" gradientUnits="userSpaceOnUse" x1="819.8888" y1="176.4911" x2="774.5354" y2="146.3323" gradientTransform="matrix(1 0 0 -1 0 378.6771)">
	<stop  offset="0" style="stop-color:#1D627E"/>
	<stop  offset="1" style="stop-color:#6495B4"/>
</linearGradient>
<circle class="st32" cx="794.84" cy="218.84" r="18.8"/>
<linearGradient id="SVGID_19_" gradientUnits="userSpaceOnUse" x1="849.7314" y1="126.837" x2="791.7159" y2="139.2689" gradientTransform="matrix(1 0 0 -1 0 378.6771)">
	<stop  offset="0" style="stop-color:#1D627E"/>
	<stop  offset="1" style="stop-color:#6495B4"/>
</linearGradient>
<circle class="st34" cx="805.73" cy="242.41" r="18.8"/>
<linearGradient id="SVGID_20_" gradientUnits="userSpaceOnUse" x1="776.4963" y1="141.4789" x2="753.4742" y2="132.884" gradientTransform="matrix(1 0 0 -1 0 378.6771)">
	<stop  offset="0" style="stop-color:#1D627E"/>
	<stop  offset="1" style="stop-color:#6495B4"/>
</linearGradient>
<circle class="st35" cx="762.53" cy="242.41" r="18.8"/>
<linearGradient id="SVGID_21_" gradientUnits="userSpaceOnUse" x1="786.6965" y1="180.1938" x2="772.8834" y2="156.0207" gradientTransform="matrix(1 0 0 -1 0 378.6771)">
	<stop  offset="0" style="stop-color:#1D627E"/>
	<stop  offset="1" style="stop-color:#6495B4"/>
</linearGradient>
<circle class="st36" cx="772.33" cy="223.62" r="18.8"/>
<circle class="st3" cx="799.39" cy="241.96" r="4.32"/>
<circle class="st5" cx="799.39" cy="241.96" r="2.01"/>
<circle class="st3" cx="765.5" cy="242.16" r="4.32"/>
<circle class="st5" cx="765.5" cy="242.16" r="2.01"/>
<circle class="st33" cx="801.27" cy="248.28" r="4.26"/>
<circle class="st33" cx="762.92" cy="248.28" r="4.34"/>
<path class="st3" d="M799.82,250.35c0-0.05,0.01-0.1,0.01-0.15v-14.37c0-0.55-0.06-1.08-0.17-1.59c-1.16-9.59-8.37-16.97-17.1-16.97
	c-9.54,0-17.27,8.82-17.27,19.7c0,1.67,0.18,3.3,0.53,4.85c-2.05,2.38-3.29,5.47-3.29,8.86l0,0c0,7.5,6.08,13.57,13.57,13.57h10.15
	c7.5,0,13.57-6.08,13.57-13.57l0,0C799.83,250.56,799.82,250.45,799.82,250.35z"/>
<linearGradient id="SVGID_22_" gradientUnits="userSpaceOnUse" x1="647.4484" y1="35.0623" x2="624.1193" y2="21.2491" gradientTransform="matrix(1.0577 -0.1985 -0.1927 -0.9917 129.0715 371.5783)">
	<stop  offset="0" style="stop-color:#1D627E"/>
	<stop  offset="1" style="stop-color:#6495B4"/>
</linearGradient>
<path class="st45" d="M791.73,234.83c-2-5.76-7.76-9.77-14.23-9.9c-4.28-0.09-8.09,1.37-10.97,3.76
	c0.11-7.83,6.62-14.66,15.35-15.22c7.98-0.52,15.23,4.75,16.69,12.12c1.16,5.87-1.43,11.53-6.07,14.96
	C792.63,238.68,792.4,236.76,791.73,234.83z"/>
<linearGradient id="SVGID_23_" gradientUnits="userSpaceOnUse" x1="794.8418" y1="147.7428" x2="794.8418" y2="128.1058" gradientTransform="matrix(1 0 0 -1 0 378.6771)">
	<stop  offset="0" style="stop-color:#EE7162"/>
	<stop  offset="1" style="stop-color:#FBCDA9"/>
</linearGradient>
<circle class="st47" cx="794.84" cy="248.54" r="3.98"/>
<linearGradient id="SVGID_24_" gradientUnits="userSpaceOnUse" x1="760.7603" y1="152.3953" x2="769.3934" y2="128.1358" gradientTransform="matrix(1 0 0 -1 0 378.6771)">
	<stop  offset="0" style="stop-color:#EE7162"/>
	<stop  offset="1" style="stop-color:#FBCDA9"/>
</linearGradient>
<circle class="st48" cx="768.68" cy="248.54" r="3.98"/>
<path class="st5" d="M778.77,251.76c1.8,0,2.59-2.28,1.17-3.39c-0.74-0.58-1.67-0.92-2.67-0.92c-1.01,0-1.94,0.35-2.67,0.93
	c-1.41,1.12-0.61,3.39,1.19,3.39L778.77,251.76z"/>
<g>
	<path class="st12" d="M789.65,253.6c-0.41-1.77-2.01-2.65-4.1-0.61c-2.21,2.17-5.54,2.87-8.13,2.84c-0.52-0.01-1.01-0.04-1.46-0.1
		c-1.48-0.2-2.36,1.68-1.2,2.63c1.28,1.04,3.06,1.69,4.86,2C781.41,256.43,785.28,253.77,789.65,253.6z"/>
	<path class="st37" d="M785.35,260.08c3.67-1.33,4.76-4.48,4.3-6.48c-4.37,0.18-8.24,2.83-10.02,6.76
		C781.74,260.72,783.89,260.61,785.35,260.08z"/>
</g>
<path class="st38" d="M770.69,244.33L770.69,244.33c-1.03-0.08-1.8-0.98-1.71-2.01l0.12-1.51c0.08-1.03,0.98-1.8,2.01-1.71l0,0
	c1.03,0.08,1.8,0.98,1.71,2.01l-0.12,1.51C772.62,243.64,771.72,244.41,770.69,244.33z"/>
<path class="st38" d="M784.2,245.4L784.2,245.4c-1.03-0.08-1.8-0.98-1.71-2.01l0.12-1.51c0.08-1.03,0.98-1.8,2.01-1.71l0,0
	c1.03,0.08,1.8,0.98,1.71,2.01l-0.12,1.51C786.13,244.71,785.23,245.48,784.2,245.4z"/>
<g>
	<path class="st9" d="M773.7,236.48c-0.27-0.02-0.53-0.15-0.7-0.39c-1.01-1.35-2.94-1.62-4.28-0.61c-0.43,0.32-1.04,0.24-1.36-0.19
		c-0.32-0.43-0.24-1.04,0.19-1.36c2.2-1.66,5.35-1.21,7,0.99c0.32,0.43,0.24,1.04-0.19,1.36
		C774.17,236.43,773.93,236.49,773.7,236.48z"/>
</g>
<g>
	<path class="st9" d="M782.5,237.23c-0.23-0.07-0.43-0.22-0.55-0.44c-0.27-0.46-0.11-1.06,0.35-1.33c2.39-1.39,5.45-0.58,6.84,1.8
		c0.27,0.46,0.11,1.06-0.35,1.33c-0.46,0.27-1.06,0.11-1.33-0.35c-0.85-1.46-2.73-1.95-4.18-1.1
		C783.04,237.28,782.75,237.3,782.5,237.23z"/>
</g>
<path class="st9" d="M137.77,430.97H70.19c-3.01,0-5.44-2.44-5.44-5.44V390.2c0-3.01,2.44-5.44,5.44-5.44h67.58
	c3.01,0,5.44,2.44,5.44,5.44v35.33C143.22,428.54,140.78,430.97,137.77,430.97z"/>
<rect x="64.75" y="388.7" class="st12" width="78.47" height="8.24"/>
<rect x="128.1" y="387.26" class="st9" width="3.94" height="10.34"/>
<rect x="78.49" y="388.7" class="st9" width="3.94" height="9.48"/>
<path class="st9" d="M95.38,479.78H68.15c-1.81,0-3.28-1.47-3.28-3.28v-76.27c0-1.81,1.47-3.28,3.28-3.28h27.23
	c1.81,0,3.28,1.47,3.28,3.28v76.27C98.66,478.31,97.19,479.78,95.38,479.78z"/>
<path class="st5" d="M135.5,554.23h-19.9c-1.81,0-3.28-1.47-3.28-3.28v-76.99c0-1.81,1.47-3.28,3.28-3.28h19.9
	c1.81,0,3.28,1.47,3.28,3.28v76.99C138.79,552.76,137.32,554.23,135.5,554.23z"/>
<path class="st9" d="M139.81,479.78h-27.23c-1.81,0-3.28-1.47-3.28-3.28v-76.27c0-1.81,1.47-3.28,3.28-3.28h27.23
	c1.81,0,3.28,1.47,3.28,3.28v76.27C143.09,478.31,141.62,479.78,139.81,479.78z"/>
<path class="st2" d="M126.19,402.9h17.07c0,14.38,0,26.03,0,26.03C133.84,428.93,126.19,417.28,126.19,402.9z"/>
<path class="st3" d="M91.79,554.89H71.71c-1.81,0-3.28-1.47-3.28-3.28v-80.2c0-1.81,1.47-3.28,3.28-3.28h20.08
	c1.81,0,3.28,1.47,3.28,3.28v80.2C95.08,553.41,93.61,554.89,91.79,554.89z"/>
<circle class="st39" cx="50.64" cy="384.26" r="14.17"/>
<rect x="33.8" y="345.84" transform="matrix(0.3846 -0.9231 0.9231 0.3846 -294.7049 277.5935)" class="st39" width="54.08" height="27.96"/>
<path class="st30" d="M108.98,553.66c0.02-8.91,7.72-16.12,17.18-16.11c9.47,0.01,17.12,7.24,17.1,16.15L108.98,553.66"/>
<polyline class="st39" points="108.97,557.29 143.25,557.33 143.26,553.67 108.98,553.63 "/>
<path class="st2" d="M81.94,402.9H64.87c0,14.38,0,26.03,0,26.03C74.29,428.93,81.94,417.28,81.94,402.9z"/>
<circle class="st3" cx="81.76" cy="473.66" r="16.9"/>
<circle class="st39" cx="157.11" cy="386.88" r="14.17"/>
<rect x="133.7" y="335.11" transform="matrix(0.9342 -0.3567 0.3567 0.9342 -119.4668 76.5002)" class="st39" width="27.96" height="54.08"/>
<path class="st30" d="M85.1,301.79h37.78c18.06,0,32.7,14.64,32.7,32.7v78.82c0,2.64-2.14,4.77-4.77,4.77H57.17
	c-2.64,0-4.77-2.14-4.77-4.77v-78.82C52.4,316.43,67.04,301.79,85.1,301.79z"/>
<path class="st11" d="M146.52,497.79H61.45c-4.24,0-7.59-4.03-7.31-8.78l4.22-70.94h91.91l3.57,71.03
	C154.07,493.82,150.73,497.79,146.52,497.79z"/>
<linearGradient id="SVGID_25_" gradientUnits="userSpaceOnUse" x1="2472.0967" y1="512.2901" x2="2427.6628" y2="465.044" gradientTransform="matrix(-0.9829 0.1843 -0.1843 -0.9829 2611.144 295.9579)">
	<stop  offset="0" style="stop-color:#62A4C0"/>
	<stop  offset="1" style="stop-color:#CEE9EF"/>
</linearGradient>
<circle class="st49" cx="131.16" cy="280.35" r="14.81"/>
<circle class="st11" cx="91.32" cy="322.2" r="19.09"/>
<circle class="st11" cx="123.49" cy="322.2" r="18.44"/>
<path class="st30" d="M64.8,553.66c0.02-8.91,7.72-16.12,17.18-16.11s17.12,7.24,17.1,16.15L64.8,553.66"/>
<polyline class="st39" points="64.79,557.29 99.07,557.33 99.08,553.67 64.8,553.63 "/>
<path class="st3" d="M104.1,330.67l11.93-2.24c13.29-2.49,22.04-15.28,19.55-28.57l-2.53-13.49c-2.49-13.29-15.28-22.04-28.57-19.55
	l-11.93,2.24c-13.29,2.49-22.04,15.28-19.55,28.57l2.53,13.49C78.02,324.41,90.82,333.16,104.1,330.67z"/>
<circle class="st3" cx="111.66" cy="321.2" r="13.89"/>
<circle class="st11" cx="107.26" cy="353.55" r="3.32"/>
<linearGradient id="SVGID_26_" gradientUnits="userSpaceOnUse" x1="2462.0952" y1="476.2169" x2="2462.0952" y2="522.1698" gradientTransform="matrix(-0.9829 0.1843 -0.1843 -0.9829 2611.144 295.9579)">
	<stop  offset="0" style="stop-color:#62A4C0"/>
	<stop  offset="1" style="stop-color:#CEE9EF"/>
</linearGradient>
<circle class="st54" cx="98.08" cy="253.37" r="17.73"/>
<linearGradient id="SVGID_27_" gradientUnits="userSpaceOnUse" x1="2448.8455" y1="513.8522" x2="2533.9426" y2="438.3887" gradientTransform="matrix(-0.9829 0.1843 -0.1843 -0.9829 2611.144 295.9579)">
	<stop  offset="0" style="stop-color:#62A4C0"/>
	<stop  offset="0.6314" style="stop-color:#CEE9EF"/>
</linearGradient>
<circle class="st56" cx="71.98" cy="290.52" r="14.09"/>
<circle class="st3" cx="73.89" cy="305.15" r="7.23"/>
<linearGradient id="SVGID_28_" gradientUnits="userSpaceOnUse" x1="2462.0129" y1="513.0647" x2="2461.1218" y2="474.1609" gradientTransform="matrix(-0.9829 0.1843 -0.1843 -0.9829 2611.144 295.9579)">
	<stop  offset="0" style="stop-color:#62A4C0"/>
	<stop  offset="1" style="stop-color:#CEE9EF"/>
</linearGradient>
<path class="st57" d="M84.86,291.34l40.71-7.63c6.17-1.16,10.23-7.09,9.07-13.26l-1.4-7.49c-1.16-6.17-7.09-10.23-13.26-9.07
	l-40.71,7.63c-6.17,1.16-10.23,7.09-9.07,13.26l1.4,7.49C72.76,288.43,78.69,292.49,84.86,291.34z"/>
<circle class="st11" cx="107.26" cy="376.07" r="3.32"/>
<circle class="st11" cx="107.26" cy="397.99" r="3.32"/>
<circle class="st5" cx="73.89" cy="305.15" r="2.91"/>
<circle class="st5" cx="120.86" cy="371.31" r="14.41"/>
<rect x="126.49" y="355.68" transform="matrix(0.4084 -0.9128 0.9128 0.4084 -262.5818 352.2568)" class="st39" width="27.96" height="46.04"/>
<path class="st39" d="M120.66,359.77l-7.93,19.73c-1.33,3.31,0.27,7.07,3.58,8.4l6.7,2.7c3.31,1.33,7.07-0.27,8.4-3.58l7.93-19.73
	c1.33-3.31-0.27-7.07-3.58-8.4l-6.7-2.7C125.75,354.86,121.99,356.46,120.66,359.77z"/>
<path class="st5" d="M117.62,305.78c-0.12-3.64,2.85-5.12,5.4-2.51c2.72,2.79,5.41,6.16,4.13,7.55c-2.36,2.55-7.23,2.72-8.33,1.61
	C118.3,311.91,117.73,308.88,117.62,305.78z"/>
<g>
	<path class="st38" d="M104.16,316.03c-6.91-4.08-8.92-7.84-9.51-4.64c-0.04,0.23-0.04,0.57,0,0.99
		c7.05,1.93,12.01,8.06,12.63,15.13c2.69-0.21,5.8-1.85,9.33-5.69C125.29,312.36,112.52,320.97,104.16,316.03z"/>
	<path class="st37" d="M94.65,312.38c0.4,4.03,4.7,15.76,12.63,15.13C106.66,320.44,101.7,314.31,94.65,312.38z"/>
</g>
<linearGradient id="SVGID_29_" gradientUnits="userSpaceOnUse" x1="-181.8283" y1="-21.7057" x2="-173.1927" y2="-30.3413" gradientTransform="matrix(0.9834 0.1815 0.1815 -0.9834 274.4399 316.7113)">
	<stop  offset="0.0848" style="stop-color:#FCD4B7"/>
	<stop  offset="1" style="stop-color:#F7B395"/>
	<stop  offset="1" style="stop-color:#020203"/>
</linearGradient>
<circle class="st58" cx="94.55" cy="309.21" r="6.09"/>
<circle class="st12" cx="128.47" cy="296.68" r="2.68"/>
<circle class="st12" cx="109.43" cy="300.11" r="2.68"/>
<circle class="st5" cx="32.2" cy="425.2" r="14.41"/>
<polygon class="st39" points="45.46,433.02 19.65,422.27 37.36,379.76 52.37,386.02 52.78,399.53 53.33,414.15 "/>
<path class="st39" d="M39.18,433.39l-17.75-8.21c-3.66-1.69-5.26-6.04-3.57-9.7l2.31-5c1.69-3.66,6.04-5.26,9.7-3.57l17.75,8.21
	c3.66,1.69,5.26,6.04,3.57,9.7l-2.31,5C47.19,433.48,42.85,435.08,39.18,433.39z"/>
<polygon class="st6" points="82.96,358.76 73.56,360.9 68.12,344.29 77.53,344.29 "/>
<polygon class="st33" points="64.15,358.76 73.56,360.9 77.52,344.29 68.11,344.29 "/>
<circle class="st114" cx="73.7" cy="365.83" r="4.94"/>
<circle class="st53" cx="73.7" cy="365.88" r="3.81"/>
<path class="st33" d="M406.05,213.47H161.87c-17.13,0-31.02-13.89-31.02-31.02v-99.9c0-17.13,13.89-31.02,31.02-31.02h244.19
	c17.13,0,31.02,13.89,31.02,31.02v99.89C437.08,199.58,423.19,213.47,406.05,213.47z"/>
<g>
	<path class="st41" d="M194.76,98.1c0-6.15,4.65-10.35,10.65-10.35c4.41,0,6.96,2.4,8.37,4.89l-3.66,1.8
		c-0.84-1.62-2.64-2.91-4.71-2.91c-3.63,0-6.27,2.79-6.27,6.57s2.64,6.57,6.27,6.57c2.07,0,3.87-1.26,4.71-2.91l3.66,1.77
		c-1.44,2.49-3.96,4.92-8.37,4.92C199.41,108.45,194.76,104.25,194.76,98.1z"/>
	<path class="st41" d="M216.33,108.09v-20h14.16v3.75h-9.9v4.23h9.69v3.75h-9.69v4.53h9.9v3.75h-14.16V108.09z"/>
	<path class="st41" d="M251.22,108.09v-14l-5.64,14.01h-1.86l-5.64-14.01v14.01h-4.26V88.09h5.97l4.86,12.09l4.86-12.09h6v20.01
		h-4.29V108.09z"/>
	<path class="st41" d="M259.47,108.09v-20h14.16v3.75h-9.9v4.23h9.69v3.75h-9.69v4.53h9.9v3.75h-14.16V108.09z"/>
	<path class="st41" d="M276.96,108.09v-20h4.26v12.93l9.27-12.93h4.38v20.01h-4.26V94.68l-9.54,13.41
		C281.07,108.09,276.96,108.09,276.96,108.09z M285.93,87.16c-2.13,0-4.05-1.02-5.28-2.64l1.68-1.41c0.81,1.14,2.04,1.86,3.6,1.86
		c1.5,0,2.73-0.69,3.57-1.86l1.68,1.41C289.98,86.14,288.09,87.16,285.93,87.16z"/>
	<path class="st41" d="M312.54,108.09v-8.4h-9.45v8.4h-4.26v-20h4.26v7.86h9.45v-7.86h4.29v20.01h-4.29V108.09z"/>
	<path class="st41" d="M325.02,88.09v7.11h5.1c4.32,0,6.72,2.97,6.72,6.45c0,3.51-2.37,6.45-6.72,6.45h-9.36V88.09H325.02z
		 M325.02,98.95v5.4h4.53c1.68,0,2.94-1.02,2.94-2.7c0-1.65-1.26-2.7-2.94-2.7C329.55,98.95,325.02,98.95,325.02,98.95z
		 M338.52,108.09v-20h4.29v20.01h-4.29V108.09z"/>
	<path class="st41" d="M346.77,108.09v-20h4.26v12.93l9.27-12.93h4.38v20.01h-4.26V94.68l-9.54,13.41
		C350.88,108.09,346.77,108.09,346.77,108.09z M355.74,87.16c-2.13,0-4.05-1.02-5.28-2.64l1.68-1.41c0.81,1.14,2.04,1.86,3.6,1.86
		c1.5,0,2.73-0.69,3.57-1.86l1.68,1.41C359.79,86.14,357.9,87.16,355.74,87.16z"/>
	<path class="st41" d="M243.71,134.1c0-6.15,4.65-10.35,10.65-10.35c4.41,0,6.96,2.4,8.37,4.89l-3.66,1.8
		c-0.84-1.62-2.64-2.91-4.71-2.91c-3.63,0-6.27,2.79-6.27,6.57s2.64,6.57,6.27,6.57c2.07,0,3.87-1.26,4.71-2.91l3.66,1.77
		c-1.44,2.49-3.96,4.92-8.37,4.92C248.36,144.45,243.71,140.25,243.71,134.1z"/>
	<path class="st41" d="M269.06,129.7c0,2.61,1.35,3.63,3.66,3.63c1.44,0,2.76-0.24,3.81-0.66v-8.58h4.26v20.01h-4.26v-7.68
		c-1.29,0.39-2.79,0.66-4.32,0.66c-5.1,0-7.44-2.94-7.44-7.38v-5.61h4.29V129.7z"/>
	<path class="st41" d="M284.75,144.09v-20.01h14.16v3.75h-9.9v4.23h9.69v3.75h-9.69v4.53h9.9v3.75H284.75z M288.65,122.8
		c-1.14,0-2.04-0.9-2.04-2.04c0-1.11,0.9-2.01,2.04-2.01c1.11,0,2.01,0.9,2.01,2.01C290.66,121.9,289.76,122.8,288.65,122.8z
		 M294.98,122.8c-1.11,0-2.04-0.9-2.04-2.04c0-1.11,0.93-2.01,2.04-2.01s2.04,0.9,2.04,2.01C297.02,121.9,296.09,122.8,294.98,122.8
		z"/>
	<path class="st41" d="M306.86,144.09v-16.26h-5.85v-3.75h15.96v3.75h-5.82v16.26H306.86z"/>
	<path class="st41" d="M208.19,177.24l2.22-2.85c1.38,1.44,3.57,2.28,5.52,2.28c2.43,0,3.78-1.05,3.78-2.55
		c0-1.59-1.23-2.31-4.02-2.31c-0.84,0-2.19,0.03-2.49,0.06v-3.84c0.36,0.03,1.74,0.03,2.49,0.03c2.22,0,3.69-0.66,3.69-2.13
		c0-1.59-1.62-2.37-3.72-2.37c-1.92,0-3.66,0.72-5.07,2.07l-2.13-2.67c1.62-1.83,4.14-3.18,7.65-3.18c4.68,0,7.56,2.1,7.56,5.43
		c0,2.52-2.16,4.17-4.38,4.56c2.04,0.21,4.68,1.8,4.68,4.8c0,3.45-3.09,5.88-7.89,5.88C212.39,180.45,209.66,179.04,208.19,177.24z"
		/>
	<path class="st41" d="M225.8,177.24l2.22-2.85c1.38,1.44,3.57,2.28,5.52,2.28c2.43,0,3.78-1.05,3.78-2.55
		c0-1.59-1.23-2.31-4.02-2.31c-0.84,0-2.19,0.03-2.49,0.06v-3.84c0.36,0.03,1.74,0.03,2.49,0.03c2.22,0,3.69-0.66,3.69-2.13
		c0-1.59-1.62-2.37-3.72-2.37c-1.92,0-3.66,0.72-5.07,2.07l-2.13-2.67c1.62-1.83,4.14-3.18,7.65-3.18c4.68,0,7.56,2.1,7.56,5.43
		c0,2.52-2.16,4.17-4.38,4.56c2.04,0.21,4.68,1.8,4.68,4.8c0,3.45-3.09,5.88-7.89,5.88C230,180.45,227.27,179.04,225.8,177.24z"/>
	<path class="st41" d="M243.41,177.24l2.22-2.85c1.38,1.44,3.57,2.28,5.52,2.28c2.43,0,3.78-1.05,3.78-2.55
		c0-1.59-1.23-2.31-4.02-2.31c-0.84,0-2.19,0.03-2.49,0.06v-3.84c0.36,0.03,1.74,0.03,2.49,0.03c2.22,0,3.69-0.66,3.69-2.13
		c0-1.59-1.62-2.37-3.72-2.37c-1.92,0-3.66,0.72-5.07,2.07l-2.13-2.67c1.62-1.83,4.14-3.18,7.65-3.18c4.68,0,7.56,2.1,7.56,5.43
		c0,2.52-2.16,4.17-4.38,4.56c2.04,0.21,4.68,1.8,4.68,4.8c0,3.45-3.09,5.88-7.89,5.88C247.61,180.45,244.88,179.04,243.41,177.24z"
		/>
	<path class="st41" d="M261.32,174.45v-3.24h7.2v3.24H261.32z"/>
	<path class="st41" d="M270.44,170.1c0-5.16,2.55-10.32,8.28-10.32c5.7,0,8.28,5.16,8.28,10.32s-2.58,10.35-8.28,10.35
		C272.99,180.45,270.44,175.26,270.44,170.1z M282.65,170.1c0-3.69-1.08-6.54-3.93-6.54c-2.88,0-3.96,2.85-3.96,6.54
		s1.08,6.57,3.96,6.57C281.57,176.67,282.65,173.79,282.65,170.1z"/>
	<path class="st41" d="M289.04,170.1c0-5.16,2.55-10.32,8.28-10.32c5.7,0,8.28,5.16,8.28,10.32s-2.58,10.35-8.28,10.35
		C291.59,180.45,289.04,175.26,289.04,170.1z M301.25,170.1c0-3.69-1.08-6.54-3.93-6.54c-2.88,0-3.96,2.85-3.96,6.54
		s1.08,6.57,3.96,6.57C300.17,176.67,301.25,173.79,301.25,170.1z"/>
	<path class="st41" d="M307.52,174.45v-3.24h7.2v3.24H307.52z"/>
	<path class="st41" d="M316.64,170.1c0-5.16,2.55-10.32,8.28-10.32c5.7,0,8.28,5.16,8.28,10.32s-2.58,10.35-8.28,10.35
		C319.19,180.45,316.64,175.26,316.64,170.1z M328.84,170.1c0-3.69-1.08-6.54-3.93-6.54c-2.88,0-3.96,2.85-3.96,6.54
		s1.08,6.57,3.96,6.57C327.76,176.67,328.84,173.79,328.84,170.1z"/>
	<path class="st41" d="M335.24,170.1c0-5.16,2.55-10.32,8.28-10.32c5.7,0,8.28,5.16,8.28,10.32s-2.58,10.35-8.28,10.35
		C337.79,180.45,335.24,175.26,335.24,170.1z M347.44,170.1c0-3.69-1.08-6.54-3.93-6.54c-2.88,0-3.96,2.85-3.96,6.54
		s1.08,6.57,3.96,6.57C346.36,176.67,347.44,173.79,347.44,170.1z"/>
</g>
<g>
	<path class="st53" d="M450.98,161.03c-3.01-1.71-4.06-5.54-2.35-8.55c1.71-3.01,5.54-4.06,8.55-2.35c3.01,1.71,4.06,5.54,2.35,8.55
		S453.98,162.74,450.98,161.03z M455.65,152.81c-1.53-0.87-3.47-0.33-4.34,1.19c-0.87,1.53-0.33,3.47,1.19,4.34
		c1.53,0.87,3.47,0.33,4.34-1.19C457.71,155.63,457.17,153.68,455.65,152.81z"/>
</g>
<g>
	<circle class="st53" cx="91.32" cy="129.89" r="4.09"/>
</g>
<g>
	<path class="st7" d="M460.73,32.01l-0.2,0.35c-0.42,0.74-1.35,0.99-2.09,0.58l-9.86-5.6c-0.74-0.42-0.99-1.35-0.58-2.09l0.2-0.35
		c0.42-0.74,1.35-0.99,2.09-0.58l9.86,5.6C460.89,30.34,461.15,31.28,460.73,32.01z"/>
</g>
<g>
	<path class="st7" d="M457.46,22.47l0.35,0.2c0.74,0.42,0.99,1.35,0.58,2.09l-5.6,9.86c-0.42,0.74-1.35,0.99-2.09,0.58l-0.35-0.2
		c-0.74-0.42-0.99-1.35-0.58-2.09l5.6-9.86C455.79,22.31,456.73,22.05,457.46,22.47z"/>
</g>
<g>
	<path class="st7" d="M284.83,249.66c-3.01-1.71-4.06-5.54-2.35-8.55c1.71-3.01,5.54-4.06,8.55-2.35c3.01,1.71,4.06,5.54,2.35,8.55
		C291.68,250.31,287.84,251.37,284.83,249.66z M289.51,241.44c-1.53-0.87-3.47-0.33-4.34,1.19c-0.87,1.53-0.33,3.47,1.19,4.34
		s3.47,0.33,4.34-1.19C291.57,244.26,291.03,242.31,289.51,241.44z"/>
</g>
<g>
	<circle class="st53" cx="334.33" cy="28.62" r="4.09"/>
</g>
<path class="st44" d="M762.42,248.19c8.63,1.32,14.38,2.47,25.85,1.52c3.06-0.25,5.82-1.95,7.46-4.55c2.26-3.59,4.11-8.05,4.28-7.9
	c-3.28,6.92-4.37,10.61-4.67,12.55c-0.17,1.04,0.07,2.11,0.64,3.01c0.01,0.01,0.01,0.02,0.02,0.03c0.59,0.93,1.94,1.04,2.61,0.17
	c0.67-0.86,1.27-2.46,1.3-5.44c0,0,0.28,5.45-1.01,8.42l0,0c-0.01,0.01-0.01,0.02-0.02,0.03c-0.02,0.05-0.04,0.09-0.06,0.14
	l-0.13,0.29l-0.01-0.01c-2.22,4.65-6.99,7.85-12.48,7.79l-10.23-0.1c-7.56-0.07-13.77-6.22-13.7-13.78v-0.04
	C762.29,249.46,762.42,248.19,762.42,248.19z"/>
<path class="st23" d="M793.3,252.63c0-0.04,0.01-0.08,0.01-0.12l0,0c0.03-0.77-0.64-1.4-1.41-1.31c-13.5,1.48-18.5,0.48-25.92-0.92
	c-0.74-0.14-1.45,0.39-1.5,1.15c-0.01,0.08-0.01,0.15-0.01,0.22v0.03c-0.25,5.77,4.35,10.62,10.12,10.87l7.81,0.33
	c5.77,0.25,10.65-4.23,10.89-10l0,0C793.3,252.79,793.3,252.71,793.3,252.63z"/>
<path class="st44" d="M786.27,253.25c0.34-0.06,0.5,0.39,0.21,0.56c-2.27,1.29-6.65,3.43-9.9,2.79c-2.13-0.41-4.14-1.5-5.68-2.54
	c-0.51-0.35-0.14-1.14,0.46-0.98C776.84,254.63,783.27,253.8,786.27,253.25z"/>
<path class="st44" d="M771.37,257.33c4.89,2.04,9.87,1.26,12.49,0.58c0.43-0.11,0.7,0.45,0.35,0.73c-1.69,1.28-4.53,2.24-7.39,1.74
	c-2.5-0.44-4.56-1.17-5.88-2.36C770.59,257.7,770.94,257.15,771.37,257.33z"/>
<path class="st44" d="M246.79,397.94c0-0.01,0.01-0.02,0.01-0.03c0.29-0.65,0.25-1.4-0.09-2.03l-5.16-10.91
	c5.08,8.35,8.86,8.47,9.77,8.31c10.87-2.42,25.04-6.31,25.02-7.65c0.39,9.13-5.81,17.52-14.88,19.8c-6.22,1.56-12.6-0.12-17.27-3.94
	c0,0-2.96-2.84-4.89-6.94c0,0,1.94,3.33,4.22,4.53C244.74,399.72,246.24,399.19,246.79,397.94z"/>
<path class="st23" d="M271.08,390.34c-4.12,1.95-11.72,4.93-19.4,4.7c-1.35-0.04-2.16,1.47-1.39,2.58
	c1.66,2.37,4.98,5.28,11.11,4.56c7.41-0.87,10.58-6.1,11.9-9.78C273.81,391.01,272.41,389.71,271.08,390.34z"/>
<path class="st44" d="M259.08,395.98c2.76-0.3,5.15-1.13,6.76-1.82c0.49-0.21,0.91,0.41,0.53,0.78c-1.05,1.04-2.45,2.14-3.79,2.28
	c-0.99,0.1-2.3-0.06-3.55-0.29C258.49,396.83,258.53,396.04,259.08,395.98z"/>
<path class="st44" d="M258.6,398.65c4.71,0.05,7.44-1.01,8.98-2.05c0.49-0.33,1.1,0.25,0.76,0.74c-0.78,1.12-2.1,2.26-4.32,2.66
	c-2.24,0.41-4.17,0.13-5.6-0.29C257.82,399.53,257.97,398.64,258.6,398.65z"/>
<path class="st44" d="M630.43,223.86l0.17-10.46c5.7,5.47,18.29,5.77,33.71,0.54c-0.88,3.46-0.75,7.22,0.62,10.82
	c0.86,2.26,2.14,4.24,3.71,5.89c-2.07,4.35-6.04,7.39-11.38,7.6l-11.12,0.18C637.79,238.76,630.76,232.23,630.43,223.86z"/>
<path class="st23" d="M632.21,224.68l0.07-3.79c0.04-1.88,1.96-3.06,3.7-2.35c4.88,1.99,12.22,1.83,22.16-1.32
	c1.23-0.39,2.51,0.55,2.42,1.83c-0.14,2.11,0.17,4.29,0.97,6.39c0.52,1.37,1.23,2.62,2.07,3.74c0.67,0.89,0.68,2.14,0.04,3.06
	c-1.91,2.72-4.87,4.52-8.64,4.67l-9.45,0.15C638.47,237.34,632.49,231.79,632.21,224.68z"/>
<path class="st44" d="M668.82,204.12c1.17-2.46-6.79,9.33-7.65,11.35c-0.86,2.02,2.98-1.14,2.98-1.14S663.92,214.42,668.82,204.12z"
	/>
<path class="st44" d="M669.69,215.27c0,0,0.37,12.73-2.75,13.29l1.29,2.88c4.01-3.79,1.56-15.89,1.56-15.89"/>
<path class="st44" d="M637.57,222.21c4.71,2.03,10.47,1.09,14.79-0.22c0.99-0.3,1.6,1.06,0.71,1.58c-3.29,1.94-7.49,3.64-11.1,2.67
	c-2.41-0.65-4.11-1.6-5.3-2.56C635.9,223.06,636.66,221.82,637.57,222.21z"/>
<path class="st44" d="M639.07,229.35c5.33,2.48,11.9,0.88,16.13-0.7c0.65-0.24,1.1,0.64,0.53,1.02c-3.11,2.06-7.65,4.25-11.79,3.12
	c-2.49-0.68-4.24-1.57-5.47-2.46C637.89,229.91,638.43,229.05,639.07,229.35z"/>
<path class="st0" d="M312.16,450.43l-0.23,10.95c14.12,5.31,27.68,2.91,33.76,1.27c2.02-0.54,3.42-2.37,3.43-4.46l0.04-7.23
	c0.01-2.51-1.2-4.86-3.24-6.33c-13.76-9.92-25.2-4.4-30.48-0.59C313.47,445.47,312.2,447.99,312.16,450.43z M325.3,449.55
	c-1.91-0.01-3.45-1.57-3.44-3.47c0.01-1.91,1.57-3.45,3.47-3.44c1.91,0.01,3.45,1.57,3.44,3.47S327.21,449.56,325.3,449.55z
	 M336.14,449.61c-1.91-0.01-3.45-1.57-3.44-3.47s1.57-3.45,3.47-3.44c1.91,0.01,3.45,1.57,3.44,3.47
	C339.61,448.09,338.05,449.62,336.14,449.61z"/>
<path class="st164" d="M340.88,452.08c-9.26,3.36-16.58,1.68-20.35,0.25c-0.49-0.19-0.85,0.47-0.44,0.79
	c2.31,1.74,6.18,3.89,10.99,3.56c4.85-0.33,8.29-2.32,10.24-3.82C341.73,452.55,341.37,451.9,340.88,452.08z"/>
<path class="st164" d="M339.36,457.31c-7.95,2.89-14.23,1.44-17.47,0.21c-0.42-0.16-0.73,0.41-0.37,0.68
	c1.98,1.5,5.31,3.34,9.43,3.06c4.17-0.28,7.12-1.99,8.79-3.28C340.09,457.71,339.78,457.16,339.36,457.31z"/>
<path class="st164" d="M349,452.14c0,0-8.03,2.68-4.64,3.14c4.29,0.59,4.74,0.59,4.74,0.59L349,452.14z"/>
<path class="st164" d="M312.1,453.65c0,0,8,2.76,4.6,3.19c-4.29,0.54-4.74,0.54-4.74,0.54L312.1,453.65z"/>
<path class="st44" d="M91.07,318.09c0.01-0.03,0.01-0.06,0.02-0.09c0.25-1.35-0.09-2.75-0.93-3.84l-9.69-12.62l12.66,9.44
	c0.9,0.67,2.01,1.02,3.14,0.96c17.56-0.94,29.32-5.81,39.4-11.83c1.87,9.95-2.58,19.63-10.51,24.91
	c-1.55,5.84-6.8,10.19-13.14,10.32c-3.95,0.08-7.53-1.51-10.11-4.1c-5.69,0.53-11.16-0.99-15.66-3.96l-0.02,0.01
	c-8.95-5.16-10.45-15.4-10.45-15.4c2.29,4.3,5.02,7.18,7.49,9.1C86.16,323.22,90.37,321.69,91.07,318.09z"/>
<path class="st90" d="M104.89,315.81c6.1-1.76,17.11-5.15,22.51-6.82c1.68-0.52,3.36,0.79,3.27,2.54c-0.09,1.68-0.38,3.53-1.08,4.58
	c-1.29,1.95-4.07,11.89-22.44,10.28c-1.63-0.14-3.06-1.16-3.7-2.67l-1.1-2.6C101.44,318.95,102.63,316.46,104.89,315.81z"/>
<path class="st44" d="M110.04,316.52c6.92-0.93,11.89-2.78,14.5-3.95c0.53-0.24,1,0.42,0.61,0.84c-1.47,1.62-3.97,3.76-7.19,4.3
	c-2.81,0.47-5.77,0.21-7.94-0.14C109.42,317.48,109.44,316.6,110.04,316.52z"/>
<path class="st44" d="M110.12,320.08c7.53,0.37,12.69-1.74,15.05-2.99c0.45-0.24,0.94,0.27,0.68,0.71
	c-1.04,1.76-3.24,4.39-7.14,4.55c-2.89,0.12-6.17-0.55-8.76-1.27C109.36,320.92,109.51,320.05,110.12,320.08z"/>
</svg>
