<svg version="1.1" id="Слой_1" xmlns="http://www.w3.org/2000/svg" x="0" y="0" viewBox="0 0 763 376" xml:space="preserve"><style>.st2{fill:#d5ecf3}.st3{fill:#c4e5ed}.st4{fill:#d8eff4}.st5{fill:#eff7fb}.st16{fill:#ffb392}.st20{fill:#19607c}.st23{fill:#0f4657}.st26{fill:#5fa2be}.st27{fill:#37a537}.st28{fill:#50b848}.st30{fill:#c6ebf2}.st31{fill:#ffd2b3}.st32{fill:#3e95b6}.st40{fill:#ff715e}.st41{fill:#005777}.st43{fill:#ffb951}.st44{fill:#ffd5b6}.st48{fill:#ff8872}.st51{fill:#ffd6b7}</style><linearGradient id="SVGID_1_" gradientUnits="userSpaceOnUse" x1="470.645" y1="165.653" x2="470.645" y2="-1.769"><stop offset="0" stop-color="#ecf6fb" stop-opacity=".1"/><stop offset=".215" stop-color="#e2f3f8" stop-opacity=".294"/><stop offset=".574" stop-color="#d7eff5" stop-opacity=".617"/><stop offset="1" stop-color="#d4eef4"/></linearGradient><path d="M555.4 89v16.9c0 1.6-1.1 3-2.5 3h-20.6c-1.4 0-2.5-1.3-2.5-3V54c0-1.6-1.1-3-2.5-3h-15.5c-1.4 0-2.5 1.3-2.5 3v25.8c0 1.6-1.1 3-2.5 3h-11c-1.4 0-2.5 1.3-2.5 3V124c0 1.6-1.1 3-2.5 3h-21.1c-1.4 0-2.5-1.3-2.5-3v-17.3c0-1.6-1.1-3-2.5-3h-35.3c-1.4 0-2.5-1.3-2.5-3V64.2c0-1.6-1.1-3-2.5-3h-23.9c-1.4 0-2.5 1.3-2.5 3v60c0 1.6-1.1 3-2.5 3H368c-1.4 0-2.5-1.3-2.5-3V90c0-1.6-1.1-3-2.5-3h-13.6c-1.4 0-2.5 1.1-2.5 2.5V157h247.5V89c0-1.6-1.3-2.9-2.9-2.9H558c-1.4-.1-2.6 1.3-2.6 2.9z" fill="url(#SVGID_1_)"/><path d="M547.2 138.9h100.3l-3.4-24.3c-.1-.7.4-1.3 1.1-1.3h23.3c1 0 6.2-.1 10.3.7 1.6.3 3 1.1 4 2.3l22.9 26.1c.4 13.9 8 11.9 9.7 11.8 0 .1.6 2.5.7 2.7-.5.7-1.3 1.3-2.5 1.3h-19.5c-14.2.2-98.5 0-141.9 0-2.5 0-4.6-1.8-4.9-4.2l-2-12.9c-.2-1.1.7-2.2 1.9-2.2z" fill="#f0f7f7"/><path class="st2" d="M705.7 142.6l4.6 4c2.3 2.1 4.1 4.7 5.1 7.7.3.9-.6 1.8-1.5 1.5-5.2-2-16-5.5-8.2-13.2z"/><path class="st3" d="M672.4 118.4c.2 0 1.2.2 2.3.5 2.3.5 4.4 1.8 5.9 3.6l7.1 8.1c1.4 1.2 2.2 3 2.2 4.9v.9c0 1.4-1.2 2.6-2.6 2.6h-25.8c-1 0-1.8-.8-1.8-1.8l-3.5-17.1c0-1 .8-1.8 1.8-1.8l14.4.1z"/><path class="st2" d="M696.1 141.9c.6 0 1.1-.5 1.1-1.1v-9.1c0-.6-.5-1.1-1.1-1.1-.6 0-1.1.5-1.1 1.1v9.1c0 .6.5 1.1 1.1 1.1zm1.1-2.5c1.5 0 2.7-1.2 2.7-2.7 0-1.5-1.2-2.7-2.7-2.7v5.4zm-144.6 18.9h161c1.1 0 1.9-.6 2.5-1.3.2 1 .3 2 .3 3v8.1c0 2.6-2.1 4.8-4.8 4.8h-155c-2.6 0-4.2-.6-5.2-5l-1.8-9.5c-.1-2.6.4-.1 3-.1z"/><path class="st3" d="M574.3 172.9H600c0-7.1-5.7-12.8-12.8-12.8s-12.9 5.7-12.9 12.8zm106.4 0h25.7c0-7.1-5.7-12.8-12.8-12.8s-12.9 5.7-12.9 12.8z"/><circle class="st4" cx="693.5" cy="172.9" r="9.6"/><circle class="st5" cx="693.5" cy="172.9" r="5.4"/><circle class="st4" cx="587.2" cy="173.1" r="9.3"/><circle class="st5" cx="587.2" cy="173.1" r="5.4"/><linearGradient id="SVGID_2_" gradientUnits="userSpaceOnUse" x1="4987.035" y1="-39.569" x2="4987.035" y2="37.464" gradientTransform="matrix(-1 0 0 1 5424.202 169)"><stop offset="0" stop-color="#ffe9bf"/><stop offset="1" stop-color="#ff6e48"/></linearGradient><path d="M458.8 182.1h-43.3v-33.6h43.3v33.6z" fill="url(#SVGID_2_)"/><linearGradient id="SVGID_3_" gradientUnits="userSpaceOnUse" x1="5026.392" y1="-74.216" x2="5026.392" y2="192.856" gradientTransform="matrix(-1 0 0 1 5424.202 169)"><stop offset="0" stop-color="#ffe9bf"/><stop offset="1" stop-color="#ff6e48"/></linearGradient><path d="M434.5 182h-73.3v-55.9h73.3V182z" fill="url(#SVGID_3_)"/><path class="st16" d="M366.1 141.1h10.3v-10.3h-10.3v10.3z"/><linearGradient id="SVGID_4_" gradientUnits="userSpaceOnUse" x1="5077.281" y1="-43.068" x2="5077.281" y2="108.086" gradientTransform="matrix(-1 0 0 1 5424.202 169)"><stop offset="0" stop-color="#ffe9bf"/><stop offset="1" stop-color="#ff6e48"/></linearGradient><path d="M369.3 182h-44.7v-34.1h44.7V182z" fill="url(#SVGID_4_)"/><path class="st16" d="M327.6 157.1h6.3v-6.3h-6.3v6.3z"/><path d="M183.3 260.3l-8.3 7.1c-5.2 4.6-8.8 10.9-10.2 18 3.1.2 17.8-.2 18.5-25.1zm75.6 48.3h19.6c3.7 0 6.8-2.3 8-5.6h-28.4c.4 1.8.7 3.7.8 5.6zm28.1-56.9c-38.2 11.7-65.2 25.4-83.1 36.7h16.5c3.9-2.2 8.3-4.6 13.2-6.9 13.7-6.7 30.9-13.9 52.2-20.6.4-.1.8-.2 1.2-.4 42.2-13 101.7-25.1 187.1-25.1l1.7-10.4c-82 1.4-143 12.6-188.8 26.7z" fill="#ffcd69"/><linearGradient id="SVGID_5_" gradientUnits="userSpaceOnUse" x1="229.047" y1="-642.87" x2="695.793" y2="-642.87" gradientTransform="matrix(1 0 0 -1 100 -414.38)"><stop offset="0" stop-color="#62c157"/><stop offset="1" stop-color="#00707c"/><stop offset="1" stop-color="#009d90"/></linearGradient><path d="M483.1 177.1c0-4.7-3.8-8.6-8.6-8.6h-167c-4.7 0-8.6 3.8-8.6 8.6l-4.9 31h-44c-2.1 0-6.2.1-8.3 2.2l-58.5 49.9c-.7 24.9-15.4 25.3-18.5 25.1 0 .2-.1.5-.1.7 1 1.2 2.4 2.3 4.4 2.3h34.9c17.9-11.3 35.9-20.2 75.3-34.2l9-2.9c45.6-13.9 106.3-25 187.7-26.3l7.2-47.8z" fill="url(#SVGID_5_)"/><path class="st20" d="M242.9 216.9c-.8 0-2.3 0-3 .8l-24.5 21c-2.4 2.2-4 5.3-4 8.8v1.6c0 2.6 2.1 4.6 4.6 4.6h46.1c1.7 0 3.1-1.4 3.1-3.1l6.3-30.6c0-1.7-1.4-3.1-3.1-3.1h-25.5zm-42.4 42.2c-1.1 0-1.9-.9-1.9-1.9V241c0-1.1.9-1.9 1.9-1.9 1.1 0 1.9.9 1.9 1.9v16.2c.1 1.1-.8 1.9-1.9 1.9zm-1.9-4.5c-2.6 0-4.8-2.1-4.8-4.8 0-2.6 2.1-4.8 4.8-4.8v9.6z"/><path d="M251.5 253.8l15.4-11.2 1.2-6-23.6 17.2zm-15.1 0l33.2-24.4 1.5-7.4-44 31.8z" opacity=".19" fill="#fff"/><path class="st20" d="M457.3 288.4H169c-2 0-3.4-1.1-4.4-2.3-.3 1.8-.5 3.5-.5 5.4V306c0 4.7 3.8 8.6 8.6 8.6h277.4c4.7 0 7.6-1.1 9.3-8.9l3.2-17c.2-4.8-.6-.3-5.3-.3z"/><path d="M287 260.5c-.4.1-.8.2-1.2.4-21.3 6.7-38.6 13.9-52.2 20.6-4.8 2.4-9.2 4.7-13.2 6.9h13.7c2.7 0 11.6 5.2 17.4 14 .3.4.7.7 1.2.7l31.1-.1c.8 0 1.4-.6 1.4-1.4 0-.8 1.8-11.7 1.8-11.7 0-.8.6-1.4 1.4-1.4H458c5.5 0 8.9-4.5 8.9-10l7.2-43c-82.5 0-142.8 11.3-187.1 25z" fill="#f5f8f8"/><path class="st23" d="M418.4 314.5h-45.9c0-12.7 10.3-23 23-23 12.6.1 22.9 10.3 22.9 23zm-175 0h-45.9c0-12.7 10.3-23 23-23s22.9 10.3 22.9 23z"/><circle class="st20" cx="220.5" cy="314.5" r="17.2"/><circle class="st23" cx="220.5" cy="314.5" r="11.9"/><circle class="st20" cx="220.5" cy="314.5" r="5.6"/><circle class="st20" cx="395.5" cy="314.9" r="16.6"/><circle class="st23" cx="395.5" cy="314.9" r="11.4"/><circle class="st20" cx="395.5" cy="314.9" r="5.4"/><linearGradient id="SVGID_6_" gradientUnits="userSpaceOnUse" x1="168.407" y1="-647.411" x2="257.666" y2="-647.411" gradientTransform="matrix(1 0 0 -1 100 -414.38)"><stop offset="0" stop-color="#62c157" stop-opacity="0"/><stop offset="1" stop-color="#00707c"/><stop offset="1" stop-color="#009d90"/></linearGradient><path fill="url(#SVGID_6_)" d="M294 208.2l-5.8 43.1-19.5 6.6 7.5-37.9 3.2-11.8z"/><path d="M693.6 223.8l-4.3 1.2c-.5.1-1.1-.2-1.2-.7l-.1-.2c-.1-.5.2-1.1.7-1.2l4.3-1.2c.5-.1 1.1.2 1.2.7l.1.2c.1.5-.2 1-.7 1.2z" fill="#008f7f"/><path class="st26" d="M690.1 267.7h-16.8c-3 0-5.4-2.4-5.4-5.4v-5.9c0-3 2.4-5.4 5.4-5.4h16.8c3 0 5.4 2.4 5.4 5.4v5.9c0 3-2.4 5.4-5.4 5.4z"/><path transform="rotate(-166.591 664.55 226.408)" class="st16" d="M660.7 213.8h7.7v25.3h-7.7z"/><circle class="st16" cx="661.5" cy="238.7" r="3.9"/><path transform="rotate(-136.649 654.108 246.78)" class="st16" d="M650.3 235.9h7.7v21.9h-7.7z"/><path class="st27" d="M667.2 231.5l-7.1-2.1c-.6-.2-.9-.8-.7-1.4l4.9-16.5c.2-.6.4.1 1 .3l7.1 2.1c.6.2.9.8.7 1.4l-4.5 15.4c-.2.7-.8 1-1.4.8z"/><path class="st28" d="M688 247.6h-12.6c-3.3 0-6-2.4-6.4-5.7l-5.2-27.5c-.4-3.7 2.6-7 6.4-7h23c3.8 0 6.8 3.2 6.4 7l-5.2 27.5c-.4 3.3-3.1 5.7-6.4 5.7z"/><circle cx="680.3" cy="218.6" r=".8" fill="#ffb95c"/><path class="st28" d="M667.9 235.7h27.7V254h-27.7z"/><path class="st20" d="M667.9 254.1h27.7v2.6h-27.7z"/><path class="st30" d="M678.8 254.1h5.9v2.6h-5.9z"/><path class="st26" d="M688.9 254.1h1.4v3h-1.4zm-16.2 0h1.4v3.2h-1.4z"/><circle class="st31" cx="707.9" cy="237.1" r="4.8"/><path transform="rotate(-28.841 702.665 225.791)" class="st31" d="M698.9 212.3h7.6v26.9h-7.6z"/><path class="st28" d="M706.8 226.5l-5.7 3.2c-.6.3-1.3.1-1.6-.5l-8.2-14.9c-.3-.6-.1-1.3.5-1.6l5.2-2.9c.6-.3 1.3-.1 1.6.5l8.7 14.6c.3.5 0 1.3-.5 1.6z"/><path class="st26" d="M676.5 295.6h-5.3c-1.8 0-3.3-1.5-3.3-3.3V260c0-1.8 1.5-3.3 3.3-3.3h5.3c1.8 0 3.3 1.5 3.3 3.3v32.3c0 1.8-1.5 3.3-3.3 3.3zm15.7 36.1h-5.3c-1.8 0-3.3-1.5-3.3-3.3v-32.6c0-1.8 1.5-3.3 3.3-3.3h5.3c1.8 0 3.3 1.5 3.3 3.3v32.6c0 1.8-1.5 3.3-3.3 3.3z"/><path class="st26" d="M692.2 308.2h-5.3c-1.8 0-3.3-1.5-3.3-3.3v-45c0-1.8 1.5-3.3 3.3-3.3h5.3c1.8 0 3.3 1.5 3.3 3.3v45c0 1.8-1.5 3.3-3.3 3.3z"/><path class="st27" d="M690.3 219.7h-4.4c-.5 0-1-.4-1-1v-.2c0-.5.4-1 1-1h4.4c.5 0 1 .4 1 1v.2c0 .5-.5 1-1 1z"/><path class="st32" d="M689.5 259.5h6v8.2c-3.3 0-6-3.7-6-8.2zm-13 72.1h-5.3c-1.8 0-3.3-1.5-3.3-3.3v-33.2c0-1.8 1.5-3.3 3.3-3.3h5.3c1.8 0 3.3 1.5 3.3 3.3v33.2c0 1.8-1.5 3.3-3.3 3.3z"/><circle class="st26" cx="673.9" cy="293.6" r="6"/><circle class="st26" cx="689.5" cy="293.4" r="6"/><path class="st20" d="M683.2 330.3c0-3.1 2.9-5.7 6.4-5.7 3.5 0 6.4 2.6 6.4 5.7h-12.8"/><path class="st32" d="M683.2 331.6h12.7v-1.3h-12.7"/><path class="st20" d="M667.1 330.2c0-3.3 3-6 6.7-6s6.7 2.7 6.7 6h-13.4"/><path class="st32" d="M673.9 259.5h-6v8.2c3.3 0 6-3.7 6-8.2z"/><path class="st20" d="M692.9 243.6l-9-2.4c-2.7-.7-4.2-3.5-3.5-6.1l4.5-16.5c.7-2.7 3.5-4.2 6.1-3.5l9 2.4c2.7.7 4.2 3.5 3.5 6.1l-4.5 16.5c-.6 2.6-3.4 4.2-6.1 3.5z"/><circle class="st32" cx="692.7" cy="225.7" r="2.6"/><path transform="rotate(-74.752 697.32 235.224)" class="st31" d="M693.5 223.7h7.6v23.1h-7.6z"/><path class="st32" d="M667.1 331.6h13.5v-1.4h-13.5"/><circle class="st31" cx="685.2" cy="230.2" r="5.9"/><circle class="st16" cx="644.4" cy="254.8" r="5.7"/><linearGradient id="SVGID_7_" gradientUnits="userSpaceOnUse" x1="1738.505" y1="304.45" x2="1737.077" y2="310.548" gradientTransform="rotate(-10.58 584.163 5985.238)"><stop offset="0" stop-color="#19607c"/><stop offset="1" stop-color="#6295b4"/></linearGradient><path d="M682.7 190.4c1 4.9-1.3 9.4-5.1 10.2-3.8.8-7.7-2.6-8.7-7.4s1.3-9.4 5.1-10.2c3.8-.8 7.7 2.5 8.7 7.4z" fill="url(#SVGID_7_)"/><linearGradient id="SVGID_8_" gradientUnits="userSpaceOnUse" x1="1845.613" y1="111.731" x2="1849.312" y2="123.959" gradientTransform="rotate(-2.933 2651.22 22965.417) scale(1.00001)"><stop offset="0" stop-color="#19607c"/><stop offset="1" stop-color="#6295b4"/></linearGradient><path d="M686.9 189.6c1 4.8-1.3 9.4-5.1 10.1-3.8.8-7.7-2.5-8.6-7.4-1-4.8 1.3-9.4 5.1-10.1 3.8-.7 7.6 2.6 8.6 7.4z" fill="url(#SVGID_8_)"/><ellipse class="st31" cx="680.5" cy="211.7" rx="4.3" ry="3.6"/><path class="st16" d="M680.7 212.2h-.8c-1.9 0-3.5-1.6-3.5-3.5v-6.1c0-1.9 1.6-3.5 3.5-3.5h.8c1.9 0 3.5 1.6 3.5 3.5v6.1c-.1 2-1.6 3.5-3.5 3.5z"/><path class="st27" d="M680.8 221.3h-.5c-.6 0-1.1-.3-1.1-.6v-4.9c0-.3-.6-.8 0-.8h2.8c.6 0-.1.4-.1.8v4.9c-.1.3-.6.6-1.1.6z"/><path class="st31" d="M682.6 206l-4.3.8c-3.2.6-6.3-1.4-7-4.7l-1.4-10c-.6-3.2 1.4-6.3 4.6-7l2.8-.4c3.2-.6 6.3 1.4 7 4.7l2.3 9.7c.7 3.1-.8 6.2-4 6.9z"/><circle class="st31" cx="686.2" cy="194.1" r="2.4"/><circle class="st16" cx="686.1" cy="194.4" r=".9"/><circle cx="680.4" cy="218.7" r=".8" fill="#fcaa39"/><path class="st27" d="M681.1 216.2s2.4-2.7 3.1-8.9c-.1 0 7.4 8-3.1 8.9zm-4.7-8.5c1.3 6.1 4.1 8.6 4.1 8.6-10.9.1-4.1-8.6-4.1-8.6"/><linearGradient id="SVGID_9_" gradientUnits="userSpaceOnUse" x1="1980.897" y1="-308.488" x2="1989.911" y2="-299.474" gradientTransform="rotate(12.735 -868.697 -5922.732)"><stop offset="0" stop-color="#19607c"/><stop offset="1" stop-color="#6295b4"/></linearGradient><path d="M667.2 186.8l4.3-3.1c4.3-3.1 10.4-2.2 13.6 2.2.3.4.2.9-.2 1.1l-4.3 3.1c-4.3 3.1-10.4 2.2-13.6-2.2-.2-.4-.1-.9.2-1.1z" fill="url(#SVGID_9_)"/><linearGradient id="SVGID_10_" gradientUnits="userSpaceOnUse" x1="2007.048" y1="-762.307" x2="2014.413" y2="-754.942" gradientTransform="rotate(28.756 -495.967 -2885.96)"><stop offset="0" stop-color="#19607c"/><stop offset="1" stop-color="#6295b4"/></linearGradient><path d="M671.1 182.7l4.1-1.5c4.1-1.5 8.7.6 10.2 4.8.1.3-.1.7-.4.8l-4.1 1.5c-4.1 1.5-8.7-.6-10.2-4.8-.1-.3.1-.6.4-.8z" fill="url(#SVGID_10_)"/><path d="M678.6 194.3c-.4.1-.6-.4-.2-.7.7-.6 2.7-1.3 2.7.1 0 1.4-.5 0-2.5.6zm-4 .7c.5-.1.4-.6-.1-.7-.9-.3-3-.2-2.5 1.1.6 1.4.5-.2 2.6-.4z" fill="#3784a8"/><path class="st16" d="M676.1 197.2c-.2.9-1.3 3.5 1.5 3.8s-.2-8.5-1.5-3.8z"/><path class="st40" d="M676.6 203.4c2.1.4 5.6.2 6.4-4.3 0-.2-.2-.3-.3-.2-.5 1.5-2.6 4-6.1 4.1-.2.1-.2.4 0 .4z"/><path class="st40" d="M681.8 198.4c-.1-.1-.3 0-.2.1.2.4 1.2 1.2 1.7.4.5-.7-.8.3-1.5-.5z"/><path class="st16" d="M680.5 203.9c.4-.1.7.3.6.6-.2.5-.6 1-1.2 1.1-.6.1-1.2-.1-1.5-.6-.2-.3-.1-.7.3-.8l1.8-.3z"/><circle class="st41" cx="679.8" cy="195.8" r=".8"/><circle class="st41" cx="674.4" cy="196.6" r=".8"/><path class="st16" d="M590 228.6l-24.6 10-3-10.1 20.8-8.5z"/><circle class="st16" cx="589" cy="223.2" r="6.6"/><circle class="st28" cx="505.8" cy="225.1" r="6.6"/><ellipse transform="rotate(-7.706 562.887 233.219)" class="st16" cx="563.1" cy="233.3" rx="5.9" ry="5.8"/><path class="st16" d="M559.9 238.2l-11.7-4.9 4.6-10.1 11.7 4.9z"/><path class="st27" d="M554.6 235.2l-21.3-9.3 11.3-7 14.3 5.8z"/><circle cx="542.7" cy="224.1" r="6.6" fill="#00a031"/><path class="st28" d="M539.3 264.1l-32.1-4.1-7.8-33.6c-.9-4 3.2-7.7 8.7-7.8l32.1-.1c5.5 0 9.7 3.8 8.6 7.9l-9.5 37.7z"/><path transform="matrix(1 -.00426 .00426 1 -.975 2.291)" class="st26" d="M534.4 218.6h5.4v22.8h-5.4z"/><path transform="matrix(1 -.00426 .00426 1 -.974 2.174)" class="st26" d="M507 218.7h5v22h-5z"/><path class="st26" d="M534.4 278.7h-21.8c-3 0-5.4-2.4-5.4-5.4v-8.4c0-3 2.4-5.4 5.4-5.4h21.8c3 0 5.4 2.4 5.4 5.4v8.4c0 3-2.4 5.4-5.4 5.4z"/><path transform="matrix(1 -.00426 .00426 1 -1.067 2.233)" class="st26" d="M507.1 239.3h32.5v24.5h-32.5z"/><path class="st20" d="M507.1 261.1h32.7v3.4h-32.7z"/><path class="st26" d="M533.5 260.5h1.6v4.3h-1.6zm-20.7.6h1.6v4h-1.6z"/><path class="st26" d="M518 299.1h-7.5c-1.8 0-3.3-1.5-3.3-3.3v-28c0-1.8 1.5-3.3 3.3-3.3h7.5c1.8 0 3.3 1.5 3.3 3.3v28c-.1 1.8-1.5 3.3-3.3 3.3zm18.5 32.6H527c-.7 0-1.3-.6-1.3-1.3v-30.9c0-1.8 1.5-3.3 3.3-3.3h7.5c1.8 0 3.3 1.5 3.3 3.3v28.9c0 1.9-1.5 3.3-3.3 3.3z"/><path class="st26" d="M536.5 299.1H529c-1.8 0-3.3-1.5-3.3-3.3v-28c0-1.8 1.5-3.3 3.3-3.3h7.5c1.8 0 3.3 1.5 3.3 3.3v28c0 1.8-1.5 3.3-3.3 3.3z"/><path class="st32" d="M532.7 267h7.1v10.9c-3.9 0-7.1-4.9-7.1-10.9zM518 331.7h-9.3c-.9 0-1.5-.7-1.5-1.5v-30.6c0-1.8 1.5-3.3 3.3-3.3h7.5c1.8 0 3.3 1.5 3.3 3.3v28.9c-.1 1.8-1.5 3.2-3.3 3.2z"/><path class="st20" d="M526.3 330.2c0-3.7 3.2-6.7 7.2-6.7s7.1 3 7.1 6.7h-14.3"/><path class="st26" d="M526.3 331.7h14.3v-1.5h-14.3"/><path class="st20" d="M507.9 330.2c0-3.7 3.2-6.7 7.1-6.7 3.9 0 7 3 7 6.7h-14.1"/><path class="st32" d="M514.3 267h-7.1v10.9c3.9 0 7.1-4.9 7.1-10.9zm-6.4 64.7H522v-1.5h-14.1"/><circle class="st43" cx="523.8" cy="231.2" r=".9"/><path class="st32" d="M532.7 241.9c0 4.9-3.9 8.9-8.9 8.9-4.9 0-8.9-3.9-8.9-8.9"/><path class="st16" d="M523.4 224.6h-1c-2.4.1-4.4-1.8-4.4-4.2l-.2-8c-.1-2.4 1.8-4.4 4.2-4.4h1c2.4-.1 4.4 1.8 4.4 4.2l.2 8c.1 2.4-1.8 4.4-4.2 4.4z"/><path class="st44" d="M530.2 202l-2-6.2c-1.6-6.3-4.1-7.5-7.8-6.9l-2.1.3c-3.6.6-8.4 4-7.6 9.3l1.8 12.1c.6 3.9 4 6.7 7.6 6.1l6.2-1h.1c3.5-.3 6.5-3 6.9-6.6.6-2.9-.8-5.6-3.1-7.1z"/><path class="st32" d="M519.3 199.4c.6-.2.6-1.1 0-1.2-.7-.1-1.4 0-1.9.4-.6.4-1 1-1.1 1.7-.1.6.7 1 1.1.5.5-.8 1.1-1.2 1.9-1.4zm7.8-.8c.6.3 1.2-.3.8-.9-.4-.6-.9-1-1.6-1.1s-1.4 0-1.9.4-.2 1.2.5 1.1c.8-.1 1.5.1 2.2.5z"/><circle transform="rotate(-83.558 511.704 204.576)" class="st44" cx="511.7" cy="204.6" r="2.9"/><circle transform="rotate(-83.558 512.343 204.99)" class="st16" cx="512.3" cy="205" r="1.2"/><path class="st20" d="M518.5 203.1c.8 1 2.9 1.2 3.1-.6.1-.6-.3-.9-.6-.4-.5.7-.9 1-2.2.4-.4-.3-.6.3-.3.6z"/><path class="st16" d="M523.2 205.2c-.3-1 .5-1.6 1.3-1 .9.6 1.8 1.3 1.6 1.8-.5.8-1.8 1.2-2.2.9-.1-.1-.5-.9-.7-1.7z"/><path class="st20" d="M524.9 202c.8 1 2.9 1.2 3.1-.6.1-.6-.3-.9-.6-.4-.5.7-.9 1-2.2.4-.4-.2-.5.3-.3.6z"/><linearGradient id="SVGID_11_" gradientUnits="userSpaceOnUse" x1="1921.384" y1="227.514" x2="1925.934" y2="227.514" gradientTransform="scale(-1 1) rotate(7.898 930.203 -17436.934)"><stop offset="0" stop-color="#19607c"/><stop offset="1" stop-color="#6295b4"/></linearGradient><path d="M511.3 201.7c1.8-.3 4.1-3.2 3.9-5l-.7-5.5-3.8 5.4.6 5.1z" fill="url(#SVGID_11_)"/><linearGradient id="SVGID_12_" gradientUnits="userSpaceOnUse" x1="607.336" y1="-1311.524" x2="606.225" y2="-1296.927" gradientTransform="scale(1 -1) rotate(-22.929 3308.075 -550.85)"><stop offset="0" stop-color="#19607c"/><stop offset="1" stop-color="#6295b4"/></linearGradient><path d="M529.7 194.8c.4 2.1-3 2.8-4.9 2-1.9-.8-2.8-3.1-2-5 0 .1 6.7 1.8 6.9 3z" fill="url(#SVGID_12_)"/><path class="st28" d="M510.6 196.6c-.6-4.3 3-8.4 7.3-9 4.8-.7 8.8 1.5 9.6 5.9l-16.9 3.1z"/><linearGradient id="SVGID_13_" gradientUnits="userSpaceOnUse" x1="1865.028" y1="283.752" x2="1864.371" y2="292.385" gradientTransform="matrix(-.9994 .03323 .03323 .9994 2373.096 -156.169)"><stop offset="0" stop-color="#19607c"/><stop offset="1" stop-color="#6295b4"/></linearGradient><path d="M516.6 193.5l4.9-.8c.5-.1.8-.5.7-1l-.1-.5c-.1-.5-.5-.8-1-.7l-4.9.8c-.5.1-.8.5-.7 1l.1.5c0 .5.5.8 1 .7z" fill="url(#SVGID_13_)"/><circle class="st28" cx="517.6" cy="188.2" r="1.4"/><path class="st27" d="M523.2 194.2s-8.8 7.1-15.4 6.4c-4.7-.5 2.8-4 2.8-4l12.6-2.4z"/><path class="st48" d="M517.8 207.6c-.3-.2-.6.2-.4.4.9 1.1 2 1.9 3.5 2.3s2.9.3 4.1-.2c.3-.1.2-.6-.1-.6-1.2.1-2.5 0-3.7-.3-1.3-.4-2.4-.9-3.4-1.6z"/><path class="st48" d="M516.5 208.4c.8.3 2.2-.2 1.8-1.4-.2-.4-.5-.5-.5-.1-.1.6-.3.9-1.3 1-.3 0-.2.3 0 .5z"/><path class="st16" d="M520.8 211.4c.3-.1.9.7 2.7.2.8-.2 0 2.3-1.4 2.2s-1.9-2.2-1.3-2.4z"/><path class="st27" d="M517.9 217.4l4.7 7.3-1.7 2.8c-.4.7-1.4.6-1.8-.1l-4.5-8.8 3.3-1.2zm9.7.2l-5 7.1 1.6 2.9c.4.7 1.4.7 1.8 0l5-9-3.4-1z"/><circle class="st43" cx="583.4" cy="214.1" r="30.1"/><linearGradient id="SVGID_14_" gradientUnits="userSpaceOnUse" x1="566.912" y1="235.996" x2="566.912" y2="267.176" gradientTransform="matrix(-1 0 0 1 1150.347 0)"><stop offset="0" stop-color="#ffd273"/><stop offset="1" stop-color="#ffb951"/></linearGradient><circle cx="583.4" cy="214.1" r="26.3" fill="url(#SVGID_14_)"/><path d="M589.9 219.3l-11.2-.1v-2.7h4.8c1.3 0 2.6-.1 3.8-.3 1.2-.2 2.3-.7 3.3-1.2.9-.6 1.7-1.4 2.3-2.4.6-1 .9-2.3.9-3.8s-.4-2.9-1.1-4.2c-.8-1.3-1.8-2.2-3.1-2.7s-3.2-.8-5.7-.8h-8.7l-.1 12.3h-1.9v3.2h1.9v2.7h-1.9v2.6h1.9v7h3.7v-7l11.2.1-.1-2.7zm-11.1-6v-9.2h5.2c.8 0 1.6.1 2.3.3.7.2 1.4.4 1.9.8s1 .8 1.3 1.4c.3.6.5 1.3.5 2.1 0 1-.2 1.7-.5 2.3-.3.6-.8 1.1-1.4 1.4-.6.4-1.3.6-2 .7-.8.1-1.6.2-2.4.2h-4.9z" fill="#fff5e8"/><path class="st51" d="M558.4 230.8l-25.4 7.6-2.1-10.3 21.5-6.5z"/><circle class="st51" cx="557.2" cy="224.1" r="7.2"/><circle class="st26" cx="514.2" cy="296.5" r="7"/><circle class="st26" cx="532.7" cy="297.2" r="7"/><ellipse transform="rotate(-44.708 530.96 232.881)" class="st51" cx="531" cy="232.9" rx="5.8" ry="5.9"/><path class="st51" d="M530.8 227l-12.2-3.4-2.6 10.8 12.2 3.4z"/><path class="st28" d="M521.8 224.3l-14.9-5.5-5.2 11.3 17.1 5.1z"/><path transform="rotate(-180 523.52 262.802)" class="st30" d="M519.2 261.1h8.5v3.4h-8.5z"/><path d="M600.9 158.8c0 9.7-7.9 17.6-17.6 17.6h-41.5c-.3 0-.6.1-.9.2l-14 7.3c-1.3.7-2.9-.3-2.9-1.8v-22c0-.5-.1-1-.1-1.4 0-9.7 7.9-17.6 17.6-17.6h41.8c9.7 0 17.6 7.9 17.6 17.7z" fill="#5bb24c"/><path d="M549.1 162.2v-1.5h5.6v1.5h-5.6zm7.9-7c0-2.2 1.6-3.9 4-3.9 2.5 0 4.1 1.7 4.1 3.9s-1.6 3.9-4.1 3.9c-2.4 0-4-1.7-4-3.9zm5.7 0c0-1.2-.7-1.8-1.6-1.8-.9 0-1.6.6-1.6 1.8 0 1.1.7 1.7 1.6 1.7.9 0 1.6-.6 1.6-1.7zm-3.2 11.9l9.9-15.5h2l-9.9 15.5h-2zm6.3-3.6c0-2.2 1.6-3.9 4-3.9 2.5 0 4.1 1.7 4.1 3.9s-1.6 3.9-4.1 3.9c-2.4-.1-4-1.8-4-3.9zm5.7 0c0-1.2-.7-1.8-1.6-1.8-.9 0-1.6.6-1.6 1.8 0 1.1.7 1.7 1.6 1.7.9 0 1.6-.6 1.6-1.7z" fill="#fff"/><path d="M649.6 332.4h48.5m-67.3 0h10.6m-162.6 0h67.3m-346.8 0h44.1m12.9 0h9.9m112.7 0h40.9m-61.8 0h11" fill="none" stroke="#c4e5ed" stroke-linecap="round" stroke-linejoin="round" stroke-miterlimit="10"/><path d="M303.3 66.3c.4 0 .8-.1 1.1-.4l7.9-7.9c.6-.6.6-1.6 0-2.2-.6-.6-1.6-.6-2.2 0l-6.8 6.8-6.8-6.8c-.6-.6-1.6-.6-2.2 0-.6.6-.6 1.6 0 2.2l7.9 7.9c.3.3.7.4 1.1.4zm15.5 19.5c.2 0 .5-.1.6-.3l5.1-5.1c.4-.4.4-.9 0-1.3s-.9-.4-1.3 0l-4.4 4.4-4.4-4.4c-.4-.4-.9-.4-1.3 0s-.4.9 0 1.3l5.1 5.1c.1.2.4.3.6.3zm-30 7.4c.2 0 .5-.1.6-.3l6.5-6.5c.4-.4.4-.9 0-1.3s-.9-.4-1.3 0l-5.9 5.9-5.9-5.9c-.4-.4-.9-.4-1.3 0s-.4.9 0 1.3l6.5 6.5c.3.3.6.3.8.3z" fill="#c3e8ef"/></svg>