<svg version="1.1" id="Слой_1" xmlns="http://www.w3.org/2000/svg" x="0" y="0" viewBox="0 0 910 567" xml:space="preserve"><style>.st1{fill:#c3e8ef}.st5{fill:#ffb392}.st6{fill:#37a537}.st7{fill:#50b848}.st8{fill:#5fa2be}.st9{fill:#006988}.st10{fill:#3e95b6}.st11{fill:#ffb951}.st12{fill:#ffd2b3}.st18{fill:#ceecf4}.st19{fill:#eff7fb}.st20{fill:#d7eef3}.st23{fill:#d6edf4}.st28{fill:#ff653b}.st29{fill:#d9eef4}.st31{fill:#c4e5ed}</style><linearGradient id="SVGID_1_" gradientUnits="userSpaceOnUse" x1="213.048" y1="608.61" x2="1846.826" y2="-690.945"><stop offset="0" stop-color="#f7fcff" stop-opacity=".2"/><stop offset=".082" stop-color="#f0f9fc" stop-opacity=".266"/><stop offset=".356" stop-color="#dff2f4" stop-opacity=".485"/><stop offset=".651" stop-color="#d4edef" stop-opacity=".721"/><stop offset="1" stop-color="#d1ecee"/></linearGradient><path d="M855.9 567c35.3-121.3 3.3-186.6-50.6-258.7 15.7-29.3 24.6-62.7 24.6-98.2 0-114.9-93.1-208-208.1-208-88.7 0-164.4 55.5-194.4 133.7-75.6 5.4-145.8 30.2-205.7 69.5-12.7-4.4-26.3-6.7-40.4-6.7-68.4 0-123.9 55.5-123.9 123.9 0 19.6 4.6 38.2 12.7 54.7-28.1 57.3-46.3 172.9-13 190h798.8z" fill="url(#SVGID_1_)"/><path class="st1" d="M574.6 544.7h103.5c20.2 0 39.7-21.7 43.4-48.4l45.2-322c3.8-26.7-9.6-48.4-29.8-48.4H633.4c-20.2 0-39.7 21.7-43.4 48.4l-45.2 322c-3.8 26.8 9.5 48.4 29.8 48.4z"/><path d="M567 544.7h103.5c20.2 0 39.7-21.7 43.4-48.4l45.2-322c3.8-26.7-9.6-48.4-29.8-48.4H625.9c-20.2 0-39.7 21.7-43.4 48.4l-45.2 322c-3.9 26.8 9.5 48.4 29.7 48.4z" fill="#faffff"/><linearGradient id="SVGID_2_" gradientUnits="userSpaceOnUse" x1="643.041" y1="3.795" x2="643.041" y2="278.396" gradientTransform="matrix(1 0 .1405 -1 -27.428 567)"><stop offset="0" stop-color="#ecf6fb" stop-opacity=".1"/><stop offset=".298" stop-color="#dbeff5" stop-opacity=".368"/><stop offset=".619" stop-color="#d0ebf2" stop-opacity=".657"/><stop offset="1" stop-color="#cdeaf1"/></linearGradient><path fill="url(#SVGID_2_)" d="M547 491.8h158.4l44.9-319.6H591.9z"/><path class="st1" d="M649.2 154.4h37.4c1.8 0 3.5-1.9 3.8-4.2v-.2c.3-2.3-.8-4.2-2.6-4.2h-37.4c-1.8 0-3.5 1.9-3.8 4.2v.2c-.3 2.3.8 4.2 2.6 4.2zm-44 378h30.6c5.7 0 11.1-6.1 12.2-13.6l.1-.6c1.1-7.5-2.7-13.6-8.4-13.6h-30.6c-5.7 0-11.1 6.1-12.2 13.6l-.1.6c-1.1 7.5 2.7 13.6 8.4 13.6z"/><path d="M606.7 529.1H635c4.3 0 8.4-4.6 9.2-10.3l.1-.5c.8-5.7-2-10.3-6.3-10.3h-28.4c-4.3 0-8.4 4.6-9.2 10.3l-.1.5c-.7 5.7 2.1 10.3 6.4 10.3zm78.4-106.9h1.1c8.6 0 14.2 9.2 12.6 20.4l-.1 1c-1.6 11.3-9.8 20.4-18.3 20.4h-1.1c-8.6 0-14.2-9.2-12.6-20.4l.1-1c1.6-11.2 9.8-20.4 18.3-20.4zm-50.6 0h1.1c8.6 0 14.2 9.2 12.6 20.4l-.1 1c-1.6 11.3-9.8 20.4-18.3 20.4h-1.1c-8.6 0-14.2-9.2-12.6-20.4l.1-1c1.5-11.2 9.8-20.4 18.3-20.4zm-48 0h1.1c8.6 0 14.2 9.2 12.6 20.4l-.1 1c-1.6 11.3-9.8 20.4-18.3 20.4h-1.1c-8.6 0-14.2-9.2-12.6-20.4l.1-1c1.6-11.2 9.8-20.4 18.3-20.4z" fill="#f5f8f8"/><ellipse transform="rotate(-72.698 699.31 150.066)" class="st1" cx="699.3" cy="150.1" rx="4.4" ry="3.2"/><ellipse transform="rotate(-78.942 432.54 347.41)" class="st5" cx="432.5" cy="347.4" rx="15.3" ry="14.8"/><path class="st5" d="M426.7 338.4l20.8-19.2 16.3 18.6-20.1 19.6z"/><path transform="rotate(-40.714 414.36 329.792)" class="st5" d="M401.8 301.8H427v56h-25.2z"/><path transform="rotate(-45.001 466.245 317.583)" class="st6" d="M443.6 305h45.3v25.1h-45.3z"/><circle class="st6" cx="478.6" cy="302.1" r="16"/><path class="st7" d="M561.1 382h-76.8l-18-77.1c-2.2-9.2 7.7-17.7 20.4-17.7l75.5.1c13 0 22.8 8.8 20.2 18.1L561.1 382z"/><path class="st8" d="M547.3 422.9h-46.8c-8.3 0-15-6.7-15-15v-15.2c0-8.3 6.7-15 15-15h46.8c8.3 0 15 6.7 15 15v15.2c0 8.3-6.7 15-15 15z"/><path class="st8" d="M485.4 335.7h76.9v48.5h-76.9z"/><path class="st8" d="M577.4 466.4l-14.3 4.5c-4.8 1.5-9.9-1.1-11.4-5.9l-20.4-64.6c-1.5-4.8 1.1-9.9 5.9-11.4l14.3-4.5c4.8-1.5 9.9 1.1 11.4 5.9l20.4 64.6c1.5 4.8-1.1 9.9-5.9 11.4z"/><path class="st9" d="M485.4 381.5h77.2v8.1h-77.2z"/><path class="st8" d="M547.5 380.1h3.9v10.1h-3.9zm-48.6 1.4h3.9v9.3h-3.9z"/><path class="st8" d="M509.6 470.8h-15c-5 0-9.1-4.1-9.1-9.1v-63c0-5 4.1-9.1 9.1-9.1h15c5 0 9.1 4.1 9.1 9.1v63c0 5-4.1 9.1-9.1 9.1zm51.6 21.2c-1.3-3.8-7.5-20.8-7.5-20.8-.7-2.1.5-4.4 2.6-5.1l23.9-7.5c2.1-.7 4.4.5 5.1 2.6l10 30.7c-3.8.1-34.1.1-34.1.1z"/><path class="st10" d="M547.3 396.8l15.9-5c4.3 13.4 7.7 24.3 7.7 24.3-8.8 2.8-19.4-5.8-23.6-19.3zm-37.7 147.6h-15c-5 0-9.1-4.1-9.1-9.1v-62c0-5 4.1-9.1 9.1-9.1h15c5 0 9.1 4.1 9.1 9.1v62c0 5-4.1 9.1-9.1 9.1z"/><path class="st9" d="M485.5 541.2c0-8.7 7.5-15.7 16.6-15.7 9.1 0 16.5 7 16.5 15.7h-33.1"/><path class="st10" d="M502.3 395.4h-16.7v25.5c9.2 0 16.7-11.4 16.7-25.5zm-16.8 149.5h33.2v-3.5l-33.2-.1"/><path class="st8" d="M485.4 287.1h11.8v51.7h-11.8z"/><circle class="st11" cx="525" cy="316.6" r="2.1"/><path class="st6" d="M544.8 318.8h-11.3c-1.2 0-2.1-1-2.1-2.1v-.1c0-1.2 1-2.1 2.1-2.1h11.3c1.2 0 2.1 1 2.1 2.1v.1c0 1.2-.9 2.1-2.1 2.1z"/><path class="st10" d="M545.7 345.1c0 11.5-9.3 20.9-20.9 20.9-11.6 0-20.9-9.3-20.9-20.9"/><ellipse transform="rotate(-68.631 604.216 357.447)" class="st12" cx="604.2" cy="357.5" rx="14" ry="13.6"/><path class="st12" d="M592 364.3l-15.9-25.1 22.4-13.3 16 25.1z"/><path class="st7" d="M579.5 345.1l-28-46.8 31.1 1.9 19.4 30.6z"/><path class="st12" d="M623.4 416.8L592.1 363l22.5-10.4 26.6 45.6z"/><circle class="st8" cx="502.1" cy="464.8" r="16.6"/><circle class="st8" cx="569.2" cy="464.5" r="16.6"/><circle class="st10" cx="521.9" cy="384.2" r="2.5"/><circle transform="rotate(-80.781 394.39 303.614)" class="st5" cx="394.4" cy="303.6" r="15.3"/><circle class="st12" cx="637.8" cy="411.6" r="15.5"/><circle class="st7" cx="569.5" cy="301.9" r="16.9"/><path class="st8" d="M549.7 287.2h12.6v53.5h-12.6z"/><path fill="#c6ebf2" d="M514.7 381.5H533v8.1h-18.3z"/><path class="st5" d="M524.2 301.4h.5c6.2.2 11.3-4.7 11.5-10.8l.5-17.2c.2-6.2-4.7-11.3-10.8-11.5h-.5c-6.2-.2-11.3 4.7-11.5 10.8l-.5 17.2c-.2 6.2 4.7 11.3 10.8 11.5z"/><path class="st12" d="M508.8 247.4l4.9-14.6c4.1-14.8 10.1-17.6 18.7-16.1l5 .9c8.6 1.5 19.7 9.8 17.6 22.3l-4.7 28.7c-1.5 9.3-9.8 15.7-18.4 14.3l-14.8-2.5c-.1 0-.2-.1-.4-.1-8.4-.7-15.3-7.4-16.1-16-.7-7 2.7-13.4 8.2-16.9z"/><path d="M534.7 241.6c-1.5-.4-1.4-2.5.1-2.8 1.5-.3 3.2 0 4.6 1 1.4 1 2.2 2.4 2.5 4 .2 1.5-1.7 2.3-2.6 1.1-1.1-1.7-2.7-2.8-4.6-3.3zm-18.5-2.2c-1.3.7-2.8-.8-1.9-2.1.9-1.3 2.3-2.3 4-2.6 1.7-.3 3.3.1 4.6 1.1 1.2.9.4 2.8-1.1 2.6-2-.3-3.8 0-5.6 1z" fill="#3e94b5"/><circle transform="rotate(-5.538 552.678 254.233)" class="st12" cx="552.7" cy="254.2" r="6.9"/><circle transform="rotate(-5.538 551.15 255.174)" class="st5" cx="551.1" cy="255.2" r="2.8"/><path class="st9" d="M536.7 250.4c-1.9 2.2-6.9 2.7-7.4-1.5-.1-1.5.7-2.1 1.4-1 1.1 1.8 2.2 2.4 5.3 1 .9-.5 1.3.9.7 1.5z"/><path class="st5" d="M525.3 255.2c.6-2.3-1.1-3.7-3.1-2.4-2.2 1.4-4.4 3.1-3.8 4.2 1.1 2 4.2 2.8 5.1 2.3.5-.3 1.3-2.2 1.8-4.1z"/><path class="st9" d="M521.4 247.7c-1.9 2.2-6.9 2.7-7.4-1.5-.1-1.5.7-2.1 1.4-1 1.1 1.8 2.2 2.4 5.3 1 1-.5 1.3.8.7 1.5z"/><linearGradient id="SVGID_3_" gradientUnits="userSpaceOnUse" x1="1799.36" y1="283.725" x2="1810.166" y2="283.725" gradientTransform="scale(1 -1) rotate(-8.801 -2191.63 8175.817)"><stop offset="0" stop-color="#19607c"/><stop offset="1" stop-color="#6295b4"/></linearGradient><path d="M553.8 247.4c-4.3-.7-9.7-7.8-9-12.1l2-13 8.8 12.9-1.8 12.2z" fill="url(#SVGID_3_)"/><linearGradient id="SVGID_4_" gradientUnits="userSpaceOnUse" x1="678.827" y1="1488.216" x2="676.189" y2="1453.54" gradientTransform="scale(-1 1) rotate(22.02 3282.512 -2222.634)"><stop offset="0" stop-color="#19607c"/><stop offset="1" stop-color="#6295b4"/></linearGradient><path d="M510.2 230.5c-1 4.9 7.1 6.9 11.7 5 4.6-1.9 6.8-7.2 4.9-11.8.1 0-15.9 3.9-16.6 6.8z" fill="url(#SVGID_4_)"/><path class="st7" d="M554.4 235.2c1.7-10.1-6.8-20-17-21.7-11.3-1.9-20.9 3.3-23.1 13.6l40.1 8.1z"/><linearGradient id="SVGID_5_" gradientUnits="userSpaceOnUse" x1="1753.618" y1="250.016" x2="1752.058" y2="229.508" gradientTransform="scale(1 -1) rotate(-2.809 -8397.53 24828.731)"><stop offset="0" stop-color="#19607c"/><stop offset="1" stop-color="#6295b4"/></linearGradient><path d="M541.6 227.7l-11.5-2.1c-1.1-.2-1.9-1.3-1.7-2.4l.2-1.1c.2-1.1 1.3-1.9 2.4-1.7l11.5 2.1c1.1.2 1.9 1.3 1.7 2.4l-.2 1.1c-.2 1.2-1.3 2-2.4 1.7z" fill="url(#SVGID_5_)"/><circle class="st7" cx="538.1" cy="215.2" r="3.3"/><path class="st6" d="M525.8 229.2s20.5 17.3 36.4 15.7c11.1-1.1-6.6-9.7-6.6-9.7l-29.8-6z"/><path class="st5" d="M530.7 270.2c-.8-.2-2.2 1.7-6.5.3-1.8-.6-.1 5.5 3.2 5.3 3.3-.2 4.8-5.2 3.3-5.6z"/><path class="st6" d="M536.4 284.1l-11.1 17.4 4.1 6.7c1 1.6 3.4 1.5 4.3-.2l10.8-20.9-8.1-3z"/><path class="st6" d="M513.5 284.7l11.9 16.9-3.8 6.9c-.9 1.7-3.3 1.7-4.3 0l-11.8-21.3 8-2.5z"/><circle class="st11" cx="525" cy="328.5" r="2.1"/><g id="Слой_19"><path class="st18" d="M542.8 273.1c-.1-.8-.2-1.7-.2-2.6.1-3.5 1.6-6.2 3.4-9 3-4.7 8.1-14 8.1-14l-.6-.3c-3.4 4.8-5.7 8.7-7.8 10.9-2.8 3.1-6.5 3.1-7.1 3.1-21.8-1.4-33.1-8.2-33.9-10.3-3.2 3.3-4.6 8.2-4.2 13.1.7 8.8 7.6 15.6 16.1 16.5.1 0 .2.1.4.1l15 2.8c4.8.9 9.5-.6 13.1-3.8 0 0 6.1-6 6.4-18.6 0 0-1.2 7.8-4.4 12.7-2.9 4.6-4.1 0-4.3-.6z"/><path class="st19" d="M537.2 269.9c0-1.5.4-2.9.9-4.1.6-1.4-.4-3.1-2-3-15.6.2-24.6-4.5-28.1-7.2-1.1-.8-2.6-.6-3.3.6-1.5 2.5-2 5.5-1.8 8.6.6 7.2 6.2 12.7 13.1 13.5.1 0 .2.1.3.1l12.2 2.3c3.3.6 6.5-.2 9.1-1.9 1-.7 1.4-2 .8-3.1-.8-1.9-1.3-3.8-1.2-5.8z"/><path class="st18" d="M528.9 265.4c-7.4.1-12.7-2.2-15.9-4.1-.7-.4-1.4.5-.8 1.1 2.5 2.5 6.2 5.2 10.5 5.1 2.6-.1 4.7-.4 6.4-.7.7-.3.6-1.5-.2-1.4zm0 6.2c-9.3.6-15.3-2.3-18.7-4.8-.6-.5-1.5.3-1 1 2.8 3.8 7.7 8.6 14.4 7.2 2.5-.5 4.3-1 5.7-1.4 1.1-.4.7-2.1-.4-2z"/></g><g id="Слой_12_2_"><path class="st20" d="M826.3 61c-14.3 1.1-26.1-10.7-25-25 .9-11.2 10-20.3 21.2-21.2 14.3-1.1 26.1 10.7 25 25-.9 11.2-9.9 20.3-21.2 21.2zm0-37.4c-9.4-1.2-17.4 6.8-16.2 16.2.8 6.4 6 11.6 12.5 12.5 9.4 1.2 17.4-6.8 16.2-16.2-.8-6.5-6-11.7-12.5-12.5zM78 86.9c-2.4 0-4.3-1.9-4.3-4.3V42.5c0-2.4 1.9-4.3 4.3-4.3s4.3 1.9 4.3 4.3v40.1c0 2.4-1.9 4.3-4.3 4.3z"/><path class="st20" d="M102.4 62.5c0 2.4-1.9 4.3-4.3 4.3H58c-2.4 0-4.3-1.9-4.3-4.3s1.9-4.3 4.3-4.3h40.1c2.4.1 4.3 2 4.3 4.3zm780.9 231.4c-2 0-3.6-1.6-3.6-3.6v-33.5c0-2 1.6-3.6 3.6-3.6s3.6 1.6 3.6 3.6v33.5c-.1 2-1.7 3.6-3.6 3.6z"/><path class="st20" d="M903.6 273.6c0 2-1.6 3.6-3.6 3.6h-33.5c-2 0-3.6-1.6-3.6-3.6s1.6-3.6 3.6-3.6H900c2 0 3.6 1.6 3.6 3.6z"/></g><circle class="st11" cx="351.5" cy="230.2" r="84.2"/><linearGradient id="SVGID_6_" gradientUnits="userSpaceOnUse" x1="422.563" y1="337.953" x2="295.823" y2="335.962" gradientTransform="matrix(1 0 0 -1 0 567)"><stop offset="0" stop-color="#ffd273"/><stop offset="1" stop-color="#ffb951"/></linearGradient><circle cx="351.5" cy="230.2" r="73.6" fill="url(#SVGID_6_)"/><path d="M345.9 242.1l3.5 6.9 28.2-14.2 3.3 6.6-28.2 14.2 8.9 17.7-9.3 4.7-8.9-17.7-4.8 2.4-3.3-6.6 4.8-2.4-3.5-6.9-4.8 2.4-4.1-8.1 4.8-2.4-15.7-31.1 22.1-11.1c6.3-3.2 11.4-4.9 15.3-5.3 3.9-.4 7.6.5 11.2 2.7 3.6 2.2 6.3 5.3 8.3 9.2 2 3.9 2.9 7.5 2.7 10.8-.1 3.3-1 6.3-2.7 9s-3.8 5.2-6.6 7.3-5.8 4.1-9.1 5.8l-12.1 6.1zm8-14.2c2.1-1.1 4.1-2.3 5.9-3.6 1.8-1.3 3.2-2.8 4.2-4.4 1-1.6 1.6-3.4 1.7-5.4.1-2-.5-4.1-1.7-6.5-1.1-2.1-2.3-3.6-3.8-4.7s-3.2-1.7-5-1.9-3.8-.1-5.8.4-4.1 1.3-6.2 2.3l-13.1 6.6 11.7 23.3 12.1-6.1z" fill="#fff5e8"/><circle cx="835.2" cy="145.7" r="8.9" fill="#ffb95c"/><path class="st7" d="M810.2 377.6c-8 0-14.5-6.5-14.5-14.5s6.5-14.5 14.5-14.5 14.5 6.5 14.5 14.5c.1 8-6.5 14.5-14.5 14.5zm0-23.7c-5.1 0-9.2 4.1-9.2 9.2s4.1 9.2 9.2 9.2 9.2-4.1 9.2-9.2-4.1-9.2-9.2-9.2z"/><circle class="st7" cx="364.8" cy="48.6" r="6.8"/><circle class="st28" cx="175.8" cy="223.8" r="5.9"/><circle class="st8" cx="781" cy="220.2" r="6.7"/><path class="st28" d="M599.6 53.3c0 2.4-2 4.4-4.4 4.4h-27.7c-2.4 0-4.4-2-4.4-4.4 0-2.4 2-4.4 4.4-4.4h27.7c2.4 0 4.4 2 4.4 4.4z"/><path class="st7" d="M124 307.4c0 1.9-1.5 3.4-3.4 3.4H98.9c-1.9 0-3.4-1.5-3.4-3.4s1.5-3.4 3.4-3.4h21.7c1.8-.1 3.4 1.5 3.4 3.4z"/><path class="st7" d="M109.7 293.1c1.9 0 3.4 1.1 3.4 2.5v23.5c0 1.4-1.5 2.5-3.4 2.5s-3.4-1.1-3.4-2.5v-23.5c0-1.4 1.5-2.5 3.4-2.5z"/><path class="st28" d="M581.3 35c2.4 0 4.4 2 4.4 4.4v27.7c0 2.4-2 4.4-4.4 4.4-2.4 0-4.4-2-4.4-4.4V39.4c0-2.4 2-4.4 4.4-4.4z"/><path class="st29" d="M500.3.2h5V60h-5z"/><circle cx="502.8" cy="111.4" r="18" fill="#fcfeff"/><path class="st29" d="M554.1 106.2l-51.3-51.3-51.3 51.3c-1.9 1.9-.6 5.2 2.1 5.2H552c2.7 0 4-3.2 2.1-5.2zM188.2 69.3h72.9v83.6h-72.9z"/><path class="st19" d="M206.4 90.2h36.4V132h-36.4z"/><path class="st31" d="M141.7 467s15.7-49.7 30.9-33.7-30.9 33.7-30.9 33.7z"/><path class="st31" d="M153.4 466.5s-49.7-15.7-33.7-30.9c15.9-15.2 33.7 30.9 33.7 30.9z"/><path class="st31" d="M143.3 466.5s-32.1-79.5 3.9-75.1c35.9 4.3-3.9 75.1-3.9 75.1z"/><path class="st23" d="M125.6 454.6h39.8v67.2c0 9.5-7.7 17.2-17.2 17.2h-5.5c-9.5 0-17.2-7.7-17.2-17.2l.1-67.2zm205.6 85.3H197.1c-5.5 0-10-4.5-10-10V361.1c0-5.5 4.5-10 10-10h134.1c5.5 0 10 4.5 10 10v168.8c0 5.5-4.5 10-10 10z"/><path class="st19" d="M314 409.8H213.4c-5.5 0-10-4.5-10-10v-17.7c0-5.5 4.5-10 10-10H314c5.5 0 10 4.5 10 10v17.7c0 5.5-4.5 10-10 10zm1.3 57.5H214.8c-5.5 0-10-4.5-10-10v-17.7c0-5.5 4.5-10 10-10h100.6c5.5 0 10 4.5 10 10v17.7c-.1 5.5-4.6 10-10.1 10zm-.9 57.5H213.9c-5.5 0-10-4.5-10-10v-17.7c0-5.5 4.5-10 10-10h100.6c5.5 0 10 4.5 10 10v17.7c-.1 5.6-4.5 10-10.1 10z"/><circle class="st23" cx="263.2" cy="392.4" r="6.9"/><circle class="st23" cx="263.7" cy="450.6" r="6.9"/><circle class="st23" cx="263.7" cy="507.3" r="6.9"/><path class="st31" d="M227.1 294.2s-22.2 13.2-12.1 23.3c10.1 10.1 12.1-23.3 12.1-23.3z"/><path class="st31" d="M211.5 282s-17.5 28.5.1 34c17.6 5.6-.1-34-.1-34z"/><path class="st31" d="M189.7 294.1s7.8 32.5 24.2 24-24.2-24-24.2-24z"/><path class="st23" d="M196.9 310.6H225v28.2c0 6.7-5.4 12.1-12.1 12.1H209c-6.7 0-12.1-5.4-12.1-12.1v-28.2z"/></svg>