<?xml version="1.0" encoding="utf-8"?>
<!-- Generator: Adobe Illustrator 23.1.0, SVG Export Plug-In . SVG Version: 6.00 Build 0)  -->
<svg version="1.1" id="Layer_1" xmlns="http://www.w3.org/2000/svg" xmlns:xlink="http://www.w3.org/1999/xlink" x="0px" y="0px"
	 viewBox="0 0 910 567" style="enable-background:new 0 0 910 567;" xml:space="preserve">
<style type="text/css">
	.st0{fill:#C4E5ED;}
	.st1{fill:url(#SVGID_1_);}
	.st2{fill:#4195B7;}
	.st3{fill:#FCD3B5;}
	.st4{fill:#008F7F;}
	.st5{fill:#F7B394;}
	.st6{fill:#37A539;}
	.st7{fill:#43AE5D;}
	.st8{fill:url(#SVGID_2_);}
	.st9{fill:#62A4C0;}
	.st10{fill:url(#SVGID_3_);}
	.st11{fill:#FAB95F;}
	.st12{fill:#1D627E;}
	.st13{fill:#C7E6EE;}
	.st14{fill:url(#SVGID_4_);}
	.st15{fill:url(#SVGID_5_);}
	.st16{fill:url(#SVGID_6_);}
	.st17{fill:url(#SVGID_7_);}
	.st18{fill:url(#SVGID_8_);}
	.st19{fill:url(#SVGID_9_);}
	.st20{fill:#F8C671;}
	.st21{fill:url(#SVGID_10_);}
	.st22{fill:#AFD7DD;}
	.st23{fill:#EFF7FB;}
	.st24{fill:url(#SVGID_11_);}
	.st25{fill:url(#SVGID_12_);}
	.st26{fill:url(#SVGID_13_);}
	.st27{fill:url(#SVGID_14_);}
	.st28{fill:url(#SVGID_15_);}
	.st29{fill:url(#SVGID_16_);}
	.st30{fill:#EC6743;}
	.st31{fill:url(#SVGID_17_);}
	.st32{fill:url(#SVGID_18_);}
	.st33{fill:#5BB24C;}
	.st34{fill:url(#SVGID_19_);}
	.st35{fill:url(#SVGID_20_);}
	.st36{fill:url(#SVGID_21_);}
	.st37{fill:#F18675;}
	.st38{fill:#046B89;}
	.st39{fill:#EA5539;}
	.st40{fill:#E62555;}
	.st41{fill:#FFFFFF;}
	.st42{fill:none;}
	.st43{enable-background:new    ;}
	.st44{fill:#D0EAF3;}
	.st45{fill:url(#SVGID_22_);}
	.st46{fill:#D6EDF4;}
	.st47{fill:url(#SVGID_23_);}
	.st48{fill:url(#SVGID_24_);}
	.st49{fill:url(#SVGID_25_);}
	.st50{fill:#FAB755;}
	.st51{fill:#EC6544;}
	.st52{fill:#83B0C7;}
	.st53{fill:#FAB854;}
	.st54{fill:url(#SVGID_26_);}
	.st55{fill:#4093B6;}
	.st56{fill:url(#SVGID_27_);}
	.st57{fill:url(#SVGID_28_);}
	.st58{fill:url(#SVGID_29_);}
	.st59{fill:#A8DAE3;}
	.st60{fill:#04617B;}
	.st61{fill:url(#SVGID_30_);}
	.st62{fill:url(#SVGID_31_);}
	.st63{fill:#FCD4B7;}
	.st64{fill:url(#SVGID_32_);}
	.st65{fill:url(#SVGID_33_);}
	.st66{fill:url(#SVGID_34_);}
	.st67{fill:url(#SVGID_35_);}
	.st68{fill:url(#SVGID_36_);}
	.st69{fill:#FFF5E9;}
	.st70{fill:url(#SVGID_37_);}
	.st71{fill:url(#SVGID_38_);}
	.st72{fill:url(#SVGID_39_);}
	.st73{fill:url(#SVGID_40_);}
	.st74{fill:url(#SVGID_41_);}
	.st75{fill:url(#SVGID_42_);}
	.st76{fill:url(#SVGID_43_);}
	.st77{fill:#1B5A6F;}
	.st78{fill:url(#SVGID_44_);}
	.st79{fill:url(#SVGID_45_);}
	.st80{fill:url(#SVGID_46_);}
	.st81{fill:#065E79;}
	.st82{fill:url(#SVGID_47_);}
	.st83{fill:url(#SVGID_48_);}
	.st84{fill:#FDCE6A;}
	.st85{opacity:0.11;fill:#FFFFFF;enable-background:new    ;}
	.st86{opacity:0.42;fill:#EFF7FB;enable-background:new    ;}
	.st87{fill:none;stroke:#D0EAF3;stroke-width:2;stroke-linecap:round;stroke-miterlimit:10;}
	.st88{opacity:0.7;fill:#D0EAF3;enable-background:new    ;}
	.st89{opacity:0.7;fill:#C4E5ED;enable-background:new    ;}
	.st90{opacity:0.73;fill:#EFF7FB;enable-background:new    ;}
	.st91{fill:#D9EEF4;}
	.st92{fill:#CDE9F0;}
	.st93{fill:url(#SVGID_49_);}
	.st94{fill:url(#SVGID_50_);}
	.st95{fill:#3B85A9;}
	.st96{fill:url(#SVGID_51_);}
	.st97{fill:url(#SVGID_52_);}
	.st98{fill:url(#SVGID_53_);}
	.st99{fill:#F18775;}
	.st100{fill:url(#SVGID_54_);}
	.st101{fill:url(#SVGID_55_);}
	.st102{fill:url(#SVGID_56_);}
	.st103{fill:#4FB26D;}
	.st104{fill:url(#SVGID_57_);}
	.st105{fill:url(#SVGID_58_);}
	.st106{fill:url(#SVGID_59_);}
	.st107{fill:url(#SVGID_60_);}
	.st108{fill:url(#SVGID_61_);}
	.st109{fill:url(#SVGID_62_);}
	.st110{fill:url(#SVGID_63_);}
	.st111{fill:#F49C7E;}
	.st112{fill:url(#SVGID_64_);}
	.st113{fill:url(#SVGID_65_);}
	.st114{fill:#FED377;}
	.st115{fill:url(#SVGID_66_);}
	.st116{fill:url(#SVGID_67_);}
	.st117{fill:#124657;}
	.st118{opacity:0.19;fill:#FFFFFF;enable-background:new    ;}
	.st119{fill:#F7F9F9;}
	.st120{fill:url(#SVGID_68_);}
	.st121{fill:url(#SVGID_69_);}
	.st122{fill:url(#SVGID_70_);}
	.st123{fill:url(#SVGID_71_);}
	.st124{fill:#D9EEF3;}
	.st125{fill:url(#SVGID_72_);}
	.st126{fill:url(#SVGID_73_);}
	.st127{fill:#FAFDFF;}
	.st128{fill:url(#SVGID_74_);}
	.st129{fill:url(#SVGID_75_);}
	.st130{fill:url(#SVGID_76_);}
	.st131{opacity:0.68;fill:url(#SVGID_77_);enable-background:new    ;}
	.st132{fill:url(#SVGID_78_);}
	.st133{opacity:0.68;fill:url(#SVGID_79_);enable-background:new    ;}
	.st134{fill:url(#SVGID_80_);}
	.st135{opacity:0.68;fill:url(#SVGID_81_);enable-background:new    ;}
	.st136{fill:url(#SVGID_82_);}
	.st137{fill:url(#SVGID_83_);}
	.st138{fill:url(#SVGID_84_);}
	.st139{fill:url(#SVGID_85_);}
	.st140{fill:url(#SVGID_86_);}
	.st141{fill:#03949D;}
	.st142{fill:#E84B33;}
	.st143{fill:url(#SVGID_87_);}
	.st144{fill:url(#SVGID_88_);}
	.st145{fill:url(#SVGID_89_);}
	.st146{fill:url(#SVGID_90_);}
	.st147{fill:url(#SVGID_91_);}
	.st148{fill:#F4A182;}
	.st149{fill:#0C5879;}
	.st150{fill:#FBCEAD;}
	.st151{fill:#FBCCA3;}
	.st152{fill:url(#SVGID_92_);}
	.st153{fill:url(#SVGID_93_);}
	.st154{fill:url(#SVGID_94_);}
	.st155{fill:url(#SVGID_95_);}
	.st156{fill:#03A86F;}
	.st157{fill:url(#SVGID_96_);}
	.st158{fill:url(#SVGID_97_);}
	.st159{fill:url(#SVGID_98_);}
	.st160{fill:url(#SVGID_99_);}
	.st161{fill:url(#SVGID_100_);}
	.st162{fill:url(#SVGID_101_);}
	.st163{fill:url(#SVGID_102_);}
	.st164{fill:#A5D2D9;}
	.st165{fill:url(#SVGID_103_);}
	.st166{fill:url(#SVGID_104_);}
	.st167{fill:url(#SVGID_105_);}
	.st168{fill:url(#SVGID_106_);}
	.st169{fill:url(#SVGID_107_);}
	.st170{fill:url(#SVGID_108_);}
	.st171{fill:url(#SVGID_109_);}
	.st172{fill:url(#SVGID_110_);}
	.st173{fill:url(#SVGID_111_);}
	.st174{fill:url(#SVGID_112_);}
	.st175{fill:url(#SVGID_113_);}
	.st176{fill:url(#SVGID_114_);}
	.st177{fill:url(#SVGID_115_);}
	.st178{fill:url(#SVGID_116_);}
	.st179{fill:url(#SVGID_117_);}
	.st180{fill:url(#SVGID_118_);}
	.st181{fill:#F6AD98;}
	.st182{fill:#7FBCD1;}
	.st183{fill:#F39886;}
	.st184{fill:url(#SVGID_119_);}
	.st185{fill:url(#SVGID_120_);}
	.st186{fill:url(#SVGID_121_);}
	.st187{fill:#07787F;}
	.st188{fill:url(#SVGID_122_);}
	.st189{fill:url(#SVGID_123_);}
	.st190{fill:url(#SVGID_124_);}
	.st191{fill:url(#SVGID_125_);}
	.st192{fill:url(#SVGID_126_);}
	.st193{fill:#F8AA3C;}
	.st194{fill:url(#SVGID_127_);}
	.st195{fill:url(#SVGID_128_);}
	.st196{fill:none;stroke:#5BB24C;stroke-width:3;stroke-linecap:round;stroke-miterlimit:10;}
	.st197{fill:none;stroke:#5BB24C;stroke-width:3;stroke-linecap:round;stroke-miterlimit:10;stroke-dasharray:11.9912,11.9912;}
	.st198{fill:none;stroke:#5BB24C;stroke-width:3;stroke-linecap:round;stroke-linejoin:round;stroke-miterlimit:10;}
	.st199{fill:url(#SVGID_129_);}
	.st200{fill:url(#SVGID_130_);}
	.st201{fill:url(#SVGID_131_);}
	.st202{fill:url(#SVGID_132_);}
	.st203{fill:url(#SVGID_133_);}
	.st204{fill:url(#SVGID_134_);}
	.st205{fill:url(#SVGID_135_);}
	.st206{fill:url(#SVGID_136_);}
	.st207{fill:url(#SVGID_137_);}
	.st208{fill:url(#SVGID_138_);}
	.st209{fill:url(#SVGID_139_);}
	.st210{opacity:0.4;}
	.st211{opacity:0.31;fill:#FAB95F;enable-background:new    ;}
	.st212{opacity:0.43;fill:#FAB95F;enable-background:new    ;}
	.st213{fill:url(#SVGID_140_);}
	.st214{fill:url(#SVGID_141_);}
	.st215{fill:url(#SVGID_142_);}
	.st216{fill:url(#SVGID_143_);}
	.st217{fill:url(#SVGID_144_);}
	.st218{fill:url(#SVGID_145_);}
	.st219{fill:url(#SVGID_146_);}
	.st220{fill:url(#SVGID_147_);}
	.st221{fill:url(#SVGID_148_);}
	.st222{fill:#FCDAC2;}
	.st223{fill:#EF7A5B;}
	.st224{fill:#77AFC6;}
	.st225{fill:#F1876F;}
	.st226{fill:#89B9CE;}
	.st227{fill:#FFD884;}
	.st228{fill:url(#SVGID_149_);}
	.st229{fill:url(#SVGID_150_);}
	.st230{fill:url(#SVGID_151_);}
	.st231{fill:url(#SVGID_152_);}
	.st232{fill:url(#SVGID_153_);}
	.st233{fill:url(#SVGID_154_);}
	.st234{fill:#FCD5B7;}
	.st235{fill:url(#SVGID_155_);}
	.st236{fill:url(#SVGID_156_);}
	.st237{fill:url(#SVGID_157_);}
	.st238{fill:url(#SVGID_158_);}
	.st239{fill:#F8BC9F;}
	.st240{fill:url(#SVGID_159_);}
	.st241{fill:url(#SVGID_160_);}
	.st242{fill:url(#SVGID_161_);}
	.st243{fill:url(#SVGID_162_);}
	.st244{fill:url(#SVGID_163_);}
	.st245{fill:url(#SVGID_164_);}
	.st246{fill:#F7B395;}
	.st247{fill:url(#SVGID_165_);}
	.st248{fill:url(#SVGID_166_);}
	.st249{fill:url(#SVGID_167_);}
	.st250{fill:url(#SVGID_168_);}
	.st251{fill:url(#SVGID_169_);}
	.st252{fill:url(#SVGID_170_);}
	.st253{fill:url(#SVGID_171_);}
	.st254{fill:url(#SVGID_172_);}
	.st255{fill:url(#SVGID_173_);}
	.st256{fill:url(#SVGID_174_);}
	.st257{fill:url(#SVGID_175_);}
	.st258{fill:url(#SVGID_176_);}
	.st259{fill:url(#SVGID_177_);}
	.st260{fill:url(#SVGID_178_);}
	.st261{fill:url(#SVGID_179_);}
	.st262{fill:url(#SVGID_180_);}
	.st263{fill:url(#SVGID_181_);}
	.st264{fill:url(#SVGID_182_);}
	.st265{fill:url(#SVGID_183_);}
	.st266{fill:url(#SVGID_184_);}
	.st267{fill:url(#SVGID_185_);}
	.st268{fill:url(#SVGID_186_);}
	.st269{fill:url(#SVGID_187_);}
	.st270{fill:url(#SVGID_188_);}
	.st271{fill:url(#SVGID_189_);}
	.st272{fill:url(#SVGID_190_);}
	.st273{fill:url(#SVGID_191_);}
	.st274{fill:url(#SVGID_192_);}
	.st275{fill:url(#SVGID_193_);}
	.st276{fill:url(#SVGID_194_);}
	.st277{fill:url(#SVGID_195_);}
	.st278{fill:url(#SVGID_196_);}
	.st279{fill:url(#SVGID_197_);}
	.st280{fill:#FCFEFF;}
	.st281{fill:#FCF4F2;}
	.st282{fill:url(#SVGID_198_);}
	.st283{fill:url(#SVGID_199_);}
	.st284{fill:url(#SVGID_200_);}
	.st285{fill:none;stroke:#43AE5D;stroke-width:2;stroke-linecap:round;stroke-miterlimit:10;}
	.st286{fill:url(#SVGID_201_);}
	.st287{fill:url(#SVGID_202_);}
	.st288{fill:url(#SVGID_203_);}
	.st289{fill:url(#SVGID_204_);}
	.st290{fill:url(#SVGID_205_);}
	.st291{fill:url(#SVGID_206_);}
	.st292{fill:#CEE9EF;}
	.st293{fill:url(#SVGID_207_);}
	.st294{fill:url(#SVGID_208_);}
	.st295{fill:url(#SVGID_209_);}
	.st296{fill:url(#SVGID_210_);}
	.st297{fill:url(#SVGID_211_);}
	.st298{fill:none;stroke:#5BB24C;stroke-width:3;stroke-linecap:round;stroke-miterlimit:10;stroke-dasharray:11.9199,11.9199;}
	.st299{fill:url(#SVGID_212_);}
	.st300{fill:url(#SVGID_213_);}
	.st301{fill:#F7FCFD;}
	.st302{fill:url(#SVGID_214_);}
	.st303{fill:url(#SVGID_215_);}
	.st304{fill:url(#SVGID_216_);}
	.st305{fill:url(#SVGID_217_);}
	.st306{fill:url(#SVGID_218_);}
	.st307{fill:url(#SVGID_219_);}
	.st308{fill:url(#SVGID_220_);}
	.st309{fill:url(#SVGID_221_);}
	.st310{fill:url(#SVGID_222_);}
	.st311{fill:url(#SVGID_223_);}
	.st312{fill:url(#SVGID_224_);}
	.st313{fill:url(#SVGID_225_);}
	.st314{fill:url(#SVGID_226_);}
	.st315{fill:url(#SVGID_227_);}
	.st316{fill:url(#SVGID_228_);}
	.st317{fill:url(#SVGID_229_);}
	.st318{fill:url(#SVGID_230_);}
	.st319{fill:url(#SVGID_231_);}
	.st320{fill:url(#SVGID_232_);}
	.st321{fill:url(#SVGID_233_);}
	.st322{fill:url(#SVGID_234_);}
	.st323{fill:url(#SVGID_235_);}
	.st324{fill:url(#SVGID_236_);}
	.st325{fill:url(#SVGID_237_);}
	.st326{fill:url(#SVGID_238_);}
	.st327{fill:url(#SVGID_239_);}
	.st328{fill:url(#SVGID_240_);}
	.st329{fill:url(#SVGID_241_);}
	.st330{fill:url(#SVGID_242_);}
	.st331{fill:url(#SVGID_243_);}
	.st332{fill:url(#SVGID_244_);}
	.st333{fill:url(#SVGID_245_);}
	.st334{fill:url(#SVGID_246_);}
	.st335{fill:url(#SVGID_247_);}
	.st336{fill:url(#SVGID_248_);}
	.st337{fill:url(#SVGID_249_);}
	.st338{fill:url(#SVGID_250_);}
	.st339{fill:url(#SVGID_251_);}
	.st340{fill:url(#SVGID_252_);}
	.st341{fill:url(#SVGID_253_);}
	.st342{fill:url(#SVGID_254_);}
	.st343{fill:url(#SVGID_255_);}
	.st344{fill:url(#SVGID_256_);}
	.st345{fill:url(#SVGID_257_);}
	.st346{fill:url(#SVGID_258_);}
	.st347{fill:url(#SVGID_259_);}
	.st348{fill:url(#SVGID_260_);}
	.st349{fill:url(#SVGID_261_);}
	.st350{fill:url(#SVGID_262_);}
	.st351{fill:url(#SVGID_263_);}
</style>
<linearGradient id="SVGID_1_" gradientUnits="userSpaceOnUse" x1="416.0471" y1="-2811.7878" x2="1634.1888" y2="-1654.197" gradientTransform="matrix(1 0 0 -1 0 -2355.8335)">
	<stop  offset="0" style="stop-color:#ECF6FB;stop-opacity:0.1"/>
	<stop  offset="0.0589" style="stop-color:#E7F4FA;stop-opacity:0.153"/>
	<stop  offset="0.3401" style="stop-color:#D9EEF4;stop-opacity:0.4061"/>
	<stop  offset="0.6423" style="stop-color:#D1EAF1;stop-opacity:0.6781"/>
	<stop  offset="1" style="stop-color:#CDE9F0"/>
</linearGradient>
<path class="st1" d="M856.89,567c35.34-122.08,3.33-187.77-50.74-260.37c15.72-29.44,24.65-63.08,24.65-98.83
	c0-115.62-93.31-209.35-208.42-209.35c-88.86,0-164.72,55.86-194.7,134.53c-75.73,5.44-146.07,30.42-206.05,69.96
	c-12.69-4.4-26.31-6.79-40.49-6.79c-68.55,0-124.11,55.82-124.11,124.67c0,19.75,4.58,38.42,12.72,55.01
	C41.61,433.54,23.36,549.8,56.7,567H856.89z"/>
<g>
	<path class="st124" d="M175.24,76.33c-13.51,0-24.5-10.99-24.5-24.5s10.99-24.5,24.5-24.5s24.5,10.99,24.5,24.5
		S188.75,76.33,175.24,76.33z M175.24,36.53c-8.43,0-15.29,6.86-15.29,15.29s6.86,15.29,15.29,15.29s15.29-6.86,15.29-15.29
		S183.68,36.53,175.24,36.53z"/>
</g>
<linearGradient id="SVGID_2_" gradientUnits="userSpaceOnUse" x1="460.7895" y1="-2979.7266" x2="460.7895" y2="-2583.6172" gradientTransform="matrix(1 0 0 -1 0 -2355.8335)">
	<stop  offset="0" style="stop-color:#ECF6FB;stop-opacity:0.1"/>
	<stop  offset="0.2529" style="stop-color:#E1F1F7;stop-opacity:0.3276"/>
	<stop  offset="0.5948" style="stop-color:#D9EEF4;stop-opacity:0.6353"/>
	<stop  offset="1" style="stop-color:#D6EDF4"/>
</linearGradient>
<path class="st8" d="M778.13,412.29v-78.56c0-5.39-4.21-9.76-9.41-9.76H645.8c-5.2,0-9.41,4.37-9.41,9.76v126.82
	c0,5.39-4.21,9.76-9.41,9.76H495.5c-5.2,0-9.41-4.37-9.41-9.76V122.9c0-5.39-4.21-9.76-9.41-9.76h-50.49c-5.2,0-9.41,4.37-9.41,9.76
	v270.46c0,5.39-4.21,9.76-9.41,9.76h-62.95c-5.2,0-9.41,4.37-9.41,9.76v13.62c0,5.39-4.21,9.76-9.41,9.76h-80.08
	c-5.2,0-9.41-4.37-9.41-9.76V272.97c0-5.39-4.21-9.76-9.41-9.76h-78.54c-5.2,0-9.41,4.37-9.41,9.76v153.54
	c0,5.39-4.21,9.76-9.41,9.76h-96.5v124.16h105.91h85.67h11.68h98.91h9.12h72.66h3.12h56.07h10.12h150.3h13.24h96.57h31.93h110.59
	V422.05H787.54C782.34,422.05,778.13,417.68,778.13,412.29z"/>
<path class="st0" d="M555.71,146.29h13.58c1.52,0,2.75,1.23,2.75,2.75V546.8c0,1.52-1.23,2.75-2.75,2.75h-13.58
	c-1.52,0-2.75-1.23-2.75-2.75V149.04C552.96,147.52,554.19,146.29,555.71,146.29z"/>
<linearGradient id="SVGID_3_" gradientUnits="userSpaceOnUse" x1="799.0295" y1="-2507.7" x2="799.0295" y2="-2270.78" gradientTransform="matrix(1 0 0 -1 0 -2355.8335)">
	<stop  offset="0.2155" style="stop-color:#FAFDFF"/>
	<stop  offset="0.2869" style="stop-color:#F4FAFD"/>
	<stop  offset="0.4999" style="stop-color:#E4F3F8"/>
	<stop  offset="0.7289" style="stop-color:#DDF0F4"/>
	<stop  offset="1" style="stop-color:#D9EEF3"/>
</linearGradient>
<path class="st10" d="M824.22,88.24h-9.5c0-12.32-9.99-22.31-22.31-22.31s-22.31,9.99-22.31,22.31c0,0.1,0.01,0.2,0.01,0.3
	c-10.97,1.78-19.35,11.29-19.35,22.76l0,0c0,12.73,10.32,23.06,23.06,23.06h50.41c12.73,0,23.06-10.32,23.06-23.06l0,0
	C847.27,98.56,836.95,88.24,824.22,88.24z"/>
<path class="st0" d="M535,537.46h55c1.83,0,3.31,1.48,3.31,3.31v19.65H531.7v-19.65C531.69,538.95,533.17,537.46,535,537.46z"/>
<circle class="st127" cx="562.5" cy="162.8" r="33.77"/>
<path class="st44" d="M525.33,162.8h74.33c4.63,0,8.06-4.24,7.17-8.78c-4.09-20.75-22.38-36.41-44.33-36.41
	s-40.25,15.65-44.33,36.41C517.27,158.56,520.71,162.8,525.33,162.8z"/>
<linearGradient id="SVGID_4_" gradientUnits="userSpaceOnUse" x1="85.3316" y1="-2323.2776" x2="75.2575" y2="-2867.8704" gradientTransform="matrix(1 0 0 -1 0 -2355.8335)">
	<stop  offset="0" style="stop-color:#FAFDFF"/>
	<stop  offset="0.2042" style="stop-color:#E7F4F8"/>
	<stop  offset="0.4419" style="stop-color:#DAEEF2"/>
	<stop  offset="0.6975" style="stop-color:#D0EAEE"/>
	<stop  offset="1" style="stop-color:#CDE8ED"/>
</linearGradient>
<path class="st14" d="M109.6,98.68H99.36c0-13.28-10.76-24.04-24.04-24.04S51.28,85.4,51.28,98.68c0,0.11,0.01,0.22,0.01,0.32
	c-11.82,1.91-20.85,12.16-20.85,24.52l0,0c0,13.72,11.12,24.84,24.84,24.84h54.32c13.72,0,24.84-11.12,24.84-24.84l0,0
	C134.44,109.8,123.32,98.68,109.6,98.68z"/>
<linearGradient id="SVGID_5_" gradientUnits="userSpaceOnUse" x1="142.0495" y1="-2541.4033" x2="142.0495" y2="-2170.8696" gradientTransform="matrix(1 0 0 -1 0 -2355.8335)">
	<stop  offset="0.2155" style="stop-color:#FAFDFF"/>
	<stop  offset="0.2869" style="stop-color:#F4FAFD"/>
	<stop  offset="0.4999" style="stop-color:#E4F3F8"/>
	<stop  offset="0.7289" style="stop-color:#DDF0F4"/>
	<stop  offset="1" style="stop-color:#D9EEF3"/>
</linearGradient>
<path class="st15" d="M178.51,114.75h-13.74c0-17.82-14.45-32.27-32.27-32.27s-32.27,14.45-32.27,32.27c0,0.15,0.01,0.29,0.01,0.44
	c-15.86,2.57-27.98,16.32-27.98,32.91l0,0c0,18.41,14.93,33.34,33.34,33.34h72.89c18.41,0,33.34-14.93,33.34-33.34l0,0
	C211.85,129.68,196.92,114.75,178.51,114.75z"/>
<linearGradient id="SVGID_6_" gradientUnits="userSpaceOnUse" x1="401.2421" y1="-2378.4119" x2="411.9088" y2="-2648.0415" gradientTransform="matrix(1 0 0 -1 0 -2355.8335)">
	<stop  offset="0.2155" style="stop-color:#FAFDFF"/>
	<stop  offset="0.2869" style="stop-color:#F4FAFD"/>
	<stop  offset="0.4999" style="stop-color:#E4F3F8"/>
	<stop  offset="0.7289" style="stop-color:#DDF0F4"/>
	<stop  offset="1" style="stop-color:#D9EEF3"/>
</linearGradient>
<path class="st16" d="M422.92,89.48h-6.93c0-8.99-7.29-16.27-16.27-16.27s-16.27,7.29-16.27,16.27c0,0.07,0,0.15,0.01,0.22
	c-8,1.29-14.11,8.23-14.11,16.6l0,0c0,9.29,7.53,16.82,16.82,16.82h36.76c9.29,0,16.82-7.53,16.82-16.82l0,0
	C439.74,97.01,432.21,89.48,422.92,89.48z"/>
<g>
	<path class="st0" d="M657.97,92.4c-0.67,0-1.33-0.25-1.84-0.76l-16.91-16.91c-1.02-1.02-1.02-2.66,0-3.68
		c1.01-1.02,2.66-1.02,3.68,0l15.07,15.07l15.07-15.07c1.01-1.02,2.66-1.02,3.68,0s1.02,2.66,0,3.68l-16.91,16.91
		C659.3,92.14,658.63,92.4,657.97,92.4z"/>
</g>
<g>
	<path class="st0" d="M624.73,134.34c-0.41,0-0.81-0.16-1.1-0.46l-10.8-10.8c-0.61-0.61-0.61-1.6,0-2.21s1.6-0.61,2.21,0l9.7,9.7
		l9.7-9.7c0.61-0.61,1.6-0.61,2.21,0s0.61,1.6,0,2.21l-10.8,10.8C625.54,134.17,625.14,134.34,624.73,134.34z"/>
</g>
<g>
	<path class="st0" d="M688.86,150.18c-0.4,0-0.8-0.15-1.1-0.46l-13.99-13.99c-0.61-0.61-0.61-1.6,0-2.21s1.6-0.61,2.21,0
		l12.88,12.89l12.88-12.88c0.61-0.61,1.6-0.61,2.21,0c0.61,0.61,0.61,1.6,0,2.21l-13.99,13.99
		C689.66,150.03,689.26,150.18,688.86,150.18z"/>
</g>
<g>
	<path class="st124" d="M860.74,48.72L860.74,48.72c-1.4-1.4-1.4-3.66,0-5.05l23.83-23.83c1.4-1.4,3.66-1.4,5.05,0l0,0
		c1.4,1.4,1.4,3.66,0,5.05l-23.83,23.83C864.39,50.11,862.13,50.11,860.74,48.72z"/>
</g>
<g>
	<path class="st124" d="M889.61,48.72L889.61,48.72c-1.4,1.4-3.66,1.4-5.05,0l-23.82-23.83c-1.4-1.4-1.4-3.66,0-5.05l0,0
		c1.4-1.4,3.66-1.4,5.05,0l23.83,23.83C891.01,45.06,891.01,47.32,889.61,48.72z"/>
</g>
<g>
	
		<linearGradient id="SVGID_7_" gradientUnits="userSpaceOnUse" x1="57.9443" y1="-2864.1785" x2="517.0653" y2="-2864.1785" gradientTransform="matrix(1 0 0 -1 0 -2355.8335)">
		<stop  offset="0" style="stop-color:#6BB75A"/>
		<stop  offset="1" style="stop-color:#06727E"/>
		<stop  offset="1" style="stop-color:#009D90"/>
	</linearGradient>
	<path style="opacity:0.68;fill:url(#SVGID_7_);enable-background:new    ;" d="M98.11,501.87l-5.99,14.73
		c6.32-4.08,16.14-9.89,29.81-16.51C110.31,501.51,98.11,501.87,98.11,501.87z"/>
	
		<linearGradient id="SVGID_8_" gradientUnits="userSpaceOnUse" x1="90.4261" y1="-2794.8191" x2="951.7595" y2="-2786.8191" gradientTransform="matrix(1 0 0 -1 0 -2355.8335)">
		<stop  offset="0" style="stop-color:#6BB75A"/>
		<stop  offset="1" style="stop-color:#06727E"/>
		<stop  offset="1" style="stop-color:#009D90"/>
	</linearGradient>
	<path class="st18" d="M502.02,442c-1.46-20.08-5.4-35.68-7.22-42.06c-11.74-10.46-27.2-16.82-44.16-16.82H296.27
		c-58.23,0-111.45,52.51-147.02,60.88c-2.97,0.35-5.91,0.72-8.81,1.12c-0.01,0-0.01,0-0.02,0c-0.03,0-0.05,0.01-0.08,0.01
		c-27.14,3.74-51.12,9.84-66.12,19.49c3.72-0.69,8.04-0.31,8.04,5.15c0,8.54-2.44,13.02-4.22,13.7c23.23,0.21,55.04,3.02,61.05,9.02
		c0.05,0.05,2.48-1.34,2.53-1.29c55.09-23.16,152.07-50.87,302.94-52.58C466.02,438.39,485.08,439.59,502.02,442z"/>
	
		<linearGradient id="SVGID_9_" gradientUnits="userSpaceOnUse" x1="57.9443" y1="-2778.0586" x2="517.0653" y2="-2778.0586" gradientTransform="matrix(1 0 0 -1 0 -2355.8335)">
		<stop  offset="0" style="stop-color:#6BB75A"/>
		<stop  offset="1" style="stop-color:#06727E"/>
		<stop  offset="1" style="stop-color:#009D90"/>
	</linearGradient>
	<path style="opacity:0.68;fill:url(#SVGID_9_);enable-background:new    ;" d="M516.87,444.51c-1.33-17.69-9.59-33.45-22.07-44.57
		c1.83,6.38,5.77,21.97,7.22,42.06C507.17,442.73,512.11,443.57,516.87,444.51z"/>
	
		<linearGradient id="SVGID_10_" gradientUnits="userSpaceOnUse" x1="-216.7318" y1="-2851.4885" x2="657.2449" y2="-2851.4885" gradientTransform="matrix(1 0 0 -1 0 -2355.8335)">
		<stop  offset="0" style="stop-color:#6BB75A"/>
		<stop  offset="1" style="stop-color:#06727E"/>
		<stop  offset="1" style="stop-color:#009D90"/>
	</linearGradient>
	<path class="st21" d="M141.63,491.21c-7.29,3.07-13.85,6.05-19.7,8.89C134.3,498.59,146,495.91,141.63,491.21z"/>
	
		<linearGradient id="SVGID_11_" gradientUnits="userSpaceOnUse" x1="57.9443" y1="-2815.3135" x2="517.0653" y2="-2815.3135" gradientTransform="matrix(1 0 0 -1 0 -2355.8335)">
		<stop  offset="0" style="stop-color:#6BB75A"/>
		<stop  offset="1" style="stop-color:#06727E"/>
		<stop  offset="1" style="stop-color:#009D90"/>
	</linearGradient>
	<path style="opacity:0.68;fill:url(#SVGID_11_);enable-background:new    ;" d="M501.57,476.97c5.79-0.17,11.35-0.28,15.5-0.35
		v-27.08c0-1.69-0.07-3.37-0.19-5.03c-4.76-0.95-9.7-1.79-14.84-2.52C502.8,452.63,502.87,464.52,501.57,476.97z"/>
	
		<linearGradient id="SVGID_12_" gradientUnits="userSpaceOnUse" x1="-216.7318" y1="-2815.3135" x2="657.2449" y2="-2815.3135" gradientTransform="matrix(1 0 0 -1 0 -2355.8335)">
		<stop  offset="0" style="stop-color:#6BB75A"/>
		<stop  offset="1" style="stop-color:#06727E"/>
		<stop  offset="1" style="stop-color:#009D90"/>
	</linearGradient>
	<path class="st25" d="M501.57,476.97c5.79-0.17,11.35-0.28,15.5-0.35v-27.08c0-1.69-0.07-3.37-0.19-5.03
		c-4.76-0.95-9.7-1.79-14.84-2.52C502.8,452.63,502.87,464.52,501.57,476.97z"/>
</g>
<g>
	<path class="st114" d="M125.18,514.19c12.37-1.5,24.07-4.19,19.7-8.89c55.09-23.16,152.07-50.87,302.94-52.58
		c20.31-0.23,38.48,0.84,54.74,3c-0.03-4.75-0.22-9.35-0.54-13.73c-16.95-2.41-36.01-3.61-57.46-3.37
		c-150.87,1.71-250.27,29.9-305.37,53.57c4.38,4.7-4.9,6.39-17.27,7.89c-13.67,6.62-23.49,12.43-29.81,16.51l-6.1,15
		c0.44,0.02,0.88,0.03,1.33,0.03h7.64l0.38-0.93C101.7,526.62,111.51,520.82,125.18,514.19z"/>
	
		<linearGradient id="SVGID_13_" gradientUnits="userSpaceOnUse" x1="-216.7318" y1="-2873.5886" x2="657.2449" y2="-2873.5886" gradientTransform="matrix(1 0 0 -1 0 -2355.8335)">
		<stop  offset="0" style="stop-color:#3EAC4F"/>
		<stop  offset="1" style="stop-color:#008F7F"/>
	</linearGradient>
	<path class="st26" d="M467.44,531.64h7.72c-6.48-8.1-15.08-19.19-20.76-27.77c-0.84,0.47-1.59,0.88-2.21,1.22
		C449.5,506.57,458.09,519.23,467.44,531.64z"/>
	<path class="st119" d="M448.94,490.95c5.44-2.98,20.49-11.61,26.14-12.45c5.22-0.78,16.22-1.27,26.49-1.57
		c0.77-7.33,1.05-14.45,1-21.25c-16.26-2.16-34.43-3.23-54.74-3c-150.87,1.71-247.85,29.42-302.94,52.58
		c4.38,4.7-7.33,7.38-19.7,8.89c-13.67,6.62-23.49,12.43-29.81,16.51L95,531.59h201.28h18.48h152.7
		c-9.35-12.4-17.94-25.06-15.25-26.54c0.62-0.34,1.37-0.76,2.21-1.22C449.92,497.06,447.27,491.86,448.94,490.95z"/>
</g>
<g>
	<path class="st114" d="M82.26,469.77c0-5.46-4.32-5.84-8.04-5.15c-8.1,5.21-13.57,11.47-15.51,18.95c6.18,0,17.59,0,18.86,0
		C79.37,483.57,82.26,479.07,82.26,469.77z"/>
	<path class="st12" d="M517.06,492.25v-15.63c-11.49,0.19-33.82,0.71-41.98,1.92c-5.65,0.84-28.38,13.36-33.82,16.34
		c-3.78,2.07,22.32,22.26,33.9,36.75h2.52C499.43,531.64,517.06,514,517.06,492.25z"/>
</g>
<path class="st12" d="M142.91,498.13c-1.54-14.56-41.64-14.45-64.86-14.66c-0.16,0.06-0.31,0.1-0.46,0.1c-1.27,0-12.68,0-18.86,0
	c-0.51,1.98-0.78,4.04-0.78,6.2v12.45c0,15.8,12.46,28.68,28.08,29.38l7.08-0.03C93.11,531.57,144.29,511.13,142.91,498.13z"/>
<path class="st117" d="M475.77,531.57h-73.51c0-20.3,16.46-36.76,36.76-36.76C459.32,494.82,475.77,511.27,475.77,531.57z"/>
<circle class="st12" cx="439.02" cy="532.23" r="26.54"/>
<circle class="st117" cx="439.02" cy="532.23" r="18.32"/>
<circle class="st12" cx="439.02" cy="532.23" r="8.62"/>
<path class="st12" d="M396.4,489.54l-195.83,3.14c-1.53,0.02-2.56,1.62-1.98,3.08l1.13,2.87c0.76,1.92,2.58,3.16,4.58,3.13
	l186.83-2.82c2.06-0.03,3.98-1.11,5.12-2.88l1.98-3.07C399.19,491.5,398.14,489.51,396.4,489.54z"/>
<path class="st12" d="M202.67,436.87l-4.11,12.47c-0.55,1.68,0.73,3.41,2.5,3.35c12.15-0.38,53.03-2.7,70.75-3.72
	c4.94-0.28,9.09-3.78,10.23-8.59l7.9-33.27c0.95-4-2.03-7.86-6.14-7.92c-13.4-0.21-42.26,2.74-73.77,27.21
	C206.59,429.06,204.04,432.73,202.67,436.87z"/>
<g>
	<path class="st30" d="M502.02,442c0.66,10.21,0.78,23.16-0.46,34.97c5.79-0.17,11.35-0.28,15.5-0.35v-27.08
		c0-2.34,0.09-2.4-0.15-4.68C511.86,443.47,504.87,442.23,502.02,442z"/>
	<path class="st12" d="M516.91,444.86c-1.4-18.59-10.08-34.2-22.11-44.92c1.88,6.55,5.87,21.18,7.22,42.06
		C504.87,442.23,511.41,443.4,516.91,444.86z"/>
</g>
<polygon class="st118" points="263.88,449.43 283.25,435.26 285.16,427.22 254.05,449.98 "/>
<polygon class="st118" points="242.63,450.62 287.44,417.62 289.8,407.72 229.57,451.33 "/>
<path class="st12" d="M185.4,437.28h7.56c0.26,0,0.47,0.21,0.47,0.47v14.22c0,0.26-0.21,0.47-0.47,0.47H181.3
	c-0.26,0-0.47-0.21-0.47-0.47v-10.12C180.83,439.33,182.88,437.28,185.4,437.28z"/>
<path class="st117" d="M164.39,531.57H90.88c0-20.3,16.46-36.76,36.76-36.76S164.39,511.27,164.39,531.57z"/>
<ellipse transform="matrix(0.0453 -0.999 0.999 0.0453 -409.823 635.6257)" class="st12" cx="127.64" cy="532.23" rx="26.54" ry="26.54"/>
<circle class="st117" cx="127.64" cy="532.23" r="18.32"/>
<circle class="st12" cx="127.64" cy="532.23" r="8.62"/>
<g>
	<path class="st33" d="M250.13,345.69c0.3,0,0.61,0.08,0.89,0.25c4.75,2.85,7.74,5.45,9.57,7.72c4.84,0.19,10.02,1.98,10.88,2.29
		c0.9,0.32,1.37,1.31,1.04,2.21c-0.32,0.9-1.31,1.36-2.21,1.04c-2.17-0.78-4.97-1.51-7.56-1.88c0.67,1.85,0.56,3.33,0.26,4.38
		c-0.73,2.56-3.22,4.4-5.94,4.4c-0.03,0-0.06,0-0.1,0c-2.43-0.04-4.3-1.5-4.88-3.81c-0.93-3.71,0.27-5.76,1.45-6.82
		c0.74-0.67,1.68-1.13,2.73-1.42c-1.64-1.57-3.94-3.31-7.02-5.16c-0.82-0.49-1.09-1.55-0.6-2.37
		C248.97,345.99,249.54,345.69,250.13,345.69z M257.06,362.65c1.04,0,2.26-0.64,2.62-1.89c0.26-0.92,0.04-2.16-0.87-3.65
		c-1.29,0.08-2.34,0.37-2.96,0.93c-0.26,0.23-1.04,0.94-0.41,3.42c0.2,0.78,0.73,1.18,1.58,1.19
		C257.03,362.65,257.05,362.65,257.06,362.65z"/>
</g>
<g>
	<circle class="st30" cx="371.04" cy="264.87" r="6.8"/>
</g>
<g>
	<circle class="st11" cx="501.57" cy="278.24" r="5.15"/>
</g>
<g>
	<path class="st9" d="M483.08,366.86c-4.62,0-8.38-3.76-8.38-8.38s3.76-8.38,8.38-8.38s8.38,3.76,8.38,8.38
		S487.7,366.86,483.08,366.86z M483.08,354.37c-2.26,0-4.11,1.84-4.11,4.11s1.84,4.11,4.11,4.11c2.26,0,4.11-1.84,4.11-4.11
		S485.35,354.37,483.08,354.37z"/>
</g>
<g>
	<path class="st11" d="M288.13,248.61c-6.2,0-11.25-5.05-11.25-11.25s5.05-11.25,11.25-11.25s11.25,5.05,11.25,11.25
		S294.33,248.61,288.13,248.61z M288.13,231.85c-3.04,0-5.51,2.47-5.51,5.51s2.47,5.51,5.51,5.51s5.51-2.47,5.51-5.51
		C293.64,234.32,291.17,231.85,288.13,231.85z"/>
</g>
<linearGradient id="SVGID_14_" gradientUnits="userSpaceOnUse" x1="310.7592" y1="-2732.8386" x2="561.7379" y2="-2564.0728" gradientTransform="matrix(1 0 0 -1 0 -2355.8335)">
	<stop  offset="0" style="stop-color:#FFE9BF"/>
	<stop  offset="1" style="stop-color:#ED6E4F"/>
</linearGradient>
<rect x="309.08" y="298.97" class="st27" width="110.32" height="84.14"/>
<g>
	<path class="st5" d="M392.2,369.41h-33.94c-0.73,0-1.32-0.59-1.32-1.32s0.59-1.32,1.32-1.32h33.94c0.73,0,1.32,0.59,1.32,1.32
		S392.93,369.41,392.2,369.41z"/>
</g>
<g>
	<path class="st5" d="M377.71,377.12h-19.45c-0.73,0-1.32-0.59-1.32-1.32s0.59-1.32,1.32-1.32h19.45c0.73,0,1.32,0.59,1.32,1.32
		S378.44,377.12,377.71,377.12z"/>
</g>
<rect x="315.53" y="306.16" class="st5" width="15.47" height="15.47"/>
<linearGradient id="SVGID_15_" gradientUnits="userSpaceOnUse" x1="396.3016" y1="-2755.5957" x2="515.4505" y2="-2574.1489" gradientTransform="matrix(1 0 0 -1 0 -2355.8335)">
	<stop  offset="0" style="stop-color:#FFE9BF"/>
	<stop  offset="1" style="stop-color:#ED6E4F"/>
</linearGradient>
<rect x="393.87" y="340.74" class="st28" width="54.54" height="42.38"/>
<g>
	<path class="st5" d="M434.45,375.56h-16.78c-0.36,0-0.65-0.29-0.65-0.65s0.29-0.65,0.65-0.65h16.78c0.36,0,0.65,0.29,0.65,0.65
		S434.81,375.56,434.45,375.56z"/>
</g>
<g>
	<path class="st5" d="M427.29,379.37h-9.62c-0.36,0-0.65-0.29-0.65-0.65s0.29-0.65,0.65-0.65h9.62c0.36,0,0.65,0.29,0.65,0.65
		S427.65,379.37,427.29,379.37z"/>
</g>
<rect x="396.64" y="345.4" class="st5" width="9.28" height="9.28"/>
<linearGradient id="SVGID_16_" gradientUnits="userSpaceOnUse" x1="268.5431" y1="-2770.6411" x2="451.0113" y2="-2586.1304" gradientTransform="matrix(1 0 0 -1 0 -2355.8335)">
	<stop  offset="0" style="stop-color:#FFE9BF"/>
	<stop  offset="1" style="stop-color:#ED6E4F"/>
</linearGradient>
<rect x="294.92" y="352.34" class="st29" width="40.35" height="30.78"/>
<g>
	<path class="st5" d="M324.68,378.1h-12.41c-0.27,0-0.48-0.22-0.48-0.48c0-0.27,0.22-0.48,0.48-0.48h12.41
		c0.27,0,0.48,0.22,0.48,0.48C325.17,377.89,324.95,378.1,324.68,378.1z"/>
</g>
<g>
	<path class="st5" d="M319.38,380.92h-7.11c-0.27,0-0.48-0.22-0.48-0.48s0.22-0.48,0.48-0.48h7.11c0.27,0,0.48,0.22,0.48,0.48
		S319.65,380.92,319.38,380.92z"/>
</g>
<rect x="296.64" y="354.97" class="st5" width="5.66" height="5.66"/>
<circle class="st30" cx="326.87" cy="358.94" r="4.52"/>
<path class="st9" d="M435.06,345.82L435.06,345.82c-0.07,0.01-0.15,0.02-0.24,0.02c-1.49,0.07-2.71,0.54-3.66,1.4
	c-1.02,0.95-1.68,2.44-1.68,4.22c0,2.19,1.16,4.01,3.52,4.13v0.01h2.06h2.2h0.23h2.13h3.11h2.2v-9.58v-0.2H435.06z"/>
<g>
	<path class="st41" d="M435.87,347.98c-0.21-0.01-0.44,0-0.74,0.03c-1.69,0.14-2.45,1-2.66,1.96h0.04c0.4-0.41,0.97-0.65,1.73-0.65
		c1.37,0,2.52,0.97,2.52,2.66c0,1.62-1.24,2.95-3.01,2.95c-2.17,0-3.24-1.62-3.24-3.56c0-1.53,0.56-2.81,1.44-3.63
		c0.82-0.74,1.87-1.14,3.15-1.2c0.35-0.03,0.58-0.03,0.77-0.01V347.98z M434.83,352.07c0-0.75-0.4-1.4-1.22-1.4
		c-0.51,0-0.94,0.31-1.13,0.73c-0.05,0.1-0.08,0.25-0.08,0.48c0.04,0.87,0.45,1.64,1.32,1.64
		C434.4,353.51,434.83,352.9,434.83,352.07z"/>
	<path class="st41" d="M437.2,354.92c0.18-0.28,0.31-0.5,0.43-0.85c0.34-0.97,0.54-1.96,1.18-2.57c0.19-0.19,0.44-0.33,0.7-0.44
		v-0.04c-0.94-0.18-1.78-0.83-1.78-2.06c0-0.79,0.35-1.39,0.88-1.79c0.65-0.5,1.68-0.66,2.76-0.66c0.93,0,1.82,0.08,2.43,0.18v8.24
		h-1.89v-3.22h-0.46c-0.38,0-0.68,0.11-0.9,0.33c-0.54,0.51-0.75,1.59-1,2.28c-0.09,0.25-0.15,0.35-0.3,0.61L437.2,354.92
		L437.2,354.92z M441.9,348c-0.14-0.03-0.39-0.08-0.78-0.08c-0.83,0-1.49,0.35-1.49,1.22c0,0.78,0.71,1.19,1.58,1.19
		c0.25,0,0.51-0.01,0.69-0.04V348z"/>
</g>
<path class="st41" d="M330.31,358.26c0,0,0.08-2.49-3.85-2.99C326.46,355.27,327.27,358.37,330.31,358.26z"/>
<path class="st41" d="M326.46,355.27l3.85,2.99c0,0-1.64,0.13-2.73-0.99S326.46,355.27,326.46,355.27z"/>
<path class="st33" d="M329.59,357.74c0,0,0.27-1.45-2.28-1.77C327.31,355.97,327.61,357.81,329.59,357.74z"/>
<path class="st41" d="M326.63,362.93L326.63,362.93c-0.82,0.07-1.53-0.54-1.6-1.36l-0.44-5.58l0,0c0.82-0.07,1.53,0.54,1.6,1.36
	L326.63,362.93z"/>
<g>
	<path class="st6" d="M386.87,321.2c-1.81-1.81-1.81-4.74,0-6.55s4.74-1.81,6.55,0l3.28,3.28l-3.28,3.28
		C391.61,323.01,388.67,323.01,386.87,321.2z M391.62,316.45c-0.82-0.82-2.15-0.82-2.96,0s-0.82,2.15,0,2.96s2.15,0.82,2.96,0
		l1.48-1.48L391.62,316.45z"/>
</g>
<g>
	<path class="st33" d="M394.46,307.06c1.81-1.81,4.74-1.81,6.55,0s1.81,4.74,0,6.55l-3.28,3.28l-3.28-3.28
		C392.65,311.81,392.65,308.87,394.46,307.06z M399.12,311.73c0.77-0.77,0.77-2.02,0-2.78c-0.77-0.77-2.02-0.77-2.78,0
		c-0.77,0.77-0.77,2.02,0,2.78l1.39,1.39L399.12,311.73z"/>
</g>
<g>
	<path class="st77" d="M408.84,314.9c1.81,1.81,1.81,4.74,0,6.55s-4.74,1.81-6.55,0l-3.28-3.28l3.28-3.28
		C404.1,313.09,407.04,313.09,408.84,314.9z M403.97,319.78c0.88,0.88,2.32,0.88,3.21,0c0.88-0.88,0.88-2.32,0-3.21
		c-0.88-0.88-2.32-0.88-3.21,0l-1.6,1.6L403.97,319.78z"/>
</g>
<g>
	<path class="st141" d="M401.25,329.04c-1.81,1.81-4.74,1.81-6.55,0s-1.81-4.74,0-6.55l3.28-3.28l3.28,3.28
		C403.06,324.3,403.06,327.23,401.25,329.04z M396.37,324.16c-0.88,0.88-0.88,2.32,0,3.21s2.32,0.88,3.21,0
		c0.88-0.88,0.88-2.32,0-3.21l-1.6-1.6L396.37,324.16z"/>
</g>
<circle class="st3" cx="744.05" cy="476.07" r="7.39"/>
<rect x="747.8" y="468.43" transform="matrix(0.9932 -0.116 0.116 0.9932 -49.6882 92.1062)" class="st3" width="37.32" height="9.01"/>
<rect x="809.43" y="466.19" transform="matrix(0.8839 -0.4677 0.4677 0.8839 -132.5864 437.1711)" class="st3" width="9.5" height="38.86"/>
<path class="st3" d="M781.62,474.68c0-8.7,5.29-14.95,14-14.95s15.76,7.06,15.76,15.76"/>
<path class="st11" d="M789.4,479.24h-7.71l-0.07-10.99c0,0,2.48-5.19,7.79-7.24C789.4,461.24,789.4,479.24,789.4,479.24z"/>
<path class="st11" d="M809.33,479.24h-7.54c0,0,0-18.23,0-18.32c4.71,1.66,7.54,5.4,7.54,5.4
	C809.33,467.32,809.33,479.24,809.33,479.24z"/>
<rect x="781.18" y="505.74" class="st3" width="12.88" height="17.64"/>
<rect x="796.79" y="507.31" class="st3" width="12.91" height="16.36"/>
<path class="st11" d="M804.96,472.95h-18.78c-2.22,0-4.11,1.26-4.48,2.98l-5.94,37.11c-0.47,2.19-0.39,4.18,2.43,4.18h34.86
	c2.82,0,2.88-2,2.4-4.19l-6.01-37.11C809.06,474.2,807.17,472.95,804.96,472.95z"/>
<polygon class="st5" points="794.03,524.54 781.2,524.51 783.45,557.07 794.03,557.07 "/>
<circle class="st3" cx="787.6" cy="523.57" r="6.42"/>
<polygon class="st3" points="809.7,524.8 796.79,524.8 796.83,558.28 806.87,558.28 "/>
<path class="st30" d="M813.94,556.94c-0.01-3.78-3.84-6.84-8.57-6.83c-4.72,0.01-8.54,3.08-8.53,6.86L813.94,556.94"/>
<polyline class="st142" points="813.94,558.5 796.84,558.53 796.83,556.98 813.93,556.95 "/>
<path class="st30" d="M795.03,556.95c-0.01-3.78-3.84-6.84-8.57-6.83c-4.72,0.01-8.54,3.08-8.53,6.86L795.03,556.95"/>
<polyline class="st142" points="795.03,558.51 777.93,558.54 777.93,556.98 795.03,556.95 "/>
<circle class="st3" cx="803.25" cy="523.68" r="6.46"/>
<path class="st11" d="M805.36,487.31c0,5.19-4.21,9.39-9.39,9.39c-5.19,0-9.39-4.21-9.39-9.39"/>
<path class="st114" d="M806.29,486.84c0,5.7-4.62,10.32-10.32,10.32s-10.32-4.62-10.32-10.32"/>
<circle class="st3" cx="826.03" cy="502.92" r="7.39"/>
<path class="st5" d="M795.08,466.28L795.08,466.28c2.48,0,4.49-2.01,4.49-4.49v-9.73c0-2.48-2.01-4.49-4.49-4.49l0,0
	c-2.48,0-4.49,2.01-4.49,4.49v9.73C790.58,464.27,792.6,466.28,795.08,466.28z"/>
<linearGradient id="SVGID_17_" gradientUnits="userSpaceOnUse" x1="-3455.3523" y1="-2607.0342" x2="-3428.9216" y2="-2607.0342" gradientTransform="matrix(-0.5204 -0.616 0.6369 -0.538 645.5392 -3105.5918)">
	<stop  offset="0" style="stop-color:#1D627E"/>
	<stop  offset="1" style="stop-color:#6495B4"/>
</linearGradient>
<path class="st31" d="M766.62,421.62L766.62,421.62c6.23,7.37,17.25,8.3,24.62,2.07l2.28-1.93l0,0c-6.23-7.37-17.25-8.3-24.62-2.07
	L766.62,421.62z"/>
<g>
	<path class="st3" d="M795.57,431.21c2.16,5.63,6.58,10.36,12.64,12.71c1.63,0.63,3.29,1.03,4.95,1.27l-2.96,5.49
		c-3.62,6.73-11.69,9.7-18.81,6.94c-7.04-2.73-11-10.22-9.29-17.58l1.98-8.5c0.11,0.04,0.2,0.1,0.31,0.14
		C788.16,433.14,792.19,432.85,795.57,431.21z"/>
	<path class="st3" d="M795.57,431.21c3.09-1.49,5.64-4.1,6.98-7.55c0.68-1.74,0.97-3.54,0.94-5.3c0.43,0.12,0.87,0.27,1.3,0.44
		l2.67,1.03c8.51,3.29,12.2,13.3,7.87,21.32l-2.17,4.03c-1.66-0.23-3.32-0.63-4.95-1.27C802.14,441.57,797.73,436.83,795.57,431.21z
		"/>
	<path class="st3" d="M794.58,418.54c-0.95,4.33-0.53,8.71,0.99,12.67c-3.38,1.64-7.4,1.94-11.18,0.47
		c-0.11-0.04-0.21-0.1-0.31-0.14l0.48-2.06C785.81,424.09,789.77,420.13,794.58,418.54z"/>
	
		<linearGradient id="SVGID_18_" gradientUnits="userSpaceOnUse" x1="-997.141" y1="-2705.8015" x2="-969.0621" y2="-2705.8015" gradientTransform="matrix(-0.9326 -0.361 0.361 -0.9326 847.2186 -2454.0813)">
		<stop  offset="0" style="stop-color:#1D627E"/>
		<stop  offset="1" style="stop-color:#6495B4"/>
	</linearGradient>
	<path class="st32" d="M794.58,418.54c-0.95,4.33-0.53,8.71,0.99,12.67c-3.38,1.64-7.4,1.94-11.18,0.47
		c-0.11-0.04-0.21-0.1-0.31-0.14l0.48-2.06C785.81,424.09,789.77,420.13,794.58,418.54z"/>
	<path class="st3" d="M795.57,431.21c-1.52-3.95-1.93-8.34-0.99-12.67c2.8-0.92,5.88-1.06,8.9-0.19c0.03,1.76-0.26,3.56-0.94,5.3
		C801.21,427.11,798.65,429.71,795.57,431.21z"/>
	
		<linearGradient id="SVGID_19_" gradientUnits="userSpaceOnUse" x1="-1031.8939" y1="-2701.8694" x2="-987.5795" y2="-2701.8694" gradientTransform="matrix(-0.9326 -0.361 0.361 -0.9326 847.2186 -2454.0813)">
		<stop  offset="0" style="stop-color:#1D627E"/>
		<stop  offset="1" style="stop-color:#6495B4"/>
	</linearGradient>
	<path class="st34" d="M795.57,431.21c-1.52-3.95-1.93-8.34-0.99-12.67c2.8-0.92,5.88-1.06,8.9-0.19c0.03,1.76-0.26,3.56-0.94,5.3
		C801.21,427.11,798.65,429.71,795.57,431.21z"/>
	
		<linearGradient id="SVGID_20_" gradientUnits="userSpaceOnUse" x1="-1011.7891" y1="-2714.0928" x2="-994.9081" y2="-2696.3967" gradientTransform="matrix(-0.9326 -0.361 0.361 -0.9326 847.2186 -2454.0813)">
		<stop  offset="0" style="stop-color:#1D627E"/>
		<stop  offset="1" style="stop-color:#6495B4"/>
	</linearGradient>
	<path class="st35" d="M803.49,418.35c0.43,0.12,0.87,0.27,1.3,0.44l2.67,1.03c8.51,3.29,12.2,13.3,7.87,21.32l-2.17,4.03
		c-1.66-0.23-3.32-0.63-4.95-1.27c-6.07-2.35-10.48-7.08-12.64-12.71c-1.52-3.95-1.93-8.34-0.99-12.67
		C797.38,417.62,800.46,417.48,803.49,418.35z"/>
</g>
<linearGradient id="SVGID_21_" gradientUnits="userSpaceOnUse" x1="-2929.418" y1="-2996.3708" x2="-2902.9873" y2="-2996.3708" gradientTransform="matrix(0.7759 -0.2196 -0.227 -0.8022 2411.8586 -2607.3533)">
	<stop  offset="0" style="stop-color:#1D627E"/>
	<stop  offset="1" style="stop-color:#6495B4"/>
</linearGradient>
<path class="st36" d="M835.11,445.73L835.11,445.73c-9.28,2.63-18.94-2.77-21.57-12.05l-0.81-2.87l0,0
	c9.28-2.63,18.94,2.77,21.57,12.05L835.11,445.73z"/>
<circle class="st3" cx="811.95" cy="447.69" r="4.67"/>
<circle class="st5" cx="810.02" cy="447.85" r="2.05"/>
<path class="st33" d="M814.8,433.14l2.11-2.71c0.59-0.76,0.46-1.85-0.3-2.45l0,0c-0.76-0.59-1.85-0.46-2.45,0.3l-2.11,2.71
	c-0.59,0.76-0.46,1.85,0.3,2.45l0,0C813.11,434.03,814.2,433.89,814.8,433.14z"/>
<path class="st95" d="M791.19,434.39c0.27,0.25,0.7,0.02,0.62-0.33c-0.29-1.32-1.14-2.92-3.6-2.03
	C784.82,433.25,789.15,432.48,791.19,434.39z"/>
<path class="st95" d="M797.81,436.57c-0.36-0.06-0.45-0.54-0.12-0.69c1.22-0.58,3.01-0.89,3.81,1.61
	C802.61,440.92,800.57,437.01,797.81,436.57z"/>
<path class="st148" d="M790.68,444.1c-0.86-0.31-0.97-1.48-0.16-1.84c0.57-0.25,1.24-0.29,1.89-0.06c0.62,0.22,1.1,0.65,1.39,1.18
	c0.45,0.82-0.36,1.71-1.26,1.39L790.68,444.1z"/>
<circle class="st149" cx="788.56" cy="437.13" r="1.35"/>
<circle class="st149" cx="797.56" cy="440.06" r="1.35"/>
<circle class="st0" cx="701.36" cy="400.34" r="9.38"/>
<rect x="666.93" y="349.66" transform="matrix(0.7949 -0.6067 0.6067 0.7949 -74.6449 487.8977)" class="st5" width="34.91" height="9.4"/>
<rect x="680.76" y="343.87" transform="matrix(0.8034 -0.5954 0.5954 0.8034 -71.5887 480.3152)" class="st39" width="21.69" height="9.4"/>
<circle class="st150" cx="669.61" cy="367.41" r="6.2"/>
<polygon class="st150" points="665.32,371.62 671.85,364.85 693.1,384.89 685.52,391.08 "/>
<rect x="730.19" y="336.68" transform="matrix(0.6116 -0.7912 0.7912 0.6116 5.2589 718.9821)" class="st3" width="9.4" height="34.91"/>
<rect x="723.81" y="339.81" transform="matrix(0.6116 -0.7912 0.7912 0.6116 6.688 712.018)" class="st30" width="9.4" height="18.77"/>
<g>
	<path class="st2" d="M676.66,372.51c0-3.2-2.6-5.8-5.8-5.8s-5.8,2.6-5.8,5.8H676.66z"/>
</g>
<g>
	<path class="st2" d="M663.48,372.51c0-3.2-2.6-5.8-5.8-5.8s-5.8,2.6-5.8,5.8H663.48z"/>
</g>
<circle class="st3" cx="749" cy="363.95" r="5.47"/>
<polygon class="st151" points="731.83,477.1 713.23,477.1 713.23,408.65 731.25,408.56 "/>
<rect x="689.44" y="408.65" class="st151" width="18.59" height="68.79"/>
<circle class="st151" cx="722.53" cy="477.08" r="9.3"/>
<polygon class="st3" points="722.53,553.5 713.07,553.5 713.23,477.1 731.83,477.1 "/>
<polygon class="st5" points="706.87,553.5 697.74,553.5 688.44,477.44 707.03,477.44 "/>
<circle class="st3" cx="697.74" cy="477.44" r="9.3"/>
<path class="st33" d="M690.48,557.22c0.01-4.28,4.35-7.74,9.69-7.73s9.66,3.48,9.65,7.76L690.48,557.22"/>
<polyline class="st6" points="690.48,558.45 709.82,558.49 709.82,556.73 690.48,556.69 "/>
<path class="st33" d="M709.83,557.22c0.01-4.28,4.35-7.74,9.69-7.73s9.66,3.48,9.65,7.76L709.83,557.22"/>
<polyline class="st6" points="709.82,558.45 729.16,558.49 729.17,556.73 709.83,556.69 "/>
<path class="st9" d="M678.11,348.32v-14.86c0-1.59-1.92-2.38-3.04-1.26l-5.73,5.73c-0.66,0.66-0.7,1.72-0.09,2.43l5.73,9.13
	C676.06,350.73,678.11,349.96,678.11,348.32z"/>
<path class="st9" d="M649.46,348.61v-14.86c0-1.59,1.92-2.38,3.04-1.26l5.73,5.73c0.66,0.66,0.7,1.72,0.09,2.43l-5.73,9.13
	C651.51,351.03,649.46,350.26,649.46,348.61z"/>
<g>
	<path class="st2" d="M662.49,380.98h19.33c7.66,0,13.87-6.21,13.87-13.87v-2c0-7.66-6.21-13.87-13.87-13.87h-19.33
		c-7.66,0-13.87,6.21-13.87,13.87v2C648.62,374.77,654.83,380.98,662.49,380.98z"/>
</g>
<path class="st13" d="M676.25,352.53v-14.86c0-1.59-1.92-2.38-3.04-1.26l-5.73,5.73c-0.66,0.66-0.7,1.72-0.09,2.43l5.73,9.13
	C674.2,354.94,676.25,354.18,676.25,352.53z"/>
<g>
	<path class="st2" d="M682.34,380.98c5.15,0,13.7-0.94,19.98-6.39c5.05-4.39,7.61-10.72,7.61-18.82c0-1.88-1.52-3.4-3.4-3.4
		s-3.4,1.52-3.4,3.4c0,6.03-1.77,10.63-5.25,13.67c-7.01,6.12-18.94,4.57-19.07,4.55c-1.86-0.25-3.57,1.04-3.83,2.9
		s1.03,3.57,2.89,3.83C678.07,380.75,679.79,380.98,682.34,380.98z"/>
</g>
<path class="st13" d="M651.29,352.65v-14.86c0-1.59,1.92-2.38,3.04-1.26l5.73,5.73c0.66,0.66,0.7,1.72,0.09,2.43l-5.73,9.13
	C653.33,355.06,651.29,354.3,651.29,352.65z"/>
<g>
	
		<linearGradient id="SVGID_22_" gradientUnits="userSpaceOnUse" x1="663.7645" y1="-2751.0991" x2="663.7645" y2="-2713.2422" gradientTransform="matrix(1 0 0 -1 0 -2355.8335)">
		<stop  offset="0" style="stop-color:#4195B7"/>
		<stop  offset="1" style="stop-color:#62A4C0"/>
	</linearGradient>
	<path class="st45" d="M667.73,336.47v3.16c0,0.86-0.7,1.56-1.56,1.56h-0.06c-0.86,0-1.56-0.7-1.56-1.56v-3.6
		c-0.1,0-0.2-0.02-0.3-0.02h-1c-0.15,0-0.3,0.02-0.46,0.02v3.59c0,0.86-0.7,1.56-1.56,1.56h-0.06c-0.86,0-1.56-0.7-1.56-1.56v-3.12
		c-5.89,1.6-10.22,6.97-10.22,13.37v17.35c0,7.66,6.21,13.87,13.87,13.87h1c7.66,0,13.87-6.21,13.87-13.87v-17.35
		C678.11,343.42,673.69,338.02,667.73,336.47z"/>
	<path class="st2" d="M661.15,341.18h0.06c0.86,0,1.56-0.7,1.56-1.56v-3.59c-1.1,0.04-2.17,0.2-3.19,0.48v3.12
		C659.59,340.48,660.29,341.18,661.15,341.18z"/>
	<path class="st2" d="M666.1,341.18h0.06c0.86,0,1.56-0.7,1.56-1.56v-3.16c-1.02-0.27-2.09-0.42-3.19-0.45v3.6
		C664.54,340.48,665.24,341.18,666.1,341.18z"/>
</g>
<path class="st9" d="M677.19,380.98c0-3.68-2.99-6.67-6.67-6.67s-6.67,2.99-6.67,6.67H677.19z"/>
<g>
	<path class="st38" d="M661.3,354.73c-0.53,0-1.03-0.12-1.51-0.34c-1.2-0.58-1.98-1.81-1.98-3.14c0-0.41,0.34-0.75,0.75-0.75
		s0.75,0.34,0.75,0.75c0,0.76,0.44,1.46,1.13,1.79c0.27,0.13,0.56,0.19,0.86,0.19c1.09,0,1.98-0.89,1.98-1.98
		c0-0.41,0.34-0.75,0.75-0.75s0.75,0.34,0.75,0.75C664.78,353.17,663.22,354.73,661.3,354.73z"/>
</g>
<g>
	<path class="st38" d="M666.66,354.47c-1.92,0-3.48-1.56-3.48-3.49c0-0.41,0.34-0.75,0.75-0.75s0.75,0.34,0.75,0.75
		c0,1.09,0.89,1.99,1.98,1.99c0.3,0,0.59-0.07,0.86-0.19c0.68-0.33,1.13-1.03,1.13-1.79c0-0.41,0.34-0.75,0.75-0.75
		s0.75,0.34,0.75,0.75c0,1.33-0.78,2.57-1.98,3.14C667.69,354.36,667.19,354.47,666.66,354.47z"/>
</g>
<path class="st12" d="M666.31,349.68l-1.48,1.48c-0.47,0.47-1.22,0.47-1.69,0l-1.48-1.48c-0.75-0.75-0.22-2.04,0.85-2.04h2.97
	C666.53,347.64,667.06,348.93,666.31,349.68z"/>
<g>
	<path class="st38" d="M657.97,346.41c-0.06,0-0.13-0.01-0.19-0.02c-0.4-0.11-0.64-0.52-0.54-0.92c0.21-0.81,0.73-1.48,1.45-1.9
		c0.72-0.42,1.56-0.54,2.37-0.32c0.4,0.11,0.64,0.52,0.54,0.92c-0.11,0.4-0.52,0.64-0.92,0.54c-0.87-0.23-1.75,0.29-1.98,1.16
		C658.6,346.18,658.3,346.41,657.97,346.41z"/>
</g>
<g>
	<path class="st38" d="M669.82,346.43c-0.34,0-0.64-0.23-0.73-0.57c-0.1-0.42-0.36-0.78-0.73-1s-0.81-0.29-1.23-0.19
		c-0.4,0.1-0.81-0.15-0.91-0.55s0.15-0.81,0.55-0.91c0.81-0.2,1.65-0.07,2.36,0.36c0.71,0.43,1.21,1.12,1.41,1.93
		c0.1,0.4-0.15,0.81-0.55,0.91C669.94,346.42,669.88,346.43,669.82,346.43z"/>
</g>
<circle class="st3" cx="766.49" cy="335.3" r="7.23"/>
<polygon class="st3" points="745.5,362.19 753.58,367.01 768.8,342.07 759.85,338.1 "/>
<linearGradient id="SVGID_23_" gradientUnits="userSpaceOnUse" x1="673.2845" y1="-2694.8203" x2="673.2845" y2="-2831.9775" gradientTransform="matrix(1 0 0 -1 0 -2355.8335)">
	<stop  offset="0" style="stop-color:#FFE9BF"/>
	<stop  offset="0.796" style="stop-color:#F18664"/>
	<stop  offset="1" style="stop-color:#ED6E4F"/>
</linearGradient>
<rect x="646.67" y="359.78" class="st47" width="53.22" height="32.94"/>
<g>
	<path class="st5" d="M667.89,385.45h-15.54c-0.33,0-0.6-0.27-0.6-0.6s0.27-0.6,0.6-0.6h15.54c0.33,0,0.6,0.27,0.6,0.6
		S668.22,385.45,667.89,385.45z"/>
</g>
<g>
	<path class="st5" d="M661.25,388.98h-8.91c-0.33,0-0.6-0.27-0.6-0.6c0-0.33,0.27-0.6,0.6-0.6h8.91c0.33,0,0.6,0.27,0.6,0.6
		S661.58,388.98,661.25,388.98z"/>
</g>
<rect x="651.77" y="367.82" class="st5" width="7.08" height="7.08"/>
<path class="st30" d="M744.77,462.98l-17.72-71.99c-0.97-2.75-2.91-4.93-5.34-6.24c2.28-0.94,3.93-2.81,4.22-5.05l2.48-21.44
	c0.51-1.72,0.79-3.54,0.79-5.42c0-0.39-0.02-0.77-0.04-1.16c0.1-0.93-0.03-1.83-0.34-2.65c-1.77-8.7-9.5-15.25-18.77-15.25
	c-9.76,0-17.81,7.27-18.99,16.67c-0.01,0.08-0.02,0.17-0.03,0.25c-0.08,0.7-0.12,1.42-0.12,2.14c0,2.08,0.34,4.09,0.96,5.97
	l2.5,20.99c0.33,2.29,2.09,4.16,4.47,5.06c-2.4,1.34-4.3,3.56-5.22,6.31l-16.79,71.99c-2.47,7.39,2.95,15.06,10.65,15.06h46.71
	C741.95,478.21,747.38,470.4,744.77,462.98z"/>
<linearGradient id="SVGID_24_" gradientUnits="userSpaceOnUse" x1="704.3245" y1="-2672.0435" x2="734.5645" y2="-2672.0435" gradientTransform="matrix(1 0 0 -1 0 -2355.8335)">
	<stop  offset="0" style="stop-color:#1D627E"/>
	<stop  offset="1" style="stop-color:#6495B4"/>
</linearGradient>
<circle class="st48" cx="719.44" cy="316.21" r="15.12"/>
<linearGradient id="SVGID_25_" gradientUnits="userSpaceOnUse" x1="719.1259" y1="-2679.6768" x2="684.0643" y2="-2666.5903" gradientTransform="matrix(1 0 0 -1 0 -2355.8335)">
	<stop  offset="0" style="stop-color:#1D627E"/>
	<stop  offset="1" style="stop-color:#6495B4"/>
</linearGradient>
<circle class="st49" cx="698.67" cy="316.21" r="15.12"/>
<polygon class="st11" points="725.51,388.05 694.93,388.05 694.93,381.54 725.45,381.7 "/>
<g>
	<path class="st151" d="M710.17,344.83c4.91,0,9.11-3.4,10.36-7.91c-3-1.95-6.69-3.16-10.59-3.14c-3.74,0.02-6.91,0.9-10.2,2.9
		C700.9,341.33,705.16,344.83,710.17,344.83z"/>
</g>
<circle class="st3" cx="671.6" cy="393.11" r="7.23"/>
<g>
	<path class="st3" d="M710.17,344.83c4.91,0,9.11-3.4,10.36-7.91c-2.99-1.96-6.69-3.14-10.59-3.14c-3.74,0-7,0.93-10.2,2.9
		C700.9,341.33,705.16,344.83,710.17,344.83z"/>
</g>
<path class="st5" d="M709.32,340.24h-0.34c-1.87,0-3.46-1.34-4.1-3.23c-0.19-0.57-0.3-1.19-0.3-1.85v-10.7c0-2.8,1.97-5.07,4.4-5.07
	h0.34c2.43,0,4.4,2.27,4.4,5.07v10.7C713.72,337.97,711.75,340.24,709.32,340.24z"/>
<path class="st11" d="M709.62,344.81c-8.17-0.57-9.88-8.13-9.88-8.13s-4.5,4.66-0.2,8.96S709.62,344.81,709.62,344.81z"/>
<path class="st11" d="M710.65,344.83c8.18-0.6,9.88-7.91,9.88-7.91s4.5,4.65,0.19,8.95C716.42,350.16,710.65,344.83,710.65,344.83z"
	/>
<circle class="st11" cx="710.13" cy="349.21" r="1.42"/>
<circle class="st11" cx="710.13" cy="356.86" r="1.42"/>
<path class="st156" d="M684.08,513.13c0.18,0.28,0.44,0.51,0.73,0.68C684.53,513.66,684.28,513.44,684.08,513.13z"/>
<polygon class="st5" points="646.67,359.78 638.54,374.9 646.67,374.9 "/>
<linearGradient id="SVGID_26_" gradientUnits="userSpaceOnUse" x1="739.4091" y1="-2634.968" x2="702.9279" y2="-2659.2271" gradientTransform="matrix(1 0 0 -1 0 -2355.8335)">
	<stop  offset="0" style="stop-color:#1D627E"/>
	<stop  offset="1" style="stop-color:#6495B4"/>
</linearGradient>
<circle class="st54" cx="719.26" cy="292.53" r="15.12"/>
<linearGradient id="SVGID_27_" gradientUnits="userSpaceOnUse" x1="763.4153" y1="-2674.9072" x2="716.7491" y2="-2664.9075" gradientTransform="matrix(1 0 0 -1 0 -2355.8335)">
	<stop  offset="0" style="stop-color:#1D627E"/>
	<stop  offset="1" style="stop-color:#6495B4"/>
</linearGradient>
<circle class="st56" cx="728.02" cy="311.49" r="15.12"/>
<linearGradient id="SVGID_28_" gradientUnits="userSpaceOnUse" x1="704.5054" y1="-2663.1306" x2="685.987" y2="-2670.0442" gradientTransform="matrix(1 0 0 -1 0 -2355.8335)">
	<stop  offset="0" style="stop-color:#1D627E"/>
	<stop  offset="1" style="stop-color:#6495B4"/>
</linearGradient>
<circle class="st57" cx="693.27" cy="311.49" r="15.12"/>
<linearGradient id="SVGID_29_" gradientUnits="userSpaceOnUse" x1="712.7104" y1="-2631.9907" x2="701.5994" y2="-2651.4348" gradientTransform="matrix(1 0 0 -1 0 -2355.8335)">
	<stop  offset="0" style="stop-color:#1D627E"/>
	<stop  offset="1" style="stop-color:#6495B4"/>
</linearGradient>
<circle class="st58" cx="701.15" cy="296.38" r="15.12"/>
<circle class="st3" cx="722.92" cy="311.13" r="3.48"/>
<circle class="st5" cx="722.47" cy="311.06" r="1.61"/>
<circle class="st3" cx="696.05" cy="311.54" r="3.48"/>
<circle class="st5" cx="695.79" cy="311.13" r="1.61"/>
<circle class="st33" cx="724.43" cy="316.21" r="3.43"/>
<circle class="st33" cx="693.58" cy="316.21" r="3.49"/>
<path class="st3" d="M723.26,317.88c0-0.04,0.01-0.08,0.01-0.12V306.2c0-0.44-0.05-0.87-0.14-1.28
	c-0.94-7.71-6.74-13.65-13.75-13.65c-7.67,0-13.89,7.09-13.89,15.84c0,1.35,0.15,2.65,0.43,3.9c-1.65,1.91-2.65,4.4-2.65,7.12l0,0
	c0,6.03,4.89,10.92,10.92,10.92h8.17c6.03,0,10.92-4.89,10.92-10.92l0,0C723.27,318.05,723.26,317.96,723.26,317.88z"/>
<linearGradient id="SVGID_30_" gradientUnits="userSpaceOnUse" x1="78.2384" y1="-2684.8118" x2="59.4731" y2="-2695.9229" gradientTransform="matrix(1.0577 -0.1985 -0.1927 -0.9917 129.0236 -2362.9631)">
	<stop  offset="0" style="stop-color:#1D627E"/>
	<stop  offset="1" style="stop-color:#6495B4"/>
</linearGradient>
<path class="st61" d="M716.76,305.4c-1.61-4.63-6.24-7.86-11.45-7.96c-3.44-0.07-6.51,1.11-8.83,3.02
	c0.09-6.3,5.32-11.79,12.35-12.25c6.42-0.42,12.25,3.82,13.42,9.75c0.93,4.72-1.15,9.28-4.89,12.03
	C717.48,308.5,717.3,306.94,716.76,305.4z"/>
<linearGradient id="SVGID_31_" gradientUnits="userSpaceOnUse" x1="718.3745" y1="-2658.5073" x2="718.3745" y2="-2674.3027" gradientTransform="matrix(1 0 0 -1 0 -2355.8335)">
	<stop  offset="0" style="stop-color:#EE7162"/>
	<stop  offset="1" style="stop-color:#FBCDA9"/>
</linearGradient>
<circle class="st62" cx="718.37" cy="316.83" r="3.2"/>
<linearGradient id="SVGID_32_" gradientUnits="userSpaceOnUse" x1="691.0345" y1="-2655.2141" x2="697.9789" y2="-2674.7278" gradientTransform="matrix(1 0 0 -1 0 -2355.8335)">
	<stop  offset="0" style="stop-color:#EE7162"/>
	<stop  offset="1" style="stop-color:#FBCDA9"/>
</linearGradient>
<circle class="st64" cx="697.4" cy="317.28" r="3.2"/>
<path class="st5" d="M706.74,319.01c1.45,0,2.08-1.83,0.95-2.73c-0.59-0.47-1.34-0.74-2.15-0.74s-1.56,0.28-2.15,0.75
	c-1.13,0.9-0.49,2.73,0.96,2.72H706.74z"/>
<path class="st37" d="M714.79,320.11c-0.27-0.16-0.73-0.06-0.89,0.2c-0.96,1.6-2.22,2.55-3.48,3.17c-0.4-0.64-1.1-0.92-2.06-0.92
	c-0.88,0-1.65,0.38-2.08,0.94c-0.43-0.56-1.2-0.94-2.08-0.94c-1.19,0-2.18,0.68-2.4,1.58c0,0.01-0.01,0.02-0.02,0.03
	c-0.04,0.09-0.04,0.19-0.02,0.28c0,0.02-0.01,0.05-0.01,0.07h0.03c0.05,0.17,0.16,0.31,0.33,0.37c0.04,0.02,1.94,0.71,4.39,0.71
	c2.75,0,6.19-0.88,8.43-4.61C715.09,320.74,715.06,320.27,714.79,320.11z"/>
<path class="st2" d="M658.39,359.78c0-3.18-2.57-5.75-5.75-5.75s-5.75,2.57-5.75,5.75H658.39z"/>
<path class="st38" d="M700.75,313.49L700.75,313.49c-0.86,0-1.56-0.7-1.55-1.56v-1.08c0-0.86,0.7-1.56,1.56-1.55l0,0
	c0.86,0,1.56,0.7,1.55,1.56v1.08C702.31,312.8,701.62,313.5,700.75,313.49z"/>
<g>
	<path class="st9" d="M702.41,307.36c-0.22,0.02-0.45-0.05-0.63-0.21c-1.03-0.96-2.65-0.9-3.61,0.13c-0.3,0.33-0.82,0.35-1.15,0.04
		s-0.35-0.82-0.04-1.15c1.57-1.68,4.21-1.78,5.9-0.21c0.33,0.31,0.35,0.82,0.04,1.15C702.79,307.26,702.6,307.34,702.41,307.36z"/>
</g>
<g>
	<path class="st9" d="M709.54,307.32c-0.2-0.02-0.39-0.11-0.53-0.26c-0.3-0.33-0.27-0.85,0.06-1.15c1.71-1.54,4.35-1.4,5.89,0.31
		c0.3,0.33,0.27,0.85-0.06,1.15s-0.85,0.27-1.15-0.06c-0.94-1.04-2.56-1.13-3.6-0.19C709.98,307.28,709.75,307.34,709.54,307.32z"/>
</g>
<path class="st38" d="M711.19,313.54L711.19,313.54c-0.86,0-1.56-0.7-1.55-1.56v-1.08c0-0.86,0.7-1.56,1.56-1.55l0,0
	c0.86,0,1.56,0.7,1.55,1.56v1.08C712.75,312.84,712.05,313.54,711.19,313.54z"/>
<path class="st41" d="M456.11,423.19c0-11.7,10.86-14.19,10.86-14.19c-10.9,0-10.8-12.67-10.8-12.67s-0.41,13.21-12.36,13.21
	C450.85,409.54,456.11,416.04,456.11,423.19z"/>
<path class="st41" d="M440.05,426.12c0-3.72,3.45-4.51,3.45-4.51c-3.46,0-3.43-4.02-3.43-4.02s-0.13,4.19-3.93,4.19
	C438.38,421.78,440.05,423.84,440.05,426.12z"/>
<path class="st41" d="M472.5,399.08c0-1.51,1.4-1.83,1.4-1.83c-1.41,0-1.4-1.64-1.4-1.64s-0.05,1.71-1.6,1.71
	C471.82,397.32,472.5,398.16,472.5,399.08z"/>
<path class="st44" d="M693.25,316.51c6.91,0.99,11.52,1.86,20.69,1.01c2.45-0.23,4.64-1.6,5.93-3.7c1.78-2.89,3.22-6.47,3.36-6.35
	c-2.57,5.56-3.41,8.52-3.64,10.07c-0.12,0.84,0.07,1.69,0.53,2.4c0.01,0.01,0.01,0.02,0.02,0.02c0.48,0.74,1.56,0.81,2.09,0.12
	s1-1.98,1-4.36c0,0,0.27,4.35-0.74,6.74l0,0c0,0.01-0.01,0.02-0.01,0.03c-0.02,0.04-0.03,0.07-0.05,0.11l-0.1,0.23l-0.01-0.01
	c-1.74,3.74-5.53,6.33-9.92,6.33h-8.19c-6.05,0-11.06-4.87-11.06-10.92v-0.03C693.15,317.53,693.25,316.51,693.25,316.51z"/>
<path class="st23" d="M717.99,319.82c0-0.03,0.01-0.06,0.01-0.09l0,0c0.02-0.62-0.52-1.11-1.14-1.04
	c-10.79,1.29-14.79,0.53-20.74-0.53c-0.59-0.11-1.16,0.33-1.19,0.93c0,0.06-0.01,0.12-0.01,0.18v0.03
	c-0.15,4.62,3.56,8.46,8.18,8.61l6.25,0.2c4.62,0.15,8.48-3.47,8.63-8.09l0,0C717.99,319.95,717.99,319.89,717.99,319.82z"/>
<path class="st44" d="M712.37,320.38c0.27-0.05,0.4,0.31,0.17,0.45c-1.8,1.05-5.29,2.79-7.9,2.31c-1.71-0.31-3.32-1.17-4.56-1.99
	c-0.41-0.27-0.12-0.91,0.36-0.78C704.83,321.56,709.97,320.84,712.37,320.38z"/>
<path class="st44" d="M700.48,323.76c3.93,1.59,7.9,0.93,9.99,0.36c0.35-0.09,0.57,0.36,0.28,0.58c-1.34,1.04-3.61,1.83-5.9,1.45
	c-2.01-0.33-3.66-0.9-4.72-1.84C699.86,324.06,700.14,323.62,700.48,323.76z"/>
<path class="st44" d="M803.79,452.94c0-0.01,0-0.01-0.01-0.02c-0.18-0.53-0.09-1.12,0.21-1.59l5.18-7.9
	c-4.57,6.18-7.9,5.72-8.61,5.53c-8.35-2.67-19.18-6.72-19.07-7.77c-0.95,7.13,3.31,14.15,10.26,16.57
	c4.77,1.66,9.88,0.79,13.82-1.86c0,0,2.76-1.71,4.56-4.79c0,0-1.99,2.16-3.87,2.95C805.27,454.48,804.14,453.96,803.79,452.94z"/>
<path class="st23" d="M785.29,445.26c3.09,1.82,8.84,4.69,14.87,5.06c1.06,0.06,1.59,1.3,0.9,2.12c-1.47,1.74-4.28,3.78-9.03,2.78
	c-5.75-1.21-7.86-5.53-8.63-8.51C783.1,445.59,784.29,444.67,785.29,445.26z"/>
<path class="st44" d="M794.3,450.53c-2.14-0.43-3.95-1.25-5.17-1.9c-0.37-0.2-0.74,0.25-0.47,0.57c0.75,0.89,1.77,1.85,2.81,2.05
	c0.77,0.15,1.81,0.12,2.8,0.03C794.7,451.24,794.72,450.62,794.3,450.53z"/>
<path class="st44" d="M794.48,452.66c-3.7-0.3-5.76-1.32-6.89-2.24c-0.36-0.3-0.88,0.12-0.65,0.53c0.53,0.94,1.48,1.92,3.2,2.39
	c1.73,0.48,3.26,0.4,4.41,0.17C795.04,453.41,794.98,452.7,794.48,452.66z"/>
<path class="st0" d="M649.17,348.58l-0.18,8.6c11.09,4.17,21.75,2.29,26.53,1c1.59-0.43,2.69-1.86,2.7-3.5l0.03-5.68
	c0.01-1.97-0.95-3.82-2.55-4.98c-10.81-7.8-19.81-3.46-23.96-0.46C650.2,344.69,649.2,346.67,649.17,348.58z M659.5,347.9
	c-1.5-0.01-2.71-1.23-2.7-2.73s1.23-2.71,2.73-2.7c1.5,0.01,2.71,1.23,2.7,2.73S661,347.91,659.5,347.9z M668.02,347.95
	c-1.5-0.01-2.71-1.23-2.7-2.73s1.23-2.71,2.73-2.7c1.5,0.01,2.71,1.23,2.7,2.73S669.52,347.95,668.02,347.95z"/>
<path class="st164" d="M671.74,349.88c-7.27,2.64-13.03,1.32-15.99,0.19c-0.39-0.15-0.67,0.37-0.34,0.62
	c1.81,1.37,4.86,3.05,8.63,2.8c3.81-0.26,6.52-1.82,8.04-3C672.41,350.25,672.13,349.74,671.74,349.88z"/>
<path class="st164" d="M670.55,353.99c-6.24,2.27-11.19,1.14-13.73,0.17c-0.33-0.13-0.58,0.32-0.29,0.53
	c1.56,1.18,4.17,2.62,7.41,2.4c3.27-0.22,5.6-1.56,6.91-2.58C671.12,354.31,670.88,353.87,670.55,353.99z"/>
<path class="st164" d="M678.12,349.93c0,0-6.31,2.1-3.64,2.47c3.37,0.46,3.72,0.46,3.72,0.46L678.12,349.93z"/>
<path class="st164" d="M649.13,351.12c0,0,6.28,2.17,3.62,2.51c-3.37,0.42-3.73,0.42-3.73,0.42L649.13,351.12z"/>
<path class="st2" d="M658.39,359.78c0-3.18-2.57-5.75-5.75-5.75s-5.75,2.57-5.75,5.75H658.39z"/>
<path class="st33" d="M61.28,365.01l8.36,3.27l1.21-3.09c0.85-2.18-0.22-4.64-2.4-5.49l-0.47-0.18c-2.18-0.85-4.64,0.22-5.49,2.4
	L61.28,365.01z"/>
<path class="st33" d="M51.87,400.71l0.16,0.06c0.75,0.29,1.6-0.08,1.89-0.83L72.31,353l-2.88-1.13l-18.39,46.94
	C50.75,399.57,51.12,400.41,51.87,400.71z"/>
<path class="st33" d="M67.26,355.53l4.43,1.74c1.08,0.42,2.31-0.11,2.73-1.19l0.09-0.23c0.42-1.08-0.11-2.31-1.19-2.73l-4.43-1.74
	c-1.08-0.42-2.31,0.11-2.73,1.19l-0.09,0.23C65.64,353.88,66.18,355.1,67.26,355.53z"/>
<path class="st33" d="M70.08,356.63l7.45,5.01c3.49,2.35,8.26,0.86,9.79-3.06l0,0l-15.61-6.12L70.08,356.63z"/>
<line class="st87" x1="110.64" y1="365.89" x2="124.01" y2="369.43"/>
<line class="st87" x1="88.45" y1="363.51" x2="109.36" y2="379.26"/>
<line class="st87" x1="85.43" y1="364.91" x2="103.85" y2="395.02"/>
<circle class="st44" cx="113.7" cy="382.53" r="0.86"/>
<circle class="st44" cx="106.72" cy="364.82" r="0.86"/>
<line class="st87" x1="90.81" y1="360.48" x2="103.05" y2="363.72"/>
<path class="st88" d="M37.16,397.66l12.11-22.86c2.25-4.24,6.75-6.58,11.32-6.23l1.3-3.32l6.91,2.71l-1.37,3.49
	c3.26,2.84,4.8,7.34,3.7,11.74l-6.27,25.14c-1.72,6.9-9.12,10.72-15.75,8.13l-5.84-2.29C36.72,411.6,33.86,403.89,37.16,397.66z"/>
<path class="st89" d="M43.28,414.17l5.84,2.29c6.63,2.59,14.02-1.22,15.75-8.13l2-8.01l-25.68-10.24l-4.02,7.59
	C33.86,403.89,36.72,411.6,43.28,414.17z"/>
</svg>
