<?xml version="1.0" encoding="utf-8"?>
<!-- Generator: Adobe Illustrator 23.1.0, SVG Export Plug-In . SVG Version: 6.00 Build 0)  -->
<svg version="1.1" id="Layer_1" xmlns="http://www.w3.org/2000/svg" xmlns:xlink="http://www.w3.org/1999/xlink" x="0px" y="0px"
	 viewBox="0 0 910 567" style="enable-background:new 0 0 910 567;" xml:space="preserve">
<style type="text/css">
	.st0{fill:#C4E5ED;}
	.st1{fill:url(#SVGID_1_);}
	.st2{fill:#4195B7;}
	.st3{fill:#FCD3B5;}
	.st4{fill:#008F7F;}
	.st5{fill:#F7B394;}
	.st6{fill:#37A539;}
	.st7{fill:#43AE5D;}
	.st8{fill:url(#SVGID_2_);}
	.st9{fill:#62A4C0;}
	.st10{fill:url(#SVGID_3_);}
	.st11{fill:#FAB95F;}
	.st12{fill:#1D627E;}
	.st13{fill:#C7E6EE;}
	.st14{fill:url(#SVGID_4_);}
	.st15{fill:url(#SVGID_5_);}
	.st16{fill:url(#SVGID_6_);}
	.st17{fill:url(#SVGID_7_);}
	.st18{fill:url(#SVGID_8_);}
	.st19{fill:url(#SVGID_9_);}
	.st20{fill:#F8C671;}
	.st21{fill:url(#SVGID_10_);}
	.st22{fill:#AFD7DD;}
	.st23{fill:#EFF7FB;}
	.st24{fill:url(#SVGID_11_);}
	.st25{fill:url(#SVGID_12_);}
	.st26{fill:url(#SVGID_13_);}
	.st27{fill:url(#SVGID_14_);}
	.st28{fill:url(#SVGID_15_);}
	.st29{fill:url(#SVGID_16_);}
	.st30{fill:#EC6743;}
	.st31{fill:url(#SVGID_17_);}
	.st32{fill:url(#SVGID_18_);}
	.st33{fill:#5BB24C;}
	.st34{fill:url(#SVGID_19_);}
	.st35{fill:url(#SVGID_20_);}
	.st36{fill:url(#SVGID_21_);}
	.st37{fill:#F18675;}
	.st38{fill:#046B89;}
	.st39{fill:#EA5539;}
	.st40{fill:#E62555;}
	.st41{fill:#FFFFFF;}
	.st42{fill:none;}
	.st43{enable-background:new    ;}
	.st44{fill:#D0EAF3;}
	.st45{fill:url(#SVGID_22_);}
	.st46{fill:#D6EDF4;}
	.st47{fill:url(#SVGID_23_);}
	.st48{fill:url(#SVGID_24_);}
	.st49{fill:url(#SVGID_25_);}
	.st50{fill:#FAB755;}
	.st51{fill:#EC6544;}
	.st52{fill:#83B0C7;}
	.st53{fill:#FAB854;}
	.st54{fill:url(#SVGID_26_);}
	.st55{fill:#4093B6;}
	.st56{fill:url(#SVGID_27_);}
	.st57{fill:url(#SVGID_28_);}
	.st58{fill:url(#SVGID_29_);}
	.st59{fill:#A8DAE3;}
	.st60{fill:#04617B;}
	.st61{fill:url(#SVGID_30_);}
	.st62{fill:url(#SVGID_31_);}
	.st63{fill:#FCD4B7;}
	.st64{fill:url(#SVGID_32_);}
	.st65{fill:url(#SVGID_33_);}
	.st66{fill:url(#SVGID_34_);}
	.st67{fill:url(#SVGID_35_);}
	.st68{fill:url(#SVGID_36_);}
	.st69{fill:#FFF5E9;}
	.st70{fill:url(#SVGID_37_);}
	.st71{fill:url(#SVGID_38_);}
	.st72{fill:url(#SVGID_39_);}
	.st73{fill:url(#SVGID_40_);}
	.st74{fill:url(#SVGID_41_);}
	.st75{fill:url(#SVGID_42_);}
	.st76{fill:url(#SVGID_43_);}
	.st77{fill:#1B5A6F;}
	.st78{fill:url(#SVGID_44_);}
	.st79{fill:url(#SVGID_45_);}
	.st80{fill:url(#SVGID_46_);}
	.st81{fill:#065E79;}
	.st82{fill:url(#SVGID_47_);}
	.st83{fill:url(#SVGID_48_);}
	.st84{fill:#FDCE6A;}
	.st85{opacity:0.11;fill:#FFFFFF;enable-background:new    ;}
	.st86{opacity:0.42;fill:#EFF7FB;enable-background:new    ;}
	.st87{fill:none;stroke:#D0EAF3;stroke-width:2;stroke-linecap:round;stroke-miterlimit:10;}
	.st88{opacity:0.7;fill:#D0EAF3;enable-background:new    ;}
	.st89{opacity:0.7;fill:#C4E5ED;enable-background:new    ;}
	.st90{opacity:0.73;fill:#EFF7FB;enable-background:new    ;}
	.st91{fill:#D9EEF4;}
	.st92{fill:#CDE9F0;}
	.st93{fill:url(#SVGID_49_);}
	.st94{fill:url(#SVGID_50_);}
	.st95{fill:#3B85A9;}
	.st96{fill:url(#SVGID_51_);}
	.st97{fill:url(#SVGID_52_);}
	.st98{fill:url(#SVGID_53_);}
	.st99{fill:#F18775;}
	.st100{fill:url(#SVGID_54_);}
	.st101{fill:url(#SVGID_55_);}
	.st102{fill:url(#SVGID_56_);}
	.st103{fill:#4FB26D;}
	.st104{fill:url(#SVGID_57_);}
	.st105{fill:url(#SVGID_58_);}
	.st106{fill:url(#SVGID_59_);}
	.st107{fill:url(#SVGID_60_);}
	.st108{fill:url(#SVGID_61_);}
	.st109{fill:url(#SVGID_62_);}
	.st110{fill:url(#SVGID_63_);}
	.st111{fill:#F49C7E;}
	.st112{fill:url(#SVGID_64_);}
	.st113{fill:url(#SVGID_65_);}
	.st114{fill:#FED377;}
	.st115{fill:url(#SVGID_66_);}
	.st116{fill:url(#SVGID_67_);}
	.st117{fill:#124657;}
	.st118{opacity:0.19;fill:#FFFFFF;enable-background:new    ;}
	.st119{fill:#F7F9F9;}
	.st120{fill:url(#SVGID_68_);}
	.st121{fill:url(#SVGID_69_);}
	.st122{fill:url(#SVGID_70_);}
	.st123{fill:url(#SVGID_71_);}
	.st124{fill:#D9EEF3;}
	.st125{fill:url(#SVGID_72_);}
	.st126{fill:url(#SVGID_73_);}
	.st127{fill:#FAFDFF;}
	.st128{fill:url(#SVGID_74_);}
	.st129{fill:url(#SVGID_75_);}
	.st130{fill:url(#SVGID_76_);}
	.st131{opacity:0.68;fill:url(#SVGID_77_);enable-background:new    ;}
	.st132{fill:url(#SVGID_78_);}
	.st133{opacity:0.68;fill:url(#SVGID_79_);enable-background:new    ;}
	.st134{fill:url(#SVGID_80_);}
	.st135{opacity:0.68;fill:url(#SVGID_81_);enable-background:new    ;}
	.st136{fill:url(#SVGID_82_);}
	.st137{fill:url(#SVGID_83_);}
	.st138{fill:url(#SVGID_84_);}
	.st139{fill:url(#SVGID_85_);}
	.st140{fill:url(#SVGID_86_);}
	.st141{fill:#03949D;}
	.st142{fill:#E84B33;}
	.st143{fill:url(#SVGID_87_);}
	.st144{fill:url(#SVGID_88_);}
	.st145{fill:url(#SVGID_89_);}
	.st146{fill:url(#SVGID_90_);}
	.st147{fill:url(#SVGID_91_);}
	.st148{fill:#F4A182;}
	.st149{fill:#0C5879;}
	.st150{fill:#FBCEAD;}
	.st151{fill:#FBCCA3;}
	.st152{fill:url(#SVGID_92_);}
	.st153{fill:url(#SVGID_93_);}
	.st154{fill:url(#SVGID_94_);}
	.st155{fill:url(#SVGID_95_);}
	.st156{fill:#03A86F;}
	.st157{fill:url(#SVGID_96_);}
	.st158{fill:url(#SVGID_97_);}
	.st159{fill:url(#SVGID_98_);}
	.st160{fill:url(#SVGID_99_);}
	.st161{fill:url(#SVGID_100_);}
	.st162{fill:url(#SVGID_101_);}
	.st163{fill:url(#SVGID_102_);}
	.st164{fill:#A5D2D9;}
	.st165{fill:url(#SVGID_103_);}
	.st166{fill:url(#SVGID_104_);}
	.st167{fill:url(#SVGID_105_);}
	.st168{fill:url(#SVGID_106_);}
	.st169{fill:url(#SVGID_107_);}
	.st170{fill:url(#SVGID_108_);}
	.st171{fill:url(#SVGID_109_);}
	.st172{fill:url(#SVGID_110_);}
	.st173{fill:url(#SVGID_111_);}
	.st174{fill:url(#SVGID_112_);}
	.st175{fill:url(#SVGID_113_);}
	.st176{fill:url(#SVGID_114_);}
	.st177{fill:url(#SVGID_115_);}
	.st178{fill:url(#SVGID_116_);}
	.st179{fill:url(#SVGID_117_);}
	.st180{fill:url(#SVGID_118_);}
	.st181{fill:#F6AD98;}
	.st182{fill:#7FBCD1;}
	.st183{fill:#F39886;}
	.st184{fill:url(#SVGID_119_);}
	.st185{fill:url(#SVGID_120_);}
	.st186{fill:url(#SVGID_121_);}
	.st187{fill:#07787F;}
	.st188{fill:url(#SVGID_122_);}
	.st189{fill:url(#SVGID_123_);}
	.st190{fill:url(#SVGID_124_);}
	.st191{fill:url(#SVGID_125_);}
	.st192{fill:url(#SVGID_126_);}
	.st193{fill:#F8AA3C;}
	.st194{fill:url(#SVGID_127_);}
	.st195{fill:url(#SVGID_128_);}
	.st196{fill:none;stroke:#5BB24C;stroke-width:3;stroke-linecap:round;stroke-miterlimit:10;}
	.st197{fill:none;stroke:#5BB24C;stroke-width:3;stroke-linecap:round;stroke-miterlimit:10;stroke-dasharray:11.9912,11.9912;}
	.st198{fill:none;stroke:#5BB24C;stroke-width:3;stroke-linecap:round;stroke-linejoin:round;stroke-miterlimit:10;}
	.st199{fill:url(#SVGID_129_);}
	.st200{fill:url(#SVGID_130_);}
	.st201{fill:url(#SVGID_131_);}
	.st202{fill:url(#SVGID_132_);}
	.st203{fill:url(#SVGID_133_);}
	.st204{fill:url(#SVGID_134_);}
	.st205{fill:url(#SVGID_135_);}
	.st206{fill:url(#SVGID_136_);}
	.st207{fill:url(#SVGID_137_);}
	.st208{fill:url(#SVGID_138_);}
	.st209{fill:url(#SVGID_139_);}
	.st210{opacity:0.4;}
	.st211{opacity:0.31;fill:#FAB95F;enable-background:new    ;}
	.st212{opacity:0.43;fill:#FAB95F;enable-background:new    ;}
	.st213{fill:url(#SVGID_140_);}
	.st214{fill:url(#SVGID_141_);}
	.st215{fill:url(#SVGID_142_);}
	.st216{fill:url(#SVGID_143_);}
	.st217{fill:url(#SVGID_144_);}
	.st218{fill:url(#SVGID_145_);}
	.st219{fill:url(#SVGID_146_);}
	.st220{fill:url(#SVGID_147_);}
	.st221{fill:url(#SVGID_148_);}
	.st222{fill:#FCDAC2;}
	.st223{fill:#EF7A5B;}
	.st224{fill:#77AFC6;}
	.st225{fill:#F1876F;}
	.st226{fill:#89B9CE;}
	.st227{fill:#FFD884;}
	.st228{fill:url(#SVGID_149_);}
	.st229{fill:url(#SVGID_150_);}
	.st230{fill:url(#SVGID_151_);}
	.st231{fill:url(#SVGID_152_);}
	.st232{fill:url(#SVGID_153_);}
	.st233{fill:url(#SVGID_154_);}
	.st234{fill:#FCD5B7;}
	.st235{fill:url(#SVGID_155_);}
	.st236{fill:url(#SVGID_156_);}
	.st237{fill:url(#SVGID_157_);}
	.st238{fill:url(#SVGID_158_);}
	.st239{fill:#F8BC9F;}
	.st240{fill:url(#SVGID_159_);}
	.st241{fill:url(#SVGID_160_);}
	.st242{fill:url(#SVGID_161_);}
	.st243{fill:url(#SVGID_162_);}
	.st244{fill:url(#SVGID_163_);}
	.st245{fill:url(#SVGID_164_);}
	.st246{fill:#F7B395;}
	.st247{fill:url(#SVGID_165_);}
	.st248{fill:url(#SVGID_166_);}
	.st249{fill:url(#SVGID_167_);}
	.st250{fill:url(#SVGID_168_);}
	.st251{fill:url(#SVGID_169_);}
	.st252{fill:url(#SVGID_170_);}
	.st253{fill:url(#SVGID_171_);}
	.st254{fill:url(#SVGID_172_);}
	.st255{fill:url(#SVGID_173_);}
	.st256{fill:url(#SVGID_174_);}
	.st257{fill:url(#SVGID_175_);}
	.st258{fill:url(#SVGID_176_);}
	.st259{fill:url(#SVGID_177_);}
	.st260{fill:url(#SVGID_178_);}
	.st261{fill:url(#SVGID_179_);}
	.st262{fill:url(#SVGID_180_);}
	.st263{fill:url(#SVGID_181_);}
	.st264{fill:url(#SVGID_182_);}
	.st265{fill:url(#SVGID_183_);}
	.st266{fill:url(#SVGID_184_);}
	.st267{fill:url(#SVGID_185_);}
	.st268{fill:url(#SVGID_186_);}
	.st269{fill:url(#SVGID_187_);}
	.st270{fill:url(#SVGID_188_);}
	.st271{fill:url(#SVGID_189_);}
	.st272{fill:url(#SVGID_190_);}
	.st273{fill:url(#SVGID_191_);}
	.st274{fill:url(#SVGID_192_);}
	.st275{fill:url(#SVGID_193_);}
	.st276{fill:url(#SVGID_194_);}
	.st277{fill:url(#SVGID_195_);}
	.st278{fill:url(#SVGID_196_);}
	.st279{fill:url(#SVGID_197_);}
	.st280{fill:#FCFEFF;}
	.st281{fill:#FCF4F2;}
	.st282{fill:url(#SVGID_198_);}
	.st283{fill:url(#SVGID_199_);}
	.st284{fill:url(#SVGID_200_);}
	.st285{fill:none;stroke:#43AE5D;stroke-width:2;stroke-linecap:round;stroke-miterlimit:10;}
	.st286{font-family:'ProximaNova-Bold';}
	.st287{font-size:21px;}
	.st288{fill:url(#SVGID_201_);}
	.st289{fill:url(#SVGID_202_);}
	.st290{fill:url(#SVGID_203_);}
	.st291{fill:url(#SVGID_204_);}
	.st292{fill:url(#SVGID_205_);}
	.st293{fill:url(#SVGID_206_);}
	.st294{fill:#CEE9EF;}
	.st295{fill:url(#SVGID_207_);}
	.st296{fill:url(#SVGID_208_);}
	.st297{fill:url(#SVGID_209_);}
	.st298{fill:url(#SVGID_210_);}
	.st299{fill:url(#SVGID_211_);}
	.st300{fill:none;stroke:#5BB24C;stroke-width:3;stroke-linecap:round;stroke-miterlimit:10;stroke-dasharray:11.9199,11.9199;}
	.st301{fill:url(#SVGID_212_);}
	.st302{fill:url(#SVGID_213_);}
	.st303{fill:#F7FCFD;}
	.st304{fill:url(#SVGID_214_);}
	.st305{fill:url(#SVGID_215_);}
	.st306{fill:url(#SVGID_216_);}
	.st307{fill:url(#SVGID_217_);}
	.st308{fill:url(#SVGID_218_);}
	.st309{fill:url(#SVGID_219_);}
	.st310{fill:url(#SVGID_220_);}
	.st311{fill:url(#SVGID_221_);}
	.st312{fill:url(#SVGID_222_);}
	.st313{fill:url(#SVGID_223_);}
	.st314{fill:url(#SVGID_224_);}
	.st315{fill:url(#SVGID_225_);}
	.st316{fill:url(#SVGID_226_);}
	.st317{fill:url(#SVGID_227_);}
	.st318{fill:url(#SVGID_228_);}
	.st319{fill:url(#SVGID_229_);}
	.st320{fill:url(#SVGID_230_);}
	.st321{fill:url(#SVGID_231_);}
	.st322{fill:url(#SVGID_232_);}
	.st323{fill:url(#SVGID_233_);}
	.st324{fill:url(#SVGID_234_);}
	.st325{fill:url(#SVGID_235_);}
	.st326{fill:url(#SVGID_236_);}
	.st327{fill:url(#SVGID_237_);}
	.st328{fill:url(#SVGID_238_);}
	.st329{fill:url(#SVGID_239_);}
	.st330{fill:url(#SVGID_240_);}
	.st331{fill:url(#SVGID_241_);}
	.st332{fill:url(#SVGID_242_);}
	.st333{fill:url(#SVGID_243_);}
	.st334{fill:url(#SVGID_244_);}
	.st335{fill:url(#SVGID_245_);}
	.st336{fill:url(#SVGID_246_);}
	.st337{fill:url(#SVGID_247_);}
	.st338{fill:url(#SVGID_248_);}
	.st339{fill:url(#SVGID_249_);}
	.st340{fill:url(#SVGID_250_);}
	.st341{fill:url(#SVGID_251_);}
	.st342{fill:url(#SVGID_252_);}
	.st343{fill:url(#SVGID_253_);}
	.st344{fill:url(#SVGID_254_);}
	.st345{fill:url(#SVGID_255_);}
	.st346{fill:url(#SVGID_256_);}
	.st347{fill:url(#SVGID_257_);}
	.st348{fill:url(#SVGID_258_);}
	.st349{fill:url(#SVGID_259_);}
	.st350{fill:url(#SVGID_260_);}
	.st351{fill:url(#SVGID_261_);}
	.st352{fill:url(#SVGID_262_);}
	.st353{fill:url(#SVGID_263_);}
</style>
<linearGradient id="SVGID_1_" gradientUnits="userSpaceOnUse" x1="424.1766" y1="1220.6327" x2="761.1978" y2="2118.3347" gradientTransform="matrix(1 0 0 -1 0 1740.6771)">
	<stop  offset="0" style="stop-color:#ECF6FB;stop-opacity:0.1"/>
	<stop  offset="0.0589" style="stop-color:#E7F4FA;stop-opacity:0.153"/>
	<stop  offset="0.3401" style="stop-color:#D9EEF4;stop-opacity:0.4061"/>
	<stop  offset="0.6423" style="stop-color:#D1EAF1;stop-opacity:0.6781"/>
	<stop  offset="1" style="stop-color:#CDE9F0"/>
</linearGradient>
<path class="st1" d="M910.96,382.5c0-28.14-13.46-53.13-34.28-68.85c10.57-21.65,16.51-45.99,16.51-71.73
	c0-90.21-72.91-163.35-162.85-163.35c-30.01,0-58.12,8.15-82.26,22.36c-23.3-47.9-72.43-80.92-129.28-80.92
	c-77.11,0-140.02,60.74-143.52,136.98c-94.45,18.36-177.51,68.72-237.52,139.39c-75.59,0.21-136.8,61.73-136.8,137.6
	c0,37.45,14.92,71.39,39.11,96.21c-1.06,12.17-1.61,24.48-1.61,36.93h64.87c11.12,2.92,22.79,4.48,34.82,4.48s23.7-1.56,34.82-4.48
	h698.51c0-36.31-4.62-71.53-13.3-105.12C889.18,449,910.96,418.3,910.96,382.5z"/>
<g>
	<path class="st44" d="M845.96,80.19L845.96,80.19c-2.29,0-4.16-1.86-4.16-4.16V36.84c0-2.29,1.86-4.16,4.16-4.16l0,0
		c2.29,0,4.16,1.86,4.16,4.16v39.19C850.12,78.32,848.26,80.19,845.96,80.19z"/>
</g>
<g>
	<path class="st44" d="M869.71,56.43L869.71,56.43c0,2.29-1.86,4.16-4.16,4.16h-39.19c-2.29,0-4.16-1.86-4.16-4.16l0,0
		c0-2.29,1.86-4.16,4.16-4.16h39.19C867.85,52.28,869.71,54.14,869.71,56.43z"/>
</g>
<path class="st46" d="M863.96,489.3H34.14c-2.18,0-3.94-1.77-3.94-3.94l0,0c0-2.18,1.77-3.94,3.94-3.94h829.82
	c2.18,0,3.94,1.77,3.94,3.94l0,0C867.9,487.54,866.14,489.3,863.96,489.3z"/>
<path class="st46" d="M172.31,546.66h-106c-0.74,0-1.33-0.6-1.33-1.33l0,0c0-0.74,0.6-1.33,1.33-1.33h106c0.74,0,1.33,0.6,1.33,1.33
	l0,0C173.64,546.07,173.04,546.66,172.31,546.66z"/>
<path class="st46" d="M222.16,557.55h-58.67c-0.74,0-1.33-0.6-1.33-1.33l0,0c0-0.74,0.6-1.33,1.33-1.33h58.67
	c0.74,0,1.33,0.6,1.33,1.33l0,0C223.49,556.95,222.9,557.55,222.16,557.55z"/>
<g>
	<path class="st44" d="M46.71,57.89L46.71,57.89c-1.83,0-3.31-1.48-3.31-3.31V23.32c0-1.83,1.48-3.31,3.31-3.31l0,0
		c1.83,0,3.31,1.48,3.31,3.31v31.26C50.02,56.41,48.54,57.89,46.71,57.89z"/>
</g>
<g>
	<path class="st44" d="M65.65,38.95L65.65,38.95c0,1.83-1.48,3.31-3.31,3.31H31.08c-1.83,0-3.31-1.48-3.31-3.31l0,0
		c0-1.83,1.48-3.31,3.31-3.31h31.26C64.17,35.64,65.65,37.12,65.65,38.95z"/>
</g>
<g>
	<path class="st91" d="M883.2,545.23c-8.78,0-15.93-7.14-15.93-15.93s7.14-15.93,15.93-15.93c8.78,0,15.93,7.14,15.93,15.93
		S891.99,545.23,883.2,545.23z M883.2,519.36c-5.48,0-9.94,4.46-9.94,9.94s4.46,9.94,9.94,9.94s9.94-4.46,9.94-9.94
		S888.69,519.36,883.2,519.36z"/>
</g>
<g>
	<rect x="430.83" y="-3.34" class="st91" width="4.96" height="59.75"/>
</g>
<g>
	<circle class="st280" cx="433.31" cy="107.93" r="17.97"/>
</g>
<g>
	<path class="st91" d="M484.61,102.73l-51.3-51.3l-51.3,51.3c-1.92,1.92-0.56,5.19,2.15,5.19h98.29
		C485.17,107.93,486.53,104.65,484.61,102.73z"/>
</g>
<g>
	<rect x="34.23" y="91.25" class="st91" width="72.89" height="83.64"/>
</g>
<g>
	<rect x="52.45" y="112.16" class="st23" width="36.44" height="41.82"/>
</g>
<g>
	<circle class="st46" cx="757.04" cy="222.44" r="43.78"/>
</g>
<g>
	<circle class="st23" cx="757.62" cy="222.44" r="32.35"/>
</g>
<g>
	<path class="st44" d="M772.13,212.9L772.13,212.9c1.07,1.07,1.07,2.8,0,3.87l-12.58,12.58c-1.07,1.07-2.8,1.07-3.87,0l0,0
		c-1.07-1.07-1.07-2.8,0-3.87l12.58-12.58C769.34,211.83,771.07,211.83,772.13,212.9z"/>
</g>
<g>
	<path class="st44" d="M737.14,207.1L737.14,207.1c1.02-1.02,2.68-1.02,3.71,0l18.62,18.62c1.02,1.02,1.02,2.68,0,3.71l0,0
		c-1.02,1.02-2.68,1.02-3.71,0l-18.62-18.62C736.12,209.78,736.12,208.12,737.14,207.1z"/>
</g>
<g>
	<path class="st0" d="M762.1,432.03c0,0-22.16,13.24-12.09,23.31C760.08,465.41,762.1,432.03,762.1,432.03z"/>
</g>
<g>
	<path class="st0" d="M746.46,419.86c0,0-17.49,28.53,0.13,34.04C764.22,459.42,746.46,419.86,746.46,419.86z"/>
</g>
<g>
	<path class="st0" d="M724.7,431.92c0,0,7.8,32.54,24.17,23.98S724.7,431.92,724.7,431.92z"/>
</g>
<g>
	<path class="st0" d="M319.71,229.67c52.13-62.74-28.12-129.43-80.26-66.69l0,0l0,0c-61.85-51.4-128.54,28.86-66.69,80.26"/>
	<path class="st0" d="M172.76,243.23l67.91,56.44c6.82,5.66,16.93,4.73,22.6-2.09l56.44-67.91"/>
</g>
<path class="st23" d="M196.21,308.43c0,0-10.07-80.58,4.04-73.1S233.05,297.11,196.21,308.43z"/>
<path class="st23" d="M210.5,308.37c0,0-73.42-34.71-70.71-18.98C142.49,305.12,188.26,339.84,210.5,308.37z"/>
<path class="st23" d="M193.93,337.92c0,0-88.33-104.35-56.46-125.19C162.53,196.33,245.49,287.24,193.93,337.92z"/>
<g>
	<g>
		<path class="st23" d="M187.06,371.38l21.52-2.53c-1.79-15.73-11.96-29.27-26.36-35.45l-8.31,19.3l-22.78,2.68l-12.55-16.83
			c-9.5,7.07-16.14,17.92-17.5,30.62c-0.36,3.38-0.32,6.72,0.07,9.96l20.77-2.44l13.71,18.39l-8.27,19.19
			c3.97,1.72,8.27,2.88,12.8,3.36c11.28,1.21,22.03-1.96,30.54-8.14l-12.71-17.05L187.06,371.38z"/>
	</g>
	<g>
		<path class="st0" d="M173.91,352.7l8.31-19.3c-3.94-1.69-8.19-2.83-12.68-3.31c-11.47-1.23-22.38,2.07-30.96,8.45l12.55,16.83
			L173.91,352.7z"/>
	</g>
	<g>
		<path class="st9" d="M208.62,378.56c0.35-3.3,0.32-6.54-0.04-9.71l-21.52,2.53l-9.07,21.07l12.71,17.05
			C200.42,402.44,207.24,391.45,208.62,378.56z"/>
	</g>
	<g>
		<path class="st0" d="M141.91,376.69l-20.77,2.44c1.86,15.57,11.95,28.98,26.21,35.15l8.27-19.19L141.91,376.69z"/>
	</g>
</g>
<g>
	<path class="st0" d="M154.64,397.58l-15.44-20.71l10.21-23.72l25.65-3.01l15.44,20.71l-10.21,23.72L154.64,397.58z M144.93,376.2
		l11.98,16.08l19.92-2.34l7.93-18.42l-11.98-16.08l-19.92,2.34L144.93,376.2z"/>
</g>
<path class="st0" d="M220.59,356.48L220.59,356.48c-13.63,7.87-31.06,3.2-38.93-10.43l-15.93-27.59l49.36-28.5l15.93,27.59
	C238.89,331.18,234.22,348.61,220.59,356.48z"/>
<path class="st46" d="M201.75,469.66c-37.6-35.27-40.26-93.51-5.94-130.1s92.61-37.65,130.21-2.38"/>
<g>
	<circle class="st46" cx="323.04" cy="262.67" r="26.37"/>
</g>
<g>
	<circle class="st0" cx="323.04" cy="261.26" r="11.7"/>
</g>
<g>
	<circle class="st46" cx="224.28" cy="262.67" r="26.37"/>
</g>
<g>
	<circle class="st0" cx="226.02" cy="264.18" r="13.65"/>
</g>
<g>
	<ellipse class="st46" cx="280.5" cy="296.59" rx="68.91" ry="49.51"/>
</g>
<g>
	<ellipse class="st23" cx="295.43" cy="295.7" rx="36.74" ry="26.52"/>
</g>
<g>
	<ellipse class="st0" cx="296.68" cy="289.04" rx="22.28" ry="16.08"/>
</g>
<g>
	<polygon class="st5" points="395.25,298.4 455.85,297 456.51,325.25 408.72,326.36 	"/>
</g>
<g>
	<circle class="st5" cx="395.63" cy="317.64" r="19.18"/>
</g>
<g>
	<polygon class="st2" points="338.94,377.86 228.34,488.32 149.3,426.77 328.68,348.32 	"/>
</g>
<g>
	<path class="st9" d="M327.11,349.97l-178.26,76.99c-2.98,1.29-6.43-0.09-7.72-3.06l-1.39-3.23c-1.29-2.98,0.09-6.43,3.06-7.72
		l178.26-76.99c2.98-1.29,6.43,0.09,7.72,3.06l1.39,3.23C331.46,345.23,330.09,348.69,327.11,349.97z"/>
</g>
<g>
	<circle class="st9" cx="191.41" cy="507.3" r="47.56"/>
</g>
<g>
	<circle class="st2" cx="191.41" cy="507.3" r="28.58"/>
</g>
<g>
	<circle class="st9" cx="191.41" cy="507.3" r="13.68"/>
</g>
<g>
	<g>
		<path class="st2" d="M342.47,368.43c-3.45,2.77-6.86,5.59-10.38,8.26c-1.79,1.36-3.6,2.68-5.43,4l39.33,48.35
			c8.51,10.46,8.31,25.4-0.45,34.76c-8.67,9.26-23,10.58-34.06,3.13l-59.58-40.08c-4.76,4.85-9.54,9.69-14.45,14.38l62.86,42.29
			c13.83,9.3,30.7,10.61,44.82,4.51c5.54-2.39,10.66-5.93,15.01-10.57c15.56-16.62,16.15-42.87,1.36-61.05L342.47,368.43z"/>
	</g>
</g>
<g>
	
		<rect x="309.41" y="352.77" transform="matrix(0.6908 -0.7231 0.7231 0.6908 -156.1575 358.6116)" class="st2" width="63.56" height="18.22"/>
</g>
<g>
	
		<rect x="358.77" y="326.6" transform="matrix(0.918 -0.3965 0.3965 0.918 -102.3355 175.0297)" class="st2" width="26.79" height="16.85"/>
</g>
<g>
	<path class="st9" d="M371.94,322.16l40-15.87c5.93-2.35,12.65,0.55,15,6.48l0,0c2.35,5.93-0.55,12.65-6.48,15l-40,15.87
		c-1.33,0.53-2.84-0.12-3.37-1.45l-6.61-16.66C369.96,324.2,370.61,322.69,371.94,322.16z"/>
</g>
<g>
	<path class="st0" d="M184.03,439.77l20.19-90.19c2.47-11.05,13.05-18.33,24.26-16.68l0,0c11.18,1.64,19.21,11.61,18.44,22.89
		l-6.33,92.22C234.7,488.37,178.15,480.12,184.03,439.77z"/>
</g>
<g>
	<path class="st30" d="M354.11,165.43c-5.6,0-10.15-4.55-10.15-10.15s4.55-10.15,10.15-10.15s10.15,4.55,10.15,10.15
		S359.71,165.43,354.11,165.43z M354.11,150.13c-2.84,0-5.15,2.31-5.15,5.15s2.31,5.15,5.15,5.15s5.15-2.31,5.15-5.15
		S356.95,150.13,354.11,150.13z"/>
</g>
<g>
	<circle class="st53" cx="263.9" cy="71.02" r="6.62"/>
</g>
<g>
	<path class="st0" d="M695.26,416.73c0,0,15.72-49.66,30.89-33.72S695.26,416.73,695.26,416.73z"/>
</g>
<g>
	<path class="st0" d="M706.95,416.24c0,0-49.66-15.72-33.72-30.89C689.18,370.17,706.95,416.24,706.95,416.24z"/>
</g>
<g>
	<path class="st0" d="M696.9,416.24c0,0-32.07-79.45,3.87-75.11C736.71,345.46,696.9,416.24,696.9,416.24z"/>
</g>
<g>
	<path class="st46" d="M679.24,404.41h39.83v67.2c0,9.48-7.68,17.16-17.16,17.16h-5.5c-9.48,0-17.16-7.68-17.16-17.16v-67.2H679.24z
		"/>
</g>
<g>
	<path class="st46" d="M731.84,448.46h28.1v28.2c0,6.69-5.42,12.11-12.11,12.11h-3.88c-6.69,0-12.11-5.42-12.11-12.11V448.46z"/>
</g>
<g>
	<rect x="539.33" y="216.55" class="st46" width="5.41" height="26.16"/>
</g>
<g>
	<path class="st46" d="M504.94,202.55l0.18-0.02c3.36-0.35,5.8-3.35,5.45-6.71l-4.97-48.09c-0.35-3.36-3.35-5.8-6.71-5.45
		l-0.18,0.02c-3.36,0.35-5.8,3.35-5.45,6.71l4.97,48.09C498.58,200.46,501.58,202.9,504.94,202.55z"/>
</g>
<g>
	
		<ellipse transform="matrix(0.9997 -0.0231 0.0231 0.9997 -7.0507 10.6136)" class="st5" cx="455.86" cy="310.48" rx="14.35" ry="14.77"/>
</g>
<g>
	<polygon class="st5" points="427.77,318.77 434.45,281.4 465.69,287.94 459.01,325.32 	"/>
</g>
<g>
	<path class="st6" d="M432.19,292.36l12.94-65.86c0,0,20.61-6.88,27.79,22.81c0.65,1.92-9.29,49.23-9.29,49.23L432.19,292.36z"/>
</g>
<g>
	<circle class="st6" cx="462.35" cy="235.55" r="22.17"/>
</g>
<g>
	<path class="st33" d="M470.12,342.41h75.76l24.66-103.75c2.13-12.41-7.43-23.75-20.02-23.75h-84.83
		c-12.85,0-22.47,11.78-19.91,24.37L470.12,342.41z"/>
</g>
<g>
	<circle class="st53" cx="508.7" cy="245.04" r="2.07"/>
</g>
<g>
	<circle class="st53" cx="508.54" cy="256.75" r="2.2"/>
</g>
<g>
	<path class="st9" d="M473.69,456.2h26.11c1.81,0,3.28-1.47,3.28-3.28V352.77c0-1.81-1.47-3.28-3.28-3.28h-26.11
		c-1.81,0-3.28,1.47-3.28,3.28v100.15C470.41,454.73,471.88,456.2,473.69,456.2z"/>
</g>
<g>
	<path class="st9" d="M475.73,381.48h64.98c3.01,0,5.44-2.44,5.44-5.44v-36.81c0-3.01-2.44-5.44-5.44-5.44h-64.98
		c-3.01,0-5.44,2.44-5.44,5.44v36.81C470.29,379.04,472.73,381.48,475.73,381.48z"/>
</g>
<g>
	<rect x="470.29" y="269.73" class="st9" width="75.87" height="72.68"/>
</g>
<g>
	<rect x="470.29" y="342.41" class="st38" width="75.87" height="7.07"/>
</g>
<g>
	<rect x="500.18" y="342.41" class="st13" width="16.05" height="7.07"/>
</g>
<g>
	<rect x="484.63" y="342.4" class="st9" width="3.81" height="8.25"/>
</g>
<g>
	<rect x="529.07" y="342.41" class="st9" width="3.81" height="8.67"/>
</g>
<g>
	<path class="st9" d="M516.66,456.2h26.11c1.81,0,3.28-1.47,3.28-3.28V352.77c0-1.81-1.47-3.28-3.28-3.28h-26.11
		c-1.81,0-3.28,1.47-3.28,3.28v100.15C513.37,454.73,514.84,456.2,516.66,456.2z"/>
</g>
<g>
	<path class="st2" d="M473.69,554.88h29.4V450.86c0-1.81-1.47-3.28-3.28-3.28H473.7c-1.81,0-3.28,1.47-3.28,3.28v100.73
		C470.41,553.41,471.88,554.88,473.69,554.88z"/>
</g>
<g>
	<path class="st6" d="M486.15,246.66h13.54c1.08,0,1.96-0.88,1.96-1.96l0,0c0-1.08-0.88-1.96-1.96-1.96h-13.54
		c-1.08,0-1.96,0.88-1.96,1.96l0,0C484.19,245.79,485.07,246.66,486.15,246.66z"/>
</g>
<g>
	<path class="st2" d="M486.75,353.14h-16.51c0,12.48,0,22.59,0,22.59C479.36,375.73,486.75,365.62,486.75,353.14z"/>
</g>
<g>
	<rect x="513.37" y="447.58" class="st9" width="32.68" height="107.26"/>
</g>
<g>
	<circle class="st9" cx="529.71" cy="450.67" r="16.34"/>
</g>
<g>
	<circle class="st9" cx="486.55" cy="450.24" r="16.34"/>
</g>
<g>
	<path class="st38" d="M499.14,551.37c-0.02-8.59-7.86-15.54-17.51-15.52s-17.46,7-17.45,15.59L499.14,551.37"/>
</g>
<g>
	<polyline class="st2" points="499.16,554.86 464.2,554.93 464.19,551.4 499.15,551.33 	"/>
</g>
<g>
	<path class="st38" d="M541.82,551.02c-0.02-9.05-8.28-16.38-18.45-16.36s-18.4,7.38-18.38,16.43L541.82,551.02"/>
</g>
<g>
	<path class="st2" d="M529.54,353.14h16.51c0,12.48,0,22.59,0,22.59C536.93,375.73,529.54,365.62,529.54,353.14z"/>
</g>
<g>
	<polyline class="st2" points="541.83,554.82 504.99,554.89 504.99,551.17 541.82,551.1 	"/>
</g>
<g>
	<rect x="535.73" y="214.91" class="st9" width="10.44" height="54.82"/>
</g>
<g>
	<path class="st2" d="M487.14,289.04c0,12.05,9.77,21.81,21.81,21.81c12.05,0,21.81-9.77,21.81-21.81"/>
</g>
<g>
	<rect x="470.29" y="214.91" class="st9" width="10.44" height="54.82"/>
</g>
<g>
	
		<ellipse transform="matrix(0.155 -0.9879 0.9879 0.155 104.2556 741.2177)" class="st234" cx="485.42" cy="309.66" rx="17.07" ry="16.58"/>
</g>
<g>
	<polygon class="st234" points="477.43,295.91 509.81,265.43 531.01,289.31 498.63,319.79 	"/>
</g>
<g>
	<path class="st33" d="M501.49,272.91l52.68-48.16c0,0,21.16,6.26,8,35.59c-0.7,2.01-39.07,36.22-39.07,36.22L501.49,272.91z"/>
</g>
<g>
	<polygon class="st234" points="415.44,295.63 485.47,294.01 486.23,326.66 431.01,327.94 	"/>
</g>
<g>
	<circle class="st234" cx="415.88" cy="317.87" r="22.17"/>
</g>
<g>
	<circle class="st33" cx="559.34" cy="232.21" r="21.5"/>
</g>
<g>
	<path class="st7" d="M179.36,116.35L179.36,116.35c0,0.88-0.71,1.59-1.59,1.59h-10.03c-0.88,0-1.59-0.71-1.59-1.59l0,0
		c0-0.88,0.71-1.59,1.59-1.59h10.03C178.65,114.76,179.36,115.47,179.36,116.35z"/>
</g>
<g>
	<path class="st7" d="M172.76,109.74L172.76,109.74c0.88,0,1.59,0.52,1.59,1.16v10.9c0,0.64-0.71,1.16-1.59,1.16l0,0
		c-0.88,0-1.59-0.52-1.59-1.16v-10.9C171.17,110.26,171.88,109.74,172.76,109.74z"/>
</g>
<g>
	<path class="st2" d="M95.69,255.78L95.69,255.78c0,1.41-1.15,2.56-2.56,2.56H76.96c-1.41,0-2.56-1.15-2.56-2.56l0,0
		c0-1.41,1.15-2.56,2.56-2.56h16.18C94.55,253.22,95.69,254.36,95.69,255.78z"/>
</g>
<g>
	<circle class="st0" cx="309.21" cy="267.5" r="3.32"/>
</g>
<g>
	<circle class="st0" cx="272.06" cy="271.13" r="3.32"/>
</g>
<g>
	<path class="st2" d="M85.04,245.13L85.04,245.13c1.41,0,2.56,1.15,2.56,2.56v16.18c0,1.41-1.15,2.56-2.56,2.56l0,0
		c-1.41,0-2.56-1.15-2.56-2.56v-16.18C82.49,246.27,83.63,245.13,85.04,245.13z"/>
</g>
<path class="st5" d="M509.73,230.35L509.73,230.35c6.85-0.24,12.2-5.99,11.96-12.84l-0.84-23.52c-0.24-6.85-5.99-12.2-12.84-11.96
	l0,0c-6.85,0.24-12.2,5.99-11.96,12.84l0.84,23.52C497.14,225.24,502.89,230.59,509.73,230.35z"/>
<path class="st6" d="M521.62,211.47l-12,18.88l4.53,7.3c1.09,1.76,3.7,1.64,4.62-0.21l11.63-22.66L521.62,211.47z"/>
<path class="st6" d="M496.7,212.14l12.93,18.25l-4.15,7.52c-1,1.82-3.61,1.83-4.63,0.02l-12.89-23.05L496.7,212.14z"/>
<path class="st46" d="M505.47,198.18L505.47,198.18c3.36,0.09,6.15-2.56,6.25-5.91l1.28-47.19c0.09-3.36-2.56-6.15-5.91-6.25l0,0
	c-3.36-0.09-6.15,2.56-6.25,5.91l-1.28,47.19C499.47,195.29,502.12,198.09,505.47,198.18z"/>
<path class="st5" d="M509.33,218.88L509.33,218.88c-6.69,0.24-12.3-4.99-12.54-11.67l-0.45-12.64c-0.24-6.69,4.99-12.3,11.67-12.54
	l0,0c6.69-0.24,12.3,4.99,12.54,11.67l0.45,12.64C521.24,213.03,516.01,218.64,509.33,218.88z"/>
<path class="st234" d="M508.97,204.09L508.97,204.09c12.23,1.6,23.45-7.01,25.05-19.25l3.49-26.65c1.6-12.23-7.01-23.45-19.25-25.05
	l0,0c-12.23-1.6-23.45,7.01-25.05,19.25l-3.49,26.65C488.12,191.27,496.74,202.48,508.97,204.09z"/>
<path class="st55" d="M521.79,164.16c0.82,0.28,1.49-0.6,0.92-1.19c-2.76-2.81-7.19-6.48-8.54-2.64
	C512.4,165.37,514.48,161.7,521.79,164.16z"/>
<path class="st55" d="M495.55,159.25c-0.86-0.06-1.15-1.13-0.39-1.45c3.63-1.53,9.13-3.21,8.9,0.85
	C503.75,163.99,503.24,159.79,495.55,159.25z"/>
<path class="st234" d="M490.46,203.19l29.19,3.83c6.21,0.81,11.9-3.56,12.71-9.76l1.27-9.66c0.81-6.21-3.56-11.9-9.76-12.71
	l-29.19-3.83c-6.21-0.81-11.9,3.56-12.71,9.76l-1.27,9.66C479.88,196.69,484.25,202.38,490.46,203.19z"/>
<path class="st5" d="M506.46,166.68c-0.82,0.36-1.36,1.17-1.53,2.05c-0.35,1.81-2.17,4.85-4.26,7.59c-3.16,4.13,0.25,7.71,3.06,8.08
	C512.18,185.51,511.45,164.47,506.46,166.68z"/>
<path class="st281" d="M517.96,183.22c4.63,0.61,4.86,4.9,4.47,7.87c-0.81,6.18-7.98,10.13-14.92,9.22
	c-16.03-2.1-17.3-7.35-13.9-9.97c2.82-2.17,5.87,0.71,10.5,1.31C512.55,192.77,510.61,182.26,517.96,183.22z"/>
<linearGradient id="SVGID_2_" gradientUnits="userSpaceOnUse" x1="-3776.2329" y1="1346.1598" x2="-3750.2263" y2="1320.1532" gradientTransform="matrix(-0.9928 0.1198 -0.1198 -0.9928 -3059.9146 1965.6042)">
	<stop  offset="0.0848" style="stop-color:#FCD4B7"/>
	<stop  offset="1" style="stop-color:#F7B395"/>
	<stop  offset="1" style="stop-color:#020203"/>
</linearGradient>
<circle class="st8" cx="523.59" cy="182.19" r="5.77"/>
<linearGradient id="SVGID_3_" gradientUnits="userSpaceOnUse" x1="-3741.1663" y1="1509.1564" x2="-3717.1799" y2="1509.1564" gradientTransform="matrix(-0.9994 0.0356 -0.0356 -0.9994 -3147.3145 1798.1891)">
	<stop  offset="0" style="stop-color:#1D627E"/>
	<stop  offset="1" style="stop-color:#6495B4"/>
</linearGradient>
<path class="st10" d="M513.27,141.02c8.92,8.31,15.72,7.34,19.28,5.75c1.72-0.77,4.36,0.15,4.73,2c1.37,6.82-0.94,19.4-1.3,22.17
	c-0.46,3.5-6.7,3.49-7.15-0.01c-0.02-0.12-0.03-0.23-0.03-0.34c-0.32-8.91,1.24-11.65-6.15-14.92"/>
<circle class="st234" cx="536.44" cy="176.05" r="6.41"/>
<circle class="st5" cx="535.48" cy="176.8" r="2.12"/>
<circle class="st33" cx="520.31" cy="133.07" r="3.84"/>
<path class="st33" d="M493.6,148.98c0.31-2.4,0.77-3.24,1.75-5.31c4.05-8.49,13.23-13.81,23.07-12.52l0,0
	c12.23,1.6,20.85,12.82,19.25,25.05L493.6,148.98z"/>
<path class="st6" d="M537.67,156.2c0,0-59.25,0.78-61.95-5.18c-2.7-5.95,25.33-0.93,25.33-0.93L537.67,156.2z"/>
<linearGradient id="SVGID_4_" gradientUnits="userSpaceOnUse" x1="-3719.2349" y1="1526.399" x2="-3719.2349" y2="1513.2723" gradientTransform="matrix(-0.9994 0.0356 -0.0356 -0.9994 -3147.3145 1798.1891)">
	<stop  offset="0" style="stop-color:#1D627E"/>
	<stop  offset="1" style="stop-color:#6495B4"/>
</linearGradient>
<path class="st14" d="M508.26,146.19l13.68,2.25c1.37,0.23,2.67-0.7,2.9-2.08l0,0c0.23-1.37-0.7-2.67-2.08-2.9l-13.68-2.25
	c-1.37-0.23-2.67,0.7-2.9,2.08l0,0C505.96,144.67,506.89,145.97,508.26,146.19z"/>
<path class="st38" d="M519.53,171.28c-1.43,2.21-6,3.16-6.82-0.65c-0.29-1.37,0.45-1.99,1.17-1.07c1.18,1.5,2.24,1.93,4.91,0.32
	C519.56,169.43,519.98,170.58,519.53,171.28z"/>
<path class="st38" d="M502.14,169.24c-1.43,2.21-6,3.16-6.82-0.65c-0.29-1.37,0.45-1.99,1.17-1.07c1.18,1.5,2.24,1.93,4.91,0.32
	C502.18,167.38,502.6,168.54,502.14,169.24z"/>
<path class="st7" d="M170.97,302.76l0.05-11.22l-12.13-7.1l-33.75-0.14l-0.11,25.32l33.75,0.14L170.97,302.76z M157.14,297
	c0.01-2.26,1.85-4.09,4.12-4.08c2.26,0.01,4.09,1.85,4.08,4.12c-0.01,2.26-1.85,4.09-4.12,4.08
	C158.96,301.11,157.13,299.26,157.14,297z"/>
<path class="st285" d="M167.22,295.79c0,0,3.4,0.01,12.17,0.01"/>
<rect x="139.3" y="290.81" class="st42" width="13.11" height="17.61"/>
<text transform="matrix(1 0 0 1 139.2969 304.8173)" class="st41 st286 st287">2</text>
<path class="st7" d="M116.61,373.84l0.05-11.22l-12.13-7.1l-33.75-0.14l-0.11,25.32l33.75,0.14L116.61,373.84z M102.78,368.09
	c0.01-2.26,1.85-4.09,4.12-4.08c2.26,0.01,4.09,1.85,4.08,4.12c-0.01,2.26-1.85,4.09-4.12,4.08
	C104.6,372.19,102.77,370.35,102.78,368.09z"/>
<path class="st285" d="M112.86,366.88c0,0,3.4,0.01,12.17,0.01"/>
<rect x="81.54" y="361.22" class="st42" width="13.11" height="17.61"/>
<text transform="matrix(1 0 0 1 81.5341 375.2242)" class="st41 st286 st287">4</text>
<path class="st7" d="M290.43,216.34l33.75-0.14l-0.11-25.32l-33.75,0.14l-12.13,7.1l0.05,11.22L290.43,216.34z M287.99,207.7
	c-2.26,0.01-4.11-1.82-4.12-4.08s1.82-4.11,4.08-4.12c2.26-0.01,4.11,1.82,4.12,4.08S290.25,207.69,287.99,207.7z"/>
<path class="st285" d="M282,202.37c0,0-3.4,0.01-12.17,0.01"/>
<rect x="299.34" y="196.33" class="st42" width="13.11" height="17.61"/>
<text transform="matrix(1 0 0 1 299.3428 210.3314)" class="st41 st286 st287">1</text>
<path class="st7" d="M357.23,258.34l33.75-0.14l-0.11-25.32l-33.75,0.14l-12.13,7.1l0.05,11.22L357.23,258.34z M354.79,249.69
	c-2.26,0.01-4.11-1.82-4.12-4.08s1.82-4.11,4.08-4.12c2.26-0.01,4.11,1.82,4.12,4.08C358.88,247.84,357.05,249.68,354.79,249.69z"/>
<path class="st285" d="M348.8,244.37c0,0-3.4,0.01-12.17,0.01"/>
<rect x="366.14" y="238.32" class="st42" width="13.11" height="17.61"/>
<text transform="matrix(1 0 0 1 366.1429 252.3276)" class="st41 st286 st287">2</text>
<path class="st33" d="M703.18,26.38H599.69c-24.11,0-43.66,19.55-43.66,43.66l0,0c0,1.2,0.06,2.39,0.16,3.56l-0.01-0.01v54.44
	c0,3.71,3.94,6.09,7.22,4.38l34.75-18.16c0.71-0.37,1.48-0.56,2.28-0.56c10.78,0,102.74,0.01,102.74,0.01
	c24.11,0,43.66-19.55,43.66-43.66l0,0C746.84,45.93,727.29,26.38,703.18,26.38z"/>
<g>
	<path class="st41" d="M636.53,81.62v-4.97h-11.48v-4.03l9.54-15.01h7.06v14.54h3.1v4.5h-3.1v4.97H636.53z M636.53,62.14
		l-6.48,10.01h6.48V62.14z"/>
	<path class="st41" d="M646.87,69.63c0-6.19,3.06-12.38,9.93-12.38c6.84,0,9.93,6.19,9.93,12.38s-3.1,12.42-9.93,12.42
		C649.93,82.05,646.87,75.82,646.87,69.63z M661.52,69.63c0-4.43-1.3-7.85-4.72-7.85c-3.46,0-4.75,3.42-4.75,7.85
		s1.3,7.88,4.75,7.88C660.22,77.51,661.52,74.06,661.52,69.63z"/>
</g>
<path class="st41" d="M617.36,74.15h-13.13c-0.51,0-0.91-0.41-0.91-0.91v-2.38c0-0.51,0.41-0.91,0.91-0.91h13.13
	c0.51,0,0.91,0.41,0.91,0.91v2.38C618.28,73.74,617.87,74.15,617.36,74.15z"/>
<g>
	<path class="st41" d="M675.79,60.61c1.16,0,2.11,0.95,2.11,2.11s-0.95,2.11-2.11,2.11s-2.11-0.95-2.11-2.11
		S674.63,60.61,675.79,60.61 M675.79,57.61c-2.82,0-5.11,2.29-5.11,5.11s2.29,5.11,5.11,5.11s5.11-2.29,5.11-5.11
		C680.91,59.89,678.62,57.61,675.79,57.61L675.79,57.61z"/>
</g>
<g>
	<path class="st41" d="M692.06,74.69c1.16,0,2.11,0.95,2.11,2.11s-0.95,2.11-2.11,2.11s-2.11-0.95-2.11-2.11
		S690.9,74.69,692.06,74.69 M692.06,71.69c-2.82,0-5.11,2.29-5.11,5.11s2.29,5.11,5.11,5.11s5.11-2.29,5.11-5.11
		C697.18,73.98,694.89,71.69,692.06,71.69L692.06,71.69z"/>
</g>
<path class="st41" d="M694.84,60.86l-20.79,20.79c-0.36,0.36-0.94,0.36-1.29,0l-1.38-1.38c-0.36-0.36-0.36-0.94,0-1.29l20.79-20.79
	c0.36-0.36,0.94-0.36,1.29,0l1.38,1.38C695.2,59.92,695.2,60.5,694.84,60.86z"/>
<path class="st44" d="M480.49,191.25l1.63-11.52c11.93,5.57,23.42,7.59,32.4,6.9c5.44-0.42,10.46-3.12,13.21-7.84l2.86-4.89
	l-2.89,15.14c-0.06,0.33-0.05,0.67,0.04,0.99c0.01,0.02,0.01,0.04,0.02,0.06c0.58,2.03,3.44,2.08,4.09,0.08
	c1.21-3.73,2.39-7.36,2.39-7.36l-2.18,15.53c-0.82,5.96-6.31,10.12-12.27,9.31l-30-4.12C483.84,202.7,479.67,197.21,480.49,191.25z"
	/>
<path class="st90" d="M490.3,185.38c9.29,4.04,19.53,4.25,25.63,3.89c3.86-0.23,7.01,3.27,6.14,7.04c-0.61,2.62-2.38,5.27-6.61,6.74
	c-5.18,1.79-28.21-2.32-32.18-8.66c-0.19-0.31-0.37-0.62-0.53-0.93C480.25,188.58,485.28,183.2,490.3,185.38z"/>
<path class="st91" d="M492.53,189.6c5.62,2.61,12.69,2.78,16.99,2.58c0.76-0.04,0.96,1.03,0.24,1.27
	c-2.92,0.97-7.26,1.76-11.79,0.24c-2.85-0.96-4.79-2.02-6.11-2.98C491.21,190.24,491.8,189.27,492.53,189.6z"/>
<path class="st91" d="M510.53,197.77c-4.98,0.18-13.92-0.22-20.55-4.5c-0.56-0.36-1.19,0.36-0.76,0.86c1.7,2,4.72,4.46,9.71,5.38
	c4.91,0.91,9.05,0.21,11.78-0.6C511.37,198.72,511.21,197.75,510.53,197.77z"/>
<path class="st41" d="M305.36,392.8c0-14.51,13.47-17.6,13.47-17.6c-13.52,0-13.4-15.72-13.4-15.72s-0.51,16.38-15.33,16.38
	C298.83,375.88,305.36,383.93,305.36,392.8z"/>
<path class="st41" d="M285.44,396.43c0-4.61,4.28-5.59,4.28-5.59c-4.29,0-4.26-4.99-4.26-4.99s-0.16,5.2-4.87,5.2
	C283.37,391.06,285.44,393.61,285.44,396.43z"/>
<path class="st41" d="M325.69,362.9c0-1.87,1.74-2.27,1.74-2.27c-1.75,0-1.73-2.03-1.73-2.03s-0.07,2.12-1.98,2.12
	C324.84,360.71,325.69,361.75,325.69,362.9z"/>
</svg>
