<?xml version="1.0" encoding="utf-8"?>
<!-- Generator: Adobe Illustrator 23.1.0, SVG Export Plug-In . SVG Version: 6.00 Build 0)  -->
<svg version="1.1" id="Layer_1" xmlns="http://www.w3.org/2000/svg" xmlns:xlink="http://www.w3.org/1999/xlink" x="0px" y="0px"
	 viewBox="0 0 910 567" style="enable-background:new 0 0 910 567;" xml:space="preserve">
<style type="text/css">
	.st0{fill:url(#SVGID_1_);}
	.st1{fill:url(#SVGID_2_);}
	.st2{fill:url(#SVGID_3_);}
	.st3{fill:url(#SVGID_4_);}
	.st4{fill:url(#SVGID_5_);}
	.st5{fill:url(#SVGID_6_);}
	.st6{fill:url(#SVGID_7_);}
	.st7{fill:#D9EEF3;}
	.st8{fill:#F6FBFD;}
	.st9{fill:url(#SVGID_8_);}
	.st10{fill:url(#SVGID_9_);}
	.st11{fill:#C4E5ED;}
	.st12{fill:#D5ECF3;}
	.st13{fill:#EFF7FB;}
	.st14{fill:#CFEAF3;}
	.st15{fill:#00A76D;}
	.st16{fill:url(#SVGID_10_);}
	.st17{fill:url(#SVGID_11_);}
	.st18{fill:url(#SVGID_12_);}
	.st19{fill:url(#SVGID_13_);}
	.st20{fill:url(#SVGID_14_);}
	.st21{fill:url(#SVGID_15_);}
	.st22{fill:#FAB85E;}
	.st23{fill:#FED275;}
	.st24{fill:#37A538;}
	.st25{fill:#FBCDAC;}
	.st26{fill:#60A3BF;}
	.st27{fill:url(#SVGID_16_);}
	.st28{fill:#F7B293;}
	.st29{fill:url(#SVGID_17_);}
	.st30{fill:url(#SVGID_18_);}
	.st31{fill:url(#SVGID_19_);}
	.st32{fill:url(#SVGID_20_);}
	.st33{fill:url(#SVGID_21_);}
	.st34{fill:url(#SVGID_22_);}
	.st35{fill:url(#SVGID_23_);}
	.st36{fill:url(#SVGID_24_);}
	.st37{fill:url(#SVGID_25_);}
	.st38{fill:url(#SVGID_26_);}
	.st39{fill:url(#SVGID_27_);}
	.st40{fill:url(#SVGID_28_);}
	.st41{fill:url(#SVGID_29_);}
	.st42{fill:url(#SVGID_30_);}
	.st43{fill:url(#SVGID_31_);}
	.st44{fill:url(#SVGID_32_);}
	.st45{fill:url(#SVGID_33_);}
	.st46{fill:url(#SVGID_34_);}
	.st47{fill:url(#SVGID_35_);}
	.st48{fill:url(#SVGID_36_);}
	.st49{fill:#EC6643;}
	.st50{fill:url(#SVGID_37_);}
	.st51{fill:url(#SVGID_38_);}
	.st52{fill:#58B14B;}
	.st53{fill:url(#SVGID_39_);}
	.st54{fill:url(#SVGID_40_);}
	.st55{fill:url(#SVGID_41_);}
	.st56{fill:#3F95B7;}
	.st57{fill:url(#SVGID_42_);}
	.st58{fill:url(#SVGID_43_);}
	.st59{fill:url(#SVGID_44_);}
	.st60{fill:url(#SVGID_45_);}
	.st61{fill:url(#SVGID_46_);}
	.st62{fill:url(#SVGID_47_);}
	.st63{fill:url(#SVGID_48_);}
	.st64{fill:#FBD2B4;}
	.st65{fill:#E74A33;}
	.st66{fill:url(#SVGID_49_);}
	.st67{fill:url(#SVGID_50_);}
	.st68{fill:url(#SVGID_51_);}
	.st69{fill:url(#SVGID_52_);}
	.st70{fill:url(#SVGID_53_);}
	.st71{fill:url(#SVGID_54_);}
	.st72{fill:url(#SVGID_55_);}
	.st73{fill:#055778;}
	.st74{fill:#F18674;}
	.st75{fill:#3985A9;}
	.st76{fill:#C7E6EE;}
	.st77{fill:url(#SVGID_56_);}
	.st78{fill:#1C617D;}
	.st79{fill:url(#SVGID_57_);}
	.st80{fill:url(#SVGID_58_);}
	.st81{fill:url(#SVGID_59_);}
	.st82{fill:url(#SVGID_60_);}
	.st83{fill:#EA5438;}
	.st84{fill:#FBCBA2;}
	.st85{fill:url(#SVGID_61_);}
	.st86{fill:url(#SVGID_62_);}
	.st87{fill:url(#SVGID_63_);}
	.st88{fill:url(#SVGID_64_);}
	.st89{fill:url(#SVGID_65_);}
	.st90{fill:url(#SVGID_66_);}
	.st91{fill:url(#SVGID_67_);}
	.st92{fill:url(#SVGID_68_);}
	.st93{fill:url(#SVGID_69_);}
	.st94{fill:#016A89;}
	.st95{fill:#FFFFFF;}
	.st96{fill:url(#SVGID_70_);}
	.st97{fill:url(#SVGID_71_);}
	.st98{fill:url(#SVGID_72_);}
	.st99{fill:none;stroke:#F18775;stroke-width:2;stroke-linecap:round;stroke-miterlimit:10;}
	.st100{fill:#035D78;}
	.st101{fill:#FAB853;}
	.st102{fill:none;stroke:#F18674;stroke-width:2;stroke-linecap:round;stroke-miterlimit:10;}
	.st103{fill:#3F93B5;}
	.st104{fill:#FCF4F2;}
	.st105{fill:url(#SVGID_73_);}
	.st106{fill:#FCD4B7;}
	.st107{fill:url(#SVGID_74_);}
	.st108{fill:url(#SVGID_75_);}
	.st109{fill:#41AE5C;}
	.st110{fill:url(#SVGID_76_);}
	.st111{fill:#CEE9F0;}
	.st112{fill:url(#SVGID_77_);}
	.st113{fill:url(#SVGID_78_);}
	.st114{fill:url(#SVGID_79_);}
	.st115{fill:url(#SVGID_80_);}
	.st116{fill:url(#SVGID_81_);}
	.st117{fill:#D8EDF3;}
	.st118{fill:#FBFDFF;}
	.st119{fill:#FCD5B7;}
	.st120{fill:url(#SVGID_82_);}
	.st121{fill:url(#SVGID_83_);}
	.st122{fill:url(#SVGID_84_);}
	.st123{fill:none;stroke:#41AE5C;stroke-width:2;stroke-linecap:round;stroke-miterlimit:10;}
	.st124{fill:url(#SVGID_85_);}
	.st125{fill:url(#SVGID_86_);}
	.st126{fill:url(#SVGID_87_);}
	.st127{fill:url(#SVGID_88_);}
	.st128{fill:url(#SVGID_89_);}
	.st129{fill:url(#SVGID_90_);}
	.st130{fill:url(#SVGID_91_);}
	.st131{fill:url(#SVGID_92_);}
	.st132{fill:url(#SVGID_93_);}
	.st133{fill:#008F7F;}
	.st134{fill:#A8DAE4;}
	.st135{fill:url(#SVGID_94_);}
	.st136{fill:url(#SVGID_95_);}
	.st137{fill:url(#SVGID_96_);}
	.st138{fill:url(#SVGID_97_);}
	.st139{fill:#F18775;}
	.st140{fill:url(#SVGID_98_);}
	.st141{fill:url(#SVGID_99_);}
	.st142{fill:url(#SVGID_100_);}
	.st143{fill:url(#SVGID_101_);}
	.st144{fill:url(#SVGID_102_);}
	.st145{fill:url(#SVGID_103_);}
	.st146{fill:url(#SVGID_104_);}
	.st147{fill:url(#SVGID_105_);}
	.st148{fill:url(#SVGID_106_);}
	.st149{fill:#F8BB9E;}
	.st150{fill:url(#SVGID_107_);}
	.st151{fill:url(#SVGID_108_);}
	.st152{fill:url(#SVGID_109_);}
	.st153{fill:url(#SVGID_110_);}
	.st154{fill:url(#SVGID_111_);}
	.st155{fill:url(#SVGID_112_);}
	.st156{fill:url(#SVGID_113_);}
	.st157{fill:url(#SVGID_114_);}
	.st158{fill:#F7B194;}
	.st159{fill:url(#SVGID_115_);}
	.st160{fill:url(#SVGID_116_);}
	.st161{fill:#FAB753;}
	.st162{fill:url(#SVGID_117_);}
	.st163{fill:url(#SVGID_118_);}
	.st164{fill:url(#SVGID_119_);}
	.st165{fill:url(#SVGID_120_);}
	.st166{fill:url(#SVGID_121_);}
	.st167{fill:url(#SVGID_122_);}
	.st168{fill:url(#SVGID_123_);}
	.st169{fill:url(#SVGID_124_);}
	.st170{fill:url(#SVGID_125_);}
	.st171{fill:url(#SVGID_126_);}
	.st172{fill:url(#SVGID_127_);}
	.st173{fill:url(#SVGID_128_);}
	.st174{fill:url(#SVGID_129_);}
	.st175{fill:url(#SVGID_130_);}
	.st176{fill:url(#SVGID_131_);}
	.st177{fill:url(#SVGID_132_);}
	.st178{opacity:0.4;}
	.st179{fill:#FDCD6A;}
	.st180{fill:#FFF5E9;}
	.st181{fill:#CDE9F0;}
	.st182{opacity:0.31;fill:#FAB85E;}
	.st183{opacity:0.43;fill:#FAB85E;}
	.st184{fill:url(#SVGID_133_);}
	.st185{fill:url(#SVGID_134_);}
	.st186{fill:url(#SVGID_135_);}
	.st187{fill:#F7A93B;}
	.st188{fill:url(#SVGID_136_);}
	.st189{fill:url(#SVGID_137_);}
	.st190{fill:url(#SVGID_138_);}
	.st191{fill:url(#SVGID_139_);}
	.st192{fill:url(#SVGID_140_);}
	.st193{fill:url(#SVGID_141_);}
	.st194{fill:url(#SVGID_142_);}
	.st195{fill:url(#SVGID_143_);}
	.st196{fill:url(#SVGID_144_);}
	.st197{fill:url(#SVGID_145_);}
	.st198{fill:#FCDAC1;}
	.st199{fill:#EF795A;}
	.st200{fill:#76AFC6;}
	.st201{fill:#F1876E;}
	.st202{fill:#88B8CD;}
	.st203{fill:#FFD884;}
	.st204{fill:url(#SVGID_146_);}
	.st205{fill:url(#SVGID_147_);}
	.st206{fill:url(#SVGID_148_);}
	.st207{fill:url(#SVGID_149_);}
	.st208{fill:url(#SVGID_150_);}
	.st209{fill:url(#SVGID_151_);}
	.st210{fill:url(#SVGID_152_);}
	.st211{fill:url(#SVGID_153_);}
	.st212{fill:url(#SVGID_154_);}
	.st213{fill:url(#SVGID_155_);}
	.st214{fill:url(#SVGID_156_);}
	.st215{fill:url(#SVGID_157_);}
	.st216{fill:url(#SVGID_158_);}
	.st217{fill:url(#SVGID_159_);}
	.st218{fill:url(#SVGID_160_);}
	.st219{fill:url(#SVGID_161_);}
	.st220{fill:url(#SVGID_162_);}
	.st221{fill:url(#SVGID_163_);}
	.st222{fill:url(#SVGID_164_);}
	.st223{fill:#F6AD98;}
	.st224{fill:#7EBBD0;}
	.st225{fill:#F39785;}
	.st226{fill:url(#SVGID_165_);}
	.st227{fill:url(#SVGID_166_);}
	.st228{fill:#F6F8F8;}
	.st229{fill:#04949D;}
	.st230{fill:url(#SVGID_167_);}
	.st231{fill:#04777E;}
	.st232{opacity:0.19;fill:#FFFFFF;}
	.st233{fill:none;stroke:#3AAC4F;stroke-miterlimit:10;}
	.st234{fill:url(#SVGID_168_);}
	.st235{fill:url(#SVGID_169_);}
	.st236{fill:url(#SVGID_170_);}
	.st237{fill:url(#SVGID_171_);}
	.st238{fill:url(#SVGID_172_);}
	.st239{fill:url(#SVGID_173_);}
	.st240{fill:url(#SVGID_174_);}
	.st241{fill:url(#SVGID_175_);}
	.st242{fill:url(#SVGID_176_);}
	.st243{fill:url(#SVGID_177_);}
	.st244{fill:url(#SVGID_178_);}
	.st245{fill:url(#SVGID_179_);}
	.st246{fill:url(#SVGID_180_);}
	.st247{fill:url(#SVGID_181_);}
	.st248{fill:url(#SVGID_182_);}
	.st249{fill:url(#SVGID_183_);}
	.st250{fill:url(#SVGID_184_);}
	.st251{fill:url(#SVGID_185_);}
	.st252{fill:url(#SVGID_186_);}
	.st253{fill:url(#SVGID_187_);}
	.st254{fill:url(#SVGID_188_);}
	.st255{fill:url(#SVGID_189_);}
	.st256{fill:url(#SVGID_190_);}
	.st257{fill:url(#SVGID_191_);}
	.st258{fill:url(#SVGID_192_);}
	.st259{fill:#F49C7D;}
	.st260{fill:url(#SVGID_193_);}
	.st261{fill:url(#SVGID_194_);}
	.st262{fill:url(#SVGID_195_);}
	.st263{fill:url(#SVGID_196_);}
	.st264{fill:#114657;}
	.st265{fill:url(#SVGID_197_);}
	.st266{fill:url(#SVGID_198_);}
	.st267{fill:url(#SVGID_199_);}
	.st268{fill:url(#SVGID_200_);}
	.st269{fill:url(#SVGID_201_);}
	.st270{fill:#2C878E;}
	.st271{fill:#3A859B;}
	.st272{fill:#247088;}
	.st273{fill:url(#SVGID_202_);}
	.st274{fill:#F8C671;}
	.st275{fill:#EC6443;}
	.st276{fill:url(#SVGID_203_);}
	.st277{fill:url(#SVGID_204_);}
	.st278{fill:url(#SVGID_205_);}
	.st279{fill:#F9FCFF;}
	.st280{fill:url(#SVGID_206_);}
	.st281{fill:url(#SVGID_207_);}
	.st282{fill:url(#SVGID_208_);}
	.st283{opacity:0.68;fill:url(#SVGID_209_);}
	.st284{fill:url(#SVGID_210_);}
	.st285{opacity:0.68;fill:url(#SVGID_211_);}
	.st286{fill:url(#SVGID_212_);}
	.st287{opacity:0.68;fill:url(#SVGID_213_);}
	.st288{fill:url(#SVGID_214_);}
	.st289{fill:url(#SVGID_215_);}
	.st290{fill:url(#SVGID_216_);}
	.st291{fill:url(#SVGID_217_);}
	.st292{fill:url(#SVGID_218_);}
	.st293{fill:url(#SVGID_219_);}
	.st294{fill:url(#SVGID_220_);}
	.st295{fill:url(#SVGID_221_);}
	.st296{fill:url(#SVGID_222_);}
	.st297{fill:url(#SVGID_223_);}
	.st298{fill:url(#SVGID_224_);}
	.st299{fill:url(#SVGID_225_);}
	.st300{fill:url(#SVGID_226_);}
	.st301{fill:url(#SVGID_227_);}
	.st302{fill:url(#SVGID_228_);}
	.st303{fill:#F4A081;}
	.st304{fill:url(#SVGID_229_);}
	.st305{fill:url(#SVGID_230_);}
	.st306{fill:url(#SVGID_231_);}
	.st307{fill:url(#SVGID_232_);}
	.st308{fill:url(#SVGID_233_);}
	.st309{fill:url(#SVGID_234_);}
	.st310{fill:url(#SVGID_235_);}
	.st311{fill:url(#SVGID_236_);}
	.st312{fill:url(#SVGID_237_);}
	.st313{fill:url(#SVGID_238_);}
	.st314{fill:url(#SVGID_239_);}
	.st315{fill:url(#SVGID_240_);}
	.st316{fill:url(#SVGID_241_);}
	.st317{fill:url(#SVGID_242_);}
	.st318{fill:url(#SVGID_243_);}
	.st319{fill:url(#SVGID_244_);}
	.st320{fill:url(#SVGID_245_);}
	.st321{fill:#4FB26C;}
	.st322{fill:url(#SVGID_246_);}
	.st323{fill:url(#SVGID_247_);}
	.st324{fill:url(#SVGID_248_);}
	.st325{fill:url(#SVGID_249_);}
	.st326{fill:url(#SVGID_250_);}
	.st327{fill:url(#SVGID_251_);}
	.st328{fill:url(#SVGID_252_);}
	.st329{fill:url(#SVGID_253_);}
	.st330{fill:url(#SVGID_254_);}
	.st331{fill:url(#SVGID_255_);}
	.st332{fill:url(#SVGID_256_);}
	.st333{fill:url(#SVGID_257_);}
	.st334{fill:url(#SVGID_258_);}
	.st335{fill:#82B0C7;}
	.st336{fill:url(#SVGID_259_);}
	.st337{fill:url(#SVGID_260_);}
	.st338{fill:url(#SVGID_261_);}
	.st339{fill:url(#SVGID_262_);}
	.st340{fill:url(#SVGID_263_);}
	.st341{fill:url(#SVGID_264_);}
	.st342{fill:url(#SVGID_265_);}
	.st343{fill:url(#SVGID_266_);}
	.st344{fill:url(#SVGID_267_);}
	.st345{fill:url(#SVGID_268_);}
	.st346{fill:url(#SVGID_269_);}
	.st347{fill:url(#SVGID_270_);}
	.st348{fill:url(#SVGID_271_);}
	.st349{fill:url(#SVGID_272_);}
	.st350{fill:url(#SVGID_273_);}
	.st351{fill:url(#SVGID_274_);}
	.st352{fill:url(#SVGID_275_);}
	.st353{fill:url(#SVGID_276_);}
	.st354{fill:url(#SVGID_277_);}
	.st355{fill:url(#SVGID_278_);}
	.st356{fill:url(#SVGID_279_);}
	.st357{fill:url(#SVGID_280_);}
	.st358{fill:url(#SVGID_281_);}
	.st359{fill:url(#SVGID_282_);}
	.st360{fill:url(#SVGID_283_);}
	.st361{fill:url(#SVGID_284_);}
	.st362{fill:url(#SVGID_285_);}
	.st363{fill:url(#SVGID_286_);}
	.st364{fill:url(#SVGID_287_);}
	.st365{fill:url(#SVGID_288_);}
	.st366{fill:url(#SVGID_289_);}
	.st367{fill:url(#SVGID_290_);}
	.st368{fill:url(#SVGID_291_);}
	.st369{fill:url(#SVGID_292_);}
	.st370{fill:url(#SVGID_293_);}
	.st371{fill:url(#SVGID_294_);}
	.st372{fill:url(#SVGID_295_);}
	.st373{fill:url(#SVGID_296_);}
	.st374{fill:url(#SVGID_297_);}
	.st375{fill:url(#SVGID_298_);}
	.st376{fill:url(#SVGID_299_);}
	.st377{fill:#18596E;}
	.st378{fill:url(#SVGID_300_);}
	.st379{fill:url(#SVGID_301_);}
	.st380{fill:url(#SVGID_302_);}
	.st381{fill:url(#SVGID_303_);}
	.st382{fill:url(#SVGID_304_);}
	.st383{opacity:0.11;fill:#FFFFFF;}
	.st384{opacity:0.42;fill:#EFF7FB;}
	.st385{fill:url(#SVGID_305_);}
	.st386{fill:url(#SVGID_306_);}
	.st387{fill:url(#SVGID_307_);}
	.st388{fill:url(#SVGID_308_);}
	.st389{fill:url(#SVGID_309_);}
	.st390{fill:url(#SVGID_310_);}
	.st391{fill:url(#SVGID_311_);}
	.st392{fill:url(#SVGID_312_);}
	.st393{fill:#02607A;}
	.st394{fill:url(#SVGID_313_);}
	.st395{fill:url(#SVGID_314_);}
	.st396{fill:url(#SVGID_315_);}
	.st397{fill:url(#SVGID_316_);}
</style>
<linearGradient id="SVGID_1_" gradientUnits="userSpaceOnUse" x1="454.8298" y1="645.2222" x2="454.8298" y2="175.8822">
	<stop  offset="0" style="stop-color:#ECF6FB;stop-opacity:0.1"/>
	<stop  offset="0.2529" style="stop-color:#E1F1F7;stop-opacity:0.3276"/>
	<stop  offset="0.5948" style="stop-color:#D8EEF4;stop-opacity:0.6353"/>
	<stop  offset="1" style="stop-color:#D5ECF3"/>
</linearGradient>
<path class="st0" d="M766.68,350.59v51.56c0,5.03-4.09,9.11-9.14,9.11h-75.9c-5.05,0-9.14-4.08-9.14-9.11V243.8
	c0-5.03-4.09-9.11-9.14-9.11h-57.13c-5.05,0-9.14,4.08-9.14,9.11v78.64c0,5.03-4.09,9.11-9.14,9.11h-40.37
	c-5.05,0-9.14,4.08-9.14,9.11v116.8c0,5.03-4.09,9.11-9.14,9.11h-77.61c-5.05,0-9.14-4.08-9.14-9.11v-52.68
	c0-5.03-4.09-9.11-9.14-9.11H303.64c-5.05,0-9.14-4.08-9.14-9.11V274.89c0-5.03-4.09-9.11-9.14-9.11H197.5
	c-5.05,0-9.14,4.08-9.14,9.11V458.1c0,5.03-4.09,9.11-9.14,9.11H77.4c-5.05,0-9.14-4.08-9.14-9.11V353.6c0-5.03-4.09-9.11-9.14-9.11
	H-0.17v213.68h45.15h23.28h120.1h18.62h72.45h15.06h120.34h27.7h95.9h31.42h27.23h9.08h22.34h43.99h94.19h6.63h136.52v-216.7h-134
	C770.78,341.48,766.68,345.56,766.68,350.59z"/>
<linearGradient id="SVGID_2_" gradientUnits="userSpaceOnUse" x1="454.4206" y1="503.0193" x2="1521.7947" y2="-666.2647">
	<stop  offset="0" style="stop-color:#ECF6FB;stop-opacity:0.1"/>
	<stop  offset="0.0589" style="stop-color:#E8F4FA;stop-opacity:0.153"/>
	<stop  offset="0.3401" style="stop-color:#D9EEF4;stop-opacity:0.4061"/>
	<stop  offset="0.6423" style="stop-color:#D0EAF1;stop-opacity:0.6781"/>
	<stop  offset="1" style="stop-color:#CDE9F0"/>
</linearGradient>
<path class="st1" d="M877.46,405.99c18.02-35.28,28.21-75.37,28.21-117.87c0-138.65-108.32-251.55-243.57-255.96
	c-15.3-16.96-37.74-27.68-62.76-27.68c-30.86,0-57.79,16.29-72.25,40.51c-7.44-1.35-15.11-2.06-22.93-2.06
	c-62.87,0-115.27,45.56-127.04,106C179.1,190.49,30.72,361.88,30.72,567h878.96C909.68,510.04,898.23,455.69,877.46,405.99z"/>
<g>
	<path class="st7" d="M858.45,73.44c-13.44,0-24.37-10.93-24.37-24.37s10.93-24.37,24.37-24.37c13.44,0,24.37,10.93,24.37,24.37
		S871.89,73.44,858.45,73.44z M858.45,33.86c-8.39,0-15.21,6.82-15.21,15.21s6.82,15.21,15.21,15.21c8.39,0,15.21-6.82,15.21-15.21
		S866.84,33.86,858.45,33.86z"/>
</g>
<path class="st8" d="M641.3,51.84h-6.53c0-8.47-6.87-15.35-15.35-15.35s-15.35,6.87-15.35,15.35c0,0.07,0,0.14,0.01,0.21
	c-7.54,1.22-13.3,7.76-13.3,15.65v0c0,8.76,7.1,15.86,15.86,15.86h34.67c8.76,0,15.86-7.1,15.86-15.86v0
	C657.15,58.94,650.05,51.84,641.3,51.84z"/>
<linearGradient id="SVGID_3_" gradientUnits="userSpaceOnUse" x1="121.3222" y1="-143.2222" x2="121.3222" y2="464.2038">
	<stop  offset="0.2155" style="stop-color:#F9FCFF"/>
	<stop  offset="0.2587" style="stop-color:#F5FBFE"/>
	<stop  offset="0.4713" style="stop-color:#E5F4F8"/>
	<stop  offset="0.6901" style="stop-color:#DCEFF5"/>
	<stop  offset="0.9228" style="stop-color:#D9EEF3"/>
	<stop  offset="0.9285" style="stop-color:#D9EEF3"/>
	<stop  offset="1" style="stop-color:#D9EEF3"/>
</linearGradient>
<path class="st2" d="M163.68,61.19h-15.97c0-20.71-16.79-37.5-37.5-37.5s-37.5,16.79-37.5,37.5c0,0.17,0.01,0.34,0.01,0.51
	c-18.44,2.98-32.52,18.97-32.52,38.25v0c0,21.4,17.35,38.75,38.75,38.75h84.72c21.4,0,38.75-17.35,38.75-38.75v0
	C202.44,78.54,185.09,61.19,163.68,61.19z"/>
<linearGradient id="SVGID_4_" gradientUnits="userSpaceOnUse" x1="200.2467" y1="-112.1111" x2="200.2467" y2="271.9259">
	<stop  offset="0.2155" style="stop-color:#F9FCFF"/>
	<stop  offset="0.2869" style="stop-color:#F3FAFD"/>
	<stop  offset="0.4999" style="stop-color:#E4F3F8"/>
	<stop  offset="0.7289" style="stop-color:#DCEFF4"/>
	<stop  offset="1" style="stop-color:#D9EEF3"/>
</linearGradient>
<path class="st3" d="M222.72,57.59h-8.47c0-10.99-8.91-19.9-19.9-19.9s-19.9,8.91-19.9,19.9c0,0.09,0.01,0.18,0.01,0.27
	c-9.78,1.58-17.25,10.06-17.25,20.29v0c0,11.36,9.21,20.56,20.56,20.56h44.95c11.36,0,20.56-9.21,20.56-20.56v0
	C243.29,66.8,234.08,57.59,222.72,57.59z"/>
<g>
	<path class="st11" d="M470.03,56.53c-0.46,0-0.93-0.18-1.28-0.53l-9.38-9.38c-0.71-0.71-0.71-1.86,0-2.56
		c0.71-0.71,1.86-0.71,2.56,0l8.09,8.09l8.09-8.09c0.71-0.71,1.86-0.71,2.56,0c0.71,0.71,0.71,1.86,0,2.56l-9.38,9.38
		C470.95,56.35,470.49,56.53,470.03,56.53z"/>
</g>
<g>
	<path class="st11" d="M451.59,79.64c-0.28,0-0.56-0.11-0.77-0.32l-5.99-5.99c-0.42-0.42-0.42-1.11,0-1.54
		c0.43-0.43,1.11-0.43,1.54,0l5.22,5.22l5.22-5.22c0.42-0.43,1.11-0.43,1.54,0c0.42,0.42,0.42,1.11,0,1.54l-5.99,5.99
		C452.15,79.53,451.87,79.64,451.59,79.64z"/>
</g>
<g>
	<path class="st11" d="M487.16,88.42c-0.28,0-0.56-0.11-0.77-0.32l-7.76-7.76c-0.42-0.42-0.42-1.11,0-1.54
		c0.43-0.43,1.11-0.43,1.54,0l6.99,6.99l6.99-6.99c0.42-0.43,1.11-0.43,1.54,0c0.42,0.43,0.42,1.11,0,1.54l-7.76,7.76
		C487.72,88.32,487.44,88.42,487.16,88.42z"/>
</g>
<path class="st7" d="M28.77,50.42L28.77,50.42c-1.79,0-3.24-1.45-3.24-3.24v-30.6c0-1.79,1.45-3.24,3.24-3.24h0
	c1.79,0,3.24,1.45,3.24,3.24v30.6C32.01,48.96,30.56,50.42,28.77,50.42z"/>
<path class="st7" d="M47.31,31.87L47.31,31.87c0,1.79-1.45,3.24-3.24,3.24h-30.6c-1.79,0-3.24-1.45-3.24-3.24v0
	c0-1.79,1.45-3.24,3.24-3.24h30.6C45.86,28.63,47.31,30.08,47.31,31.87z"/>
<path class="st11" d="M724.17,558.16L724.17,558.16c-3.51,0-6.42-2.71-6.67-6.21l-2.25-31.36h17.84l-2.24,31.36
	C730.59,555.44,727.68,558.16,724.17,558.16z"/>
<path class="st12" d="M749.83,125.97c0,0-8.18,0.87-8.8-5.65c-0.61-6.52,12.78,2.15,12.31,3.67
	C752.88,125.51,749.83,125.97,749.83,125.97z"/>
<path class="st11" d="M756.44,147.42h-8.73c-5.85,0-10.6-4.75-10.6-10.6v-6.78h29.93v6.78
	C767.04,142.67,762.29,147.42,756.44,147.42z"/>
<path class="st11" d="M843.75,520.58l-2.24,31.36c-0.25,3.5-3.16,6.21-6.67,6.21h0c-3.51,0-6.42-2.71-6.67-6.21l-2.25-31.36"/>
<path class="st11" d="M842.21,536.97H715.25c-35.58,0-64.95-27.82-66.88-63.35l-12.25-225.71c-2.08-38.36,28.46-70.61,66.88-70.61
	h151.62c38.44,0,68.99,32.28,66.88,70.66l-12.41,225.71C907.14,509.18,877.78,536.97,842.21,536.97z"/>
<g>
	<path class="st13" d="M714.84,198.26c-32.75,0-58.79,28.67-57.02,62.78l10.44,200.68c1.64,31.59,26.68,56.33,57.02,56.33h31.06
		c9.54,0,17.27-7.73,17.27-17.27V215.53c0-9.54-7.73-17.27-17.27-17.27H714.84z"/>
	<path class="st13" d="M844.1,198.26h-41.26c-9.5,0-17.21,7.7-17.21,17.21v285.58c0,9.39,7.61,16.99,16.99,16.99h30.9
		c30.32,0,55.35-24.71,57.02-56.28l10.58-200.68C902.92,226.96,876.87,198.26,844.1,198.26z"/>
	<rect x="773.62" y="198.26" class="st11" width="12.01" height="319.78"/>
</g>
<circle class="st11" cx="811.55" cy="345.39" r="10.74"/>
<circle class="st11" cx="749.47" cy="345.39" r="10.74"/>
<path class="st14" d="M798.32,177.3H690.8c-4.08,0-7.39-3.31-7.39-7.39v0c0-4.08,3.31-7.39,7.39-7.39h107.52
	c4.08,0,7.39,3.31,7.39,7.39v0C805.71,173.99,802.4,177.3,798.32,177.3z"/>
<path class="st11" d="M768.01,162.52h-67.4c-4.08,0-7.39-3.31-7.39-7.39v0c0-4.08,3.31-7.39,7.39-7.39h67.4
	c4.08,0,7.39,3.31,7.39,7.39v0C775.41,159.21,772.1,162.52,768.01,162.52z"/>
<path class="st15" d="M791.78,506.81c0.21,0.32,0.5,0.59,0.83,0.78C792.3,507.41,792.01,507.15,791.78,506.81z"/>
<ellipse class="st22" cx="732.46" cy="114.36" rx="27.73" ry="22.34"/>
<polygon class="st11" points="820.57,558.16 811.36,558.16 820.57,427.8 829.79,427.8 "/>
<polyline class="st11" points="877.92,427.8 868.71,427.8 877.92,558.16 887.14,558.16 "/>
<rect x="818.27" y="466.26" class="st11" width="59.65" height="8.52"/>
<rect x="818.73" y="502.25" class="st11" width="59.65" height="8.52"/>
<rect x="806.31" y="420.95" class="st11" width="82.3" height="8.75"/>
<path class="st23" d="M761.39,147.73h-57.72c-4.47,0-8.1-3.63-8.1-8.1v-6.67c0-4.47,3.63-8.1,8.1-8.1h57.72c4.47,0,8.1,3.63,8.1,8.1
	v6.67C769.49,144.1,765.87,147.73,761.39,147.73z"/>
<path class="st23" d="M702.06,113.06h5.34c3.58,0,6.49,2.9,6.49,6.49v19.5c0,3.58-2.9,6.49-6.49,6.49h-5.34
	c-3.58,0-6.49-2.9-6.49-6.49v-19.5C695.58,115.96,698.48,113.06,702.06,113.06z"/>
<path class="st23" d="M757.66,114.71H763c3.58,0,6.49,2.9,6.49,6.49v19.5c0,3.58-2.9,6.49-6.49,6.49h-5.34
	c-3.58,0-6.49-2.9-6.49-6.49v-19.5C751.17,117.61,754.08,114.71,757.66,114.71z"/>
<rect x="717.69" y="518.71" transform="matrix(0.7071 0.7071 -0.7071 0.7071 591.9638 -366.8068)" class="st24" width="42.14" height="24.89"/>
<path class="st25" d="M785.02,509.74c-5.52,1.86-11.52-1.14-13.39-6.71c-1.87-5.57,1.08-11.58,6.61-13.44L785.02,509.74z"/>
<rect x="797.66" y="469.51" transform="matrix(-0.3192 -0.9477 0.9477 -0.3192 594.6668 1415.4253)" class="st25" width="16.15" height="49.21"/>
<rect x="711.05" y="503.84" class="st26" width="8.11" height="42.71"/>
<linearGradient id="SVGID_5_" gradientUnits="userSpaceOnUse" x1="782.6256" y1="462.0481" x2="697.9927" y2="668.0854">
	<stop  offset="0" style="stop-color:#FFE9BF"/>
	<stop  offset="1" style="stop-color:#ED6D4D"/>
</linearGradient>
<rect x="695.34" y="459.13" class="st4" width="136.29" height="99.02"/>
<g>
	<path class="st28" d="M814.23,532.98h-50.64c-1.09,0-1.96-0.88-1.96-1.96c0-1.08,0.88-1.96,1.96-1.96h50.64
		c1.09,0,1.96,0.88,1.96,1.96C816.19,532.1,815.31,532.98,814.23,532.98z"/>
</g>
<g>
	<path class="st28" d="M792.61,544.48h-29.02c-1.09,0-1.96-0.88-1.96-1.96c0-1.08,0.88-1.96,1.96-1.96h29.02
		c1.09,0,1.96,0.88,1.96,1.96C794.57,543.6,793.7,544.48,792.61,544.48z"/>
</g>
<linearGradient id="SVGID_6_" gradientUnits="userSpaceOnUse" x1="713.0154" y1="389.4273" x2="816.4211" y2="389.4273">
	<stop  offset="0" style="stop-color:#8DCECC"/>
	<stop  offset="1" style="stop-color:#A2D4C9"/>
</linearGradient>
<rect x="713.02" y="386.71" class="st5" width="103.41" height="5.43"/>
<g>
	
		<linearGradient id="SVGID_7_" gradientUnits="userSpaceOnUse" x1="-1250.3799" y1="1503.6459" x2="-1206.1997" y2="1516.1899" gradientTransform="matrix(-0.6306 0.7761 0.7761 0.6306 -1149.9752 428.7741)">
		<stop  offset="0" style="stop-color:#58B14B"/>
		<stop  offset="1" style="stop-color:#37A538"/>
	</linearGradient>
	<path class="st6" d="M787.69,448.75c-0.27,0-0.54-0.11-0.74-0.33c-0.37-0.41-0.34-1.04,0.07-1.41
		c17.05-15.42,13.95-39.82,13.81-40.85c-0.07-0.54,0.3-1.06,0.84-1.14c0.54-0.08,1.05,0.31,1.14,0.85l0.08,0.46
		c0.02,0.1,0.02,0.2,0.01,0.3c0.45,4.47,1.82,27.08-14.53,41.87C788.17,448.67,787.92,448.75,787.69,448.75z"/>
</g>
<linearGradient id="SVGID_8_" gradientUnits="userSpaceOnUse" x1="-2126.3435" y1="919.2654" x2="-2116.6211" y2="919.2654" gradientTransform="matrix(-0.549 0.4001 0.4724 0.4897 -794.9366 806.8905)">
	<stop  offset="0" style="stop-color:#58B14B"/>
	<stop  offset="1" style="stop-color:#37A538"/>
</linearGradient>
<path class="st9" d="M805.95,406.35c0,0-0.73,4.74-3.72,4.46C799.24,410.52,806.3,402.41,805.95,406.35z"/>
<linearGradient id="SVGID_9_" gradientUnits="userSpaceOnUse" x1="-318.0583" y1="2845.9041" x2="-310.1785" y2="2845.9041" gradientTransform="matrix(0.1345 0.9475 0.9324 -0.2201 -1811.6517 1340.2504)">
	<stop  offset="0" style="stop-color:#58B14B"/>
	<stop  offset="1" style="stop-color:#37A538"/>
</linearGradient>
<path class="st10" d="M798.78,413.1c0,0,4.42,3.46,2.53,6.21C799.41,422.06,794.98,410.47,798.78,413.1z"/>
<linearGradient id="SVGID_10_" gradientUnits="userSpaceOnUse" x1="-1095.845" y1="684.9005" x2="-1085.6815" y2="684.9005" gradientTransform="matrix(-0.4798 0.8774 -0.8774 -0.4798 880.7606 1711.4232)">
	<stop  offset="0" style="stop-color:#58B14B"/>
	<stop  offset="1" style="stop-color:#37A538"/>
</linearGradient>
<path class="st16" d="M805.69,422.29c0,0-7.47,2.67-6.22,6.82C800.73,433.27,811.96,420.43,805.69,422.29z"/>
<path class="st23" d="M745.36,400.13c0,0-2.12-0.69-4.12,0.18C739.23,401.17,739.43,402.69,745.36,400.13z"/>
<linearGradient id="SVGID_11_" gradientUnits="userSpaceOnUse" x1="740.7521" y1="402.2437" x2="753.4921" y2="400.0877">
	<stop  offset="0" style="stop-color:#FAB853"/>
	<stop  offset="1" style="stop-color:#FED275"/>
</linearGradient>
<path class="st17" d="M739.91,403.77c0,0,6.12-9.23,12.22-3.26C756.09,404.4,738.37,404.24,739.91,403.77z"/>
<path class="st22" d="M732.32,402.38c0,0,4.79-2.65,8.3,0.19c3.51,2.84-4.3,8.08-4.12,7.08
	C737.59,403.63,737.92,401.35,732.32,402.38z"/>
<path class="st23" d="M749.86,403.3c0,0-1.98,2.28-4.92,2.67C742.01,406.36,741.18,404.46,749.86,403.3z"/>
<linearGradient id="SVGID_12_" gradientUnits="userSpaceOnUse" x1="750.5916" y1="439.3719" x2="805.8062" y2="439.3719">
	<stop  offset="0" style="stop-color:#4ABAB8"/>
	<stop  offset="1" style="stop-color:#70C2AF"/>
</linearGradient>
<path class="st18" d="M750.59,459.13c0,0,12.83-9.49,22.33-29.63c13.32-28.25,15.42,12.36,30.81,18.24
	c10.09,3.86-19.77,11.38-19.77,11.38H750.59z"/>
<linearGradient id="SVGID_13_" gradientUnits="userSpaceOnUse" x1="713.967" y1="435.9231" x2="814.9307" y2="435.9231">
	<stop  offset="0" style="stop-color:#8DCECC"/>
	<stop  offset="1" style="stop-color:#A2D4C9"/>
</linearGradient>
<path class="st19" d="M713.97,459.13c0,0,2.37-63.43,22.33-42c24.56,26.39,25.76,28.49,42.23,28.49c16.47,0,14.31-3.63,26.4-16.62
	c8.05-8.65,10,14.49,10,14.49v15.64H713.97z"/>
<linearGradient id="SVGID_14_" gradientUnits="userSpaceOnUse" x1="721.5757" y1="935.6448" x2="792.0432" y2="935.6448" gradientTransform="matrix(0 1 -1 0 1651.1937 -333.0357)">
	<stop  offset="0" style="stop-color:#8DCECC"/>
	<stop  offset="1" style="stop-color:#A2D4C9"/>
</linearGradient>
<polygon class="st20" points="712.99,459.01 712.99,388.54 718.11,388.54 718.11,459.01 "/>
<linearGradient id="SVGID_15_" gradientUnits="userSpaceOnUse" x1="719.748" y1="837.3793" x2="792.1761" y2="837.3793" gradientTransform="matrix(0 1 -1 0 1651.1937 -333.0357)">
	<stop  offset="0" style="stop-color:#8DCECC"/>
	<stop  offset="1" style="stop-color:#A2D4C9"/>
</linearGradient>
<polygon class="st21" points="811.25,459.14 811.25,386.71 816.38,386.71 816.38,459.14 "/>
<linearGradient id="SVGID_16_" gradientUnits="userSpaceOnUse" x1="845.3366" y1="104.1371" x2="835.5247" y2="113.949">
	<stop  offset="0" style="stop-color:#66B97B"/>
	<stop  offset="1" style="stop-color:#008F7F"/>
</linearGradient>
<circle class="st27" cx="840.62" cy="108.85" r="7.33"/>
<linearGradient id="SVGID_17_" gradientUnits="userSpaceOnUse" x1="829.6005" y1="101.5201" x2="829.6005" y2="144.3033">
	<stop  offset="0" style="stop-color:#66B97B"/>
	<stop  offset="1" style="stop-color:#008F7F"/>
</linearGradient>
<circle class="st29" cx="829.6" cy="126.36" r="16.67"/>
<linearGradient id="SVGID_18_" gradientUnits="userSpaceOnUse" x1="793.9697" y1="137.8157" x2="800.1544" y2="144.0004">
	<stop  offset="0" style="stop-color:#66B97B"/>
	<stop  offset="1" style="stop-color:#008F7F"/>
</linearGradient>
<circle class="st30" cx="797.67" cy="141.51" r="3.4"/>
<linearGradient id="SVGID_19_" gradientUnits="userSpaceOnUse" x1="795.902" y1="140.0428" x2="807.2253" y2="151.1396">
	<stop  offset="0" style="stop-color:#66B97B"/>
	<stop  offset="1" style="stop-color:#008F7F"/>
</linearGradient>
<circle class="st31" cx="803.07" cy="147.06" r="6.79"/>
<linearGradient id="SVGID_20_" gradientUnits="userSpaceOnUse" x1="869.5566" y1="139.853" x2="857.6671" y2="151.7425">
	<stop  offset="0" style="stop-color:#66B97B"/>
	<stop  offset="1" style="stop-color:#008F7F"/>
</linearGradient>
<path class="st32" d="M865.52,138.85c0,0-13.95,8.34-7.61,14.68C864.25,159.87,865.52,138.85,865.52,138.85z"/>
<linearGradient id="SVGID_21_" gradientUnits="userSpaceOnUse" x1="855.7383" y1="145.4925" x2="855.7383" y2="129.7809">
	<stop  offset="0" style="stop-color:#66B97B"/>
	<stop  offset="1" style="stop-color:#008F7F"/>
</linearGradient>
<path class="st33" d="M855.68,131.19c0,0-11.02,17.97,0.08,21.44C866.86,156.1,855.68,131.19,855.68,131.19z"/>
<linearGradient id="SVGID_22_" gradientUnits="userSpaceOnUse" x1="846.8741" y1="143.4456" x2="855.9469" y2="152.5184">
	<stop  offset="0" style="stop-color:#66B97B"/>
	<stop  offset="1" style="stop-color:#008F7F"/>
</linearGradient>
<path class="st34" d="M842.12,138.78c0,0,4.91,20.49,15.22,15.1C867.64,148.49,842.12,138.78,842.12,138.78z"/>
<path class="st11" d="M855.75,177.24h-2.74c-6.62,0-11.99-5.37-11.99-11.99v-14.73h26.72v14.73
	C867.74,171.87,862.37,177.24,855.75,177.24z"/>
<path class="st11" d="M805.75,177.24h-2.74c-6.62,0-11.99-5.37-11.99-11.99v-14.73h26.72v14.73
	C817.74,171.87,812.37,177.24,805.75,177.24z"/>
<path class="st13" d="M831.78,177.24h-4.35c-10.51,0-19.03-8.52-19.03-19.03v-23.38h42.41v23.38
	C850.81,168.72,842.29,177.24,831.78,177.24z"/>
<linearGradient id="SVGID_23_" gradientUnits="userSpaceOnUse" x1="598.6879" y1="181.8148" x2="598.6879" y2="483.4538">
	<stop  offset="0" style="stop-color:#FFE9BF"/>
	<stop  offset="1" style="stop-color:#ED6D4D"/>
</linearGradient>
<rect x="515.92" y="229.86" class="st35" width="165.53" height="107.47"/>
<linearGradient id="SVGID_24_" gradientUnits="userSpaceOnUse" x1="535.3522" y1="255.4444" x2="535.3522" y2="684.1675">
	<stop  offset="0" style="stop-color:#FFE9BF"/>
	<stop  offset="1" style="stop-color:#ED6D4D"/>
</linearGradient>
<rect x="471.6" y="307.02" class="st36" width="127.5" height="97.19"/>
<linearGradient id="SVGID_25_" gradientUnits="userSpaceOnUse" x1="655.91" y1="458.3741" x2="655.91" y2="160.3099">
	<stop  offset="0" style="stop-color:#FFE9BF"/>
	<stop  offset="1" style="stop-color:#ED6D4D"/>
</linearGradient>
<rect x="598.69" y="334.65" class="st37" width="114.44" height="97.19"/>
<g>
	<path class="st28" d="M702.57,396.15h-48.5c-0.77,0-1.39-0.62-1.39-1.39v-1.15c0-0.77,0.62-1.39,1.39-1.39h48.5
		c0.77,0,1.39,0.62,1.39,1.39v1.15C703.96,395.53,703.33,396.15,702.57,396.15z"/>
</g>
<g>
	<path class="st28" d="M692.91,404.5h-38.84c-0.77,0-1.39-0.62-1.39-1.39v-1.15c0-0.77,0.62-1.39,1.39-1.39h38.84
		c0.77,0,1.39,0.62,1.39,1.39v1.15C694.3,403.88,693.68,404.5,692.91,404.5z"/>
</g>
<g>
	<path class="st49" d="M675.46,401.96c0.95,0,1.86,0.14,2.73,0.4v-29.24c-0.71,0.17-1.44,0.27-2.2,0.27c-5.26,0-9.52-4.26-9.52-9.52
		c0-0.63,0.07-1.25,0.18-1.85h-56.33c0.16,0.7,0.26,1.43,0.26,2.18c0,5.26-4.26,9.52-9.52,9.52c-0.75,0-1.48-0.1-2.18-0.26v28.6
		c0.76-0.2,1.56-0.31,2.38-0.31c5.26,0,9.52,4.26,9.52,9.52c0,0.58-0.06,1.14-0.16,1.68h55.43c-0.07-0.48-0.12-0.96-0.12-1.46
		C665.94,406.22,670.2,401.96,675.46,401.96z"/>
	<path class="st22" d="M610.58,364.18c0-0.75-0.1-1.48-0.26-2.18h-4.43c-3.87,0-7.01,3.14-7.01,7.01v4.43
		c0.7,0.16,1.43,0.26,2.18,0.26C606.31,373.7,610.58,369.44,610.58,364.18z"/>
	<path class="st22" d="M675.98,373.38c0.76,0,1.5-0.1,2.2-0.27v-4.1c0-3.87-3.14-7.01-7.01-7.01h-4.53
		c-0.12,0.6-0.18,1.22-0.18,1.85C666.46,369.12,670.72,373.38,675.98,373.38z"/>
	<path class="st22" d="M601.27,401.73c-0.82,0-1.62,0.12-2.38,0.31v3.88c0,3.87,3.14,7.01,7.01,7.01h4.74
		c0.1-0.55,0.16-1.11,0.16-1.68C610.78,405.99,606.52,401.73,601.27,401.73z"/>
	<path class="st22" d="M678.19,405.92v-3.57c-0.87-0.26-1.78-0.4-2.73-0.4c-5.26,0-9.52,4.26-9.52,9.52c0,0.5,0.05,0.98,0.12,1.46
		h5.12C675.05,412.93,678.19,409.79,678.19,405.92z"/>
</g>
<path class="st22" d="M618.58,377.95h-0.79c-1.48,0-2.67-1.2-2.67-2.67v-13.27h6.13v13.27
	C621.25,376.75,620.05,377.95,618.58,377.95z"/>
<path class="st22" d="M659.31,377.95h-0.79c-1.48,0-2.67-1.2-2.67-2.67v-13.27h6.13v13.27
	C661.98,376.75,660.78,377.95,659.31,377.95z"/>
<circle class="st49" cx="618.18" cy="373.86" r="1.52"/>
<circle class="st49" cx="658.92" cy="373.86" r="1.52"/>
<rect x="619.7" y="407.33" class="st22" width="6.13" height="5.6"/>
<rect x="651.27" y="407.33" class="st22" width="6.13" height="5.6"/>
<path class="st22" d="M631.26,362.01h-5.63v-6.66c0-2.71,2.2-4.91,4.91-4.91h0.72V362.01z"/>
<path class="st22" d="M650.68,362.01h-5.34v-11.56h0.68c2.57,0,4.65,2.08,4.65,4.65V362.01z"/>
<rect x="635.7" y="346" transform="matrix(1.109825e-08 -1 1 1.109825e-08 285.2576 991.3439)" class="st49" width="5.2" height="14.09"/>
<linearGradient id="SVGID_26_" gradientUnits="userSpaceOnUse" x1="671.0139" y1="372.037" x2="671.0139" y2="756.0375">
	<stop  offset="0" style="stop-color:#FFE9BF"/>
	<stop  offset="1" style="stop-color:#ED6D4D"/>
</linearGradient>
<polyline class="st38" points="735.76,492.6 606.26,492.6 606.26,412.82 735.76,412.82 "/>
<linearGradient id="SVGID_27_" gradientUnits="userSpaceOnUse" x1="527.636" y1="519.1251" x2="527.636" y2="221.061">
	<stop  offset="0" style="stop-color:#FFE9BF"/>
	<stop  offset="1" style="stop-color:#ED6D4D"/>
</linearGradient>
<rect x="445.05" y="395.4" class="st39" width="165.17" height="97.19"/>
<g>
	<path class="st28" d="M667.24,244.85h-45.56c-0.72,0-1.31-0.59-1.31-1.31v-1.08c0-0.72,0.59-1.31,1.31-1.31h45.56
		c0.72,0,1.31,0.59,1.31,1.31v1.08C668.55,244.26,667.96,244.85,667.24,244.85z"/>
</g>
<g>
	<path class="st28" d="M658.16,252.69h-36.49c-0.72,0-1.31-0.59-1.31-1.31v-1.08c0-0.72,0.59-1.31,1.31-1.31h36.49
		c0.72,0,1.31,0.59,1.31,1.31v1.08C659.47,252.11,658.89,252.69,658.16,252.69z"/>
</g>
<g>
	<g>
		<polygon class="st52" points="568.46,257.23 570.89,249.64 582.07,253.23 576.07,271.91 557.4,265.91 560.96,254.82 		"/>
	</g>
	<g>
		<polyline class="st24" points="570.89,249.64 568.46,257.23 560.96,254.82 		"/>
	</g>
</g>
<g>
	<rect x="618.07" y="421.55" class="st28" width="16.27" height="16.27"/>
</g>
<linearGradient id="SVGID_28_" gradientUnits="userSpaceOnUse" x1="483.1986" y1="-90.1382" x2="490.1586" y2="-62.4916" gradientTransform="matrix(0.9999 0.0159 -0.0159 0.9999 71.453 521.4739)">
	<stop  offset="0" style="stop-color:#58B14B"/>
	<stop  offset="1" style="stop-color:#37A538"/>
</linearGradient>
<path class="st40" d="M552.65,466.99c0,0,10.75-28.19,14.07-23.28S566.71,469.7,552.65,466.99z"/>
<linearGradient id="SVGID_29_" gradientUnits="userSpaceOnUse" x1="-725.8163" y1="100.8166" x2="-718.8564" y2="128.4632" gradientTransform="matrix(-0.9576 0.2882 0.2882 0.9576 -177.601 556.124)">
	<stop  offset="0" style="stop-color:#58B14B"/>
	<stop  offset="1" style="stop-color:#37A538"/>
</linearGradient>
<path class="st41" d="M557.35,469.46c0,0-18.03-24.19-19.89-18.55C535.6,456.54,544.56,475.91,557.35,469.46z"/>
<linearGradient id="SVGID_30_" gradientUnits="userSpaceOnUse" x1="665.5576" y1="25.4932" x2="662.7878" y2="61.3285" gradientTransform="matrix(0.9905 -0.1378 0.1378 0.9905 -110.7771 524.4247)">
	<stop  offset="0" style="stop-color:#58B14B"/>
	<stop  offset="1" style="stop-color:#37A538"/>
</linearGradient>
<path class="st42" d="M546.81,476.12c0,0-13.13-49.07,0.89-51.01C558.72,423.57,572.17,467.27,546.81,476.12z"/>
<path class="st49" d="M551.57,491.52L551.57,491.52c-7.38,0.01-13.37-5.97-13.37-13.35l-0.01-10.96c0-1.33,1.07-2.4,2.4-2.4
	l21.92-0.02c1.33,0,2.4,1.07,2.4,2.4l0.01,10.96C564.92,485.52,558.95,491.51,551.57,491.52z"/>
<g>
	<path class="st28" d="M587.79,370.21h-50.13c-0.79,0-1.44-0.64-1.44-1.44v-1.18c0-0.79,0.64-1.44,1.44-1.44h50.13
		c0.79,0,1.44,0.64,1.44,1.44v1.18C589.23,369.57,588.58,370.21,587.79,370.21z"/>
</g>
<g>
	<path class="st28" d="M577.8,378.84h-40.15c-0.79,0-1.44-0.64-1.44-1.44v-1.18c0-0.79,0.64-1.44,1.44-1.44h40.15
		c0.79,0,1.44,0.64,1.44,1.44v1.18C579.24,378.2,578.6,378.84,577.8,378.84z"/>
</g>
<g>
	<path class="st28" d="M504.55,416.05h-49.22c-0.78,0-1.41-0.63-1.41-1.41v-1.16c0-0.78,0.63-1.41,1.41-1.41h49.22
		c0.78,0,1.41,0.63,1.41,1.41v1.16C505.96,415.42,505.33,416.05,504.55,416.05z"/>
</g>
<g>
	<path class="st28" d="M494.74,424.53h-39.41c-0.78,0-1.41-0.63-1.41-1.41v-1.16c0-0.78,0.63-1.41,1.41-1.41h39.41
		c0.78,0,1.41,0.63,1.41,1.41v1.16C496.16,423.89,495.52,424.53,494.74,424.53z"/>
</g>
<g>
	<g>
		<polygon class="st52" points="663.4,454.92 660.69,446.51 648.3,450.49 654.95,471.2 675.66,464.55 671.71,452.25 		"/>
	</g>
	<g>
		<polyline class="st24" points="660.69,446.51 663.4,454.92 671.71,452.25 		"/>
	</g>
</g>
<g>
	<rect x="479.94" y="316.05" class="st28" width="20.23" height="20.23"/>
</g>
<g>
	<path class="st13" d="M714.26,483.49h-6.47c-4.34,0-7.86-3.52-7.86-7.86v-6.47c0-4.34,3.52-7.86,7.86-7.86h6.47
		c4.34,0,7.86,3.52,7.86,7.86v6.47C722.11,479.97,718.6,483.49,714.26,483.49z"/>
</g>
<path class="st11" d="M736.79,469.48c0-14.21-11.52-25.73-25.73-25.73h0c-14.21,0-25.73,11.52-25.73,25.73v9.11
	c0,7.23-5.86,13.09-13.09,13.09H509.61c-7.23,0-13.09-5.86-13.09-13.09v-8.95c0-14.21-11.52-25.73-25.73-25.73h0
	c-14.21,0-25.73,11.52-25.73,25.73l0,46.15c0,13.24,10.73,23.98,23.98,23.98h27.49h216.37c13.24,0,23.98-10.73,23.98-23.98"/>
<g>
	<path class="st13" d="M471.24,483.49h-2.77c-5.36,0-9.7-4.34-9.7-9.7v-2.77c0-5.36,4.34-9.7,9.7-9.7h2.77c5.36,0,9.7,4.34,9.7,9.7
		v2.77C480.94,479.14,476.59,483.49,471.24,483.49z"/>
</g>
<g>
	<path class="st13" d="M712.41,482.29h-2.77c-5.36,0-9.7-4.34-9.7-9.7v-2.77c0-5.36,4.34-9.7,9.7-9.7h2.77c5.36,0,9.7,4.34,9.7,9.7
		v2.77C722.11,477.95,717.77,482.29,712.41,482.29z"/>
</g>
<rect x="663.68" y="289.97" class="st22" width="39.45" height="44.86"/>
<g>
	<rect x="651.43" y="307.93" class="st56" width="31.01" height="26.97"/>
</g>
<g>
	<rect x="649.41" y="306.63" class="st26" width="35.07" height="12.43"/>
</g>
<polygon class="st11" points="505.99,558.16 500.79,558.16 497.7,539.76 508.99,539.76 "/>
<polygon class="st11" points="670.1,558.16 664.9,558.16 661.81,539.76 673.1,539.76 "/>
<rect x="662.01" y="284.06" class="st23" width="42.95" height="12.89"/>
<linearGradient id="SVGID_31_" gradientUnits="userSpaceOnUse" x1="572.4296" y1="246.8558" x2="572.4296" y2="55.88">
	<stop  offset="0" style="stop-color:#FFE9BF"/>
	<stop  offset="1" style="stop-color:#ED6D4D"/>
</linearGradient>
<rect x="530.96" y="167.58" class="st43" width="82.95" height="62.27"/>
<g>
	<path class="st28" d="M604.35,220.23h-24.66c-0.53,0-0.96-0.43-0.96-0.96s0.43-0.96,0.96-0.96h24.66c0.53,0,0.96,0.43,0.96,0.96
		S604.88,220.23,604.35,220.23z"/>
</g>
<g>
	<path class="st28" d="M593.82,225.83h-14.13c-0.53,0-0.96-0.43-0.96-0.96s0.43-0.96,0.96-0.96h14.13c0.53,0,0.96,0.43,0.96,0.96
		S594.35,225.83,593.82,225.83z"/>
</g>
<linearGradient id="SVGID_32_" gradientUnits="userSpaceOnUse" x1="639.6328" y1="117.2222" x2="639.6328" y2="475.5325">
	<stop  offset="0" style="stop-color:#FFE9BF"/>
	<stop  offset="1" style="stop-color:#ED6D4D"/>
</linearGradient>
<rect x="611.1" y="184.71" class="st44" width="57.07" height="45.14"/>
<rect x="654.74" y="218.31" class="st28" width="8.26" height="8.26"/>
<ellipse transform="matrix(0.6363 -0.7714 0.7714 0.6363 5.4298 493.8322)" class="st22" cx="526.48" cy="241.16" rx="34.05" ry="7.27"/>
<g>
	<path class="st13" d="M511.78,251.83c0.75,0.94,1.61,1.82,2.58,2.63c16.03-11.21,21.9-26.55,21.9-26.55
		c-0.96-0.8-1.99-1.46-3.06-2.02C532.19,228.29,526.09,241.68,511.78,251.83z"/>
	<path class="st23" d="M533.2,225.89c-7.04-3.64-15.91-2.03-21.16,4.34c-5.26,6.37-5.22,15.34-0.25,21.6
		C526.09,241.68,532.19,228.29,533.2,225.89z"/>
	<path class="st23" d="M533.2,225.89c-7.04-3.64-15.91-2.03-21.16,4.34c-5.26,6.37-5.22,15.34-0.25,21.6
		C526.09,241.68,532.19,228.29,533.2,225.89z"/>
</g>
<g>
	<path class="st28" d="M659.29,191.99h-18.38c-0.39,0-0.71-0.32-0.71-0.71s0.32-0.71,0.71-0.71h18.38c0.39,0,0.71,0.32,0.71,0.71
		S659.68,191.99,659.29,191.99z"/>
</g>
<g>
	<path class="st28" d="M651.44,195.21h-10.53c-0.39,0-0.71-0.32-0.71-0.71s0.32-0.71,0.71-0.71h10.53c0.39,0,0.71,0.32,0.71,0.71
		S651.84,195.21,651.44,195.21z"/>
</g>
<rect x="535.36" y="172.81" class="st28" width="11.24" height="11.24"/>
<path class="st23" d="M773.65,407.94c0,0,1.75-2.83,4.88-3.79S782.91,405.12,773.65,407.94z"/>
<linearGradient id="SVGID_33_" gradientUnits="userSpaceOnUse" x1="96.9883" y1="653.3257" x2="116.0745" y2="650.0958" gradientTransform="matrix(-0.7632 0.6462 0.6462 0.7632 432.7963 -155.3689)">
	<stop  offset="0" style="stop-color:#FAB853"/>
	<stop  offset="1" style="stop-color:#FED275"/>
</linearGradient>
<path class="st45" d="M783.41,406.82c0,0-15.93-4.62-17.12,8.1C765.52,423.21,785.62,405.88,783.41,406.82z"/>
<path class="st22" d="M790.74,397.89c0,0-8.05,1.61-9.31,8.25c-1.27,6.64,12.74,5.08,11.56,4.11
	C785.92,404.42,783.34,402.14,790.74,397.89z"/>
<path class="st23" d="M771.58,415.92c0,0,4.47,0.68,8.2-1.71C783.52,411.81,782.62,408.84,771.58,415.92z"/>
<rect x="551.14" y="130.06" transform="matrix(0.8411 0.5408 -0.5408 0.8411 168.6557 -276.3411)" class="st64" width="7.17" height="37.72"/>
<rect x="586.23" y="129.25" transform="matrix(0.8522 -0.5232 0.5232 0.8522 9.5592 330.5503)" class="st64" width="7.17" height="38.21"/>
<path class="st64" d="M559.69,137.98c0-6.93,5.62-12.55,12.55-12.55s12.55,5.62,12.55,12.55"/>
<path class="st64" d="M596.54,167.58c-0.01-3.69,2.99-6.68,6.71-6.69c3.71-0.01,6.73,2.97,6.75,6.65L596.54,167.58z"/>
<path class="st64" d="M534.01,167.57c0-3.72,3.05-6.74,6.8-6.74c3.75,0,6.79,3.02,6.79,6.75L534.01,167.57z"/>
<path class="st22" d="M567.29,140.96h-6.14l-0.06-8.75c0,0,1.97-4.13,6.2-5.76C567.29,126.62,567.29,140.96,567.29,140.96z"/>
<path class="st22" d="M583.17,140.96h-6c0,0,0-14.52,0-14.59c3.75,1.32,6,4.3,6,4.3C583.17,131.47,583.17,140.96,583.17,140.96z"/>
<path class="st22" d="M579.68,135.95h-14.95c-1.76,0-3.27,0.9-3.57,2.14l-4.73,26.58c-0.38,1.57-0.31,3,1.93,3h27.76
	c2.24,0,2.29-1.43,1.91-3l-4.78-26.58C582.95,136.85,581.45,135.95,579.68,135.95z"/>
<polygon class="st64" points="570.09,167.46 559.87,167.43 561.67,193.36 570.09,193.36 "/>
<circle class="st64" cx="564.98" cy="167.58" r="5.12"/>
<polygon class="st64" points="585.51,167.67 575.22,167.67 575.26,194.33 583.25,194.33 "/>
<path class="st49" d="M588.88,193.26c-0.01-3.01-3.06-5.45-6.82-5.44c-3.76,0.01-6.8,2.45-6.8,5.47L588.88,193.26"/>
<polyline class="st65" points="588.88,194.5 575.26,194.53 575.26,193.29 588.87,193.27 "/>
<path class="st49" d="M570.09,193.27c-0.01-3.01-3.06-5.45-6.82-5.44s-6.8,2.45-6.8,5.47L570.09,193.27"/>
<polyline class="st65" points="570.09,194.51 556.48,194.53 556.47,193.29 570.09,193.27 "/>
<circle class="st64" cx="580.36" cy="167.67" r="5.14"/>
<path class="st22" d="M580,147.38c0,4.13-3.35,7.48-7.48,7.48s-7.48-3.35-7.48-7.48"/>
<path class="st23" d="M580.75,147.01c0,4.54-3.68,8.22-8.22,8.22c-4.54,0-8.22-3.68-8.22-8.22"/>
<path class="st28" d="M572.03,130.48L572.03,130.48c2.07,0,3.74-1.68,3.74-3.74v-8.11c0-2.07-1.68-3.74-3.74-3.74h0
	c-2.07,0-3.74,1.68-3.74,3.74v8.11C568.29,128.81,569.96,130.48,572.03,130.48z"/>
<linearGradient id="SVGID_34_" gradientUnits="userSpaceOnUse" x1="718.6584" y1="10.0904" x2="743.5072" y2="10.0904" gradientTransform="matrix(-0.6011 -0.5375 -0.5557 0.6215 994.0853 474.5844)">
	<stop  offset="0" style="stop-color:#055778"/>
	<stop  offset="1" style="stop-color:#3985A9"/>
</linearGradient>
<path class="st46" d="M540.52,93.16l3.72,3.33c4.71,4.21,11.93,3.8,16.14-0.9l5.2-5.81l-3.72-3.33c-4.71-4.21-11.93-3.8-16.14,0.9
	L540.52,93.16z"/>
<g>
	<path class="st64" d="M568.73,98.3c2.75,4.95,7.48,8.78,13.43,10.17c1.6,0.37,3.2,0.53,4.77,0.53l-2.04,5.5
		c-2.49,6.74-9.61,10.56-16.61,8.93c-6.91-1.62-11.58-8.07-10.95-15.15l0.73-8.17c0.1,0.03,0.2,0.06,0.31,0.09
		C562.09,101.07,565.79,100.26,568.73,98.3z"/>
	<path class="st64" d="M568.73,98.3c2.68-1.8,4.72-4.56,5.51-7.94c0.4-1.71,0.44-3.42,0.18-5.06c0.42,0.06,0.84,0.14,1.27,0.24
		l2.62,0.61c8.35,1.95,13.1,10.78,10.12,18.82l-1.49,4.04c-1.57,0-3.17-0.16-4.77-0.53C576.2,107.08,571.47,103.25,568.73,98.3z"/>
	<path class="st64" d="M566.15,86.63c-0.31,4.15,0.65,8.18,2.58,11.66c-2.93,1.97-6.64,2.77-10.35,1.9
		c-0.11-0.02-0.2-0.06-0.31-0.09l0.18-1.98C558.71,92.95,561.87,88.75,566.15,86.63z"/>
	
		<linearGradient id="SVGID_35_" gradientUnits="userSpaceOnUse" x1="634.3199" y1="73.4028" x2="660.7183" y2="73.4028" gradientTransform="matrix(-0.9737 -0.2276 -0.2276 0.9737 1207.3102 168.8204)">
		<stop  offset="0" style="stop-color:#055778"/>
		<stop  offset="1" style="stop-color:#3985A9"/>
	</linearGradient>
	<path class="st47" d="M566.15,86.63c-0.31,4.15,0.65,8.18,2.58,11.66c-2.93,1.97-6.64,2.77-10.35,1.9
		c-0.11-0.02-0.2-0.06-0.31-0.09l0.18-1.98C558.71,92.95,561.87,88.75,566.15,86.63z"/>
	<path class="st64" d="M568.73,98.3c-1.93-3.48-2.89-7.51-2.58-11.66c2.48-1.23,5.34-1.76,8.26-1.34c0.26,1.64,0.22,3.35-0.18,5.06
		C573.44,93.74,571.4,96.5,568.73,98.3z"/>
	
		<linearGradient id="SVGID_36_" gradientUnits="userSpaceOnUse" x1="601.6469" y1="69.7035" x2="643.3091" y2="69.7035" gradientTransform="matrix(-0.9737 -0.2276 -0.2276 0.9737 1207.3102 168.8204)">
		<stop  offset="0" style="stop-color:#055778"/>
		<stop  offset="1" style="stop-color:#3985A9"/>
	</linearGradient>
	<path class="st48" d="M568.73,98.3c-1.93-3.48-2.89-7.51-2.58-11.66c2.48-1.23,5.34-1.76,8.26-1.34c0.26,1.64,0.22,3.35-0.18,5.06
		C573.44,93.74,571.4,96.5,568.73,98.3z"/>
	
		<linearGradient id="SVGID_37_" gradientUnits="userSpaceOnUse" x1="620.5629" y1="81.1904" x2="636.4336" y2="64.5536" gradientTransform="matrix(-0.9737 -0.2276 -0.2276 0.9737 1207.3102 168.8204)">
		<stop  offset="0" style="stop-color:#055778"/>
		<stop  offset="1" style="stop-color:#3985A9"/>
	</linearGradient>
	<path class="st50" d="M574.41,85.29c0.42,0.06,0.84,0.14,1.27,0.24l2.62,0.61c8.35,1.95,13.1,10.78,10.12,18.82l-1.49,4.04
		c-1.57,0-3.17-0.16-4.77-0.53c-5.95-1.39-10.68-5.22-13.43-10.17c-1.93-3.48-2.89-7.51-2.58-11.66
		C568.63,85.41,571.49,84.88,574.41,85.29z"/>
</g>
<linearGradient id="SVGID_38_" gradientUnits="userSpaceOnUse" x1="948.3986" y1="214.5904" x2="973.2474" y2="214.5904" gradientTransform="matrix(0.7378 -0.3255 0.3365 0.7628 -180.0988 248.0103)">
	<stop  offset="0" style="stop-color:#055778"/>
	<stop  offset="1" style="stop-color:#3985A9"/>
</linearGradient>
<path class="st51" d="M607.44,106.64l-4.57,2.02c-5.78,2.55-12.52-0.07-15.07-5.84l-3.15-7.14l4.57-2.02
	c5.78-2.55,12.52,0.07,15.07,5.84L607.44,106.64z"/>
<circle class="st64" cx="586.14" cy="111.5" r="4.39"/>
<circle class="st28" cx="584.29" cy="111.77" r="1.93"/>
<path class="st52" d="M586.63,98.01l2.11-3.66c0.31-0.55,0.13-1.24-0.42-1.56l-0.86-0.5c-0.54-0.31-1.24-0.13-1.56,0.42l-2.11,3.66
	c-0.31,0.55-0.13,1.24,0.42,1.56l0.86,0.5C585.62,98.74,586.32,98.55,586.63,98.01z"/>
<g>
	<path class="st73" d="M562.7,117.37c-0.83-1.01-1.64-2.37-2.39-4.14c-0.18-0.43-0.15-0.86,0.03-1.23c0.47-0.99,1.8-1.13,2.59-0.37
		c2.55,2.46,6.04,2.57,9.97,1.62c0.77-0.19,1.6,0.17,1.9,0.9l0.01,0.02c-0.4-0.02-0.81-0.04-1.22-0.04
		C569.56,114.11,565.82,115.31,562.7,117.37z"/>
	<path class="st74" d="M574.5,115.96c-2.32,2.66-7.43,6.72-11.79,1.41c3.12-2.06,6.86-3.26,10.87-3.26c0.41,0,0.82,0.02,1.22,0.04
		C575.03,114.72,574.97,115.42,574.5,115.96z"/>
</g>
<path class="st75" d="M565.26,102.73c0.27,0.15,0.58-0.12,0.44-0.39c-0.5-1.02-1.5-2.16-3.34-0.95
	C559.83,103.05,563.22,101.57,565.26,102.73z"/>
<path class="st75" d="M571.7,104.47c-0.31,0.02-0.47-0.35-0.23-0.55c0.89-0.71,2.28-1.31,3.43,0.57
	C576.47,107.09,574.04,104.3,571.7,104.47z"/>
<path class="st28" d="M566.21,111.13c-0.84-0.17-1.1-1.25-0.39-1.69c0.5-0.31,1.12-0.43,1.75-0.3c0.61,0.13,1.11,0.46,1.44,0.91
	c0.52,0.7-0.11,1.64-0.99,1.46L566.21,111.13z"/>
<circle class="st73" cx="562.87" cy="106.2" r="1.22"/>
<circle class="st73" cx="572.43" cy="108.17" r="1.22"/>
<path class="st26" d="M840.42,373.49l-2.34-15.64c-0.25-1.67-2.39-2.2-3.4-0.85l-5.13,6.93c-0.59,0.8-0.46,1.92,0.29,2.57l7.47,8.71
	C838.65,376.35,840.68,375.22,840.42,373.49z"/>
<path class="st26" d="M811.73,377.44l-2.15-14.37c-0.23-1.53,1.51-2.58,2.76-1.66l6.37,4.71c0.73,0.54,0.92,1.56,0.43,2.33
	l-4.22,9.66C814.05,379.48,811.97,379.04,811.73,377.44z"/>
<g>
	<path class="st56" d="M826.98,407.59l23.35,1.06c7.01,0.32,12.96-5.11,13.27-12.12l0.19-4.13c0.32-7.01-5.11-12.96-12.12-13.27
		l-23.35-1.06c-7.01-0.32-12.96,5.11-13.27,12.12l-0.19,4.13C814.54,401.33,819.96,407.28,826.98,407.59z"/>
</g>
<path class="st76" d="M839.13,378.21l-2.34-15.64c-0.25-1.67-2.39-2.2-3.4-0.85l-5.13,6.93c-0.59,0.8-0.46,1.92,0.29,2.57l7.47,8.71
	C837.36,381.07,839.39,379.95,839.13,378.21z"/>
<g>
	<path class="st56" d="M854.99,407.22c5.25,0,13.96-0.96,20.36-6.52c5.15-4.47,7.76-10.92,7.76-19.17c0-1.91-1.55-3.46-3.46-3.46
		c-1.91,0-3.46,1.55-3.46,3.46c0,6.14-1.8,10.83-5.35,13.93c-7.15,6.24-19.3,4.66-19.43,4.64c-1.89-0.26-3.64,1.06-3.9,2.95
		c-0.26,1.89,1.05,3.64,2.94,3.91C850.64,406.99,852.39,407.22,854.99,407.22z"/>
</g>
<path class="st76" d="M814.12,381.37L811.97,367c-0.23-1.53,1.51-2.58,2.76-1.66l6.37,4.71c0.73,0.54,0.92,1.56,0.43,2.33
	l-4.22,9.66C816.45,383.41,814.36,382.97,814.12,381.37z"/>
<g>
	
		<linearGradient id="SVGID_39_" gradientUnits="userSpaceOnUse" x1="976.725" y1="445.8116" x2="976.725" y2="407.2334" gradientTransform="matrix(0.9863 -0.1647 0.1647 0.9863 -202.9484 142.8302)">
		<stop  offset="0" style="stop-color:#3F95B7"/>
		<stop  offset="1" style="stop-color:#60A3BF"/>
	</linearGradient>
	<path class="st53" d="M843.42,390.72l-2.78-16.67c-1.2-7.17-7.46-12.21-14.51-12.12c0,0.01,0.01,0.03,0.02,0.04l0.72,4.34
		c0.11,0.63-0.32,1.23-0.95,1.34l-1.19,0.2c-0.63,0.11-1.23-0.32-1.34-0.95l-0.75-4.5c-0.65,0.17-1.27,0.38-1.88,0.63l0.7,4.19
		c0.11,0.63-0.32,1.23-0.95,1.34l-1.19,0.2c-0.63,0.11-1.23-0.32-1.34-0.95l-0.48-2.9c-4.13,3.16-6.43,8.44-5.51,13.93l2.78,16.67
		c1.32,7.91,8.81,13.26,16.72,11.94h0C839.4,406.12,844.74,398.64,843.42,390.72z"/>
	<path class="st56" d="M819.32,368.76l1.19-0.2c0.63-0.11,1.06-0.7,0.95-1.34l-0.7-4.19c-1.18,0.49-2.28,1.12-3.26,1.87l0.48,2.9
		C818.09,368.44,818.68,368.86,819.32,368.76z"/>
	<path class="st56" d="M824.72,367.86l1.19-0.2c0.63-0.11,1.06-0.7,0.95-1.34l-0.72-4.34c0-0.02-0.01-0.03-0.02-0.04
		c-0.73,0.01-1.46,0.06-2.21,0.18c-0.44,0.07-0.86,0.17-1.28,0.28l0.75,4.5C823.49,367.53,824.09,367.96,824.72,367.86z"/>
</g>
<g>
	<path class="st78" d="M820.96,384.39c-0.54,0.09-1.07,0.06-1.59-0.1c-1.32-0.39-2.31-1.51-2.53-2.86
		c-0.07-0.44,0.22-0.85,0.66-0.92c0.44-0.07,0.85,0.22,0.92,0.66c0.12,0.75,0.67,1.37,1.4,1.59c0.28,0.08,0.58,0.1,0.88,0.05
		c1.08-0.18,1.82-1.2,1.64-2.28c-0.07-0.44,0.22-0.85,0.66-0.92s0.85,0.22,0.92,0.66C824.24,382.23,822.91,384.08,820.96,384.39z"/>
</g>
<g>
	<path class="st78" d="M826.31,383.26c-1.95,0.32-3.8-1.01-4.12-2.96c-0.07-0.44,0.22-0.85,0.66-0.92c0.44-0.07,0.85,0.22,0.92,0.66
		c0.18,1.08,1.2,1.82,2.28,1.64c0.3-0.05,0.57-0.16,0.81-0.33c0.62-0.44,0.95-1.2,0.83-1.95c-0.07-0.44,0.22-0.85,0.66-0.92
		s0.85,0.22,0.92,0.66c0.22,1.35-0.36,2.74-1.49,3.52C827.35,382.97,826.85,383.17,826.31,383.26z"/>
</g>
<path class="st78" d="M825.16,378.46l-1.25,1.74c-0.39,0.55-1.15,0.67-1.7,0.28l-1.74-1.25c-0.88-0.63-0.56-2.02,0.51-2.19
	l2.99-0.49C825.05,376.37,825.8,377.58,825.16,378.46z"/>
<circle class="st78" cx="826.06" cy="372.63" r="1.55"/>
<g>
	<path class="st56" d="M849.29,420.4c-1.8,0-3.33-1.38-3.48-3.21c-0.88-10.46,5.84-23.76,6.12-24.32c0.88-1.72,2.98-2.41,4.71-1.53
		c1.72,0.88,2.4,2.98,1.53,4.71l0,0c-0.06,0.12-6.1,12.1-5.38,20.55c0.16,1.93-1.27,3.62-3.19,3.78
		C849.49,420.39,849.39,420.4,849.29,420.4z"/>
</g>
<g>
	<path class="st56" d="M864.16,420.4c-0.95,0-1.9-0.38-2.59-1.14c-7.07-7.75-9.85-22.4-9.97-23.01c-0.35-1.9,0.9-3.73,2.8-4.08
		s3.73,0.9,4.08,2.8c0.04,0.22,2.56,13.32,8.26,19.58c1.3,1.43,1.2,3.64-0.23,4.94C865.85,420.1,865,420.4,864.16,420.4z"/>
</g>
<circle class="st78" cx="817.5" cy="374.07" r="1.55"/>
<g>
	<path class="st26" d="M830.78,421.09c-0.79,0-1.58-0.23-2.27-0.71c-1.82-1.26-2.27-3.75-1.01-5.57c3.96-5.72,5.31-16.55,5.49-20.24
		c0.11-2.21,2-3.9,4.19-3.8c2.21,0.11,3.9,1.99,3.79,4.19c-0.03,0.63-0.85,15.65-6.91,24.4
		C833.29,420.49,832.04,421.09,830.78,421.09z"/>
</g>
<g>
	<path class="st56" d="M798.25,386.71c0-3.69,2.99-6.67,6.67-6.67c3.69,0,6.67,2.99,6.67,6.67H798.25z"/>
</g>
<ellipse transform="matrix(0.9814 -0.1918 0.1918 0.9814 -76.2019 46.2446)" class="st28" cx="200.73" cy="416.67" rx="10.54" ry="10.86"/>
<polygon class="st28" points="204.9,410.28 190.14,396.57 178.52,409.87 192.81,423.75 "/>
<rect x="204.75" y="384.25" transform="matrix(-0.758 -0.6523 0.6523 -0.758 112.0533 849.874)" class="st28" width="17.89" height="39.8"/>
<rect x="160.77" y="386.53" transform="matrix(0.7071 0.7071 -0.7071 0.7071 331.4579 -9.2328)" class="st24" width="32.2" height="17.91"/>
<circle class="st24" cx="168.13" cy="384.41" r="11.41"/>
<path class="st52" d="M109.46,440.91h54.68l11.75-54.21c1.53-6.71-5.44-12.92-14.51-12.92l-53.71,0.07
	c-9.26,0-16.19,6.37-14.35,13.18L109.46,440.91z"/>
<path class="st26" d="M114.91,470.37h43.79c3.01,0,5.44-2.44,5.44-5.44V443.6c0-3.01-2.44-5.44-5.44-5.44h-43.79
	c-3.01,0-5.44,2.44-5.44,5.44v21.32C109.46,467.93,111.9,470.37,114.91,470.37z"/>
<rect x="109.46" y="408.35" transform="matrix(-1 -4.477320e-11 4.477320e-11 -1 273.6082 851.1755)" class="st26" width="54.68" height="34.48"/>
<rect x="109.46" y="440.91" transform="matrix(-1 -4.497304e-11 4.497304e-11 -1 273.6082 887.5682)" class="st78" width="54.68" height="5.74"/>
<rect x="117.25" y="439.91" transform="matrix(-1 -4.374424e-11 4.374424e-11 -1 237.2516 887.0222)" class="st26" width="2.74" height="7.21"/>
<rect x="151.83" y="440.91" transform="matrix(-1 -4.374424e-11 4.374424e-11 -1 306.3967 888.433)" class="st26" width="2.74" height="6.61"/>
<path class="st26" d="M143.8,504.38h16.99c1.81,0,3.28-1.47,3.28-3.28v-51.16c0-1.81-1.47-3.28-3.28-3.28H143.8
	c-1.81,0-3.28,1.47-3.28,3.28v51.16C140.51,502.91,141.98,504.38,143.8,504.38z"/>
<path class="st26" d="M112.83,556.27h16.98c1.81,0,3.28-1.47,3.28-3.28V503c0-1.81-1.47-3.28-3.28-3.28h-16.98
	c-1.81,0-3.28,1.47-3.28,3.28v49.98C109.55,554.8,111.02,556.27,112.83,556.27z"/>
<path class="st26" d="M112.83,504.38h16.98c1.81,0,3.28-1.47,3.28-3.28v-51.16c0-1.81-1.47-3.28-3.28-3.28h-16.98
	c-1.81,0-3.28,1.47-3.28,3.28v51.16C109.55,502.91,111.02,504.38,112.83,504.38z"/>
<path class="st56" d="M121.33,450.81h-11.9c0,10.02,0,18.14,0,18.14C116,468.95,121.33,460.83,121.33,450.81z"/>
<path class="st56" d="M143.8,556.73h16.99c1.81,0,3.28-1.47,3.28-3.28V503c0-1.81-1.47-3.28-3.28-3.28H143.8
	c-1.81,0-3.28,1.47-3.28,3.28v50.44C140.51,555.26,141.98,556.73,143.8,556.73z"/>
<path class="st78" d="M133.32,555.87c-0.02-6.21-5.38-11.24-11.98-11.23c-6.6,0.01-11.93,5.05-11.92,11.26L133.32,555.87"/>
<polyline class="st56" points="133.33,558.4 109.44,558.43 109.43,555.88 133.32,555.85 "/>
<path class="st78" d="M164.07,555.81c-0.02-6.17-5.3-11.17-11.8-11.16c-6.5,0.01-11.76,5.02-11.74,11.19L164.07,555.81"/>
<path class="st56" d="M152.17,450.81h11.9c0,10.02,0,18.14,0,18.14C157.5,468.95,152.17,460.83,152.17,450.81z"/>
<polyline class="st56" points="164.07,558.4 140.53,558.43 140.52,555.89 164.06,555.86 "/>
<rect x="155.77" y="373.78" transform="matrix(-1 -4.453827e-11 4.453827e-11 -1 319.9193 784.3352)" class="st26" width="8.37" height="36.77"/>
<rect x="109.46" y="373.86" transform="matrix(-1 -4.478741e-11 4.478741e-11 -1 227.9003 785.7422)" class="st26" width="8.98" height="38.02"/>
<circle class="st22" cx="137.04" cy="392.71" r="1.5"/>
<path class="st24" d="M145.15,393.97h7.99c0.86,0,1.56-0.7,1.56-1.56l0,0c0-0.86-0.7-1.56-1.56-1.56h-7.99
	c-0.86,0-1.56,0.7-1.56,1.56l0,0C143.6,393.27,144.29,393.97,145.15,393.97z"/>
<path class="st56" d="M121.29,412.84c0,8.2,6.65,14.85,14.85,14.85c8.2,0,14.85-6.65,14.85-14.85"/>
<ellipse transform="matrix(0.3762 -0.9265 0.9265 0.3762 -327.3837 375.6207)" class="st64" cx="115.27" cy="430.95" rx="9.93" ry="9.64"/>
<polygon class="st64" points="123.86,428.99 117.37,405.95 99.89,411.22 106.12,434.33 "/>
<path class="st78" d="M124.65,442.27l25.07,7.37c2.65,0.78,5.43-0.74,6.21-3.39l11.45-38.98c0.78-2.65-0.74-5.43-3.39-6.21
	l-25.07-7.37c-2.65-0.78-5.43,0.74-6.21,3.39l-11.45,38.98C120.48,438.71,122,441.49,124.65,442.27z"/>
<linearGradient id="SVGID_40_" gradientUnits="userSpaceOnUse" x1="1155.7448" y1="461.8226" x2="1152.361" y2="404.5032" gradientTransform="matrix(-1 0 0 1 1298.3904 0)">
	<stop  offset="0" style="stop-color:#016A89"/>
	<stop  offset="1" style="stop-color:#3F95B7"/>
</linearGradient>
<path class="st54" d="M129.8,437.11l19.07,5.6c2.65,0.78,5.43-0.74,6.21-3.39l8.7-29.62c0.78-2.65-0.74-5.43-3.39-6.21l-19.07-5.6
	c-2.65-0.78-5.43,0.74-6.21,3.39l-8.7,29.62C125.64,433.55,127.15,436.33,129.8,437.11z"/>
<polygon class="st52" points="118.85,411.22 108.46,373.86 94.45,391.09 101.11,415.97 "/>
<polygon class="st64" points="154.35,411.28 111.87,423.76 118.44,440.15 154.43,429.59 "/>
<circle class="st26" cx="152.29" cy="500.12" r="11.78"/>
<circle class="st26" cx="121.18" cy="501.33" r="11.78"/>
<circle class="st56" cx="138.19" cy="442.8" r="1.75"/>
<circle class="st28" cx="227.89" cy="385.53" r="10.85"/>
<path class="st28" d="M216.02,374.68c-4.24,4.24-4.24,11.11,0,15.34c4.24,4.24,11.11,4.24,15.34,0"/>
<circle class="st64" cx="159.25" cy="421.06" r="10.98"/>
<circle class="st52" cx="103.71" cy="384.27" r="11.56"/>
<path class="st28" d="M137.9,383.52L137.9,383.52c-4.27,0.14-7.85-3.21-7.99-7.49l-0.41-12.52c-0.14-4.27,3.21-7.85,7.49-7.99h0
	c4.27-0.14,7.85,3.21,7.99,7.49l0.41,12.52C145.52,379.81,142.17,383.38,137.9,383.52z"/>
<path class="st24" d="M129.74,371.81l7.59,11.75l-2.8,4.59c-0.68,1.11-2.3,1.04-2.89-0.11l-7.37-14.11L129.74,371.81z"/>
<path class="st24" d="M145.32,372.11l-8,11.47l2.63,4.68c0.64,1.13,2.27,1.13,2.89-0.01l7.95-14.47L145.32,372.11z"/>
<path class="st64" d="M154.34,355.32c0.14-4.7-2.43-8.84-6.28-10.96l-3.99-9.65c-3.47-9.82-7.62-11.45-13.39-10.06l-3.33,0.8
	c-5.76,1.38-12.88,7.49-10.92,15.89l4.49,19.21c1.47,6.25,7.33,10.19,13.09,8.81l9.89-2.37c0.08-0.02,0.15-0.05,0.23-0.07
	C149.78,366.03,154.17,361.24,154.34,355.32z"/>
<path class="st75" d="M131.43,343.16c0.97-0.34,0.84-1.79-0.19-1.91c-1.06-0.13-2.17,0.15-3.07,0.88c-0.9,0.72-1.41,1.75-1.51,2.82
	c-0.1,1.03,1.29,1.47,1.83,0.59C129.18,344.39,130.16,343.6,131.43,343.16z"/>
<path class="st75" d="M142.85,340.84c0.93,0.45,1.86-0.67,1.22-1.48c-0.66-0.84-1.65-1.43-2.8-1.55s-2.24,0.24-3.06,0.92
	c-0.79,0.66-0.13,1.95,0.88,1.71C140.39,340.12,141.65,340.25,142.85,340.84z"/>
<circle class="st73" cx="133.85" cy="347.3" r="1.44"/>
<circle class="st73" cx="142.75" cy="344.69" r="1.43"/>
<ellipse transform="matrix(0.0295 -0.9996 0.9996 0.0295 -235.6629 459.2218)" class="st64" cx="118.65" cy="350.97" rx="4.71" ry="4.66"/>
<ellipse transform="matrix(0.0295 -0.9996 0.9996 0.0295 -236.1632 459.8629)" class="st28" cx="118.73" cy="351.55" rx="1.93" ry="1.91"/>
<g>
	<path class="st73" d="M144.24,363.92c5.7-3.96,4.04-13.75,0.43-9.31c-4.31,5.32-12.5,1.75-12.5,1.75
		c-2.24-1.16-3.32,1.09-2.54,3.66c1.51-0.53,3.14-0.8,4.83-0.75C138.39,359.38,141.87,361.17,144.24,363.92z"/>
	<path class="st74" d="M139.98,365.43c1.74-0.17,3.14-0.73,4.26-1.51c-2.37-2.75-5.85-4.54-9.77-4.66c-1.7-0.05-3.32,0.22-4.83,0.75
		C130.5,362.85,133.64,366.06,139.98,365.43z"/>
</g>
<path class="st28" d="M138.07,350.47c-0.22-1.61,1.03-2.4,2.28-1.36c1.34,1.11,2.69,2.49,2.18,3.16c-0.93,1.24-3.08,1.54-3.62,1.1
	C138.66,353.16,138.26,351.84,138.07,350.47z"/>
<linearGradient id="SVGID_41_" gradientUnits="userSpaceOnUse" x1="4191.8267" y1="48.1388" x2="4199.1563" y2="48.1388" gradientTransform="matrix(-0.9757 0.219 0.219 0.9757 4202.4751 -627.94)">
	<stop  offset="0" style="stop-color:#1C617D"/>
	<stop  offset="1" style="stop-color:#6395B4"/>
</linearGradient>
<path class="st55" d="M117.54,346.4L117.54,346.4c2.85-0.65,6.2-5.72,5.56-8.6l-1.93-8.71l-5.4,9.16L117.54,346.4z"/>
<linearGradient id="SVGID_42_" gradientUnits="userSpaceOnUse" x1="-114.3887" y1="197.1644" x2="-116.1781" y2="220.6817" gradientTransform="matrix(0.9501 0.3119 0.3119 -0.9501 185.4153 563.6802)">
	<stop  offset="0" style="stop-color:#1C617D"/>
	<stop  offset="1" style="stop-color:#6395B4"/>
</linearGradient>
<path class="st57" d="M146.23,332.96c0.9,3.27-4.48,4.97-7.67,3.91c-3.19-1.06-4.94-4.53-3.89-7.76
	C134.66,329.11,145.7,331.03,146.23,332.96z"/>
<path class="st52" d="M116.04,338.23c-1.58-6.77,3.72-13.83,10.49-15.45c7.56-1.81,14.31,1.28,16.26,8.13L116.04,338.23z"/>
<linearGradient id="SVGID_43_" gradientUnits="userSpaceOnUse" x1="4256.1606" y1="238.4334" x2="4255.1128" y2="252.2041" gradientTransform="matrix(-0.9933 0.1159 0.1159 0.9933 4328.6143 -405.6678)">
	<stop  offset="0" style="stop-color:#1C617D"/>
	<stop  offset="1" style="stop-color:#6395B4"/>
</linearGradient>
<path class="st58" d="M126.55,331.29l6.96-1.75c0.96-0.24,1.54-1.21,1.3-2.17l0,0c-0.24-0.97-1.22-1.55-2.18-1.31l-6.96,1.75
	c-0.96,0.24-1.54,1.21-1.3,2.17l0,0C124.6,330.94,125.58,331.53,126.55,331.29z"/>
<circle class="st52" cx="127.11" cy="322.8" r="2.25"/>
<path class="st24" d="M135.65,332.79c0,0-13.11,12.62-23.89,12.3c-7.59-0.22,4-6.84,4-6.84L135.65,332.79z"/>
<path class="st25" d="M420.12,344.53c4.91,0,9.11-3.4,10.36-7.91c-2.99-1.96-6.69-3.14-10.59-3.14c-3.74,0-7,0.93-10.2,2.9
	C410.85,341.03,415.11,344.53,420.12,344.53z"/>
<circle class="st11" cx="411.31" cy="400.05" r="9.38"/>
<rect x="391.91" y="339.53" transform="matrix(0.6728 0.7398 -0.7398 0.6728 393.851 -176.6169)" class="st64" width="9.4" height="34.91"/>
<rect x="397.88" y="342.17" transform="matrix(0.6728 0.7398 -0.7398 0.6728 391.7873 -182.8101)" class="st49" width="9.4" height="18.77"/>
<rect x="439.15" y="336.36" transform="matrix(-0.6116 0.7912 -0.7912 -0.6116 995.241 219.0488)" class="st28" width="9.4" height="34.91"/>
<rect x="433.27" y="339.88" transform="matrix(-0.6116 0.7912 -0.7912 -0.6116 982.1661 216.3748)" class="st83" width="9.4" height="18.77"/>
<circle class="st64" cx="458.73" cy="364.47" r="5.47"/>
<polygon class="st84" points="441.78,476.81 423.19,476.81 423.19,408.36 441.2,408.26 "/>
<rect x="399.39" y="408.36" class="st84" width="18.59" height="68.79"/>
<circle class="st84" cx="430.61" cy="476.78" r="9.3"/>
<polygon class="st64" points="430.69,553.2 421.24,553.2 421.4,476.81 439.99,476.81 "/>
<polygon class="st28" points="421.13,552.45 412.03,553.3 395.65,478.45 414.16,476.71 "/>
<circle class="st64" cx="405.58" cy="477.14" r="9.3"/>
<path class="st49" d="M454.72,462.68L437,390.69c-0.97-2.75-2.91-4.93-5.34-6.24c2.28-0.94,3.93-2.81,4.22-5.05l2.48-21.44
	c0.51-1.72,0.79-3.54,0.79-5.42c0-0.39-0.02-0.77-0.04-1.16c0.1-0.93-0.03-1.83-0.34-2.65c-1.77-8.7-9.5-15.25-18.77-15.25
	c-9.76,0-17.81,7.27-18.99,16.67c-0.01,0.08-0.02,0.17-0.03,0.25c-0.08,0.7-0.12,1.42-0.12,2.14c0,2.08,0.34,4.09,0.96,5.97
	l2.5,20.99c0.33,2.29,2.09,4.16,4.47,5.06c-2.4,1.34-4.3,3.56-5.22,6.31l-16.79,71.99c-2.47,7.39,2.95,15.06,10.65,15.06h46.71
	C451.91,477.91,457.34,470.11,454.72,462.68z"/>
<path class="st52" d="M406.42,556.92c0.01-4.28,4.35-7.74,9.69-7.73s9.66,3.48,9.65,7.76L406.42,556.92"/>
<polyline class="st24" points="406.42,558.16 425.76,558.19 425.76,556.43 406.42,556.4 "/>
<path class="st52" d="M417.99,556.92c0.01-4.28,4.35-7.74,9.69-7.73s9.66,3.48,9.65,7.76L417.99,556.92"/>
<polyline class="st24" points="417.99,558.16 437.33,558.19 437.33,556.43 417.99,556.4 "/>
<circle class="st64" cx="477.09" cy="333.21" r="7.23"/>
<polygon class="st64" points="456.1,360.1 464.17,364.92 479.39,339.98 470.45,336.01 "/>
<circle class="st28" cx="400.39" cy="395.73" r="7.23"/>
<polygon class="st22" points="435.46,387.76 404.89,387.76 404.89,381.25 435.4,381.4 "/>
<g>
	<path class="st64" d="M420.12,344.53c4.91,0,9.11-3.4,10.36-7.91c-3-1.95-6.69-3.16-10.59-3.14c-3.74,0.02-6.91,0.9-10.2,2.9
		C410.85,341.03,415.11,344.53,420.12,344.53z"/>
</g>
<path class="st22" d="M419.57,344.52c-8.17-0.57-9.88-8.13-9.88-8.13s-4.5,4.66-0.2,8.96S419.57,344.52,419.57,344.52z"/>
<path class="st22" d="M420.6,344.53c8.18-0.6,9.88-7.91,9.88-7.91s4.5,4.65,0.19,8.95S420.6,344.53,420.6,344.53z"/>
<circle class="st22" cx="420.09" cy="348.91" r="1.42"/>
<circle class="st22" cx="420.09" cy="356.57" r="1.42"/>
<linearGradient id="SVGID_44_" gradientUnits="userSpaceOnUse" x1="347.7808" y1="316.0927" x2="378.0187" y2="316.0927" gradientTransform="matrix(0.997 0.0771 -0.0771 0.997 92.4523 -25.355)">
	<stop  offset="0" style="stop-color:#1C617D"/>
	<stop  offset="1" style="stop-color:#6395B4"/>
</linearGradient>
<circle class="st59" cx="429.91" cy="317.77" r="15.12"/>
<linearGradient id="SVGID_45_" gradientUnits="userSpaceOnUse" x1="362.5767" y1="323.7273" x2="327.5152" y2="310.641" gradientTransform="matrix(0.997 0.0771 -0.0771 0.997 92.4523 -25.355)">
	<stop  offset="0" style="stop-color:#1C617D"/>
	<stop  offset="1" style="stop-color:#6395B4"/>
</linearGradient>
<circle class="st60" cx="409.19" cy="316.17" r="15.12"/>
<linearGradient id="SVGID_46_" gradientUnits="userSpaceOnUse" x1="382.8614" y1="279.0162" x2="346.3802" y2="303.2753" gradientTransform="matrix(0.997 0.0771 -0.0771 0.997 92.4523 -25.355)">
	<stop  offset="0" style="stop-color:#1C617D"/>
	<stop  offset="1" style="stop-color:#6395B4"/>
</linearGradient>
<circle class="st61" cx="431.55" cy="294.14" r="15.12"/>
<linearGradient id="SVGID_47_" gradientUnits="userSpaceOnUse" x1="406.8676" y1="318.954" x2="360.2012" y2="308.9541" gradientTransform="matrix(0.997 0.0771 -0.0771 0.997 92.4523 -25.355)">
	<stop  offset="0" style="stop-color:#1C617D"/>
	<stop  offset="1" style="stop-color:#6395B4"/>
</linearGradient>
<circle class="st62" cx="438.83" cy="313.72" r="15.12"/>
<linearGradient id="SVGID_48_" gradientUnits="userSpaceOnUse" x1="347.9569" y1="307.1772" x2="329.4385" y2="314.0908" gradientTransform="matrix(0.997 0.0771 -0.0771 0.997 92.4523 -25.355)">
	<stop  offset="0" style="stop-color:#1C617D"/>
	<stop  offset="1" style="stop-color:#6395B4"/>
</linearGradient>
<circle class="st63" cx="404.18" cy="311.04" r="15.12"/>
<linearGradient id="SVGID_49_" gradientUnits="userSpaceOnUse" x1="356.1642" y1="276.0394" x2="345.0531" y2="295.4837" gradientTransform="matrix(0.997 0.0771 -0.0771 0.997 92.4523 -25.355)">
	<stop  offset="0" style="stop-color:#1C617D"/>
	<stop  offset="1" style="stop-color:#6395B4"/>
</linearGradient>
<circle class="st66" cx="413.2" cy="296.58" r="15.12"/>
<path class="st28" d="M419.74,339.95h-0.34c-1.87,0-3.46-1.34-4.1-3.23c-0.19-0.57-0.3-1.19-0.3-1.85v-10.7
	c0-2.8,1.97-5.07,4.4-5.07h0.34c2.43,0,4.4,2.27,4.4,5.07v10.7C424.14,337.68,422.17,339.95,419.74,339.95z"/>
<circle class="st64" cx="434.2" cy="313.19" r="3.48"/>
<circle class="st28" cx="433.89" cy="313.47" r="1.61"/>
<circle class="st64" cx="407.94" cy="311.31" r="3.48"/>
<circle class="st28" cx="407.62" cy="311.04" r="1.61"/>
<circle class="st52" cx="434.88" cy="318.15" r="3.43"/>
<circle class="st52" cx="405.13" cy="315.78" r="3.49"/>
<path class="st64" d="M433.59,319.72c0-0.04,0.01-0.08,0.02-0.12l0.89-11.53c0.03-0.44,0.02-0.87-0.04-1.29
	c-0.34-7.76-5.66-14.13-12.66-14.67c-7.65-0.59-14.39,6-15.07,14.73c-0.1,1.34-0.06,2.66,0.12,3.92c-1.79,1.78-2.98,4.18-3.19,6.9v0
	c-0.46,6.01,4.03,11.26,10.04,11.73l8.14,0.63c6.01,0.46,11.26-4.03,11.73-10.04v0C433.58,319.89,433.58,319.81,433.59,319.72z"/>
<linearGradient id="SVGID_50_" gradientUnits="userSpaceOnUse" x1="554.3171" y1="154.3714" x2="535.5518" y2="165.4824" gradientTransform="matrix(1.0699 -0.1164 0.1157 1.0036 -168.8424 196.0329)">
	<stop  offset="0" style="stop-color:#1C617D"/>
	<stop  offset="1" style="stop-color:#6395B4"/>
</linearGradient>
<path class="st67" d="M428.07,306.78c-1.25-4.74-5.62-8.32-10.8-8.82c-3.43-0.33-6.58,0.6-9.03,2.33
	c0.57-6.27,6.22-11.34,13.25-11.26c6.43,0.08,11.92,4.75,12.63,10.75c0.57,4.78-1.86,9.16-5.8,11.62
	C428.55,309.92,428.48,308.36,428.07,306.78z"/>
<linearGradient id="SVGID_51_" gradientUnits="userSpaceOnUse" x1="362.281" y1="301.9815" x2="362.281" y2="317.7772" gradientTransform="matrix(0.997 0.0771 -0.0771 0.997 92.4523 -25.355)">
	<stop  offset="0" style="stop-color:#EE7061"/>
	<stop  offset="1" style="stop-color:#FBCCA8"/>
</linearGradient>
<circle class="st68" cx="429.29" cy="317.77" r="3.2"/>
<linearGradient id="SVGID_52_" gradientUnits="userSpaceOnUse" x1="335.3665" y1="298.9799" x2="342.3109" y2="318.4937" gradientTransform="matrix(0.997 0.0771 -0.0771 0.997 92.4523 -25.355)">
	<stop  offset="0" style="stop-color:#EE7061"/>
	<stop  offset="1" style="stop-color:#FBCCA8"/>
</linearGradient>
<circle class="st69" cx="408.75" cy="316.92" r="3.2"/>
<path class="st28" d="M416.62,319.63c1.44,0.11,2.22-1.67,1.15-2.65c-0.55-0.51-1.28-0.84-2.09-0.9s-1.58,0.16-2.2,0.58
	c-1.2,0.81-0.7,2.68,0.74,2.79L416.62,319.63z"/>
<path class="st74" d="M425.16,321.04c-0.25-0.18-0.73-0.12-0.91,0.14c-1.08,1.52-2.41,2.37-3.72,2.89c-0.35-0.67-1.03-1-1.98-1.07
	c-0.88-0.07-1.68,0.25-2.15,0.78c-0.39-0.59-1.12-1.03-2-1.1c-1.19-0.09-2.22,0.51-2.51,1.39c-0.01,0.01-0.01,0.02-0.02,0.03
	c-0.04,0.09-0.05,0.19-0.04,0.28c0,0.02-0.01,0.05-0.01,0.07l0.03,0c0.03,0.17,0.14,0.32,0.3,0.4c0.04,0.02,1.88,0.86,4.32,1.05
	c2.74,0.21,6.24-0.4,8.76-3.94C425.42,321.68,425.42,321.22,425.16,321.04z"/>
<path class="st15" d="M395.03,512.84c0.18,0.28,0.44,0.51,0.73,0.68C395.49,513.36,395.23,513.14,395.03,512.84z"/>
<circle class="st64" cx="383.6" cy="369.71" r="5.47"/>
<polygon class="st64" points="386.7,366.71 378.82,371.85 393.4,394.77 400.94,388.56 "/>
<circle class="st13" cx="749.47" cy="345.39" r="6.4"/>
<circle class="st13" cx="811.55" cy="345.39" r="6.4"/>
<path class="st94" d="M411.65,313.06L411.65,313.06c-0.87-0.12-1.47-0.92-1.35-1.79l0.15-1.09c0.12-0.87,0.92-1.47,1.79-1.35l0,0
	c0.87,0.12,1.47,0.92,1.35,1.79l-0.15,1.09C413.32,312.58,412.52,313.18,411.65,313.06z"/>
<g>
	<path class="st26" d="M414.37,306.75c-0.23,0.02-0.46-0.05-0.64-0.21c-1.06-0.96-2.7-0.89-3.66,0.17
		c-0.31,0.34-0.83,0.36-1.16,0.05c-0.34-0.31-0.36-0.83-0.05-1.16c1.58-1.73,4.27-1.85,5.99-0.27c0.34,0.31,0.36,0.83,0.05,1.16
		C414.75,306.65,414.57,306.73,414.37,306.75z"/>
</g>
<g>
	<path class="st26" d="M420.93,307.63c-0.19-0.07-0.35-0.21-0.45-0.4c-0.2-0.41-0.04-0.9,0.37-1.11c2.09-1.05,4.65-0.2,5.7,1.89
		c0.2,0.41,0.04,0.9-0.37,1.11c-0.41,0.2-0.9,0.04-1.11-0.37c-0.64-1.28-2.2-1.79-3.48-1.15
		C421.37,307.7,421.13,307.71,420.93,307.63z"/>
</g>
<path class="st94" d="M421.78,314.62L421.78,314.62c-0.87-0.12-1.47-0.92-1.35-1.79l0.15-1.09c0.12-0.87,0.92-1.47,1.79-1.35l0,0
	c0.87,0.12,1.47,0.92,1.35,1.79l-0.15,1.09C423.45,314.14,422.65,314.75,421.78,314.62z"/>
<path class="st52" d="M290.23,175.71H172.74c-27.38,0-49.57,22.19-49.57,49.57v0c0,1.36,0.07,2.71,0.18,4.04l-0.01-0.01v61.81
	c0,4.21,4.47,6.92,8.2,4.97L171,275.47c0.8-0.42,1.69-0.64,2.59-0.64c12.24,0,116.65,0.01,116.65,0.01
	c27.38,0,49.57-22.19,49.57-49.57v0C339.8,197.9,317.61,175.71,290.23,175.71z"/>
<g>
	<path class="st95" d="M155.51,235.49l2.84-3.56c1.62,1.69,3.85,2.63,6.37,2.63c2.84,0,4.46-1.62,4.46-3.56
		c0-2.12-1.58-3.56-4.32-3.56c-1.98,0-3.6,0.58-5.04,1.94l-3.56-0.94v-13.79h16.49v4.5h-11.37v5.87c1.15-1.15,3.1-2.02,5.29-2.02
		c4.07,0,7.7,2.92,7.7,7.78c0,5.11-3.82,8.31-9.61,8.31C160.59,239.09,157.56,237.72,155.51,235.49z"/>
	<path class="st95" d="M176.86,226.71c0-7.27,4.1-12.42,11.19-12.42c2.92,0,5.36,1.01,7.09,2.48l-2.3,3.92
		c-1.3-1.22-2.66-1.87-4.79-1.87c-3.53,0-6.01,2.99-6.01,6.8c0,0.18,0,0.32,0.04,0.5c1.12-1.62,3.53-3.1,6.16-3.1
		c4.32,0,8.17,2.7,8.17,7.81c0,4.68-3.71,8.24-9.18,8.24C179.92,239.09,176.86,233.48,176.86,226.71z M191.22,231.03
		c0-2.52-2.16-3.6-4.46-3.6c-1.8,0-3.53,0.83-4.68,2.27c0.22,2.3,1.51,4.86,4.86,4.86C189.71,234.56,191.22,232.72,191.22,231.03z"
		/>
	<path class="st95" d="M199.93,236.57l2.27-3.92c1.3,1.22,2.66,1.87,4.79,1.87c3.96,0,6.01-3.31,6.01-6.77c0-0.18,0-0.36,0-0.54
		c-1.15,1.62-3.56,3.1-6.19,3.1c-4.32,0-8.21-2.7-8.21-7.81c0-4.68,3.74-8.24,9.21-8.24c7.27,0,10.33,5.62,10.33,12.42
		c0,7.23-4.07,12.38-11.16,12.38C204.07,239.06,201.63,238.08,199.93,236.57z M212.96,223.69c-0.22-2.3-1.51-4.9-4.9-4.9
		c-2.74,0-4.25,1.87-4.25,3.53c0,2.52,2.2,3.6,4.43,3.6C210.05,225.92,211.81,225.09,212.96,223.69z"/>
	<path class="st95" d="M220.63,226.67c0-6.19,3.06-12.38,9.94-12.38c6.84,0,9.93,6.19,9.93,12.38c0,6.19-3.1,12.42-9.93,12.42
		C223.69,239.09,220.63,232.86,220.63,226.67z M235.28,226.67c0-4.43-1.3-7.85-4.72-7.85c-3.46,0-4.75,3.42-4.75,7.85
		c0,4.43,1.3,7.88,4.75,7.88C233.99,234.56,235.28,231.1,235.28,226.67z"/>
	<path class="st95" d="M248.57,236.43v8.85H244v-24.01h4.57v2.2c1.33-1.69,3.24-2.63,5.36-2.63c4.46,0,7.7,3.31,7.7,9.11
		s-3.24,9.14-7.7,9.14C251.88,239.09,249.97,238.23,248.57,236.43z M256.88,229.95c0-2.99-1.76-5.04-4.39-5.04
		c-1.48,0-3.17,0.86-3.92,1.98v6.16c0.76,1.08,2.45,1.98,3.92,1.98C255.12,235.02,256.88,232.97,256.88,229.95z"/>
	<path class="st95" d="M264.45,236.14c0-1.58,1.3-2.92,2.88-2.92s2.92,1.33,2.92,2.92c0,1.55-1.33,2.88-2.92,2.88
		S264.45,237.69,264.45,236.14z M265.31,230.85l-0.76-16.2h5.51l-0.72,16.2H265.31z"/>
	<path class="st95" d="M282.84,223.94c0-1.58,1.33-2.92,2.92-2.92s2.92,1.33,2.92,2.92s-1.33,2.92-2.92,2.92
		S282.84,225.52,282.84,223.94z M282.84,236.14c0-1.58,1.33-2.92,2.92-2.92s2.92,1.33,2.92,2.92c0,1.58-1.33,2.92-2.92,2.92
		S282.84,237.72,282.84,236.14z"/>
	<path class="st95" d="M290.8,243.59c2.48-4.32,3.67-8.28,3.67-13.68c0-5.4-1.19-9.36-3.67-13.75l2.88-2.16
		c3.53,3.96,5.76,10.11,5.76,15.91c0,5.8-2.23,11.99-5.76,15.91L290.8,243.59z"/>
</g>
<linearGradient id="SVGID_53_" gradientUnits="userSpaceOnUse" x1="901.7494" y1="504.3362" x2="856.8621" y2="613.6136">
	<stop  offset="0" style="stop-color:#FFE9BF"/>
	<stop  offset="1" style="stop-color:#ED6D4D"/>
</linearGradient>
<rect x="861.59" y="500.27" class="st70" width="60.01" height="57.56"/>
<g>
	<path class="st28" d="M926.71,543.2h-25.59c-0.55,0-0.99-0.51-0.99-1.14c0-0.63,0.44-1.14,0.99-1.14h25.59
		c0.55,0,0.99,0.51,0.99,1.14C927.7,542.68,927.26,543.2,926.71,543.2z"/>
</g>
<g>
	<path class="st28" d="M918.13,549.88h-16.87c-0.63,0-1.14-0.51-1.14-1.14s0.51-1.14,1.14-1.14h16.87c0.63,0,1.14,0.51,1.14,1.14
		S918.77,549.88,918.13,549.88z"/>
</g>
<g>
	<path class="st101" d="M290.81,306.5c-3.01-1.71-4.06-5.54-2.35-8.55c1.71-3.01,5.54-4.06,8.55-2.35c3.01,1.71,4.06,5.54,2.35,8.55
		C297.66,307.15,293.82,308.21,290.81,306.5z M295.48,298.28c-1.53-0.87-3.47-0.33-4.34,1.19c-0.87,1.53-0.33,3.47,1.19,4.34
		s3.47,0.33,4.34-1.19C297.55,301.09,297.01,299.15,295.48,298.28z"/>
</g>
<g>
	<circle class="st101" cx="94.45" cy="243" r="4.09"/>
</g>
<g>
	<path class="st109" d="M312.28,135.09l-0.2,0.35c-0.42,0.74-1.35,0.99-2.09,0.58l-9.86-5.6c-0.74-0.42-0.99-1.35-0.58-2.09
		l0.2-0.35c0.42-0.74,1.35-0.99,2.09-0.58l9.86,5.6C312.44,133.42,312.7,134.36,312.28,135.09z"/>
</g>
<g>
	<path class="st109" d="M309.01,125.55l0.35,0.2c0.74,0.42,0.99,1.35,0.58,2.09l-5.6,9.86c-0.42,0.74-1.35,0.99-2.09,0.58l-0.35-0.2
		c-0.74-0.42-0.99-1.35-0.58-2.09l5.6-9.86C307.34,125.39,308.27,125.14,309.01,125.55z"/>
</g>
</svg>
