<svg id="Layer_1" data-name="Layer 1" xmlns="http://www.w3.org/2000/svg" xmlns:xlink="http://www.w3.org/1999/xlink" viewBox="0 0 910 567"><defs><linearGradient id="linear-gradient" x1="427.37" y1="292.34" x2="828.73" y2="-358.22" gradientTransform="translate(0 90.68)" gradientUnits="userSpaceOnUse"><stop offset="0" stop-color="#fafdff" stop-opacity="0"/><stop offset=".09" stop-color="#f4fafc" stop-opacity=".09"/><stop offset=".36" stop-color="#e5f3f6" stop-opacity=".36"/><stop offset=".65" stop-color="#ddf0f2" stop-opacity=".65"/><stop offset="1" stop-color="#daeef1"/></linearGradient><linearGradient id="linear-gradient-2" x1="-206.51" y1="200.93" x2="749.63" y2="200.93" gradientTransform="translate(0 90.68)" gradientUnits="userSpaceOnUse"><stop offset="0" stop-color="#fff" stop-opacity="0"/><stop offset="1" stop-color="#c4e5ed"/></linearGradient><linearGradient id="linear-gradient-3" x1="840.61" y1="77.96" x2="840.61" y2="118.28" gradientTransform="translate(0 90.68)" gradientUnits="userSpaceOnUse"><stop offset="0" stop-color="#fed377"/><stop offset="1" stop-color="#fab854"/></linearGradient><linearGradient id="linear-gradient-4" x1="630" y1="-5.4" x2="1067.69" y2="-5.4" gradientTransform="translate(0 90.68)" gradientUnits="userSpaceOnUse"><stop offset="0" stop-color="#6bb75a"/><stop offset="1" stop-color="#06727e"/><stop offset="1" stop-color="#009d90"/></linearGradient><linearGradient id="linear-gradient-5" x1="681.2" y1="-5.4" x2="865.44" y2="-5.4" gradientTransform="translate(0 90.68)" gradientUnits="userSpaceOnUse"><stop offset="0" stop-color="#5bb24c" stop-opacity="0"/><stop offset="1" stop-color="#6bb75a"/></linearGradient><linearGradient id="linear-gradient-6" x1="472.87" y1="85.78" x2="491.41" y2="85.78" gradientTransform="translate(0 90.68)" gradientUnits="userSpaceOnUse"><stop offset="0" stop-color="#4195b7"/><stop offset="1" stop-color="#62a4c0"/></linearGradient><linearGradient id="linear-gradient-7" x1="71.18" y1="360.51" x2="86.04" y2="360.51" xlink:href="#linear-gradient-6"/><linearGradient id="linear-gradient-8" x1="446.59" y1="75.61" x2="446.59" y2="375.87" xlink:href="#linear-gradient-4"/><linearGradient id="linear-gradient-9" x1="442.29" y1="292.12" x2="442.29" y2="-619.55" xlink:href="#linear-gradient-4"/><linearGradient id="linear-gradient-10" x1="442.17" y1="589.32" x2="442.17" y2="-40.49" xlink:href="#linear-gradient-4"/><linearGradient id="Безымянный_градиент_116" x1="164.62" y1="319.37" x2="164.62" y2="603.66" gradientUnits="userSpaceOnUse"><stop offset="0" stop-color="#ffe9bf"/><stop offset="1" stop-color="#ff6e48"/></linearGradient><linearGradient id="Безымянный_градиент_3" x1="2404.94" y1="215.04" x2="2413.14" y2="215.04" gradientTransform="matrix(-.98 .22 .22 .98 2491.61 -438.32)" gradientUnits="userSpaceOnUse"><stop offset="0" stop-color="#19607c"/><stop offset="1" stop-color="#6295b4"/></linearGradient><linearGradient id="Безымянный_градиент_3-2" x1="77.77" y1="-598.52" x2="75.77" y2="-572.21" gradientTransform="matrix(.95 .31 .31 -.95 322.07 -290.61)" xlink:href="#Безымянный_градиент_3"/><linearGradient id="Безымянный_градиент_3-3" x1="2394.39" y1="310.45" x2="2393.21" y2="326.01" gradientTransform="matrix(-.99 .12 .12 .99 2540.94 -301.7)" xlink:href="#Безымянный_градиент_3"/><linearGradient id="linear-gradient-11" x1="39.21" y1="351.63" x2="39.21" y2="374.79" xlink:href="#linear-gradient-3"/><linearGradient id="linear-gradient-12" x1="57.42" y1="412.08" x2="336.34" y2="412.08" xlink:href="#linear-gradient-4"/><linearGradient id="linear-gradient-13" x1="106.38" y1="412.08" x2="203.82" y2="412.08" xlink:href="#linear-gradient-5"/><linearGradient id="linear-gradient-14" x1="641.22" y1="59.32" x2="658.16" y2="59.32" gradientTransform="rotate(1.77 -6452.025 -264.883)" gradientUnits="userSpaceOnUse"><stop offset="0" stop-color="#1d627e"/><stop offset="1" stop-color="#6495b4"/></linearGradient><linearGradient id="linear-gradient-15" x1="989.12" y1="-20.51" x2="989.12" y2="-10.91" gradientTransform="matrix(.92 .04 -.02 1 -268.16 242.78)" xlink:href="#linear-gradient-14"/><style>.cls-3{fill:#eff7fb}.cls-4{fill:#c4e5ed}.cls-5{fill:#fab854}.cls-7{fill:#fff5e9}.cls-9{fill:#5bb24c}.cls-14{fill:#f7b394}.cls-15{fill:#1b5a6f}.cls-16{fill:#1d627e}.cls-20{fill:#d6edf4}.cls-21{fill:#37a539}.cls-22{fill:#ffb392}.cls-23{fill:#37a537}.cls-24{fill:#50b848}.cls-25{fill:#5fa2be}.cls-26{fill:#19607c}.cls-27{fill:#3e95b6}.cls-28{fill:#ffb95c}.cls-30{fill:#ffd2b3}.cls-32{fill:#005777}.cls-41{fill:#4195b7}.cls-43{fill:#62a4c0}.cls-45{fill:#fcd3b5}.cls-52{fill:none;stroke:#d0eaf3;stroke-linecap:round;stroke-miterlimit:10;stroke-width:2px}.cls-53{fill:#d0eaf3}.cls-57{fill:#ff8872}</style></defs><path d="M894.82 567.7a460.64 460.64 0 00-15.67-272 183.18 183.18 0 009.17-57.42c0-101.06-81.67-183-182.42-183a182.33 182.33 0 00-31 2.65A455.07 455.07 0 00278.38 35a181.18 181.18 0 00-98.26-28.79C79.37 6.21-2.31 88.14-2.31 189.2a182.55 182.55 0 0030.92 101.95 460.5 460.5 0 00-17.43 276.54z" fill="url(#linear-gradient)"/><path d="M892.22 291.61c0-102.93-81.9-186.68-184.07-189.77v-.15H210.09v.16c-2.12-.07-4.24-.16-6.38-.16-104.89 0-189.92 85-189.92 189.92s85 189.92 189.92 189.92c2.14 0 4.26-.09 6.38-.16v.16h498.05v-.15c102.18-3.09 184.08-86.84 184.08-189.77z" fill="url(#linear-gradient-2)"/><path class="cls-3" d="M728 176.55c-2.68 0-5.13-.18-7.76 0-1.17.08-4.31 0-3.73.13s-1.24-.13-1.87-.13H604.18A14.23 14.23 0 00590 190.78 14.23 14.23 0 00604.18 205h58.65a14.23 14.23 0 0114.23 14.23 14.23 14.23 0 01-14.23 14.23h-63a14.23 14.23 0 00-14.23 14.23 14.23 14.23 0 0014.23 14.23h10.7a4.55 4.55 0 014.45 5.54 116.62 116.62 0 00-2.3 33.73c4.49 58.25 52.79 104.45 111.18 106.44A115.58 115.58 0 10728 176.55z"/><path class="cls-4" d="M176.07 396.59c2.56 0 4.9.17 7.41 0 1.12-.08 4.12 0 3.57-.13s1.18.13 1.79.13h105.44A13.59 13.59 0 00307.87 383a13.59 13.59 0 00-13.59-13.59h-56a13.59 13.59 0 01-13.59-13.59 13.59 13.59 0 0113.59-13.59h60.13A13.59 13.59 0 00312 328.64a13.59 13.59 0 00-13.59-13.59h-9a5.33 5.33 0 01-5.19-6.44 111.34 111.34 0 001.95-31.06c-4.28-55.63-50.42-99.75-106.18-101.65a110.38 110.38 0 10-3.86 220.69z"/><circle class="cls-5" cx="840.61" cy="140.28" r="38.86"/><circle cx="840.61" cy="140.28" r="33.96" fill="url(#linear-gradient-3)"/><path class="cls-7" d="M854.6 148.9l-15.08-.08v-3.7h6.47a27 27 0 005.13-.46 12.65 12.65 0 004.4-1.69 9.13 9.13 0 003.09-3.26 10.45 10.45 0 001.18-5.18 10.63 10.63 0 00-1.54-5.68 8.34 8.34 0 00-4.17-3.59 22 22 0 00-7.65-1.07l-11.79-.06-.08 16.62H832v4.32h2.57v3.7H832v3.54h2.57v9.48h5v-9.48l15.08.08zm-15-8.09l.06-12.46h7a14.36 14.36 0 013.16.35 7.55 7.55 0 012.55 1.08 5.12 5.12 0 011.71 1.9 5.86 5.86 0 01.62 2.83 6.32 6.32 0 01-.71 3.14 5.35 5.35 0 01-1.88 1.93 7.81 7.81 0 01-2.75 1 19.43 19.43 0 01-3.29.25z"/><path d="M645.29 35.18h-54.4c-9 0-16.73 6.91-17.15 15.89a16.7 16.7 0 0016.68 17.51h54.4c9 0 16.73 6.91 17.15 15.89A16.7 16.7 0 01645.29 102h-29.06c-9 0-16.73 6.91-17.15 15.89a16.7 16.7 0 0016.68 17.51h207.69a50.1 50.1 0 0050.1-50.1 50.1 50.1 0 00-50.1-50.1z" fill="url(#linear-gradient-4)"/><circle class="cls-9" cx="537.8" cy="51.88" r="16.7"/><circle class="cls-9" cx="749.73" cy="85.29" r="35.13"/><path class="cls-7" d="M761.87 93.5l-17-.08v-4.17h7.29a29.49 29.49 0 005.77-.52 14.36 14.36 0 005-1.9 10.2 10.2 0 003.47-3.67 11.73 11.73 0 001.33-5.84A12.1 12.1 0 00766 71a9.37 9.37 0 00-4.69-4 24.63 24.63 0 00-8.61-1.2l-13.28-.07-.09 18.71h-2.89v4.86h2.89v4.17h-2.89v4h2.89v10.67h5.61V97.47l17 .08zm-16.93-9.11l.07-14h7.9a16.66 16.66 0 013.56.39 8.57 8.57 0 012.87 1.22 5.93 5.93 0 011.93 2.14 6.51 6.51 0 01.69 3.19 7.08 7.08 0 01-.8 3.54A6 6 0 01759 83a8.9 8.9 0 01-3.1 1.1 22.11 22.11 0 01-3.7.29z"/><path d="M818.73 132H681.2v-8.18h137.54a38.53 38.53 0 000-77.06H681.2v-8.19h137.54a46.71 46.71 0 010 93.42z" fill="url(#linear-gradient-5)"/><circle class="cls-9" cx="30.36" cy="485.04" r="8.85"/><path class="cls-4" d="M727.19 296.49a9.27 9.27 0 01-9.27-9.27V237.9a9.27 9.27 0 019.27-9.27 9.27 9.27 0 019.27 9.27v49.32a9.27 9.27 0 01-9.27 9.27z"/><path class="cls-4" d="M756.49 336.66a9.28 9.28 0 01-12.67-3.39l-24.66-42.72a9.28 9.28 0 013.39-12.67 9.28 9.28 0 0112.67 3.39L759.88 324a9.26 9.26 0 01-3.39 12.66z"/><path class="cls-3" d="M172 293.34a8.86 8.86 0 01-8.86-8.86v-47.1a8.86 8.86 0 018.86-8.86 8.86 8.86 0 018.86 8.86v47.1a8.86 8.86 0 01-8.86 8.86z"/><path class="cls-3" d="M223.47 306.56a8.85 8.85 0 01-11.62 4.67l-43.33-18.47a8.85 8.85 0 01-4.67-11.62 8.85 8.85 0 0111.62-4.67l43.33 18.47a8.85 8.85 0 014.67 11.62z"/><path d="M482.14 185.73a9.27 9.27 0 119.27-9.27 9.28 9.28 0 01-9.27 9.27zm0-14.38a5.11 5.11 0 105.11 5.11 5.11 5.11 0 00-5.11-5.11z" fill="url(#linear-gradient-6)"/><path d="M823 479.78h-3.86v-4.35c0-.72-.79-1.3-1.78-1.31s-1.79.57-1.79 1.29v4.35h-3.86a1.79 1.79 0 000 3.57h3.86v4.35c0 .72.79 1.3 1.78 1.31s1.79-.57 1.79-1.29v-4.35H823a1.79 1.79 0 100-3.57z" fill="#ec6743"/><path d="M84.26 449.43H80.4v-4.35c0-.72-.79-1.3-1.78-1.31s-1.79.57-1.79 1.29v4.35h-3.86a1.79 1.79 0 000 3.57h3.86v4.35c0 .72.79 1.3 1.78 1.31s1.79-.57 1.79-1.29V453h3.86a1.79 1.79 0 100-3.57z" fill="url(#linear-gradient-7)"/><path class="cls-4" d="M85.62 66.3a3.26 3.26 0 01-2.3-1L66.48 48.51a3.26 3.26 0 114.61-4.61l14.54 14.54 14.54-14.54a3.26 3.26 0 014.61 4.61L87.92 65.35a3.21 3.21 0 01-2.3.95zM52.5 107.82a2 2 0 01-1.38-.57L40.36 96.49a2 2 0 112.76-2.76l9.38 9.38 9.38-9.38a2 2 0 112.76 2.76l-10.75 10.76a2 2 0 01-1.39.57zm63.9 15.78a2 2 0 01-1.4-.6l-13.91-13.9a2 2 0 012.76-2.76l12.55 12.55 12.6-12.55a2 2 0 012.76 2.76L117.77 123a1.91 1.91 0 01-1.37.6z"/><circle class="cls-14" cx="328.57" cy="375.65" r="12.31"/><path class="cls-15" d="M567.57 547.21h-14.09a13 13 0 01-13-13v-43a13 13 0 0113-13h14.09a13 13 0 0113 13v43a13 13 0 01-13 13zm-237.57.42h-14a13 13 0 01-13-13v-43a13 13 0 0113-13h14a13 13 0 0113 13v43a13 13 0 01-13 13z"/><path class="cls-16" d="M568.88 331.44h21.38v13.05h-21.38z"/><path class="cls-16" d="M600.61 354.61h-9.91a9.11 9.11 0 01-9.11-9.11v-33.75a9.11 9.11 0 019.11-9.11h9.91a9.11 9.11 0 019.11 9.11v33.76a9.11 9.11 0 01-9.11 9.1z"/><path class="cls-15" d="M290.22 334.01h21.38v13.05h-21.38z"/><path class="cls-15" d="M283.89 357.19h9.91a9.11 9.11 0 009.11-9.11v-33.76a9.11 9.11 0 00-9.11-9.11h-9.91a9.11 9.11 0 00-9.11 9.11v33.76a9.11 9.11 0 009.11 9.11z"/><path d="M550.08 158.2h-207a25.78 25.78 0 00-25.76 25.8v154.1h258.54V184a25.78 25.78 0 00-25.78-25.8z" fill="url(#linear-gradient-8)"/><path d="M560.38 251.09a30.15 30.15 0 00-29.64-24.63H354.16c-14.11 0-28.56 9.57-31.84 22.67-.19.12-24 157.74-24 157.74l287.89-1.1s-25.72-154.67-25.83-154.68z" fill="url(#linear-gradient-9)"/><path fill="url(#linear-gradient-10)" d="M296.56 460.1l1.8-53.33 287.9-1.07 1.52 63.29-291.22-8.89z"/><path class="cls-20" d="M670.27 354.6h3.04v14.71h-3.04z"/><path class="cls-21" d="M699.71 378.95l-23.85-42.83 18.97-9.76 23.86 42.83-18.98 9.76z"/><path class="cls-9" d="M586.67 378.64l33.83-38.17-16.44-13.6-33.82 38.16 16.43 13.61z"/><ellipse class="cls-22" cx="283.65" cy="314.15" rx="12.15" ry="11.8" transform="rotate(-12.34 283.705 314.182)"/><path class="cls-22" d="M276.39 309.65l-14.95 16.85 15.16 12.67 15.17-16.34-15.38-13.18z"/><path class="cls-22" transform="rotate(129.43 269.316 299.975)" d="M259.31 277.71h20.02v44.53h-20.02z"/><path class="cls-23" transform="rotate(-46.28 260.57 341.376)" d="M242.54 331.35h36.02v20.04h-36.02z"/><circle class="cls-23" cx="248.39" cy="351.42" r="12.77"/><path class="cls-24" d="M177.07 414.44h61.17l13.14-60.64c1.72-7.51-6.08-14.45-16.23-14.45l-60.09.08c-10.36 0-18.11 7.13-16.05 14.75z"/><rect class="cls-25" x="177.07" y="411.36" width="61.17" height="36.04" rx="5.44" transform="rotate(-180 207.655 429.38)"/><path class="cls-25" transform="rotate(-180 207.655 397.3)" d="M177.07 378.01h61.17v38.58h-61.17z"/><path class="cls-26" transform="rotate(-180 207.655 417.655)" d="M177.07 414.44h61.17v6.42h-61.17z"/><path class="cls-25" transform="rotate(-180 187.32 417.35)" d="M185.78 413.32h3.07v8.06h-3.07z"/><path class="cls-25" transform="rotate(-180 225.995 418.14)" d="M224.46 414.44h3.07v7.39h-3.07z"/><rect class="cls-25" x="211.8" y="420.87" width="26.35" height="64.58" rx="3.28" transform="rotate(-180 224.98 453.16)"/><rect class="cls-25" x="177.16" y="480.23" width="26.35" height="63.26" rx="3.28" transform="rotate(-180 190.34 511.865)"/><rect class="cls-25" x="177.16" y="420.87" width="26.35" height="64.58" rx="3.28" transform="rotate(-180 190.34 453.16)"/><path class="cls-27" d="M190.34 425.51H177v20.3c7.38 0 13.34-9.09 13.34-20.3z"/><rect class="cls-27" x="211.8" y="480.23" width="26.35" height="63.77" rx="3.28" transform="rotate(-180 224.98 512.115)"/><path class="cls-26" d="M203.76 543.05c0-6.95-6-12.57-13.4-12.56S177 536.14 177 543.08h26.73"/><path class="cls-27" d="M203.77 545.88l-26.73.03-.01-2.86 26.73-.03"/><path class="cls-26" d="M238.15 543c0-6.9-5.92-12.49-13.2-12.48S211.8 536.1 211.82 543h26.33"/><path class="cls-27" d="M224.84 425.51h13.31v20.3c-7.35 0-13.31-9.09-13.31-20.3zm13.32 120.36l-26.34.04-.01-2.84 26.34-.04"/><path class="cls-25" transform="rotate(-180 233.56 359.915)" d="M228.88 339.34h9.37v41.14h-9.37z"/><path class="cls-25" transform="rotate(-180 182.09 360.7)" d="M177.07 339.43h10.04v42.53h-10.04z"/><circle class="cls-28" cx="207.92" cy="360.52" r="1.68"/><rect class="cls-23" x="215.25" y="358.44" width="12.43" height="3.49" rx="1.74" transform="rotate(180 221.465 360.185)"/><path class="cls-27" d="M190.3 383a16.62 16.62 0 1033.23 0"/><circle class="cls-25" cx="224.98" cy="480.68" r="13.17"/><circle class="cls-25" cx="190.17" cy="482.03" r="13.17"/><path fill="url(#Безымянный_градиент_116)" d="M129.06 366.68h71.11v53.53h-71.11z"/><rect class="cls-22" x="169.35" y="398.39" width="28.24" height="2.16" rx=".72"/><rect class="cls-22" x="169.35" y="402.98" width="22.92" height="2.16" rx=".72"/><path class="cls-22" d="M134.71 371.93h9.57v9.57h-9.57z"/><circle class="cls-22" cx="248.14" cy="284.56" r="12.14"/><ellipse class="cls-30" cx="124.13" cy="365.39" rx="12.15" ry="11.8" transform="rotate(-55.51 124.123 365.394)"/><path class="cls-30" d="M122.69 356.98l21.25-7.5 6.01 18.82-20.85 7.89-6.41-19.21z"/><path class="cls-30" transform="rotate(-16.96 128.124 384.576)" d="M118.17 362.38h19.88v44.23h-19.88z"/><path class="cls-24" transform="rotate(158.43 158.054 354.102)" d="M140.17 344.15h35.78v19.9h-35.78z"/><circle class="cls-30" cx="133.5" cy="408.02" r="12.14"/><circle class="cls-24" cx="170.63" cy="351.07" r="12.93"/><rect class="cls-22" x="199.69" y="318.91" width="17.32" height="30.02" rx="6.03" transform="rotate(-1.86 208.1 333.349)"/><path class="cls-23" d="M199.75 337.14l8.49 13.14-3.13 5.13a1.86 1.86 0 01-3.24-.13l-8.25-15.78z"/><path class="cls-23" d="M217.18 337.48l-9 12.83 2.94 5.24a1.86 1.86 0 003.24 0l8.9-16.19z"/><path class="cls-30" d="M227.27 318.7a13.52 13.52 0 00-7-12.27l-4.45-10.8c-3.89-11-8.53-12.81-15-11.26l-3.73.89c-6.45 1.55-14.41 8.38-12.21 17.78l5 21.49c1.64 7 8.19 11.41 14.64 9.86l11.06-2.65.26-.08a13.52 13.52 0 0011.43-12.96z"/><path d="M201.64 305.09a1.11 1.11 0 00-.21-2.14 4.59 4.59 0 00-5.13 4.13 1.11 1.11 0 002 .66 6.08 6.08 0 013.34-2.65zm12.78-2.6a1.11 1.11 0 001.37-1.66 4.61 4.61 0 00-6.56-.7 1.11 1.11 0 001 1.91 6.13 6.13 0 014.19.45z" fill="#3784a8"/><circle class="cls-32" cx="204.35" cy="309.72" r="1.61"/><circle class="cls-32" cx="214.31" cy="306.8" r="1.6"/><ellipse class="cls-30" cx="187.35" cy="313.82" rx="5.27" ry="5.21" transform="rotate(-88.31 187.353 313.824)"/><ellipse class="cls-22" cx="187.44" cy="314.47" rx="2.16" ry="2.13" transform="rotate(-88.31 187.438 314.467)"/><path class="cls-32" d="M216 328.31c6.37-4.42 4.51-15.38.48-10.41-4.82 5.94-14 2-14 2-2.51-1.3-3.71 1.23-2.84 4.09a15.15 15.15 0 015.41-.84 15 15 0 0110.95 5.16z"/><path d="M211.21 330a10 10 0 004.77-1.69 15 15 0 00-10.93-5.21 15.15 15.15 0 00-5.41.84c.97 3.17 4.47 6.76 11.57 6.06z" fill="#ff715e"/><path class="cls-22" d="M209.07 313.27c-.24-1.8 1.16-2.69 2.55-1.52s3 2.78 2.44 3.53c-1 1.38-3.44 1.72-4.05 1.23a8.52 8.52 0 01-.94-3.24z"/><path d="M186.1 308.71c3.19-.72 6.94-6.4 6.22-9.62l-2.16-9.74-6 10.24z" fill="url(#Безымянный_градиент_3)"/><path d="M218.2 293.67c1 3.66-5 5.57-8.59 4.38a6.9 6.9 0 01-4.35-8.68s12.34 2.15 12.94 4.3z" fill="url(#Безымянный_градиент_3-2)"/><path class="cls-24" d="M184.43 299.57c-1.77-7.57 4.16-15.47 11.74-17.28 8.46-2 16 1.43 18.19 9.09z"/><path d="M195.77 291.91l8.6-2.16a1.59 1.59 0 001.16-1.92l-.2-.82a1.6 1.6 0 00-1.93-1.16l-8.61 2.15a1.58 1.58 0 00-1.15 1.91l.2.82a1.58 1.58 0 001.93 1.18z" fill="url(#Безымянный_градиент_3-3)"/><circle class="cls-24" cx="196.81" cy="282.31" r="2.52"/><path class="cls-23" d="M206.36 293.49s-14.66 14.11-26.73 13.75c-8.49-.25 4.48-7.65 4.48-7.65z"/><path fill="#d1ecf1" d="M199.37 414.27h15.91v6.51h-15.91z"/><circle class="cls-28" cx="207.92" cy="370.64" r="1.68"/><circle class="cls-5" cx="39.21" cy="426.01" r="22.33"/><circle cx="39.21" cy="426.01" r="19.52" fill="url(#linear-gradient-11)"/><path class="cls-7" d="M45.16 429.91h-8.29v-2h3.56a15.33 15.33 0 002.82-.25 6.71 6.71 0 002.42-.93 5 5 0 001.7-1.79A5.78 5.78 0 0048 422a5.87 5.87 0 00-.85-3.13 4.56 4.56 0 00-2.29-2 12 12 0 00-4.21-.59h-6.48l-.05 9.14h-1.38v2.37h1.41v2h-1.43v1.95h1.41v5.21h2.74v-5.21h8.29zm-8.27-4.45v-6.85h3.86a8 8 0 011.74.19 4.22 4.22 0 011.4.59 2.93 2.93 0 01.94 1 3.21 3.21 0 01.37 1.61 3.41 3.41 0 01-.39 1.73 2.86 2.86 0 01-1 1.06 4.37 4.37 0 01-1.51.54 10.54 10.54 0 01-1.81.14z"/><path d="M87.34 476.19H58.5a9 9 0 00-9.09 8.43 8.85 8.85 0 008.84 9.28h28.84a9 9 0 019.09 8.43 8.85 8.85 0 01-8.84 9.28h-15.4a9 9 0 00-9.09 8.39 8.85 8.85 0 008.84 9.28H181.8a26.56 26.56 0 0026.56-26.56 26.56 26.56 0 00-26.56-26.52H87.34z" fill="url(#linear-gradient-12)"/><circle class="cls-9" cx="142.71" cy="502.75" r="18.62"/><path class="cls-7" d="M149.15 507.11h-9v-2.21h3.86a15.42 15.42 0 003.06-.28 7.43 7.43 0 002.63-1 5.39 5.39 0 001.84-1.95 6.88 6.88 0 00-.21-6.48 4.92 4.92 0 00-2.49-2.14 13.11 13.11 0 00-4.57-.64h-7l-.05 9.92h-1.53v2.58h1.53v2.21h-1.53v2.12h1.53v5.66h3v-5.66l9 .05zm-9-4.83v-7.44h4.19a8.17 8.17 0 011.89.21 4.65 4.65 0 011.52.64 3.17 3.17 0 011 1.13 3.49 3.49 0 01.37 1.69 3.74 3.74 0 01-.42 1.88 3.12 3.12 0 01-1.13 1.15 4.63 4.63 0 01-1.64.58 12.37 12.37 0 01-2 .15z"/><path d="M179.29 527.29h-72.91v-3.88h72.91a20.65 20.65 0 100-41.3h-72.91v-3.88h72.91a24.53 24.53 0 110 49.06z" fill="url(#linear-gradient-13)"/><circle class="cls-21" cx="578.15" cy="370.59" r="11.74"/><path class="cls-21" d="M534.53 382.27l43.72.04-.66-21.33-43.72-.03.66 21.32z"/><circle class="cls-9" cx="616.62" cy="329.61" r="13.31"/><circle class="cls-21" cx="682.88" cy="328.62" r="12.17"/><circle class="cls-9" cx="710.39" cy="376.49" r="11.07"/><path class="cls-9" d="M674.8 398.12l28.06-28.85 14.83 15.34-28.06 28.85-14.83-15.34z"/><circle class="cls-14" cx="680.63" cy="409.11" r="12.96"/><path class="cls-9" d="M624.16 404.78h50.69L690.43 335a13.64 13.64 0 00-13.38-16h-56.67a13.64 13.64 0 00-13.3 16.38z"/><path class="cls-41" d="M643.14 540.78l14.27 5.44a3.28 3.28 0 004.24-1.9L685 483.09a3.28 3.28 0 00-1.9-4.24l-14.27-5.44a3.28 3.28 0 00-4.24 1.9l-23.33 61.23a3.27 3.27 0 001.88 4.24z"/><path d="M666.12 545.13c0-6.34-5.53-11.47-12.33-11.46s-12.29 5.17-12.28 11.51h24.61" fill="#065e79"/><path class="cls-41" d="M666.12 547.1l-24.61.05-.01-2.35 24.61-.05"/><path class="cls-43" d="M629.61 429.7h39.81a5.44 5.44 0 005.44-5.44v-14a5.44 5.44 0 00-5.44-5.44h-39.81a5.44 5.44 0 00-5.44 5.44v14a5.43 5.43 0 005.44 5.44z"/><circle class="cls-5" cx="648.83" cy="341.53" r="1.39"/><circle class="cls-5" cx="648.72" cy="351.58" r="1.47"/><path class="cls-16" d="M624.17 404.78h50.7v4.72h-50.7z"/><path fill="#c7e6ee" d="M645.23 404.78h10v4.72h-10z"/><path class="cls-43" d="M633.76 404.78h2.54v6.04h-2.54zm29.68 0h2.54v5.79h-2.54zm5.02 78.14l15-2.55a3.29 3.29 0 002.69-3.79l-11.37-67.06-18.29 3.1a3.29 3.29 0 00-2.69 3.79l10.83 63.83a3.28 3.28 0 003.83 2.68zm-41.08 61.57h15.27a3.28 3.28 0 003.28-3.28v-63a3.28 3.28 0 00-3.28-3.28h-15.27a3.28 3.28 0 00-3.28 3.28v63a3.27 3.27 0 003.28 3.28z"/><path class="cls-43" d="M627.39 480.81h15.27a3.28 3.28 0 003.28-3.28v-64.74a3.28 3.28 0 00-3.28-3.28h-15.27a3.28 3.28 0 00-3.28 3.28v64.74a3.28 3.28 0 003.28 3.28z"/><path class="cls-21" d="M655 342.75h9.63a1 1 0 001-1v-1.1a1 1 0 00-1-1H655a1 1 0 00-1 1v1.1a1 1 0 001 1z"/><path class="cls-41" d="M635.16 414.63h-11v15.09c6.06.01 11-6.72 11-15.09z"/><circle class="cls-43" cx="675.37" cy="478" r="10.92"/><circle class="cls-43" cx="634.97" cy="476.82" r="10.92"/><path class="cls-16" d="M646.69 544.83c0-6-5.25-10.86-11.7-10.85s-11.67 4.89-11.66 10.89h23.36"/><path class="cls-41" d="M646.61 547.14l-23.35.05-.01-2.36 23.36-.05m18.2-128.36l10.87-1.84c1.39 8.22 2.52 14.88 2.52 14.88-5.99 1.01-11.99-4.82-13.39-13.04z"/><circle class="cls-45" cx="535.1" cy="375.73" r="14.81"/><path class="cls-14" d="M651.83 330.17l-6.17-.19a5.68 5.68 0 01-5.5-5.85l.7-22.79a5.68 5.68 0 015.85-5.5l6.17.19a5.68 5.68 0 015.5 5.85l-.7 22.79a5.67 5.67 0 01-5.85 5.5z"/><path class="cls-21" d="M640.28 316.79l8.54 13.29-3.17 5.17a1.87 1.87 0 01-3.27-.14l-8.29-16zm17.61.38l-9.07 12.93 3 5.3a1.87 1.87 0 003.27 0l9-16.32z"/><path class="cls-20" d="M653.16 307.29l-3 .1a2.78 2.78 0 01-2.87-2.69l-1.17-36.35a2.78 2.78 0 012.69-2.87l3-.1a2.78 2.78 0 012.87 2.69l1.17 36.35a2.78 2.78 0 01-2.69 2.87z"/><path class="cls-45" d="M655.2 312l-11.2 1.56a10.38 10.38 0 01-11.68-8.88l-4.19-30.82a10.38 10.38 0 018.87-11.68l11.18-1.52a10.38 10.38 0 0111.68 8.88l4.19 30.82A10.37 10.37 0 01655.2 312z"/><path d="M645.13 267c-6.27 5.9-11.08 5.24-13.6 4.12-1.22-.54-3.08.12-3.33 1.43-1 4.82.73 13.7 1 15.66.34 2.47 4.74 2.44 5 0a1.94 1.94 0 000-.24c.19-6.29-.91-8.22 4.29-10.56" fill="url(#linear-gradient-14)"/><circle class="cls-45" cx="629.7" cy="291.82" r="4.53"/><circle class="cls-14" cx="630.98" cy="292.35" r="1.5"/><circle class="cls-9" cx="641.19" cy="260.7" r="2.71"/><path class="cls-9" d="M660.37 272.36a10.13 10.13 0 00-1.3-3.82 16.39 16.39 0 00-17-8.93A16.26 16.26 0 00628 277.8z"/><path class="cls-21" d="M628.05 277.8s41.85.35 43.74-3.87-17.89-.57-17.89-.57z"/><path d="M649.58 270l-9.84 1.67a1.15 1.15 0 01-1.33-.94l-.21-1.24a1.15 1.15 0 01.94-1.33l9.84-1.67a1.15 1.15 0 011.33.94l.21 1.24a1.14 1.14 0 01-.94 1.33z" fill="url(#linear-gradient-15)"/><circle class="cls-16" cx="643.81" cy="288.51" r="1.38"/><circle class="cls-16" cx="654.62" cy="286.71" r="1.38"/><path class="cls-45" d="M660.83 311.47l-16.81 2a7.61 7.61 0 01-8.45-6.66l-1-8.21a7.61 7.61 0 016.66-8.45l16.81-2a7.61 7.61 0 018.45 6.66l1 8.21a7.59 7.59 0 01-6.66 8.45z"/><path class="cls-43" d="M659 282.26l-5.64.77a.93.93 0 01-1-.8l-.14-1a.93.93 0 01.8-1.05l5.64-.77a.93.93 0 011.05.8l.14 1a.93.93 0 01-.85 1.05zm-14.45 1.99l-5.64.77a.93.93 0 01-1-.8l-.14-1a.93.93 0 01.8-1l5.64-.77a.93.93 0 011.05.8l.14 1a.92.92 0 01-.85 1z"/><path class="cls-14" d="M654.27 296.2l-5 .68a1 1 0 01-1.09-.83l-.22-1.64a2.08 2.08 0 011.78-2.34l2.83-.38a2.08 2.08 0 012.34 1.78l.22 1.64a1 1 0 01-.86 1.09z"/><path class="cls-16" d="M584.07 446.47c-10.26 3.67-34.78 7.71-66.08 10.58a7.34 7.34 0 01-8-7.31v-3.82a17.33 17.33 0 00-17.33-17.33H388.25a17.33 17.33 0 00-17.33 17.33v4.32a7.35 7.35 0 01-8.12 7.3c-24-2.51-46.08-6.58-64-12.69a3.9 3.9 0 00-5.15 3.7v29.54A28.35 28.35 0 00322 506.44h239a28.35 28.35 0 0028.35-28.35v-27.94a3.9 3.9 0 00-5.28-3.68zM533.61 240.3H350.28c-7.52 0-14.21 5.83-16.69 14.54L320.41 324c-5.51 20.25 2.14 32.63 15.75 32.63h205.66c13.54 0 22.73-13.93 18.7-32.09L550.35 255c-2.44-8.79-9.17-14.7-16.74-14.7z"/><path d="M537.62 441.5a8.25 8.25 0 01-7.07-11.75c5.59-12 19.66-36.93 39.84-36.93 0 0 8.55-2.48 8.55 23.63 0 11.36-3.75 21-23.65 23.68-6.15.87-12.58 1.57-17.67 1.37zm-188.87.93a8.25 8.25 0 007.07-11.75c-5.59-12-19.66-36.93-39.84-36.93 0 0-8.55-2.48-8.55 23.63 0 11.36 3.75 21 23.65 23.68 6.16.83 12.59 1.57 17.67 1.37z" fill="#fdce6a"/><path d="M477.85 444.57h-72.77a19 19 0 00-19 19v42.91h110.75v-42.95a19 19 0 00-18.98-18.96z" style="isolation:isolate" opacity=".11" fill="#fff"/><path class="cls-15" d="M481.4 459.2h-81.9a2.59 2.59 0 01-2.59-2.59 2.59 2.59 0 012.59-2.61h81.9a2.59 2.59 0 012.59 2.59 2.59 2.59 0 01-2.59 2.61zm0 9.93h-81.9a2.59 2.59 0 01-2.59-2.59 2.59 2.59 0 012.59-2.54h81.9a2.59 2.59 0 012.59 2.59 2.59 2.59 0 01-2.59 2.54zm.14 9.11h-81.9a2.59 2.59 0 01-2.59-2.59 2.59 2.59 0 012.59-2.59h81.9a2.59 2.59 0 012.59 2.59 2.59 2.59 0 01-2.59 2.59z"/><path class="cls-4" d="M478.65 500.74h-76.4a5.34 5.34 0 01-5.34-5.34v-5.8a5.34 5.34 0 015.34-5.34h76.4a5.34 5.34 0 015.35 5.34v5.8a5.34 5.34 0 01-5.35 5.34z"/><path d="M429.08 240.24L322.29 349.65a17.93 17.93 0 0013.79 6.89h30.43L480 240.24zm74.39 0l-113.51 116.3h20.94l113.51-116.3h-20.94z" style="isolation:isolate" opacity=".42" fill="#eff7fb"/><path d="M531.44 213.73c0-18 16.68-21.8 16.68-21.8-16.74 0-16.6-19.47-16.6-19.47s-.64 20.29-19 20.29c10.83.01 18.92 9.99 18.92 20.98zm-24.68 4.49a7 7 0 015.3-6.92c-5.32 0-5.27-6.18-5.27-6.18s-.2 6.45-6 6.45c3.41-.01 5.97 3.16 5.97 6.65zm49.86-41.54a2.88 2.88 0 012.16-2.82c-2.16 0-2.14-2.52-2.14-2.52s-.08 2.62-2.45 2.62a2.61 2.61 0 012.43 2.72z" fill="#fff"/><path class="cls-9" d="M226.77 155.44l11.41 4.47 2.21-5.65a4.24 4.24 0 00-2.4-5.49l-3.51-1.38a4.24 4.24 0 00-5.49 2.4z"/><path class="cls-9" d="M213.43 204l1.21.47a1.46 1.46 0 001.89-.83L241.82 139l-3.93-1.54-25.29 64.6a1.47 1.47 0 00.83 1.94z"/><path class="cls-9" d="M234.21 142.22l7.48 2.93a2.11 2.11 0 002.73-1.19l.68-1.75a2.11 2.11 0 00-1.19-2.73l-7.48-2.93a2.11 2.11 0 00-2.73 1.19l-.68 1.75a2.11 2.11 0 001.19 2.73z"/><path class="cls-9" d="M238.77 144l10.16 6.84a9 9 0 0013.37-4.17l-21.3-8.35z"/><path class="cls-52" d="M294.13 156.64l18.24 4.83m-48.53-8.08l28.54 21.5m-32.66-19.59l25.13 41.1"/><circle class="cls-53" cx="298.29" cy="179.35" r="1.17"/><circle class="cls-53" cx="288.78" cy="155.18" r="1.17"/><path class="cls-52" d="M267.06 149.25l16.71 4.43"/><path d="M193.85 200l16.53-31.2a16.09 16.09 0 0115.45-8.5l1.78-4.54 9.43 3.69-1.86 4.76a16.09 16.09 0 015 16l-8.57 34.31a16.1 16.1 0 01-21.49 11.09l-8-3.12a16.08 16.08 0 01-8.27-22.49z" style="isolation:isolate" opacity=".7" fill="#d0eaf3"/><path d="M202.2 222.53l8 3.12a16.1 16.1 0 0021.49-11.09l2.73-10.94-35-14-5.58 10.38a16.11 16.11 0 008.36 22.53z" style="isolation:isolate" opacity=".7" fill="#c4e5ed"/><path d="M223.68 29.81h103.49a43.66 43.66 0 0143.66 43.66c0 1.2-.06 2.39-.16 3.56v54.44a4.94 4.94 0 01-7.22 4.38l-34.75-18.16a4.9 4.9 0 00-2.28-.56H223.69A43.66 43.66 0 01180 73.47a43.64 43.64 0 0143.68-43.66z" fill="#58b14b"/><path class="cls-57" d="M660.81 301.29c-5 3.65-14.16 7.18-21.65-3.31-.31-.43.2-1.15.57-.76 3.21 3.33 11.39 7.14 20.73 3.18.54-.22.81.6.35.89z"/><path class="cls-57" d="M640.33 295.26c.12-.38.63-.35.58 0-.18 1.28-1.74 4.49-4 3.09-2.05-1.23 2.59-.35 3.42-3.09z"/><path class="cls-22" d="M649.48 308.12a1.37 1.37 0 00-.66 2.25 4.42 4.42 0 007.6-2 1.37 1.37 0 00-1.68-1.64z"/><text transform="translate(228.3 83.06)" font-size="32.86" font-family="ProximaNova-Bold,Proxima Nova" font-weight="700" fill="#fff">1590р</text></svg>