<?xml version="1.0" encoding="utf-8"?>
<!-- Generator: Adobe Illustrator 23.1.0, SVG Export Plug-In . SVG Version: 6.00 Build 0)  -->
<svg version="1.1" id="Layer_1" xmlns="http://www.w3.org/2000/svg" xmlns:xlink="http://www.w3.org/1999/xlink" x="0px" y="0px"
	 viewBox="0 0 910 567" style="enable-background:new 0 0 910 567;" xml:space="preserve">
<style type="text/css">
	.st0{fill:#C4E5ED;}
	.st1{fill:url(#SVGID_1_);}
	.st2{fill:#4195B7;}
	.st3{fill:#FCD3B5;}
	.st4{fill:#008F7F;}
	.st5{fill:#F7B394;}
	.st6{fill:#37A539;}
	.st7{fill:#43AE5D;}
	.st8{fill:url(#SVGID_2_);}
	.st9{fill:#62A4C0;}
	.st10{fill:url(#SVGID_3_);}
	.st11{fill:#FAB95F;}
	.st12{fill:#1D627E;}
	.st13{fill:#C7E6EE;}
	.st14{fill:url(#SVGID_4_);}
	.st15{fill:url(#SVGID_5_);}
	.st16{fill:url(#SVGID_6_);}
	.st17{fill:url(#SVGID_7_);}
	.st18{fill:url(#SVGID_8_);}
	.st19{fill:url(#SVGID_9_);}
	.st20{fill:#F8C671;}
	.st21{fill:url(#SVGID_10_);}
	.st22{fill:#AFD7DD;}
	.st23{fill:#EFF7FB;}
	.st24{fill:url(#SVGID_11_);}
	.st25{fill:url(#SVGID_12_);}
	.st26{fill:url(#SVGID_13_);}
	.st27{fill:url(#SVGID_14_);}
	.st28{fill:url(#SVGID_15_);}
	.st29{fill:url(#SVGID_16_);}
	.st30{fill:#EC6743;}
	.st31{fill:url(#SVGID_17_);}
	.st32{fill:url(#SVGID_18_);}
	.st33{fill:#5BB24C;}
	.st34{fill:url(#SVGID_19_);}
	.st35{fill:url(#SVGID_20_);}
	.st36{fill:url(#SVGID_21_);}
	.st37{fill:#F18675;}
	.st38{fill:#046B89;}
	.st39{fill:#EA5539;}
	.st40{fill:#E62555;}
	.st41{fill:#FFFFFF;}
	.st42{fill:none;}
	.st43{fill:#D0EAF3;}
	.st44{fill:url(#SVGID_22_);}
	.st45{fill:#D6EDF4;}
	.st46{fill:url(#SVGID_23_);}
	.st47{fill:url(#SVGID_24_);}
	.st48{fill:url(#SVGID_25_);}
	.st49{fill:#FAB755;}
	.st50{fill:#EC6544;}
	.st51{fill:#83B0C7;}
	.st52{fill:#FAB854;}
	.st53{fill:url(#SVGID_26_);}
	.st54{fill:#4093B6;}
	.st55{fill:url(#SVGID_27_);}
	.st56{fill:url(#SVGID_28_);}
	.st57{fill:url(#SVGID_29_);}
	.st58{fill:#A8DAE3;}
	.st59{fill:#04617B;}
	.st60{fill:url(#SVGID_30_);}
	.st61{fill:url(#SVGID_31_);}
	.st62{fill:#FCD4B7;}
	.st63{fill:url(#SVGID_32_);}
	.st64{fill:url(#SVGID_33_);}
	.st65{fill:url(#SVGID_34_);}
	.st66{fill:url(#SVGID_35_);}
	.st67{fill:url(#SVGID_36_);}
	.st68{fill:#FFF5E9;}
	.st69{fill:url(#SVGID_37_);}
	.st70{fill:url(#SVGID_38_);}
	.st71{fill:url(#SVGID_39_);}
	.st72{fill:url(#SVGID_40_);}
	.st73{fill:url(#SVGID_41_);}
	.st74{fill:url(#SVGID_42_);}
	.st75{fill:url(#SVGID_43_);}
	.st76{fill:#1B5A6F;}
	.st77{fill:url(#SVGID_44_);}
	.st78{fill:url(#SVGID_45_);}
	.st79{fill:url(#SVGID_46_);}
	.st80{fill:#065E79;}
	.st81{fill:url(#SVGID_47_);}
	.st82{fill:url(#SVGID_48_);}
	.st83{fill:#FDCE6A;}
	.st84{opacity:0.11;fill:#FFFFFF;enable-background:new    ;}
	.st85{opacity:0.42;fill:#EFF7FB;enable-background:new    ;}
	.st86{fill:none;stroke:#D0EAF3;stroke-width:2;stroke-linecap:round;stroke-miterlimit:10;}
	.st87{opacity:0.7;fill:#D0EAF3;enable-background:new    ;}
	.st88{opacity:0.7;fill:#C4E5ED;enable-background:new    ;}
	.st89{opacity:0.73;fill:#EFF7FB;enable-background:new    ;}
	.st90{fill:#D9EEF4;}
	.st91{fill:#CDE9F0;}
	.st92{fill:url(#SVGID_49_);}
	.st93{fill:url(#SVGID_50_);}
	.st94{fill:#3B85A9;}
	.st95{fill:url(#SVGID_51_);}
	.st96{fill:url(#SVGID_52_);}
	.st97{fill:url(#SVGID_53_);}
	.st98{fill:#F18775;}
	.st99{fill:url(#SVGID_54_);}
	.st100{fill:url(#SVGID_55_);}
	.st101{fill:url(#SVGID_56_);}
	.st102{fill:#4FB26D;}
	.st103{fill:url(#SVGID_57_);}
	.st104{fill:url(#SVGID_58_);}
	.st105{fill:url(#SVGID_59_);}
	.st106{fill:url(#SVGID_60_);}
	.st107{fill:url(#SVGID_61_);}
	.st108{fill:url(#SVGID_62_);}
	.st109{fill:url(#SVGID_63_);}
	.st110{fill:#F49C7E;}
	.st111{fill:url(#SVGID_64_);}
	.st112{fill:url(#SVGID_65_);}
	.st113{fill:#FED377;}
	.st114{fill:url(#SVGID_66_);}
	.st115{fill:url(#SVGID_67_);}
	.st116{fill:#124657;}
	.st117{opacity:0.19;fill:#FFFFFF;enable-background:new    ;}
	.st118{fill:#F7F9F9;}
	.st119{fill:url(#SVGID_68_);}
	.st120{fill:url(#SVGID_69_);}
	.st121{fill:url(#SVGID_70_);}
	.st122{fill:url(#SVGID_71_);}
	.st123{fill:#D9EEF3;}
	.st124{fill:url(#SVGID_72_);}
	.st125{fill:url(#SVGID_73_);}
	.st126{fill:#FAFDFF;}
	.st127{fill:url(#SVGID_74_);}
	.st128{fill:url(#SVGID_75_);}
	.st129{fill:url(#SVGID_76_);}
	.st130{opacity:0.68;fill:url(#SVGID_77_);enable-background:new    ;}
	.st131{fill:url(#SVGID_78_);}
	.st132{opacity:0.68;fill:url(#SVGID_79_);enable-background:new    ;}
	.st133{fill:url(#SVGID_80_);}
	.st134{opacity:0.68;fill:url(#SVGID_81_);enable-background:new    ;}
	.st135{fill:url(#SVGID_82_);}
	.st136{fill:url(#SVGID_83_);}
	.st137{fill:url(#SVGID_84_);}
	.st138{fill:url(#SVGID_85_);}
	.st139{fill:url(#SVGID_86_);}
	.st140{fill:#03949D;}
	.st141{fill:#E84B33;}
	.st142{fill:url(#SVGID_87_);}
	.st143{fill:url(#SVGID_88_);}
	.st144{fill:url(#SVGID_89_);}
	.st145{fill:url(#SVGID_90_);}
	.st146{fill:url(#SVGID_91_);}
	.st147{fill:#F4A182;}
	.st148{fill:#0C5879;}
	.st149{fill:#FBCEAD;}
	.st150{fill:#FBCCA3;}
	.st151{fill:url(#SVGID_92_);}
	.st152{fill:url(#SVGID_93_);}
	.st153{fill:url(#SVGID_94_);}
	.st154{fill:url(#SVGID_95_);}
	.st155{fill:#03A86F;}
	.st156{fill:url(#SVGID_96_);}
	.st157{fill:url(#SVGID_97_);}
	.st158{fill:url(#SVGID_98_);}
	.st159{fill:url(#SVGID_99_);}
	.st160{fill:url(#SVGID_100_);}
	.st161{fill:url(#SVGID_101_);}
	.st162{fill:url(#SVGID_102_);}
	.st163{fill:#A5D2D9;}
	.st164{fill:url(#SVGID_103_);}
	.st165{fill:url(#SVGID_104_);}
	.st166{fill:url(#SVGID_105_);}
	.st167{fill:url(#SVGID_106_);}
	.st168{fill:url(#SVGID_107_);}
	.st169{fill:url(#SVGID_108_);}
	.st170{fill:#F6AD98;}
	.st171{fill:#7FBCD1;}
	.st172{fill:#F39886;}
	.st173{fill:url(#SVGID_109_);}
	.st174{fill:url(#SVGID_110_);}
	.st175{fill:url(#SVGID_111_);}
	.st176{fill:#07787F;}
	.st177{fill:url(#SVGID_112_);}
	.st178{fill:url(#SVGID_113_);}
	.st179{fill:url(#SVGID_114_);}
	.st180{fill:url(#SVGID_115_);}
	.st181{fill:url(#SVGID_116_);}
	.st182{fill:#F8AA3C;}
	.st183{fill:url(#SVGID_117_);}
	.st184{fill:url(#SVGID_118_);}
	.st185{fill:none;stroke:#5BB24C;stroke-width:3;stroke-linecap:round;stroke-miterlimit:10;}
	.st186{fill:none;stroke:#5BB24C;stroke-width:3;stroke-linecap:round;stroke-miterlimit:10;stroke-dasharray:11.9912,11.9912;}
	.st187{fill:none;stroke:#5BB24C;stroke-width:3;stroke-linecap:round;stroke-linejoin:round;stroke-miterlimit:10;}
	.st188{fill:url(#SVGID_119_);}
	.st189{fill:url(#SVGID_120_);}
	.st190{fill:url(#SVGID_121_);}
	.st191{fill:url(#SVGID_122_);}
	.st192{fill:url(#SVGID_123_);}
	.st193{fill:url(#SVGID_124_);}
	.st194{fill:url(#SVGID_125_);}
	.st195{fill:url(#SVGID_126_);}
	.st196{fill:url(#SVGID_127_);}
	.st197{fill:url(#SVGID_128_);}
	.st198{fill:url(#SVGID_129_);}
	.st199{opacity:0.4;}
	.st200{opacity:0.31;fill:#FAB95F;enable-background:new    ;}
	.st201{opacity:0.43;fill:#FAB95F;enable-background:new    ;}
	.st202{fill:url(#SVGID_130_);}
	.st203{fill:url(#SVGID_131_);}
	.st204{fill:url(#SVGID_132_);}
	.st205{fill:url(#SVGID_133_);}
	.st206{fill:url(#SVGID_134_);}
	.st207{fill:url(#SVGID_135_);}
	.st208{fill:url(#SVGID_136_);}
	.st209{fill:url(#SVGID_137_);}
	.st210{fill:url(#SVGID_138_);}
	.st211{fill:#FCDAC2;}
	.st212{fill:#EF7A5B;}
	.st213{fill:#77AFC6;}
	.st214{fill:#F1876F;}
	.st215{fill:#89B9CE;}
	.st216{fill:#FFD884;}
	.st217{fill:url(#SVGID_139_);}
	.st218{fill:url(#SVGID_140_);}
	.st219{fill:url(#SVGID_141_);}
	.st220{fill:url(#SVGID_142_);}
	.st221{fill:url(#SVGID_143_);}
	.st222{fill:url(#SVGID_144_);}
	.st223{fill:#FCD5B7;}
	.st224{fill:url(#SVGID_145_);}
	.st225{fill:url(#SVGID_146_);}
	.st226{fill:url(#SVGID_147_);}
	.st227{fill:url(#SVGID_148_);}
	.st228{fill:#F8BC9F;}
	.st229{fill:url(#SVGID_149_);}
	.st230{fill:url(#SVGID_150_);}
	.st231{fill:url(#SVGID_151_);}
	.st232{fill:url(#SVGID_152_);}
	.st233{fill:url(#SVGID_153_);}
	.st234{fill:url(#SVGID_154_);}
	.st235{fill:#F7B395;}
	.st236{fill:url(#SVGID_155_);}
	.st237{fill:url(#SVGID_156_);}
	.st238{fill:url(#SVGID_157_);}
	.st239{fill:url(#SVGID_158_);}
	.st240{fill:url(#SVGID_159_);}
	.st241{fill:url(#SVGID_160_);}
	.st242{fill:url(#SVGID_161_);}
	.st243{fill:url(#SVGID_162_);}
	.st244{fill:url(#SVGID_163_);}
	.st245{fill:url(#SVGID_164_);}
	.st246{fill:url(#SVGID_165_);}
	.st247{fill:url(#SVGID_166_);}
	.st248{fill:url(#SVGID_167_);}
	.st249{fill:url(#SVGID_168_);}
	.st250{fill:url(#SVGID_169_);}
	.st251{fill:url(#SVGID_170_);}
	.st252{fill:url(#SVGID_171_);}
	.st253{fill:url(#SVGID_172_);}
	.st254{fill:url(#SVGID_173_);}
	.st255{fill:url(#SVGID_174_);}
	.st256{fill:url(#SVGID_175_);}
	.st257{fill:url(#SVGID_176_);}
	.st258{fill:url(#SVGID_177_);}
	.st259{fill:url(#SVGID_178_);}
	.st260{fill:url(#SVGID_179_);}
	.st261{fill:url(#SVGID_180_);}
	.st262{fill:url(#SVGID_181_);}
	.st263{fill:url(#SVGID_182_);}
	.st264{fill:url(#SVGID_183_);}
	.st265{fill:url(#SVGID_184_);}
	.st266{fill:url(#SVGID_185_);}
	.st267{fill:url(#SVGID_186_);}
	.st268{fill:url(#SVGID_187_);}
	.st269{fill:#FCFEFF;}
	.st270{fill:#FCF4F2;}
	.st271{fill:url(#SVGID_188_);}
	.st272{fill:url(#SVGID_189_);}
	.st273{fill:url(#SVGID_190_);}
	.st274{fill:none;stroke:#43AE5D;stroke-width:2;stroke-linecap:round;stroke-miterlimit:10;}
	.st275{fill:url(#SVGID_191_);}
	.st276{fill:url(#SVGID_192_);}
	.st277{fill:url(#SVGID_193_);}
	.st278{fill:url(#SVGID_194_);}
	.st279{fill:url(#SVGID_195_);}
	.st280{fill:url(#SVGID_196_);}
	.st281{fill:#CEE9EF;}
	.st282{fill:url(#SVGID_197_);}
	.st283{fill:url(#SVGID_198_);}
	.st284{fill:url(#SVGID_199_);}
	.st285{fill:url(#SVGID_200_);}
	.st286{fill:url(#SVGID_201_);}
	.st287{fill:none;stroke:#5BB24C;stroke-width:3;stroke-linecap:round;stroke-miterlimit:10;stroke-dasharray:11.9199,11.9199;}
	.st288{fill:url(#SVGID_202_);}
	.st289{fill:url(#SVGID_203_);}
	.st290{fill:#F7FCFD;}
	.st291{fill:url(#SVGID_204_);}
	.st292{fill:url(#SVGID_205_);}
	.st293{fill:url(#SVGID_206_);}
	.st294{fill:url(#SVGID_207_);}
	.st295{fill:url(#SVGID_208_);}
	.st296{fill:url(#SVGID_209_);}
	.st297{fill:url(#SVGID_210_);}
	.st298{fill:url(#SVGID_211_);}
	.st299{fill:url(#SVGID_212_);}
	.st300{fill:url(#SVGID_213_);}
	.st301{fill:url(#SVGID_214_);}
	.st302{fill:url(#SVGID_215_);}
	.st303{fill:url(#SVGID_216_);}
	.st304{fill:url(#SVGID_217_);}
	.st305{fill:url(#SVGID_218_);}
	.st306{fill:url(#SVGID_219_);}
	.st307{fill:url(#SVGID_220_);}
	.st308{fill:url(#SVGID_221_);}
	.st309{fill:url(#SVGID_222_);}
	.st310{fill:url(#SVGID_223_);}
	.st311{fill:url(#SVGID_224_);}
	.st312{fill:url(#SVGID_225_);}
	.st313{fill:url(#SVGID_226_);}
	.st314{fill:url(#SVGID_227_);}
	.st315{fill:url(#SVGID_228_);}
	.st316{fill:url(#SVGID_229_);}
	.st317{fill:url(#SVGID_230_);}
	.st318{fill:url(#SVGID_231_);}
	.st319{fill:url(#SVGID_232_);}
	.st320{fill:url(#SVGID_233_);}
	.st321{fill:url(#SVGID_234_);}
	.st322{fill:url(#SVGID_235_);}
	.st323{fill:url(#SVGID_236_);}
	.st324{fill:url(#SVGID_237_);}
	.st325{fill:url(#SVGID_238_);}
	.st326{fill:url(#SVGID_239_);}
	.st327{fill:url(#SVGID_240_);}
	.st328{fill:url(#SVGID_241_);}
	.st329{fill:url(#SVGID_242_);}
	.st330{fill:url(#SVGID_243_);}
	.st331{fill:url(#SVGID_244_);}
	.st332{fill:url(#SVGID_245_);}
	.st333{fill:url(#SVGID_246_);}
	.st334{fill:url(#SVGID_247_);}
	.st335{fill:url(#SVGID_248_);}
	.st336{fill:url(#SVGID_249_);}
	.st337{fill:url(#SVGID_250_);}
	.st338{fill:url(#SVGID_251_);}
	.st339{fill:url(#SVGID_252_);}
	.st340{fill:url(#SVGID_253_);}
	.st341{fill:#58B14B;}
	.st342{fill:url(#SVGID_254_);}
	.st343{fill:url(#SVGID_255_);}
	.st344{fill:#FAB853;}
	.st345{fill:url(#SVGID_256_);}
	.st346{fill:url(#SVGID_257_);}
	.st347{fill:url(#SVGID_258_);}
	.st348{fill:url(#SVGID_259_);}
	.st349{fill:url(#SVGID_260_);}
	.st350{fill:url(#SVGID_261_);}
	.st351{fill:url(#SVGID_262_);}
	.st352{fill:url(#SVGID_263_);}
	.st353{fill:#FBD2B4;}
	.st354{fill:#3F95B7;}
	.st355{fill:#60A3BF;}
	.st356{fill:url(#SVGID_264_);}
	.st357{fill:#016A89;}
	.st358{fill:#1C617D;}
	.st359{fill:url(#SVGID_265_);}
	.st360{fill:#F7B293;}
	.st361{fill:url(#SVGID_266_);}
	.st362{fill:#EC6643;}
	.st363{fill:url(#SVGID_267_);}
	.st364{fill:url(#SVGID_268_);}
</style>
<path class="st123" d="M864.68,51L864.68,51c-1.69,0-3.05-1.37-3.05-3.05V19.16c0-1.69,1.37-3.05,3.05-3.05l0,0
	c1.69,0,3.05,1.37,3.05,3.05v28.79C867.73,49.63,866.36,51,864.68,51z"/>
<linearGradient id="SVGID_1_" gradientUnits="userSpaceOnUse" x1="429.4659" y1="-1518.7856" x2="1373.4658" y2="-276.1189" gradientTransform="matrix(1 0 0 -1 0 -991.408)">
	<stop  offset="0" style="stop-color:#ECF6FB;stop-opacity:0.1"/>
	<stop  offset="0.0589" style="stop-color:#E7F4FA;stop-opacity:0.153"/>
	<stop  offset="0.3401" style="stop-color:#D9EEF4;stop-opacity:0.4061"/>
	<stop  offset="0.6423" style="stop-color:#D1EAF1;stop-opacity:0.6781"/>
	<stop  offset="1" style="stop-color:#CDE9F0"/>
</linearGradient>
<path class="st1" d="M862.26,403.43c18.03-35.57,28.24-75.97,28.24-118.81c0-139.76-108.43-253.56-243.81-257.99
	c-15.32-17.1-37.78-27.9-62.83-27.9c-30.89,0-57.85,16.42-72.33,40.84c-7.45-1.36-15.12-2.07-22.95-2.07
	c-62.93,0-115.38,45.93-127.17,106.84c-198.2,41.89-346.74,214.64-346.74,421.4h879.85C894.52,508.31,883.05,453.53,862.26,403.43z"
	/>
<path class="st123" d="M882.12,33.56L882.12,33.56c0,1.69-1.37,3.05-3.05,3.05h-28.79c-1.69,0-3.05-1.37-3.05-3.05l0,0
	c0-1.69,1.37-3.05,3.05-3.05h28.79C880.75,30.5,882.12,31.87,882.12,33.56z"/>
<g>
	<path class="st123" d="M27.33,46.38c-9.27,0-16.82-7.54-16.82-16.82s7.54-16.82,16.82-16.82c9.27,0,16.82,7.54,16.82,16.82
		S36.6,46.38,27.33,46.38z M27.33,18.18c-6.28,0-11.38,5.11-11.38,11.38s5.11,11.38,11.38,11.38c6.28,0,11.38-5.11,11.38-11.38
		S33.6,18.18,27.33,18.18z"/>
</g>
<path class="st43" d="M33.51,558.43L33.51,558.43c-1.34,0-2.42-1.08-2.42-2.42v-22.8c0-1.34,1.08-2.42,2.42-2.42l0,0
	c1.34,0,2.42,1.08,2.42,2.42v22.8C35.92,557.34,34.84,558.43,33.51,558.43z"/>
<path class="st43" d="M47.33,544.61L47.33,544.61c0,1.34-1.08,2.42-2.42,2.42h-22.8c-1.34,0-2.42-1.08-2.42-2.42l0,0
	c0-1.34,1.08-2.42,2.42-2.42h22.8C46.24,542.19,47.33,543.27,47.33,544.61z"/>
<linearGradient id="SVGID_2_" gradientUnits="userSpaceOnUse" x1="771.7805" y1="-1183.9244" x2="771.7805" y2="-736.7658" gradientTransform="matrix(1 0 0 -1 0 -991.408)">
	<stop  offset="0.2155" style="stop-color:#FAFDFF"/>
	<stop  offset="0.2587" style="stop-color:#F6FBFE"/>
	<stop  offset="0.4713" style="stop-color:#E5F4F8"/>
	<stop  offset="0.6901" style="stop-color:#DDF0F6"/>
	<stop  offset="0.9228" style="stop-color:#D9EEF3"/>
	<stop  offset="0.9285" style="stop-color:#D9EEF3"/>
	<stop  offset="1" style="stop-color:#D9EEF3"/>
</linearGradient>
<path class="st8" d="M809.16,138.45h-14.08c0-18.27-14.81-33.09-33.09-33.09s-33.09,14.81-33.09,33.09c0,0.15,0.01,0.3,0.01,0.45
	c-16.27,2.63-28.69,16.74-28.69,33.74l0,0c0,18.88,15.31,34.19,34.19,34.19h74.75c18.88,0,34.19-15.31,34.19-34.19l0,0
	C843.35,153.76,828.05,138.45,809.16,138.45z"/>
<path class="st0" d="M584.45,114.49c-0.82,0-1.65-0.31-2.28-0.94L565.5,96.88c-1.26-1.26-1.26-3.3,0-4.56c1.26-1.26,3.3-1.26,4.56,0
	l14.39,14.39l14.39-14.39c1.26-1.26,3.3-1.26,4.56,0s1.26,3.3,0,4.56l-16.67,16.67C586.1,114.18,585.28,114.49,584.45,114.49z"/>
<path class="st0" d="M551.68,155.58c-0.49,0-0.99-0.19-1.37-0.57l-10.65-10.65c-0.76-0.75-0.76-1.98,0-2.74
	c0.76-0.76,1.98-0.76,2.74,0l9.28,9.28l9.28-9.28c0.76-0.76,1.98-0.76,2.74,0c0.76,0.75,0.76,1.98,0,2.74l-10.65,10.65
	C552.67,155.39,552.17,155.58,551.68,155.58z"/>
<linearGradient id="SVGID_3_" gradientUnits="userSpaceOnUse" x1="158.4621" y1="-856.6846" x2="145.1286" y2="-1635.3512" gradientTransform="matrix(1 0 0 -1 0 -991.408)">
	<stop  offset="0.2155" style="stop-color:#FAFDFF"/>
	<stop  offset="0.2587" style="stop-color:#F6FBFE"/>
	<stop  offset="0.4713" style="stop-color:#E5F4F8"/>
	<stop  offset="0.6901" style="stop-color:#DDF0F6"/>
	<stop  offset="0.9228" style="stop-color:#D9EEF3"/>
	<stop  offset="0.9285" style="stop-color:#D9EEF3"/>
	<stop  offset="1" style="stop-color:#D9EEF3"/>
</linearGradient>
<path class="st10" d="M196.61,73.35h-15.97c0-20.71-16.79-37.5-37.5-37.5s-37.5,16.79-37.5,37.5c0,0.17,0.01,0.34,0.01,0.51
	c-18.44,2.98-32.52,18.97-32.52,38.24l0,0c0,21.4,17.35,38.75,38.75,38.75h84.72c21.4,0,38.75-17.35,38.75-38.75l0,0
	C235.36,90.7,218.01,73.35,196.61,73.35z"/>
<linearGradient id="SVGID_4_" gradientUnits="userSpaceOnUse" x1="233.1705" y1="-1305.2831" x2="233.1705" y2="-364.8254" gradientTransform="matrix(1 0 0 -1 0 -991.408)">
	<stop  offset="0.2155" style="stop-color:#FAFDFF"/>
	<stop  offset="0.2869" style="stop-color:#F4FAFD"/>
	<stop  offset="0.4999" style="stop-color:#E4F3F8"/>
	<stop  offset="0.7289" style="stop-color:#DDF0F4"/>
	<stop  offset="1" style="stop-color:#D9EEF3"/>
</linearGradient>
<path class="st14" d="M255.65,69.75h-8.47c0-10.99-8.91-19.9-19.9-19.9c-10.99,0-19.9,8.91-19.9,19.9c0,0.09,0.01,0.18,0.01,0.27
	c-9.78,1.58-17.25,10.06-17.25,20.29l0,0c0,11.36,9.21,20.56,20.56,20.56h44.95c11.36,0,20.56-9.21,20.56-20.56l0,0
	C276.21,78.95,267.01,69.75,255.65,69.75z"/>
<linearGradient id="SVGID_5_" gradientUnits="userSpaceOnUse" x1="465.1905" y1="-1559.2502" x2="465.1905" y2="-1167.9412" gradientTransform="matrix(1 0 0 -1 0 -991.408)">
	<stop  offset="0" style="stop-color:#ECF6FB;stop-opacity:0.1"/>
	<stop  offset="0.2529" style="stop-color:#E1F1F7;stop-opacity:0.3276"/>
	<stop  offset="0.5948" style="stop-color:#D9EEF4;stop-opacity:0.6353"/>
	<stop  offset="1" style="stop-color:#D6EDF4"/>
</linearGradient>
<path class="st15" d="M776.42,363.02v-74.28c0-5.1-4.13-9.23-9.23-9.23H646.65c-5.1,0-9.23,4.13-9.23,9.23v119.9
	c0,5.1-4.13,9.23-9.23,9.23H499.25c-5.1,0-9.23-4.13-9.23-9.23V89.4c0-5.1-4.13-9.23-9.23-9.23h-49.51c-5.1,0-9.23,4.13-9.23,9.23
	v255.72c0,5.1-4.13,9.23-9.23,9.23h-61.73c-5.1,0-9.23,4.13-9.23,9.23v12.88c0,5.1-4.13,9.23-9.23,9.23h-78.54
	c-5.1,0-9.23-4.13-9.23-9.23V231.3c0-5.1-4.13-9.23-9.23-9.23h-77.01c-5.1,0-9.23,4.13-9.23,9.23v145.17c0,5.1-4.13,9.23-9.23,9.23
	H45.53v117.39H149.4h84.01h11.46h96.99h8.94h71.25h3.05h54.99h9.93h147.4h12.98h94.7h31.31h108.45V372.25h-99.22
	C780.56,372.25,776.42,368.12,776.42,363.02z"/>
<linearGradient id="SVGID_6_" gradientUnits="userSpaceOnUse" x1="506.431" y1="-1296.0721" x2="507.2736" y2="-1505.8848" gradientTransform="matrix(1 0 0 -1 0 -991.408)">
	<stop  offset="0" style="stop-color:#FFEFD9"/>
	<stop  offset="1" style="stop-color:#F39989"/>
</linearGradient>
<rect x="473.67" y="360.25" class="st16" width="66.18" height="50.45"/>
<rect x="524.77" y="364.56" class="st170" width="9.28" height="9.28"/>
<path class="st171" d="M474.09,382.9l-5.19,1.57c-0.24,0.07-0.49-0.06-0.56-0.3l-0.42-1.4c-0.07-0.24,0.06-0.49,0.3-0.56l5.19-1.57
	c0.24-0.07,0.49,0.06,0.56,0.3l0.42,1.4C474.47,382.58,474.33,382.83,474.09,382.9z"/>
<path class="st171" d="M469.44,373.32l-1.96,0.59c-0.57,0.17-1.18-0.15-1.35-0.72l-0.25-0.82c-0.17-0.57,0.15-1.18,0.72-1.35
	l1.96-0.59c0.57-0.17,1.18,0.15,1.35,0.72l0.25,0.82C470.33,372.54,470.01,373.15,469.44,373.32z"/>
<rect x="469.49" y="355.91" transform="matrix(0.9573 -0.2892 0.2892 0.9573 -89.8264 152.2868)" class="st171" width="1.88" height="48.42"/>
<polygon class="st172" points="480.49,368.41 455.87,375.84 453.35,358.63 473.01,352.69 "/>
<path class="st171" d="M476.06,386.55l-6.78,2.05c-0.24,0.07-0.49-0.06-0.56-0.3l-0.42-1.4c-0.07-0.24,0.06-0.49,0.3-0.56l6.78-2.05
	c0.24-0.07,0.49,0.06,0.56,0.3l0.42,1.4C476.43,386.23,476.3,386.48,476.06,386.55z"/>
<polygon class="st171" points="485.26,400.92 483.3,401.51 472.49,386.89 474.03,385.75 "/>
<polygon class="st171" points="469.69,405.62 471.64,405.03 472.55,386.87 470.64,386.77 "/>
<g>
	<path class="st5" d="M523.13,402.51h-20.36c-0.44,0-0.79-0.35-0.79-0.79s0.35-0.79,0.79-0.79h20.36c0.44,0,0.79,0.35,0.79,0.79
		C523.92,402.15,523.57,402.51,523.13,402.51z"/>
</g>
<g>
	<path class="st5" d="M514.44,407.13h-11.67c-0.44,0-0.79-0.35-0.79-0.79s0.35-0.79,0.79-0.79h11.67c0.44,0,0.79,0.35,0.79,0.79
		S514.88,407.13,514.44,407.13z"/>
</g>
<linearGradient id="SVGID_7_" gradientUnits="userSpaceOnUse" x1="424.3948" y1="-1274.7476" x2="568.2021" y2="-1663.8511" gradientTransform="matrix(1 0 0 -1 0 -991.408)">
	<stop  offset="0" style="stop-color:#FFEFD9"/>
	<stop  offset="1" style="stop-color:#F39989"/>
</linearGradient>
<polygon class="st17" points="491.06,411.75 449.32,419.29 443.46,386.86 485.2,379.32 "/>
<linearGradient id="SVGID_8_" gradientUnits="userSpaceOnUse" x1="544.4349" y1="-1329.0037" x2="527.8635" y2="-1530.109" gradientTransform="matrix(1 0 0 -1 0 -991.408)">
	<stop  offset="0" style="stop-color:#FFEFD9"/>
	<stop  offset="1" style="stop-color:#F39989"/>
</linearGradient>
<polygon class="st18" points="508.27,419.5 562.25,429.17 569.77,387.22 515.78,377.55 "/>
<rect x="557.19" y="389.38" transform="matrix(0.1763 -0.9843 0.9843 0.1763 75.0531 876.1389)" class="st170" width="7.69" height="7.69"/>
<rect x="445.97" y="388.51" transform="matrix(0.9841 -0.1778 0.1778 0.9841 -62.4512 86.0566)" class="st170" width="5.95" height="5.95"/>
<rect x="479.49" y="374.44" transform="matrix(0.9941 -0.1083 0.1083 0.9941 -39.1784 56.8437)" class="st118" width="48.48" height="29.33"/>
<rect x="480.69" y="375.86" transform="matrix(0.9941 -0.1083 0.1083 0.9941 -38.9202 56.8074)" class="st2" width="45.67" height="21.7"/>
<path class="st140" d="M505.64,401.57l-0.99,0.11c-0.37,0.04-0.7-0.22-0.73-0.59l-0.11-0.99c-0.04-0.37,0.22-0.7,0.59-0.73
	l0.99-0.11c0.37-0.04,0.7,0.22,0.73,0.59l0.11,0.99C506.27,401.21,506.01,401.53,505.64,401.57z"/>
<path class="st83" d="M338.47,473.44l-6.56,5.61c-4.08,3.65-6.96,8.6-8.03,14.19C326.34,493.4,337.9,493.1,338.47,473.44z"/>
<g>
	<path class="st83" d="M398.11,511.56h15.49c2.9,0,5.36-1.83,6.32-4.39h-22.39C397.87,508.59,398.07,510.05,398.11,511.56z"/>
	<path class="st83" d="M420.36,466.62c-30.19,9.26-51.43,20.04-65.59,29c2.18,0,4.31,0,6.34,0c2.42,0,4.7,0,6.7,0
		c3.12-1.76,6.58-3.59,10.4-5.47c10.78-5.32,24.4-11,41.23-16.25c0.31-0.1,0.62-0.19,0.93-0.29c33.3-10.29,80.24-19.82,147.67-19.82
		l1.38-8.17C504.61,446.65,456.44,455.55,420.36,466.62z"/>
</g>
<linearGradient id="SVGID_9_" gradientUnits="userSpaceOnUse" x1="319.5074" y1="-1447.0752" x2="1480.3964" y2="-1335.0752" gradientTransform="matrix(1 0 0 -1 0 -991.408)">
	<stop  offset="0" style="stop-color:#6BB75A"/>
	<stop  offset="1" style="stop-color:#06727E"/>
	<stop  offset="1" style="stop-color:#009D90"/>
</linearGradient>
<path class="st19" d="M575.09,407.81c0-3.73-3.02-6.76-6.76-6.76H436.5c-3.73,0-6.76,3.02-6.76,6.76l-3.91,24.48h-5.91h-28.81
	c-1.68,0-4.87,0.09-6.52,1.75l-46.13,39.4c-0.57,19.66-12.14,19.96-14.59,19.8c-0.04,0.19-0.06,0.38-0.1,0.57
	c0.77,0.98,1.89,1.81,3.47,1.81c2.01,0,15.33,0,27.53,0c14.1-8.92,28.32-15.95,59.4-27.02l7.11-2.25
	c35.98-10.94,83.87-19.7,148.13-20.73L575.09,407.81z"/>
<path class="st176" d="M385.53,439.21c-0.62,0-1.79,0.03-2.4,0.64l-19.36,16.54c-1.92,1.72-3.12,4.21-3.12,6.98v1.3
	c0,2.03,1.64,3.67,3.67,3.67h36.38c1.37,0,2.48-1.11,2.48-2.48l4.95-24.16c0-1.37-1.11-2.48-2.48-2.48h-20.12V439.21z"/>
<path class="st176" d="M352.53,472.5h-0.86c-0.6,0-1.09-0.49-1.09-1.09v-13.68c0-0.6,0.49-1.09,1.09-1.09h0.86
	c0.6,0,1.09,0.49,1.09,1.09v13.68C353.62,472.01,353.13,472.5,352.53,472.5z"/>
<path class="st176" d="M350.58,468.92c-2.08,0-3.77-1.69-3.77-3.77s1.69-3.77,3.77-3.77V468.92z"/>
<polygon class="st117" points="392.34,468.34 404.47,459.46 405.44,454.71 386.82,468.34 "/>
<polygon class="st117" points="380.41,468.34 406.59,449.06 407.79,443.21 373.09,468.34 "/>
<path class="st140" d="M554.7,495.61H421.9c-3.66,0-43.3,0-42.98,0c0,0-50.47,0-51.66,0c-1.58,0-2.7-0.83-3.47-1.81
	c-0.23,1.38-0.37,2.8-0.37,4.25v11.43c0,3.73,3.02,6.76,6.76,6.76h218.96c3.73,0,5.97-0.88,7.38-7.02l2.54-13.4
	C559.05,492.08,558.43,495.61,554.7,495.61z"/>
<path class="st118" d="M420.36,473.6c-0.31,0.1-0.62,0.19-0.93,0.29c-16.82,5.25-30.45,10.93-41.23,16.25
	c-3.81,1.88-7.28,3.72-10.4,5.47h10.78c2.16,0,9.18,4.12,13.71,11.03c0.21,0.32,0.56,0.52,0.95,0.52l24.53-0.05
	c0.63,0,1.13-0.51,1.13-1.13c0-0.61,1.45-9.23,1.45-9.23c0-0.63,0.51-1.13,1.13-1.13h133.84c4.36,0,7.03-3.53,7.03-7.89l5.67-33.94
	C502.91,453.88,455.3,462.8,420.36,473.6z"/>
<path class="st176" d="M524.04,516.23H487.8c0-10.01,8.11-18.12,18.12-18.12C515.93,498.11,524.04,506.22,524.04,516.23z"/>
<path class="st176" d="M385.96,516.21h-36.24c0-10.01,8.11-18.12,18.12-18.12S385.96,506.2,385.96,516.21z"/>
<circle class="st140" cx="367.84" cy="516.21" r="13.57"/>
<circle class="st176" cx="367.84" cy="516.21" r="9.36"/>
<circle class="st140" cx="367.84" cy="516.21" r="4.41"/>
<ellipse transform="matrix(0.7071 -0.7071 0.7071 0.7071 -217.0796 509.0315)" class="st140" cx="505.92" cy="516.55" rx="13.08" ry="13.08"/>
<circle class="st176" cx="505.92" cy="516.55" r="9.03"/>
<circle class="st140" cx="505.92" cy="516.55" r="4.25"/>
<path class="st0" d="M241.06,529.78h44.39c0.83,0,1.51,0.68,1.51,1.51l0,0c0,0.83-0.68,1.51-1.51,1.51h-44.39
	c-0.83,0-1.51-0.68-1.51-1.51l0,0C239.54,530.46,240.22,529.78,241.06,529.78z"/>
<path class="st0" d="M590,529.78h20.68c0.83,0,1.51,0.68,1.51,1.51l0,0c0,0.83-0.68,1.51-1.51,1.51H590c-0.83,0-1.51-0.68-1.51-1.51
	l0,0C588.49,530.46,589.17,529.78,590,529.78z"/>
<path class="st0" d="M305.76,529.78h265.8c0.83,0,1.51,0.68,1.51,1.51l0,0c0,0.83-0.68,1.51-1.51,1.51h-265.8
	c-0.83,0-1.51-0.68-1.51-1.51l0,0C304.25,530.46,304.93,529.78,305.76,529.78z"/>
<polygon class="st117" points="512.4,396.65 526.56,386.28 526.16,382.54 505.89,397.37 "/>
<polygon class="st117" points="498.52,398.17 525.68,378.17 525.17,373.59 489.92,399.11 "/>
<ellipse transform="matrix(0.9532 -0.3025 0.3025 0.9532 -58.2165 192.6117)" class="st5" cx="592.74" cy="284.26" rx="13.31" ry="12.93"/>
<polygon class="st5" points="595.12,271.3 619.8,279.54 611.93,300.96 587.34,293.36 "/>
<rect x="558.61" y="250.24" transform="matrix(0.2864 -0.9581 0.9581 0.2864 142.4798 743.206)" class="st5" width="23.12" height="51.42"/>
<rect x="619.64" y="273.75" transform="matrix(0.2813 -0.9596 0.9596 0.2813 170.9269 817.3275)" class="st6" width="22.97" height="41.6"/>
<circle class="st6" cx="649.3" cy="297.39" r="13.56"/>
<path class="st33" d="M743.26,347.56l-67.23,21.35l-37.74-64.09c-4.51-7.67,1.64-18.03,12.82-21.58l66.16-20.91
	c11.4-3.62,22.43,1.51,22.82,10.62L743.26,347.56z"/>
<path class="st9" d="M751.2,379.22l-55.21,22.86c-2.78,1.15-5.96-0.17-7.11-2.95l-11.75-28.39c-1.15-2.78,0.17-5.96,2.95-7.11
	l55.2-22.86c2.78-1.15,5.96,0.17,7.11,2.95l11.75,28.39C755.3,374.88,753.98,378.07,751.2,379.22z"/>
<rect x="668.53" y="314.76" transform="matrix(0.9531 -0.3027 0.3027 0.9531 -68.9992 228.8669)" class="st9" width="70.65" height="44.55"/>
<path class="st9" d="M788.17,405.51l-18.27,15.35c-1.39,1.17-3.46,0.99-4.63-0.4l-43.75-52.07c-1.17-1.39-0.99-3.46,0.4-4.63
	l18.27-15.35c1.39-1.17,3.46-0.99,4.63,0.4l43.75,52.07C789.73,402.27,789.56,404.34,788.17,405.51z"/>
<polygon class="st12" points="742.81,342.61 675.87,367.31 678.46,374.26 745.4,349.56 "/>
<polygon class="st9" points="729.46,346.15 732.82,344.91 736.07,353.64 732.71,354.88 "/>
<polygon class="st9" points="687.59,362.98 690.95,361.74 693.93,369.75 690.57,370.98 "/>
<path class="st9" d="M677.61,451.72l-20.79-11.71c-1.58-0.89-2.14-2.89-1.25-4.47l33.37-59.26c0.89-1.58,2.89-2.14,4.47-1.25
	l20.79,11.71c1.58,0.89,2.14,2.89,1.25,4.47l-33.37,59.26C681.19,452.05,679.19,452.61,677.61,451.72z"/>
<path class="st2" d="M832.05,454.27l-17.75,15.94c-1.35,1.21-3.43,1.1-4.64-0.25l-44.42-49.48c-1.21-1.35-1.1-3.43,0.25-4.64
	l17.75-15.94c1.35-1.21,3.43-1.1,4.64,0.25l44.42,49.48C833.51,450.98,833.4,453.06,832.05,454.27z"/>
<path class="st2" d="M734.51,360.19l11.77-9.89c8.33,9.91,15.08,17.94,15.08,17.94C754.85,373.71,742.83,370.1,734.51,360.19z"/>
<path class="st9" d="M741.6,459.44l-9.5,21.89c-0.72,1.66-2.66,2.43-4.32,1.71l-61.54-26.7c-1.66-0.72-2.43-2.66-1.71-4.32
	l9.5-21.89c0.72-1.66,2.66-2.43,4.32-1.71l61.54,26.7C741.56,455.84,742.32,457.78,741.6,459.44z"/>
<path class="st12" d="M818.23,480.12c-7.42-3.04-10.84-11.9-7.62-19.79c3.22-7.89,11.84-11.83,19.27-8.79L818.23,480.12"/>
<polyline class="st2" points="821.31,481.39 832.96,452.8 829.9,451.55 818.26,480.14 "/>
<path class="st12" d="M738.32,488.34c-7.97-0.08-14.37-6.96-14.3-15.36c0.08-8.4,6.61-15.14,14.58-15.05L738.32,488.34"/>
<path class="st2" d="M701.31,385.63l-13.39-7.54c-6.35,11.28-11.5,20.42-11.5,20.42C683.82,402.68,694.96,396.91,701.31,385.63z"/>
<polyline class="st9" points="741.59,488.35 741.87,457.94 738.59,457.91 738.31,488.32 "/>
<rect x="656.87" y="281.19" transform="matrix(0.9531 -0.3027 0.3027 0.9531 -61.2367 214.7742)" class="st9" width="10.82" height="47.51"/>
<rect x="713.4" y="263.25" transform="matrix(0.9531 -0.3027 0.3027 0.9531 -53.3791 231.2023)" class="st9" width="11.6" height="49.12"/>
<circle class="st11" cx="691.29" cy="301.72" r="1.94"/>
<path class="st6" d="M683.18,306.41l-9.84,3.13c-1.06,0.34-2.19-0.25-2.53-1.31l0,0c-0.34-1.06,0.25-2.19,1.31-2.53l9.84-3.13
	c1.06-0.34,2.19,0.25,2.53,1.31l0,0C684.83,304.94,684.24,306.07,683.18,306.41z"/>
<path class="st2" d="M717.97,315.26c3.21,10.1-2.38,20.89-12.48,24.1c-10.1,3.21-20.89-2.38-24.1-12.48"/>
<ellipse transform="matrix(0.0654 -0.9979 0.9979 0.0654 412.7989 1067.2776)" class="st3" cx="776.16" cy="313.27" rx="11.74" ry="11.41"/>
<polygon class="st3" points="765.31,320.79 744.4,303.26 760.31,285.38 781.23,302.91 "/>
<polygon class="st33" points="748.5,308.19 731.79,297.17 738.75,268.03 764.24,289.42 "/>
<polygon class="st3" points="720.89,304.42 778.02,301.72 776.92,324.51 728.52,326.8 "/>
<circle class="st9" cx="669.76" cy="441.28" r="15.21"/>
<circle class="st9" cx="775.81" cy="409.24" r="15.21"/>
<circle class="st5" cx="543.65" cy="265.46" r="14.02"/>
<circle class="st3" cx="722.96" cy="313.75" r="14.19"/>
<circle class="st33" cx="727.3" cy="272.43" r="15.04"/>
<polygon class="st13" points="701.36,357.9 717.31,352.01 719.9,358.97 703.95,364.86 "/>
<path class="st5" d="M686.05,287.11L686.05,287.11c5.97-1.71,9.42-7.94,7.7-13.91l-4.46-15.54c-1.71-5.97-7.94-9.42-13.91-7.7l0,0
	c-5.97,1.71-9.42,7.94-7.7,13.91l4.46,15.54C673.86,285.38,680.08,288.83,686.05,287.11z"/>
<path class="st6" d="M692.1,267.46l-5.21,19.46l5.86,5.05c1.42,1.22,3.62,0.41,3.91-1.43l3.87-22.61L692.1,267.46z"/>
<path class="st6" d="M670.87,274.77l16.04,12.18l-1.54,7.59c-0.37,1.83-2.61,2.54-3.97,1.27l-17.3-16.32L670.87,274.77z"/>
<path class="st3" d="M650.85,249.87c-0.72-6.74,2.51-12.97,7.81-16.44l4.65-14.31c3.89-14.48,9.68-17.28,18.11-15.94l4.87,0.78
	c8.43,1.35,19.34,9.33,17.44,21.61l-4.33,28.09c-1.41,9.14-9.4,15.45-17.83,14.1l-14.46-2.31c-0.12-0.02-0.23-0.05-0.34-0.07
	C658.59,264.74,651.76,258.35,650.85,249.87z"/>
<path class="st94" d="M681.41,229.77c-1.43-0.41-1.34-2.5,0.12-2.76c1.52-0.27,3.14,0.06,4.49,1.03s2.17,2.41,2.39,3.94
	c0.22,1.47-1.74,2.21-2.58,0.98C684.74,231.37,683.26,230.31,681.41,229.77z"/>
<path class="st94" d="M664.8,227.31c-1.3,0.72-2.72-0.82-1.87-2.04c0.88-1.26,2.26-2.18,3.9-2.45s3.24,0.17,4.47,1.09
	c1.19,0.89,0.33,2.79-1.13,2.52C668.28,226.09,666.49,226.38,664.8,227.31z"/>
<circle class="st148" cx="679.87" cy="236.37" r="2.08"/>
<circle class="st148" cx="666.86" cy="233.3" r="2.06"/>
<ellipse transform="matrix(0.9943 -0.1063 0.1063 0.9943 -21.4989 75.9411)" class="st3" cx="701.61" cy="239.64" rx="6.72" ry="6.78"/>
<ellipse transform="matrix(0.9943 -0.1063 0.1063 0.9943 -21.614 75.6818)" class="st5" cx="699.12" cy="240.59" rx="2.75" ry="2.78"/>
<g>
	<path class="st148" d="M666.31,261.1c-8.63-5.05-7.32-19.3-1.65-13.32c6.78,7.16,18.14,1.12,18.14,1.12
		c3.09-1.92,4.89,1.2,4.05,4.97c-2.23-0.59-4.6-0.8-7.03-0.54C674.21,253.93,669.41,256.88,666.31,261.1z"/>
	<path class="st37" d="M672.6,262.79c-2.51-0.06-4.59-0.7-6.29-1.69c3.1-4.22,7.9-7.17,13.51-7.77c2.43-0.26,4.8-0.05,7.03,0.54
		C685.92,258.04,681.78,262.99,672.6,262.79z"/>
</g>
<path class="st5" d="M674.13,240.99c0.14-2.33-1.75-3.33-3.42-1.7c-1.8,1.75-3.58,3.87-2.78,4.78c1.47,1.68,4.6,1.87,5.32,1.17
	C673.59,244.92,674.01,242.98,674.13,240.99z"/>
<linearGradient id="SVGID_10_" gradientUnits="userSpaceOnUse" x1="3985.9587" y1="-591.0159" x2="3996.52" y2="-591.0159" gradientTransform="matrix(0.9897 0.1433 0.1433 -0.9897 -3166.1934 -936.1169)">
	<stop  offset="0" style="stop-color:#1D627E"/>
	<stop  offset="1" style="stop-color:#6495B4"/>
</linearGradient>
<path class="st21" d="M702.73,232.97L702.73,232.97c-4.17-0.61-9.54-7.53-8.94-11.74l1.81-12.72l8.77,12.55L702.73,232.97z"/>
<linearGradient id="SVGID_11_" gradientUnits="userSpaceOnUse" x1="-4499.437" y1="4657.334" x2="-4502.0146" y2="4623.457" gradientTransform="matrix(-0.9233 0.3841 0.3841 0.9233 -5270.8452 -2344.8064)">
	<stop  offset="0" style="stop-color:#1D627E"/>
	<stop  offset="1" style="stop-color:#6495B4"/>
</linearGradient>
<path class="st24" d="M660.03,216.85c-0.93,4.79,6.99,6.65,11.46,4.77c4.47-1.88,6.59-7.06,4.73-11.57
	C676.21,210.04,660.58,214.02,660.03,216.85z"/>
<path class="st33" d="M704.37,221.07c1.52-9.89-6.87-19.45-16.78-21.02c-11.06-1.76-20.41,3.42-22.45,13.47L704.37,221.07z"/>
<linearGradient id="SVGID_12_" gradientUnits="userSpaceOnUse" x1="3806.6987" y1="-1075.1157" x2="3805.1743" y2="-1095.1511" gradientTransform="matrix(0.9994 0.0349 0.0349 -0.9994 -3081.3689 -1003.0746)">
	<stop  offset="0" style="stop-color:#1D627E"/>
	<stop  offset="1" style="stop-color:#6495B4"/>
</linearGradient>
<path class="st25" d="M690.06,213.88L678.79,212c-1.11-0.18-1.86-1.23-1.68-2.34l0.17-1.07c0.18-1.12,1.24-1.87,2.35-1.69
	l11.27,1.88c1.11,0.18,1.86,1.23,1.68,2.34l-0.17,1.07C692.23,213.3,691.18,214.06,690.06,213.88z"/>
<circle class="st33" cx="688.29" cy="201.69" r="3.24"/>
<path class="st6" d="M675.2,215.44c0,0,20.22,16.67,35.68,15.02c10.88-1.16-6.51-9.38-6.51-9.38L675.2,215.44z"/>
<rect x="303.92" y="208.08" transform="matrix(0.1073 -0.9942 0.9942 0.1073 40.1732 527.8708)" class="st5" width="20.25" height="66.97"/>
<circle class="st5" cx="347.81" cy="244.93" r="10.4"/>
<rect x="336.78" y="213.39" transform="matrix(0.6392 -0.769 0.769 0.6392 -39.9549 361.8996)" class="st5" width="57.89" height="20.29"/>
<circle class="st6" cx="284.77" cy="236.53" r="12.32"/>
<rect x="290.52" y="214.28" transform="matrix(0.1073 -0.9942 0.9942 0.1073 29.7745 513.1669)" class="st6" width="20.26" height="51.45"/>
<path class="st7" d="M193.74,299.02l30.49,13.79c7.91,3.58,17.22,0.69,21.55-6.7l42.37-60.56c5.02-8.56,1.41-19.62-7.76-23.77
	l-55.48-25.1c-9.16-4.14-19.83,0.42-22.97,9.82l-17.38,71.87C181.84,286.51,185.81,295.43,193.74,299.02z"/>
<path class="st2" d="M128.97,424.23l21.62,12.48c1.57,0.91,3.58,0.37,4.49-1.2l48.21-83.5c0.91-1.57,0.37-3.58-1.2-4.49
	l-21.62-12.48c-1.57-0.91-3.58-0.37-4.49,1.2l-48.21,83.5C126.86,421.32,127.4,423.33,128.97,424.23z"/>
<path class="st9" d="M138.17,323.56l31.49,30.76l32.89-2.02l7.5-8.72c2.79-2.85,3.1-6.47,0.1-9.4L168,293.01
	c-3-2.93-7.95-2.77-10.74,0.09l-19.15,19.84C135.32,315.8,135.17,320.63,138.17,323.56z"/>
<circle class="st11" cx="244.1" cy="237.43" r="2"/>
<polygon class="st7" points="158.97,291.37 212.85,340.6 243.97,308.63 190.98,257.93 "/>
<polygon class="st12" points="162.06,288.14 214.38,339.03 209.69,343.99 157.26,293.1 "/>
<rect x="188.53" y="314.22" transform="matrix(0.6973 -0.7168 0.7168 0.6973 -172.6782 235.0458)" class="st13" width="6.82" height="15.49"/>
<path class="st2" d="M71.31,494.98l19.56,15.51c1.42,1.13,3.49,0.89,4.61-0.53l56.81-71.64c1.13-1.42,0.89-3.49-0.53-4.61
	L132.2,418.2c-1.42-1.13-3.49-0.89-4.61,0.53l-56.81,71.64C69.65,491.79,69.89,493.86,71.31,494.98z"/>
<circle class="st2" cx="141.49" cy="427.39" r="15.77"/>
<rect x="171.29" y="304.7" transform="matrix(0.6973 -0.7168 0.7168 0.6973 -166.6624 218.4209)" class="st9" width="7.96" height="3.67"/>
<rect x="199.64" y="332.77" transform="matrix(0.6973 -0.7168 0.7168 0.6973 -178.1393 247.3895)" class="st9" width="8.37" height="3.67"/>
<circle class="st3" cx="165.49" cy="155.04" r="10.83"/>
<rect x="178.68" y="143.7" transform="matrix(0.7372 -0.6757 0.6757 0.7372 -71.5858 174.6389)" class="st3" width="20.05" height="71.29"/>
<path class="st9" d="M68.78,374.28l-7.36,23.86c-0.53,1.73,0.44,3.57,2.17,4.11l88.04,27.14c1.73,0.53,3.57-0.44,4.11-2.17
	l7.36-23.86c0.53-1.73-0.44-3.57-2.17-4.11l-88.05-27.14C71.15,371.58,69.31,372.55,68.78,374.28z"/>
<path class="st9" d="M143.71,421.36l22.77-0.57c2.53-0.06,4.53-2.14,4.46-4.64l-2.36-93.91c-0.06-2.5-2.16-4.47-4.69-4.41
	l-22.77,0.57c-2.53,0.06-4.67,0.38-4.67,0.38l2.57,98.17C139.08,419.45,141.18,421.42,143.71,421.36z"/>
<path class="st6" d="M216.88,229.87l10.13,4.58c1.44,0.65,3.13,0.01,3.78-1.43l0,0c0.65-1.44,0.01-3.13-1.43-3.78l-10.13-4.58
	c-1.44-0.65-3.13-0.01-3.78,1.43l0,0C214.8,227.53,215.44,229.22,216.88,229.87z"/>
<path class="st2" d="M178.78,319.99l-11.68-10.83c-8.19,8.82-14.83,15.98-14.83,15.98C158.72,331.11,170.59,328.81,178.78,319.99z"
	/>
<circle class="st9" cx="155.5" cy="413.96" r="15.77"/>
<circle class="st5" cx="385.18" cy="198.11" r="16.29"/>
<path class="st12" d="M61.47,412.73c9.37,2.82,19.41-2.96,22.42-12.91s-2.14-20.3-11.51-23.13L61.47,412.73"/>
<polyline class="st9" points="57.57,411.56 68.48,375.52 72.33,376.69 61.42,412.72 "/>
<path class="st12" d="M82.75,528.14c9.45-2.32,15.13-12.27,12.7-22.22c-2.43-9.95-12.06-16.14-21.5-13.82L82.75,528.14"/>
<polyline class="st2" points="78.94,529.09 70.14,493.05 74.02,492.1 82.82,528.13 "/>
<rect x="138.15" y="119.17" transform="matrix(0.0948 -0.9955 0.9955 0.0948 22.5205 283.3995)" class="st3" width="57.89" height="20.29"/>
<circle class="st3" cx="175.68" cy="100.28" r="15.81"/>
<rect x="187.69" y="163.58" transform="matrix(0.7345 -0.6786 0.6786 0.7345 -75.9389 184.5021)" class="st7" width="20.26" height="51.45"/>
<circle class="st7" cx="210.8" cy="200.75" r="12.32"/>
<linearGradient id="SVGID_13_" gradientUnits="userSpaceOnUse" x1="-4672.0752" y1="-2022.9045" x2="-4676.0571" y2="-2039.9084" gradientTransform="matrix(-0.9429 0.3332 -0.3332 -0.9429 -4821.2383 -191.0401)">
	<stop  offset="0" style="stop-color:#1D627E"/>
	<stop  offset="1" style="stop-color:#6495B4"/>
</linearGradient>
<path class="st26" d="M243.47,172.01c4.44,13.13,16.34,20.97,26.59,17.51c10.24-3.46,14.95-16.92,10.51-30.05
	s-16.34-20.97-26.59-17.51C243.74,145.42,239.03,158.88,243.47,172.01z"/>
<linearGradient id="SVGID_14_" gradientUnits="userSpaceOnUse" x1="-4227.9551" y1="-2380.9429" x2="-4217.6401" y2="-2415.0432" gradientTransform="matrix(-0.8902 0.4557 -0.4557 -0.8902 -4602.3115 -46.6088)">
	<stop  offset="0" style="stop-color:#1D627E"/>
	<stop  offset="1" style="stop-color:#6495B4"/>
</linearGradient>
<path class="st27" d="M232.14,176.07c4.4,13.02,16.27,20.77,26.52,17.31c10.24-3.46,14.98-16.83,10.58-29.85
	c-4.4-13.02-16.27-20.77-26.52-17.31C232.47,149.69,227.74,163.05,232.14,176.07z"/>
<ellipse transform="matrix(0.3258 -0.9454 0.9454 0.3258 -40.5228 384.3773)" class="st3" cx="249.25" cy="220.6" rx="9.91" ry="11.87"/>
<path class="st5" d="M248.37,222.02L248.37,222.02c-5.6-1.93-8.58-8.04-6.65-13.64l4.81-13.97c1.93-5.6,8.04-8.58,13.64-6.65l0,0
	c5.6,1.93,8.58,8.04,6.65,13.64l-4.81,13.97C260.08,220.98,253.98,223.95,248.37,222.02z"/>
<path class="st6" d="M239.89,245.33l1.43,0.49c1.53,0.53,3,0.27,3.29-0.58l4.46-12.96c0.29-0.85,2.34-1.43,0.81-1.96l-7.33-2.53
	c-1.53-0.53-0.14,1.24-0.43,2.09l-4.46,12.96C237.37,243.7,238.37,244.81,239.89,245.33z"/>
<path class="st3" d="M265.34,209.65l11.4-4.15c8.63-2.92,13.26-12.31,10.33-20.97L276.5,158.4c-2.93-8.66-12.3-13.32-20.93-10.4
	l-7.26,2.82c-8.63,2.92-13.26,12.31-10.33,20.97l7.92,26.74C248.82,207.2,256.71,212.57,265.34,209.65z"/>
<circle class="st3" cx="240.09" cy="186.02" r="6.56"/>
<circle class="st5" cx="239.77" cy="186.61" r="2.61"/>
<circle class="st182" cx="243.1" cy="238.85" r="2.14"/>
<path class="st6" d="M243.92,231.61c0,0-4.46-9.15-1.48-26.03C242.45,205.58,216.39,221.29,243.92,231.61z"/>
<path class="st6" d="M262.61,214.15c-8.84,14.77-18.37,18.76-18.37,18.76C272.56,243.28,262.61,214.15,262.61,214.15"/>
<linearGradient id="SVGID_15_" gradientUnits="userSpaceOnUse" x1="-3202.3555" y1="-2947.2498" x2="-3177.2188" y2="-2972.3865" gradientTransform="matrix(-0.734 0.6792 -0.6792 -0.734 -4097.189 149.148)">
	<stop  offset="0" style="stop-color:#1D627E"/>
	<stop  offset="1" style="stop-color:#6495B4"/>
</linearGradient>
<path class="st28" d="M275.68,141.78l-14.73-1.52c-14.88-1.54-28.18,9.28-29.72,24.15l0,0c-0.13,1.24,0.77,2.34,2.01,2.47
	l14.73,1.52c14.87,1.54,28.18-9.28,29.72-24.15l0,0C277.81,143.01,276.91,141.91,275.68,141.78z"/>
<linearGradient id="SVGID_16_" gradientUnits="userSpaceOnUse" x1="-2012.575" y1="-3209.4241" x2="-1992.0374" y2="-3229.9619" gradientTransform="matrix(-0.518 0.8554 -0.8554 -0.518 -3544.3152 197.6881)">
	<stop  offset="0" style="stop-color:#1D627E"/>
	<stop  offset="1" style="stop-color:#6495B4"/>
</linearGradient>
<path class="st29" d="M260.7,137.48l-11.91,2.13c-12.03,2.15-20.04,13.64-17.89,25.67l0,0c0.18,1,1.13,1.67,2.13,1.49l11.91-2.13
	c12.03-2.15,20.04-13.64,17.89-25.67l0,0C262.65,137.97,261.7,137.3,260.7,137.48z"/>
<path class="st94" d="M259.24,172.92c1.16-0.48,0.6-1.81-0.65-1.88c-2.62-0.15-8.09,1.65-5.77,4.69
	C255.34,179.04,254.04,175.05,259.24,172.92z"/>
<path class="st94" d="M269.04,167.22c-1.12,0.66-1.86-0.64-1.13-1.71c1.51-2.24,6.41-5.6,7.45-1.81
	C276.5,167.84,274.03,164.29,269.04,167.22z"/>
<path class="st5" d="M270.68,177.19c1.56,2.09,6.94,7.67,0.25,11.51C264.24,192.53,262.6,166.36,270.68,177.19z"/>
<ellipse transform="matrix(0.1602 -0.9871 0.9871 0.1602 42.2919 407.2962)" class="st148" cx="260.51" cy="178.79" rx="1.98" ry="1.98"/>
<circle class="st148" cx="274.25" cy="171.67" r="1.98"/>
<path class="st5" d="M266.66,201.6c-0.96,0.34-1.2,1.57-0.47,2.26c1.15,1.08,2.84,1.5,4.43,0.94s2.65-1.95,2.86-3.52
	c0.14-1.01-0.83-1.81-1.79-1.47L266.66,201.6z"/>
<g>
	<path class="st148" d="M253.69,194.98c-6.01-6.46,5.4-0.76,11.59-1.38c6.63-0.67,14.18-5.01,9.78,1.38c-0.52,0.75-2.07,2.57-4.34,4
		C265.77,195.69,259.73,194.21,253.69,194.98z"/>
	<path class="st37" d="M255.54,196.83c-0.75-0.71-1.35-1.32-1.85-1.85c6.04-0.76,12.08,0.71,17.03,4
		C267.08,201.27,261.58,202.57,255.54,196.83z"/>
</g>
<circle class="st11" cx="380.73" cy="125.33" r="76.21"/>
<circle class="st83" cx="380.73" cy="125.33" r="66.62"/>
<circle class="st11" cx="694.74" cy="312.72" r="1.94"/>
<g>
	<path class="st68" d="M398.04,144.94l-29.66-9.8l2.4-7.28l12.73,4.21c3.47,1.15,6.93,1.94,10.4,2.37c3.46,0.43,6.71,0.27,9.75-0.51
		c3.04-0.77,5.76-2.25,8.17-4.45c2.41-2.19,4.29-5.35,5.65-9.45c1.35-4.08,1.55-8.14,0.61-12.18c-0.94-4.05-2.91-7.29-5.92-9.74
		c-2.96-2.47-7.75-4.8-14.39-6.99l-23.19-7.66l-10.8,32.69l-5.05-1.67l-2.8,8.49l5.05,1.67l-2.4,7.28l-5.05-1.67l-2.3,6.97
		l5.05,1.67l-6.16,18.64l9.8,3.24l6.16-18.64l29.66,9.8L398.04,144.94z M373.59,119.37l8.1-24.5l13.79,4.56
		c2.22,0.73,4.22,1.64,6,2.71s3.22,2.32,4.33,3.76c1.11,1.43,1.83,3.04,2.16,4.83c0.32,1.79,0.12,3.78-0.6,5.97
		c-0.83,2.53-1.97,4.44-3.41,5.74c-1.44,1.3-3.09,2.16-4.95,2.6s-3.88,0.48-6.05,0.16c-2.17-0.32-4.39-0.86-6.64-1.61L373.59,119.37
		z"/>
</g>
<g>
	<path class="st41" d="M559.53,109.05c-0.61-0.04-1.26,0-2.12,0.07c-4.86,0.4-7.02,2.88-7.63,5.62h0.11
		c1.15-1.19,2.77-1.87,4.97-1.87c3.92,0,7.24,2.77,7.24,7.63c0,4.64-3.56,8.46-8.64,8.46c-6.23,0-9.29-4.64-9.29-10.22
		c0-4.39,1.62-8.06,4.14-10.4c2.34-2.12,5.36-3.28,9.03-3.46c1.01-0.07,1.66-0.07,2.2-0.04v4.21H559.53z M556.54,120.78
		c0-2.16-1.15-4.03-3.49-4.03c-1.48,0-2.7,0.9-3.24,2.09c-0.14,0.29-0.22,0.72-0.22,1.37c0.11,2.48,1.29,4.71,3.78,4.71
		C555.32,124.92,556.54,123.16,556.54,120.78z"/>
</g>
<path class="st41" d="M549.11,429.25c0-8.83,8.19-10.7,8.19-10.7c-8.22,0-8.15-9.56-8.15-9.56s-0.31,9.96-9.33,9.96
	C545.15,418.96,549.11,423.86,549.11,429.25z"/>
<path class="st41" d="M537,431.46c0-2.8,2.6-3.4,2.6-3.4c-2.61,0-2.59-3.04-2.59-3.04s-0.1,3.16-2.96,3.16
	C535.74,428.19,537,429.75,537,431.46z"/>
<path class="st41" d="M561.48,411.07c0-1.14,1.06-1.38,1.06-1.38c-1.06,0-1.05-1.23-1.05-1.23s-0.04,1.29-1.2,1.29
	C560.97,409.74,561.48,410.37,561.48,411.07z"/>
<path class="st33" d="M332.4,309.25l7.62,2.99l1.02-2.6c0.82-2.1-0.21-4.48-2.32-5.3l0,0c-2.1-0.82-4.48,0.21-5.3,2.32L332.4,309.25
	z"/>
<path class="st33" d="M323.89,341.82L323.89,341.82c0.72,0.28,1.54-0.07,1.83-0.8l16.73-42.72l-2.62-1.03l-16.73,42.72
	C322.81,340.72,323.17,341.54,323.89,341.82z"/>
<path class="st33" d="M337.96,300.64l3.83,1.5c1.05,0.41,2.23-0.11,2.64-1.15l0,0c0.41-1.05-0.11-2.23-1.15-2.64l-3.83-1.5
	c-1.05-0.41-2.23,0.11-2.64,1.15l0,0C336.4,299.05,336.91,300.23,337.96,300.64z"/>
<path class="st33" d="M340.42,301.61l6.79,4.57c3.18,2.14,7.53,0.79,8.93-2.79l0,0l-14.23-5.57L340.42,301.61z"/>
<line class="st86" x1="377.4" y1="310.05" x2="389.59" y2="313.28"/>
<line class="st86" x1="357.17" y1="307.88" x2="376.23" y2="322.24"/>
<line class="st86" x1="354.42" y1="309.16" x2="371.2" y2="336.61"/>
<circle class="st43" cx="380.18" cy="325.22" r="0.78"/>
<circle class="st43" cx="373.83" cy="309.07" r="0.78"/>
<line class="st86" x1="359.32" y1="305.12" x2="370.48" y2="308.07"/>
<path class="st87" d="M310.41,339.02l11.04-20.84c2.05-3.87,6.16-6,10.32-5.68l1.19-3.03l6.3,2.47l-1.25,3.18
	c2.97,2.59,4.37,6.69,3.37,10.7l-5.72,22.92c-1.57,6.29-8.31,9.77-14.35,7.41l-5.32-2.08C310.01,351.72,307.4,344.69,310.41,339.02z
	"/>
<path class="st88" d="M315.99,354.06l5.32,2.08c6.04,2.37,12.78-1.11,14.35-7.41l1.82-7.31l-23.41-9.34L310.4,339
	C307.4,344.69,310.01,351.72,315.99,354.06z"/>
<path class="st43" d="M287.13,183.99l-4.35-10.66c-3.66,7.89-16.44,13.22-34.34,14.02c2.29,3.2,3.66,7.1,3.68,11.34
	c0.02,2.66-0.5,5.2-1.44,7.52c3.86,3.63,9.14,5.16,14.71,3.24l11.47-4.26C285.53,202.19,290.13,192.7,287.13,183.99z"/>
<path class="st23" d="M285.63,185.53l-1.59-3.86c-0.79-1.91-3.23-2.36-4.73-0.93c-4.21,3.99-11.8,6.75-23.24,7.49
	c-1.42,0.09-2.35,1.56-1.75,2.85c0.98,2.11,1.54,4.46,1.56,6.94c0.01,1.62-0.21,3.18-0.63,4.66c-0.34,1.18,0.16,2.47,1.18,3.15
	c3.04,2.03,6.79,2.69,10.72,1.34l9.74-3.62C284.27,201.01,288.18,192.94,285.63,185.53z"/>
<path class="st43" d="M239.89,179.08c-2.18-2.05,10.69,6.85,12.37,8.58s-3.52,0.02-3.52,0.02S249.03,187.68,239.89,179.08z"/>
<path class="st43" d="M243.45,190.86c0,0,4.7,13.2,8.12,12.52l-0.17,3.47c-5.63-2.28-7.95-15.66-7.95-15.66"/>
<path class="st43" d="M279.15,185.15c-4.02,3.97-10.3,5.3-15.25,5.68c-1.13,0.09-1.22,1.72-0.1,1.91c4.15,0.68,9.14,0.74,12.44-1.7
	c2.21-1.63,3.58-3.28,4.41-4.74C281.2,185.35,279.93,184.38,279.15,185.15z"/>
<path class="st43" d="M280.46,193.06c-4.47,4.67-11.84,5.65-16.81,5.72c-0.76,0.01-0.87,1.1-0.13,1.26
	c4.01,0.87,9.54,1.3,13.34-1.51c2.28-1.69,3.72-3.31,4.62-4.71C281.9,193.17,281,192.5,280.46,193.06z"/>
<path class="st43" d="M691.83,258.02c-0.13-0.81-0.19-1.65-0.17-2.5c0.09-3.37,1.57-6.02,3.3-8.8c2.92-4.57,7.86-13.59,7.86-13.59
	l-0.59-0.29c-3.35,4.62-5.54,8.43-7.56,10.64c-2.69,3.02-6.33,3.03-6.93,3.01c-21.2-1.31-32.23-7.93-32.97-9.99
	c-3.11,3.22-4.47,7.94-4.08,12.75c0.7,8.59,7.44,15.23,15.7,16.1c0.12,0.02,0.23,0.06,0.34,0.08l14.56,2.71
	c4.68,0.87,9.27-0.63,12.73-3.67l0,0c0,0,5.96-5.8,6.28-18.14c0,0-1.18,7.61-4.26,12.36C693.17,263.13,691.98,258.63,691.83,258.02z
	"/>
<path class="st23" d="M686.34,254.93c0.04-1.43,0.34-2.79,0.87-4.04c0.59-1.41-0.41-2.98-1.94-2.96
	c-15.24,0.18-23.94-4.35-27.38-6.98c-1.02-0.78-2.52-0.57-3.17,0.54c-1.42,2.39-2,5.34-1.76,8.33c0.57,7,6.06,12.4,12.8,13.12
	c0.09,0.02,0.18,0.05,0.28,0.07l11.86,2.2c3.18,0.59,6.32-0.16,8.91-1.87c0.99-0.66,1.32-1.97,0.78-3.03
	C686.74,258.7,686.29,256.87,686.34,254.93z"/>
<path class="st43" d="M678.2,250.49c-7.25,0.09-12.34-2.09-15.47-3.98c-0.66-0.4-1.34,0.48-0.8,1.03c2.39,2.41,6.01,5.09,10.19,4.98
	c2.52-0.07,4.59-0.36,6.24-0.72C679.14,251.62,679,250.48,678.2,250.49z"/>
<path class="st43" d="M678.19,256.58c-9.03,0.55-14.9-2.24-18.24-4.67c-0.63-0.46-1.41,0.31-0.96,0.94
	c2.7,3.73,7.49,8.36,14.03,7.06c2.38-0.47,4.19-0.95,5.55-1.41C679.68,258.14,679.35,256.51,678.19,256.58z"/>
<g>
	<g>
		<line class="st185" x1="376.93" y1="343.42" x2="382.93" y2="343.42"/>
		<line class="st186" x1="394.92" y1="343.42" x2="580.78" y2="343.42"/>
		<line class="st185" x1="586.78" y1="343.42" x2="592.78" y2="343.42"/>
	</g>
</g>
<polyline class="st187" points="380.33,347.45 376.3,343.42 380.33,339.38 "/>
<polyline class="st187" points="590.28,339.49 594.21,343.42 590.28,347.35 "/>
<g>
	<path class="st33" d="M470.69,330.91v-8.71l-2,2.04l-1.46-1.53l3.78-3.8h2.23v12.01h-2.55V330.91z"/>
	<path class="st33" d="M475.27,329.65c0-0.79,0.67-1.46,1.46-1.46s1.46,0.67,1.46,1.46c0,0.79-0.67,1.46-1.46,1.46
		S475.27,330.45,475.27,329.65z"/>
	<path class="st33" d="M479.92,329.33l1.42-1.78c0.81,0.85,1.93,1.31,3.19,1.31c1.42,0,2.23-0.81,2.23-1.78
		c0-1.06-0.79-1.78-2.16-1.78c-0.99,0-1.8,0.29-2.52,0.97l-1.78-0.47v-6.9h8.25v2.25h-5.69v2.93c0.58-0.58,1.55-1.01,2.65-1.01
		c2.03,0,3.85,1.46,3.85,3.89c0,2.56-1.91,4.16-4.81,4.16C482.46,331.13,480.94,330.45,479.92,329.33z"/>
	<path class="st33" d="M503.72,330.91v-5.65l-2.32,5.65h-1.04l-2.34-5.65v5.65h-2.29v-8.7h3.01l2.14,5.19l2.11-5.19h3.02v8.7H503.72
		z"/>
</g>
<path class="st341" d="M526.32,77.64H629.8c24.11,0,43.66,19.55,43.66,43.66v0c0,1.2-0.06,2.39-0.16,3.56l0.01-0.01v54.44
	c0,3.71-3.94,6.09-7.22,4.38l-34.75-18.16c-0.71-0.37-1.48-0.56-2.28-0.56c-10.78,0-102.74,0.01-102.74,0.01
	c-24.11,0-43.66-19.55-43.66-43.66v0C482.66,97.19,502.2,77.64,526.32,77.64z"/>
<g>
	<path class="st41" d="M536.14,129.03l2.84-3.56c1.62,1.69,3.85,2.63,6.37,2.63c2.84,0,4.46-1.62,4.46-3.56
		c0-2.12-1.58-3.56-4.32-3.56c-1.98,0-3.6,0.58-5.04,1.94l-3.56-0.94v-13.79h16.49v4.5h-11.37v5.87c1.15-1.15,3.1-2.02,5.29-2.02
		c4.07,0,7.7,2.92,7.7,7.78c0,5.11-3.82,8.32-9.61,8.32C541.21,132.63,538.19,131.27,536.14,129.03z"/>
	<path class="st41" d="M568.64,132.2v-4.97h-11.48v-4.03l9.54-15.01h7.05v14.54h3.1v4.5h-3.1v4.97H568.64z M568.64,112.73
		l-6.48,10.01h6.48V112.73z"/>
	<path class="st41" d="M578.98,120.22c0-6.19,3.06-12.38,9.94-12.38c6.84,0,9.93,6.19,9.93,12.38s-3.1,12.42-9.93,12.42
		C582.04,132.63,578.98,126.41,578.98,120.22z M593.63,120.22c0-4.43-1.3-7.85-4.71-7.85c-3.46,0-4.75,3.42-4.75,7.85
		s1.3,7.88,4.75,7.88C592.33,128.1,593.63,124.64,593.63,120.22z"/>
	<path class="st41" d="M606.91,129.97v8.85h-4.57v-24.01h4.57v2.2c1.33-1.69,3.24-2.63,5.36-2.63c4.46,0,7.7,3.31,7.7,9.11
		c0,5.8-3.24,9.14-7.7,9.14C610.23,132.63,608.32,131.77,606.91,129.97z M615.23,123.49c0-2.99-1.76-5.04-4.39-5.04
		c-1.48,0-3.17,0.86-3.92,1.98v6.16c0.76,1.08,2.45,1.98,3.92,1.98C613.46,128.57,615.23,126.51,615.23,123.49z"/>
</g>
</svg>
