<?xml version="1.0" encoding="utf-8"?>
<!-- Generator: Adobe Illustrator 23.1.0, SVG Export Plug-In . SVG Version: 6.00 Build 0)  -->
<svg version="1.1" id="Layer_1" xmlns="http://www.w3.org/2000/svg" xmlns:xlink="http://www.w3.org/1999/xlink" x="0px" y="0px"
	 viewBox="0 0 910 567" style="enable-background:new 0 0 910 567;" xml:space="preserve">
<style type="text/css">
	.st0{fill:#C4E5ED;}
	.st1{fill:url(#SVGID_1_);}
	.st2{fill:#4195B7;}
	.st3{fill:#FCD3B5;}
	.st4{fill:#008F7F;}
	.st5{fill:#F7B394;}
	.st6{fill:#37A539;}
	.st7{fill:#43AE5D;}
	.st8{fill:url(#SVGID_2_);}
	.st9{fill:#62A4C0;}
	.st10{fill:url(#SVGID_3_);}
	.st11{fill:#FAB95F;}
	.st12{fill:#1D627E;}
	.st13{fill:#C7E6EE;}
	.st14{fill:url(#SVGID_4_);}
	.st15{fill:url(#SVGID_5_);}
	.st16{fill:url(#SVGID_6_);}
	.st17{fill:url(#SVGID_7_);}
	.st18{fill:url(#SVGID_8_);}
	.st19{fill:url(#SVGID_9_);}
	.st20{fill:#F8C671;}
	.st21{fill:url(#SVGID_10_);}
	.st22{fill:#AFD7DD;}
	.st23{fill:#EFF7FB;}
	.st24{fill:url(#SVGID_11_);}
	.st25{fill:url(#SVGID_12_);}
	.st26{fill:url(#SVGID_13_);}
	.st27{fill:url(#SVGID_14_);}
	.st28{fill:url(#SVGID_15_);}
	.st29{fill:url(#SVGID_16_);}
	.st30{fill:#EC6743;}
	.st31{fill:url(#SVGID_17_);}
	.st32{fill:url(#SVGID_18_);}
	.st33{fill:#5BB24C;}
	.st34{fill:url(#SVGID_19_);}
	.st35{fill:url(#SVGID_20_);}
	.st36{fill:url(#SVGID_21_);}
	.st37{fill:#F18675;}
	.st38{fill:#046B89;}
	.st39{fill:#EA5539;}
	.st40{fill:#E62555;}
	.st41{fill:#FFFFFF;}
	.st42{fill:none;}
	.st43{enable-background:new    ;}
	.st44{fill:#D0EAF3;}
	.st45{fill:url(#SVGID_22_);}
	.st46{fill:#D6EDF4;}
	.st47{fill:url(#SVGID_23_);}
	.st48{fill:url(#SVGID_24_);}
	.st49{fill:url(#SVGID_25_);}
	.st50{fill:#FAB755;}
	.st51{fill:#EC6544;}
	.st52{fill:#83B0C7;}
	.st53{fill:#FAB854;}
	.st54{fill:url(#SVGID_26_);}
	.st55{fill:#4093B6;}
	.st56{fill:url(#SVGID_27_);}
	.st57{fill:url(#SVGID_28_);}
	.st58{fill:url(#SVGID_29_);}
	.st59{fill:#A8DAE3;}
	.st60{fill:#04617B;}
	.st61{fill:url(#SVGID_30_);}
	.st62{fill:url(#SVGID_31_);}
	.st63{fill:#FCD4B7;}
	.st64{fill:url(#SVGID_32_);}
	.st65{fill:url(#SVGID_33_);}
	.st66{fill:url(#SVGID_34_);}
	.st67{fill:url(#SVGID_35_);}
	.st68{fill:url(#SVGID_36_);}
	.st69{fill:#FFF5E9;}
	.st70{fill:url(#SVGID_37_);}
	.st71{fill:url(#SVGID_38_);}
	.st72{fill:url(#SVGID_39_);}
	.st73{fill:url(#SVGID_40_);}
	.st74{fill:url(#SVGID_41_);}
	.st75{fill:url(#SVGID_42_);}
	.st76{fill:url(#SVGID_43_);}
	.st77{fill:#1B5A6F;}
	.st78{fill:url(#SVGID_44_);}
	.st79{fill:url(#SVGID_45_);}
	.st80{fill:url(#SVGID_46_);}
	.st81{fill:#065E79;}
	.st82{fill:url(#SVGID_47_);}
	.st83{fill:url(#SVGID_48_);}
	.st84{fill:#FDCE6A;}
	.st85{opacity:0.11;fill:#FFFFFF;enable-background:new    ;}
	.st86{opacity:0.42;fill:#EFF7FB;enable-background:new    ;}
	.st87{fill:none;stroke:#D0EAF3;stroke-width:2;stroke-linecap:round;stroke-miterlimit:10;}
	.st88{opacity:0.7;fill:#D0EAF3;enable-background:new    ;}
	.st89{opacity:0.7;fill:#C4E5ED;enable-background:new    ;}
	.st90{opacity:0.73;fill:#EFF7FB;enable-background:new    ;}
	.st91{fill:#D9EEF4;}
	.st92{fill:#CDE9F0;}
	.st93{fill:url(#SVGID_49_);}
	.st94{fill:url(#SVGID_50_);}
	.st95{fill:#3B85A9;}
	.st96{fill:url(#SVGID_51_);}
	.st97{fill:url(#SVGID_52_);}
	.st98{fill:url(#SVGID_53_);}
	.st99{fill:#F18775;}
	.st100{fill:url(#SVGID_54_);}
	.st101{fill:url(#SVGID_55_);}
	.st102{fill:url(#SVGID_56_);}
	.st103{fill:#4FB26D;}
	.st104{fill:url(#SVGID_57_);}
	.st105{fill:url(#SVGID_58_);}
	.st106{fill:url(#SVGID_59_);}
	.st107{fill:url(#SVGID_60_);}
	.st108{fill:url(#SVGID_61_);}
	.st109{fill:url(#SVGID_62_);}
	.st110{fill:url(#SVGID_63_);}
	.st111{fill:#F49C7E;}
	.st112{fill:url(#SVGID_64_);}
	.st113{fill:url(#SVGID_65_);}
	.st114{fill:#FED377;}
	.st115{fill:url(#SVGID_66_);}
	.st116{fill:url(#SVGID_67_);}
	.st117{fill:#124657;}
	.st118{opacity:0.19;fill:#FFFFFF;enable-background:new    ;}
	.st119{fill:#F7F9F9;}
	.st120{fill:url(#SVGID_68_);}
	.st121{fill:url(#SVGID_69_);}
	.st122{fill:url(#SVGID_70_);}
	.st123{fill:url(#SVGID_71_);}
	.st124{fill:#D9EEF3;}
	.st125{fill:url(#SVGID_72_);}
	.st126{fill:url(#SVGID_73_);}
	.st127{fill:#FAFDFF;}
	.st128{fill:url(#SVGID_74_);}
	.st129{fill:url(#SVGID_75_);}
	.st130{fill:url(#SVGID_76_);}
	.st131{opacity:0.68;fill:url(#SVGID_77_);enable-background:new    ;}
	.st132{fill:url(#SVGID_78_);}
	.st133{opacity:0.68;fill:url(#SVGID_79_);enable-background:new    ;}
	.st134{fill:url(#SVGID_80_);}
	.st135{opacity:0.68;fill:url(#SVGID_81_);enable-background:new    ;}
	.st136{fill:url(#SVGID_82_);}
	.st137{fill:url(#SVGID_83_);}
	.st138{fill:url(#SVGID_84_);}
	.st139{fill:url(#SVGID_85_);}
	.st140{fill:url(#SVGID_86_);}
	.st141{fill:#03949D;}
	.st142{fill:#E84B33;}
	.st143{fill:url(#SVGID_87_);}
	.st144{fill:url(#SVGID_88_);}
	.st145{fill:url(#SVGID_89_);}
	.st146{fill:url(#SVGID_90_);}
	.st147{fill:url(#SVGID_91_);}
	.st148{fill:#F4A182;}
	.st149{fill:#0C5879;}
	.st150{fill:#FBCEAD;}
	.st151{fill:#FBCCA3;}
	.st152{fill:url(#SVGID_92_);}
	.st153{fill:url(#SVGID_93_);}
	.st154{fill:url(#SVGID_94_);}
	.st155{fill:url(#SVGID_95_);}
	.st156{fill:#03A86F;}
	.st157{fill:url(#SVGID_96_);}
	.st158{fill:url(#SVGID_97_);}
	.st159{fill:url(#SVGID_98_);}
	.st160{fill:url(#SVGID_99_);}
	.st161{fill:url(#SVGID_100_);}
	.st162{fill:url(#SVGID_101_);}
	.st163{fill:url(#SVGID_102_);}
	.st164{fill:#A5D2D9;}
	.st165{fill:url(#SVGID_103_);}
	.st166{fill:url(#SVGID_104_);}
	.st167{fill:url(#SVGID_105_);}
	.st168{fill:url(#SVGID_106_);}
	.st169{fill:url(#SVGID_107_);}
	.st170{fill:url(#SVGID_108_);}
	.st171{fill:url(#SVGID_109_);}
	.st172{fill:url(#SVGID_110_);}
	.st173{fill:url(#SVGID_111_);}
	.st174{fill:url(#SVGID_112_);}
	.st175{fill:url(#SVGID_113_);}
	.st176{fill:url(#SVGID_114_);}
	.st177{fill:url(#SVGID_115_);}
	.st178{fill:url(#SVGID_116_);}
	.st179{fill:url(#SVGID_117_);}
	.st180{fill:url(#SVGID_118_);}
	.st181{fill:#F6AD98;}
	.st182{fill:#7FBCD1;}
	.st183{fill:#F39886;}
	.st184{fill:url(#SVGID_119_);}
	.st185{fill:url(#SVGID_120_);}
	.st186{fill:url(#SVGID_121_);}
	.st187{fill:#07787F;}
	.st188{fill:url(#SVGID_122_);}
	.st189{fill:url(#SVGID_123_);}
	.st190{fill:url(#SVGID_124_);}
	.st191{fill:url(#SVGID_125_);}
	.st192{fill:url(#SVGID_126_);}
	.st193{fill:#F8AA3C;}
	.st194{fill:url(#SVGID_127_);}
	.st195{fill:url(#SVGID_128_);}
	.st196{fill:none;stroke:#5BB24C;stroke-width:3;stroke-linecap:round;stroke-miterlimit:10;}
	.st197{fill:none;stroke:#5BB24C;stroke-width:3;stroke-linecap:round;stroke-miterlimit:10;stroke-dasharray:11.9912,11.9912;}
	.st198{fill:none;stroke:#5BB24C;stroke-width:3;stroke-linecap:round;stroke-linejoin:round;stroke-miterlimit:10;}
	.st199{fill:url(#SVGID_129_);}
	.st200{fill:url(#SVGID_130_);}
	.st201{fill:url(#SVGID_131_);}
	.st202{fill:url(#SVGID_132_);}
	.st203{fill:url(#SVGID_133_);}
	.st204{fill:url(#SVGID_134_);}
	.st205{fill:url(#SVGID_135_);}
	.st206{fill:url(#SVGID_136_);}
	.st207{fill:url(#SVGID_137_);}
	.st208{fill:url(#SVGID_138_);}
	.st209{fill:url(#SVGID_139_);}
	.st210{opacity:0.4;}
	.st211{opacity:0.31;fill:#FAB95F;enable-background:new    ;}
	.st212{opacity:0.43;fill:#FAB95F;enable-background:new    ;}
	.st213{fill:url(#SVGID_140_);}
	.st214{fill:url(#SVGID_141_);}
	.st215{fill:url(#SVGID_142_);}
	.st216{fill:url(#SVGID_143_);}
	.st217{fill:url(#SVGID_144_);}
	.st218{fill:url(#SVGID_145_);}
	.st219{fill:url(#SVGID_146_);}
	.st220{fill:url(#SVGID_147_);}
	.st221{fill:url(#SVGID_148_);}
	.st222{fill:#FCDAC2;}
	.st223{fill:#EF7A5B;}
	.st224{fill:#77AFC6;}
	.st225{fill:#F1876F;}
	.st226{fill:#89B9CE;}
	.st227{fill:#FFD884;}
	.st228{fill:url(#SVGID_149_);}
	.st229{fill:url(#SVGID_150_);}
	.st230{fill:url(#SVGID_151_);}
	.st231{fill:url(#SVGID_152_);}
	.st232{fill:url(#SVGID_153_);}
	.st233{fill:url(#SVGID_154_);}
	.st234{fill:#FCD5B7;}
	.st235{fill:url(#SVGID_155_);}
	.st236{fill:url(#SVGID_156_);}
	.st237{fill:url(#SVGID_157_);}
	.st238{fill:url(#SVGID_158_);}
	.st239{fill:#F8BC9F;}
	.st240{fill:url(#SVGID_159_);}
	.st241{fill:url(#SVGID_160_);}
	.st242{fill:url(#SVGID_161_);}
	.st243{fill:url(#SVGID_162_);}
	.st244{fill:url(#SVGID_163_);}
	.st245{fill:url(#SVGID_164_);}
	.st246{fill:#F7B395;}
	.st247{fill:url(#SVGID_165_);}
	.st248{fill:url(#SVGID_166_);}
	.st249{fill:url(#SVGID_167_);}
	.st250{fill:url(#SVGID_168_);}
	.st251{fill:url(#SVGID_169_);}
	.st252{fill:url(#SVGID_170_);}
	.st253{fill:url(#SVGID_171_);}
	.st254{fill:url(#SVGID_172_);}
	.st255{fill:url(#SVGID_173_);}
	.st256{fill:url(#SVGID_174_);}
	.st257{fill:url(#SVGID_175_);}
	.st258{fill:url(#SVGID_176_);}
	.st259{fill:url(#SVGID_177_);}
	.st260{fill:url(#SVGID_178_);}
	.st261{fill:url(#SVGID_179_);}
	.st262{fill:url(#SVGID_180_);}
	.st263{fill:url(#SVGID_181_);}
	.st264{fill:url(#SVGID_182_);}
	.st265{fill:url(#SVGID_183_);}
	.st266{fill:url(#SVGID_184_);}
	.st267{fill:url(#SVGID_185_);}
	.st268{fill:url(#SVGID_186_);}
	.st269{fill:url(#SVGID_187_);}
	.st270{fill:url(#SVGID_188_);}
	.st271{fill:url(#SVGID_189_);}
	.st272{fill:url(#SVGID_190_);}
	.st273{fill:url(#SVGID_191_);}
	.st274{fill:url(#SVGID_192_);}
	.st275{fill:url(#SVGID_193_);}
	.st276{fill:url(#SVGID_194_);}
	.st277{fill:url(#SVGID_195_);}
	.st278{fill:url(#SVGID_196_);}
	.st279{fill:url(#SVGID_197_);}
	.st280{fill:#FCFEFF;}
	.st281{fill:#FCF4F2;}
	.st282{fill:url(#SVGID_198_);}
	.st283{fill:url(#SVGID_199_);}
	.st284{fill:url(#SVGID_200_);}
	.st285{fill:none;stroke:#43AE5D;stroke-width:2;stroke-linecap:round;stroke-miterlimit:10;}
	.st286{fill:url(#SVGID_201_);}
	.st287{fill:url(#SVGID_202_);}
	.st288{fill:url(#SVGID_203_);}
	.st289{fill:url(#SVGID_204_);}
	.st290{fill:url(#SVGID_205_);}
	.st291{fill:url(#SVGID_206_);}
	.st292{fill:#CEE9EF;}
	.st293{fill:url(#SVGID_207_);}
	.st294{fill:url(#SVGID_208_);}
	.st295{fill:url(#SVGID_209_);}
	.st296{fill:url(#SVGID_210_);}
	.st297{fill:url(#SVGID_211_);}
	.st298{fill:none;stroke:#5BB24C;stroke-width:3;stroke-linecap:round;stroke-miterlimit:10;stroke-dasharray:11.9199,11.9199;}
	.st299{fill:url(#SVGID_212_);}
	.st300{fill:url(#SVGID_213_);}
	.st301{fill:#F7FCFD;}
	.st302{fill:url(#SVGID_214_);}
	.st303{fill:url(#SVGID_215_);}
	.st304{fill:url(#SVGID_216_);}
	.st305{fill:url(#SVGID_217_);}
	.st306{fill:url(#SVGID_218_);}
	.st307{fill:url(#SVGID_219_);}
	.st308{fill:url(#SVGID_220_);}
	.st309{fill:url(#SVGID_221_);}
	.st310{fill:url(#SVGID_222_);}
	.st311{fill:url(#SVGID_223_);}
	.st312{fill:url(#SVGID_224_);}
	.st313{fill:url(#SVGID_225_);}
	.st314{fill:url(#SVGID_226_);}
	.st315{fill:url(#SVGID_227_);}
	.st316{fill:url(#SVGID_228_);}
	.st317{fill:url(#SVGID_229_);}
	.st318{fill:url(#SVGID_230_);}
	.st319{fill:url(#SVGID_231_);}
	.st320{fill:url(#SVGID_232_);}
	.st321{fill:url(#SVGID_233_);}
	.st322{fill:url(#SVGID_234_);}
	.st323{fill:url(#SVGID_235_);}
	.st324{fill:url(#SVGID_236_);}
	.st325{fill:url(#SVGID_237_);}
	.st326{fill:url(#SVGID_238_);}
	.st327{fill:url(#SVGID_239_);}
	.st328{fill:url(#SVGID_240_);}
	.st329{fill:url(#SVGID_241_);}
	.st330{fill:url(#SVGID_242_);}
	.st331{fill:url(#SVGID_243_);}
	.st332{fill:url(#SVGID_244_);}
	.st333{fill:url(#SVGID_245_);}
	.st334{fill:url(#SVGID_246_);}
	.st335{fill:url(#SVGID_247_);}
	.st336{fill:url(#SVGID_248_);}
	.st337{fill:url(#SVGID_249_);}
	.st338{fill:url(#SVGID_250_);}
	.st339{fill:url(#SVGID_251_);}
	.st340{fill:url(#SVGID_252_);}
	.st341{fill:url(#SVGID_253_);}
	.st342{fill:url(#SVGID_254_);}
	.st343{fill:url(#SVGID_255_);}
	.st344{fill:url(#SVGID_256_);}
	.st345{fill:url(#SVGID_257_);}
	.st346{fill:url(#SVGID_258_);}
	.st347{fill:url(#SVGID_259_);}
	.st348{fill:url(#SVGID_260_);}
	.st349{fill:url(#SVGID_261_);}
	.st350{fill:url(#SVGID_262_);}
	.st351{fill:url(#SVGID_263_);}
</style>
<linearGradient id="SVGID_1_" gradientUnits="userSpaceOnUse" x1="346.5159" y1="-1447.2878" x2="1141.1826" y2="-559.2878" gradientTransform="matrix(1 0 0 -1 0 -991.408)">
	<stop  offset="0" style="stop-color:#ECF6FB;stop-opacity:0.1"/>
	<stop  offset="0.0589" style="stop-color:#E7F4FA;stop-opacity:0.153"/>
	<stop  offset="0.3401" style="stop-color:#D9EEF4;stop-opacity:0.4061"/>
	<stop  offset="0.6423" style="stop-color:#D1EAF1;stop-opacity:0.6781"/>
	<stop  offset="1" style="stop-color:#CDE9F0"/>
</linearGradient>
<path class="st1" d="M896.21,566.5c8.81-35.38,13.49-72.39,13.49-110.5c0-56.58-10.32-110.75-29.16-160.74
	c5.95-18.01,9.17-37.26,9.17-57.26c0-100.79-81.67-182.5-182.42-182.5c-10.58,0-20.95,0.91-31.03,2.64
	C610.6,21.43,534.94,0.5,454.39,0.5c-61.87,0-120.85,12.35-174.62,34.71C251.41,17.04,217.69,6.5,181.51,6.5
	C80.75,6.5-0.92,88.21-0.92,189c0,37.65,11.4,72.63,30.92,101.68C10.04,341.93-0.92,397.68-0.92,456c0,38.11,4.68,75.12,13.49,110.5
	H896.21z"/>
<g>
	<path class="st0" d="M513.78,80.61c-0.72,0-1.41-0.29-1.92-0.8l-14.08-14.08c-1.06-1.06-1.06-2.79,0-3.85
		c1.06-1.06,2.79-1.06,3.85,0l12.15,12.15l12.15-12.15c1.06-1.06,2.79-1.06,3.85,0c1.06,1.06,1.06,2.79,0,3.85L515.7,79.81
		C515.19,80.32,514.5,80.61,513.78,80.61z"/>
</g>
<g>
	<path class="st0" d="M486.1,115.31c-0.42,0-0.84-0.16-1.15-0.48l-8.99-8.99c-0.64-0.64-0.64-1.67,0-2.31s1.67-0.64,2.31,0
		l7.84,7.84l7.84-7.84c0.64-0.64,1.67-0.64,2.31,0c0.64,0.64,0.64,1.67,0,2.31l-8.99,8.99C486.93,115.15,486.51,115.31,486.1,115.31
		z"/>
</g>
<g>
	<path class="st0" d="M539.5,128.5c-0.42,0-0.84-0.16-1.15-0.48l-11.65-11.65c-0.64-0.64-0.64-1.67,0-2.31s1.67-0.64,2.31,0
		l10.49,10.49l10.49-10.49c0.64-0.64,1.67-0.64,2.31,0s0.64,1.67,0,2.31l-11.65,11.65C540.34,128.34,539.92,128.5,539.5,128.5z"/>
</g>
<linearGradient id="SVGID_2_" gradientUnits="userSpaceOnUse" x1="608.0129" y1="-1119.4512" x2="608.0129" y2="-1525.4677" gradientTransform="matrix(1 0 0 -1 0 -991.408)">
	<stop  offset="0" style="stop-color:#FAFDFF"/>
	<stop  offset="0.2042" style="stop-color:#E7F4F8"/>
	<stop  offset="0.4419" style="stop-color:#DAEEF2"/>
	<stop  offset="0.6975" style="stop-color:#D0EAEE"/>
	<stop  offset="1" style="stop-color:#CDE8ED"/>
</linearGradient>
<path class="st8" d="M631.47,59.66h-8.84c0-11.58-9.3-20.97-20.77-20.97c-11.47,0-20.77,9.39-20.77,20.97c0,0.1,0.01,0.19,0.01,0.28
	c-10.21,1.67-18.01,10.61-18.01,21.39l0,0c0,11.97,9.61,21.67,21.46,21.67h46.92c11.85,0,21.46-9.7,21.46-21.67l0,0
	C652.93,69.36,643.32,59.66,631.47,59.66z"/>
<linearGradient id="SVGID_3_" gradientUnits="userSpaceOnUse" x1="773.0829" y1="-1142.4027" x2="773.0829" y2="-1379.6571" gradientTransform="matrix(1 0 0 -1 0 -991.408)">
	<stop  offset="0" style="stop-color:#FAFDFF"/>
	<stop  offset="0.2042" style="stop-color:#E7F4F8"/>
	<stop  offset="0.4419" style="stop-color:#DAEEF2"/>
	<stop  offset="0.6975" style="stop-color:#D0EAEE"/>
	<stop  offset="1" style="stop-color:#CDE8ED"/>
</linearGradient>
<path class="st10" d="M786.8,111.03h-5.17c0-6.77-5.43-12.26-12.14-12.26c-6.7,0-12.14,5.49-12.14,12.26c0,0.06,0,0.11,0,0.17
	c-5.97,0.98-10.52,6.2-10.52,12.5l0,0c0,6.99,5.61,12.66,12.54,12.66h27.42c6.93,0,12.54-5.67,12.54-12.66l0,0
	C799.34,116.7,793.72,111.03,786.8,111.03z"/>
<g>
	<path class="st46" d="M35.1,58.46L35.1,58.46c-1.89,0-3.42-1.53-3.42-3.42V22.75c0-1.89,1.53-3.42,3.42-3.42l0,0
		c1.89,0,3.42,1.53,3.42,3.42v32.28C38.52,56.92,36.99,58.46,35.1,58.46z"/>
</g>
<g>
	<path class="st46" d="M54.66,38.89L54.66,38.89c0,1.89-1.53,3.42-3.42,3.42H18.95c-1.89,0-3.42-1.53-3.42-3.42l0,0
		c0-1.89,1.53-3.42,3.42-3.42h32.28C53.13,35.47,54.66,37,54.66,38.89z"/>
</g>
<g>
	<path class="st46" d="M870.1,222.19L870.1,222.19c-1.99,0-3.6-1.61-3.6-3.6v-33.93c0-1.99,1.61-3.6,3.6-3.6l0,0
		c1.99,0,3.6,1.61,3.6,3.6v33.93C873.69,220.58,872.08,222.19,870.1,222.19z"/>
</g>
<g>
	<path class="st46" d="M890.66,201.63L890.66,201.63c0,1.99-1.61,3.6-3.6,3.6h-33.93c-1.99,0-3.6-1.61-3.6-3.6l0,0
		c0-1.99,1.61-3.6,3.6-3.6h33.93C889.05,198.03,890.66,199.64,890.66,201.63z"/>
</g>
<g>
	<path class="st46" d="M842.63,45.17c-7.19,0-13.03-5.85-13.03-13.03s5.85-13.03,13.03-13.03c7.19,0,13.03,5.85,13.03,13.03
		S849.81,45.17,842.63,45.17z M842.63,24c-4.49,0-8.13,3.65-8.13,8.13s3.65,8.13,8.13,8.13s8.13-3.65,8.13-8.13S847.11,24,842.63,24
		z"/>
</g>
<g>
	<path class="st0" d="M692.33,393.87h-2.26c-2.76,0-5,2.39-5,5.33c0,2.94,2.24,5.33,5,5.33h2.26c2.76,0,5-2.39,5-5.33
		S695.1,393.87,692.33,393.87L692.33,393.87z M667.48,393.87h-70c-0.39,0-0.77,0.05-1.13,0.14c-0.36-0.09-0.74-0.14-1.13-0.14h-22.6
		c-2.76,0-5,2.39-5,5.33c0,2.94,2.24,5.33,5,5.33h22.6c0.39,0,0.77-0.05,1.13-0.14c0.36,0.09,0.74,0.14,1.13,0.14h70
		c2.76,0,5-2.39,5-5.33S670.24,393.87,667.48,393.87L667.48,393.87z M502.62,393.87h-2.26c-2.76,0-5,2.39-5,5.33
		c0,2.94,2.24,5.33,5,5.33h2.26c2.76,0,5-2.39,5-5.33S505.38,393.87,502.62,393.87L502.62,393.87z M477.76,393.87h-70
		c-0.39,0-0.77,0.05-1.13,0.14c-0.36-0.09-0.74-0.14-1.13-0.14h-22.6c-2.76,0-5,2.39-5,5.33c0,2.94,2.24,5.33,5,5.33h22.6
		c0.39,0,0.77-0.05,1.13-0.14c0.36,0.09,0.74,0.14,1.13,0.14h70c2.76,0,5-2.39,5-5.33S480.52,393.87,477.76,393.87L477.76,393.87z
		 M312.9,393.87h-2.26c-2.76,0-5,2.39-5,5.33c0,2.94,2.24,5.33,5,5.33h2.26c2.76,0,5-2.39,5-5.33S315.67,393.87,312.9,393.87
		L312.9,393.87z M235.15,513.71c-1.08,0-2.17,0.37-3.09,1.14c-2.17,1.82-2.55,5.17-0.84,7.48c0.45,0.61,0.91,1.21,1.37,1.81
		c0.01,0.01,0.01,0.01,0.01,0.02c0.01,0.01,0.01,0.02,0.02,0.03c0.01,0.01,0.01,0.02,0.02,0.02c0.99,1.26,2.41,1.91,3.84,1.91
		c1.13,0,2.27-0.41,3.2-1.24c2.12-1.89,2.4-5.25,0.63-7.51c-0.42-0.53-0.83-1.08-1.23-1.62
		C238.1,514.41,236.63,513.71,235.15,513.71L235.15,513.71z M252.24,530.28c-1.64,0-3.25,0.86-4.21,2.44
		c-1.49,2.47-0.83,5.76,1.48,7.36c4.08,2.8,8.42,5.19,13,7.11c0,0,0,0,0.01,0c0.18,0.07,0.35,0.15,0.53,0.22l0,0
		c0.11,0.04,0.21,0.09,0.32,0.13l0,0c0.12,0.05,0.25,0.1,0.37,0.15l0,0c0.05,0.02,0.1,0.04,0.16,0.06c0,0,0,0,0.01,0
		c0.05,0.02,0.1,0.04,0.16,0.06l0,0c0.05,0.02,0.1,0.04,0.15,0.06h0.01c0.02,0.01,0.03,0.01,0.05,0.02h0.01
		c0.05,0.02,0.1,0.04,0.15,0.06h0.01c0.05,0.02,0.1,0.04,0.15,0.06c0,0,0,0,0.01,0c0.05,0.02,0.1,0.04,0.15,0.06c0,0,0,0,0.01,0
		c0.05,0.02,0.1,0.04,0.16,0.06l0,0c0.02,0.01,0.03,0.01,0.05,0.02h0.01c0.05,0.02,0.1,0.04,0.15,0.06h0.01
		c0.05,0.02,0.1,0.04,0.15,0.05c0,0,0.01,0,0.01,0.01c0.05,0.02,0.1,0.04,0.15,0.05h0.01c0.02,0.01,0.03,0.01,0.05,0.02h0.01
		c0.03,0.01,0.06,0.02,0.1,0.04c0,0,0,0,0.01,0c0.02,0.01,0.03,0.01,0.05,0.02c0,0,0,0,0.01,0c0.05,0.02,0.1,0.04,0.15,0.06h0.01
		c0.05,0.02,0.1,0.04,0.15,0.05h0.01c0.05,0.02,0.1,0.04,0.15,0.05c0,0,0.01,0,0.01,0.01c0.02,0.01,0.03,0.01,0.05,0.02
		c0,0,0,0,0.01,0c0.03,0.01,0.07,0.02,0.1,0.04c0,0,0,0,0.01,0c0.02,0.01,0.03,0.01,0.05,0.02c0.01,0,0.01,0,0.02,0.01
		c0.05,0.02,0.1,0.03,0.15,0.05c0,0,0.01,0,0.01,0.01c0.05,0.02,0.1,0.03,0.15,0.05c0,0,0.01,0,0.02,0.01
		c0.02,0.01,0.03,0.01,0.05,0.02h0.01c0.03,0.01,0.06,0.02,0.09,0.03c0.01,0,0.01,0,0.02,0.01c0.01,0,0.03,0.01,0.05,0.02
		c0,0,0.01,0,0.02,0.01c0.03,0.01,0.06,0.02,0.08,0.03c0.01,0,0.01,0,0.02,0.01c0.01,0,0.03,0.01,0.04,0.02c0.01,0,0.01,0,0.02,0.01
		c0.05,0.02,0.09,0.03,0.14,0.05c0.01,0,0.01,0,0.02,0.01c0.05,0.02,0.09,0.03,0.14,0.05c0.01,0,0.02,0.01,0.02,0.01
		c0.01,0,0.03,0.01,0.04,0.01s0.02,0.01,0.02,0.01c0.02,0.01,0.05,0.02,0.07,0.02c0.01,0,0.02,0.01,0.03,0.01s0.03,0.01,0.04,0.01
		s0.02,0.01,0.03,0.01c0.02,0.01,0.05,0.02,0.07,0.02c0.01,0,0.02,0.01,0.03,0.01s0.03,0.01,0.04,0.01s0.02,0.01,0.02,0.01
		c0.03,0.01,0.05,0.02,0.08,0.03c0.01,0,0.01,0,0.02,0.01c0.01,0,0.03,0.01,0.04,0.01s0.02,0.01,0.03,0.01s0.03,0.01,0.04,0.01
		s0.01,0,0.02,0.01c0.03,0.01,0.05,0.02,0.08,0.02c0.01,0,0.02,0.01,0.02,0.01c0.02,0.01,0.03,0.01,0.04,0.01s0.01,0,0.02,0.01
		c0.03,0.01,0.05,0.02,0.08,0.02c0.01,0,0.02,0,0.02,0.01c0.01,0,0.03,0.01,0.04,0.01s0.01,0,0.02,0.01
		c0.03,0.01,0.05,0.02,0.08,0.03c0.01,0,0.01,0,0.02,0.01c0.01,0,0.03,0.01,0.04,0.01s0.02,0.01,0.02,0.01
		c0.03,0.01,0.05,0.02,0.08,0.02c0.01,0,0.01,0,0.02,0.01c0.01,0,0.03,0.01,0.04,0.01s0.02,0.01,0.03,0.01s0.03,0.01,0.04,0.01
		s0.02,0.01,0.03,0.01c0.02,0.01,0.05,0.01,0.07,0.02c0.01,0,0.02,0.01,0.03,0.01s0.03,0.01,0.04,0.01s0.02,0.01,0.03,0.01
		c0.02,0.01,0.04,0.01,0.06,0.02c0.01,0,0.02,0.01,0.03,0.01s0.02,0.01,0.04,0.01c0.01,0,0.02,0.01,0.03,0.01
		c0.02,0.01,0.04,0.01,0.06,0.02c0.01,0,0.02,0.01,0.03,0.01s0.03,0.01,0.04,0.01s0.02,0.01,0.03,0.01c0.02,0,0.04,0.01,0.05,0.02
		c0.01,0,0.03,0.01,0.04,0.01s0.02,0.01,0.03,0.01s0.02,0.01,0.03,0.01s0.02,0.01,0.03,0.01c0.02,0.01,0.04,0.01,0.06,0.02
		c0.01,0,0.02,0.01,0.03,0.01s0.02,0.01,0.03,0.01s0.03,0.01,0.04,0.01s0.02,0.01,0.04,0.01c0.02,0.01,0.04,0.01,0.06,0.02
		c0.01,0,0.02,0.01,0.03,0.01s0.03,0.01,0.04,0.01s0.02,0.01,0.03,0.01c0.02,0.01,0.04,0.01,0.05,0.02c0.01,0,0.03,0.01,0.04,0.01
		s0.02,0.01,0.04,0.01c0.01,0,0.02,0.01,0.03,0.01s0.02,0.01,0.04,0.01c0.02,0.01,0.04,0.01,0.05,0.02c0.01,0,0.02,0.01,0.04,0.01
		c0.01,0,0.02,0.01,0.03,0.01s0.02,0.01,0.04,0.01c0.02,0.01,0.04,0.01,0.06,0.02c0.01,0,0.03,0.01,0.04,0.01s0.02,0.01,0.03,0.01
		s0.02,0.01,0.03,0.01s0.03,0.01,0.04,0.01c0.02,0.01,0.04,0.01,0.05,0.02c0.01,0,0.02,0.01,0.03,0.01s0.02,0.01,0.04,0.01
		c0.01,0,0.02,0.01,0.04,0.01c0.02,0,0.04,0.01,0.05,0.01c0.01,0,0.03,0.01,0.04,0.01s0.02,0.01,0.04,0.01
		c0.01,0,0.02,0.01,0.03,0.01s0.03,0.01,0.04,0.01c0.02,0.01,0.04,0.01,0.05,0.02c0.01,0,0.02,0.01,0.03,0.01s0.03,0.01,0.04,0.01
		s0.02,0.01,0.03,0.01c0.02,0.01,0.04,0.01,0.06,0.02c0.01,0,0.02,0.01,0.03,0.01s0.02,0.01,0.04,0.01c0.01,0,0.02,0.01,0.04,0.01
		c0.01,0,0.03,0.01,0.04,0.01c0.02,0,0.03,0.01,0.05,0.01c0.01,0,0.03,0.01,0.04,0.01s0.02,0.01,0.03,0.01
		c0.02,0,0.03,0.01,0.04,0.01s0.02,0.01,0.04,0.01c0.02,0,0.03,0.01,0.05,0.01c0.01,0,0.02,0.01,0.03,0.01s0.03,0.01,0.04,0.01
		s0.02,0.01,0.03,0.01c0.02,0.01,0.04,0.01,0.06,0.02c0.01,0,0.02,0.01,0.03,0.01s0.03,0.01,0.04,0.01s0.02,0.01,0.03,0.01
		c0.02,0.01,0.04,0.01,0.06,0.02c0.01,0,0.02,0.01,0.03,0.01s0.03,0.01,0.04,0.01s0.02,0.01,0.03,0.01c0.02,0,0.03,0.01,0.05,0.01
		c0.01,0,0.03,0.01,0.04,0.01c0.02,0,0.03,0.01,0.04,0.01s0.02,0.01,0.03,0.01s0.03,0.01,0.04,0.01s0.03,0.01,0.04,0.01
		c0.02,0,0.03,0.01,0.05,0.01c0.01,0,0.02,0.01,0.03,0.01s0.03,0.01,0.04,0.01s0.02,0,0.03,0.01c0.02,0.01,0.04,0.01,0.06,0.02
		c0.01,0,0.02,0.01,0.03,0.01s0.03,0.01,0.04,0.01s0.02,0.01,0.03,0.01c0.02,0.01,0.04,0.01,0.06,0.02c0.01,0,0.02,0,0.03,0.01
		c0.01,0,0.03,0.01,0.04,0.01s0.02,0.01,0.03,0.01c0.02,0,0.03,0.01,0.05,0.01c0.01,0,0.02,0.01,0.03,0.01
		c0.02,0,0.03,0.01,0.05,0.01c0.01,0,0.02,0.01,0.03,0.01c0.02,0,0.03,0.01,0.05,0.01c0.01,0,0.02,0.01,0.03,0.01
		c0.02,0,0.04,0.01,0.06,0.01c0.01,0,0.02,0.01,0.03,0.01s0.03,0.01,0.04,0.01s0.02,0,0.03,0.01c0.02,0.01,0.04,0.01,0.06,0.02
		c0.01,0,0.02,0,0.03,0.01c0.02,0,0.03,0.01,0.05,0.01c0.01,0,0.02,0,0.03,0.01c0.02,0.01,0.04,0.01,0.06,0.02
		c0.01,0,0.02,0,0.03,0.01c0.02,0,0.03,0.01,0.05,0.01c0.01,0,0.02,0,0.03,0.01c0.02,0,0.04,0.01,0.05,0.01
		c0.01,0,0.03,0.01,0.04,0.01c0.02,0,0.03,0.01,0.05,0.01c0.01,0,0.02,0.01,0.03,0.01c0.02,0,0.03,0.01,0.04,0.01s0.02,0,0.03,0.01
		c0.02,0,0.04,0.01,0.06,0.01c0.01,0,0.02,0,0.03,0.01c0.01,0,0.03,0.01,0.04,0.01s0.02,0,0.03,0.01c0.02,0,0.04,0.01,0.06,0.01
		c0.01,0,0.02,0,0.03,0.01c0.01,0,0.03,0.01,0.04,0.01s0.02,0,0.03,0.01c0.02,0.01,0.04,0.01,0.07,0.02c0.01,0,0.01,0,0.02,0.01
		c0.02,0,0.03,0.01,0.05,0.01c0.01,0,0.02,0,0.03,0.01c0.02,0,0.04,0.01,0.06,0.01c0.01,0,0.01,0,0.02,0c0.02,0,0.04,0.01,0.06,0.01
		c0.01,0,0.02,0,0.03,0.01c0.02,0,0.03,0.01,0.05,0.01c0.01,0,0.02,0,0.02,0.01c0.02,0,0.04,0.01,0.06,0.01c0.01,0,0.02,0,0.03,0.01
		c0.02,0,0.03,0.01,0.05,0.01c0.01,0,0.02,0,0.02,0.01c0.02,0.01,0.04,0.01,0.07,0.01c0.01,0,0.02,0,0.03,0.01
		c0.02,0,0.03,0.01,0.05,0.01c0.01,0,0.02,0,0.03,0.01c0.02,0,0.05,0.01,0.07,0.02c0.01,0,0.01,0,0.02,0c0.02,0,0.04,0.01,0.05,0.01
		c0.01,0,0.02,0,0.03,0.01c0.02,0,0.04,0.01,0.06,0.01c0.01,0,0.01,0,0.02,0c0.02,0,0.04,0.01,0.06,0.01c0.01,0,0.02,0,0.02,0.01
		c0.02,0,0.04,0.01,0.05,0.01c0.01,0,0.01,0,0.02,0c0.02,0,0.05,0.01,0.07,0.01c0.01,0,0.01,0,0.02,0.01c0.02,0,0.04,0.01,0.05,0.01
		c0.01,0,0.01,0,0.02,0c0.02,0,0.05,0.01,0.07,0.01c0.01,0,0.01,0,0.02,0c0.02,0,0.04,0.01,0.05,0.01c0.01,0,0.01,0,0.02,0
		c0.02,0,0.05,0.01,0.07,0.01c0.01,0,0.01,0,0.02,0c0.02,0,0.04,0.01,0.05,0.01c0.01,0,0.02,0,0.03,0.01c0.02,0,0.04,0.01,0.06,0.01
		c0.01,0,0.01,0,0.02,0c0.02,0,0.04,0.01,0.06,0.01c0.01,0,0.02,0,0.03,0.01c0.02,0,0.04,0.01,0.05,0.01c0.01,0,0.01,0,0.02,0
		c0.02,0,0.05,0.01,0.07,0.01c0.01,0,0.01,0,0.02,0c0.02,0,0.04,0.01,0.05,0.01c0.01,0,0.02,0,0.02,0c0.02,0,0.05,0.01,0.07,0.01
		c0.01,0,0.02,0,0.03,0.01c0.02,0,0.03,0.01,0.05,0.01c0.01,0,0.02,0,0.03,0.01c0.02,0,0.04,0.01,0.07,0.01c0.01,0,0.01,0,0.02,0
		c0.02,0,0.03,0.01,0.05,0.01c0.01,0,0.02,0,0.03,0.01c0.02,0,0.04,0.01,0.06,0.01c0.01,0,0.02,0,0.03,0.01
		c0.02,0,0.04,0.01,0.06,0.01c0.01,0,0.02,0,0.03,0.01c0.02,0,0.04,0.01,0.05,0.01c0.01,0,0.01,0,0.02,0c0.02,0,0.05,0.01,0.07,0.01
		c0.01,0,0.01,0,0.02,0c0.02,0,0.04,0.01,0.05,0.01c0.01,0,0.01,0,0.02,0c0.02,0,0.05,0.01,0.07,0.01c0.01,0,0.01,0,0.02,0
		c0.02,0,0.04,0.01,0.06,0.01c0.01,0,0.01,0,0.02,0c0.02,0,0.05,0.01,0.07,0.01c0.01,0,0.01,0,0.02,0c0.02,0,0.04,0.01,0.06,0.01
		c0.01,0,0.02,0,0.03,0c0.02,0,0.04,0.01,0.06,0.01c0.01,0,0.01,0,0.02,0c0.02,0,0.04,0.01,0.06,0.01c0.01,0,0.02,0,0.03,0
		c0.02,0,0.04,0.01,0.06,0.01c0.01,0,0.01,0,0.02,0c0.02,0,0.05,0.01,0.07,0.01c0.01,0,0.02,0,0.03,0c0.02,0,0.03,0.01,0.05,0.01
		c0.01,0,0.01,0,0.02,0c0.02,0,0.05,0.01,0.07,0.01c0.01,0,0.02,0,0.02,0c0.02,0,0.04,0.01,0.05,0.01c0.01,0,0.01,0,0.02,0
		c0.02,0,0.05,0.01,0.07,0.01c0.01,0,0.01,0,0.02,0c0.02,0,0.04,0.01,0.06,0.01c0.01,0,0.02,0,0.02,0c0.02,0,0.04,0.01,0.06,0.01
		c0,0,0.01,0,0.02,0c0.02,0,0.04,0.01,0.06,0.01c0.01,0,0.02,0,0.02,0c0.02,0,0.04,0.01,0.06,0.01c0.01,0,0.01,0,0.02,0
		c0.02,0,0.05,0.01,0.07,0.01c0.01,0,0.01,0,0.02,0c0.02,0,0.04,0.01,0.06,0.01c0.01,0,0.01,0,0.02,0c0.02,0,0.05,0.01,0.07,0.01
		c0.01,0,0.01,0,0.02,0c0.02,0,0.04,0.01,0.05,0.01c0.01,0,0.02,0,0.02,0c0.02,0,0.05,0.01,0.07,0.01c0.01,0,0.01,0,0.02,0
		c0.02,0,0.04,0.01,0.06,0.01c0.01,0,0.02,0,0.02,0c0.02,0,0.05,0.01,0.07,0.01l0,0c0.02,0,0.05,0.01,0.07,0.01
		c0.01,0,0.02,0,0.02,0c0.02,0,0.04,0.01,0.06,0.01c0.01,0,0.01,0,0.02,0c0.02,0,0.05,0.01,0.07,0.01c0.01,0,0.01,0,0.02,0
		c0.02,0,0.04,0.01,0.06,0.01c0.01,0,0.01,0,0.02,0c0.02,0,0.05,0.01,0.07,0.01c0.01,0,0.01,0,0.02,0c0.02,0,0.04,0.01,0.05,0.01
		c0.01,0,0.01,0,0.02,0c0.02,0,0.05,0.01,0.07,0.01c0.01,0,0.01,0,0.02,0c0.02,0,0.04,0.01,0.06,0.01c0.01,0,0.01,0,0.02,0
		c0.02,0,0.04,0.01,0.06,0.01c0.01,0,0.01,0,0.02,0c0.02,0,0.04,0.01,0.07,0.01c0.01,0,0.02,0,0.02,0c0.02,0,0.04,0.01,0.06,0.01
		c0,0,0.01,0,0.02,0c0.02,0,0.05,0.01,0.07,0.01c0.01,0,0.01,0,0.02,0c0.02,0,0.04,0.01,0.05,0.01c0.01,0,0.02,0,0.02,0
		c0.02,0,0.05,0.01,0.07,0.01c0.01,0,0.01,0,0.02,0c0.02,0,0.04,0.01,0.06,0.01c0.01,0,0.02,0,0.02,0c0.02,0,0.05,0.01,0.07,0.01
		h0.01c0.02,0,0.04,0.01,0.06,0.01c0.01,0,0.02,0,0.02,0c0.02,0,0.04,0.01,0.07,0.01H280c0.02,0,0.05,0.01,0.07,0.01
		c0.01,0,0.02,0,0.02,0c0.02,0,0.04,0.01,0.06,0.01c0.01,0,0.01,0,0.02,0c0.02,0,0.05,0.01,0.07,0.01c0.01,0,0.02,0,0.02,0
		c0.02,0,0.04,0.01,0.06,0.01c0.01,0,0.01,0,0.02,0c0.02,0,0.05,0.01,0.07,0.01c0,0,0.01,0,0.02,0c0.02,0,0.04,0.01,0.06,0.01
		c0.01,0,0.01,0,0.02,0c0.02,0,0.05,0.01,0.07,0.01h0.01c0.02,0,0.04,0.01,0.06,0.01c0.01,0,0.01,0,0.02,0
		c0.02,0,0.04,0.01,0.07,0.01h0.01c0.02,0,0.05,0.01,0.07,0.01c0.01,0,0.01,0,0.02,0c0.02,0,0.04,0,0.06,0.01c0,0,0.01,0,0.02,0
		c0.02,0,0.05,0.01,0.07,0.01c0.01,0,0.01,0,0.02,0c0.02,0,0.04,0.01,0.06,0.01c0.01,0,0.01,0,0.02,0c0.02,0,0.05,0.01,0.07,0.01
		c0,0,0.01,0,0.02,0c0.02,0,0.04,0.01,0.06,0.01c0.01,0,0.01,0,0.02,0c0.02,0,0.05,0.01,0.07,0.01c0,0,0,0,0.01,0
		c0.02,0,0.04,0.01,0.07,0.01c0.01,0,0.02,0,0.02,0c0.02,0,0.04,0.01,0.07,0.01h0.01c0.02,0,0.05,0.01,0.07,0.01
		c0.01,0,0.02,0,0.03,0c0.02,0,0.04,0,0.06,0.01c0,0,0.01,0,0.02,0c0.02,0,0.05,0.01,0.07,0.01c0.01,0,0.01,0,0.02,0
		c0.02,0,0.04,0,0.06,0.01c0.01,0,0.01,0,0.02,0c0.02,0,0.05,0.01,0.07,0.01c0,0,0.01,0,0.02,0c0.02,0,0.04,0,0.06,0.01
		c0,0,0.01,0,0.02,0c0.03,0,0.05,0.01,0.08,0.01c0,0,0,0,0.01,0c0.02,0,0.05,0.01,0.07,0.01c0,0,0.01,0,0.02,0
		c0.02,0,0.05,0.01,0.07,0.01h0.01c0.02,0,0.05,0.01,0.07,0.01c0.01,0,0.01,0,0.02,0c0.02,0,0.04,0,0.06,0.01h0.01
		c0.03,0,0.05,0.01,0.08,0.01c0.01,0,0.01,0,0.02,0c0.02,0,0.04,0,0.06,0.01c0.01,0,0.01,0,0.02,0c0.02,0,0.05,0.01,0.07,0.01h0.01
		c0.02,0,0.04,0,0.06,0.01c0.01,0,0.02,0,0.02,0c0.02,0,0.05,0,0.07,0.01c0,0,0,0,0.01,0c0.02,0,0.04,0,0.07,0.01
		c0.01,0,0.02,0,0.02,0c0.02,0,0.04,0,0.07,0.01c0,0,0,0,0.01,0c0.03,0,0.05,0,0.08,0.01c0.01,0,0.01,0,0.02,0
		c0.02,0,0.04,0,0.06,0.01h0.01c0.02,0,0.05,0,0.07,0.01c0.01,0,0.01,0,0.02,0c0.02,0,0.04,0,0.06,0.01c0.01,0,0.01,0,0.02,0
		c0.02,0,0.05,0,0.07,0.01c0,0,0.01,0,0.02,0c0.02,0,0.04,0,0.06,0.01c0.01,0,0.02,0,0.02,0c0.02,0,0.05,0,0.07,0.01h0.01
		c0.02,0,0.04,0,0.06,0.01c0.01,0,0.01,0,0.02,0c0.02,0,0.04,0,0.06,0.01h0.01c0.02,0,0.05,0,0.07,0.01c0.01,0,0.01,0,0.02,0
		c0.02,0,0.04,0,0.06,0.01c0,0,0.01,0,0.02,0c0.02,0,0.05,0,0.07,0.01c0.01,0,0.01,0,0.02,0c0.02,0,0.04,0,0.06,0
		c0.01,0,0.01,0,0.02,0c0.02,0,0.05,0,0.07,0.01c0.01,0,0.01,0,0.02,0c0.02,0,0.04,0,0.06,0c0.01,0,0.02,0,0.02,0
		c0.02,0,0.05,0,0.07,0.01h0.01c0.02,0,0.04,0,0.07,0.01c0.01,0,0.01,0,0.02,0c0.02,0,0.05,0,0.07,0.01c0,0,0,0,0.01,0
		c0.03,0,0.05,0,0.08,0.01c0.01,0,0.02,0,0.02,0c0.02,0,0.04,0,0.06,0c0,0,0.01,0,0.02,0c0.03,0,0.05,0,0.07,0.01
		c0.01,0,0.01,0,0.02,0c0.02,0,0.04,0,0.06,0c0.01,0,0.01,0,0.02,0c0.02,0,0.05,0,0.07,0.01c0,0,0.01,0,0.02,0c0.02,0,0.04,0,0.06,0
		c0.01,0,0.01,0,0.02,0c0.02,0,0.05,0,0.08,0.01h0.01c0.02,0,0.05,0,0.07,0c0,0,0.01,0,0.02,0c0.02,0,0.05,0,0.07,0
		c0.01,0,0,0,0.01,0c0.02,0,0.05,0,0.08,0c0.01,0,0.01,0,0.02,0c0.02,0,0.04,0,0.07,0c0.01,0,0.01,0,0.01,0c0.03,0,0.05,0,0.08,0
		c0.01,0,0.01,0,0.02,0c0.02,0,0.04,0,0.06,0c0.01,0,0.01,0,0.02,0c0.03,0,0.05,0,0.08,0h0.01c0.02,0,0.04,0,0.06,0
		c0.01,0,0.01,0,0.02,0c0.05,0,0.1,0.01,0.15,0.01c0.01,0,0.01,0,0.02,0c0.02,0,0.05,0,0.07,0l0,0c0.03,0,0.05,0,0.08,0
		c0.01,0,0.01,0,0.02,0c0.02,0,0.04,0,0.07,0c0.01,0,0.01,0,0.01,0c0.03,0,0.05,0,0.08,0c0.01,0,0.01,0,0.02,0c0.02,0,0.04,0,0.06,0
		c0,0,0.01,0,0.02,0c0.03,0,0.05,0,0.08,0c0.01,0,0.01,0,0.01,0c0.02,0,0.04,0,0.06,0c0.01,0,0.01,0,0.02,0c0.03,0,0.05,0,0.08,0
		c0,0,0,0,0.01,0c0.02,0,0.05,0,0.07,0c0.01,0,0.01,0,0.02,0c0.02,0,0.04,0,0.06,0h0.01c0.03,0,0.05,0,0.08,0c0,0,0.01,0,0.02,0
		c0.02,0,0.04,0,0.06,0c0.01,0,0.01,0,0.02,0c0.03,0,0.05,0,0.07,0c0.01,0,0.01,0,0.02,0c0.02,0,0.04,0,0.06,0c0.01,0,0.01,0,0.02,0
		c0.03,0,0.05,0,0.08,0c0.01,0,0.01,0,0.01,0c0.02,0,0.04,0,0.06,0c0.01,0,0.01,0,0.02,0c0.02,0,0.05,0,0.07,0h0.01
		c0.02,0,0.05,0,0.07,0c0.01,0,0.02,0,0.02,0c0.02,0,0.04,0,0.07,0c0.01,0,0.01,0,0.01,0c0.03,0,0.05,0,0.08,0c0.01,0,0.01,0,0.02,0
		c0.02,0,0.04,0,0.06,0c0.01,0,0.01,0,0.02,0c0.03,0,0.05,0,0.08,0c0.01,0,0.01,0,0.02,0c0.02,0,0.04,0,0.06,0c0.01,0,0.01,0,0.02,0
		c0.03,0,0.05,0,0.08,0h0.01c0.02,0,0.04,0,0.06,0c0.01,0,0.01,0,0.02,0c0.03,0,0.05,0,0.08,0l0,0c0.03,0,0.05,0,0.08,0
		c0.01,0,0.01,0,0.02,0c0.02,0,0.04,0,0.06,0c0.01,0,0.01,0,0.01,0c0.03,0,0.05,0,0.07,0c0.01,0,0.01,0,0.02,0c0.02,0,0.04,0,0.06,0
		c0.01,0,0.01,0,0.02,0c0.03,0,0.05,0,0.08,0c0.01,0,0.01,0,0.02,0c0.02,0,0.04,0,0.06,0c0.01,0,0.02,0,0.02,0c0.03,0,0.05,0,0.08,0
		c0,0,0,0,0.01,0c0.02,0,0.05,0,0.07,0c0.01,0,0.01,0,0.02,0c0.03,0,0.05,0,0.08,0c0,0,0,0,0.01,0c0.02,0,0.05,0,0.07,0
		c0.01,0,0.01,0,0.02,0c0.02,0,0.04,0,0.07,0h0.01c0.03,0,0.05,0,0.08,0c0.01,0,0.01,0,0.02,0c0.02,0,0.04,0,0.07,0
		c0.01,0,0.01,0,0.01,0c0.03,0,0.05,0,0.08,0c0.01,0,0.01,0,0.02,0c0.02,0,0.04,0,0.06,0c0.01,0,0.01,0,0.02,0c0.03,0,0.05,0,0.08,0
		h0.01c0.02,0,0.04,0,0.07,0c0.01,0,0.01,0,0.02,0c0.03,0,0.05,0,0.08,0h27.41c0.39,0,0.77-0.05,1.13-0.14
		c0.36,0.09,0.74,0.14,1.13,0.14h22.6c2.76,0,5-2.39,5-5.33s-2.24-5.33-5-5.33h-22.6c-0.39,0-0.77,0.05-1.13,0.14
		c-0.36-0.09-0.74-0.14-1.13-0.14h-27.41c-12.43,0-24.5-3.77-34.89-10.91C254.1,530.55,253.16,530.28,252.24,530.28L252.24,530.28z
		 M531.81,542.04h-22.6c-0.39,0-0.77,0.05-1.13,0.14c-0.36-0.09-0.74-0.14-1.13-0.14h-70c-2.76,0-5,2.39-5,5.33s2.24,5.33,5,5.33h70
		c0.39,0,0.77-0.05,1.13-0.14c0.36,0.09,0.74,0.14,1.13,0.14h22.6c2.76,0,5-2.39,5-5.33C536.81,544.43,534.57,542.04,531.81,542.04
		L531.81,542.04z M604.07,542.04h-2.26c-2.76,0-5,2.39-5,5.33s2.24,5.33,5,5.33h2.26c2.76,0,5-2.39,5-5.33
		C609.07,544.43,606.83,542.04,604.07,542.04L604.07,542.04z M721.53,542.04h-22.6c-0.39,0-0.77,0.05-1.13,0.14
		c-0.36-0.09-0.74-0.14-1.13-0.14h-70c-2.76,0-5,2.39-5,5.33s2.24,5.33,5,5.33h70c0.39,0,0.77-0.05,1.13-0.14
		c0.36,0.09,0.74,0.14,1.13,0.14h22.6c2.76,0,5-2.39,5-5.33C726.53,544.43,724.29,542.04,721.53,542.04L721.53,542.04z
		 M793.19,541.53c-0.2,0-0.39,0.01-0.59,0.04c-0.64,0.08-1.3,0.15-1.95,0.21c-2.75,0.26-4.79,2.84-4.54,5.77
		c0.23,2.77,2.41,4.86,4.98,4.86c0.15,0,0.29-0.01,0.44-0.02h0.01c0.02,0,0.03,0,0.05,0c0.01,0,0.01,0,0.02,0s0.02,0,0.03,0
		c0.72-0.07,1.44-0.15,2.16-0.24c2.73-0.36,4.68-3,4.35-5.92C797.85,543.52,795.69,541.53,793.19,541.53L793.19,541.53z
		 M853.91,458.76c-0.2,0-0.41,0.01-0.62,0.04c-2.74,0.36-4.69,3.02-4.35,5.94c0.33,2.81,0.49,5.69,0.49,8.55
		c0,4.12-0.34,8.24-1.02,12.25c-0.06,0.35-0.08,0.7-0.08,1.05c-0.13,0.32-0.23,0.65-0.3,1c-4.23,21.35-17.95,39.46-36.68,48.45
		c-2.52,1.21-3.64,4.36-2.51,7.05c0.83,1.97,2.66,3.14,4.56,3.14c0.69,0,1.38-0.15,2.05-0.47c16.37-7.85,29.6-21.81,37.12-39.16l0,0
		c0.04-0.09,0.08-0.18,0.11-0.26l0,0c0.04-0.09,0.08-0.18,0.11-0.27l0,0c0.36-0.84,0.7-1.7,1.04-2.55l0,0
		c0.01-0.02,0.02-0.04,0.03-0.07l0,0c0.28-0.72,0.55-1.45,0.81-2.19l0,0c0.15-0.44,0.3-0.87,0.45-1.31l0,0
		c0.11-0.32,0.21-0.65,0.32-0.97l0,0c0.1-0.33,0.21-0.65,0.31-0.98l0,0c0.82-2.67,1.51-5.4,2.06-8.19c0.08-0.4,0.12-0.81,0.11-1.2
		c0.15-0.36,0.26-0.75,0.33-1.16c0.05-0.29,0.09-0.57,0.14-0.86l0,0c0-0.02,0.01-0.03,0.01-0.05c0,0,0,0,0-0.01s0-0.03,0.01-0.04
		c0-0.01,0-0.01,0-0.01c0-0.01,0-0.03,0.01-0.04v-0.01c0-0.01,0-0.03,0.01-0.04c0-0.01,0-0.01,0-0.02c0-0.01,0-0.03,0.01-0.04
		c0-0.01,0-0.01,0-0.02c0-0.01,0-0.02,0.01-0.04c0-0.02,0.01-0.04,0.01-0.05c0-0.01,0-0.01,0-0.02c0-0.01,0-0.03,0.01-0.04
		c0-0.01,0-0.01,0-0.02c0-0.01,0-0.02,0.01-0.04c0-0.01,0-0.01,0-0.02c0-0.01,0-0.02,0.01-0.04c0-0.01,0-0.02,0-0.02
		c0-0.01,0-0.03,0.01-0.04c0-0.01,0-0.01,0-0.02c0-0.01,0-0.03,0.01-0.04c0-0.01,0-0.01,0-0.02c0-0.02,0.01-0.03,0.01-0.05
		c0,0,0,0,0-0.01c0.01-0.06,0.02-0.12,0.03-0.18l0,0c0-0.02,0.01-0.04,0.01-0.06l0,0c0-0.02,0.01-0.04,0.01-0.06l0,0
		c0.43-3,0.71-6.05,0.82-9.15l0,0c0.01-0.15,0.01-0.3,0.01-0.44l0,0c0-0.02,0-0.04,0-0.06v-0.01c0-0.11,0.01-0.21,0.01-0.31l0,0
		c0-0.02,0-0.04,0-0.06v-0.01c0-0.02,0-0.04,0-0.05v-0.01c0-0.02,0-0.03,0-0.05c0-0.01,0-0.01,0-0.02c0-0.02,0-0.04,0-0.05v-0.01
		c0-0.06,0-0.12,0-0.19l0,0c0-0.02,0-0.04,0-0.06v-0.01c0-0.02,0-0.04,0-0.05v-0.01c0-0.02,0-0.03,0-0.05v-0.01
		c0-0.02,0-0.03,0-0.05c0-0.01,0-0.01,0-0.02c0-0.02,0-0.03,0-0.05v-0.01c0-0.04,0-0.08,0-0.13l0,0c0-0.02,0-0.04,0-0.06
		c0-0.01,0-0.01,0-0.02c0-0.01,0-0.03,0-0.04s0-0.01,0-0.02c0-0.02,0-0.03,0-0.04s0-0.01,0-0.02c0-0.01,0-0.03,0-0.04s0-0.01,0-0.02
		c0-0.01,0-0.03,0-0.04s0-0.01,0-0.02c0-0.02,0-0.04,0-0.05c0,0,0,0,0-0.01c0-0.02,0-0.04,0-0.06l0,0c0-0.02,0-0.04,0-0.06
		c0-0.01,0-0.01,0-0.02c0-0.01,0-0.03,0-0.04s0-0.02,0-0.02c0-0.01,0-0.03,0-0.04s0-0.01,0-0.02c0-0.01,0-0.03,0-0.04s0-0.02,0-0.02
		c0-0.01,0-0.03,0-0.04s0-0.01,0-0.02c0-0.01,0-0.03,0-0.04s0-0.01,0-0.02c0-0.02,0-0.04,0-0.06l0,0c0-0.02,0-0.04,0-0.06
		c0-0.01,0-0.01,0-0.02c0-0.01,0-0.03,0-0.04s0-0.01,0-0.02c0-0.01,0-0.02,0-0.04c0-0.01,0-0.02,0-0.02c0-0.01,0-0.03,0-0.04
		s0-0.02,0-0.02c0-0.01,0-0.03,0-0.04s0-0.02,0-0.02c0-0.01,0-0.03,0-0.04s0-0.01,0-0.02c0-0.02,0-0.04,0-0.06l0,0l0,0
		c0-0.02,0-0.05,0-0.07c0-0.01,0-0.01,0-0.02c0-0.02,0-0.04,0-0.05c0-0.01,0-0.02,0-0.02c0-0.02,0-0.03,0-0.05c0-0.01,0-0.02,0-0.02
		c0-0.02,0-0.04,0-0.06c0-0.01,0-0.01,0-0.02c0-0.02,0-0.05,0-0.07l0,0c0-0.02,0-0.05,0-0.07c0-0.01,0-0.01,0-0.02
		c0-0.02,0-0.04,0-0.06c0-0.01,0-0.01,0-0.02c0-0.02,0-0.04,0-0.06c0-0.01,0-0.01,0-0.02c0-0.05,0-0.1,0-0.15c0,0,0,0,0-0.01
		c0-0.02,0-0.04,0-0.07c0-0.01,0-0.01,0-0.02c0-0.02,0-0.04,0-0.06c0-0.01,0-0.01,0-0.01c0-0.02,0-0.05,0-0.07l0,0
		c0-0.05,0-0.1,0-0.15c0,0,0,0,0-0.01c0-0.02,0-0.05,0-0.07c0-0.01,0-0.01,0-0.01c0-0.02,0-0.04,0-0.07c0,0,0,0,0-0.01
		c0-0.08,0-0.15,0-0.23l0,0c0-0.02,0-0.05,0-0.07l0,0c-0.03-1.79-0.12-3.56-0.27-5.32l0,0c-0.01-0.08-0.01-0.15-0.02-0.23l0,0
		c0-0.02,0-0.05-0.01-0.07c0-0.01,0-0.01,0-0.02c0-0.02,0-0.04,0-0.06c0-0.01,0-0.01,0-0.02c0-0.02,0-0.04,0-0.06
		c0-0.01,0-0.01,0-0.02c0-0.02,0-0.05-0.01-0.07c0-0.01,0-0.01,0-0.02c0-0.02,0-0.03,0-0.05c0-0.01,0-0.02,0-0.03s0-0.03,0-0.04
		s0-0.02,0-0.03s0-0.02,0-0.03s0-0.03,0-0.04s0-0.02,0-0.03c0-0.03-0.01-0.06-0.01-0.09v-0.01c0-0.02,0-0.03,0-0.05
		c0-0.01,0-0.01,0-0.02c0-0.02,0-0.03,0-0.05c0-0.01,0-0.01,0-0.02c0-0.02,0-0.04-0.01-0.05c0,0,0,0,0-0.01
		c-0.06-0.61-0.12-1.21-0.19-1.82C858.54,460.72,856.39,458.76,853.91,458.76L853.91,458.76z M816.83,402.11
		c-1.81,0-3.56,1.05-4.45,2.88c-1.27,2.61-0.31,5.83,2.14,7.18c0.58,0.32,1.16,0.65,1.72,0.99c0.77,0.46,1.6,0.67,2.43,0.67
		c1.76,0,3.46-0.99,4.37-2.74c1.34-2.57,0.48-5.8-1.92-7.24c-0.22-0.13-0.44-0.26-0.67-0.39c-0.01,0-0.01-0.01-0.02-0.01
		s-0.02-0.01-0.03-0.02c-0.01-0.01-0.02-0.01-0.03-0.02c-0.01,0-0.02-0.01-0.03-0.02c-0.01-0.01-0.02-0.01-0.03-0.02
		c-0.01,0-0.02-0.01-0.02-0.01c-0.02-0.01-0.04-0.02-0.06-0.03h-0.01c-0.02-0.01-0.03-0.02-0.05-0.03c-0.01,0-0.01-0.01-0.02-0.01
		c-0.01-0.01-0.03-0.02-0.04-0.02c-0.01,0-0.01-0.01-0.02-0.01c-0.02-0.01-0.03-0.02-0.05-0.03c0,0,0,0-0.01-0.01
		c-0.04-0.02-0.08-0.05-0.12-0.07c0,0-0.01,0-0.01-0.01c-0.02-0.01-0.03-0.02-0.05-0.03c0,0-0.01,0-0.01-0.01
		c-0.02-0.01-0.04-0.02-0.06-0.03l0,0c-0.04-0.02-0.08-0.05-0.12-0.07l0,0c-0.02-0.01-0.04-0.02-0.06-0.03c0,0,0,0-0.01,0
		c-0.17-0.09-0.33-0.19-0.5-0.28C818.39,402.3,817.6,402.11,816.83,402.11L816.83,402.11z M784.93,393.87h-22.6
		c-2.76,0-5,2.39-5,5.33c0,2.94,2.24,5.33,5,5.33h22.6l0,0c3.74,0,7.49,0.34,11.14,1.02c0.29,0.05,0.58,0.08,0.86,0.08
		c2.39,0,4.5-1.83,4.92-4.42c0.47-2.9-1.35-5.66-4.07-6.16c-0.03-0.01-0.06-0.01-0.1-0.02l0,0c-0.03-0.01-0.06-0.01-0.1-0.02l0,0
		c-0.05-0.01-0.09-0.02-0.14-0.02h-0.01c-0.01,0-0.02,0-0.03-0.01c-0.01,0-0.02,0-0.02,0c-0.01,0-0.02,0-0.03-0.01
		c-0.01,0-0.01,0-0.02,0s-0.02,0-0.03-0.01c-0.01,0-0.02,0-0.03-0.01c-0.01,0-0.02,0-0.02,0c-0.01,0-0.03,0-0.04-0.01h-0.01
		c-0.02,0-0.03-0.01-0.05-0.01h-0.01c-0.01,0-0.03-0.01-0.04-0.01c-0.01,0-0.01,0-0.02,0s-0.03,0-0.04-0.01h-0.01
		c-0.01,0-0.03-0.01-0.05-0.01h-0.01c-0.08-0.01-0.15-0.03-0.23-0.04l0,0c-0.02,0-0.04-0.01-0.06-0.01l0,0
		c-3-0.51-6.06-0.82-9.17-0.94l0,0c-0.1,0-0.2-0.01-0.3-0.01l0,0c-0.02,0-0.04,0-0.06,0l0,0c-0.02,0-0.04,0-0.06,0l0,0
		c-0.06,0-0.12,0-0.18-0.01h-0.01c-0.01,0-0.03,0-0.05,0c-0.01,0-0.01,0-0.02,0c-0.02,0-0.03,0-0.04,0h-0.01c-0.02,0-0.04,0-0.05,0
		c0,0,0,0-0.01,0c-0.04,0-0.08,0-0.12,0l0,0c-0.02,0-0.04,0-0.06,0c0,0,0,0-0.01,0c-0.02,0-0.03,0-0.05,0h-0.01
		c-0.02,0-0.03,0-0.04,0c-0.01,0-0.01,0-0.01,0c-0.02,0-0.03,0-0.05,0h-0.01c-0.04,0-0.07,0-0.11,0h-0.01c-0.02,0-0.03,0-0.05,0
		h-0.01c-0.02,0-0.03,0-0.04,0c-0.01,0-0.01,0-0.02,0c-0.02,0-0.03,0-0.04,0h-0.01c-0.02,0-0.03,0-0.05,0h-0.01
		c-0.04,0-0.07,0-0.11,0c-0.01,0-0.01,0-0.02,0s-0.03,0-0.04,0c-0.01,0-0.01,0-0.02,0c-0.02,0-0.02,0-0.04,0c-0.01,0-0.01,0-0.02,0
		c-0.02,0-0.03,0-0.04,0h-0.01c-0.02,0-0.03,0-0.05,0h-0.01c-0.02,0-0.04,0-0.06,0h-0.01c-0.02,0-0.03,0-0.05,0
		c-0.01,0-0.01,0-0.02,0s-0.03,0-0.04,0c-0.01,0-0.01,0-0.02,0s-0.02,0-0.03,0s-0.02,0-0.03,0s-0.02,0-0.03,0s-0.01,0-0.02,0
		c-0.02,0-0.03,0-0.05,0h-0.01c-0.02,0-0.04,0-0.06,0c-0.01,0-0.01,0-0.02,0s-0.03,0-0.04,0c-0.01,0-0.01,0-0.02,0s-0.02,0-0.04,0
		c-0.01,0-0.01,0-0.02,0s-0.02,0-0.04,0c-0.01,0-0.01,0-0.02,0s-0.03,0-0.04,0c-0.01,0-0.01,0-0.02,0
		C784.97,393.87,784.95,393.87,784.93,393.87L784.93,393.87z"/>
</g>
<g>
	<path class="st46" d="M579.89,284.14h-1.48c-1.8,0-3.27-1.46-3.27-3.27c0-1.8,1.46-3.27,3.27-3.27h1.48c1.8,0,3.27,1.46,3.27,3.27
		C583.15,282.68,581.69,284.14,579.89,284.14z M532.7,284.14h-14.76c-0.25,0-0.5-0.03-0.74-0.08c-0.24,0.05-0.48,0.08-0.74,0.08
		h-45.71c-1.8,0-3.27-1.46-3.27-3.27c0-1.8,1.46-3.27,3.27-3.27h45.71c0.25,0,0.5,0.03,0.74,0.08c0.24-0.05,0.48-0.08,0.74-0.08
		h14.76c1.8,0,3.27,1.46,3.27,3.27S534.5,284.14,532.7,284.14z M456,284.14h-1.48c-1.8,0-3.27-1.46-3.27-3.27
		c0-1.8,1.46-3.27,3.27-3.27H456c1.8,0,3.27,1.46,3.27,3.27C459.26,282.68,457.8,284.14,456,284.14z M408.81,284.14h-14.76
		c-0.25,0-0.5-0.03-0.74-0.08c-0.24,0.05-0.48,0.08-0.74,0.08h-45.71c-1.8,0-3.27-1.46-3.27-3.27c0-1.8,1.46-3.27,3.27-3.27h45.71
		c0.25,0,0.5,0.03,0.74,0.08c0.24-0.05,0.48-0.08,0.74-0.08h14.76c1.8,0,3.27,1.46,3.27,3.27
		C412.08,282.68,410.61,284.14,408.81,284.14z M332.11,284.14h-1.48c-1.8,0-3.27-1.46-3.27-3.27c0-1.8,1.46-3.27,3.27-3.27h1.48
		c1.8,0,3.27,1.46,3.27,3.27C335.37,282.68,333.91,284.14,332.11,284.14z"/>
</g>
<linearGradient id="SVGID_4_" gradientUnits="userSpaceOnUse" x1="446.738" y1="-1376.1691" x2="446.738" y2="-1434.1882" gradientTransform="matrix(1 0 0 -1 0 -991.408)">
	<stop  offset="0" style="stop-color:#FFE9BF"/>
	<stop  offset="1" style="stop-color:#ED6E4F"/>
</linearGradient>
<polygon class="st14" points="430.43,424.4 463.04,424.4 463.04,399.06 430.43,399.06 "/>
<g>
	<path class="st111" d="M438.18,419.88h10.03c0.22,0,0.39-0.17,0.39-0.39s-0.17-0.39-0.39-0.39h-10.03c-0.22,0-0.39,0.17-0.39,0.39
		S437.96,419.88,438.18,419.88z"/>
</g>
<g>
	<path class="st111" d="M442.46,422.16h5.75c0.22,0,0.39-0.17,0.39-0.39c0-0.21-0.17-0.39-0.39-0.39h-5.75
		c-0.22,0-0.39,0.17-0.39,0.39C442.07,421.99,442.24,422.16,442.46,422.16z"/>
</g>
<linearGradient id="SVGID_5_" gradientUnits="userSpaceOnUse" x1="476.383" y1="-1350.0737" x2="476.383" y2="-1551.2264" gradientTransform="matrix(1 0 0 -1 0 -991.408)">
	<stop  offset="0" style="stop-color:#FFE9BF"/>
	<stop  offset="1" style="stop-color:#ED6E4F"/>
</linearGradient>
<polygon class="st15" points="448.78,424.32 503.98,424.32 503.98,382.24 448.78,382.24 "/>
<g>
	<path class="st111" d="M461.89,417.49h16.98c0.36,0,0.66-0.3,0.66-0.66s-0.29-0.66-0.66-0.66h-16.98c-0.36,0-0.66,0.3-0.66,0.66
		S461.53,417.49,461.89,417.49z"/>
</g>
<g>
	<path class="st111" d="M469.14,421.34h9.73c0.36,0,0.66-0.3,0.66-0.66c0-0.36-0.29-0.66-0.66-0.66h-9.73
		c-0.36,0-0.66,0.3-0.66,0.66C468.48,421.05,468.78,421.34,469.14,421.34z"/>
</g>
<rect x="492.53" y="385.83" class="st5" width="7.74" height="7.74"/>
<linearGradient id="SVGID_6_" gradientUnits="userSpaceOnUse" x1="514.7079" y1="-1373.5332" x2="514.7079" y2="-1487.3799" gradientTransform="matrix(1 0 0 -1 0 -991.408)">
	<stop  offset="0" style="stop-color:#FFE9BF"/>
	<stop  offset="1" style="stop-color:#ED6E4F"/>
</linearGradient>
<polygon class="st16" points="497.88,424.32 531.53,424.32 531.53,398.66 497.88,398.66 "/>
<g>
	<path class="st111" d="M505.88,420.14h10.35c0.22,0,0.4-0.18,0.4-0.4s-0.18-0.4-0.4-0.4h-10.35c-0.22,0-0.4,0.18-0.4,0.4
		C505.48,419.96,505.66,420.14,505.88,420.14z"/>
</g>
<g>
	<path class="st111" d="M510.3,422.49h5.93c0.22,0,0.4-0.18,0.4-0.4s-0.18-0.4-0.4-0.4h-5.93c-0.22,0-0.4,0.18-0.4,0.4
		C509.89,422.31,510.07,422.49,510.3,422.49z"/>
</g>
<rect x="524.55" y="400.85" class="st5" width="4.72" height="4.72"/>
<g>
	<path class="st114" d="M646.74,486.35l6.56,5.61c4.08,3.65,6.96,8.6,8.03,14.19C658.88,506.31,647.31,506.01,646.74,486.35z"/>
	
		<linearGradient id="SVGID_7_" gradientUnits="userSpaceOnUse" x1="5937.562" y1="-1438.158" x2="6402.1958" y2="-1438.158" gradientTransform="matrix(-1 0 0 -1 6530.647 -991.408)">
		<stop  offset="0" style="stop-color:#6BB75A"/>
		<stop  offset="1" style="stop-color:#06727E"/>
		<stop  offset="1" style="stop-color:#009D90"/>
	</linearGradient>
	<path class="st17" d="M416.85,413.96H548.7c3.73,0,6.76,3.03,6.76,6.76l9.38,58.82c-36.08-11.07-84.26-19.97-149.06-21.01
		l-5.69-37.8C410.1,416.98,413.12,413.96,416.85,413.96z"/>
</g>
<g>
	<path class="st12" d="M587.09,524.48h-15.5c-2.9,0-5.36-1.83-6.32-4.39h22.4C587.34,521.51,587.14,522.98,587.09,524.48z"/>
	<path class="st114" d="M564.84,479.53c30.19,9.26,51.43,20.04,65.6,29c-2.18,0-4.31,0-6.34,0c-2.42,0-4.7,0-6.7,0
		c-3.12-1.76-6.58-3.59-10.4-5.47c-10.78-5.32-24.41-11-41.23-16.25c-0.31-0.1-0.62-0.19-0.93-0.29
		c-33.3-10.3-80.25-19.82-147.68-19.82l-1.38-8.17C480.58,459.56,528.76,468.46,564.84,479.53z"/>
</g>
<linearGradient id="SVGID_8_" gradientUnits="userSpaceOnUse" x1="5864.2476" y1="-1468.2729" x2="6192.9556" y2="-1468.2729" gradientTransform="matrix(-1 0 0 -1 6530.647 -991.408)">
	<stop  offset="0" style="stop-color:#6BB75A"/>
	<stop  offset="1" style="stop-color:#06727E"/>
	<stop  offset="1" style="stop-color:#009D90"/>
</linearGradient>
<path class="st18" d="M559.34,445.2h5.94h28.81c1.68,0,4.87,0.09,6.52,1.75l46.14,39.4c0.57,19.66,12.14,19.96,14.6,19.8
	c0.04,0.19,0.06,0.38,0.1,0.57c-0.77,0.98-1.89,1.81-3.47,1.81c-2.01,0-15.34,0-27.53,0c-14.1-8.92-28.32-15.95-59.4-27.03
	l-6.19-1.97L559.34,445.2z"/>
<path class="st12" d="M599.68,452.13c0.62,0,1.79,0.03,2.4,0.64l19.36,16.54c1.92,1.72,3.12,4.21,3.12,6.98v1.3
	c0,2.03-1.64,3.67-3.67,3.67H584.5c-1.37,0-2.48-1.11-2.48-2.48l-4.96-24.16c0-1.37,1.11-2.48,2.48-2.48h20.14V452.13z"/>
<path class="st117" d="M632.69,485.42h0.86c0.6,0,1.09-0.49,1.09-1.09v-13.68c0-0.6-0.49-1.09-1.09-1.09h-0.86
	c-0.6,0-1.09,0.49-1.09,1.09v13.68C631.6,484.93,632.08,485.42,632.69,485.42z"/>
<path class="st117" d="M634.64,481.83c2.08,0,3.77-1.69,3.77-3.77s-1.69-3.77-3.77-3.77V481.83z"/>
<polygon class="st118" points="592.87,481.26 580.74,472.38 579.76,467.63 598.39,481.26 "/>
<polygon class="st118" points="604.81,481.26 578.62,461.97 577.42,456.12 612.13,481.26 "/>
<path class="st12" d="M430.49,508.53H563.3c3.66,0,43.31,0,42.99,0c0,0,50.48,0,51.67,0c1.58,0,2.7-0.83,3.47-1.81
	c0.23,1.38,0.37,2.8,0.37,4.25v11.43c0,3.73-3.03,6.76-6.76,6.76H436.06c-3.73,0-5.97-0.88-7.38-7.02l-2.54-13.4
	C426.14,505,426.76,508.53,430.49,508.53z"/>
<path class="st119" d="M564.84,486.52c0.31,0.1,0.62,0.19,0.93,0.29c16.83,5.25,30.45,10.93,41.23,16.25
	c3.81,1.88,7.28,3.72,10.4,5.47h-10.78c-2.16,0-9.18,4.12-13.71,11.04c-0.21,0.32-0.56,0.52-0.95,0.52l-24.53-0.05
	c-0.63,0-1.14-0.51-1.14-1.14c0-0.61-1.45-9.24-1.45-9.24c0-0.63-0.51-1.14-1.13-1.14H429.85c-4.36,0-7.03-3.53-7.03-7.89
	l-5.67-33.95C482.29,466.8,529.91,475.72,564.84,486.52z"/>
<path class="st117" d="M461.15,529.15h36.24c0-10.01-8.11-18.12-18.12-18.12S461.15,519.14,461.15,529.15z"/>
<path class="st117" d="M599.25,529.13h36.24c0-10.01-8.11-18.12-18.12-18.12C607.37,511.01,599.25,519.12,599.25,529.13z"/>
<circle class="st12" cx="617.38" cy="529.13" r="13.57"/>
<circle class="st117" cx="617.38" cy="529.13" r="9.37"/>
<circle class="st12" cx="617.38" cy="529.13" r="4.41"/>
<circle class="st12" cx="479.27" cy="529.47" r="13.09"/>
<circle class="st117" cx="479.27" cy="529.47" r="9.03"/>
<circle class="st12" cx="479.27" cy="529.47" r="4.25"/>
<linearGradient id="SVGID_9_" gradientUnits="userSpaceOnUse" x1="54.663" y1="-1188.5204" x2="54.663" y2="-1435.1235" gradientTransform="matrix(1 0 0 -1 0 -991.408)">
	<stop  offset="0" style="stop-color:#FAFDFF"/>
	<stop  offset="0.2042" style="stop-color:#E7F4F8"/>
	<stop  offset="0.4419" style="stop-color:#DAEEF2"/>
	<stop  offset="0.6975" style="stop-color:#D0EAEE"/>
	<stop  offset="1" style="stop-color:#CDE8ED"/>
</linearGradient>
<path class="st19" d="M68.91,155.58h-5.37c0-7.04-5.65-12.74-12.61-12.74s-12.61,5.7-12.61,12.74c0,0.06,0,0.11,0,0.17
	c-6.2,1.01-10.94,6.44-10.94,12.99l0,0c0,7.27,5.84,13.16,13.03,13.16h28.5c7.2,0,13.03-5.89,13.03-13.16l0,0
	C81.94,161.47,76.11,155.58,68.91,155.58z"/>
<circle class="st20" cx="811.82" cy="371.46" r="6.43"/>
<circle class="st51" cx="81.94" cy="212.09" r="5.86"/>
<path class="st51" d="M442.71,308.14l-7.01-0.03l0.04-7.89c0.01-1.3-1.44-2.37-3.23-2.38s-3.25,1.04-3.26,2.35l-0.04,7.89
	l-7.01-0.03c-1.79-0.01-3.25,1.44-3.26,3.23s1.44,3.25,3.23,3.26l7.01,0.03l-0.04,7.89c-0.01,1.3,1.44,2.37,3.23,2.38
	s3.25-1.04,3.26-2.35l0.04-7.89l7.01,0.03c1.79,0.01,3.25-1.44,3.26-3.23C445.94,309.61,444.5,308.15,442.71,308.14z"/>
<path class="st33" d="M726.53,497.42c-6.67,0-12.11-5.43-12.11-12.11s5.43-12.11,12.11-12.11s12.11,5.43,12.11,12.11
	C738.63,491.99,733.2,497.42,726.53,497.42z M726.53,478.64c-3.68,0-6.68,3-6.68,6.68s3,6.68,6.68,6.68s6.68-3,6.68-6.68
	S730.21,478.64,726.53,478.64z"/>
<path class="st33" d="M509.96,227.21H323.9c-17.13,0-31.02-13.89-31.02-31.02v-23c0-17.13,13.89-31.02,31.02-31.02h186.06
	c17.13,0,31.02,13.89,31.02,31.02v23C540.98,213.32,527.1,227.21,509.96,227.21z"/>
<g>
	<path class="st41" d="M337.84,200.98v-18.75l-4.3,4.38l-3.14-3.29l8.13-8.17h4.8v25.84h-5.49V200.98z"/>
	<path class="st41" d="M347.21,188.12c0-7.83,4.42-13.36,12.05-13.36c3.14,0,5.77,1.08,7.63,2.67l-2.48,4.22
		c-1.39-1.32-2.87-2.01-5.15-2.01c-3.8,0-6.47,3.22-6.47,7.32c0,0.19,0,0.35,0.04,0.54c1.2-1.74,3.8-3.33,6.62-3.33
		c4.65,0,8.79,2.91,8.79,8.41c0,5.04-3.99,8.87-9.88,8.87C350.5,201.44,347.21,195.4,347.21,188.12z M362.67,192.77
		c0-2.71-2.32-3.87-4.8-3.87c-1.94,0-3.8,0.89-5.04,2.44c0.23,2.48,1.63,5.23,5.23,5.23C361.04,196.56,362.67,194.59,362.67,192.77z
		"/>
	<path class="st41" d="M381.96,198.73l2.44-4.22c1.39,1.32,2.87,2.01,5.15,2.01c4.26,0,6.47-3.56,6.47-7.28c0-0.19,0-0.39,0-0.58
		c-1.24,1.74-3.83,3.33-6.66,3.33c-4.65,0-8.83-2.9-8.83-8.41c0-5.04,4.03-8.87,9.92-8.87c7.82,0,11.12,6.04,11.12,13.36
		c0,7.79-4.38,13.32-12.01,13.32C386.41,201.4,383.78,200.36,381.96,198.73z M395.98,184.86c-0.23-2.48-1.63-5.27-5.27-5.27
		c-2.94,0-4.57,2.01-4.57,3.8c0,2.71,2.36,3.87,4.76,3.87C392.84,187.26,394.74,186.37,395.98,184.86z"/>
	<path class="st41" d="M404.23,188.08c0-6.66,3.29-13.33,10.69-13.33c7.36,0,10.69,6.66,10.69,13.33c0,6.66-3.33,13.36-10.69,13.36
		C407.52,201.44,404.23,194.74,404.23,188.08z M419.99,188.08c0-4.77-1.39-8.44-5.07-8.44c-3.72,0-5.11,3.68-5.11,8.44
		c0,4.76,1.39,8.48,5.11,8.48C418.6,196.56,419.99,192.84,419.99,188.08z"/>
	<path class="st41" d="M428.24,188.08c0-6.66,3.29-13.33,10.69-13.33c7.36,0,10.69,6.66,10.69,13.33c0,6.66-3.33,13.36-10.69,13.36
		C431.53,201.44,428.24,194.74,428.24,188.08z M444.01,188.08c0-4.77-1.39-8.44-5.07-8.44c-3.72,0-5.11,3.68-5.11,8.44
		c0,4.76,1.39,8.48,5.11,8.48C442.61,196.56,444.01,192.84,444.01,188.08z"/>
	<path class="st41" d="M458.3,198.58v9.53h-4.92v-25.84h4.92v2.36c1.43-1.82,3.49-2.83,5.77-2.83c4.8,0,8.29,3.56,8.29,9.8
		s-3.49,9.84-8.29,9.84C461.86,201.44,459.81,200.51,458.3,198.58z M467.25,191.6c0-3.22-1.9-5.42-4.73-5.42
		c-1.59,0-3.41,0.93-4.22,2.13v6.62c0.81,1.16,2.63,2.13,4.22,2.13C465.35,197.07,467.25,194.86,467.25,191.6z"/>
	<path class="st41" d="M485.3,198.27c0-1.7,1.39-3.14,3.1-3.14c1.7,0,3.14,1.43,3.14,3.14c0,1.67-1.43,3.1-3.14,3.1
		C486.69,201.36,485.3,199.93,485.3,198.27z M486.22,192.57l-0.81-17.43h5.93l-0.77,17.43H486.22z"/>
</g>
<path class="st0" d="M358.38,419.19h-58.12v-37.72c0-2.73,2.21-4.94,4.94-4.94h53.18c2.25,0,3.6,2.48,2.39,4.37l-9.9,15.42
	c-0.6,0.93-0.6,2.13,0,3.07l9.9,15.42C361.98,416.71,360.62,419.19,358.38,419.19z"/>
<path class="st0" d="M70.24,376.53h55.91c2.73,0,4.94,2.21,4.94,4.94v39.67H70.24c-2.32,0-3.72-2.57-2.47-4.52l10.4-16.21
	c0.62-0.97,0.62-2.2,0-3.17l-10.4-16.21C66.52,379.1,67.92,376.53,70.24,376.53z"/>
<path class="st0" d="M353.05,439.29l19.92,26.44c3.85,5.11,0.2,12.42-6.19,12.42l-12.7-7.83l-13.22-1.51l-17.43-7.86l16.99-21.33
	C343.39,435.2,349.84,435.03,353.05,439.29z"/>
<path class="st0" d="M355.7,461.45l30.23,33.1c5.84,6.4,0.31,15.55-9.4,15.55h-21.06c0,0,3.3-27.83-0.7-40.47
	c-4.03-12.71-15.36-10.24-14.68-10.59C345.05,456.5,351.89,457.28,355.7,461.45z"/>
<path class="st0" d="M356.97,478.52l35.15,46.67c6.79,9.02-2.31,3.84-1.54,3.09l-2.26-2.26l-7.24-0.74c0,0-22.83,4.32-25.56,0.74
	c-0.98-1.29,0.03-10.81,0-12.82c-0.32-20.68-1.53-36.48,0-37.22C361.14,473.3,352.86,473.06,356.97,478.52z"/>
<path class="st0" d="M44.75,498.02h51.53v-24.6l-17.82-21.44c-3.06-3.69-8.72-3.69-11.78,0l-27.82,33.48
	C34.71,490.45,38.26,498.02,44.75,498.02z"/>
<path class="st0" d="M37.95,532.48h18.78c4.02,0,23.85-0.98,33.34-4.22c9.59-3.28,8.8-8.83,6.21-11.95L96,494.57l-16.1-19.38
	c-3.81-4.59-10.85-4.59-14.66,0l-34.62,41.66C25.46,523.06,29.87,532.48,37.95,532.48z"/>
<path class="st46" d="M142.37,523.47H71.83v-61.8c0-2.88,2.34-5.22,5.22-5.22h65.32V523.47z"/>
<path class="st0" d="M287.47,529.15h-145.1V419.77c0-2.88,2.34-5.22,5.22-5.22h134.66c2.88,0,5.22,2.34,5.22,5.22V529.15z"/>
<path class="st46" d="M259.61,283h-89.38c-2.25,0-4.07,1.82-4.07,4.07v127.48h97.52V287.07C263.68,284.82,261.86,283,259.61,283z"/>
<path class="st46" d="M358.01,523.47h-70.54v-67.01h65.32c2.88,0,5.22,2.34,5.22,5.22V523.47z"/>
<path class="st46" d="M127.29,376.53h-13.71v83.44h17.68v-79.46C131.26,378.31,129.48,376.53,127.29,376.53z"/>
<path class="st46" d="M317.17,376.53h-12.93c-2.2,0-3.98,1.78-3.98,3.98v77.08h16.91V376.53z"/>
<path class="st0" d="M211.73,157.18L160.25,283.7c-1.43,3.51,1.15,7.34,4.94,7.34h98.85c3.82,0,6.4-3.9,4.91-7.41l-53.64-126.46
	C214.82,155.32,212.2,155.33,211.73,157.18z"/>
<path class="st0" d="M215.3,99l5.99,12.14c0.45,0.91,1.32,1.54,2.32,1.69l13.39,1.95c2.53,0.37,3.54,3.47,1.71,5.26l-9.69,9.45
	c-0.73,0.71-1.06,1.73-0.89,2.73l2.29,13.34c0.43,2.52-2.21,4.44-4.47,3.25l-11.98-6.3c-0.9-0.47-1.97-0.47-2.87,0l-11.98,6.3
	c-2.26,1.19-4.9-0.73-4.47-3.25l2.29-13.34c0.17-1-0.16-2.02-0.89-2.73l-9.69-9.45c-1.83-1.78-0.82-4.89,1.71-5.26l13.39-1.95
	c1-0.15,1.87-0.78,2.32-1.69L209.77,99C210.9,96.71,214.17,96.71,215.3,99z"/>
<path class="st0" d="M400.9,523.47H24.05c-4.01,0-7.25,3.25-7.25,7.25v18.09c0,4.01,3.25,7.25,7.25,7.25h376.86
	c4.01,0,7.25-3.25,7.25-7.25v-18.09C408.16,526.72,404.91,523.47,400.9,523.47z"/>
<path class="st0" d="M263.26,313.66h-96.01c-1.69,0-3.06-1.37-3.06-3.06v-1.49c0-1.69,1.37-3.06,3.06-3.06h96.01
	c1.69,0,3.06,1.37,3.06,3.06v1.49C266.33,312.29,264.96,313.66,263.26,313.66z"/>
<circle class="st0" cx="214.92" cy="350.63" r="29.71"/>
<circle class="st23" cx="215.31" cy="350.63" r="21.96"/>
<path class="st0" d="M224.91,343.9l0.51,0.51c0.58,0.58,0.58,1.53,0,2.11l-9.05,9.05c-0.58,0.58-1.53,0.58-2.11,0l-0.51-0.51
	c-0.58-0.58-0.58-1.53,0-2.11l9.05-9.05C223.38,343.31,224.33,343.31,224.91,343.9z"/>
<path class="st0" d="M201.17,340.46l0.49-0.49c0.56-0.56,1.47-0.56,2.03,0l13.13,13.13c0.56,0.56,0.56,1.47,0,2.03l-0.49,0.49
	c-0.56,0.56-1.47,0.56-2.03,0l-13.13-13.13C200.61,341.92,200.61,341.02,201.17,340.46z"/>
<linearGradient id="SVGID_10_" gradientUnits="userSpaceOnUse" x1="691.1977" y1="-1290.3861" x2="691.1977" y2="-1101.1805" gradientTransform="matrix(1 0 0 -1 0 -991.408)">
	<stop  offset="0" style="stop-color:#ECF6FB;stop-opacity:0.1"/>
	<stop  offset="0.146" style="stop-color:#E1F1F7;stop-opacity:0.2314"/>
	<stop  offset="0.4086" style="stop-color:#D2EAF1;stop-opacity:0.4678"/>
	<stop  offset="0.6859" style="stop-color:#C8E6EE;stop-opacity:0.7173"/>
	<stop  offset="1" style="stop-color:#C4E5ED"/>
</linearGradient>
<path class="st21" d="M801.42,221.47v-27.29c0-1.87-1.46-3.39-3.27-3.39h-42.69c-1.81,0-3.27,1.52-3.27,3.39v44.04
	c0,1.87-1.46,3.39-3.27,3.39h-45.66c-1.81,0-3.27-1.52-3.27-3.39V120.96c0-1.87-1.46-3.39-3.27-3.39h-17.53
	c-1.81,0-3.27,1.52-3.27,3.39v93.93c0,1.87-1.46,3.39-3.27,3.39h-21.86c-1.81,0-3.27,1.52-3.27,3.39v4.73
	c0,1.87-1.46,3.39-3.27,3.39h-27.81c-1.81,0-3.27-1.52-3.27-3.39v-53.32c0-1.87-1.46-3.39-3.27-3.39h-27.27
	c-1.81,0-3.27,1.52-3.27,3.39v53.32c0,1.87-1.46,3.39-3.27,3.39h-11.96c-11.91,0-21.56,9.65-21.56,21.56l0,0
	c0,11.91,9.65,21.56,21.56,21.56h15.22h29.75h4.06h34.35h3.17h25.23h1.08h19.47h3.52h52.2h4.6h33.54h11.09h14.38
	c13.27,0,24.03-10.76,24.03-24.03l0,0c0-13.27-10.76-24.03-24.03-24.03h-11.11C802.88,224.86,801.42,223.34,801.42,221.47z"/>
<path class="st0" d="M785.29,253.03h-87.11c-2.76,0-5,2.24-5,5v42.17c0,2.76,2.24,5,5,5h87.11c2.76,0,5-2.24,5-5v-42.17
	C790.29,255.27,788.05,253.03,785.29,253.03z"/>
<circle class="st0" cx="741.44" cy="167.46" r="5.84"/>
<polyline class="st0" points="751.02,204.32 749.1,224.63 741.44,223.86 "/>
<line class="st42" x1="753.57" y1="194.18" x2="755.37" y2="197.62"/>
<path class="st0" d="M781.85,220.3v12.88c0,1.78-1.44,3.22-3.22,3.22h-0.9c-2.27,0-4.12-1.84-4.12-4.12v-10.87"/>
<path class="st0" d="M783.82,180.32v22.63h-7.4l-5.23-8.48l-4.22,17.13l11.27,1.2c2.05,0.22,3.61,1.95,3.61,4.02v4.61h-9.23h-11.3
	l6.97,16.86l2.64,14.76h-8.31l-2.4-13.4l-9.73-15.39l-2.56,0.83l-8.96,9.2c-1.73,1.77-2.3,4.37-1.49,6.71l4.22,12.06h-8.61
	l-5.72-14.22c-0.62-1.55-0.69-3.27-0.19-4.86l0.9-2.84l12.91-5.88l1.5-14.88l-11.06-6.01c-4.11-2.24-6.03-7.1-4.55-11.54l5.21-15.62
	c0.94-2.82,4.13-4.18,6.82-2.91l0,0c1.73,0.82,14.18,18.23,14.18,18.23l-0.35,4.76l-10.91-10.5v6.06v7.04l9.2,4.46l9.59,17.1
	l-39.93,11.15l-2.37,2.43c-1.28,1.31-1.71,3.24-1.1,4.97l4.56,13.05h-8.61l-5.57-13.86c-0.72-1.8-0.89-3.77-0.47-5.66
	c-3.49-13.52-2.91-23.82,6.05-27.51l14.2-2.99"/>
<path class="st0" d="M690.65,225.85l22.52-19.86c0,0-27.78-8.3-25.81,18.5C687.48,226.13,689.42,226.94,690.65,225.85z"/>
<path class="st0" d="M755.37,192.74c0,0,16.98-25.4,33.6-12.16"/>
<path class="st41" d="M529.86,450.07c0-11.7,10.86-14.19,10.86-14.19c-10.9,0-10.8-12.67-10.8-12.67s-0.41,13.21-12.36,13.21
	C524.6,436.42,529.86,442.92,529.86,450.07z"/>
<path class="st41" d="M513.8,453c0-3.72,3.45-4.51,3.45-4.51c-3.46,0-3.43-4.02-3.43-4.02s-0.13,4.19-3.93,4.19
	C512.13,448.66,513.8,450.73,513.8,453z"/>
<path class="st41" d="M546.25,425.96c0-1.51,1.4-1.83,1.4-1.83c-1.41,0-1.4-1.64-1.4-1.64s-0.05,1.71-1.6,1.71
	C545.57,424.2,546.25,425.04,546.25,425.96z"/>
<path class="st33" d="M566.33,359.57l-7.37,2.89l-0.99-2.51c-0.8-2.03,0.21-4.33,2.24-5.13l0,0c2.03-0.8,4.33,0.21,5.13,2.24
	L566.33,359.57z"/>
<path class="st33" d="M574.56,391.05L574.56,391.05c-0.7,0.27-1.49-0.07-1.77-0.77l-16.18-41.3l2.54-0.99l16.18,41.3
	C575.6,389.99,575.26,390.78,574.56,391.05z"/>
<path class="st33" d="M560.96,351.25l-3.7,1.45c-1.01,0.4-2.15-0.1-2.55-1.11l0,0c-0.4-1.01,0.1-2.15,1.11-2.55l3.7-1.45
	c1.01-0.4,2.15,0.1,2.55,1.11l0,0C562.47,349.71,561.97,350.85,560.96,351.25z"/>
<path class="st33" d="M558.58,352.18l-6.56,4.42c-3.08,2.07-7.28,0.76-8.63-2.69l0,0l13.76-5.39L558.58,352.18z"/>
<line class="st87" x1="522.83" y1="360.34" x2="511.05" y2="363.46"/>
<line class="st87" x1="542.39" y1="358.24" x2="523.96" y2="372.13"/>
<line class="st87" x1="545.05" y1="359.48" x2="528.82" y2="386.01"/>
<circle class="st44" cx="520.14" cy="375" r="0.76"/>
<circle class="st44" cx="526.29" cy="359.4" r="0.76"/>
<line class="st87" x1="540.31" y1="355.57" x2="529.52" y2="358.43"/>
<path class="st88" d="M587.59,388.34l-10.67-20.14c-1.98-3.74-5.95-5.8-9.98-5.49l-1.15-2.93l-6.09,2.39l1.2,3.07
	c-2.87,2.5-4.23,6.47-3.26,10.35l5.53,22.16c1.52,6.08,8.04,9.45,13.88,7.16l5.14-2.01C587.98,400.62,590.5,393.83,587.59,388.34z"
	/>
<path class="st89" d="M582.2,402.88l-5.14,2.01c-5.84,2.29-12.36-1.08-13.88-7.16l-1.76-7.06l22.63-9.02l3.54,6.69
	C590.5,393.83,587.98,400.62,582.2,402.88z"/>
</svg>
