<svg id="Layer_1" data-name="Layer 1" xmlns="http://www.w3.org/2000/svg" xmlns:xlink="http://www.w3.org/1999/xlink" viewBox="0 0 910 567"><defs><style>.cls-1{fill:url(#linear-gradient);}.cls-2{fill:#c4e5ed;}.cls-3{fill:#d9eef3;}.cls-4{fill:#eff7fb;}.cls-5{fill:#d0eaf3;}.cls-6{fill:#d6edf4;}.cls-7{fill:#fff;}.cls-8{fill:#fbcca3;}.cls-9{fill:#fcd5b7;}.cls-10{fill:url(#linear-gradient-2);}.cls-11{fill:#f7b394;}.cls-12{fill:url(#linear-gradient-3);}.cls-13{fill:#62a4c0;}.cls-14{fill:#4195b7;}.cls-15{fill:#c7e6ee;}.cls-16{fill:url(#linear-gradient-4);}.cls-17{fill:#046b89;}.cls-18{fill:url(#linear-gradient-5);}.cls-19{fill:url(#linear-gradient-6);}.cls-20{fill:url(#linear-gradient-7);}.cls-21{fill:#fcd3b5;}.cls-22{fill:url(#linear-gradient-8);}.cls-23{fill:url(#linear-gradient-9);}.cls-24{fill:url(#linear-gradient-10);}.cls-25{fill:#1d627e;}.cls-26{fill:#f18675;}.cls-27{fill:#008f7f;}.cls-28{fill:#a8dae3;}.cls-29{fill:url(#linear-gradient-11);}.cls-30{fill:url(#linear-gradient-12);}.cls-31{fill:url(#linear-gradient-13);}.cls-32{fill:url(#linear-gradient-14);}.cls-33{fill:#3b85a9;}.cls-34{fill:#f18775;}.cls-35{fill:#5bb24c;}.cls-36{fill:#fab854;}.cls-37{fill:#43ae5d;}.cls-38{fill:#a5d2d9;}</style><linearGradient id="linear-gradient" x1="339.11" y1="-236.34" x2="1167.87" y2="681.28" gradientTransform="matrix(1, 0, 0, -1, 0, 378.68)" gradientUnits="userSpaceOnUse"><stop offset="0" stop-color="#ecf6fb" stop-opacity="0.1"/><stop offset="0.06" stop-color="#e7f4fa" stop-opacity="0.15"/><stop offset="0.34" stop-color="#d9eef4" stop-opacity="0.41"/><stop offset="0.64" stop-color="#d1eaf1" stop-opacity="0.68"/><stop offset="1" stop-color="#cde9f0"/></linearGradient><linearGradient id="linear-gradient-2" x1="1477.61" y1="-269.38" x2="1477.61" y2="368.28" gradientTransform="translate(1669.92 378.68) rotate(180)" gradientUnits="userSpaceOnUse"><stop offset="0" stop-color="#ffe9bf"/><stop offset="1" stop-color="#ed6e4f"/></linearGradient><linearGradient id="linear-gradient-3" x1="1576.48" y1="-224.94" x2="1576.48" y2="105.39" xlink:href="#linear-gradient-2"/><linearGradient id="linear-gradient-4" x1="1553.82" y1="-131.42" x2="1553.82" y2="-82.35" gradientTransform="translate(1669.92 378.68) rotate(180)" gradientUnits="userSpaceOnUse"><stop offset="0" stop-color="#4195b7"/><stop offset="1" stop-color="#62a4c0"/></linearGradient><linearGradient id="linear-gradient-5" x1="718.33" y1="183.76" x2="672.98" y2="153.6" gradientTransform="matrix(1, 0, 0, -1, 0, 378.68)" gradientUnits="userSpaceOnUse"><stop offset="0" stop-color="#1d627e"/><stop offset="1" stop-color="#6495b4"/></linearGradient><linearGradient id="linear-gradient-6" x1="746.57" y1="143.47" x2="688.55" y2="155.9" xlink:href="#linear-gradient-5"/><linearGradient id="linear-gradient-7" x1="693.2" y1="181.4" x2="679.38" y2="157.22" xlink:href="#linear-gradient-5"/><linearGradient id="linear-gradient-8" x1="725.73" y1="392.93" x2="702.4" y2="379.11" gradientTransform="matrix(1.06, -0.2, -0.19, -0.99, 21.73, 740.81)" xlink:href="#linear-gradient-5"/><linearGradient id="linear-gradient-9" x1="701.34" y1="148.95" x2="701.34" y2="129.31" gradientTransform="matrix(1, 0, 0, -1, 0, 378.68)" gradientUnits="userSpaceOnUse"><stop offset="0" stop-color="#ee7162"/><stop offset="1" stop-color="#fbcda9"/></linearGradient><linearGradient id="linear-gradient-10" x1="667.26" y1="153.6" x2="675.89" y2="129.34" xlink:href="#linear-gradient-9"/><linearGradient id="linear-gradient-11" x1="2854.59" y1="188.83" x2="2851.08" y2="173.82" gradientTransform="matrix(1, 0, 0, -1, -2301.63, 378.68)" xlink:href="#linear-gradient-5"/><linearGradient id="linear-gradient-12" x1="2970.02" y1="315.47" x2="2979.12" y2="285.38" gradientTransform="matrix(0.99, 0.13, 0.13, -0.99, -2426.83, 92.89)" xlink:href="#linear-gradient-5"/><linearGradient id="linear-gradient-13" x1="3139.61" y1="588.42" x2="3161.79" y2="566.24" gradientTransform="matrix(0.92, 0.4, 0.4, -0.92, -2567.11, -531.78)" xlink:href="#linear-gradient-5"/><linearGradient id="linear-gradient-14" x1="3250.87" y1="911.5" x2="3268.99" y2="893.38" gradientTransform="matrix(0.77, 0.63, 0.63, -0.77, -2533.14, -1187.48)" xlink:href="#linear-gradient-5"/></defs><title>СПБакциии [Recovered]</title><path class="cls-1" d="M861.85,406.75a258.47,258.47,0,0,0,28.21-117.87c0-138.65-108.32-251.55-243.57-256a84.82,84.82,0,0,0-135,12.83,128.41,128.41,0,0,0-22.93-2.06c-62.87,0-115.27,45.56-127,106-198,41.56-346.39,212.94-346.39,418.07h879A416.82,416.82,0,0,0,861.85,406.75Z"/><circle class="cls-2" cx="824.86" cy="149.75" r="47.83"/><circle class="cls-3" cx="434.21" cy="346.01" r="14.55"/><circle class="cls-3" cx="437.57" cy="326.65" r="8.92"/><circle class="cls-3" cx="448.76" cy="320.27" r="5.4"/><path class="cls-2" d="M380.57,321.25s-25.67.68-20.32-35.85S375,315.91,380.57,321.25Z"/><path class="cls-2" d="M382.3,320.93s16.12,8.26,23.85-16.6S387.44,319.22,382.3,320.93Z"/><path class="cls-2" d="M385.69,325.51s-30-16.43-12.58-69.9S394.61,309.33,385.69,325.51Z"/><path class="cls-2" d="M380.62,316.35s17.17-57.84,22.12-41.72-10.45,40.07-16.76,45S380.62,316.35,380.62,316.35Z"/><circle class="cls-3" cx="419.67" cy="346.48" r="10.32"/><circle class="cls-4" cx="825.49" cy="149.75" r="35.35"/><path class="cls-5" d="M841.35,139.33h0a3,3,0,0,1,0,4.22L827.6,157.3a3,3,0,0,1-4.22,0h0a3,3,0,0,1,0-4.22l13.75-13.75A3,3,0,0,1,841.35,139.33Z"/><path class="cls-3" d="M383.78,373.49h-.49A17.49,17.49,0,0,1,365.8,356V314.73h35.47V356A17.49,17.49,0,0,1,383.78,373.49Z"/><path class="cls-2" d="M429.18,373.12h-.49a17.49,17.49,0,0,1-17.49-17.49v-3.11h35.47v3.11A17.5,17.5,0,0,1,429.18,373.12Z"/><path class="cls-6" d="M66.22,153.18a2.42,2.42,0,0,1-1.78-4.05l35.74-38.79a2.41,2.41,0,1,1,3.55,3.27L68,152.4A2.38,2.38,0,0,1,66.22,153.18Z"/><path class="cls-6" d="M137.7,153.18a2.41,2.41,0,0,1-1.78-.78l-35.74-38.79a2.41,2.41,0,0,1,3.55-3.27l35.74,38.79a2.42,2.42,0,0,1-.14,3.41A2.38,2.38,0,0,1,137.7,153.18Z"/><path class="cls-6" d="M132.42,226.88H72.84a10,10,0,0,1-10-10V150.52a10,10,0,0,1,10-10h59.57a10,10,0,0,1,10,10v66.36A10,10,0,0,1,132.42,226.88Z"/><path class="cls-4" d="M120.26,212.8H85a8.73,8.73,0,0,1-8.73-8.73V164.32A8.73,8.73,0,0,1,85,155.59h35.25a8.73,8.73,0,0,1,8.73,8.73v39.75A8.72,8.72,0,0,1,120.26,212.8Z"/><path class="cls-6" d="M102,114.4a7.55,7.55,0,1,1,7.13-7.54A7.35,7.35,0,0,1,102,114.4Zm0-10.25a2.74,2.74,0,1,0,2.31,2.71A2.54,2.54,0,0,0,102,104.15Z"/><path class="cls-5" d="M394.79,73.24a2.3,2.3,0,0,1-2.3-2.3V1.71h4.61V70.93A2.32,2.32,0,0,1,394.79,73.24Z"/><path class="cls-5" d="M379.78,181.53a2.24,2.24,0,0,1,2.12-3.63,53.12,53.12,0,0,0,25.48-1.62,2.24,2.24,0,1,1,1.35,4.27,57.51,57.51,0,0,1-27.64,1.75A2.23,2.23,0,0,1,379.78,181.53Zm-43.62-67.09a2.25,2.25,0,0,1-.45-2,57.31,57.31,0,0,1,7.22-17.11,2.24,2.24,0,0,1,3.79,2.39,52.36,52.36,0,0,0-6.66,15.76,2.24,2.24,0,0,1-2.7,1.65A2.16,2.16,0,0,1,336.16,114.44Zm86.08,57.3-.08-.1a2.24,2.24,0,0,1,.48-3.13c.81-.59,1.61-1.22,2.38-1.86a52.79,52.79,0,0,0-59.84-86.52A2.24,2.24,0,1,1,363,76.24a57.11,57.11,0,0,1,72.58,13.24h0a57.34,57.34,0,0,1-7.66,80.63c-.83.69-1.7,1.37-2.57,2A2.26,2.26,0,0,1,422.24,171.74Z"/><circle class="cls-6" cx="394.38" cy="125.93" r="26.81"/><path class="cls-6" d="M486.19,557.77H352.12a10,10,0,0,1-10-10V379a10,10,0,0,1,10-10H486.19a10,10,0,0,1,10,10V547.76A10,10,0,0,1,486.19,557.77Z"/><path class="cls-4" d="M469,427.7H368.42a10,10,0,0,1-10-10V400a10,10,0,0,1,10-10H469a10,10,0,0,1,10,10V417.7A10,10,0,0,1,469,427.7Z"/><path class="cls-4" d="M470.31,485.18H369.75a10,10,0,0,1-10-10V457.45a10,10,0,0,1,10-10H470.31a10,10,0,0,1,10,10v17.73A10,10,0,0,1,470.31,485.18Z"/><path class="cls-4" d="M469.44,542.71H368.88a10,10,0,0,1-10-10V515a10,10,0,0,1,10-10H469.44a10,10,0,0,1,10,10v17.73A10,10,0,0,1,469.44,542.71Z"/><circle class="cls-6" cx="418.22" cy="410.31" r="6.9"/><circle class="cls-6" cx="418.7" cy="468.45" r="6.9"/><circle class="cls-6" cx="418.7" cy="525.2" r="6.9"/><rect class="cls-7" x="597.02" y="233.26" width="13.52" height="50.19" transform="translate(15.25 549.78) rotate(-49.51)"/><rect class="cls-7" x="713.21" y="265.85" width="12.07" height="44.8" transform="translate(139.77 802.65) rotate(-63.43)"/><circle class="cls-7" cx="741.01" cy="299.59" r="6.65"/><rect class="cls-7" x="640.61" y="252.03" width="13.52" height="50.19" transform="translate(292.72 885.49) rotate(-82.93)"/><rect class="cls-7" x="653.39" y="265.83" width="13.52" height="25.77" transform="translate(302.35 899.56) rotate(-82.93)"/><circle class="cls-7" cx="621.39" cy="273.68" r="6.78"/><polygon class="cls-8" points="716.01 452.74 692.14 452.74 692.14 364.91 715.26 364.79 716.01 452.74"/><rect class="cls-8" x="661.61" y="364.91" width="23.86" height="88.27"/><circle class="cls-8" cx="704.07" cy="452.71" r="11.93"/><polygon class="cls-9" points="704.07 550.78 691.94 550.78 692.14 452.74 716.01 452.74 704.07 550.78"/><polygon class="cls-9" points="685.27 550.78 673.54 550.78 661.61 453.18 685.47 453.18 685.27 550.78"/><circle class="cls-9" cx="673.54" cy="453.18" r="11.93"/><circle class="cls-7" cx="673.02" cy="279.7" r="8.42"/><path class="cls-7" d="M732.61,482.22l-22.74-140a14.6,14.6,0,0,0-6.85-8,8.41,8.41,0,0,0,5.41-6.47l3.18-27.52a24.26,24.26,0,0,0,1-7c0-.5,0-1,0-1.49a7.42,7.42,0,0,0-.44-3.4,24.59,24.59,0,0,0-48.45,1.82c0,.11,0,.21,0,.32a24.92,24.92,0,0,0-.16,2.75,24.58,24.58,0,0,0,1.23,7.66l3.21,26.93a8.51,8.51,0,0,0,5.74,6.49,14.53,14.53,0,0,0-6.7,8.1l-21.54,140a14.6,14.6,0,0,0,13.67,19.32H719A14.59,14.59,0,0,0,732.61,482.22Z"/><path class="cls-7" d="M763.22,475.87c0,29.39-138.85,29.39-138.85,0l20-104.81a44.29,44.29,0,0,1,43.51-36h0a44.29,44.29,0,0,1,42.41,31.5Z"/><polygon class="cls-6" points="707.89 338.47 668.66 338.47 668.66 330.12 707.82 330.32 707.89 338.47"/><path class="cls-8" d="M688.21,283a13.93,13.93,0,0,0,13.3-10.16,24.82,24.82,0,0,0-13.6-4,24.08,24.08,0,0,0-13.08,3.73A13.87,13.87,0,0,0,688.21,283Z"/><path class="cls-9" d="M688.21,283a13.93,13.93,0,0,0,13.3-10.16,24.88,24.88,0,0,0-13.6-4,23.92,23.92,0,0,0-13.08,3.73A13.87,13.87,0,0,0,688.21,283Z"/><path class="cls-9" d="M571.6,242.07a11.69,11.69,0,0,1,23.37.11Z"/><path class="cls-6" d="M687.51,283c-10.49-.73-12.68-10.44-12.68-10.44s-5.77,6-.25,11.5S687.51,283,687.51,283Z"/><path class="cls-6" d="M688.82,283a13.91,13.91,0,0,0,12.68-10.16s5.77,6,.25,11.48S688.82,283,688.82,283Z"/><circle class="cls-6" cx="688.17" cy="288.63" r="1.82"/><circle class="cls-6" cx="688.17" cy="298.45" r="1.82"/><polygon class="cls-10" points="134.56 557.65 250.06 557.65 250.06 466.91 134.56 466.91 134.56 557.65"/><path class="cls-11" d="M205,540.65h35.53a1.38,1.38,0,0,0,0-2.76H205a1.38,1.38,0,0,0,0,2.76Z"/><path class="cls-11" d="M220.17,548.72h20.36a1.38,1.38,0,1,0,0-2.76H220.17a1.38,1.38,0,1,0,0,2.76Z"/><polygon class="cls-12" points="52.32 557.77 134.56 557.77 134.56 491.59 52.32 491.59 52.32 557.77"/><rect class="cls-11" x="116.59" y="498.72" width="11.9" height="11.9"/><path class="cls-11" d="M102.67,544.08h26.49a1,1,0,1,0,0-2.06H102.67a1,1,0,0,0,0,2.06Z"/><path class="cls-11" d="M114,549.72h15.18a1,1,0,1,0,0-2.06H114a1,1,0,0,0,0,2.06Z"/><rect class="cls-11" x="226.08" y="474.43" width="16.19" height="16.19"/><rect class="cls-7" x="707.04" y="315.5" width="45.32" height="12.07" transform="translate(99.65 810.29) rotate(-61.58)"/><path class="cls-9" d="M706.52,338.52a10.43,10.43,0,0,1,16.23,13.1Z"/><path class="cls-13" d="M97.62,449.24V430a2.31,2.31,0,0,1,3.94-1.63l7.43,7.43a2.29,2.29,0,0,1,.11,3.14l-7.43,11.84A2.31,2.31,0,0,1,97.62,449.24Z"/><path class="cls-13" d="M134.58,449.24V430a2.31,2.31,0,0,0-3.94-1.63l-7.43,7.43a2.29,2.29,0,0,0-.11,3.14l7.43,11.84A2.31,2.31,0,0,0,134.58,449.24Z"/><path class="cls-14" d="M120.71,491.58H90a13.87,13.87,0,0,1-13.87-13.87v-9.22A13.87,13.87,0,0,1,90,454.62h30.76a13.87,13.87,0,0,1,13.87,13.87v9.22A13.87,13.87,0,0,1,120.71,491.58Z"/><path class="cls-15" d="M100,454.7V435.43A2.31,2.31,0,0,1,104,433.8l7.43,7.43a2.29,2.29,0,0,1,.11,3.14l-7.43,11.84A2.31,2.31,0,0,1,100,454.7Z"/><path class="cls-14" d="M92.14,491.58c-6.68,0-17.76-1.22-25.89-8.29-6.55-5.69-9.87-13.9-9.87-24.39a4.41,4.41,0,0,1,8.82,0c0,7.82,2.29,13.78,6.81,17.72,9.09,7.93,24.56,5.92,24.72,5.9A4.41,4.41,0,0,1,98,491.25,47.69,47.69,0,0,1,92.14,491.58Z"/><path class="cls-15" d="M132.21,454.85V435.58a2.31,2.31,0,0,0-3.94-1.63l-7.43,7.43a2.29,2.29,0,0,0-.11,3.14l7.43,11.84A2.3,2.3,0,0,0,132.21,454.85Z"/><path class="cls-16" d="M134.58,447.14v30.72a13.87,13.87,0,0,1-13.87,13.87h-9.22a13.87,13.87,0,0,1-13.87-13.87V447.14a13.87,13.87,0,0,1,13.87-13.87h9.22A13.88,13.88,0,0,1,134.58,447.14Z"/><path class="cls-13" d="M134.56,466.91a8.65,8.65,0,0,1,17.3,0Z"/><path class="cls-13" d="M98.8,491.58a8.65,8.65,0,1,1,17.3,0Z"/><path class="cls-17" d="M119.41,457.57A4.53,4.53,0,0,0,124,453a1,1,0,0,0-2,0,2.55,2.55,0,1,1-5.09,0,1,1,0,1,0-2,0A4.56,4.56,0,0,0,119.41,457.57Z"/><path class="cls-17" d="M112.46,457.25a4.54,4.54,0,0,0,4.54-4.54,1,1,0,0,0-2,0,2.54,2.54,0,0,1-2.54,2.54,2.49,2.49,0,0,1-1.1-.25,2.56,2.56,0,0,1-1.45-2.3,1,1,0,0,0-2,0,4.56,4.56,0,0,0,2.58,4.1A4.48,4.48,0,0,0,112.46,457.25Z"/><path class="cls-17" d="M112.91,451l1.92,1.92a1.54,1.54,0,0,0,2.19,0l1.92-1.92a1.55,1.55,0,0,0-1.1-2.65H114A1.55,1.55,0,0,0,112.91,451Z"/><path class="cls-14" d="M119.08,440.28h.06a2,2,0,0,0,2-2V434a.74.74,0,0,0-.74-.74h-3.39v5A2,2,0,0,0,119.08,440.28Z"/><path class="cls-14" d="M112.66,440.28h.06a2,2,0,0,0,2-2v-5h-3.4a.73.73,0,0,0-.73.73v4.24A2,2,0,0,0,112.66,440.28Z"/><path class="cls-17" d="M123.73,446.79a1.07,1.07,0,0,0,.25,0,1,1,0,0,0,.71-1.22,4.09,4.09,0,0,0-5-2.91,1,1,0,0,0,.51,1.93,2.07,2.07,0,0,1,2.54,1.48A1,1,0,0,0,123.73,446.79Z"/><path class="cls-17" d="M108.36,446.81a1,1,0,0,0,1-.76,2,2,0,0,1,.94-1.28,2,2,0,0,1,1.57-.24,1,1,0,0,0,.48-1.94,4.07,4.07,0,0,0-4.92,3,1,1,0,0,0,.73,1.21Z"/><path class="cls-5" d="M803.12,133h0a2.86,2.86,0,0,1,4,0l20.35,20.35a2.86,2.86,0,0,1,0,4h0a2.86,2.86,0,0,1-4,0L803.12,137A2.86,2.86,0,0,1,803.12,133Z"/><path class="cls-11" d="M688.32,277h-.42a5.55,5.55,0,0,1-5.1-4,7.14,7.14,0,0,1-.37-2.29v-13.3c0-3.48,2.45-6.31,5.47-6.31h.42c3,0,5.47,2.82,5.47,6.31v13.3C693.79,274.12,691.34,277,688.32,277Z"/><circle class="cls-18" cx="693.29" cy="211.57" r="18.8"/><circle class="cls-19" cx="702.57" cy="225.78" r="18.8"/><circle class="cls-20" cx="678.83" cy="222.42" r="18.8"/><circle class="cls-21" cx="705.89" cy="240.75" r="4.32"/><circle class="cls-11" cx="705.89" cy="240.75" r="2.01"/><circle class="cls-21" cx="672" cy="240.95" r="4.32"/><circle class="cls-11" cx="672" cy="240.95" r="2.01"/><circle class="cls-7" cx="707.77" cy="247.07" r="4.26"/><circle class="cls-7" cx="669.42" cy="247.07" r="4.34"/><path class="cls-21" d="M706.31,249.14s0-.1,0-.15V234.62a7.52,7.52,0,0,0-.17-1.59c-1.16-9.59-8.37-17-17.1-17-9.54,0-17.27,8.82-17.27,19.7a22,22,0,0,0,.53,4.85,13.52,13.52,0,0,0-3.29,8.86h0A13.57,13.57,0,0,0,682.59,263h10.15a13.57,13.57,0,0,0,13.57-13.57h0A1.82,1.82,0,0,0,706.31,249.14Z"/><path class="cls-22" d="M698.23,233.63a15.3,15.3,0,0,0-14.23-9.9,16.52,16.52,0,0,0-11,3.76c.11-7.83,6.62-14.66,15.35-15.22,8-.52,15.23,4.75,16.69,12.12a15,15,0,0,1-6.07,15A14.44,14.44,0,0,0,698.23,233.63Z"/><circle class="cls-23" cx="701.34" cy="247.33" r="3.98"/><circle class="cls-24" cx="675.18" cy="247.33" r="3.98"/><path class="cls-11" d="M685.27,250.56a1.9,1.9,0,0,0,1.17-3.39,4.33,4.33,0,0,0-5.35,0,1.9,1.9,0,0,0,1.19,3.39Z"/><path class="cls-25" d="M696.14,252.39c-.41-1.77-2-2.65-4.1-.61s-5.54,2.87-8.13,2.84a13.05,13.05,0,0,1-1.46-.1,1.51,1.51,0,0,0-1.2,2.63,10.7,10.7,0,0,0,4.86,2A11.58,11.58,0,0,1,696.14,252.39Z"/><path class="cls-26" d="M691.85,258.88c3.67-1.33,4.76-4.48,4.3-6.48a11.54,11.54,0,0,0-10,6.76A12.12,12.12,0,0,0,691.85,258.88Z"/><path class="cls-17" d="M677.19,243.12h0a1.86,1.86,0,0,1-1.71-2l.12-1.51a1.86,1.86,0,0,1,2-1.71h0a1.86,1.86,0,0,1,1.71,2l-.12,1.51A1.86,1.86,0,0,1,677.19,243.12Z"/><path class="cls-17" d="M690.7,244.2h0a1.86,1.86,0,0,1-1.71-2l.12-1.51a1.86,1.86,0,0,1,2-1.71h0a1.86,1.86,0,0,1,1.71,2l-.12,1.51A1.88,1.88,0,0,1,690.7,244.2Z"/><path class="cls-13" d="M680.2,235.27a.93.93,0,0,1-.7-.39,3.06,3.06,0,0,0-4.28-.61,1,1,0,1,1-1.17-1.55,5,5,0,0,1,7,1,1,1,0,0,1-.19,1.36A.91.91,0,0,1,680.2,235.27Z"/><path class="cls-13" d="M689,236a.92.92,0,0,1-.55-.44,1,1,0,0,1,.35-1.33,5,5,0,0,1,6.84,1.8,1,1,0,1,1-1.68,1,3.06,3.06,0,0,0-4.18-1.1A.94.94,0,0,1,689,236Z"/><path class="cls-7" d="M679.35,557.77h0a6.11,6.11,0,0,1-5.89-4.46l-5.76-20.42h17.78v18.75A6.14,6.14,0,0,1,679.35,557.77Z"/><path class="cls-7" d="M698.06,557.77h0a6.11,6.11,0,0,0,5.89-4.46l5.76-20.42H691.93v18.75A6.14,6.14,0,0,0,698.06,557.77Z"/><circle class="cls-7" cx="677.31" cy="216.3" r="2.13"/><circle class="cls-7" cx="682.72" cy="212.22" r="2.13"/><circle class="cls-7" cx="689.44" cy="210.93" r="2.13"/><circle class="cls-7" cx="696.22" cy="212.22" r="2.13"/><circle class="cls-7" cx="701.63" cy="216.06" r="2.13"/><path class="cls-27" d="M590.88,280.58l-10.47,2.87a2.69,2.69,0,0,1-3.3-1.88l0-.14a2.69,2.69,0,0,1,1.88-3.3l10.47-2.87a2.69,2.69,0,0,1,3.3,1.88l0,.14A2.69,2.69,0,0,1,590.88,280.58Z"/><path class="cls-28" d="M583.81,555.36H576a3.28,3.28,0,0,1-3.28-3.28v-63.8A3.28,3.28,0,0,1,576,485h7.78a3.28,3.28,0,0,1,3.28,3.28v63.8A3.27,3.27,0,0,1,583.81,555.36Z"/><path class="cls-28" d="M543.89,555.36h-7.78a3.28,3.28,0,0,1-3.28-3.28v-63.8a3.28,3.28,0,0,1,3.28-3.28h7.78a3.28,3.28,0,0,1,3.28,3.28v63.8A3.27,3.27,0,0,1,543.89,555.36Z"/><path class="cls-17" d="M590.63,392.5H531a5.44,5.44,0,0,1-5.44-5.44V355.25a5.44,5.44,0,0,1,5.44-5.44h59.63a5.44,5.44,0,0,1,5.44,5.44v31.81A5.45,5.45,0,0,1,590.63,392.5Z"/><rect class="cls-17" x="484.88" y="280.59" width="64.51" height="19.51" transform="translate(114.77 726.04) rotate(-76.59)"/><circle class="cls-17" cx="509.63" cy="320.07" r="10.19"/><rect class="cls-17" x="463.35" y="330.42" width="55.76" height="19.54" transform="translate(-93.71 462.21) rotate(-46.49)"/><path class="cls-17" d="M576.87,344.4H544.63A16.25,16.25,0,0,1,528.38,330l-13.13-70a16.19,16.19,0,0,1,16.25-17.78h58.65A16.2,16.2,0,0,1,606.41,260l-13.29,70A16.25,16.25,0,0,1,576.87,344.4Z"/><rect class="cls-17" x="525.55" y="311.06" width="70.52" height="58.06"/><circle class="cls-17" cx="628.57" cy="317.55" r="11.88"/><rect class="cls-17" x="604.85" y="254.4" width="19.31" height="68.66" transform="translate(-62.51 340.09) rotate(-29.51)"/><rect class="cls-15" x="469.12" y="347.4" width="11.98" height="19.54" transform="translate(-111.03 455.81) rotate(-46.49)"/><path class="cls-17" d="M552.74,463.59H528.93a3.28,3.28,0,0,1-3.28-3.28V367.68a3.28,3.28,0,0,1,3.28-3.28h23.81a3.28,3.28,0,0,1,3.28,3.28v92.63A3.27,3.27,0,0,1,552.74,463.59Z"/><path class="cls-17" d="M592.67,556.3H568.86a3.28,3.28,0,0,1-3.28-3.28V458.86a3.28,3.28,0,0,1,3.28-3.28h23.81a3.28,3.28,0,0,1,3.28,3.28V553A3.27,3.27,0,0,1,592.67,556.3Z"/><path class="cls-17" d="M592.67,463.59H568.86a3.28,3.28,0,0,1-3.28-3.28V367.68a3.28,3.28,0,0,1,3.28-3.28h23.81a3.28,3.28,0,0,1,3.28,3.28v92.63A3.27,3.27,0,0,1,592.67,463.59Z"/><path class="cls-25" d="M552.74,556.87H528.93a3.28,3.28,0,0,1-3.28-3.28V458.86a3.28,3.28,0,0,1,3.28-3.28h23.81a3.28,3.28,0,0,1,3.28,3.28v94.73A3.27,3.27,0,0,1,552.74,556.87Z"/><circle class="cls-17" cx="540.84" cy="458.45" r="15.19"/><polygon class="cls-28" points="559.31 263.45 562.52 287.08 574.28 241.88 538.79 241.88 550.8 287.09 553.33 263.45 559.31 263.45"/><polygon class="cls-14" points="562.52 287.08 559.31 263.45 553.33 263.45 550.8 287.09 556.72 309.39 562.52 287.08"/><circle class="cls-17" cx="580.77" cy="458.05" r="15.19"/><path class="cls-25" d="M563.53,554.25c0-8,7.31-14.45,16.28-14.43S596,546.33,596,554.31l-32.5-.06"/><polyline class="cls-17" points="563.51 557.5 596.01 557.56 596.01 554.27 563.52 554.21"/><path class="cls-17" d="M521.85,554c0-8.41,7.7-15.22,17.15-15.2s17.1,6.86,17.09,15.27L521.85,554"/><rect class="cls-17" x="574.14" y="318.61" width="58.87" height="19.31" transform="translate(-74.1 215.06) rotate(-19.06)"/><polyline class="cls-25" points="521.85 557.49 556.08 557.56 556.09 554.1 521.86 554.03"/><rect class="cls-25" x="525.55" y="369.12" width="70.52" height="6.57"/><rect class="cls-28" x="576.04" y="324.78" width="19.31" height="19.31" transform="translate(-77.1 209.56) rotate(-19.06)"/><circle class="cls-25" cx="556.66" cy="335.28" r="2.45"/><circle class="cls-21" cx="572.97" cy="335.28" r="15.06"/><path class="cls-29" d="M568.76,195.91c.17,12.23-7.43,22.26-17,22.39s-17.41-9.68-17.58-21.91,7.43-22.26,17-22.39S568.59,183.68,568.76,195.91Z"/><path class="cls-30" d="M579.38,196c.17,12.13-7.43,22.07-17,22.2s-17.41-9.59-17.58-21.72,7.43-22.07,17-22.2S579.21,183.83,579.38,196Z"/><path class="cls-11" d="M556.08,254.84h.49a9.22,9.22,0,0,0,9.22-9.22V227.49a9.22,9.22,0,0,0-9.22-9.22h-.49a9.22,9.22,0,0,0-9.22,9.22v18.13A9.22,9.22,0,0,0,556.08,254.84Z"/><path class="cls-21" d="M561.63,233.66l-10.7-.11a14.59,14.59,0,0,1-14.76-14.41l1.11-24.85a14.59,14.59,0,0,1,14.36-14.81l6.87.21a14.59,14.59,0,0,1,14.76,14.41l1.27,24.58C574.65,226.76,569.66,233.55,561.63,233.66Z"/><circle class="cls-21" cx="575.69" cy="206.58" r="5.79"/><circle class="cls-11" cx="575.29" cy="207.26" r="2.31"/><path class="cls-31" d="M533.07,180.23l11.81-5.6A23.89,23.89,0,0,1,576.7,186h0a2,2,0,0,1-.94,2.64L564,194.23a23.89,23.89,0,0,1-31.82-11.36h0A2,2,0,0,1,533.07,180.23Z"/><path class="cls-32" d="M544.27,172.25l10.53-1.73a19.52,19.52,0,0,1,22.43,16.1h0a1.61,1.61,0,0,1-1.34,1.86l-10.53,1.73a19.52,19.52,0,0,1-22.43-16.1h0A1.63,1.63,0,0,1,544.27,172.25Z"/><path class="cls-33" d="M557.43,200.06c-1.11.1-1.21-1.17-.25-1.74,2-1.18,7-2,6.43,1.33C563,203.26,562.36,199.61,557.43,200.06Z"/><path class="cls-33" d="M547.13,203.51c1.14.06,1.2-1.25.19-1.8-2.09-1.14-7.3-1.79-6.57,1.61C541.54,207,542,203.24,547.13,203.51Z"/><path class="cls-11" d="M549.93,209.49c-1,2.09-4.61,7.88,1.86,10S555,198.68,549.93,209.49Z"/><path class="cls-34" d="M547.17,224.54c5,2,13.47,2.93,17.47-7.53.17-.43-.42-.92-.65-.51-2,3.51-8,8.5-16.72,7.22C546.78,223.65,546.71,224.36,547.17,224.54Z"/><path class="cls-34" d="M563.06,215c-.18-.3-.61-.16-.48.16.43,1,2.45,3.39,4,1.72C568.06,215.35,564.36,217.12,563.06,215Z"/><path class="cls-11" d="M557.33,227.64a1.19,1.19,0,0,1,1,1.75,3.83,3.83,0,0,1-6.82,0,1.2,1.2,0,0,1,1.05-1.75Z"/><polygon class="cls-14" points="565.73 261.35 556.54 270.54 547.34 261.35 556.54 255.07 565.73 261.35"/><polyline class="cls-25" points="546.96 272.83 527.44 261.49 538.78 241.97"/><polyline class="cls-25" points="566.16 272.89 585.52 261.28 573.92 241.92"/><polygon class="cls-15" points="559.53 259 545.39 266.73 538.79 241.88 546.93 237.18 559.53 259"/><polygon class="cls-15" points="553.54 259 567.6 267.12 574.28 241.88 566.14 237.18 553.54 259"/><circle class="cls-25" cx="556.66" cy="319.75" r="2.45"/><circle class="cls-25" cx="556.66" cy="351.06" r="2.45"/><polyline class="cls-25" points="553.9 299.04 546.97 272.9 534.4 276.24"/><polyline class="cls-25" points="559.26 299.04 566.19 272.9 578.76 276.24"/><circle class="cls-17" cx="558.6" cy="206.79" r="1.83"/><circle class="cls-17" cx="545.02" cy="206.79" r="1.83"/><path class="cls-21" d="M559.12,329.09a15.05,15.05,0,0,0,27.7,11.8"/><path class="cls-11" d="M448.23,369a15,15,0,0,1,30,0Z"/><path class="cls-35" d="M262.53,281.38H159A43.66,43.66,0,0,0,115.38,325h0c0,1.2.06,2.39.16,3.56h0V383a4.94,4.94,0,0,0,7.22,4.38l34.75-18.16a4.9,4.9,0,0,1,2.28-.56H262.52A43.66,43.66,0,0,0,306.18,325h0A43.64,43.64,0,0,0,262.53,281.38Z"/><path class="cls-7" d="M190.81,336.61V319.19l-4,4.07-2.92-3.06,7.56-7.6h4.46v24Z"/><path class="cls-7" d="M200.06,333.44l2.84-3.56a8.66,8.66,0,0,0,6.37,2.63c2.84,0,4.46-1.62,4.46-3.56,0-2.12-1.58-3.56-4.32-3.56a6.92,6.92,0,0,0-5,1.94l-3.56-.94V312.6H217.3v4.5H205.93V323a7.63,7.63,0,0,1,5.29-2,7.5,7.5,0,0,1,7.7,7.78c0,5.11-3.82,8.31-9.61,8.31C205.14,337,202.11,335.67,200.06,333.44Z"/><path class="cls-7" d="M176.71,329.14H163.58a.91.91,0,0,1-.91-.91v-2.38a.91.91,0,0,1,.91-.91h13.13a.91.91,0,0,1,.91.91v2.38A.9.9,0,0,1,176.71,329.14Z"/><path class="cls-7" d="M235.14,315.6a2.11,2.11,0,1,1-2.11,2.11,2.12,2.12,0,0,1,2.11-2.11m0-3a5.11,5.11,0,1,0,5.11,5.11,5.11,5.11,0,0,0-5.11-5.11Z"/><path class="cls-7" d="M251.42,329.68a2.11,2.11,0,1,1-2.11,2.11,2.12,2.12,0,0,1,2.11-2.11m0-3a5.11,5.11,0,1,0,5.11,5.11,5.11,5.11,0,0,0-5.11-5.11Z"/><path class="cls-7" d="M254.19,315.85,233.4,336.64a.91.91,0,0,1-1.29,0l-1.38-1.38a.91.91,0,0,1,0-1.29l20.79-20.79a.91.91,0,0,1,1.29,0l1.38,1.38A.91.91,0,0,1,254.19,315.85Z"/><path class="cls-36" d="M289.74,386a6.27,6.27,0,1,1,8.55-2.35A6.27,6.27,0,0,1,289.74,386Zm4.67-8.22a3.18,3.18,0,1,0,1.19,4.34A3.19,3.19,0,0,0,294.41,377.73Z"/><circle class="cls-36" cx="88.18" cy="332.32" r="4.09"/><path class="cls-37" d="M307.41,258.44l-.2.35a1.54,1.54,0,0,1-2.09.58l-9.86-5.6a1.54,1.54,0,0,1-.58-2.09l.2-.35a1.54,1.54,0,0,1,2.09-.58l9.86,5.6A1.53,1.53,0,0,1,307.41,258.44Z"/><path class="cls-37" d="M304.14,248.9l.35.2a1.54,1.54,0,0,1,.58,2.09l-5.6,9.86a1.54,1.54,0,0,1-2.09.58l-.35-.2a1.54,1.54,0,0,1-.58-2.09l5.6-9.86A1.53,1.53,0,0,1,304.14,248.9Z"/><path class="cls-5" d="M668.85,246.5c8.57,1.69,14.26,3.09,25.77,2.63a9.77,9.77,0,0,0,7.65-4.22c2.42-3.49,4.45-7.87,4.62-7.71-3.57,6.78-4.82,10.42-5.21,12.34a4.33,4.33,0,0,0,.51,3l0,0a1.61,1.61,0,0,0,2.6.28c.7-.83,1.38-2.4,1.53-5.38,0,0,0,5.45-1.37,8.37h0l0,0a.83.83,0,0,1-.07.13l-.15.28h0a13.69,13.69,0,0,1-12.81,7.25L681.69,263a13.78,13.78,0,0,1-13.09-14.37v0C668.65,247.77,668.85,246.5,668.85,246.5Z"/><path class="cls-4" d="M699.51,252.28a.5.5,0,0,1,0-.12h0a1.27,1.27,0,0,0-1.35-1.37c-13.56.9-18.51-.32-25.86-2a1.27,1.27,0,0,0-1.55,1.08,1.8,1.8,0,0,0,0,.22v0a10.53,10.53,0,0,0,9.64,11.3l7.79.67a10.47,10.47,0,0,0,11.32-9.53h0A1.93,1.93,0,0,0,699.51,252.28Z"/><path class="cls-5" d="M692.46,252.59a.3.3,0,0,1,.18.57c-2.32,1.19-6.79,3.14-10,2.36a16.27,16.27,0,0,1-5.57-2.78.55.55,0,0,1,.5-1C683,253.57,689.43,253,692.46,252.59Z"/><path class="cls-5" d="M677.39,256a20.09,20.09,0,0,0,12.45,1.12.41.41,0,0,1,.31.74,9.89,9.89,0,0,1-7.46,1.42,11.92,11.92,0,0,1-5.77-2.61A.42.42,0,0,1,677.39,256Z"/><path class="cls-5" d="M536.3,221.32l.17-10.1c5.5,5.28,17.65,5.57,32.54.52a17.25,17.25,0,0,0,4.18,16.13,12.42,12.42,0,0,1-11,7.34l-10.73.17A14.63,14.63,0,0,1,536.3,221.32Z"/><path class="cls-4" d="M538,222.11l.07-3.66a2.55,2.55,0,0,1,3.57-2.27c4.71,1.92,11.79,1.76,21.39-1.28a1.78,1.78,0,0,1,2.34,1.77,14.57,14.57,0,0,0,.94,6.17,15.06,15.06,0,0,0,2,3.61,2.52,2.52,0,0,1,0,3,10.4,10.4,0,0,1-8.34,4.51l-9.12.14A12.41,12.41,0,0,1,538,222.11Z"/><path class="cls-5" d="M573.36,202.27c1.13-2.37-6.56,9-7.38,10.95s2.88-1.1,2.88-1.1S568.62,212.21,573.36,202.27Z"/><path class="cls-5" d="M574.19,213s.36,12.29-2.65,12.83l1.25,2.78c3.87-3.65,1.51-15.33,1.51-15.33"/><path class="cls-5" d="M543.19,219.73c4.55,2,10.11,1.05,14.27-.21a.85.85,0,0,1,.69,1.53c-3.18,1.88-7.23,3.52-10.71,2.58a13.7,13.7,0,0,1-5.12-2.47A.85.85,0,0,1,543.19,219.73Z"/><path class="cls-5" d="M544.64,226.62c5.14,2.4,11.48.85,15.57-.68a.56.56,0,0,1,.51,1c-3,2-7.38,4.1-11.39,3a16.09,16.09,0,0,1-5.28-2.38A.56.56,0,0,1,544.64,226.62Z"/><path class="cls-2" d="M97.67,447.66l-.22,10.92c14.08,5.3,27.61,2.9,33.67,1.27a4.62,4.62,0,0,0,3.42-4.45l0-7.21a7.74,7.74,0,0,0-3.23-6.31c-13.72-9.89-25.14-4.39-30.4-.59A8.2,8.2,0,0,0,97.67,447.66Zm13.11-.87a3.45,3.45,0,1,1,3.46-3.43A3.45,3.45,0,0,1,110.78,446.79Zm10.81.06a3.45,3.45,0,1,1,3.46-3.43A3.45,3.45,0,0,1,121.59,446.85Z"/><path class="cls-38" d="M126.31,449.31a28.9,28.9,0,0,1-20.3.25.45.45,0,0,0-.43.79,16.49,16.49,0,0,0,11,3.55,18.63,18.63,0,0,0,10.21-3.81A.45.45,0,0,0,126.31,449.31Z"/><path class="cls-38" d="M124.8,454.52a24.74,24.74,0,0,1-17.42.21.39.39,0,0,0-.37.68,14.19,14.19,0,0,0,9.41,3,16,16,0,0,0,8.76-3.27A.39.39,0,0,0,124.8,454.52Z"/><path class="cls-38" d="M134.41,449.37s-8,2.67-4.62,3.13c4.27.58,4.73.59,4.73.59Z"/><path class="cls-38" d="M97.61,450.88s8,2.76,4.59,3.18c-4.28.54-4.73.54-4.73.54Z"/></svg>