<svg version="1.1" id="Слой_1" xmlns="http://www.w3.org/2000/svg" x="0" y="0" viewBox="0 0 910 567" xml:space="preserve"><style>.st1{fill:#50b848}.st2{fill:#5fa2be}.st3{fill:#19607c}.st4{fill:#3e95b6}.st5{fill:#ffb95c}.st6{fill:#37a537}.st7{fill:#ffb392}.st8{fill:#ffd2b3}.st10{fill:#005777}.st15{fill:#d1ecf1}.st16{fill:#c6ebf2}.st17{fill:#eff7fb}.st19{fill:#c3e8ef}.st23{fill:#d7eef3}.st25{fill:#d6eef2}.st26{fill:#dbf0f4}.st27{fill:#daf0f3}.st28{fill:#c4e5ed}.st30{fill:#006988}.st32{fill:#43ae5d}.st33{fill:#ff653b}.st34{fill:#fff}.st35{fill:#4195b7}</style><linearGradient id="SVGID_1_" gradientUnits="userSpaceOnUse" x1="-219.515" y1="291.667" x2="736.619" y2="291.667"><stop offset="0" stop-color="#fff" stop-opacity="0"/><stop offset="1" stop-color="#c3e8ef"/></linearGradient><path d="M879.2 291.7c0-102.9-81.9-186.7-184.1-189.8v-.1h-498v.2c-2.1-.1-4.2-.2-6.4-.2C85.8 101.8.8 186.8.8 291.7s85 189.9 189.9 189.9c2.1 0 4.3-.1 6.4-.2v.2h498.1v-.1c102.1-3.2 184-86.9 184-189.8z" fill="url(#SVGID_1_)"/><path class="st1" d="M118.7 344.7h84.6l18.2-83.9c2.4-10.4-8.4-20-22.5-20l-83.1.1c-14.3 0-25.1 9.9-22.2 20.4l25 83.4z"/><path class="st2" d="M124.2 390.3h73.7c3 0 5.4-2.4 5.4-5.4v-39c0-3-2.4-5.4-5.4-5.4h-73.7c-3 0-5.4 2.4-5.4 5.4v39c-.1 3 2.4 5.4 5.4 5.4z"/><path transform="rotate(-180 161.021 321.017)" class="st2" d="M118.7 294.3h84.6v53.4h-84.6z"/><path transform="rotate(-180 161.021 349.172)" class="st3" d="M118.7 344.7h84.6v8.9h-84.6z"/><path transform="rotate(-180 132.894 348.75)" class="st2" d="M130.8 343.2h4.2v11.2h-4.2z"/><path transform="rotate(-180 186.387 349.84)" class="st2" d="M184.3 344.7h4.2v10.2h-4.2z"/><path class="st2" d="M170 442.9h29.9c1.8 0 3.3-1.5 3.3-3.3v-82.8c0-1.8-1.5-3.3-3.3-3.3H170c-1.8 0-3.3 1.5-3.3 3.3v82.8c.1 1.9 1.5 3.3 3.3 3.3zm-47.9 80.3H152c1.8 0 3.3-1.5 3.3-3.3V439c0-1.8-1.5-3.3-3.3-3.3h-29.9c-1.8 0-3.3 1.5-3.3 3.3v80.9c0 1.8 1.5 3.3 3.3 3.3z"/><path class="st2" d="M122.1 442.9H152c1.8 0 3.3-1.5 3.3-3.3v-82.8c0-1.8-1.5-3.3-3.3-3.3h-29.9c-1.8 0-3.3 1.5-3.3 3.3v82.8c0 1.9 1.5 3.3 3.3 3.3z"/><path class="st4" d="M137.1 360h-18.4v28.1c10.1 0 18.4-12.6 18.4-28.1zM170 523.9h29.9c1.8 0 3.3-1.5 3.3-3.3V439c0-1.8-1.5-3.3-3.3-3.3H170c-1.8 0-3.3 1.5-3.3 3.3v81.6c.1 1.9 1.5 3.3 3.3 3.3z"/><path class="st3" d="M155.6 522.6c0-9.6-8.3-17.4-18.5-17.4s-18.5 7.8-18.4 17.4h36.9m47.6-.1c0-9.6-8.2-17.3-18.3-17.3-10.1 0-18.2 7.8-18.2 17.3h36.5"/><path class="st4" d="M184.8 360h18.4v28.1c-10.2 0-18.4-12.6-18.4-28.1z"/><circle class="st5" cx="161.4" cy="270.1" r="2.3"/><path class="st6" d="M173.9 272.1h12.4c1.3 0 2.4-1.1 2.4-2.4 0-1.3-1.1-2.4-2.4-2.4h-12.4c-1.3 0-2.4 1.1-2.4 2.4 0 1.3 1.1 2.4 2.4 2.4z"/><path class="st4" d="M137 301.3c0 12.7 10.3 23 23 23s23-10.3 23-23"/><circle class="st2" cx="185" cy="436.3" r="18.2"/><circle class="st2" cx="136.8" cy="438.2" r="18.2"/><ellipse transform="rotate(-18.612 99.264 336.154)" class="st7" cx="99.3" cy="336.2" rx="14.2" ry="14.4"/><path class="st7" d="M85.6 334.1l4.1-54.7 27.2 2.9-3.4 54.2z"/><path transform="rotate(-166.914 93.098 363.476)" class="st7" d="M79.3 332.7H107v61.6H79.3z"/><circle class="st7" cx="82.4" cy="398.2" r="16.8"/><path class="st1" d="M116.6 299.7l2.6-57.7-28.3 16.1-2.6 39.7z"/><circle class="st1" cx="108.8" cy="257.1" r="17.9"/><path class="st7" d="M168.6 253.9l-11.9.4c-3.3.1-6.1-2.5-6.2-5.8l-1-29.4c-.1-3.3 2.5-6.1 5.8-6.2l11.9-.4c3.3-.1 6.1 2.5 6.2 5.8l1 29.4c.1 3.3-2.5 6.1-5.8 6.2z"/><path class="st6" d="M150.1 237.8l11.7 18.2-4.3 7.1c-1 1.7-3.6 1.6-4.5-.2l-11.4-21.8 8.5-3.3zm24.1.5L161.8 256l4.1 7.2c1 1.7 3.5 1.7 4.5 0l12.3-22.4-8.5-2.5z"/><path class="st8" d="M186.7 230.2c4-6.1 4-13.6.6-19.5l2.6-16c3.4-15.8-.8-21.3-9.5-24.1l-5-1.6c-8.7-2.8-23.1-.6-27.3 12.1l-9.6 29c-3.1 9.4 1.4 19.4 10.1 22.2l15 4.9c.1 0 .2.1.4.1 8 3.4 17.7.6 22.7-7.1z"/><path d="M166.3 195.6c1.6.3 2.6-1.7 1.3-2.7-1.3-1-3-1.6-4.8-1.3-1.8.2-3.3 1.2-4.3 2.5s.5 3 1.9 2.3c2-.9 3.9-1.2 5.9-.8zm17 6.2c.9 1.3 3 .6 2.8-1-.2-1.6-1-3.2-2.4-4.3-1.4-1.1-3.1-1.5-4.8-1.3-1.6.2-1.7 2.5-.2 3 1.9.7 3.5 1.9 4.6 3.6z" fill="#3784a8"/><circle class="st10" cx="166.2" cy="203.1" r="2.2"/><circle class="st10" cx="180" cy="206.8" r="2.2"/><ellipse transform="rotate(-56.763 143.167 195.601)" class="st8" cx="143.2" cy="195.6" rx="7.3" ry="7.2"/><circle transform="rotate(-56.763 142.804 196.429)" class="st7" cx="142.8" cy="196.4" r="3"/><path class="st10" d="M166.4 233.4c10.7-.6 16.5-14.9 8.1-11.9-10 3.5-17.9-7.8-17.9-7.8-2-3.3-5.3-1.2-6.3 2.8 2.4.5 4.8 1.5 7 2.9 5.1 3.3 8.2 8.4 9.1 14z"/><path d="M159.6 231.9c2.4 1.2 4.7 1.6 6.8 1.5-.9-5.6-4-10.7-9.1-14-2.2-1.4-4.6-2.4-7-2.9-1.1 4.4.4 11.1 9.3 15.4z" fill="#ff715e"/><path class="st7" d="M169.2 210.7c1-2.3 3.3-2.3 4.1 0 .9 2.5 1.5 5.5.3 5.9-2.2.9-5.3-.5-5.7-1.5-.1-.4.4-2.5 1.3-4.4z"/><linearGradient id="SVGID_2_" gradientUnits="userSpaceOnUse" x1="2402.243" y1="107.839" x2="2413.584" y2="107.839" gradientTransform="scale(-1 1) rotate(-18.899 1339.656 7842.051)"><stop offset="0" stop-color="#19607c"/><stop offset="1" stop-color="#6295b4"/></linearGradient><path d="M145.4 188.7c4.3 1.5 12.8-2.5 14.3-6.8l4.5-13-14.5 7.7-4.3 12.1z" fill="url(#SVGID_2_)"/><linearGradient id="SVGID_3_" gradientUnits="userSpaceOnUse" x1="33.748" y1="-504.034" x2="30.979" y2="-467.647" gradientTransform="scale(1 -1) rotate(-49.725 435.854 -505.86)"><stop offset="0" stop-color="#19607c"/><stop offset="1" stop-color="#6295b4"/></linearGradient><path d="M194.1 194.2c-1.5 5-9.9 2.9-13.3-1.1s-2.8-10 1.1-13.4c.1 0 13.1 11.5 12.2 14.5z" fill="url(#SVGID_3_)"/><path class="st1" d="M150 176.7c3.4-10.2 16.1-15.2 26.3-11.9 11.4 3.7 17.8 13.3 14.9 23.9l-41.2-12z"/><linearGradient id="SVGID_4_" gradientUnits="userSpaceOnUse" x1="2399.798" y1="198.454" x2="2398.161" y2="219.974" gradientTransform="scale(-1 1) rotate(-24.892 1044.074 6023.584)"><stop offset="0" stop-color="#19607c"/><stop offset="1" stop-color="#6295b4"/></linearGradient><path d="M169 175.9l11.7 3.7c1.2.4 2.4-.3 2.7-1.4l.4-1.1c.4-1.2-.3-2.4-1.4-2.8l-11.7-3.7c-1.2-.4-2.4.3-2.7 1.4l-.4 1.1c-.4 1.2.2 2.4 1.4 2.8z" fill="url(#SVGID_4_)"/><circle class="st1" cx="177.1" cy="165.3" r="3.5"/><path class="st6" d="M180.3 185.4s-27.5 6-41.5-3.1c-9.8-6.4 10.8-5.8 10.8-5.8l30.7 8.9z"/><path class="st15" d="M149.6 344.5h22v9h-22z"/><circle class="st5" cx="161.4" cy="284.1" r="2.3"/><ellipse transform="rotate(-67.101 245.589 316.581)" class="st8" cx="245.6" cy="316.6" rx="14.9" ry="15.4"/><path class="st8" d="M234.1 323.8L216 291.5l24.8-13.3 18.5 32.1z"/><path class="st8" d="M181.3 337.8l60.1-32.8 10.8 25.1-50.9 27.8z"/><circle class="st8" cx="189.7" cy="352.4" r="17"/><path class="st3" d="M192.6 331.5l14.9 23 11.6-6.3-14.3-23.3z"/><circle class="st3" cx="205.3" cy="338.7" r="8.6"/><circle class="st16" cx="205.3" cy="338.7" r="6.8"/><path transform="matrix(.9983 .05852 -.05852 .9983 20.155 -11.291)" class="st3" d="M199.8 337.8h6.2v1.3h-6.2z"/><path transform="rotate(-48.454 205.268 339.873)" class="st3" d="M203.4 339.2h3.8v1.3h-3.8z"/><path transform="rotate(60.455 223.704 276.62)" class="st1" d="M198.8 262.4h49.8v28.4h-49.8z"/><circle class="st1" cx="209.5" cy="257.3" r="17.7"/><path transform="rotate(-180 125.66 270.396)" class="st2" d="M118.7 241h13.9v58.8h-13.9z"/><path transform="rotate(-180 196.849 269.307)" class="st2" d="M190.4 240.9h13v56.9h-13z"/><path class="st4" d="M155.6 526.5l-36.9.1v-4h36.9m47.6 3.9l-36.4.1v-4h36.4"/><circle class="st1" cx="685.9" cy="291.5" r="137.5"/><path class="st17" d="M765.9 211.5c-21.1-21.1-48.4-32.1-76-33l-.1.4.1-.4c-30.3-1.1-60.9 9.9-84 33-33.8 33.8-41.7 83.6-23.8 125 5.5 12.7 13.4 24.6 23.8 35 44.2 44.2 115.8 44.2 160 0s44.2-115.8 0-160z"/><path class="st1" d="M686.4 202h-.9c-1.6 0-3-1.4-3-3v-12.5c0-1.6 1.4-3 3-3h.9c1.7 0 3 1.4 3 3V199c0 1.6-1.4 3-3 3z"/><path class="st5" d="M686.4 399.5h-.9c-1.6 0-3-1.3-3-3V384c0-1.6 1.4-3 3-3h.9c1.7 0 3 1.4 3 3v12.5c0 1.6-1.4 3-3 3z"/><path class="st1" d="M586.1 250.4l.4-.9c.6-1.5 2.4-2.3 3.9-1.6l11.5 4.8c1.5.6 2.3 2.4 1.6 3.9l-.4.9c-.6 1.5-2.4 2.3-3.9 1.6l-11.5-4.8c-1.6-.6-2.3-2.4-1.6-3.9zm58.3-58.6l.9-.4c1.5-.6 3.3.1 3.9 1.6l4.8 11.5c.6 1.5-.1 3.3-1.6 3.9l-.9.4c-1.5.6-3.3-.1-3.9-1.6l-4.8-11.5c-.7-1.5 0-3.2 1.6-3.9zm-35.2 23.7l.7-.7c1.2-1.2 3.1-1.2 4.2 0l8.8 8.8c1.2 1.2 1.2 3.1 0 4.2l-.7.7c-1.2 1.2-3.1 1.2-4.2 0l-8.8-8.8c-1.1-1.2-1.1-3.1 0-4.2z"/><path class="st5" d="M607 211l79 99V178.5c-29 0-57.1 10.1-79.2 32.2-.6.5.2.3.2.3z"/><linearGradient id="SVGID_5_" gradientUnits="userSpaceOnUse" x1="552.147" y1="192.47" x2="686" y2="192.47"><stop offset="0" stop-color="#3e95b6"/><stop offset="1" stop-color="#5fa2be"/></linearGradient><path d="M686 292.4V92.5c0-3.6-3.1-6.5-6.7-6.2-19.6 1.5-78.5 9.4-125.1 50-2.5 2.2-2.8 5.9-.7 8.5L675 296.3c3.6 4.5 11 1.9 11-3.9z" fill="url(#SVGID_5_)"/><path class="st19" d="M735.9 257l2.4 2.4c3.1 3.1 3.1 8.1 0 11.1l-46.4 46.4c-3.1 3.1-8.1 3.1-11.1 0l-2.4-2.4c-3.1-3.1-3.1-8.1 0-11.1l46.4-46.4c3-3.1 8-3.1 11.1 0z"/><path class="st19" d="M621.8 232l2.5-2c3.3-2.6 8-2.1 10.6 1.1l59.9 74.2c2.6 3.3 2.1 8-1.1 10.6l-2.5 2c-3.3 2.6-8 2.1-10.6-1.1l-59.9-74.2c-2.6-3.3-2.1-8 1.1-10.6z"/><path class="st5" d="M775.4 292v-1c0-1.6 1.3-3 3-3h12.5c1.7 0 3 1.4 3 3v.9c0 1.6-1.3 3-3 3h-12.5c-1.6.1-3-1.3-3-2.9zm-197.5 0v-1c0-1.6 1.3-3 3-3h12.5c1.6 0 3 1.4 3 3v.9c0 1.6-1.4 3-3 3h-12.5c-1.6.1-3-1.3-3-2.9zm153.3-77.8l-.8-.5c-1.4-.8-1.9-2.7-1.1-4.1l6.2-10.8c.8-1.4 2.7-1.9 4.1-1.1l.8.5c1.4.8 1.9 2.7 1.1 4.1l-6.2 10.8c-.9 1.5-2.7 2-4.1 1.1zm-98.9 171l-.8-.5c-1.4-.8-1.9-2.7-1.1-4.1l6.2-10.8c.8-1.4 2.7-1.9 4.1-1.1l.8.5c1.4.8 1.9 2.7 1.1 4.1l-6.2 10.8c-.9 1.4-2.7 1.9-4.1 1.1zM763.6 247l-.5-.8c-.8-1.4-.3-3.3 1.1-4.1l10.8-6.3c1.4-.8 3.3-.3 4.1 1.1l.5.8c.8 1.4.3 3.3-1.1 4.1l-10.8 6.3c-1.4.8-3.3.3-4.1-1.1zm-170.9 99.1l-.5-.8c-.8-1.4-.3-3.3 1.1-4.1l10.8-6.3c1.4-.8 3.3-.3 4.1 1.1l.5.8c.8 1.4.3 3.3-1.1 4.1l-10.8 6.3c-1.4.8-3.2.3-4.1-1.1zm138.6 22.6l.8-.5c1.4-.8 3.3-.4 4.1 1l6.4 10.7c.8 1.4.4 3.3-1 4.1l-.8.5c-1.4.8-3.3.4-4.1-1l-6.4-10.7c-.9-1.4-.4-3.3 1-4.1zm31.9-32l.5-.8c.8-1.4 2.7-1.9 4.1-1.1l10.8 6.2c1.4.8 1.9 2.7 1.1 4.1l-.5.8c-.8 1.4-2.7 1.9-4.1 1.1l-10.8-6.2c-1.5-.8-1.9-2.7-1.1-4.1z"/><path class="st23" d="M453 125.9c-.6 0-1.2-.2-1.7-.7-1-.9-1.1-2.5-.1-3.5l37-40.2c.9-1 2.5-1.1 3.5-.1 1 .9 1.1 2.5.1 3.5l-37 40.2c-.5.6-1.1.8-1.8.8z"/><path class="st23" d="M527 125.9c-.7 0-1.3-.3-1.8-.8l-37-40.2c-.9-1-.9-2.6.1-3.5 1-.9 2.6-.9 3.5.1l37 40.2c.9 1 .9 2.6-.1 3.5-.5.5-1.1.7-1.7.7z"/><path class="st15" d="M521.2 206.8h-62.4c-5.5 0-10-4.5-10-10v-69.4c0-5.5 4.5-10 10-10h62.4c5.5 0 10 4.5 10 10v69.4c0 5.6-4.5 10-10 10z"/><path d="M508.6 192.2h-37.1c-4.8 0-8.7-3.9-8.7-8.7v-41.8c0-4.8 3.9-8.7 8.7-8.7h37.1c4.8 0 8.7 3.9 8.7 8.7v41.8c0 4.8-3.9 8.7-8.7 8.7z" fill="#ecf6fb"/><path class="st23" d="M490 85.8c-4.1 0-7.4-3.5-7.4-7.8s3.3-7.8 7.4-7.8 7.4 3.5 7.4 7.8-3.3 7.8-7.4 7.8zm0-10.6c-1.3 0-2.4 1.3-2.4 2.8s1.1 2.8 2.4 2.8 2.4-1.3 2.4-2.8-1.1-2.8-2.4-2.8z"/><path class="st25" d="M494.8 153.9c.1 0 .2 0 .2-.1l-.3-.1.1.2zm.5-.9c-.1-.1-.4-.3-.7-.2.3.1.2.2.5.3 0 .1-.1.2-.2.2.1 0-.1.2.1.3.2-.2.2-.4 0-.6h.3zm-5.8-11.2c.1 0 .1 0 0 0zm-7.6-2.9s.1-.1 0 0c0-.1 0-.1 0 0zm-1.5-.4c.1 0 .1 0 0 0 .1 0 .1 0 0 0zm9.1 3.3l-.1-.2c-.1 0 .1.1.1.2zm4.9 9.6s.1.1 0 0c.1.1.1 0 0 0zm-2-7.4h.2-.2zm1.7 2.3c0-.1-.2 0-.4.1h.2c.1 0 .1 0 .2-.1zm1.2 4.3c0 .1 0 0 0 0zm-4.3-8c0-.1 0-.1 0 0 0-.1 0-.1 0 0zm2.9 14.2c.1 0 .1 0 0 0 .1 0 0 0 0 0zm1.6-2.9c.1 0 .1.1.1.1l-.1-.1zm-17.8-15.4s.1 0 0 0c.1 0 .1 0 0 0zm-12 18.7c.1-.3.4.4.5-.1-.1.1-.5-.2-.5.1zm28.8-5.9v-.1c-.1.1-.1.1 0 .1zm-28.3 5.8zm5.9-16.1s.1 0 .1.1l-.1-.1zm4.2-1.6h-.1.1zm-5.8 3.4c-.1 0-.1 0-.1.1 0 0 0-.1.1-.1zm-1.7 1.8c.1 0 .1 0 0 0l.1-.1-.1.1zm22.4 18.1c.1 0 .2 0 .2.1-.1-.2 0-.4-.2-.1zm3.4-11.3h-.1.1c-.1 0-.1 0 0 0zm-22.9-7.1l-.3.2c.2-.1.3-.1.3-.2zm5.4 22.6c.1 0 .1 0 0 0zm-6.3-21.6h-.3v.1l.3-.1zm20.6 17.4z"/><path class="st25" d="M492.2 160.5c-.2.3.2.3.3.4-.1.4-.3 0-.5.1 0 .3.1.6 0 .7-.1 0-.1 0-.1-.1.1.4-.4.6-.4 1.1h-.1c.2.1.3.2.4.3-.1.1 0 .3-.2.2.1-.1 0-.1 0-.2v.2c-.3-.1.1-.2-.1-.4-.1.3-.2.7-.4.8-.2-.2.3-.5-.1-.4l.3-.2c-.5-.1.2-.1-.4-.3-.4.3-.2.5-.6.8 0 .2.2.2.2.3-.3.7-.9-.2-1 .4 0 .2.2.6-.2.6l-.1-.3c-.4.2.1.5-.4.7 0-.2.2-.3.1-.3-.4 0-.1.3-.3.4l-.2-.2c-.4.3-.7.8-1.2 1.1 0-.1 0-.2-.1-.2-.3.2-.6.4-.9.5-.4.1-.7.1-1 .1l-.2.3c-.1 0-.1-.1-.1-.1-.3 0 0 .2-.1.3-.1.1-.2-.1-.2-.2-.4.3-1.1.8-1.7.6l.1-.1c-.4 0-.3.6-.7.4l.1-.1c-.8 0-1.7.2-2.3-.2-.1.4-.8-.2-.9.3-.4-.3-.3-.4-.9-.7-.2 0-.3.3-.5.3l.1-.3-.3.2-.1-.4h-.2c.1 0 .1.2.1.2-.3 0-.7-.4-.6-.5h-.8c.1-.1.2-.1.3-.1-.5.1 0-.3-.4-.2 0 .1-.1.1-.1.2-.1-.2-.5-.4-.8-.5l.1-.1c-.5-.3-1-.5-1.6-.8.1.2-.1.4-.3.4l.1-.3c-.2.1.1.2-.2.2-.2-.2.1-.4.2-.4l-.3-.1c0-.1.1-.1.2-.2-.2.1-.2-.5-.5-.4v-.1c-.5-.3-.7-.5-1.1-.8-.2.2-.3 0-.5 0-.2-.3-.3-.8-.6-1.1-.3-.2-.2.1-.4 0 .2-.2-.1-.5.1-.4-.3-.4-.5-.5-1-1 0 .1 0 .2-.1.2-.1-.1-.1-.3 0-.3-.3-.2-.4-.7-.5-1.1 0-.4-.1-.8-.4-1l-.4-.5c-.1-.3.2.1.3-.1-.6-.5-.2-1-.6-1.5.3-.3.2-.6.1-1 0-.2-.1-.4-.1-.6 0-.2 0-.4.1-.5h-.2c-.2-.1.1-.2.1-.3-.1 0-.1.2-.2.1-.2-.6 0-1.3.1-1.9l.3-.9.3-.9c.2-.4-.7-.5-.2-.9l.2.2c0-.5.2-.9.3-1.4.2-.4.4-.9.5-1.3 0 .1.1.1.1.2.3-.1.4-.6.2-.7.1-.1.2.1.3 0 .2-.1 0-.6.3-.5v.1c0-.2.4-.5.1-.5.3-.2.3-.6.6-.7-.1-.3.5-.4.3-.7.3.3.6-.2.7-.5 0 .1.2 0 .3.1.2-.2.3-.4.1-.5.6 0 .5-.9 1.1-.6.1-.2.2-.3.4-.5l.4-.4c.3-.2.5-.5.8-.7.2.3-.6.4-.4.8.4-.5.7-.9 1.3-1.1.2 0 0 .2 0 .3.5-.4 1.2-.4 1.6-.8 0 0 0 .1-.1.1.1 0 .3 0 .2-.2l-.1.1c-.3-.2.3-.6.3-.8-.1.6.6 0 .4.7.1-.1.1-.2.1-.3.1 0 .2.1.1.2.4-.2.2-.3.6-.4 0 .1-.1.1-.1.2.2-.2.3-.4.6-.4 0 .1 0 .1-.1.1.5-.1.9-.5 1.5-.4-.2.4.2.1.2.4.1 0 .2-.1.3-.1l-.1-.2c.3 0 .5-.2.8-.1l-.2.1h.5l-.3-.1c.3-.2 0-.4.4-.3-.1 0 .3 0 .4.2.2-.1.3-.2.5-.1 0 .1-.1.4-.1.4.2-.2.7 0 .9-.2-.1.1-.1.2-.1.3l.2-.2c.1.1.1.1.1.3.4.1 0-.4.4-.1l-.1.1c.4.2.9.1 1.3.4 0 .4-.4-.1-.3.3.6.1 1.3.1 1.9.4l-.1-.1c.3-.4.3.4.7.3-.1 0-.2.2-.2.1.3.3.8.3 1.4.5l-.1.1c.1.2.5.4.7.6.1 0 .2.1.3-.1.1.5.4.7.8.9.4.2.7.4.7.8-.1-.1-.2-.1-.2 0l.5.4c.1-.2 0-.1.1-.3.1 0 .3 0 .4.2-.3-.1-.2.2-.3.4 0-.1.1-.1.2-.1-.1.5.4-.2.4.3h-.1c.1.1.4.1.4.3-.1.2-.2-.1-.4 0 .2.2.7.1.6.5-.1-.1-.2-.2-.3-.2-.1.4 0 .3 0 .5l.1.4v-.1c.7 0 .4.5 1 .7-.5-.2-.2 0-.5.1 0 .1 0 .3-.1.3.3.1 0 .4.4.5-.1 0 .1.2-.1.2.2.2.1-.1.2-.1.4.2 0 1 .6 1.4.3.4.6.4.8.9-.1.2-.3-.1-.3-.1-.1.3 0 .4.2.7-.1 0-.1 0-.2.1 0 .2.3.1.2.3-.1 0-.3-.1-.4-.1.1.2.3.4.4.6-.1.1-.2-.1-.4-.2.1.2.2.6.5.7l.1-.2c0 .1-.2.1-.2 0-.2-.2 0-.3.1-.3l.1.2c.5-.2-.2-.7-.2-1l.4.1-.4-.3c.1-.1.3-.2.4 0 .1-.3-.2-.2 0-.4h.1l-.2-.2c.1 0 .2-.1.2.1.1-.5-.4-.6-.2-.8-.3-.5-.3 0-.7-.3l.5-.5h-.3c0-.1 0-.2.1-.2-.3-.2-.1.1-.3 0 .1-.4-.4-.7-.1-.9-.2 0 0 .3-.3.1.4-.3-.2-.3-.2-.6.2 0 .2.3.3-.1-.4 0-.2-.5-.4-.7-.3.2-.4-.4-.7-.6.1 0-.3-.7-.4-1.1-.3.1-.5-.2-.7-.4.2-.1.2-.1.4-.1l-.2-.2c-.1 0-.2 0-.4-.1l.2-.1c-.3-.2-.7-.3-.9-.8-.2.1-.2.7-.6.5.1-.1.2-.3.3-.2 0 0-.2 0-.2-.1h.3c-.1-.2-.2.1-.3-.1.1-.1 0-.2.1-.3l.1.1c-.1-.1-.2-.4-.2-.5-.1.1-.2.2-.3.1-.3-.2 0-.2 0-.4-.1 0-.2-.2-.4 0-.1-.1 0-.2 0-.2-.2 0-.7-.5-.7-.1-.6-.2-.9-.8-1.5-1v-.1c-.3-.1-.7-.3-1-.2-.1 0-.1-.2-.1-.3-.3 0-.3 0-.6-.3.3 0 0-.2.3 0-.3-.2-.3-.3-.8-.3.2-.2-.2-.4-.3-.3l.2.2c-.2 0-.3-.1-.5-.2l.2-.2c-.6-.5-1.4.2-1.8-.4-.2.2.4.2.1.4-.3-.1-.6-.6-.7-.6-.4-.2-.5.3-.9.2.1.1.1.4-.3.5-.3-.1-.4-.5-.2-.5.1 0 .1 0 .1.1.1 0 .3-.1.1-.2l-.1.1c-.2-.1-.6-.1-.5-.3-.3.1-.1.2.1.2-.4-.2-.7-.1-1.1-.1.1.1.1.2.1.2-.6-.1-.3.2-.7.3-.3-.1.1-.4-.4-.2-.3-.1-.1-.3 0-.4-.4.2-.8 0-1 0l.2-.1c-.1.1-.2.1-.3.1l.2.2c-.1 0-.2 0-.2-.1-.1.2.2.3-.1.6-.2-.1-.5.2-.6-.1.5 0-.1-.3.3-.4-.1 0-.2.1-.3 0v-.1c-.5-.1-.2.4-.7.5 0-.2-.2-.3-.3-.2.2 0 .2.2 0 .4-.4 0-.3.2-.5.2h.2c0 .2-.2.2-.4.3-.1-.1.2-.1.1-.2-.1.3-.6-.1-.9.2-.2 0-.1-.3-.3-.3-.3.3-.5 0-.8.3.2.1.2.1 0 .4l.6-.4-.3.5c.2-.1.3-.3.5-.3-.1.2-.1.2 0 .3-.4-.2-.4.4-.8.3l-.2-.5c-.6 0-.7.6-1.3.9h.2c0 .2-.3.2-.4.4-.1-.2-.2-.1-.4-.2.1.1-.4.3-.2.6h-.4c-.5.2-.2.7-.6 1 0-.2-.3-.2-.1-.5-.1.1-.3.2-.2.3-.1 0-.2.5-.4.5 0 .1.1.2 0 .4l-.1-.1c.1.1-.1.3.1.3-.7 0-.9 1-1.5 1.1-.2.3-.4.7-.6 1 0 0-.1 0 0-.1-.4.3.3.5-.1.8-.4.1 0-.3-.2-.2-.5-.2-.3.6-.7.7v-.1c-.3.2-.1.7-.3 1h-.1c.1.4 0 .9 0 1.3-.2-.2 0-.2-.3-.2 0 .2.4.1.3.4-.2.1-.4.3-.6.2 0-.1.1-.2.1-.3-.4.1-.1.4-.2.6l-.1-.1c-.1.5.2.6.1 1.2h.1c.3.4-.2.2 0 .6h-.4c.1.2.2.8.2 1.1-.2-.2-.3-.7-.4-1 0 .2-.1.7.1.8 0-.1-.1-.2 0-.3.2.3.4.6.3 1-.7-.1-.2 1-.7 1.3.1.4.1.7.1 1.1 0 .4 0 .8.1 1.2.5-.4.1.2.6.1.1.2.1.3.1.3l-.2.6c-.1.2-.2-.2-.3-.1.1.4-.2.2-.2.6.2-.1.3.1.3.3l.1-.4c.4.5-.3.6.2 1.1l-.2-.1c.2.3.4 1.1 1 1.2 0 .1-.1.2-.2.1.1.4.4.7.7 1 .3.3.5.6.6.9h-.1c.1.1.3.1.3.3-.1 0-.1 0-.1.1.1 0 .4.2.5.4h-.2c.2.3.4.5.7.7.3.1.6.2.8.4-.3.3 0 .8.2 1 .6.6 1.3.8 2 1.1.1.3.4.6.8.9.4.3.8.5 1.1.8-.1-.1.2-.3.3-.2.1.2.6 0 .4.3h-.1c0 .4.4.5.7.6l.2-.4c.2.4.7.6 1.2.6s.9.1 1 .4c.2-.1.4 0 .6-.1l-.1.2c.5.1.8.2 1.4.2l-.1.2c.4 0 .5-.7.8-.7l.1.4c.6.1 1.3.3 1.9-.1 0 .1 0 .2-.1.2.3 0 1.2.1 1-.4.1.3.7-.1 1-.3v.3c.2-.4.2-.5.6-.6.1 0 .1.2 0 .1.3 0 .2-.3.6-.3l-.1.2c.3-.1.3-.1.4-.4.2-.2.6-.1.7 0 0-.1.1-.4.3-.4.1.1 0 .1 0 .2.6 0 .6-.6 1-.5 0 .1.1.1.1.1-.4.2-.7.3-.7.3.1.2.4.1.3.5.2-.3.5-.8.8-.9h.1c.1 0 .1-.1.2-.1s.2 0 .3-.1c.1.1.4-.1.6-.2-.1-.2.1-.3-.2-.4l-.1.1v.1c-.1.1-.2.1-.4.2.1-.2.1-.3.4-.3v-.5c.4.2.9.1 1 .2.3-.4 1-.8.9-1.4.1-.1.2 0 .3 0 0 .1-.1.2-.1.2.1-.3.6-.6.5-.9.4-.1.1.4.4 0v.1c.5-.2.7-.7.8-1.1.1-.5.2-.9.8-1.2-.1 0-.1.1-.2 0 1-.9 1.1-2.3 2-3.4.2-.3 0-.4 0-.7h.3c-.1-.1-.1-.3-.2-.4-.1-.6.9-.7.6-1.5l-.2.1c.1-.2 0-.8.2-.7 0 0-.2-.1-.1-.2h.1c0-.2-.1-.4-.2-.6.1-.4.5.1.6-.6 0-.3-.4-.7-.5-.6 0 .1-.1.3-.2.3l-.1-.2c-.4 0-.8-.2-1.1.3l.2.4-.2.1v-.3c-.2.2 0 .3.1.4-.1 0-.2.1-.2.1l.4.4c-.2 0-.3-.2-.4 0 .2.2.4-.1.5.2-.2.1-.4.1-.2.3-.1 0-.2 0-.2-.1.1.2 0 .5.2.6-.2.1 0 .6-.4.5.1.1.2.4.2.5-.4-.4-.2.6-.6.4.4.3-.1.8 0 1.2 0 0-.1-.1 0-.1-.1.2-.2.2-.4.3.3.2.2.5.3.8-.4.1-.3-.3-.6-.4.3.1.1.5.3.6-.3.1-.2.1-.5.1.4.2 0 .2.1.5-.3.1-.4-.1-.4.2.1.3.1-.1.1-.1zm-5 5.8c.1 0 .1-.1.1-.1.1 0 0 0-.1.1zm-.5.2c.1 0 .2-.1.3-.1.1.1.1.2 0 .2-.1-.1-.2 0-.3-.1zm2.1.9c-.1.1-.1.1-.2 0 0 0 .1-.1.2 0v-.1.1zm0-.4c0-.1-.1-.1 0 0zm.8-25.2c0 .1 0 .1 0 0 0 .1 0 .1 0 0zM477.9 167l-.1.1.1-.1zm13.9-22c0 .1 0 .1 0 0 0 .1 0 .1 0 0zm.9 1.4zm.5 1.1h.1-.1z"/><path class="st25" d="M476.9 140.9c-.1.1-.1.1 0 0zm5.6-1c-.1 0-.1.1-.2.1.1 0 .2 0 .2-.1zm-10.7 4.4h-.1zm10.2-4.4c.1.1.2 0 .3 0h-.3zm12.6 12.6zm0 0c0 .1 0 0 0 0zm.1.2l-.1-.1s0 .1.1.1zm-.3-1.8c-.1 0 0 0 0 0zm-.1-.5c0 .1-.1.3 0 .5h.1c-.2-.1 0-.4-.1-.5zm.3-2.3c0 .1.1.3.1.4.1-.1.1-.3.2-.1.1-.6-.1.2-.3-.3zm-.4-1.3c.1.2.1-.1.2-.1-.2-.1-.2-.1-.2.1zm-7.2-6.7l.1-.2c-.1 0 0 .1-.1.2zm-2.1.5c0 .1.1.1.1.2l.1-.2h-.2zm-.6-1.8h.1-.4zm-15.4 5.3l.2.1c.1-.1-.1-.3-.2-.1zm-2.9 6.6c-.2 0-.3.2-.2.4.1-.1.2-.3.2-.4zm9.5 17.9h-.2.3z"/><path class="st26" d="M486.9 151.1h.2-.2zm.4-.1h-.5.3c.2 0 .2-.1 0-.1.1.1.2.1.2.1zm-.5-1.6zm-1.1-.5zm-.2-.2s0-.1 0 0zm1.3.7zm-.1 1.5s.1 0 0 0c.1 0 .1 0 0 0zm.6-1.3s.1 0 0 0zm.3.4l-.2.1c.1 0 .1-.1.1-.1h.1zm-.1.7zm-.4-1.3s.1 0 0 0zm-.7 1.9zm1-.2h.1zm-2.4-2.6c.1-.1 0-.1 0 0zm-1.9 3.2c.2-.1.2 0 .4-.1-.1 0-.3 0-.4.1zm3.7-.8zm-3.3.7zm.6-2.6s.1 0 0 0c.1 0 0 0 0 0zm.8-.1zm-.9.5zm-.3.3c.1 0 .1 0 0 0zm2.6 2l.1.1c-.1 0-.1-.1-.1-.1zm.5-.8zm-1.8-.3zm.3 1.5c0-.1 0-.1 0 0zm-.3-1.5c-.1 0-.1-.1-.1-.1 0 .1 0 .1.1.1zm1.4 1.2z"/><path class="st26" d="M486.1 151.5s.2.1.3.2c.1 0-.1-.1-.3-.2l.3.3-.1-.1c.2.1 0 0 .2.2h-.1c.1.1.2.2.3.2 0 0 .1.1 0 0l-.1-.1v.1c-.2-.1 0-.1-.2-.2 0 .1.2.2.1.2-.2-.2 0-.1-.2-.2h.1l-.3-.2c-.1 0 .1.1 0 .1l.2.2c.1.2-.4-.4-.2-.2.1.1.3.4.2.3l-.2-.2s.2.3.1.2c-.1-.1 0-.1-.1-.1-.1-.2.1.1.1.1l-.1-.2v.3c0-.1-.1-.1-.1-.2 0 .1-.1 0-.2-.1v.1c0-.1 0 .1.1.2 0 0 0-.1-.1-.2 0 .2 0 .4-.1.2v-.1.2c-.1-.1-.2.1-.2-.2 0 .3 0-.1-.1.3v-.4s-.1.2-.1.3v-.2l-.1.2.1-.3v.3c-.1.1 0-.2 0-.3 0 .1-.1.1-.1.2 0-.1.1-.1.1-.2-.1.2.1-.2 0 0 0 0-.1.1-.1.2v-.1l.1-.1h-.1c0 .1-.2.3-.2.3l.1-.2c-.1.1 0 .1-.1.2 0 0 .1-.2.2-.3l-.1.1c0-.1.1-.1.1-.2-.1.1.1-.2 0 0v-.1h-.1l-.2.2c0-.1.1-.2.1-.2-.1 0-.1.1-.2.2l.2-.2h-.2c-.1 0-.1.1-.1.1l.1-.1c-.3.1.4-.3.1-.2h-.2s.1 0 .2-.1c-.3 0 0-.1-.2-.1.5-.1-.1-.1.3-.2h-.2c-.2-.1.2-.2.3-.2l-.3-.1.2.1c-.2-.1 0-.1-.1-.3l.1.1c.2.1 0 0-.1-.1 0 0 .1.1.2.1s-.2-.1 0-.1h.1l-.1-.1c.1 0 0-.1.1 0-.2-.2.1 0-.1-.2.2.2.2.1.1 0l.2.2s0-.1-.1-.2c.3.3-.1-.3.2.1-.1-.2-.1-.3-.1-.4.1.3 0 .1.1.3 0-.1-.1-.4 0-.3 0 0 0 .1.1.2 0-.1.1 0 .1-.2-.1-.2-.1-.4-.1-.5.1.4.1.1.2.6v-.2.1s.1-.4.1-.2v.4-.2s.1-.2.1-.1v.1h.1v-.1c0-.1 0-.3.1-.3v.2c0-.1.1-.2.1-.1s0 .3-.1.3c0-.2.1-.1.1-.3v.2-.2.2s.1-.3.1-.2v.1c0 .1.1-.1.1 0-.1.3-.1 0-.1.3.1 0 .2-.3.3-.2.2-.3 0 .2.1 0 0 0-.1.2-.1.1 0 .1.1 0 .2-.1l-.1.1v.1c.1-.1.1 0 .1-.2-.3.5.3-.1.1.3h-.1.1l.2-.2c.1-.1.1-.1.2-.1-.1 0-.2.2-.3.2l.1-.1c-.2.2.3-.2.1 0h-.1s.1-.1.1 0c-.1.1-.1 0-.2.1 0 0 .3-.2.2 0h-.1c-.2.1-.1.1-.1.1l-.1.1c.4-.2.1 0 .4-.1-.3.1-.2.1-.3.2 0 0-.1.1-.2.1.2-.1-.1.1.1 0-.1 0 0 0-.2.1.1 0 .1-.1.2-.1.2-.1-.2.2.1.1h.5-.2c-.1.1-.1.1 0 .1h-.2.2-.3.3-.3.3c.4-.1-.1-.1-.1-.1h.3-.2c.1 0 .2-.1.3-.1.1-.1-.1 0 0-.1h-.1c.1 0 .2-.1.2 0 .1-.1-.2 0 0-.1-.1 0-.2.1-.5.1l.5-.2-.2.1.1-.1c-.1 0-.1 0-.2.1.2-.1-.1-.1.2-.2-.2.1-.1.1-.2.1.3-.2-.1 0 .1-.1s.1 0 .2-.1c-.3.1 0-.1 0-.1-.2.1-.1 0-.2 0 .1 0 .1-.2.1-.3-.2.1-.2.1-.3.1.1-.1.2-.1.2-.2-.1 0-.1.1-.1.1l.2-.1s-.2.1-.2-.1c-.1.1-.3.4-.4.4l.2-.2s-.1 0 0 0l.1-.1c0-.1-.1.1-.1.1.1-.1.1-.1.1-.2 0 0 0 .1 0 0 0 0 0-.1.1-.2l-.1.1s.1-.1.1-.2c-.1.1 0 0-.2.1 0 0 0-.1.1-.1-.1.1-.1-.1-.2.1-.2.1-.1-.2-.2-.2v-.1c-.1 0-.1 0-.2.1 0 0 0-.1.1-.2-.1 0-.1.1-.1 0 .1-.1 0-.1.1-.1 0-.1 0-.2-.1 0 .1-.2 0-.2 0-.2v.1h-.1l.1-.2c0-.3-.3.4-.3-.1-.1.2 0 .1 0 .3 0 0 0-.4-.1-.4-.1-.1-.1.3-.2.2 0 .1 0 .3-.1.4v-.6.1c0-.1-.1-.1-.1-.2v.2c-.1-.1-.1 0-.2-.1v.1c-.1-.1 0 .2-.1.2 0-.1 0-.3-.1-.2v-.3c-.1.2-.1-.1-.2-.1v-.1h-.1v.2l-.1-.1c0 .1.1.3 0 .4 0-.1-.1.1-.1-.1.1.1-.1-.2 0-.3h-.1v-.1c-.1-.2 0 .3-.1.3 0-.1-.1-.2-.1-.2s.1.2.1.3c-.1-.1 0 .1-.1.1v.1c0 .2-.2-.2-.2 0-.1-.1-.1-.2-.1-.3 0 .2-.1-.1-.1 0 .1.1.1.1.1.3v-.2.2c0 .1 0 .1.1.2-.1-.2 0 .2-.1 0l-.2-.4c-.2-.1 0 .3-.2.2h.1c.1.1 0 .1 0 .1l-.2-.2c.1.1-.1 0 .1.3l-.1-.1c-.1 0 .2.4.1.4-.1-.1-.2-.2-.2-.3 0 0-.1 0 0 .1-.1-.1.1.2 0 .1 0 .1.1.2.1.2s0 .1.2.2c-.4-.2-.1.2-.4 0v.2s-.1 0 0 0c-.1 0 .3.2.2.2-.2-.1-.1-.1-.2-.1-.4-.2 0 .1-.2 0-.2 0 .1.2.1.2h-.1c.2.1.2.2.3.3-.2-.1-.1-.1-.3-.1 0 0 .3.1.3.2-.1 0-.2 0-.4-.1v-.1c-.2-.1 0 .1-.1.1h-.1c0 .1.3.2.2.2h.1c.3.1-.2 0 0 .1h-.3c.1 0 .2.1.3.2-.2 0-.3-.1-.4-.2 0 0 0 .1.1.1 0 0-.1 0 0 0 .2.1.3.1.3.2-.5 0-.1.1-.6.2.2.1-.1.2 0 .4l.4-.1c-.1 0-.2.1-.2.1-.1.1-.1 0-.2 0 0 .1-.2.1-.3.2.1-.1.2 0 .2 0l.2-.1c.2 0-.3.2-.1.2h-.1c.1 0 .1.2.4.1 0 0-.1.1-.2.1 0 .2.4.1.3.3h-.1s.2-.1.1 0l-.1.1s.2-.1.2 0h-.1c0 .2.3 0 .5 0-.2.2-.2.3-.2.4.1.1.4 0 .5 0-.1.3.1.3.2.5 0-.1.1-.2.1-.2 0 .1.2-.2 0 .1-.1.3 0 .2 0 .2l.1-.3c-.1.6.4-.1.3.4.1-.1.1-.1.1-.2v.2c.1.1.1.1.2.1v.1c.1 0 .1-.6.2-.6v.3c.1 0 .2.3.3 0v.1s.2.2.1-.2c0 .3.1 0 .1-.1v-.2s.1.1 0 .1c.1.1 0-.2.1-.1v.1c.1 0 0-.1 0-.2s.1 0 .2.2c0-.1-.1-.2 0-.2v.1c.1.1 0-.3.1-.1 0 .1 0 .1.1.1h-.1l.2.4c0-.1-.1-.4 0-.4v.1h.1c.1.1.1 0 .1 0-.1-.2-.1-.2-.2-.3h-.1c0-.1-.1-.2 0-.1-.1-.1-.1-.2-.1-.3l.4.4c0-.1.1-.2-.1-.5l.1.1v.1c0-.1.1-.1-.1-.3.1 0 .1.2.2.1v.1c.2.1.1-.1.1-.2-.1-.1-.2-.3.1-.2h-.1c.3 0 0-.4.4-.4.1 0-.1-.1-.2-.2l.2.1-.2-.1c-.2-.1.5 0 .2-.2h-.1s-.1-.1.1-.1h-.1.1c-.1 0-.1-.1-.2-.1.1-.1.4 0 .5-.1 0 0-.3-.1-.4-.1H486h.2-.3l.3.1h-.3c.1 0 .3 0 .4.1h-.3c.1 0 0 0 .2.1-.2 0 0 .1-.3 0 .1 0 .2.1.2.1l-.4-.1c.3.1.1.1.3.2h-.3c.3.1.3.2.4.2.4.3.4.2 0 .2.3.1.3.1.5.2-.2-.1-.1 0-.3-.1.3.2 0 0 .2.1-.2-.1-.3-.2-.2-.1-.1-.1-.2-.1-.2-.1zm.1.7zm-.1.1l.1.1c0-.1-.1-.1-.1-.1zm.8 1.1c0-.1 0-.1 0 0 0-.1 0 0 0 0zm-.1-.3zm0-3.6zm-1.4 2.5zm1.3-1.7c-.1 0-.1 0 0 0zm0 .1zm0 .2c0-.1 0-.1 0 0zm-1.4-.4z"/><path class="st26" d="M485.8 149.7c-.1 0-.1 0 0 0-.1.1-.1.1 0 0zm-.8.9zm.7-.8c0-.1 0-.1 0 0zm1 1.2zm.1 0zm0 0zm0-.1c-.1 0 0 0 0 0zm0-.1s-.2.1 0 0c-.2.1.1 0 0 0zm.7-.5h.2c.2-.1-.2.1-.2 0zm0-.2l.1-.1-.1.1zm-1-1l.1-.2c-.1.1-.1.1-.1.2zm-.5.8l-.1.1.1-.2zm.1-1.3h.1l-.1.1zm-2.5.9l.2.1-.2-.1zm-.2 1.2c-.2-.1-.2 0 0 0-.1 0 0 0 0 0zm1.3 2.9l-.1.1.1-.1zm-8.1-2.5h.2-.2zm.4-.1h-.5.3c.2 0 .2-.1 0-.1.1.1.2.1.2.1zm-.5-1.6zm-1.1-.5c.1 0 .1 0 0 0zm-.2-.2s0-.1 0 0zm1.3.7zm-.1 1.5c.1 0 .1 0 0 0 .1 0 .1 0 0 0zm.6-1.3c.1 0 .1 0 0 0zm.3.4l-.2.1c.1 0 .1-.1.1-.1h.1zm-.1.7zm-.4-1.3c.1 0 .1 0 0 0zm-.7 1.9zm1-.2h.1zm-2.3-2.6c0-.1 0-.1 0 0zm-2 3.2c.2-.1.2 0 .4-.1-.1 0-.3 0-.4.1zm3.7-.8zm-3.3.7zm.6-2.6s.1 0 0 0c.1 0 .1 0 0 0zm.8-.1zm-.9.5zm-.2.3zm2.5 2l.1.1c-.1 0-.1-.1-.1-.1zm.6-.8c-.1 0-.1 0 0 0-.1 0-.1 0 0 0-.1 0-.1 0 0 0zm-1.8-.3c-.1 0 0 0 0 0zm.2 1.5c0-.1 0-.1 0 0zm-.3-1.5c-.1 0-.1-.1-.1-.1 0 .1 0 .1.1.1zm1.5 1.2z"/><path class="st26" d="M475.9 151.5s.2.1.3.2c0 0-.2-.1-.3-.2l.3.3-.1-.1c.2.1 0 0 .2.2h-.1c.1.1.2.2.3.2 0 0 .1.1 0 0l-.1-.1v.1c-.2-.1 0-.1-.2-.2 0 .1.2.2.1.2-.2-.2 0-.1-.2-.2h.1l-.3-.2c-.1 0 .1.1 0 .1l.2.2c.1.2-.4-.4-.2-.2.1.1.3.4.2.3l-.2-.2s.2.3.1.2c-.1-.1 0-.1-.1-.1-.1-.2.1.1.1.1l-.1-.2v.3c0-.1-.1-.1-.1-.2 0 .1-.1 0-.2-.1v.1c0-.1 0 .1.1.2 0 0 0-.1-.1-.2 0 .2 0 .4-.1.2v-.1.2c-.1-.1-.2.1-.2-.2 0 .3 0-.1-.1.3v-.4s-.1.2-.1.3v-.2l-.1.2.1-.3v.3c-.1.1 0-.2 0-.3 0 .1-.1.1-.1.2 0-.1.1-.1.1-.2-.1.2.1-.2 0 0 0 0-.1.1-.1.2v-.1l.1-.1h-.1c0 .1-.2.3-.2.3l.1-.2c-.1.1 0 .1-.1.2 0 0 .1-.2.2-.3l-.1.1c0-.1.1-.1.1-.2-.1.1.1-.2 0 0v-.1h-.1l-.2.2c0-.1.1-.2.1-.2-.1 0-.1.1-.2.2l.2-.2h-.2c-.1 0-.1.1-.1.1l.1-.1c-.3.1.4-.3.1-.2h-.2s.1 0 .2-.1c-.3 0 0-.1-.2-.1.5-.1-.1-.1.3-.2h-.2c-.2-.1.2-.2.3-.2l-.3-.1.2.1c-.2-.1 0-.1-.1-.3l.1.1c.2.1 0 0-.1-.1 0 0 .1.1.2.1s-.2-.1 0-.1h.1l-.1-.1c.1 0 0-.1.1 0-.2-.2.1 0-.1-.2.2.2.2.1.1 0l.2.2s0-.1-.1-.2c.3.3-.1-.3.2.1-.1-.2-.1-.3-.1-.4.1.3 0 .1.1.3 0-.1-.1-.4 0-.3 0 0 0 .1.1.2 0-.1.1 0 .1-.2-.1-.2-.1-.4-.1-.5.1.4.1.1.2.6v-.2.1s.1-.4.1-.2v.4-.2s.1-.2.1-.1v.1h.1v-.1c0-.1 0-.3.1-.3v.2c0-.1.1-.2.1-.1s0 .3-.1.3c0-.2.1-.1.1-.3v.2-.2.2s.1-.3.1-.2v.1c0 .1.1-.1.1 0-.1.3-.1 0-.1.3.1 0 .2-.3.3-.2.2-.3 0 .2.1 0 0 0-.1.2-.1.1 0 .1.1 0 .2-.1l-.1.1v.1c.1-.1.1 0 .1-.2-.3.5.3-.1.1.3h-.1.1l.2-.2c.1-.1.1-.1.2-.1-.1 0-.2.2-.3.2l.1-.1c-.2.2.3-.2.1 0h-.1s.1-.1.1 0c-.1.1-.1 0-.2.1 0 0 .3-.2.2 0h-.1c-.2.1-.1.1-.1.1l-.1.1c.4-.2.1 0 .4-.1-.3.1-.2.1-.3.2 0 0-.1.1-.2.1.2-.1-.1.1.1 0-.1 0 0 0-.2.1.1 0 .1-.1.2-.1.2-.1-.2.2.1.1h.5-.2c-.1.1-.1.1 0 .1h-.2.2-.3.3-.3.3c.4-.1-.1-.1-.1-.1h.3-.2c.1 0 .2-.1.3-.1.1-.1-.1 0 0-.1h-.1c.1 0 .2-.1.2 0 .1-.1-.2 0 0-.1-.1 0-.2.1-.5.1l.5-.2-.2.1.1-.1c-.1 0-.1 0-.2.1.2-.1-.1-.1.2-.2-.2.1-.1.1-.2.1.3-.2-.1 0 .1-.1s.1 0 .2-.1c-.3.1 0-.1 0-.1-.2.1-.1 0-.2 0 .1 0 .1-.2.1-.3-.2.1-.2.1-.3.1.1-.1.2-.1.2-.2-.1 0-.1.1-.1.1l.2-.1s-.2.1-.2-.1c-.1.1-.3.4-.4.4l.2-.2s-.1 0 0 0l.1-.1c0-.1-.1.1-.1.1.1-.1.1-.1.1-.2 0 0 0 .1 0 0 0 0 0-.1.1-.2l-.1.1s.1-.1.1-.2c-.1.1 0 0-.2.1 0 0 0-.1.1-.1-.1.1-.1-.1-.2.1-.2.1-.1-.2-.2-.2v-.1c-.1 0-.1 0-.2.1 0 0 0-.1.1-.2-.1 0-.1.1-.1 0 .1-.1 0-.1.1-.1 0-.1 0-.2-.1 0 .1-.2 0-.2 0-.2v.1h-.1l.1-.2c0-.3-.3.4-.3-.1-.1.2 0 .1 0 .3 0 0 0-.4-.1-.4-.1-.1-.1.3-.2.2 0 .1 0 .3-.1.4v-.6.1c0-.1-.1-.1-.1-.2v.2c-.1-.1-.1 0-.2-.1v.1c-.1-.1 0 .2-.1.2 0-.1 0-.3-.1-.2v-.3c-.1.2-.1-.1-.2-.1v-.1h-.1v.2l-.1-.1c0 .1.1.3 0 .4 0-.1-.1.1-.1-.1.1.1-.1-.2 0-.3h-.1v-.1c-.1-.2 0 .3-.1.3 0-.1-.1-.2-.1-.2s.1.2.1.3c-.1-.1 0 .1-.1.1v.1c0 .2-.2-.2-.2 0-.1-.1-.1-.2-.1-.3 0 .2-.1-.1-.1 0 .1.1.1.1.1.3v-.2.2c0 .1 0 .1.1.2-.1-.2 0 .2-.1 0l-.2-.4c-.2-.1 0 .3-.2.2h.1c.1.1 0 .1 0 .1l-.2-.2c.1.1-.1 0 .1.3l-.1-.1c-.1 0 .2.4.1.4-.1-.1-.2-.2-.2-.3 0 0-.1 0 0 .1-.1-.1.1.2 0 .1 0 .1.1.2.1.2s0 .1.2.2c-.4-.2-.1.2-.4 0v.2s-.1 0 0 0c-.1 0 .3.2.2.2-.2-.1-.1-.1-.2-.1-.4-.2 0 .1-.2 0-.2 0 .1.2.1.2h-.1c.2.1.2.2.3.3-.2-.1-.1-.1-.3-.1 0 0 .3.1.3.2-.1 0-.2 0-.4-.1v-.1c-.2-.1 0 .1-.1.1h-.1c0 .1.3.2.2.2h.1c.3.1-.2 0 0 .1h-.3c.1 0 .2.1.3.2-.2 0-.3-.1-.4-.2 0 0 0 .1.1.1 0 0-.1 0 0 0 .2.1.3.1.3.2-.5 0-.1.1-.6.2.2.1-.1.2 0 .4l.4-.1c-.1 0-.2.1-.2.1-.1.1-.1 0-.2 0 0 .1-.2.1-.3.2.1-.1.2 0 .2 0l.2-.1c.2 0-.3.2-.1.2h-.1c.1 0 .1.2.4.1 0 0-.1.1-.2.1 0 .2.4.1.3.3h-.1s.2-.1.1 0l-.1.1s.2-.1.2 0h-.1c0 .2.3 0 .5 0-.2.2-.2.3-.2.4.1.1.4 0 .5 0-.1.3.1.3.2.5 0-.1.1-.2.1-.2 0 .1.2-.2 0 .1-.1.3 0 .2 0 .2l.1-.3c-.1.6.4-.1.3.4.1-.1.1-.1.1-.2v.2c.1.1.1.1.2.1v.1c.1 0 .1-.6.2-.6v.3c.1 0 .2.3.3 0v.1s.2.2.1-.2c0 .3.1 0 .1-.1v-.2s.1.1 0 .1c.1.1 0-.2.1-.1v.1c.1 0 0-.1 0-.2s.1 0 .2.2c0-.1-.1-.2 0-.2v.1c.1.1 0-.3.1-.1 0 .1 0 .1.1.1h-.1l.2.4c0-.1-.1-.4 0-.4v.1h.1c.1.1.1 0 .1 0-.1-.2-.1-.2-.2-.3h-.1c0-.1-.1-.2 0-.1-.1-.1-.1-.2-.1-.3l.4.4c0-.1.1-.2-.1-.5l.1.1v.1c0-.1.1-.1-.1-.3.1 0 .1.2.2.1v.1c.2.1.1-.1.1-.2-.1-.1-.2-.3.1-.2h-.1c.3 0 0-.4.4-.4.1 0-.1-.1-.2-.2l.2.1-.2-.1c-.2-.1.5 0 .2-.2h-.1s-.1-.1.1-.1h-.1.1c-.1 0-.1-.1-.2-.1.1-.1.4 0 .5-.1 0 0-.3-.1-.4-.1h-1.2.2-.3l.3.1h-.3c.1 0 .3 0 .4.1h-.3c.1 0 0 0 .2.1-.2 0 0 .1-.3 0 .1 0 .2.1.2.1l-.4-.1c.3.1.1.1.3.2h-.3c.3.1.3.2.4.2.3.3.3.2 0 .2.3.1.3.1.5.2-.2-.1-.1 0-.3-.1.3.2 0 0 .2.1-.2-.1-.3-.2-.2-.1-.1-.1-.2-.1-.2-.1zm0 .7zm-.1.1l.1.1c0-.1-.1-.1-.1-.1zm.8 1.1c0-.1 0-.1 0 0 0-.1 0 0 0 0zm-.1-.3zm0-3.6zm-1.4 2.5zm1.3-1.7c-.1 0 0 0 0 0zm0 .1z"/><path class="st26" d="M476.4 150.6c0-.1.1-.1 0 0zm-1.4-.4zm.5-.5s-.1 0 0 0c-.1.1 0 .1 0 0zm-.7.9zm.6-.8c0-.1 0-.1 0 0zm1 1.2c.1 0 .1 0 0 0zm.1 0zm0 0zm0-.1zm0-.1s-.2.1 0 0c-.2.1.1 0 0 0zm.7-.5h.2c.2-.1-.2.1-.2 0zm0-.2l.1-.1-.1.1zm-1-1l.1-.2c-.1.1-.1.1-.1.2zm-.5.8v.1-.2zm.2-1.3l-.1.1zm-2.5.9l.2.1c-.1 0-.3-.1-.2-.1zm-.3 1.2c-.1-.1-.2 0 0 0-.1 0 0 0 0 0zm1.3 2.9l-.1.1.1-.1z"/><path class="st27" d="M491.4 156.8s-.1-.1-.2-.1l.2.1zm-.5-.1c.1.1.2.3.4.4-.1-.2-.1-.1-.2-.3 0 0 .1 0 .2.1 0 0 .1 0 0-.1-.2-.1-.2 0-.1.1-.2-.2-.3-.2-.3-.2zm-2.5 2.1zm-1.7 1.2c0-.1 0-.1 0 0 0-.1 0-.1 0 0zm-.4-.1zm2.1-1.1c-.1 0-.1 0 0 0zm2.6-1.4s0-.1 0 0c0-.1 0-.1 0 0zm-2.1.7c0-.1 0-.1 0 0zm.4-.6l.2.2-.1-.1-.1-.1zm1-.5c0-.1 0 0 0 0zm-1.8 1.4c0-.1 0-.1 0 0 0-.1 0-.1 0 0zm-17.4.5zm.1-1.3h.1zm14.5 2.5c0-.1 0-.1 0 0zm-5.1 1.6c.1.2-.1.2 0 .4 0 0 .1-.3 0-.4zm10.4-4.3zm-10.4 4.7zm3.9-1.3s0 .1 0 0c0 .1 0 0 0 0zm1-.2zm-1.4.7s0-.1 0 0zm-.5.2zm-11.1-1.4c0-.1.1-.1.1-.2-.1.2-.2.2-.1.2zm18.4-2.8c.1 0 .1.1 0 0 .1 0 0 0 0 0zm-6.2 5.4h-.1.1zm-8.3-.2zm7.9.4c0-.1-.1-.1-.1-.1l.1.1zm-11.7-2.9z"/><path class="st27" d="M471.8 159.9c.1.1.2-.2.3-.3.1 0-.1.2-.1.3.1 0 .3-.1.3-.1s0 .1-.1.1c.2-.1.2.1.4 0v.1c.1-.1.2-.2.2-.3 0 0 .2-.1.1.1 0 0-.1 0-.1.1h.1c-.1.2-.1 0-.2.2.1 0 .3-.1.3 0-.1.2-.2 0-.2.2v-.1c-.2.3 0-.1-.2.3.1.1.2 0 .3.1.1-.1.1-.2.2-.2.3-.1-.2.6.1.4.1-.1.3-.3.3-.1l-.2.2c.1.1.3-.3.3 0-.1.1-.1 0-.1 0-.1.2.1-.1.2 0l-.1.2c.1.1.4 0 .5.1 0 .1-.1.1-.1.2.2 0 .3.3.4.5l.2-.1s0 .1-.1.1c0 .1.1-.1.1-.2 0 0 0 .1-.1.2.2-.1.5-.1.5.1h-.1c.1.1.3-.3.3-.1.2.2.5.1.5.5.2-.3.2.2.3-.1 0 .2 0 .3.1.5l.2-.2-.1.2.2-.2-.1.3h.1v-.2c.1-.1.1.2.1.3l.3-.1c0 .1-.1.1-.1.1.2-.2-.1.2.1.1 0-.1.1-.1.1-.2 0 .1.1.2.2.2l-.1.1c.1.1.3 0 .5.1 0-.1 0-.3.1-.3v.2c.1-.1 0-.1.1-.2.1 0 0 .3-.1.3l.1-.1c0 .1 0 .1-.1.2.1-.1.1.3.2 0v.1h.4c0-.2.1-.1.2-.3.1.1.2.3.3.3.1-.1.1-.2.1-.3 0 .2.1.2 0 .3.2 0 .2 0 .4-.1v-.2s.1.1.1.2c.2-.2.5.6.7.2l.2-.2c.1 0-.1.1 0 .2.2-.3.3 0 .5-.1.1.5.4 0 .6.3v-.1c0-.1.1.1.1.1 0-.1-.1-.1 0-.2.2-.1.4-.1.6 0 .2.1.4.1.6.1.1 0 0-.6.2-.4v.2c.2-.3.6-.1.8-.4v.1c.1.1.2 0 .2-.2 0 0 0 .1.1.2s.1-.2.2-.1v.1c0-.1.2 0 .1-.2.1.1.2-.1.3-.1 0-.2.2 0 .1-.3.1.3.3.2.3 0 0 .1.1.1.1.2.1 0 .1-.1 0-.3.3.3.1-.4.4 0 .1-.2.3-.4.4-.6.1.3-.2.1 0 .4.1-.2.1-.5.3-.5.1 0 0 .1.1.2.1-.2.3-.2.4-.4v.1s.1 0 0-.1c-.1-.2-.1-.4-.2-.5.2.4.2 0 .4.5 0 0 0-.1-.1-.2 0 0 .1.1.1.2.1-.1-.1-.2 0-.3 0 .1 0 .1.1.2 0-.1-.1-.3 0-.3 0 0 .1.1 0 .1.1-.1 0-.4.2-.4.1.3.1.1.3.3v-.1l-.1-.1c.1 0 0-.2.1-.2v.1l.1-.1h-.1c0-.2-.2-.3-.1-.3 0 0 .1 0 .2.1v-.2c.1.1.2.2.2.3-.1-.2.1-.2 0-.4 0 .1.1.2.1.2l-.1-.2c.1 0 .1 0 .1.1.1 0-.2-.2 0-.2v.1c.1 0 .1-.2.3-.2.2.2 0 .1.1.3.1-.1.1-.5.2-.5-.2-.3.2.1.2-.1 0 0 .1.2.1.1.1 0 .1-.2.2-.4v.1c.1 0 .2-.1.2-.1 0-.1 0-.1-.1-.2.5.2.1-.5.6-.3v.1l.1-.2c-.1-.1-.1-.1-.2-.1-.1-.1-.1-.2 0-.2 0 .1.2.2.3.2l-.1-.1c.3.1-.2-.2 0-.2l.1.1c0-.1-.1-.2 0-.2.1.1 0 .1.1.2 0-.1-.2-.3 0-.3v.1l.2.1h.2-.1c-.3-.4.1-.2-.1-.5.1.3.1.1.3.3.1 0 .1 0 .2.1-.1-.2.2 0 0-.2.1 0 0 0 .2.1 0-.1-.1-.1-.2-.1-.1-.2.4 0 .2-.3 0-.2-.2-.4-.2-.5.1 0 .2.2.2.2.1 0 .1 0 .1-.1 0 0 .1.1.2.1 0 0-.2-.2 0-.2l.2.2c0-.1-.1-.2-.1-.3l.2.2c0-.1 0-.2-.1-.3h-.1l.1.1c.1.1-.1 0-.2 0v-.1c-.3-.2-.1.2-.1.2l-.2-.2.1.2c-.1 0-.2-.1-.2-.2-.1 0 0 .1-.1 0v.1s-.2-.1-.1-.1c-.2 0 0 .3-.1.2 0 .2.2.2.3.4l-.4-.3.1.2h-.1l.2.2c-.2-.1-.1.2-.3 0 .1.1.1 0 .2.2-.3-.2 0 .1-.2 0-.1-.1 0-.1-.2-.2.2.2-.1 0-.1.1.2.2 0 .2 0 .3-.1-.1-.2 0-.4 0 .2.2.1.2.1.3-.1-.1-.1-.2-.2-.2 0 .1.1.1.1.2l-.1-.1c-.1.1 0 .3-.1.3.1.1.4.3.4.5l-.2-.2v.1l-.1-.1c-.1 0 .1.1 0 .1-.1-.1-.1-.1-.2-.1 0 0 .1 0 0 0 0 0-.1 0-.2-.1.1.1.1.1.1.2-.1.1-.1-.1-.2-.1.1.1-.1 0 .1.2l-.1-.1c0 .1-.1.2.1.3 0 .2-.3.1-.3.3v-.1c0 .1-.1.2-.1.3 0 0-.1-.1-.2-.1 0 .1 0 .1-.1.1 0-.1-.1-.1 0-.1-.1 0-.2-.1-.1.1-.1-.2-.2-.1-.2-.1l.1.1-.1.1-.1-.2c-.3-.1.1.6-.3.3.1.2.1 0 .2.2-.1 0-.3-.2-.4-.2-.2 0 .1.3 0 .3.1.1.2.2.2.3-.1 0-.3-.2-.3-.3 0 0 0-.1-.1-.1v.1c-.1 0-.2 0-.2-.1 0 .1.1.1.1.1-.2 0-.1.1-.3.1l.1.1c-.2 0 0 .2 0 .3-.1-.1-.1-.3-.2-.1-.1 0-.1-.2-.1-.2 0 .2-.2 0-.3 0v-.1.1l.1.1s-.1 0-.1-.1c0 .1.2.2.2.4-.1 0-.1.1-.2 0 .1 0-.1-.2-.1-.3h-.1v-.1c-.2-.1.1.2 0 .3-.1-.1-.1-.2-.1-.2s.1.2.1.3c-.1 0 0 .1-.1.1h.1v.2c-.1-.1 0-.1 0-.1.1.2-.2-.1-.2 0-.1-.1-.1-.2-.2-.2 0 .2-.2-.1-.2.1.1.1.1.1.1.3l.1-.2v.3s0-.1.1-.1c0 .1 0 .1.1.2-.2-.2 0 .2-.2.1l-.2-.4c-.2-.1-.1.3-.3.2h.1c.1.2-.1.1-.1.1-.1-.1-.1-.2-.2-.2 0 .1-.1 0 0 .3l-.1-.1c-.1 0 0 .4-.1.4 0-.2-.1-.2-.1-.4 0 0-.1 0 0 .1-.1-.1 0 .2-.1.1 0 .1.1.2 0 .2v-.1c0 .1 0 .1.1.2-.3-.4-.3.1-.5-.2l-.2.2v-.1c-.1-.1.1.4-.1.3-.1-.2 0-.1 0-.2-.1-.4-.1.1-.3-.1-.1-.1-.1.2-.2.2v-.1c0 .2-.1.3-.2.4v-.3s.1.3 0 .3c0-.1-.1-.2-.2-.4h.1c-.1-.2-.1 0-.2 0v-.1c-.1.1-.1.3-.2.3v.1c0 .3-.1-.1-.1.1l-.1-.3c0 .1-.1.3-.2.4 0-.2.1-.3.2-.5 0 0-.2 0-.2.2 0 0 0-.1.1-.1 0 .2-.1.3-.2.3 0-.5-.3-.1-.4-.5-.2.2-.3-.1-.5 0 .1.4-.1 0 0 .4h-.1l-.1-.3v-.2c-.1 0 0-.2-.1-.3 0 .2 0 .2-.1.2l.1.2c-.1.2-.1-.4-.2-.1v-.1c-.1.1-.2 0-.3.3v-.2c-.2-.1-.4.3-.5.1v-.1s-.1.2-.1.1v-.1s-.1.2-.1.1l.1-.1c-.1-.2-.3.2-.4.3.1-.3 0-.4-.1-.5-.2-.1-.4.2-.6.2 0-.3-.3-.2-.4-.5 0 .1-.1.2-.1.2 0-.1-.2.2-.1-.1.1-.3 0-.2-.1-.3l-.1.3c0-.6-.5 0-.4-.5-.1.1-.1 0-.2.1l.1-.2c-.1-.1-.1-.1-.3-.2l.1-.1c-.1 0-.3.5-.4.4l.1-.3c-.1-.1-.1-.4-.4-.2l.1-.1c-.1 0-.1-.3-.3.1.1-.2-.1-.1-.2 0l.1-.2c-.2.2-.2.2-.3.2l.1-.1c0-.1-.1.1-.2 0l.1-.1c-.1-.1-.1 0-.2.1-.1 0-.1-.1 0-.3-.1.1-.2.2-.2.1s.1-.1.1-.1c0-.2-.3.1-.2-.1 0-.1 0-.1.1-.1l.1.1c.1-.1.1-.2.2-.4-.1.1-.4.3-.4.1v-.1h-.1v-.1c.1-.1 0-.1-.1-.1-.1.2-.1.1-.2.3h.1c-.1.1-.2.1-.1 0l-.2.2c.1-.3.1-.4.2-.6-.2 0-.3-.1-.6.1-.1 0 0-.1.1-.2h.1c-.1 0-.2-.1-.4.1 0-.1.2-.2.1-.2l.1-.1c.1-.5-.7.3-.6-.3v.1c-.1-.4-.6-.3-.6-.7 0-.1-.1 0-.3 0l.1-.2-.2.1c-.2 0 .2-.5-.1-.4l-.1.1c0-.1-.2-.1-.1-.2 0 0-.1.1-.1 0l.1-.1h-.2c0-.1.3-.3.3-.4-.1 0-.3.1-.4.1 0 0 0 .1-.1.2h-.1c-.3.2-.6.4-.6.6h.2l-.1.1-.1-.1c-.1.1 0 .1.1 0l-.1.1.3-.1c-.1.1-.2.1-.2.2.1-.1.2-.2.3-.2-.1.1-.2.2 0 .2l-.1.1c.1 0 .1.1.3 0-.1.2.2.1-.1.3.1 0 .2-.1.3-.1-.3.2.1.1-.2.4.3-.2.3.1.5 0h-.1v.2c.2-.2.3-.2.5-.3-.1.2-.3.2-.4.4.1-.2.2-.1.4-.2-.1.2 0 .1-.2.3.2-.2.1 0 .3-.1-.1.2-.2.3-.1.2-1 .5-1.2.5-1.2.5zm2.1.9zm.2.1s-.1 0 0 0v-.2.2zm.4-1.3c.1 0 .1 0 0 0zm-.1.2c-.1 0-.1 0 0 0-.1 0-.1 0 0 0zm14-1zm-12.3 3.7l.1-.1-.1.1zm13.5-3.9zm.3-.3zm.3-.1s0-.1 0 0zm-4 3.5c0 .1 0 0 0 0z"/><path class="st27" d="M487.3 160.5v.1c.1 0 .1 0 0-.1zm-2.6 2.2zm2.6-2.1zm3.9-3.4c0-.1 0-.1 0 0zm0-.1zm0-.1c0 .1 0 .1 0 0zm-.3.4c0 .1 0 .1 0 0zm-.1.1h.2c0 .1-.3-.1-.2 0zm-1-.1h.1c-.1 0-.2-.1-.1-.1-.3-.2.1 0 0 .1zm-.3.1c0-.1-.1-.1-.1-.1 0 .1 0 .1.1.1zm-1.8 1.7l-.1-.1s.1 0 .1.1zm.3 1h.1l-.1-.1zm-1-.8v-.1l-.1.1zm-3.4 1.9l.1.2c0-.1-.1-.3-.1-.2zm-1.5.6c0-.1-.1-.2-.1-.1l.1.1zm-4.9-.9h.1-.1z"/><path class="st25" d="M512.3 173.7c.1 0 .2 0 .2-.1l-.3-.1.1.2zm.4-.8c-.1-.1-.4-.3-.6-.2.3.1.2.2.5.3 0 .1-.1.2-.2.2.1 0 0 .2.1.2.2-.2.2-.4 0-.5.1-.1.2 0 .2 0zm-5.1-10.1c0 .1 0 0 0 0zm-6.9-2.6c.1 0 .1 0 0 0zm-1.3-.3c.1 0 .1 0 0 0 .1 0 .1 0 0 0zm8.2 2.9l-.1-.2c-.1.1 0 .1.1.2zm4.3 8.6c0 .1.1.1 0 0 .1.1.1.1 0 0zm-1.8-6.5h.2-.2zm1.5 2c0-.1-.2 0-.3.1h.2l.1-.1zm1.1 3.8c0 .1 0 0 0 0zm-3.8-7.2zm2.6 12.7c0 .1 0 .1 0 0zm1.4-2.5h.1-.1zM497 159.9c.1 0 .1 0 0 0zm-10.8 16.7c.1-.3.3.3.5-.1-.1.1-.4-.2-.5.1zm25.7-5.2c0-.1 0-.1 0 0 0-.1 0-.1 0 0zm-25.2 5.1zm5.3-14.3c.1 0 0 0 0 0zm3.8-1.5h-.1.1zm-5.3 3c-.1 0-.1 0-.1.1l.1-.1c-.1.1 0 .1 0 0zm-1.4 1.6zm19.9 16.2c.1 0 .1 0 .2.1-.1-.1 0-.4-.2-.1zm3-10.1h-.1.1zm-20.3-6.3l-.2.2c0-.1.1-.2.2-.2zm4.8 20.2zm-5.7-19.4h-.2v.1l.2-.1zm18.4 15.6z"/><path class="st25" d="M510 179.6c-.2.2.2.3.3.4-.1.3-.3 0-.5 0 0 .2.1.5 0 .6 0 0-.1 0-.1-.1 0 .3-.4.6-.3 1h-.1c.1.1.3.1.3.2-.1.1 0 .3-.2.2.1-.1 0-.1 0-.2v.2c-.3-.1.1-.2-.1-.3-.1.3-.2.7-.4.8-.2-.2.3-.4-.1-.4l.3-.2c-.5-.1.2-.1-.3-.3-.3.2-.2.4-.6.7 0 .2.2.1.2.3-.3.6-.8-.2-.9.4 0 .2.2.5-.2.5l-.1-.3c-.3.2.1.5-.4.6 0-.1.2-.3.1-.3-.4 0-.1.3-.2.4l-.2-.2c-.3.2-.6.7-1.1.9 0-.1 0-.2-.1-.2-.2.2-.5.3-.8.4-.3.1-.6.1-.9.1l-.1.3-.1-.1c-.2 0 0 .1 0 .3-.1 0-.2-.1-.1-.2-.3.3-1 .7-1.5.5l.1-.1c-.3 0-.3.5-.6.4h.1c-.7 0-1.5.2-2.1-.2-.1.3-.7-.2-.8.3-.4-.3-.3-.4-.8-.6-.1 0-.3.2-.5.2v-.2l-.3.2-.1-.3h-.2c.1 0 .1.1.1.2-.3 0-.6-.3-.6-.5h-.7c0-.1.2-.1.3-.1-.4.1 0-.3-.3-.2 0 .1-.1.1-.1.2-.1-.2-.4-.4-.7-.4l.1-.1c-.4-.2-.9-.4-1.4-.7.1.2-.1.4-.2.3l.1-.2c-.2.1.1.2-.2.2-.2-.1.1-.3.2-.3l-.2-.1c0-.1.1-.1.2-.1-.2.1-.2-.5-.5-.3v-.1c-.4-.3-.6-.4-1-.7-.2.2-.3 0-.5 0-.2-.3-.3-.7-.6-1-.3-.1-.2.1-.4 0 .1-.1-.1-.4.1-.4-.3-.4-.4-.4-.9-.9 0 .1 0 .2-.1.2-.1-.1-.1-.3 0-.3-.3-.2-.4-.6-.4-1s-.1-.7-.4-.9l-.4-.4c-.1-.3.2.1.2-.1-.5-.4-.2-.9-.6-1.3.2-.2.2-.6.1-.9 0-.2-.1-.3-.1-.5s0-.3.1-.5h-.1c-.1-.1.1-.2.1-.3-.1 0-.1.1-.2.1-.1-.6 0-1.1.1-1.7.1-.3.2-.6.3-.8.1-.3.2-.5.3-.8.1-.4-.6-.4-.2-.8l.2.2c0-.4.1-.8.3-1.2.2-.4.4-.8.5-1.2 0 .1.1.1.1.2.2-.1.3-.5.2-.6.1-.1.1 0 .2 0 .2-.1 0-.5.2-.5v.1c0-.1.3-.4.1-.4.3-.2.3-.5.5-.7-.1-.3.4-.3.2-.6.3.3.6-.2.6-.5 0 .1.2 0 .2.1.2-.2.3-.3.1-.4.6 0 .4-.8 1-.5.1-.1.2-.3.3-.4l.3-.3c.2-.2.5-.4.7-.6.1.3-.6.4-.4.7.4-.4.6-.8 1.1-1 .2 0 0 .2 0 .3.5-.4 1-.4 1.5-.7 0 0 0 .1-.1.1.1 0 .2 0 .2-.2l-.1.1c-.2-.2.3-.6.3-.7-.1.5.5 0 .4.6.1 0 .1-.1.1-.2.1 0 .1.1.1.2.3-.2.2-.3.5-.4 0 .1 0 .1-.1.2.1-.2.3-.4.6-.3 0 0 0 .1-.1.1.5-.1.8-.5 1.3-.4-.1.3.2.1.2.4.1 0 .2-.1.3-.1l-.1-.1c.2 0 .5-.2.7-.1l-.2.1h.5l-.3-.1c.3-.1 0-.4.3-.3-.1 0 .3 0 .4.2.1-.1.3-.2.5-.1 0 .1-.1.3-.1.4.2-.2.6 0 .8-.2-.1 0-.1.2-.1.2l.1-.2c.1.1.1.1.1.2.3.1 0-.4.3-.1l-.1.1c.4.2.8.1 1.2.3 0 .3-.3 0-.3.2.5.1 1.2.1 1.7.4l-.1-.1c.3-.3.3.4.6.3-.1 0-.2.2-.1.1.3.3.7.3 1.2.5h-.1c.1.2.4.4.6.6.1 0 .2.1.2-.1.1.4.4.6.7.8.3.1.6.3.6.7-.1-.1-.2-.1-.2 0l.4.3c.1-.2 0-.1.1-.3.1 0 .3 0 .4.1-.3-.1-.2.2-.2.3l.1-.1c-.1.4.3-.2.4.3h-.1c.1.1.3.1.4.3-.1.2-.2-.1-.3 0 .1.2.6.1.5.4-.1-.1-.2-.2-.3-.2-.1.3 0 .3 0 .5l.1.4v-.1c.6 0 .4.4.9.6-.5-.2-.2 0-.4.1 0 .1 0 .3-.1.3.2.1 0 .3.3.4-.1 0 .1.2-.1.2.2.2.1-.1.2-.1.4.2 0 .9.5 1.2.3.4.5.4.8.8-.1.2-.3 0-.3 0-.1.2 0 .4.1.6-.1 0-.1 0-.2.1 0 .2.3.1.2.3-.1 0-.2 0-.3-.1.1.2.3.4.4.5-.1.1-.2-.1-.3-.2.1.2.2.6.4.6l.1-.2c0 .1-.2.1-.2 0-.2-.2 0-.3.1-.3l.1.1c.4-.2-.2-.6-.2-.9l.3.1-.3-.3c.1-.1.2-.2.3 0 .1-.2-.2-.2 0-.4h.1l-.1-.2c.1 0 .2-.1.2.1.1-.4-.4-.5-.2-.8-.3-.5-.2 0-.6-.3l.5-.4h-.2c0-.1 0-.2.1-.2-.2-.1-.1.1-.3 0 .1-.3-.4-.6 0-.8-.2 0 0 .3-.3.1.3-.2-.2-.3-.1-.6.2 0 .2.2.3-.1-.4 0-.1-.5-.3-.6-.3.1-.3-.3-.6-.6.1 0-.2-.6-.4-.9-.3.1-.4-.2-.6-.3.1-.1.2-.1.4-.1 0-.1-.1-.1-.2-.2-.1 0-.2 0-.3-.1l.2-.1c-.2-.2-.6-.3-.8-.7-.2.1-.2.6-.6.4.1-.1.2-.2.3-.2 0 0-.2 0-.2-.1h.2c-.1-.2-.2 0-.3-.1.1-.1 0-.2.1-.2 0 0 0 .1.1.1-.1-.1-.2-.3-.2-.5 0 .1-.1.2-.2.1-.2-.2 0-.2 0-.4-.1 0-.2-.2-.4 0-.1-.1 0-.1 0-.2-.2 0-.6-.4-.6-.1-.5-.1-.8-.7-1.3-.9v-.1c-.3-.1-.6-.3-.9-.2-.1 0-.1-.2-.1-.3-.2 0-.3 0-.6-.2.3 0 0-.1.3 0-.3-.2-.3-.3-.7-.2.2-.1-.1-.3-.3-.3l.2.2c-.2 0-.3-.1-.4-.2l.2-.2c-.5-.5-1.2.2-1.6-.4-.2.2.3.2.1.4-.3-.1-.5-.5-.6-.5-.4-.2-.4.3-.8.2 0 .1.1.3-.2.4-.3 0-.3-.4-.1-.5.1 0 .1 0 .1.1.1 0 .2-.1.1-.2v.1c-.1-.1-.5-.1-.4-.3-.2.1-.1.1.1.2-.4-.1-.6-.1-1-.1.1 0 .1.2.1.2-.6-.1-.2.2-.6.2-.2-.1.1-.3-.3-.2-.2-.1-.1-.2 0-.3-.3.2-.7 0-.9 0l.2-.1c-.1.1-.2.1-.3.1l.1.2c-.1 0-.2 0-.2-.1-.1.1.1.3-.1.5-.2-.1-.4.2-.5-.1.5 0-.1-.2.3-.3-.1 0-.2.1-.3 0v-.1c-.5-.1-.1.3-.6.4 0-.2-.2-.2-.2-.2.2 0 .1.2 0 .3-.3 0-.3.2-.4.2h.2c0 .1-.2.2-.3.3-.1-.1.1-.1.1-.2-.1.3-.6-.1-.8.2-.2 0-.1-.2-.3-.3-.3.3-.4 0-.7.3.2.1.2.1 0 .4l.5-.4-.2.4c.2-.1.3-.3.4-.3-.1.2-.1.2 0 .3-.3-.2-.4.4-.7.3l-.2-.4c-.5 0-.6.6-1.1.8h.2c0 .2-.3.2-.4.4-.1-.1-.2-.1-.3-.2.1.1-.3.2-.2.5h-.3c-.4.2-.2.6-.5.9 0-.2-.2-.2-.1-.5l-.2.2c-.1 0-.2.4-.4.4 0 .1.1.2 0 .3l-.1-.1c0 .1-.1.3.1.3-.6 0-.8.9-1.4 1-.1.3-.3.6-.5.9 0 0-.1 0 0-.1-.3.3.2.5-.1.7-.3.1 0-.3-.1-.2-.5-.2-.2.5-.6.6v-.1c-.3.1-.1.6-.3.9h-.1c.1.3 0 .8 0 1.2-.2-.2 0-.2-.3-.2 0 .2.3.1.3.4-.1.1-.3.2-.5.2 0-.1.1-.2.1-.3-.3.1-.1.4-.2.5l-.1-.1c-.1.5.2.6.1 1h.1c.2.3-.2.2 0 .5h-.3c0 .2.2.7.2 1-.2-.2-.3-.6-.4-.9 0 .2-.1.6.1.7 0-.1-.1-.2 0-.2.2.2.3.5.3.9-.6-.1-.2.9-.6 1.2.1.3.1.6.1 1 0 .3 0 .7.1 1.1.4-.4 0 .2.5.1.1.2.1.2 0 .2l-.1.6c-.1.2-.1-.1-.2-.1.1.4-.2.2-.2.5.2-.1.3.1.3.3l.1-.4c.4.5-.2.6.2 1l-.2-.1c.2.2.4 1 .9 1.1 0 .1-.1.2-.2.1.1.3.4.6.6.9.3.3.5.5.5.8h-.1c.1.1.3.1.3.3 0 0-.1 0-.1.1.1 0 .4.1.4.3h-.2c.1.3.4.5.6.6.2.1.5.2.7.4-.3.2 0 .7.2.9.5.6 1.2.7 1.8 1 .1.3.3.5.7.8.3.2.7.5 1 .7-.1-.1.1-.2.3-.2.1.1.5 0 .4.3h-.1c0 .3.3.4.6.5l.2-.4c.2.4.7.5 1.1.6.4 0 .8.1.9.4.2-.1.4 0 .6-.1v.2c.5.1.7.2 1.3.2l-.1.2c.3 0 .5-.6.8-.6l.1.3c.6 0 1.2.3 1.7 0 0 0 0 .1-.1.2.3 0 1.1.1.9-.3 0 .3.6-.1.9-.2v.2c.2-.3.2-.4.5-.6.1 0 .1.2 0 .1.3 0 .2-.3.5-.2l-.1.2c.3-.1.2-.1.3-.3.1-.1.5-.1.6 0 0-.1.1-.3.3-.3v.2c.5 0 .5-.5.9-.5 0 .1.1.1.1.1-.3.2-.6.3-.6.3.1.2.4.1.3.4.2-.3.4-.7.7-.8h.1c.1 0 .1-.1.2-.1s.2 0 .2-.1c.1.1.4-.1.5-.2-.1-.2.1-.3-.2-.3l-.1.1v.1c-.1.1-.2.1-.3.2 0-.2.1-.3.3-.3v-.4c.3.2.8.1.9.2.3-.4.9-.7.8-1.3.1-.1.2 0 .3 0 0 .1-.1.1-.1.2.1-.3.6-.6.4-.8.3-.1.1.3.3 0v.1c.5-.2.6-.6.7-1 .1-.4.2-.8.7-1-.1 0-.1.1-.2 0 .9-.8 1-2.1 1.7-3 .2-.3 0-.4 0-.6h.3c-.1-.1-.1-.3-.2-.4-.1-.5.8-.6.5-1.3h-.2c.1-.2 0-.7.2-.6 0 0-.2-.1-.1-.2h.1c0-.2-.1-.4-.2-.5.1-.4.5.1.5-.5 0-.2-.3-.6-.4-.6 0 .1-.1.2-.2.2l-.1-.2c-.4 0-.7-.2-1 .3l.2.3-.2.1v-.3c-.2.1 0 .2.1.4-.1 0-.2.1-.2.1l.3.3c-.1 0-.3-.2-.4 0 .1.2.3-.1.4.1-.2.1-.3.1-.2.3-.1 0-.2 0-.2-.1.1.2 0 .4.2.5-.2.1 0 .5-.4.4.1.1.2.3.2.5-.3-.4-.2.5-.6.3.3.3-.1.7 0 1.1 0 0-.1-.1 0-.1-.1.2-.2.2-.3.3.3.1.2.4.3.7-.4.1-.3-.3-.6-.3.2.1 0 .5.3.5-.2.1-.1.1-.4.1.3.2 0 .2.1.4-.3.1-.3-.1-.4.2-.4.6-.3.3-.3.3zm-4.5 5.1c.1 0 .1-.1.1-.1s0 .1-.1.1zm-.5.2c.1 0 .1-.1.2-.1.1.1.1.1 0 .2 0-.1-.1 0-.2-.1zm1.9.8c-.1.1-.1.1-.2 0h.2v-.1.1zm0-.4s-.1 0 0 0zm.7-22.4z"/><path class="st25" d="M497.1 185.3v.1h.1zm12.5-19.6c-.1.1-.1.1 0 0-.1.1 0 .1 0 0zm.7 1.2v.2c.1-.1.1-.1 0-.2zm.5 1s.1 0 0 0zm-14.5-5.8c-.1.1-.1 0 0 0zm5-1c-.1 0-.1.1-.2.1.1 0 .2 0 .2-.1zm-9.6 3.9v.1zm9.2-3.8h.2c-.1 0-.2-.1-.2 0zm11.2 11.2zm0 0c0 .1 0 0 0 0zm.1.2l-.1-.1s0 .1.1.1zm-.3-1.6zm-.1-.5c0 .1-.1.3 0 .4h.1c-.2 0 0-.3-.1-.4zm.3-2.1c0 .1.1.3.1.4.1-.1.1-.2.2-.1.1-.5-.1.2-.3-.3zm-.4-1.1c.1.2.1-.1.2-.1-.2-.1-.2-.1-.2.1zm-6.4-5.9l.1-.2c-.1-.1 0 .1-.1.2zm-1.9.4c0 .1.1.1.1.2l.1-.2h-.2zm-.5-1.7h-.3zm-13.8 4.8l.2.1c.1-.1-.1-.3-.2-.1zm-2.5 5.9c-.1 0-.2.2-.1.3 0-.1.1-.2.1-.3zm8.4 16h-.2.3z"/><path class="st26" d="M505.2 171.2h.2-.2zm.4-.1h-.5.4c.2 0 .2 0 0-.1 0 .1 0 .1.1.1zm-.5-1.4zm-.9-.5zm-.2-.2zm1.1.7c0-.1 0-.1 0 0zm0 1.3zm.5-1.1c0-.1 0-.1 0 0zm.2.2l-.2.1h.1s.1 0 .1-.1zm-.1.7c.1 0 0 0 0 0zm-.3-1.2zm-.6 1.7zm.9-.1h.1zm-2.2-2.4c.1 0 0 0 0 0zm-1.7 2.9c.1-.1.2 0 .4-.1-.1 0-.3 0-.4.1zm3.3-.7zm-3 .6zm.6-2.3c.1 0 0 0 0 0zm.7-.1zm-.8.5s0-.1 0 0c0 0 0-.1 0 0zm-.2.2zm2.3 1.8l.1.1-.1-.1zm.5-.7c-.1 0-.1 0 0 0-.1 0-.1 0 0 0-.1 0-.1 0 0 0zm-1.7-.3zm.3 1.3zm-.3-1.3c-.1 0-.1 0 0 0-.1 0-.1 0 0 0zm1.3 1.1z"/><path class="st26" d="M504.5 171.5s.2.1.3.2c.1 0-.1-.1-.3-.2.1.1.3.2.2.2l-.1-.1c.1.1 0 0 .1.2.1.1.2.1.2.2 0 0 .1.1 0 0l-.1-.1v.1c-.2-.1 0-.1-.2-.2 0 .1.1.2.1.2-.2-.1 0-.1-.2-.2h.1l-.3-.2c-.1 0 .1.1 0 .1l.2.2c.1.2-.4-.4-.2-.1.1.1.2.3.1.2l-.1-.2s.2.3.1.2v-.1l.1.1-.1-.2v.2c0-.1-.1-.1-.1-.2 0 .1-.1 0-.2-.1v.3s0-.1-.1-.2c0 .2 0 .3-.1.2v-.1.2c-.1-.1-.1.1-.2-.2 0 .3 0-.1-.1.2v-.4s-.1.2-.1.3v-.2l-.1.2v-.3l-.1.1c0-.1 0-.1.1-.1-.1.2.1-.2 0 0 0 0 0 .1-.1.1v-.1l.1-.1h-.1c0 .1-.1.3-.2.3l.1-.2c-.1.1 0 .1-.1.2 0 0 .1-.2.2-.2h-.1l.1-.1c-.1.1.1-.2 0 0h-.1l-.2.2c0-.1.1-.2.1-.2-.1 0-.1.1-.2.1l.2-.2h-.2c-.1 0-.1.1-.1.1s0-.1.1-.1c-.2.1.4-.3 0-.2h-.2s.1 0 .2-.1c-.3 0 0-.1-.2-.1.5-.1-.1-.1.2-.2h-.2c-.1-.1.2-.2.3-.2l-.3-.1.2.1c-.2-.1 0-.1-.1-.2l.1.1-.1-.1s.1.1.2.1-.1-.1 0-.1c-.1 0 0 0-.1-.1.1 0 0-.1.1 0-.1-.1.1 0-.1-.2.2.2.2.1.1 0l.1.1s0-.1-.1-.2c.2.2-.1-.3.2.1-.1-.1-.1-.3 0-.3.1.2 0 .1.1.3 0-.1-.1-.3 0-.3 0 0 0 .1.1.2 0-.1.1 0 .1-.2-.1-.2-.1-.4-.1-.5.1.4.1.1.2.5v-.2.1s0-.3.1-.2v.3-.2s0-.2.1-.1v.1-.3.1c0-.1 0-.1.1-.1v.3c0-.2.1 0 .1-.2v.2-.2.2s.1-.3.1-.2v.1c0 .1.1-.1.1 0l-.1.2c.1 0 .2-.2.2-.1.2-.3 0 .2.1 0 0 0-.1.2-.1.1 0 .1.1 0 .2-.1l-.1.1v.1c.1-.1.1 0 .1-.1-.3.4.3-.1.1.2h-.1.1l.1-.1.1-.1c-.1 0-.2.1-.2.2l.1-.1c-.2.2.2-.2.1 0h-.1s.1-.1.1 0c-.1.1-.1 0-.2.1 0 0 .3-.1.2 0h-.1l-.1.1-.1.1c.4-.2.1 0 .4-.1-.3.1-.1.1-.3.2l-.1.1c.1-.1-.1.1.1 0-.1 0 0 0-.1.1.1 0 .1 0 .2-.1.2 0-.2.2.1.1h.4-.2c-.1 0-.1.1 0 .1h-.2.1-.2.2-.2.3c.4-.1-.1-.1-.1-.1h.3-.2c.1 0 .2-.1.2 0 .1-.1-.1 0 0-.1h-.1.1c.1-.1-.2 0 0-.1-.1 0-.2 0-.4.1l.4-.2-.2.1.1-.1c-.1 0-.1 0-.2.1.2-.1-.1-.1.2-.2-.1 0-.1.1-.2.1.3-.1-.1 0 .1-.1s.1 0 .2-.1c-.3.1 0-.1 0-.1-.2.1-.1 0-.2 0 .1 0 .1-.1.1-.2l-.2.1c.1-.1.2-.1.2-.1-.1 0-.1.1-.1.1l.1-.1s-.2.1-.2-.1l-.4.4.2-.2s-.1 0 0 0l.1-.1c0-.1-.1.1-.1.1.1-.1 0-.1.1-.1 0 0 0-.1.1-.2 0 .1-.1.1-.1.1s.1-.1.1-.2l-.1.1s0-.1.1-.1c-.1 0-.1 0-.2.1-.2.1-.1-.2-.2-.1v-.1c-.1 0-.1 0-.2.1 0 0 0-.1.1-.2-.1 0-.1.1-.1 0 .1-.1 0-.1.1-.1 0-.1 0-.2-.1 0 .1-.1 0-.2 0-.2v.1h-.1l.1-.2c0-.3-.3.4-.3-.1-.1.1 0 .1 0 .3v-.3c-.1-.1-.1.3-.2.2 0 .1 0 .3-.1.3v-.5.1c0-.1-.1-.1-.1-.2v.2c-.1-.1-.1 0-.2-.1v.1c-.1-.1 0 .1-.1.2 0-.1 0-.3-.1-.2v-.3c0 .1-.1-.1-.2-.1v-.1c0 .1.1.2 0 .4 0-.1 0 .1-.1-.1.1.1 0-.2 0-.2v-.1c-.1-.2 0 .2-.1.2 0-.1-.1-.2-.1-.2s.1.2.1.3c-.1-.1 0 .1-.1.1 0 .2-.1-.2-.1 0 0-.1-.1-.2-.1-.2 0 .2-.1-.1-.1 0 .1.1.1.1.1.2v-.1.1c0 .1 0 .1.1.2-.1-.2 0 .1-.1 0l-.2-.3c-.1-.1 0 .2-.1.2h.1c.1.1 0 0 0 .1l-.2-.2c.1.1-.1 0 .1.2l-.1-.1c-.1 0 .2.3.1.3-.1-.1-.2-.2-.2-.3v.1c-.1 0 .1.2 0 .1l.1.1s0 .1.1.2c-.3-.2-.1.1-.4 0v.2s-.1 0 0 0c-.1 0 .3.2.1.2-.2-.1-.1-.1-.1-.1-.4-.2 0 .1-.2 0-.1 0 .1.2 0 .2h-.1c.2.1.2.2.2.3-.1-.1-.1 0-.2-.1 0 0 .2.1.3.1-.1 0-.2 0-.3-.1-.2 0 0 .1-.1.1h-.1c0 .1.2.1.2.2h.1c.2.1-.1 0 0 .1h-.2c.1 0 .2.1.3.2-.2 0-.3-.1-.4-.2 0 0 0 .1.1.1 0 0-.1 0 0 0 .2.1.3.1.3.1-.5 0-.1.1-.5.2.2.1-.1.2 0 .3.4-.1 0 0 .4 0-.1 0-.1.1-.2.1h-.2c0 .1-.1.1-.2.1h.2l.2-.1c.2 0-.3.2-.1.2h-.1c.1 0 .1.2.4.1 0 0-.1.1-.2.1 0 .1.4.1.3.2h-.1s.2-.1.1 0c0 0-.1 0-.1.1h.1-.1c0 .2.3 0 .4 0-.2.2-.2.3-.2.4.1.1.3 0 .5 0-.1.3.1.2.2.4 0-.1.1-.2.1-.2 0 .1.1-.1 0 .1s0 .2 0 .2l.1-.3c-.1.5.3-.1.3.3 0-.1.1-.1.1-.1v.2c.1.1.1.1.2.1v.1c.1 0 .1-.5.2-.5v.3c.1 0 .2.2.3 0v.1s.2.2.1-.2c0 .2.1 0 .1-.1v-.2.1c.1.1 0-.2.1-.1v-.1c0-.1.1 0 .1.2 0-.1-.1-.2 0-.2v.1c.1.1 0-.2.1-.1 0 .1 0 .1.1.1h-.1c.1.1.1.2.2.4 0-.1-.1-.4 0-.4h.1c.1.1.1 0 .1 0l-.2-.2c0-.1-.1-.2 0-.1 0-.1-.1-.2-.1-.3l.4.4c0-.1.1-.2-.1-.4l.1.1v.1c0-.1.1-.1-.1-.3.1 0 .1.2.2.1v.1c.2.1.1-.1.1-.2-.1-.1-.1-.2.1-.2h-.1c.3 0 0-.4.4-.4.1 0-.1-.1-.2-.1h.2l-.2-.1c-.1-.1.5 0 .2-.2h-.1s-.1-.1.1-.1h-.1.1c-.1 0-.1-.1-.2-.1.1-.1.4 0 .4-.1l-.3-.1h-1.1.2-.2.3-.3.3-.3c.1 0 0 0 .2.1-.2 0 0 .1-.2 0 .1 0 .2.1.2.1-.3-.1 0 0-.4-.1.3.1.1.1.3.2h-.3c.2.1.3.1.4.2.5.7.4.6.1.6.3.1.3.1.4.2-.1-.1-.1 0-.3-.1.3.1 0 0 .2.1-.1-.1-.3-.1-.2-.1 0-.1-.1-.1-.1-.1zm0 .7zm0 0c.1 0 .1.1.1.1-.1 0-.1-.1-.1-.1zm.7 1s0-.1 0 0c0-.1 0 0 0 0zm-.1-.2c0-.1 0-.1 0 0zm0-3.3z"/><path class="st26" d="M503.8 171.9v.1l.1-.1zm1.2-1.5zm0 .1c0 .1 0 0 0 0zm0 .2c0-.1.1-.1 0 0zm-1.2-.4c0 .1 0 0 0 0zm.4-.4c0 .1 0 .1 0 0zm-.7.8zm.6-.8c0 .1 0 .1 0 0zm1 1.2zm0 0zm0 0zm0-.2zm0 0s-.1.1 0 0c-.1.1.1 0 0 0zm.7-.5h.1c.2-.1-.1.1-.1 0zm0-.2s.1 0 .1-.1l-.1.1zm-1-.8l.1-.1c0-.1 0 0-.1.1zm-.4.7l-.1.1.1-.2zm.1-1.2v.1zm-2.2.9l.2.1c-.1-.1-.2-.2-.2-.1zm-.3 1c-.1-.1-.1 0 0 0 0 0 .1 0 0 0zm1.2 2.6zm-7.2-2.2h.2-.2zm.4-.1h-.5.4c.2 0 .2 0 0-.1 0 .1 0 .1.1.1zm-.5-1.4zm-.9-.5zm-.2-.2zm1.1.7c0-.1 0-.1 0 0zm0 1.3zm.5-1.1c0-.1 0-.1 0 0zm.2.2l-.2.1h.1c.1 0 .1 0 .1-.1zm0 .7zm-.4-1.2zm-.6 1.7zm.9-.1h.1zm-2.1-2.4zm-1.8 2.9c.1-.1.2 0 .4-.1-.1 0-.3 0-.4.1zm3.3-.7zm-2.9.6zm.5-2.3s.1 0 0 0c.1 0 .1 0 0 0zm.7-.1zm-.8.5s0-.1 0 0c0 0 0-.1 0 0zm-.2.2zm2.3 1.8l.1.1-.1-.1zm.5-.7c-.1 0-.1 0 0 0-.1 0-.1 0 0 0-.1 0-.1 0 0 0zm-1.6-.3c-.1 0 0 0 0 0zm.2 1.3zm-.3-1.3s-.1 0 0 0c-.1 0-.1 0 0 0zm1.3 1.1z"/><path class="st26" d="M495.3 171.5s.2.1.3.2c.1 0-.1-.1-.3-.2.1.1.3.2.2.2l-.1-.1c.1.1 0 0 .1.2.1.1.2.1.2.2 0 0 .1.1 0 0l-.1-.1v.1c-.2-.1 0-.1-.2-.2 0 .1.1.2.1.2-.2-.1 0-.1-.2-.2h.1l-.3-.2c-.1 0 .1.1 0 .1l.2.2c.1.2-.4-.4-.2-.1.1.1.2.3.1.2l-.1-.2s.2.3.1.2v-.1l.1.1-.1-.2v.2c0-.1-.1-.1-.1-.2 0 .1-.1 0-.2-.1v.3s0-.1-.1-.2c0 .2 0 .3-.1.2v-.1.2c-.1-.1-.1.1-.2-.2 0 .3 0-.1-.1.2v-.4s-.1.2-.1.3v-.2l-.1.2v-.3l-.1.1c0-.1 0-.1.1-.1-.1.2.1-.2 0 0 0 0 0 .1-.1.1v-.1l.1-.1h-.1c0 .1-.1.3-.2.3l.1-.2c-.1.1 0 .1-.1.2 0 0 .1-.2.2-.2h-.1l.1-.1c-.1.1.1-.2 0 0h-.1l-.2.2c0-.1.1-.2.1-.2-.1 0-.1.1-.2.1l.2-.2h-.2c-.1 0-.1.1-.1.1s0-.1.1-.1c-.2.1.4-.3 0-.2h-.2s.1 0 .2-.1c-.3 0 0-.1-.2-.1.5-.1-.1-.1.2-.2h-.2c-.1-.1.2-.2.3-.2l-.3-.1.2.1c-.2-.1 0-.1-.1-.2l.1.1-.1-.1s.1.1.2.1-.1-.1 0-.1c-.1 0 0 0-.1-.1.1 0 0-.1.1 0-.1-.1.1 0-.1-.2.2.2.2.1.1 0l.1.1s0-.1-.1-.2c.2.2-.1-.3.2.1-.1-.1-.1-.3 0-.3.1.2 0 .1.1.3 0-.1-.1-.3 0-.3 0 0 0 .1.1.2 0-.1.1 0 .1-.2-.1-.2-.1-.4-.1-.5.1.4.1.1.2.5v-.2.1s0-.3.1-.2v.3-.2s0-.2.1-.1v.1-.3.1c0-.1 0-.1.1-.1v.3c0-.2.1 0 .1-.2v.2-.2.2s.1-.3.1-.2v.1c0 .1.1-.1.1 0l-.1.2c.1 0 .2-.2.2-.1.2-.3 0 .2.1 0 0 0-.1.2-.1.1 0 .1.1 0 .2-.1l-.1.1v.1c.1-.1.1 0 .1-.1-.3.4.3-.1.1.2h-.1.1l.1-.1.1-.1c-.1 0-.2.1-.2.2l.1-.1c-.2.2.2-.2.1 0h-.1s.1-.1.1 0c-.1.1-.1 0-.2.1 0 0 .3-.1.2 0h-.1l-.1.1-.1.1c.4-.2.1 0 .4-.1-.3.1-.1.1-.3.2l-.1.1c.1-.1-.1.1.1 0-.1 0 0 0-.1.1.1 0 .1 0 .2-.1.2 0-.2.2.1.1h.4-.2c-.1 0-.1.1 0 .1h-.2.1-.2.2-.2.3c.4-.1-.1-.1-.1-.1h.3-.2c.1 0 .2-.1.2 0 .1-.1-.1 0 0-.1h-.1.1c.1-.1-.2 0 0-.1-.1 0-.2 0-.4.1l.4-.2-.2.1.1-.1c-.1 0-.1 0-.2.1.2-.1-.1-.1.2-.2-.1 0-.1.1-.2.1.3-.1-.1 0 .1-.1s.1 0 .2-.1c-.3.1 0-.1 0-.1-.2.1-.1 0-.2 0 .1 0 .1-.1.1-.2l-.2.1c.1-.1.2-.1.2-.1-.1 0-.1.1-.1.1l.1-.1s-.2.1-.2-.1l-.4.4.2-.2s-.1 0 0 0l.1-.1c0-.1-.1.1-.1.1.1-.1 0-.1.1-.1 0 0 0-.1.1-.2 0 .1-.1.1-.1.1s.1-.1.1-.2l-.1.1s0-.1.1-.1c-.1 0-.1 0-.2.1-.2.1-.1-.2-.2-.1v-.1c-.1 0-.1 0-.2.1 0 0 0-.1.1-.2-.1 0-.1.1-.1 0 .1-.1 0-.1.1-.1 0-.1 0-.2-.1 0 .1-.1 0-.2 0-.2v.1h-.1l.1-.2c0-.3-.3.4-.3-.1-.1.1 0 .1 0 .3v-.3c-.1-.1-.1.3-.2.2 0 .1 0 .3-.1.3v-.5.1c0-.1-.1-.1-.1-.2v.2c-.1-.1-.1 0-.2-.1v.1c-.1-.1 0 .1-.1.2 0-.1 0-.3-.1-.2v-.3c0 .1-.1-.1-.2-.1v-.1c0 .1.1.2 0 .4 0-.1 0 .1-.1-.1.1.1 0-.2 0-.2v-.1c-.1-.2 0 .2-.1.2 0-.1-.1-.2-.1-.2s.1.2.1.3c-.1-.1 0 .1-.1.1 0 .2-.1-.2-.1 0 0-.1-.1-.2-.1-.2 0 .2-.1-.1-.1 0 .1.1.1.1.1.2v-.1.1c0 .1 0 .1.1.2-.1-.2 0 .1-.1 0l-.2-.3c-.1-.1 0 .2-.1.2h.1c.1.1 0 0 0 .1l-.2-.2c.1.1-.1 0 .1.2l-.1-.1c-.1 0 .2.3.1.3-.1-.1-.2-.2-.2-.3v.1c-.1 0 .1.2 0 .1l.1.1s0 .1.1.2c-.3-.2-.1.1-.4 0v.2s-.1 0 0 0c-.1 0 .3.2.1.2-.2-.1-.1-.1-.1-.1-.4-.2 0 .1-.2 0-.1 0 .1.2 0 .2h-.1c.2.1.2.2.2.3-.1-.1-.1 0-.2-.1 0 0 .2.1.3.1-.1 0-.2 0-.3-.1-.2 0 0 .1-.1.1h-.1c0 .1.2.1.2.2h.1c.2.1-.1 0 0 .1h-.2c.1 0 .2.1.3.2-.2 0-.3-.1-.4-.2 0 0 0 .1.1.1 0 0-.1 0 0 0 .2.1.3.1.3.1-.5 0-.1.1-.5.2.2.1-.1.2 0 .3.4-.1 0 0 .4 0-.1 0-.1.1-.2.1h-.2c0 .1-.1.1-.2.1h.2l.2-.1c.2 0-.3.2-.1.2h-.1c.1 0 .1.2.4.1 0 0-.1.1-.2.1 0 .1.4.1.3.2h-.1s.2-.1.1 0c0 0-.1 0-.1.1h.1-.1c0 .2.3 0 .4 0-.2.2-.2.3-.2.4.1.1.3 0 .5 0-.1.3.1.2.2.4 0-.1.1-.2.1-.2 0 .1.1-.1 0 .1s0 .2 0 .2l.1-.3c-.1.5.3-.1.3.3 0-.1.1-.1.1-.1v.2c.1.1.1.1.2.1v.1c.1 0 .1-.5.2-.5v.3c.1 0 .2.2.3 0v.1s.2.2.1-.2c0 .2.1 0 .1-.1v-.2.1c.1.1 0-.2.1-.1v-.1c0-.1.1 0 .1.2 0-.1-.1-.2 0-.2v.1c.1.1 0-.2.1-.1 0 .1 0 .1.1.1h-.1c.1.1.1.2.2.4 0-.1-.1-.4 0-.4h.1c.1.1.1 0 .1 0l-.2-.2c0-.1-.1-.2 0-.1 0-.1-.1-.2-.1-.3l.4.4c0-.1.1-.2-.1-.4l.1.1v.1c0-.1.1-.1-.1-.3.1 0 .1.2.2.1v.1c.2.1.1-.1.1-.2-.1-.1-.1-.2.1-.2h-.1c.3 0 0-.4.4-.4.1 0-.1-.1-.2-.1h.2l-.2-.1c-.1-.1.5 0 .2-.2h-.1s-.1-.1.1-.1h-.1.1c-.1 0-.1-.1-.2-.1.1-.1.4 0 .4-.1l-.3-.1H495h.2-.2.3-.3.3-.3c.1 0 0 0 .2.1-.2 0 0 .1-.2 0 .1 0 .2.1.2.1-.3-.1 0 0-.4-.1.3.1.1.1.3.2h-.3c.2.1.3.1.4.2.5.7.4.6.1.6.3.1.3.1.4.2-.1-.1-.1 0-.3-.1.3.1 0 0 .2.1-.1-.1-.3-.1-.2-.1 0-.1-.1-.1-.1-.1zm0 .7s.1 0 0 0c.1 0 0 0 0 0zm0 0c.1 0 .1.1.1.1l-.1-.1zm.7 1s0-.1 0 0c0-.1 0 0 0 0zm-.1-.2c0-.1 0-.1 0 0zm0-3.3zm-1.2 2.2v.1-.1zm1.1-1.5zm0 .1c0 .1 0 0 0 0z"/><path class="st26" d="M495.8 170.7c0-.1.1-.1 0 0zm-1.2-.4c0 .1 0 0 0 0zm.4-.4c0 .1 0 .1 0 0zm-.6.8zm.5-.8c0 .1.1.1 0 0 .1 0 0 0 0 0zm1 1.2zm0 0zm.1 0c-.1 0-.1 0 0 0zm-.1-.2zm0 0s-.1.1 0 0c-.1.1.1 0 0 0zm.7-.5h.1c.2-.1-.1.1-.1 0zm0-.2s.1 0 .1-.1l-.1.1zm-1-.8l.1-.1c0-.1 0 0-.1.1zm-.4.7v.1-.2zm.1-1.2h.1l-.1.1zm-2.2.9l.2.1c-.1-.1-.2-.2-.2-.1zm-.3 1c-.1-.1-.1 0 0 0 0 0 .1 0 0 0zm1.2 2.6z"/><path class="st27" d="M509.2 176.2l-.1-.1.1.1zm-.4-.1l.3.3c-.1-.2-.1-.1-.2-.3 0 0 .1 0 .1.1 0 0 .1 0 0-.1s-.2 0-.1.1c-.1 0-.1-.1-.1-.1zm-2.3 1.9zm-1.5 1.1s0-.1 0 0c0-.1 0 0 0 0zm-.3-.1zm1.8-1c0 .1 0 0 0 0zm2.4-1.2c0-.1 0-.1 0 0 0-.1 0-.1 0 0zm-1.9.6c0-.1-.1-.1 0 0zm.4-.5l.2.2-.2-.2c0 .1 0 0 0 0zm.8-.5zm-1.6 1.2zm-15.5.5zm.1-1.1l.1-.1zm12.9 2.2c0-.1 0-.1 0 0zm-4.5 1.4c.1.2-.1.2 0 .4-.1-.1 0-.3 0-.4zm9.2-3.8zm-9.2 4.2zm3.5-1.2s0 .1 0 0c0 .1 0 0 0 0zm.9-.2zm-1.3.6s0 .1 0 0zm-.5.2s.1 0 0 0zm-9.8-1.2l.1-.1c-.1.1-.2.1-.1.1zm16.4-2.5zm-5.6 4.8c-.1 0 0 0 0 0zm-7.4-.2zm7.1.4c-.1-.1-.1-.1 0 0-.1-.1-.1-.1 0 0zm-10.5-2.6z"/><path class="st27" d="M491.7 179c.1.1.2-.1.3-.2.1 0-.1.2-.1.3.1 0 .3-.1.3-.1l-.1.1c.2-.1.2.1.4 0v.1c.1-.1.1-.2.2-.2 0 0 .1-.1.1.1 0 0-.1 0-.1.1h.1c-.1.2-.1 0-.2.1.1 0 .3-.1.3 0-.1.2-.1 0-.2.2v-.1c-.2.3 0-.1-.2.3.1.1.2 0 .2.1l.2-.2c.3-.1-.2.5.1.4.1-.1.3-.3.3-.1l-.2.2c.1.1.3-.2.3 0-.1.1-.1 0-.1 0 0 .2.1-.1.2 0l-.1.2h.5s-.1.1-.1.2c.2 0 .3.2.4.4l.2-.1s0 .1-.1.1c0 .1.1-.1.1-.1s0 .1-.1.1c.2-.1.5-.1.5.1 0 .1.3-.3.3-.1.1.2.4.1.4.4.1-.2.1.2.3-.1 0 .2 0 .3.1.4l.2-.2-.1.2.1-.2-.1.2h.1v-.1c.1-.1.1.2.1.3l.2-.1c0 .1-.1.1-.1.1.2-.1-.1.2.1.1 0 0 0-.1.1-.1 0 .1.1.2.2.1l-.1.1c.1.1.3 0 .5.1 0-.1 0-.3.1-.3v.2c.1-.1 0-.1.1-.2 0 0 0 .2-.1.3h.1c0 .1 0 .1-.1.2.1-.1.1.2.2 0v.1h.4c0-.2.1-.1.2-.2.1.1.2.2.3.2.1-.1.1-.1.1-.2 0 .2.1.2 0 .3.1 0 .2 0 .4-.1v-.2s.1.1 0 .2c.2-.2.4.5.6.2l.2-.2c.1 0-.1.1 0 .2.2-.3.3 0 .4-.1.1.5.4 0 .6.3v-.1c0-.1.1.1.1.1v-.2c.2-.1.3-.1.5 0 .2 0 .4.1.6.1.1 0 0-.6.2-.3v.2c.2-.3.5-.1.7-.4v.1c.1.1.2 0 .2-.2 0 0 0 .1.1.2s.1-.2.1-.1v.1c0-.1.2 0 .1-.2.1 0 .1-.1.2-.1 0-.2.2 0 .1-.2.1.3.2.2.2 0 0 .1.1.1.1.2.1 0 .1-.1 0-.2.2.3.1-.4.4 0 .1-.2.2-.4.4-.5.1.3-.2.1 0 .4.1-.2.1-.4.3-.5.1 0 0 .1 0 .2.1-.2.3-.1.3-.3v.1s.1 0 0-.1-.1-.4-.1-.5c.1.3.2 0 .3.4 0 0 0-.1-.1-.2 0 0 .1 0 .1.1.1-.1 0-.2 0-.3 0 .1 0 .1.1.2v-.3.1c.1-.1 0-.4.2-.4.1.2.1 0 .2.2v-.1l-.1-.1c.1 0 0-.2.1-.2v.1l.1-.1h-.1c0-.1-.2-.2-.1-.2 0 0 .1 0 .2.1v-.1c.1.1.1.2.2.2-.1-.2.1-.1 0-.3 0 0 .1.1.1.2l-.1-.1c.1 0 .1 0 .1.1.1 0-.2-.2 0-.2v.1c.1 0 .1-.2.2-.2.2.2 0 .1.1.2.1-.1.1-.4.2-.5-.2-.3.2.1.1-.1 0 0 .1.2.1.1.1 0 .1-.2.1-.4v.1c.1 0 .1-.1.2-.1 0-.1 0-.1-.1-.2.5.2.1-.4.5-.3v.1-.2c-.1-.1-.1 0-.2-.1 0-.1-.1-.2 0-.2 0 .1.2.2.2.2l-.1-.1c.2.1-.2-.2 0-.2v-.1c.1.1 0 .1.1.2 0 0-.1-.3 0-.2v.1c.2.1.2.1.2 0h.1-.1c-.3-.4 0-.2-.1-.4.1.3.1.1.2.3.1 0 .1 0 .2.1-.1-.1.1 0 0-.2l.1.1c0-.1-.1-.1-.1-.1-.1-.2.3 0 .2-.3 0-.2-.2-.3-.2-.5.1 0 .1.2.1.2.1 0 .1 0 .1-.1l.1.1s-.1-.2 0-.2c0 .1.1.1.2.2 0-.1-.1-.2-.1-.3.1.1.1.1.1.2 0-.1 0-.2-.1-.3h-.1l.1.1c.1.1-.1 0-.1 0v-.1c-.3-.2-.1.2-.1.2l-.2-.2.1.2c-.1 0-.2-.1-.2-.2-.1 0 0 .1-.1 0v.1l-.1-.1c-.2 0 0 .2-.1.1 0 .2.1.1.2.4l-.4-.3.1.1h-.1c.1.1.1 0 .1.2-.2-.1-.1.2-.3 0 .1.1.1 0 .2.1-.3-.2 0 .1-.2 0-.1-.1 0-.1-.2-.2.2.2-.1 0-.1.1.2.2 0 .1 0 .3-.1-.1-.2 0-.3 0 .2.2.1.2.1.3-.1-.1-.1-.1-.1-.2 0 .1.1.1.1.1l-.1-.1c0 .1 0 .3-.1.2.1.1.4.3.4.4l-.2-.2v.1l-.1-.1c-.1 0 .1.1 0 .1-.1-.1-.1 0-.1-.1 0 0 .1 0 0 0 0 0-.1 0-.2-.1.1 0 .1.1.1.2s-.1-.1-.2-.1c0 .1-.1 0 .1.2 0 0-.1 0-.1-.1 0 .1-.1.1 0 .3 0 .2-.3.1-.3.2s-.1.1-.1.3c0 0-.1-.1-.2-.1 0 .1 0 .1-.1.1 0-.1-.1-.1 0-.1-.1 0-.2-.1-.1.1-.1-.1-.2-.1-.2-.1l.1.1-.1.1-.1-.2c-.3-.1 0 .5-.3.2.1.1.1 0 .2.2-.1 0-.3-.2-.3-.2-.1 0 .1.3 0 .3.1.1.2.2.2.3-.1 0-.3-.2-.2-.3 0 0 0-.1-.1-.1v.1c-.1 0-.1 0-.2-.1 0 .1.1.1.1.1-.1 0-.1.1-.2.1l.1.1c-.2 0 0 .1 0 .2-.1-.1-.1-.2-.2-.1-.1 0-.1-.2-.1-.2 0 .2-.2 0-.2 0v-.1.1l.1.1h-.1c0 .1.1.2.2.3-.1 0 0 .1-.2 0 .1 0-.1-.2-.1-.2h-.1c-.2-.1.1.2 0 .3 0-.1-.1-.2-.1-.1 0 0 .1.1.1.2-.1 0 0 .1-.1.1h.1v.1c0 .2-.2-.1-.2 0-.1 0-.1-.2-.2-.2 0 .2-.1-.1-.2.1.1.1.1.1.1.2l.1-.2v.2s0-.1.1-.1c0 .1 0 .1.1.2-.2-.2 0 .2-.2.1l-.2-.3c-.2-.1-.1.2-.2.2h.1c0 .1-.1.1-.1.1 0-.1-.1-.1-.1-.2 0 .1-.1 0 0 .3v-.6c-.1 0 0 .4-.1.4 0-.1-.1-.2-.1-.3 0 0-.1 0 0 .1 0-.1 0 .2-.1.1v.1c0 .1 0 .1.1.2-.2-.3-.3.1-.5-.2l-.2.2v-.1c-.1-.1 0 .4-.1.3-.1-.2 0-.1 0-.2-.1-.4-.1.1-.2-.1-.1-.1-.1.2-.2.2v-.1c0 .2-.1.3-.2.4v-.2s.1.3 0 .3c0-.1-.1-.1-.2-.3h.1c-.1-.2-.1 0-.1 0v-.1c-.1 0-.1.3-.2.3v.1c0 .3-.1-.1-.1.1l-.1-.2c0 .1-.1.3-.2.3 0-.2.1-.3.1-.4 0 0-.1 0-.1.2v-.1c0 .2-.1.3-.2.3 0-.5-.2-.1-.3-.5-.1.2-.3 0-.5 0 .1.4 0 0 0 .4h-.1l-.1-.2v-.2c-.1 0 0-.2-.1-.3 0 .1 0 .2-.1.1l.1.2c-.1.2-.1-.3-.2-.1v-.1c-.1.1-.2 0-.3.3v-.2c-.1-.1-.4.3-.5.1v-.1s-.1.2-.1.1v-.1l-.1.1v-.1c-.1-.1-.3.2-.4.3.1-.3 0-.4-.1-.4-.2-.1-.3.2-.5.2 0-.3-.3-.2-.4-.4 0 .1-.1.2-.1.2 0-.1-.2.1-.1-.1s0-.2-.1-.2l-.1.3c0-.5-.5 0-.4-.4-.1.1-.1 0-.2.1l.1-.2c-.1-.1-.1-.1-.2-.1l.1-.1c-.1 0-.3.4-.4.4l.1-.2c-.1-.1-.1-.3-.3-.2l.1-.1c-.1 0-.1-.3-.3.1.1-.2-.1-.1-.2 0l.1-.1c-.2.2-.2.2-.3.2l.1-.1c0-.1-.1.1-.2 0l.1-.1c-.1 0-.1 0-.2.1-.1 0-.1-.1 0-.2-.1.1-.2.2-.2.1s.1-.1.1-.1c0-.2-.3.1-.2-.1v-.1l.1.1c.1-.1 0-.2.2-.3-.1.1-.3.2-.4.1v-.1h-.1v-.1c.1-.1 0-.1 0-.1l-.2.2h.1c-.1.1-.1.1-.1 0l-.2.2c.1-.2.1-.4.2-.5-.1 0-.2-.1-.5.1-.1 0 0-.1.1-.1h.1c-.1 0-.2-.1-.3.1 0-.1.2-.1.1-.2h.1c.1-.4-.6.2-.5-.3v.1c-.1-.3-.6-.2-.5-.7 0-.1-.1 0-.2 0l.1-.1-.2.1c-.2 0 .2-.5-.1-.4l-.1.1c0-.1-.2-.1-.1-.2 0 0-.1.1-.1 0l.1-.1h-.2c0-.1.3-.2.2-.4-.1 0-.3.1-.3.1s0 .1-.1.1h-.1c-.2.2-.5.3-.6.6h.2l-.1.1-.1-.1c-.1.1 0 .1.1 0l-.1.1.3-.1c-.1.1-.2.1-.2.2.1-.1.2-.2.3-.2-.1.1-.2.2 0 .1l-.1.1c.1 0 .1.1.2 0-.1.1.1.1-.1.3.1 0 .2-.1.2-.1-.3.2.1.1-.2.4.3-.2.2.1.4 0h-.1v.2c.2-.2.3-.2.4-.2-.1.2-.2.2-.4.4.1-.1.2-.1.3-.2-.1.1 0 .1-.1.2.2-.2.1 0 .2-.1 0 .2-.2.2-.1.2.4-.1.2-.1.2-.1zm1.9.8zm.1.1v-.1s.1.1 0 .1zm.5-1.2c0 .1-.1.1 0 0-.1.1-.1 0 0 0zm-.2.2zm12.5-.9zm-10.9 3.3zm12-3.4zm.3-.3z"/><path class="st27" d="M508.2 177.5c-.1-.1-.1-.1 0 0zm-3.6 3.1c0 .1 0 .1 0 0zm1-1.1s0 .1 0 0c0 .1 0 .1 0 0zm-2.4 2zm2.3-1.9c.1.1.1 0 0 0 .1 0 0 0 0 0zm3.6-3s0-.1 0 0zm0-.1c-.1 0-.1 0 0 0zm-.1 0c.1 0 .1 0 0 0zm-.3.3c.1 0 .1 0 0 0zm0 .1h.1s-.2-.1-.1 0zm-.9-.1h.1c-.1 0-.1-.1-.1-.1-.3-.1.1 0 0 .1zm-.3.1c0-.1-.1-.1 0 0-.1 0-.1 0 0 0zm-1.6 1.5l-.1-.1s.1 0 .1.1zm.2.9h.1v-.1zm-.8-.8l-.1.1zm-3 1.7l.1.2-.1-.2zm-1.4.6c0-.1-.1-.2 0 0-.1 0 0 0 0 0zm-4.3-.8z"/><path class="st17" d="M519.3 454l25-2.9c-2.1-18.3-13.9-34-30.6-41.2l-9.7 22.4-26.5 3.1-14.5-19.5c-11 8.2-18.8 20.8-20.3 35.6-.4 3.9-.4 7.8.1 11.6l24.1-2.8 15.9 21.4-9.6 22.3c4.6 2 9.6 3.3 14.9 3.9 13.1 1.4 25.6-2.3 35.5-9.5l-14.8-19.8 10.5-24.6z"/><path class="st28" d="M504.1 432.3l9.7-22.4c-4.6-2-9.5-3.3-14.7-3.8-13.3-1.4-26 2.4-36 9.8l14.6 19.6 26.4-3.2zm40.3 30.1c.4-3.8.4-7.6 0-11.3l-25 2.9-10.5 24.5 14.8 19.8c11.2-8.2 19.1-21 20.7-35.9zm-77.5-2.2l-24.1 2.8c2.2 18.1 13.9 33.7 30.5 40.8l9.6-22.3-16-21.3z"/><path class="st28" d="M481.7 484.5l-17.9-24.1 11.9-27.6 29.8-3.5 17.9 24.1-11.9 27.6-29.8 3.5zm-11.3-24.9l13.9 18.7 23.1-2.7 9.2-21.4-13.9-18.7-23.1 2.7-9.2 21.4z"/><path class="st2" d="M405.3 395.6v-39.8c0-4.3-5.1-6.4-8.1-3.4l-15.4 15.4c-1.8 1.8-1.9 4.6-.2 6.5l15.4 24.5c2.9 3.3 8.3 1.2 8.3-3.2zm-76.7.8v-39.8c0-4.3 5.1-6.4 8.1-3.4l15.4 15.4c1.8 1.8 1.9 4.6.2 6.5l-15.4 24.5c-2.9 3.3-8.3 1.2-8.3-3.2z"/><path class="st4" d="M337.7 483.2h103.4c4.8 0 8.8-3.9 8.8-8.8v-58.9c0-4.8-3.9-8.8-8.8-8.8H337.7c-4.8 0-8.8 3.9-8.8 8.8v58.9c0 4.8 4 8.8 8.8 8.8z"/><path class="st16" d="M400.4 406.9v-39.8c0-4.3-5.1-6.4-8.1-3.4l-15.4 15.4c-1.8 1.8-1.9 4.6-.2 6.5L392 410c2.9 3.4 8.4 1.3 8.4-3.1z"/><path class="st4" d="M442.2 460.1c9.4-10.1 23.1-28.6 23.9-50.9.6-17.9-7.2-34.5-23.1-49.3-3.7-3.4-9.5-3.2-12.9.5-3.4 3.7-3.2 9.5.5 12.9 11.8 11 17.7 22.8 17.3 35.2-.8 24.9-25.6 45.6-25.8 45.8-3.9 3.2-4.5 8.9-1.3 12.8 3.2 3.9 8.9 4.5 12.8 1.3.4-.3 4-3.2 8.6-8.3z"/><path class="st16" d="M333.5 407.2v-39.8c0-4.3 5.1-6.4 8.1-3.4l15.4 15.4c1.8 1.8 1.9 4.6.2 6.5l-15.4 24.5c-2.9 3.3-8.3 1.2-8.3-3.2z"/><linearGradient id="SVGID_6_" gradientUnits="userSpaceOnUse" x1="366.825" y1="521.453" x2="366.825" y2="419.985"><stop offset="0" stop-color="#3e95b6"/><stop offset="1" stop-color="#5fa2be"/></linearGradient><path d="M377.5 363.9v8.5c0 2.3-1.9 4.2-4.2 4.2h-.2c-2.3 0-4.2-1.9-4.2-4.2v-9.7h-3.5c-.4 0-.8 0-1.2.1v9.6c0 2.3-1.9 4.2-4.2 4.2h-.2c-2.3 0-4.2-1.9-4.2-4.2V364c-15.8 4.3-27.4 18.7-27.4 35.8v46.5c0 20.5 16.6 37.2 37.2 37.2h2.7c20.5 0 37.2-16.6 37.2-37.2v-46.5c0-17.3-11.8-31.8-27.8-35.9z" fill="url(#SVGID_6_)"/><path class="st4" d="M359.9 376.5h.2c2.3 0 4.2-1.9 4.2-4.2v-9.6c-2.9.1-5.8.5-8.5 1.3v8.4c-.1 2.2 1.8 4.1 4.1 4.1zm13.3 0h.2c2.3 0 4.2-1.9 4.2-4.2v-8.5c-2.7-.7-5.6-1.1-8.5-1.2v9.7c-.1 2.3 1.8 4.2 4.1 4.2zm-20.7 49.8c0-8.5-6.9-15.4-15.4-15.4s-15.4 6.9-15.4 15.4h30.8z"/><path class="st30" d="M360.3 412.7c-1.4 0-2.7-.3-4-.9-3.2-1.5-5.2-4.8-5.2-8.3 0-1 .8-1.9 1.9-1.9s1.9.8 1.9 1.9c0 2.1 1.2 4 3.1 4.9.7.4 1.5.5 2.4.5 3 0 5.4-2.4 5.4-5.4 0-1 .8-1.9 1.9-1.9s1.9.8 1.9 1.9c-.1 5-4.2 9.2-9.3 9.2z"/><path class="st30" d="M374.7 412c-5.1 0-9.2-4.1-9.2-9.2 0-1 .8-1.9 1.9-1.9s1.9.8 1.9 1.9c0 3 2.4 5.4 5.4 5.4.8 0 1.6-.2 2.3-.5 1.9-.9 3.1-2.8 3.1-4.9 0-1 .8-1.9 1.9-1.9 1 0 1.9.8 1.9 1.9 0 3.5-2.1 6.8-5.2 8.3-1.3.6-2.6.9-4 .9z"/><path class="st3" d="M373.7 399.3l-4 4c-1.3 1.3-3.3 1.3-4.5 0l-4-4c-2-2-.6-5.5 2.3-5.5h8c2.8 0 4.2 3.5 2.2 5.5z"/><path class="st30" d="M351.4 390.4c-.2 0-.3 0-.5-.1-1-.3-1.6-1.3-1.3-2.3.6-2.1 1.9-3.9 3.8-5s4.1-1.4 6.3-.9c1 .3 1.6 1.3 1.3 2.3-.3 1-1.3 1.6-2.3 1.3-1.2-.3-2.4-.1-3.4.5s-1.8 1.6-2.1 2.7c-.2.9-1 1.5-1.8 1.5zm31.7 0c-.8 0-1.6-.6-1.8-1.4-.3-1.2-1-2.1-2-2.8-1-.6-2.2-.8-3.4-.5a2 2 0 01-2.3-1.4 2 2 0 011.4-2.3c2.1-.5 4.4-.2 6.2 1 1.9 1.1 3.2 3 3.7 5.1.2 1-.4 2-1.4 2.3h-.4z"/><linearGradient id="SVGID_7_" gradientUnits="userSpaceOnUse" x1="392.409" y1="370.609" x2="392.409" y2="738.232"><stop offset="0" stop-color="#ffe9bf"/><stop offset=".796" stop-color="#ff8761"/><stop offset="1" stop-color="#ff6e48"/></linearGradient><path fill="url(#SVGID_7_)" d="M321.1 426.3h142.6v88.3H321.1z"/><path class="st7" d="M380.6 495.1H339c-.9 0-1.6-.7-1.6-1.6 0-.9.7-1.6 1.6-1.6h41.7c.9 0 1.6.7 1.6 1.6 0 .9-.8 1.6-1.7 1.6zm-17.8 9.5H339c-.9 0-1.6-.7-1.6-1.6 0-.9.7-1.6 1.6-1.6h23.9c.9 0 1.6.7 1.6 1.6 0 .9-.8 1.6-1.7 1.6zm-25.4-61.9h19v19h-19zm-16.3-16.4l-21.8 40.6h21.8zm142.6.2l21.8 40.5h-21.8z"/><path class="st23" d="M37.5 490.5c-9.8 0-17.7-8-17.7-17.7s8-17.7 17.7-17.7c9.8 0 17.7 8 17.7 17.7s-7.9 17.7-17.7 17.7zm0-28.8c-6.1 0-11.1 5-11.1 11.1s5 11.1 11.1 11.1 11.1-5 11.1-11.1-5-11.1-11.1-11.1zM821.3 80.8c-14.3 1.1-26.1-10.7-25-25 .9-11.2 10-20.3 21.2-21.2 14.3-1.1 26.1 10.7 25 25-.9 11.2-10 20.3-21.2 21.2zm0-37.4c-9.4-1.2-17.4 6.8-16.2 16.2.8 6.4 6 11.6 12.5 12.5 9.4 1.2 17.4-6.8 16.2-16.2-.8-6.5-6-11.7-12.5-12.5zM95 99.7c-2.4 0-4.3-1.9-4.3-4.3V55.3c0-2.4 1.9-4.3 4.3-4.3s4.3 1.9 4.3 4.3v40.1c0 2.4-1.9 4.3-4.3 4.3z"/><path class="st23" d="M119.4 75.3c0 2.4-1.9 4.3-4.3 4.3H74.9c-2.4 0-4.3-1.9-4.3-4.3s1.9-4.3 4.3-4.3H115c2.4.1 4.4 2 4.4 4.3zm751.8 395.4c-2 0-3.6-1.6-3.6-3.6v-33.5c0-2 1.6-3.6 3.6-3.6s3.6 1.6 3.6 3.6v33.5c0 2-1.6 3.6-3.6 3.6z"/><path class="st23" d="M891.5 450.4c0 2-1.6 3.6-3.6 3.6h-33.5c-2 0-3.6-1.6-3.6-3.6s1.6-3.6 3.6-3.6H888c2 0 3.5 1.6 3.5 3.6z"/><circle class="st5" cx="860.1" cy="136.5" r="8.9"/><path class="st32" d="M760.2 485.4c-8 0-14.5-6.5-14.5-14.5s6.5-14.5 14.5-14.5 14.5 6.5 14.5 14.5-6.5 14.5-14.5 14.5zm0-23.7c-5.1 0-9.2 4.1-9.2 9.2s4.1 9.2 9.2 9.2 9.2-4.1 9.2-9.2-4.1-9.2-9.2-9.2z"/><circle class="st1" cx="173.8" cy="71.4" r="6.8"/><circle class="st33" cx="480.8" cy="238.6" r="5.9"/><circle class="st2" cx="826" cy="214" r="6.7"/><path class="st33" d="M677.2 56c-1.7 1.7-4.5 1.7-6.2 0l-19.6-19.6c-1.7-1.7-1.7-4.5 0-6.2 1.7-1.7 4.5-1.7 6.2 0l19.6 19.6c1.7 1.7 1.7 4.5 0 6.2z"/><path class="st1" d="M522.9 529.2c0 1.9-1.5 3.4-3.4 3.4h-21.7c-1.9 0-3.4-1.5-3.4-3.4s1.5-3.4 3.4-3.4h21.7c1.9-.1 3.4 1.5 3.4 3.4z"/><path class="st1" d="M508.7 514.9c1.9 0 3.4 1.1 3.4 2.5v23.5c0 1.4-1.5 2.5-3.4 2.5s-3.4-1.1-3.4-2.5v-23.5c-.1-1.4 1.5-2.5 3.4-2.5z"/><path class="st33" d="M677.2 30.2c1.7 1.7 1.7 4.5 0 6.2L657.6 56c-1.7 1.7-4.5 1.7-6.2 0-1.7-1.7-1.7-4.5 0-6.2L671 30.2c1.7-1.8 4.5-1.8 6.2 0z"/><path class="st1" d="M209 128v81.2c0 7.3 8.1 11.6 14.1 7.6l42.8-28.2L209 128"/><path class="st1" d="M265.4 188.6h95c31.3 0 56.7-25.4 56.7-56.7 0-31.3-25.4-56.7-56.7-56.7h-95c-31.3 0-56.7 25.4-56.7 56.7 0 31.3 25.4 56.7 56.7 56.7z"/><path class="st34" d="M244.4 155l16.6-37.6h-23.3v-8.7h34.8v6.9L255.3 155h-10.9zm31.8-23.1c0-11.9 5.9-23.9 19.2-23.9 13.2 0 19.2 11.9 19.2 23.9 0 11.9-6 23.9-19.2 23.9-13.3 0-19.2-12-19.2-23.9zm28.3 0c0-8.5-2.5-15.1-9.1-15.1-6.7 0-9.2 6.6-9.2 15.1s2.5 15.2 9.2 15.2c6.6 0 9.1-6.7 9.1-15.2zm38.8 23.1v-10.9l-4.5 10.9h-2l-4.5-10.9V155h-4.4v-16.8h5.8l4.1 10 4.1-10h5.8V155h-4.4zm8.8 0v-16.8h4.4v10.1l6.9-10.1h4.4V155h-4.4v-10.5l-7.1 10.5h-4.2zm20.1 0v-16.8h4.4v6.2h6.9v-6.2h4.4V155h-4.4v-6.7h-6.9v6.7h-4.4z"/><path class="st32" d="M735.5 136.9c0 .9-.7 1.6-1.6 1.6h-10c-.9 0-1.6-.7-1.6-1.6 0-.9.7-1.6 1.6-1.6h10c.9 0 1.6.8 1.6 1.6z"/><path class="st32" d="M728.9 130.3c.9 0 1.6.5 1.6 1.2v10.9c0 .6-.7 1.2-1.6 1.2-.9 0-1.6-.5-1.6-1.2v-10.9c0-.7.7-1.2 1.6-1.2z"/><path class="st35" d="M503.7 335.9c-1 1-2.6 1-3.6 0l-11.4-11.4c-1-1-1-2.6 0-3.6s2.6-1 3.6 0l11.4 11.4c1 1 1 2.6 0 3.6z"/><path class="st35" d="M503.7 320.8c1 1 1 2.6 0 3.6l-11.4 11.4c-1 1-2.6 1-3.6 0s-1-2.6 0-3.6l11.4-11.4c1-1 2.6-1 3.6 0z"/><path class="st34" d="M603 150v9.6h-4.1V150h-8.5v-3.7h8.5v-9.2h4.1v9.2h8.5v3.7H603zm19.4 14.1v-22.9l-5.3 5.3-3.8-4 9.9-10h5.9v31.6h-6.7zm11.5-15.7c0-8.1 4-16.3 13.1-16.3 9 0 13.1 8.1 13.1 16.3 0 8.1-4.1 16.3-13.1 16.3-9.1 0-13.1-8.2-13.1-16.3zm19.2 0c0-5.8-1.7-10.3-6.2-10.3s-6.2 4.5-6.2 10.3 1.7 10.4 6.2 10.4c4.5-.1 6.2-4.6 6.2-10.4z"/></svg>